<svg width="162" height="51" viewBox="0 0 162 51" fill="none" xmlns="http://www.w3.org/2000/svg">
<path d="M56.4585 22.5423H53.0425V21.5028C53.0425 21.0144 53.0004 20.7074 52.9092 20.5749C52.825 20.4423 52.6777 20.3725 52.4743 20.3725C52.2569 20.3725 52.0885 20.4632 51.9693 20.6446C51.8571 20.826 51.8009 21.0981 51.8009 21.4609C51.8009 21.9283 51.8641 22.2842 51.9903 22.5214C52.1096 22.7586 52.4603 23.0446 53.0284 23.3795C54.6628 24.3423 55.6939 25.1376 56.1218 25.7586C56.5497 26.3795 56.7601 27.3771 56.7601 28.7516C56.7601 29.7562 56.6408 30.4888 56.4094 30.9632C56.1709 31.4376 55.7149 31.8353 55.0416 32.1562C54.3682 32.4771 53.5826 32.6376 52.6847 32.6376C51.7027 32.6376 50.861 32.4492 50.1666 32.0794C49.4722 31.7097 49.0162 31.2353 48.7988 30.6632C48.5814 30.0911 48.4761 29.2748 48.4761 28.2213V27.3004H51.8921V29.0097C51.8921 29.5399 51.9412 29.8748 52.0394 30.0283C52.1376 30.1818 52.306 30.2516 52.5515 30.2516C52.797 30.2516 52.9794 30.1539 53.0986 29.9655C53.2178 29.7771 53.274 29.4911 53.274 29.1143C53.274 28.2841 53.1617 27.7469 52.9302 27.4888C52.6988 27.2376 52.1236 26.812 51.2117 26.212C50.2999 25.612 49.6896 25.1725 49.395 24.9004C49.1004 24.6283 48.8549 24.2516 48.6585 23.7702C48.4621 23.2888 48.3639 22.6748 48.3639 21.9283C48.3639 20.8539 48.5042 20.0656 48.7778 19.5632C49.0513 19.0679 49.5002 18.6772 50.1175 18.3981C50.7348 18.1191 51.4783 17.9795 52.3551 17.9795C53.309 17.9795 54.1227 18.133 54.7961 18.44C55.4694 18.747 55.9113 19.1307 56.1288 19.5981C56.3462 20.0656 56.4585 20.8539 56.4585 21.9702V22.5283V22.5423Z" fill="white"/>
<path d="M66.7135 18.2854V27.6761C66.7135 28.7435 66.6784 29.49 66.6083 29.9226C66.5381 30.3551 66.3347 30.7947 65.991 31.2482C65.6473 31.7016 65.1914 32.0435 64.6302 32.2807C64.0691 32.5179 63.4097 32.6295 62.6452 32.6295C61.8035 32.6295 61.0599 32.49 60.4076 32.2109C59.7623 31.9319 59.2783 31.5691 58.9556 31.1296C58.633 30.683 58.4436 30.2156 58.3875 29.7203C58.3314 29.2249 58.3033 28.1854 58.3033 26.6017V18.2854H61.9788V28.8272C61.9788 29.4412 62.0139 29.8319 62.077 30.0063C62.1472 30.1737 62.2804 30.2644 62.4838 30.2644C62.7153 30.2644 62.8696 30.1668 62.9328 29.9854C63.0029 29.797 63.031 29.3505 63.031 28.6528V18.2924H66.7065L66.7135 18.2854Z" fill="white"/>
<path d="M76.7931 18.2854V32.3435H73.5735L71.6586 25.9528V32.3435H68.5863V18.2854H71.6586L73.7208 24.6133V18.2854H76.7931Z" fill="white"/>
<path d="M83.036 18.2865H86.7396C87.7427 18.2865 88.5072 18.3633 89.0473 18.5237C89.5874 18.6772 89.9873 18.9075 90.2608 19.2005C90.5344 19.4935 90.7168 19.8563 90.8079 20.2749C90.9061 20.6935 90.9552 21.3423 90.9552 22.2214V23.4423C90.9552 24.3423 90.8641 24.9911 90.6747 25.4028C90.4853 25.8144 90.1486 26.1284 89.6506 26.3516C89.1526 26.5749 88.5002 26.6795 87.7006 26.6795H86.7116V32.3376H83.036V18.2796V18.2865ZM86.7116 20.6935V24.2725C86.8168 24.2725 86.908 24.2795 86.9781 24.2795C87.3148 24.2795 87.5533 24.1958 87.6795 24.0353C87.8128 23.8679 87.8759 23.526 87.8759 23.0098V21.8586C87.8759 21.3772 87.7988 21.0633 87.6515 20.9237C87.4972 20.7772 87.1885 20.7075 86.7116 20.7075V20.6935Z" fill="white"/>
<path d="M92.4564 18.2865H95.0587C96.7913 18.2865 97.9697 18.3563 98.5799 18.4889C99.1902 18.6214 99.6952 18.9633 100.081 19.5075C100.467 20.0516 100.663 20.9237 100.663 22.1237C100.663 23.2191 100.523 23.9516 100.249 24.3284C99.9758 24.7051 99.4357 24.9284 98.636 25.0051C99.3655 25.1865 99.8495 25.4237 100.102 25.7237C100.355 26.0237 100.509 26.3028 100.572 26.5539C100.635 26.8051 100.663 27.4958 100.663 28.633V32.3376H97.2472V27.6702C97.2472 26.9167 97.1841 26.4493 97.0648 26.2749C96.9456 26.0935 96.6299 26.0028 96.1249 26.0028V32.3376H92.4494V18.2796L92.4564 18.2865ZM96.1319 20.6935V23.8191C96.5458 23.8191 96.8334 23.7633 97.0017 23.6516C97.17 23.54 97.2472 23.1702 97.2472 22.5563V21.7819C97.2472 21.3354 97.17 21.0423 97.0087 20.9028C96.8474 20.7633 96.5528 20.6935 96.1319 20.6935Z" fill="white"/>
<path d="M110.931 26.5188C110.931 27.9281 110.896 28.9327 110.833 29.5188C110.763 30.1048 110.56 30.642 110.202 31.1304C109.851 31.6188 109.374 31.9885 108.771 32.2536C108.175 32.5118 107.473 32.6443 106.674 32.6443C105.874 32.6443 105.236 32.5188 104.633 32.2746C104.029 32.0304 103.545 31.6606 103.181 31.1653C102.816 30.6699 102.598 30.1397 102.528 29.5606C102.458 28.9816 102.423 27.9699 102.423 26.5188V24.1118C102.423 22.7025 102.458 21.6979 102.521 21.1118C102.584 20.5258 102.795 19.9886 103.153 19.5002C103.503 19.0119 103.98 18.6421 104.576 18.3839C105.173 18.1258 105.874 17.9933 106.674 17.9933C107.473 17.9933 108.112 18.1188 108.715 18.363C109.318 18.6072 109.802 18.977 110.167 19.4723C110.532 19.9677 110.749 20.4979 110.819 21.077C110.889 21.656 110.924 22.6676 110.924 24.1188V26.5258L110.931 26.5188ZM107.256 21.9002C107.256 21.2444 107.221 20.8258 107.144 20.6444C107.067 20.463 106.919 20.3723 106.695 20.3723C106.505 20.3723 106.358 20.4491 106.253 20.5956C106.148 20.7421 106.099 21.1816 106.099 21.9002V28.4653C106.099 29.2816 106.134 29.7839 106.197 29.9792C106.267 30.1676 106.421 30.2653 106.667 30.2653C106.912 30.2653 107.081 30.1536 107.144 29.9374C107.214 29.7211 107.249 29.1909 107.249 28.3676V21.9072L107.256 21.9002Z" fill="white"/>
<path d="M112.749 18.2865H116.452C117.455 18.2865 118.22 18.3633 118.76 18.5237C119.3 18.6772 119.7 18.9075 119.974 19.2005C120.247 19.4935 120.43 19.8563 120.521 20.2749C120.619 20.6935 120.668 21.3423 120.668 22.2214V23.4423C120.668 24.3423 120.577 24.9911 120.387 25.4028C120.198 25.8144 119.861 26.1284 119.363 26.3516C118.865 26.5749 118.213 26.6795 117.413 26.6795H116.424V32.3376H112.749V18.2796V18.2865ZM116.424 20.6935V24.2725C116.53 24.2725 116.621 24.2795 116.691 24.2795C117.028 24.2795 117.266 24.1958 117.392 24.0353C117.526 23.8679 117.589 23.526 117.589 23.0098V21.8586C117.589 21.3772 117.512 21.0633 117.364 20.9237C117.21 20.7772 116.901 20.7075 116.424 20.7075V20.6935Z" fill="white"/>
<path d="M122.169 18.2865H128.299V21.0981H125.844V23.7633H128.138V26.4353H125.844V29.526H128.538V32.3376H122.169V18.2796V18.2865Z" fill="white"/>
<path d="M130.04 18.2865H132.642C134.374 18.2865 135.553 18.3563 136.163 18.4889C136.773 18.6214 137.278 18.9633 137.664 19.5075C138.05 20.0516 138.246 20.9237 138.246 22.1237C138.246 23.2191 138.106 23.9516 137.832 24.3284C137.559 24.7051 137.019 24.9284 136.219 25.0051C136.949 25.1865 137.433 25.4237 137.685 25.7237C137.938 26.0237 138.092 26.3028 138.155 26.5539C138.218 26.8051 138.246 27.4958 138.246 28.633V32.3376H134.83V27.6702C134.83 26.9167 134.767 26.4493 134.655 26.2749C134.536 26.0935 134.22 26.0028 133.715 26.0028V32.3376H130.04V18.2796V18.2865ZM133.715 20.6935V23.8191C134.129 23.8191 134.416 23.7633 134.585 23.6516C134.753 23.54 134.83 23.1702 134.83 22.5563V21.7819C134.83 21.3354 134.753 21.0423 134.592 20.9028C134.43 20.7633 134.136 20.6935 133.715 20.6935Z" fill="white"/>
<path d="M147.519 18.2854V21.0971H145.338V32.3435H141.662V21.0971H139.488V18.2854H147.519Z" fill="white"/>
<path d="M157.079 18.2854L154.4 27.2505V32.3365H150.998V27.2505L148.417 18.2854H151.791C152.317 21.0273 152.618 22.8761 152.681 23.8249C152.885 22.325 153.228 20.4761 153.705 18.2854H157.079Z" fill="white"/>
<path d="M159.99 18.0903C158.888 18.0903 157.998 18.9833 157.998 20.0717C157.998 21.1601 158.895 22.0531 159.99 22.0531C161.084 22.0531 161.982 21.1601 161.982 20.0717C161.982 18.9833 161.084 18.0903 159.99 18.0903ZM159.99 21.7461C159.064 21.7461 158.313 20.9996 158.313 20.0787C158.313 19.1578 159.064 18.4112 159.99 18.4112C160.916 18.4112 161.666 19.1578 161.666 20.0787C161.666 20.9996 160.916 21.7461 159.99 21.7461Z" fill="white"/>
<path d="M160.727 20.9575C160.727 20.9575 160.678 20.9086 160.671 20.5947C160.671 20.4482 160.657 20.3435 160.629 20.2738C160.601 20.19 160.552 20.1273 160.496 20.0854C160.566 20.0435 160.622 19.9947 160.664 19.9319C160.72 19.8482 160.741 19.7435 160.741 19.6249C160.741 19.3738 160.622 19.0738 160.04 19.0738H159.24V21.0691H159.528V20.211H160.04C160.138 20.211 160.208 20.2249 160.257 20.2459C160.313 20.2738 160.348 20.3226 160.362 20.3924V20.4063C160.362 20.4482 160.376 20.5459 160.39 20.7063C160.397 20.8668 160.418 20.9784 160.46 21.0412L160.474 21.0691H160.748V20.9714L160.727 20.9575ZM160.446 19.6319C160.446 19.7435 160.411 19.8203 160.327 19.8761C160.257 19.9249 160.152 19.9528 160.026 19.9528H159.521V19.3319H160.033C160.397 19.3319 160.439 19.4993 160.439 19.6319" fill="white"/>
<path fill-rule="evenodd" clip-rule="evenodd" d="M23.0279 24.0351H22.8247V25.0459H23.077C23.2242 25.0459 23.3293 24.9971 23.3854 24.8926L23.4204 24.7601L23.4344 24.5231C23.4344 24.3488 23.4204 24.2303 23.3854 24.1606C23.3363 24.077 23.2172 24.0351 23.035 24.0351H23.0279Z" fill="white"/>
<path fill-rule="evenodd" clip-rule="evenodd" d="M26.2961 24.0008C26.1699 24.0008 26.0857 24.0496 26.0366 24.1473C26.0085 24.2241 26.0015 24.3078 26.0015 24.4055V26.5961C26.0015 26.7287 26.0226 26.8334 26.0717 26.9101C26.1138 26.9729 26.1909 27.0078 26.3031 27.0078C26.4224 27.0078 26.5136 26.952 26.5557 26.8543C26.5837 26.7775 26.5907 26.6938 26.5907 26.6031V24.4124C26.5907 24.3078 26.5767 24.2241 26.5557 24.1613C26.5136 24.0636 26.4224 24.0148 26.2961 24.0148V24.0008Z" fill="white"/>
<path fill-rule="evenodd" clip-rule="evenodd" d="M32.4479 24.0695H32.3287V25.171H32.581C32.7282 25.171 32.8333 25.1291 32.8894 25.0525C32.9385 24.9618 32.9665 24.8154 32.9665 24.6063C32.9665 24.3623 32.9245 24.202 32.8333 24.1323C32.7773 24.0835 32.6511 24.0626 32.4479 24.0626V24.0695Z" fill="white"/>
<path fill-rule="evenodd" clip-rule="evenodd" d="M37.7933 22.2417H5.36598C7.16866 19.2557 10.9704 16.9953 16.8905 15.5581C27.4612 13.0046 33.227 20.0999 36.5307 20.5394C39.8415 20.972 40.6692 19.4301 41.7354 18.2162C33.9705 17.2325 26.8159 7.00461 21.1553 0C15.8454 6.18136 8.83106 17.6371 0.00701435 18.0697V27.0626H4.08235V28.6673H36.4325C34.6439 31.6952 30.8281 33.9905 24.8518 35.4347C14.2812 37.9951 8.44527 30.858 5.20465 30.4533C1.96402 30.0487 1.06618 31.5696 0 32.7766C7.7719 33.7533 15.4316 43.9881 21.0921 50.9997C26.402 44.8114 32.9043 33.3556 41.7284 32.9301V23.8464H37.7793V22.2417H37.7933ZM10.1778 27.3836C9.9253 27.6557 9.56056 27.7882 9.07657 27.7882C8.59258 27.7882 8.26992 27.6626 8.03143 27.4115C7.84204 27.2092 7.74384 26.9719 7.74384 26.6929V26.2185H8.73988V26.5464C8.73988 26.6929 8.76092 26.7975 8.80301 26.8673C8.85912 26.958 8.95732 27.0068 9.0906 27.0068C9.19581 27.0068 9.287 26.9719 9.35013 26.9022C9.41326 26.8324 9.44131 26.7557 9.44131 26.665C9.44131 26.4626 9.31505 26.2603 9.06955 26.044L8.62765 25.7161C8.30499 25.451 8.1156 25.2836 8.05949 25.2138C7.98233 25.1161 7.91218 25.0045 7.86308 24.872C7.821 24.7394 7.80697 24.5999 7.80697 24.4534C7.80697 24.0348 7.9192 23.7278 8.15067 23.5185C8.37513 23.3162 8.69779 23.2115 9.11865 23.2115C9.53951 23.2115 9.86919 23.3092 10.0866 23.5045C10.2971 23.6999 10.4023 23.9789 10.4023 24.3278V24.7324H9.44131V24.4952C9.44131 24.3627 9.42728 24.251 9.39221 24.1673C9.34311 24.0627 9.25192 24.0068 9.11865 24.0068C9.01344 24.0068 8.92225 24.0348 8.85912 24.0906C8.79599 24.1534 8.76092 24.2371 8.76092 24.3417C8.76092 24.4813 8.89419 24.6627 9.16074 24.8789L9.61667 25.2278C10.0235 25.5836 10.255 25.8138 10.3041 25.9045C10.4163 26.1068 10.4724 26.365 10.4724 26.6719C10.4724 26.944 10.3742 27.1882 10.1778 27.3975V27.3836ZM13.5868 26.5045C13.5868 26.8952 13.4675 27.2092 13.2291 27.4394C12.9906 27.6696 12.6679 27.7882 12.2611 27.7882C11.8542 27.7882 11.5386 27.6766 11.3001 27.4464C11.0546 27.2161 10.9354 26.9022 10.9354 26.5045V23.2813H11.9595V26.5185C11.9595 26.6719 11.9735 26.7836 12.0015 26.8603C12.0296 26.9371 12.1138 26.9719 12.2541 26.9719C12.3523 26.9719 12.4224 26.944 12.4785 26.8882C12.5276 26.8324 12.5487 26.7068 12.5487 26.5254V23.2882H13.5728V26.5115L13.5868 26.5045ZM17.0659 27.7115H15.9506L15.1159 24.9696L15.1019 27.7115H14.1059V23.2743H15.2282L16.0558 25.8906L16.0699 23.2743H17.0659V27.7115ZM21.2745 24.7882H20.2995V24.3487C20.2995 24.1185 20.1943 23.9999 19.9769 23.9999C19.8646 23.9999 19.7805 24.0487 19.7173 24.1464C19.6823 24.2301 19.6612 24.3138 19.6612 24.3975V26.5882C19.6612 26.7208 19.6823 26.8254 19.7243 26.9022C19.7664 26.965 19.8436 26.9999 19.9558 26.9999C20.1733 26.9999 20.2855 26.8882 20.2855 26.665V26.0929H19.9278V25.2696H21.2815V27.7115H20.3837V27.3487C20.1943 27.6347 19.9278 27.7812 19.577 27.7812C19.2263 27.7812 18.9949 27.6557 18.8335 27.3905C18.7003 27.1743 18.6371 26.8743 18.6371 26.4975V24.4882C18.6371 24.0696 18.7634 23.7487 19.0089 23.5255C19.2404 23.3162 19.563 23.2115 19.9628 23.2115C20.3627 23.2115 20.6643 23.2882 20.8817 23.4417C21.1483 23.6301 21.2815 23.9092 21.2815 24.2999V24.7952L21.2745 24.7882ZM23.5261 27.7115C23.4911 27.6766 23.463 27.5859 23.4349 27.4464C23.4209 27.3278 23.4139 27.2161 23.4139 27.1185C23.4139 27.0138 23.4139 26.9301 23.4139 26.8743V26.1626C23.4139 26.044 23.3858 25.9533 23.3227 25.8836C23.2666 25.8278 23.1614 25.7929 23.0211 25.7929H22.8317V27.7115H21.8076V23.2743H23.1684C23.6243 23.2743 23.954 23.358 24.1574 23.5115C24.3608 23.672 24.466 23.951 24.466 24.3487C24.466 24.6347 24.431 24.844 24.3678 24.9906C24.2767 25.172 24.1083 25.2975 23.8488 25.3743C24.0312 25.4092 24.1785 25.4929 24.2837 25.6254C24.3959 25.751 24.445 25.9045 24.445 26.0929V27.3138C24.445 27.3557 24.445 27.3975 24.459 27.4394C24.459 27.544 24.4941 27.6347 24.5572 27.7115H23.5402H23.5261ZM27.6155 26.5045C27.6155 26.8952 27.4962 27.2092 27.2578 27.4394C27.0193 27.6696 26.6966 27.7882 26.2968 27.7882C25.897 27.7882 25.5743 27.6696 25.3358 27.4464C25.0973 27.2161 24.9711 26.9022 24.9711 26.5045V24.4882C24.9711 24.0696 25.0973 23.7487 25.3428 23.5255C25.5743 23.3162 25.897 23.2115 26.2968 23.2115C26.6966 23.2115 27.0123 23.3231 27.2578 23.5394C27.5033 23.7557 27.6225 24.0766 27.6225 24.4952V26.5115L27.6155 26.5045ZM30.779 26.5045C30.779 26.8952 30.6597 27.2092 30.4212 27.4394C30.1827 27.6696 29.8601 27.7882 29.4603 27.7882C29.0604 27.7882 28.7378 27.6766 28.4993 27.4464C28.2538 27.2161 28.1345 26.9022 28.1345 26.5045V23.2813H29.1586V26.5185C29.1586 26.6719 29.1727 26.7836 29.2007 26.8603C29.2288 26.9371 29.313 26.9719 29.4532 26.9719C29.5514 26.9719 29.6216 26.944 29.6777 26.8882C29.7268 26.8324 29.7478 26.7068 29.7478 26.5254V23.2882H30.7719V26.5115L30.779 26.5045ZM33.9845 24.9417C33.9845 24.9975 33.9635 25.0882 33.9424 25.1929C33.9214 25.3045 33.8723 25.4231 33.7951 25.5347C33.6198 25.8138 33.3252 25.9603 32.9113 25.9603H32.3291V27.7185H31.305V23.2813H32.4063C32.9955 23.2813 33.4023 23.358 33.6198 23.5185C33.8723 23.7068 33.9915 24.0766 33.9915 24.6278C33.9915 24.7813 33.9915 24.8789 33.9915 24.9417H33.9845Z" fill="white"/>
</svg>
