<svg width="98" height="51" viewBox="0 0 98 51" fill="none" xmlns="http://www.w3.org/2000/svg">
<g clip-path="url(#clip0_0_38)">
<path d="M95.1645 35.8437L94.6846 35.5164C93.0051 34.3929 92.5471 33.8257 92.5471 32.8876C92.5471 31.6987 93.6813 31.2733 94.6628 31.2733C96.2769 31.2733 96.724 31.9823 96.7349 32.0041C96.8222 32.1568 96.9531 32.5713 96.964 32.7567C96.9858 32.8767 97.0076 33.0949 97.2693 33.0949C97.5529 33.0949 97.5529 32.7895 97.5529 32.5822C97.5529 31.7096 97.5965 31.1969 97.6183 30.9897C97.6183 30.9242 97.6183 30.8806 97.6183 30.8697C97.6183 30.6079 97.3893 30.6079 97.302 30.6079C97.1712 30.6079 97.0512 30.6079 96.7349 30.5315C96.3314 30.4333 95.6553 30.3352 94.9464 30.3352C92.5689 30.3352 91.0421 31.5896 91.0421 33.5312C91.0421 34.7747 91.7619 35.811 93.5286 37.1199L94.3029 37.698C95.8188 38.8106 96.3859 39.3342 96.3859 40.4141C96.3859 41.6576 95.4699 42.4321 93.9867 42.4321C92.9179 42.4321 91.6964 42.0394 91.4456 40.9377C91.3911 40.7304 91.3911 40.5123 91.3911 40.3814C91.3911 40.1305 91.2384 40.0432 91.0857 40.0432C90.9875 40.0432 90.8022 40.0978 90.8022 40.4468C90.8022 40.5014 90.8021 40.5668 90.7803 40.6541C90.7476 40.9813 90.704 41.5267 90.704 42.1812C90.704 42.6175 90.7149 42.7702 91.0421 42.9229C91.9145 43.3265 93.1033 43.3811 93.5722 43.3811C94.8046 43.3811 95.7316 43.1847 96.3532 42.7811C97.4438 42.0721 98 41.1013 98 39.8905C98 38.3852 97.1821 37.2181 95.1536 35.8546L95.1645 35.8437Z" fill="white"/>
<path d="M15.7593 27.8044C15.3558 27.8044 14.8323 27.8263 14.4942 27.8481C14.3416 27.8481 14.2434 27.859 14.1998 27.859C14.1125 27.859 13.9489 27.859 13.7308 27.8372C13.3164 27.8154 12.7602 27.7935 12.2367 27.7935C12.0295 27.7935 11.6369 27.7935 11.6369 28.1099C11.6369 28.208 11.6914 28.3826 12.0077 28.3826C12.2149 28.3826 12.4985 28.3826 12.6948 28.448C12.8475 28.5244 12.8693 28.6771 12.8693 28.7643C12.8693 28.9389 12.7711 29.2552 12.6948 29.4734C12.2913 30.7932 9.81563 37.1962 8.57236 40.1086L4.86437 30.3133C4.59172 29.6152 4.32998 28.9607 4.32998 28.7207C4.32998 28.6116 4.3627 28.5244 4.49357 28.4589C4.63534 28.3935 4.96252 28.3717 5.19154 28.3717C5.50781 28.3717 5.55144 28.1644 5.55144 28.0771C5.55144 27.7826 5.1152 27.7826 4.85346 27.7826C4.35179 27.7826 3.77378 27.8044 3.40298 27.8263C3.20668 27.8263 3.0649 27.8372 2.99947 27.8372C2.92313 27.8372 2.73773 27.8372 2.5087 27.8263C2.02885 27.8044 1.30906 27.7826 0.665613 27.7826C0.382061 27.7826 -0.0105497 27.7826 -0.0105497 28.0771C-0.0105497 28.2517 0.109415 28.3717 0.30572 28.3717C0.414779 28.3717 0.741954 28.3717 1.02551 28.448C1.65805 28.6225 1.93069 28.7971 2.36693 29.8879L7.27456 42.0393L7.32909 42.1811C7.68898 43.0974 7.80895 43.3701 8.13612 43.3701C8.38696 43.3701 8.47421 43.1628 8.77957 42.4974C8.86682 42.3011 8.97588 42.072 9.10675 41.7775C9.55389 40.8394 10.4045 38.8215 11.5824 36.029L12.4985 33.8474C13.2183 32.1458 13.7745 30.7932 13.938 30.3896C14.4615 29.0807 14.7451 28.7534 14.985 28.6007C15.3231 28.3826 15.7266 28.3826 15.8575 28.3826C16.1956 28.3826 16.2501 28.1971 16.2501 28.088C16.2501 27.8917 16.0865 27.7935 15.7593 27.7935V27.8044Z" fill="white"/>
<path d="M20.0886 42.5408C19.9469 42.5408 19.5979 42.5081 19.3361 42.4644C18.9544 42.4099 18.8999 42.2244 18.8454 41.7336C18.769 41.0682 18.769 39.8138 18.769 38.2103V35.3306C18.769 32.7891 18.769 32.3419 18.7908 31.8292C18.8345 31.2729 18.9108 31.1311 19.2707 31.0656C19.4452 31.0329 19.5543 31.0329 19.6633 31.0329C19.8051 31.0329 19.9469 30.8911 19.9469 30.7493C19.9469 30.5639 19.8051 30.4657 19.5215 30.4657C19.1398 30.4657 18.4528 30.4875 18.082 30.4984C17.9402 30.4984 17.842 30.4984 17.8202 30.4984C17.7984 30.4984 17.6784 30.4984 17.5258 30.4984C17.1441 30.4875 16.4897 30.4657 16.0971 30.4657C15.8135 30.4657 15.6718 30.5639 15.6718 30.7493C15.6718 30.8802 15.7917 31.0329 15.9553 31.0329C16.0644 31.0329 16.2716 31.0547 16.4461 31.0874C16.6969 31.142 16.8278 31.2729 16.8714 31.8401C16.9041 32.3528 16.9041 32.8109 16.9041 35.3415V38.2212C16.9041 39.552 16.8932 41.0137 16.806 41.7445C16.7405 42.2572 16.686 42.4317 16.4679 42.4862C16.3261 42.519 16.1189 42.5626 15.9771 42.5626C15.8026 42.5626 15.6936 42.7044 15.6936 42.8462C15.6936 42.9553 15.7481 43.1298 16.1189 43.1298C16.4897 43.1298 17.1222 43.0971 17.5039 43.0862C17.6675 43.0862 17.7766 43.0753 17.8093 43.0753C17.8311 43.0753 17.8966 43.0753 17.9947 43.0753C18.3546 43.0862 19.2053 43.1298 19.9469 43.1298C20.3395 43.1298 20.3722 42.9117 20.3722 42.8462C20.3722 42.7044 20.274 42.5626 20.0886 42.5626V42.5408Z" fill="white"/>
<path d="M34.4953 30.455C34.0372 30.455 33.6337 30.4768 33.361 30.4877C33.2193 30.4877 33.1102 30.4986 33.0448 30.4986C32.9793 30.4986 32.8485 30.4986 32.674 30.4986C32.3141 30.4877 31.7797 30.4659 31.2562 30.4659C31.1144 30.4659 30.7764 30.4659 30.7764 30.7277C30.7764 30.9131 30.8963 31.0331 31.0599 31.0331C31.1908 31.0331 31.5616 31.0549 31.8669 31.1094C32.2377 31.1749 32.3686 31.3712 32.3904 32.4838L32.554 40.283C32.3795 40.0976 32.1614 39.8685 31.8997 39.5958C31.0599 38.7123 29.9039 37.5015 28.7915 36.3562C27.0029 34.5345 25.2907 32.7565 24.2765 31.6985C23.7966 31.2076 23.4803 30.8804 23.404 30.7931L23.3277 30.7168C23.0659 30.455 22.8587 30.2586 22.6406 30.2586C22.2916 30.2586 22.2589 30.7604 22.2589 31.2294V40.5775C22.2589 42.0392 22.1934 42.3883 21.8772 42.4755C21.6482 42.5519 21.3537 42.5628 21.2228 42.5628C21.0592 42.5628 20.9393 42.6828 20.9393 42.8464C20.9393 43.13 21.2446 43.13 21.3646 43.13C21.899 43.13 22.4225 43.0973 22.7278 43.0864C22.8696 43.0864 22.9569 43.0755 23.0114 43.0755C23.055 43.0755 23.1423 43.0755 23.2622 43.0864C23.5785 43.1082 24.1238 43.13 24.8218 43.13C25.2035 43.13 25.2798 42.9773 25.2798 42.8464C25.2798 42.6828 25.1489 42.5628 24.9963 42.5628C24.8218 42.5628 24.451 42.541 24.1783 42.4755C23.8293 42.3883 23.6766 42.1156 23.633 40.7521L23.4476 33.4437C24.1674 34.2182 25.7597 35.8762 27.6028 37.7851C29.3913 39.6285 31.856 42.0392 32.0523 42.2137C33.0666 43.1409 33.2193 43.25 33.4483 43.25C33.7318 43.25 33.7318 43.0209 33.7318 41.9301L33.7755 32.3639C33.7755 31.3385 33.8409 31.1749 34.2553 31.0876C34.4298 31.0549 34.5607 31.0549 34.637 31.0549C34.8333 31.0549 34.9751 30.8913 34.9751 30.7495C34.9751 30.4877 34.637 30.4877 34.5062 30.4877L34.4953 30.455Z" fill="white"/>
<path d="M50.6249 42.5408C50.5049 42.5408 50.1232 42.5081 49.8942 42.4644C49.5016 42.4099 49.4689 42.2354 49.4034 41.7336C49.3162 41.0028 49.3053 39.5411 49.3053 38.2103V35.3306C49.3053 32.8 49.3053 32.3419 49.3489 31.8292C49.3925 31.2729 49.4689 31.1311 49.8069 31.0656C50.0032 31.0329 50.0905 31.0329 50.2105 31.0329C50.3631 31.0329 50.5158 30.8911 50.5158 30.7493C50.5158 30.6184 50.4395 30.4657 50.0687 30.4657C49.6979 30.4657 49.0762 30.4875 48.6945 30.4984C48.531 30.4984 48.411 30.4984 48.3783 30.4984C48.3565 30.4984 48.2801 30.4984 48.1711 30.4984C47.8003 30.4875 47.015 30.4657 46.4479 30.4657C46.1644 30.4657 46.0226 30.5639 46.0226 30.7493C46.0226 30.8802 46.1426 31.0329 46.3062 31.0329C46.4479 31.0329 46.7315 31.0547 46.8624 31.0656C47.2986 31.1311 47.3749 31.2729 47.4077 31.851C47.4295 32.3528 47.4513 32.8763 47.4513 35.3743V35.6688H40.4388V35.3743C40.4388 32.8654 40.4388 32.3419 40.4606 31.8292C40.4933 31.2729 40.5806 31.142 40.9405 31.0656C41.115 31.0329 41.224 31.0329 41.3331 31.0329C41.4749 31.0329 41.6166 30.8911 41.6166 30.7493C41.6166 30.5639 41.4749 30.4657 41.1913 30.4657C40.8096 30.4657 40.1334 30.4875 39.7626 30.4984C39.6209 30.4984 39.5227 30.4984 39.5009 30.4984C39.4791 30.4984 39.3809 30.4984 39.2501 30.4984C38.8575 30.4875 38.1159 30.4657 37.5379 30.4657C37.2543 30.4657 37.1125 30.5639 37.1125 30.7493C37.1125 30.8911 37.2543 31.0329 37.3961 31.0329C37.5379 31.0329 37.8214 31.0547 37.9523 31.0656C38.4103 31.1311 38.4867 31.2947 38.5194 31.8292C38.563 32.3419 38.563 32.8 38.563 35.3306V38.2103C38.563 39.8029 38.563 41.0573 38.4649 41.7227V41.7663C38.3776 42.2572 38.334 42.4099 38.1268 42.4644C37.985 42.4971 37.7778 42.5408 37.636 42.5408C37.4615 42.5408 37.3525 42.6826 37.3525 42.8244C37.3525 42.9335 37.407 43.108 37.7778 43.108C38.1486 43.108 38.792 43.0753 39.1737 43.0644C39.3373 43.0644 39.4573 43.0535 39.4791 43.0535C39.5009 43.0535 39.5554 43.0535 39.6645 43.0535C40.0244 43.0644 40.8532 43.108 41.5948 43.108C41.9874 43.108 42.0202 42.8898 42.0202 42.8244C42.0202 42.6826 41.922 42.5408 41.7366 42.5408C41.5948 42.5408 41.2458 42.5081 40.9841 42.4644C40.6024 42.4099 40.5479 42.2244 40.4933 41.7336C40.417 41.0682 40.417 39.8247 40.417 38.254V36.6723H47.4295V38.254C47.4295 39.8138 47.4295 41.0464 47.3531 41.7118C47.2877 42.2245 47.2332 42.4208 46.9932 42.4644C46.7969 42.5081 46.6442 42.5408 46.5243 42.5408C46.3498 42.5408 46.2407 42.6826 46.2407 42.8244C46.2407 43.0098 46.3825 43.108 46.6661 43.108C47.0369 43.108 47.7239 43.0753 48.0838 43.0644C48.2256 43.0644 48.3347 43.0535 48.3456 43.0535C48.3674 43.0535 48.4437 43.0535 48.5746 43.0535C48.9563 43.0644 49.7524 43.108 50.4613 43.108C50.8866 43.108 50.9084 42.868 50.9084 42.8244C50.9084 42.6826 50.8103 42.5408 50.6031 42.5408H50.6249Z" fill="white"/>
<path d="M57.8885 30.2262C53.1117 30.2262 50.9742 34.044 50.9742 36.7492C50.9742 39.9125 53.1117 43.3158 57.7903 43.3158C61.7819 43.3158 64.781 40.3815 64.781 36.4983C64.781 32.6151 62.0109 30.2262 57.8885 30.2262ZM58.2811 42.345C55.1511 42.345 53.0463 39.9234 53.0463 36.3129C53.0463 33.0732 54.8239 31.1425 57.8012 31.1425C60.2659 31.1425 62.7525 32.9423 62.7525 36.9673C62.7525 42.0941 59.0336 42.3559 58.2811 42.3559V42.345Z" fill="white"/>
<path d="M81.325 42.5412C81.1614 42.5412 80.7251 42.5412 80.2671 42.3994C79.7109 42.214 79.5691 41.5377 79.4928 40.8396L78.3258 30.8152C78.2604 30.3461 78.075 30.237 77.9223 30.237C77.6933 30.237 77.5842 30.4661 77.5188 30.5861L72.6875 40.436L67.6708 30.5643C67.529 30.2698 67.3 30.237 67.191 30.237C67.0165 30.237 66.8747 30.4007 66.8529 30.6624L65.6096 41.3195L65.5878 41.4831C65.5115 42.0721 65.4569 42.4321 65.0752 42.4976H65.0316C64.8244 42.5412 64.7153 42.5521 64.6063 42.5521C64.4318 42.5521 64.2791 42.6721 64.2791 42.8139C64.2791 42.923 64.3336 43.1193 64.7262 43.1193C65.0207 43.1193 65.4678 43.0975 65.7841 43.0757C65.9586 43.0757 66.1004 43.0539 66.1549 43.0539C66.1985 43.0539 66.3076 43.0539 66.4603 43.0648C66.7983 43.0866 67.3109 43.1084 67.7581 43.1084C68.1398 43.1084 68.2161 42.9448 68.2161 42.803C68.2161 42.6503 68.0634 42.5412 67.9326 42.5412C67.8017 42.5412 67.5727 42.5194 67.3109 42.4539C67.0165 42.3885 67.0165 42.203 67.0165 42.1376C67.0165 41.8649 67.0165 41.5704 67.0383 41.3304L67.6599 34.3821C67.9762 35.0474 68.5542 36.2255 69.034 37.1963C69.2849 37.709 69.503 38.1562 69.6557 38.4616C70.0919 39.3779 71.2479 41.5158 71.6515 42.2467C71.9895 42.8466 72.1095 43.0757 72.3712 43.0757C72.633 43.0757 72.742 42.8684 73.1128 42.1267L77.0171 34.1966L77.7915 42.0067C77.8242 42.2576 77.8024 42.3885 77.7915 42.4321C77.6715 42.4757 77.5951 42.5848 77.5951 42.7048C77.5951 42.9448 77.8896 42.9993 78.2168 43.0211C78.8493 43.0757 80.7578 43.1193 81.1396 43.1193C81.4449 43.1193 81.6412 42.9993 81.6412 42.8139C81.6412 42.6612 81.5213 42.5521 81.3577 42.5521L81.325 42.5412Z" fill="white"/>
<path d="M89.886 40.5997C89.6352 40.5997 89.5915 40.8287 89.5588 40.9705C89.4607 41.6141 89.2316 41.8323 88.8826 41.985C88.4573 42.1486 87.6612 42.1486 87.225 42.1486C85.5346 42.1486 85.371 41.9413 85.3382 40.9814C85.3273 40.7524 85.3382 39.6943 85.3382 38.9307C85.3382 38.6253 85.3382 38.3635 85.3382 38.2108V36.8801C85.7418 36.8801 87.4322 36.9019 87.8684 36.9564C88.5337 37.0328 88.5882 37.2291 88.6209 37.36C88.6863 37.5454 88.6863 37.6981 88.6863 37.8509C88.6863 38.0581 88.8172 38.1563 88.9481 38.1563C89.1335 38.1563 89.2534 37.9818 89.2534 37.6981C89.2534 37.6 89.2971 36.9891 89.3298 36.651C89.3516 36.3019 89.4061 36.0838 89.4389 35.9311C89.4607 35.8438 89.4716 35.7893 89.4716 35.7347C89.4716 35.5275 89.3407 35.4511 89.2207 35.4511C89.1008 35.4511 89.0353 35.5275 88.9263 35.6365L88.8608 35.702C88.73 35.8329 88.5118 35.8547 88.1629 35.8874H88.1192C87.8466 35.9202 86.5161 35.9311 85.3382 35.9311V31.4697V31.4479C85.7418 31.4479 87.4758 31.4697 87.7266 31.5024C88.6536 31.6224 88.7518 31.7315 88.8281 31.906C88.8936 32.0696 88.9154 32.3205 88.9154 32.4296C88.9154 32.7678 89.1335 32.7896 89.1989 32.7896C89.3516 32.7896 89.4607 32.6369 89.5043 32.4951C89.5261 32.3751 89.5479 32.0915 89.5806 31.7315C89.5806 31.5897 89.6024 31.4588 89.6024 31.4043C89.6243 31.1316 89.6679 30.957 89.7006 30.8371C89.7224 30.7498 89.7333 30.6843 89.7333 30.6298C89.7333 30.3462 89.5479 30.3244 89.5043 30.3244C89.4279 30.3244 89.3516 30.3571 89.2971 30.3789C89.2753 30.3789 89.2535 30.4007 89.2425 30.4007L89.1335 30.4225C88.9699 30.4444 88.73 30.488 88.4791 30.4989C88.3701 30.4989 87.9666 30.4989 87.2795 30.4989C86.3416 30.4989 85.131 30.4989 84.6294 30.4989H84.4003C84.4003 30.4989 84.2804 30.4989 84.1386 30.4989C83.746 30.488 82.9935 30.4662 82.4155 30.4662C82.1319 30.4662 81.9902 30.5644 81.9902 30.7498C81.9902 30.8916 82.1319 31.0334 82.2737 31.0334C82.4264 31.0334 82.7099 31.0552 82.8408 31.0661C83.2879 31.1316 83.3752 31.2952 83.4079 31.8297C83.4515 32.3423 83.4515 32.8005 83.4515 35.3311V38.2108C83.4515 39.8034 83.4515 41.0578 83.3534 41.7232V41.7777C83.2661 42.2577 83.2225 42.4322 83.0371 42.4649C82.9717 42.4649 82.9062 42.4867 82.8299 42.4976C82.7208 42.5195 82.6118 42.5413 82.5245 42.5413C82.35 42.5413 82.241 42.6831 82.241 42.8249C82.241 42.934 82.2955 43.1085 82.6663 43.1085C82.9608 43.1085 83.3752 43.0867 83.6587 43.0649C84.0295 43.043 84.3458 43.043 84.3894 43.043C84.6294 43.043 85.0874 43.043 85.7963 43.0867H86.2216C86.8978 43.1194 87.7266 43.1412 88.7736 43.1412C89.4498 43.1412 89.7224 43.1412 89.8751 42.6067C89.9732 42.2468 90.115 41.1232 90.115 40.9923C90.115 40.6324 89.9296 40.5887 89.8533 40.5887L89.886 40.5997Z" fill="white"/>
<path d="M34.9639 48.3659H0.0215902V48.8131H34.953V48.3659H34.9639Z" fill="white"/>
<path d="M37.4072 49.9585V47.2207H37.4617L39.3048 49.315V47.2207H39.5774V49.9585H39.512L37.6907 47.886V49.9585H37.4072Z" fill="white"/>
<path d="M44.3431 47.2207H44.0704V49.9585H44.3431V47.2207Z" fill="white"/>
<path d="M46.5788 47.2207H46.8515V48.366H48.2583V47.2207H48.531V49.9585H48.2583V48.6387H46.8515V49.9585H46.5788V47.2207Z" fill="white"/>
<path d="M50.745 47.2207L52.0319 49.9585H51.7265L51.2903 49.0532H50.1015L49.6762 49.9585H49.3708L50.6686 47.2207H50.7341H50.745ZM50.7123 47.7988L50.2433 48.7914H51.1812L50.7123 47.7988Z" fill="white"/>
<path d="M52.8824 49.9585V47.2207H52.9479L54.78 49.315V47.2207H55.0527V49.9585H54.9982L53.1769 47.886V49.9585H52.8933H52.8824Z" fill="white"/>
<path d="M55.947 47.2207H56.2197V48.366H57.6265V47.2207H57.8992V49.9585H57.6265V48.6387H56.2197V49.9585H55.947V47.2207Z" fill="white"/>
<path d="M60.1784 47.2207H60.7346C61.0509 47.2207 61.2581 47.2316 61.3672 47.2643C61.5199 47.3079 61.6507 47.3843 61.7598 47.5043C61.8579 47.6242 61.9125 47.777 61.9125 47.9515C61.9125 48.126 61.8579 48.2896 61.7598 48.3987C61.6616 48.5187 61.5308 48.5951 61.3563 48.6387C61.2254 48.6714 60.9964 48.6823 60.6583 48.6823H60.462V49.9585H60.1893V47.2316L60.1784 47.2207ZM60.4511 47.4933V48.4205H60.92C61.1054 48.4205 61.2472 48.4096 61.3345 48.3769C61.4217 48.3442 61.4871 48.2896 61.5417 48.2133C61.5853 48.1369 61.618 48.0497 61.618 47.9624C61.618 47.8751 61.5962 47.7879 61.5417 47.7115C61.4871 47.6352 61.4217 47.5806 61.3454 47.5479C61.2581 47.5152 61.1272 47.5043 60.9418 47.5043H60.4511V47.4933Z" fill="white"/>
<path d="M62.7631 47.2207H63.0358V48.366H64.4426V47.2207H64.7153V49.9585H64.4426V48.6387H63.0358V49.9585H62.7631V47.2207Z" fill="white"/>
<path d="M65.5877 47.2207H65.8604V48.8677C65.8604 49.0641 65.8604 49.1841 65.8604 49.2386C65.8713 49.3477 65.904 49.435 65.9585 49.5113C66.0131 49.5877 66.0894 49.6422 66.1876 49.6968C66.2966 49.7404 66.3948 49.7731 66.5038 49.7731C66.5911 49.7731 66.6892 49.7513 66.7656 49.7186C66.8528 49.6749 66.9182 49.6313 66.9728 49.5549C67.0273 49.4895 67.0709 49.4022 67.0927 49.3041C67.1146 49.2386 67.1255 49.0968 67.1255 48.8787V47.2316H67.3981V48.8787C67.3981 49.1295 67.3763 49.315 67.3218 49.4786C67.2781 49.6204 67.18 49.7513 67.0382 49.8713C66.8964 49.9804 66.7219 50.0458 66.5147 50.0458C66.2966 50.0458 66.1003 49.9913 65.9367 49.8822C65.784 49.7731 65.675 49.6422 65.6204 49.4677C65.5877 49.3586 65.5659 49.1732 65.5659 48.8896V47.2425L65.5877 47.2207Z" fill="white"/>
<path d="M70.9644 47.7328L70.7463 47.8964C70.6264 47.7437 70.4846 47.6237 70.3101 47.5474C70.1465 47.471 69.9611 47.4274 69.7539 47.4274C69.5358 47.4274 69.3286 47.4819 69.1432 47.591C68.9578 47.6892 68.8051 47.831 68.7069 48.0164C68.6088 48.1909 68.5542 48.3873 68.5542 48.6054C68.5542 48.9436 68.6742 49.2163 68.9032 49.4453C69.1323 49.6744 69.4267 49.7835 69.7757 49.7835C70.1574 49.7835 70.4846 49.6308 70.7463 49.3363L70.9644 49.4999C70.8227 49.6744 70.6482 49.8053 70.4519 49.9035C70.2446 50.0016 70.0156 50.0453 69.7648 50.0453C69.2849 50.0453 68.9032 49.8817 68.6197 49.5653C68.3797 49.2926 68.2598 48.9763 68.2598 48.5945C68.2598 48.1909 68.4016 47.8528 68.6851 47.591C68.9687 47.3183 69.3176 47.1765 69.7539 47.1765C70.0156 47.1765 70.2446 47.231 70.4519 47.3292C70.6591 47.4383 70.8336 47.5692 70.9644 47.7546V47.7328Z" fill="white"/>
<path d="M73.1784 49.9585V47.2207H73.2439L75.076 49.315V47.2207H75.3487V49.9585H75.2832L73.462 47.886V49.9585H73.1784Z" fill="white"/>
<path d="M78.9912 47.6785L78.7731 47.8857C78.6204 47.733 78.4459 47.613 78.2714 47.5367C78.086 47.4603 77.9115 47.4167 77.737 47.4167C77.5189 47.4167 77.3117 47.4712 77.1154 47.5803C76.9191 47.6894 76.7664 47.8312 76.6574 48.0057C76.5483 48.1802 76.4938 48.3766 76.4938 48.5729C76.4938 48.7693 76.5483 48.9765 76.6574 49.162C76.7664 49.3474 76.9191 49.4892 77.1154 49.5983C77.3117 49.7074 77.5298 49.7619 77.7589 49.7619C78.0424 49.7619 78.2823 49.6855 78.4786 49.5219C78.6749 49.3692 78.7949 49.162 78.8276 48.9111H77.9443V48.6493H79.133C79.133 49.0747 79.0021 49.4019 78.7513 49.6528C78.5005 49.9037 78.1624 50.0237 77.748 50.0237C77.2354 50.0237 76.8319 49.8492 76.5374 49.5001C76.3084 49.2383 76.1993 48.922 76.1993 48.5838C76.1993 48.322 76.2648 48.0821 76.3956 47.8639C76.5265 47.6348 76.7119 47.4712 76.9409 47.3403C77.1699 47.2203 77.4317 47.1549 77.7152 47.1549C77.9443 47.1549 78.1733 47.1985 78.3805 47.2749C78.5877 47.3622 78.7949 47.493 78.9912 47.6785Z" fill="white"/>
<path d="M81.4012 47.2207L82.6881 49.9585H82.3936L81.9574 49.0532H80.7686L80.3433 49.9585H80.038L81.3358 47.2207H81.4012ZM81.3685 47.7988L80.8886 48.7914H81.8265L81.3576 47.7988H81.3685Z" fill="white"/>
<path d="M83.4298 47.2207H83.9751C84.2914 47.2207 84.4986 47.2316 84.6077 47.2643C84.7603 47.3079 84.8912 47.3843 85.0003 47.5043C85.0984 47.6242 85.153 47.777 85.153 47.9515C85.153 48.126 85.1093 48.2896 85.0003 48.3987C84.9021 48.5187 84.7712 48.5951 84.5967 48.6387C84.4768 48.6714 84.2369 48.6823 83.8988 48.6823H83.7025V49.9585H83.4298V47.2316V47.2207ZM83.7134 47.4933V48.4205H84.1823C84.3786 48.4205 84.5095 48.4096 84.5967 48.3769C84.684 48.3442 84.7494 48.2896 84.804 48.2133C84.8585 48.1369 84.8803 48.0497 84.8803 47.9624C84.8803 47.8751 84.8585 47.7879 84.804 47.7115C84.7603 47.6352 84.6949 47.5806 84.6077 47.5479C84.5204 47.5152 84.3895 47.5043 84.2041 47.5043H83.7134V47.4933Z" fill="white"/>
<path d="M87.465 47.4933V47.2207H88.9809V47.4933H88.3702V49.9585H88.0866V47.4933H87.465Z" fill="white"/>
<path d="M89.8534 47.2207H90.4096C90.715 47.2207 90.9222 47.2316 91.0312 47.2643C91.1948 47.297 91.3257 47.3843 91.4347 47.5043C91.5329 47.6242 91.5874 47.777 91.5874 47.9515C91.5874 48.1042 91.5547 48.2351 91.4784 48.3442C91.4129 48.4532 91.3039 48.5405 91.173 48.606C91.0421 48.6605 90.8567 48.6932 90.6277 48.6932L91.6201 49.9585H91.2821L90.2896 48.6932H90.1369V49.9585H89.8643V47.2207H89.8534ZM90.126 47.4933V48.4205H90.6059C90.7913 48.4205 90.9331 48.4096 91.0094 48.3769C91.0967 48.3442 91.1621 48.2896 91.2166 48.2133C91.2602 48.1369 91.293 48.0497 91.293 47.9624C91.293 47.8751 91.2712 47.7879 91.2166 47.7115C91.1621 47.6352 91.0967 47.5806 91.0203 47.5479C90.9331 47.5152 90.8022 47.5043 90.6168 47.5043H90.126V47.4933Z" fill="white"/>
<path d="M42.9582 47.3627C42.9582 47.3627 43.0237 47.2755 43.0455 47.21C43.0564 47.1555 43.0673 47.09 43.0673 47.0137H42.7401V46.7192H43.2636V46.7955C43.2636 46.7955 43.2636 46.8501 43.2745 46.8828C43.2745 46.9482 43.2745 47.0246 43.2636 47.1009C43.2636 47.1882 43.2418 47.2646 43.1982 47.33C43.1545 47.3955 43.1 47.4609 43.0237 47.5045C43.0018 47.5264 42.98 47.5373 42.9582 47.5482C42.9364 47.5591 42.9146 47.57 42.8819 47.5809C43.0018 47.7118 43.0891 47.8645 43.1545 48.039C43.22 48.2136 43.2527 48.399 43.2527 48.5844C43.2527 48.9989 43.1109 49.3589 42.8383 49.6534C42.5656 49.9479 42.2275 50.0897 41.8349 50.0897C41.4423 50.0897 41.126 49.9479 40.8425 49.6643C40.5589 49.3698 40.4063 49.0207 40.4063 48.6062C40.4063 48.1917 40.548 47.8318 40.8207 47.5373C41.0933 47.2537 41.4314 47.1009 41.824 47.1009C41.9985 47.1009 42.1621 47.1337 42.3257 47.1991C42.4893 47.2646 42.631 47.3518 42.7619 47.4827C42.7728 47.4827 42.8055 47.4609 42.8601 47.4282C42.9037 47.3955 42.9364 47.3736 42.9473 47.3518L42.9582 47.3627ZM41.8567 47.3955C41.5405 47.3955 41.2678 47.5154 41.0388 47.7554C40.8098 47.9954 40.7007 48.279 40.7007 48.6281C40.7007 48.9771 40.8098 49.2389 41.0388 49.468C41.2678 49.7079 41.5405 49.817 41.8567 49.817C42.173 49.817 42.4347 49.697 42.6638 49.4571C42.8928 49.2171 43.0018 48.9335 43.0018 48.5844C43.0018 48.2354 42.8819 47.9736 42.6529 47.7336C42.4238 47.5045 42.1621 47.3846 41.8567 47.3846V47.3955Z" fill="white"/>
<path d="M50.9522 50.1H50.7013V50.5145H50.9522V50.1Z" fill="white"/>
<path d="M66.3731 47.0678L66.9615 46.6318L67.1795 46.8171L66.4821 47.1768L66.3731 47.0787V47.0678Z" fill="white"/>
<path d="M80.7907 47.2093L81.2814 46.7839H81.4996L82.0012 47.2093H81.6959L81.4014 46.9694L81.1069 47.2093H80.8016H80.7907ZM81.2596 50.1327H81.5105V50.5581H81.2596V50.1327Z" fill="white"/>
<path d="M60.6148 0C54.2348 0.763556 47.7131 2.86879 47.2769 9.22811C47.0806 12.206 47.9967 14.4421 49.0218 16.6019C46.4262 14.0494 42.6855 11.9987 37.4398 12.5005C40.6352 13.4059 44.4087 15.1402 46.4371 17.4309C46.8625 17.9217 47.495 18.7617 47.3423 19.4816C47.0915 20.6924 44.8667 20.4415 43.5253 20.5069C46.3172 21.6304 49.4472 23.6484 53.4278 23.5175C55.4236 23.4521 56.8849 22.2413 56.7323 19.9942C56.4487 15.9583 53.4823 12.5114 53.1661 7.94098C52.8171 2.79243 56.4378 0.905359 60.4839 0.0654476C60.5711 0.0872635 60.6911 0.0654476 60.7238 0.0436317C60.7565 0.0218159 60.7238 0 60.6148 0Z" fill="white"/>
</g>
<defs>
<clipPath id="clip0_0_38">
<rect width="97.5198" height="50.2997" fill="white" transform="scale(1.00492)"/>
</clipPath>
</defs>
</svg>
