<svg width="98" height="21" viewBox="0 0 98 21" fill="none" xmlns="http://www.w3.org/2000/svg">
<g clip-path="url(#clip0_0_69)">
<path d="M54.4466 19.1678H59.5915V20.3628H53.1579V0H54.4466V19.1678Z" fill="white"/>
<path d="M72.7194 20.3626H71.5128V18.155H71.4597C70.5475 19.7243 68.5639 20.6266 66.7395 20.6266C62.9846 20.6266 60.6245 17.7279 60.6245 14.1429C60.6245 10.5579 62.9556 7.81761 66.6816 7.81761C68.5832 7.81761 70.4076 8.66706 71.4549 10.2076H71.508V8.08156H72.7146V20.3578L72.7194 20.3626ZM61.8311 14.1477C61.8311 16.9648 63.7085 19.518 66.7106 19.518C69.8767 19.518 71.59 16.9648 71.59 14.0181C71.59 11.0714 69.6305 8.94061 66.6285 8.94061C63.7858 8.94061 61.8262 11.4938 61.8262 14.1525" fill="white"/>
<path d="M76.0109 10.0013H76.064C76.788 8.64797 78.1297 7.82251 79.7369 7.82251C82.9271 7.82251 83.8152 9.79017 83.8152 12.9528V20.3675H82.6086V12.9528C82.6086 10.7452 82.3431 8.94072 79.6307 8.94072C76.5177 8.94072 76.0109 11.8106 76.0109 14.311V20.3675H74.8043V8.09127H76.0109V10.0013Z" fill="white"/>
<path d="M96.7934 18.1605H96.7403C95.8282 19.7298 93.8445 20.632 92.0201 20.632C88.2652 20.632 85.9051 17.7333 85.9051 14.1484C85.9051 10.5634 88.2362 7.82308 91.9622 7.82308C93.8686 7.82308 95.6882 8.67253 96.7355 10.2131H96.7886V0.326797H97.9952V20.3633H96.7886V18.1557L96.7934 18.1605ZM96.8755 14.014C96.8755 11.1681 94.916 8.93649 91.914 8.93649C89.0712 8.93649 87.1117 11.4896 87.1117 14.1484C87.1117 16.9655 88.9892 19.5186 91.9912 19.5186C95.1573 19.5186 96.8707 16.9655 96.8707 14.0188" fill="white"/>
<path d="M10.9221 9.73711H10.7001C13.3595 9.73711 15.5072 7.60148 15.5072 4.97154C15.5072 2.34161 13.3546 0.201181 10.7001 0.201181H0V3.78135C0.574341 3.78135 1.0425 4.24687 1.0425 4.81317V15.5633C1.0425 16.1344 0.574341 16.5999 0 16.5999V20.1801H10.9221C13.8325 20.1801 16.1926 17.8381 16.1926 14.9538C16.1926 12.0695 13.8325 9.73231 10.9221 9.73231M7.34578 16.5999H6.87279V11.9831H7.34578C8.63443 11.9831 9.67693 13.0149 9.67693 14.2915C9.67693 15.5681 8.63443 16.5999 7.34578 16.5999ZM7.34578 8.39814H6.87279V3.78135H7.34578C8.63443 3.78135 9.67693 4.81317 9.67693 6.08975C9.67693 7.36632 8.63443 8.39814 7.34578 8.39814Z" fill="white"/>
<path d="M18.2825 0V3.78174C18.8471 3.78174 19.3105 4.22806 19.325 4.78476V15.5637C19.325 16.1348 18.8568 16.5955 18.2825 16.5955V20.3004H25.2856C25.8599 20.3004 26.3232 19.8397 26.3232 19.2686V16.5955C25.7585 16.5955 25.3 16.1492 25.2807 15.5925V4.81836C25.2807 4.24726 25.7489 3.78654 26.3232 3.78654V0H18.2825Z" fill="white"/>
<path d="M48.7949 3.78174V0H40.4114L38.6063 8.40333L36.8013 0H28.4178V3.78174C28.997 3.78174 29.4603 4.24725 29.4603 4.81356V15.5637C29.4603 16.1348 28.9922 16.5955 28.4178 16.5955V20.3004H34.2771C34.8562 20.3004 35.3196 19.8349 35.3196 19.2638V16.5955C34.7404 16.5955 34.2771 16.1348 34.2771 15.5637V7.74584L36.9798 20.3052H39.2145L41.9173 7.74584V15.5637C41.9173 16.1348 41.4491 16.5955 40.8748 16.5955V20.3004H47.791C48.3508 20.3004 48.8093 19.8493 48.8093 19.2926V16.5955C48.235 16.5955 47.7668 16.1348 47.7668 15.5637V4.81835C47.7668 4.24725 48.235 3.78654 48.8093 3.78654" fill="white"/>
<path d="M54.4466 19.1678H59.5915V20.3628H53.1579V0H54.4466V19.1678Z" fill="white"/>
<path d="M72.7194 20.3626H71.5128V18.155H71.4597C70.5475 19.7243 68.5639 20.6266 66.7395 20.6266C62.9846 20.6266 60.6245 17.7279 60.6245 14.1429C60.6245 10.5579 62.9556 7.81761 66.6816 7.81761C68.5832 7.81761 70.4076 8.66706 71.4549 10.2076H71.508V8.08156H72.7146V20.3578L72.7194 20.3626ZM61.8311 14.1477C61.8311 16.9648 63.7085 19.518 66.7106 19.518C69.8767 19.518 71.59 16.9648 71.59 14.0181C71.59 11.0714 69.6305 8.94061 66.6285 8.94061C63.7858 8.94061 61.8262 11.4938 61.8262 14.1525" fill="white"/>
<path d="M76.0109 10.0013H76.064C76.788 8.64797 78.1297 7.82251 79.7369 7.82251C82.9271 7.82251 83.8152 9.79017 83.8152 12.9528V20.3675H82.6086V12.9528C82.6086 10.7452 82.3431 8.94072 79.6307 8.94072C76.5177 8.94072 76.0109 11.8106 76.0109 14.311V20.3675H74.8043V8.09127H76.0109V10.0013Z" fill="white"/>
<path d="M96.7934 18.1605H96.7403C95.8282 19.7298 93.8445 20.632 92.0201 20.632C88.2652 20.632 85.9051 17.7333 85.9051 14.1484C85.9051 10.5634 88.2362 7.82308 91.9622 7.82308C93.8686 7.82308 95.6882 8.67253 96.7355 10.2131H96.7886V0.326797H97.9952V20.3633H96.7886V18.1557L96.7934 18.1605ZM96.8755 14.014C96.8755 11.1681 94.916 8.93649 91.914 8.93649C89.0712 8.93649 87.1117 11.4896 87.1117 14.1484C87.1117 16.9655 88.9892 19.5186 91.9912 19.5186C95.1573 19.5186 96.8707 16.9655 96.8707 14.0188" fill="white"/>
<path d="M10.9221 9.73711H10.7001C13.3595 9.73711 15.5072 7.60148 15.5072 4.97154C15.5072 2.34161 13.3546 0.201181 10.7001 0.201181H0V3.78135C0.574341 3.78135 1.0425 4.24687 1.0425 4.81317V15.5633C1.0425 16.1344 0.574341 16.5999 0 16.5999V20.1801H10.9221C13.8325 20.1801 16.1926 17.8381 16.1926 14.9538C16.1926 12.0695 13.8325 9.73231 10.9221 9.73231M7.34578 16.5999H6.87279V11.9831H7.34578C8.63443 11.9831 9.67693 13.0149 9.67693 14.2915C9.67693 15.5681 8.63443 16.5999 7.34578 16.5999ZM7.34578 8.39814H6.87279V3.78135H7.34578C8.63443 3.78135 9.67693 4.81317 9.67693 6.08975C9.67693 7.36632 8.63443 8.39814 7.34578 8.39814Z" fill="white"/>
<path d="M18.2825 0V3.78174C18.8471 3.78174 19.3105 4.22806 19.325 4.78476V15.5637C19.325 16.1348 18.8568 16.5955 18.2825 16.5955V20.3004H25.2856C25.8599 20.3004 26.3232 19.8397 26.3232 19.2686V16.5955C25.7585 16.5955 25.3 16.1492 25.2807 15.5925V4.81836C25.2807 4.24726 25.7489 3.78654 26.3232 3.78654V0H18.2825Z" fill="white"/>
<path d="M48.7949 3.78174V0H40.4114L38.6063 8.40333L36.8013 0H28.4178V3.78174C28.997 3.78174 29.4603 4.24725 29.4603 4.81356V15.5637C29.4603 16.1348 28.9922 16.5955 28.4178 16.5955V20.3004H34.2771C34.8562 20.3004 35.3196 19.8349 35.3196 19.2638V16.5955C34.7404 16.5955 34.2771 16.1348 34.2771 15.5637V7.74584L36.9798 20.3052H39.2145L41.9173 7.74584V15.5637C41.9173 16.1348 41.4491 16.5955 40.8748 16.5955V20.3004H47.791C48.3508 20.3004 48.8093 19.8493 48.8093 19.2926V16.5955C48.235 16.5955 47.7668 16.1348 47.7668 15.5637V4.81835C47.7668 4.24725 48.235 3.78654 48.8093 3.78654" fill="white"/>
</g>
<defs>
<clipPath id="clip0_0_69">
<rect width="97.5198" height="20.5305" fill="white" transform="scale(1.00492)"/>
</clipPath>
</defs>
</svg>
