<svg width="69" height="54" viewBox="0 0 69 54" fill="none" xmlns="http://www.w3.org/2000/svg">
<mask id="mask0_0_120" style="mask-type:luminance" maskUnits="userSpaceOnUse" x="0" y="33" width="49" height="21">
<path d="M47.5086 52.3413H47.7621C47.8536 52.3413 47.9309 52.3678 47.9801 52.4118C48.0294 52.4647 48.0506 52.5352 48.0506 52.6233C48.0506 52.7115 48.0224 52.7908 47.9801 52.8348C47.9309 52.8877 47.8606 52.9142 47.7621 52.9142H47.5086V52.3325V52.3413ZM47.3609 52.1738V53.4606H47.5086V53.0728H47.7621C47.7621 53.0728 47.7972 53.0728 47.8253 53.0728L48.0506 53.4694H48.2125L47.9662 53.0376C48.0366 53.0023 48.0929 52.9582 48.1351 52.8877C48.1774 52.8172 48.1913 52.7291 48.1913 52.6322C48.1913 52.4911 48.1562 52.3854 48.0788 52.306C48.0014 52.2267 47.8958 52.1827 47.7621 52.1827H47.3609V52.1738ZM46.9667 52.826C46.9667 52.2796 47.3257 51.8301 47.7691 51.8301C48.2125 51.8301 48.5714 52.2708 48.5714 52.826C48.5714 53.3812 48.2125 53.8131 47.7691 53.8131C47.3257 53.8131 46.9667 53.3724 46.9667 52.826ZM46.8893 52.826C46.8893 53.4165 47.2835 53.91 47.7621 53.91C48.2407 53.91 48.6348 53.4253 48.6348 52.826C48.6348 52.2267 48.2407 51.742 47.7621 51.742C47.2835 51.742 46.8893 52.2267 46.8893 52.826ZM12.7746 33.2519L8.57262 47.2297L4.94091 50.0146L3.94153 47.9964L8.38962 33.2519H1.39357L2.86464 36.2748L0 45.7843L3.96266 53.8836L13.3658 46.5687L16.1599 37.2884L14.1962 33.2431H12.7676L12.7746 33.2519ZM16.5119 33.2519L18.1659 36.6097L12.9575 53.9012H17.5606L21.0235 42.4529L24.0289 48.5957L30.5603 43.5193L27.4283 53.8924H32.0737L37.1412 37.0857L35.7688 34.2919L25.8447 41.9858L21.5794 33.2431H16.4978L16.5119 33.2519Z" fill="white"/>
</mask>
<g mask="url(#mask0_0_120)">
<path d="M0.420737 28.5182L-1.16855 53.8044L48.453 58.6945L50.0423 33.4083L0.420737 28.5182Z" fill="white"/>
</g>
<mask id="mask1_0_120" style="mask-type:luminance" maskUnits="userSpaceOnUse" x="34" y="0" width="35" height="54">
<path d="M39.4358 36.7334L34.2556 53.9015H38.8939L45.1158 33.2522H37.7326L39.4358 36.7334ZM43.131 0.114576L43.3703 6.63634C43.3844 7.07699 43.5182 7.50003 43.7434 7.80849L54.4768 22.976C54.5824 23.1258 54.5963 23.3462 54.533 23.5312C54.5189 23.5753 54.505 23.6194 54.4768 23.6546C54.4135 23.7516 54.3219 23.7956 54.2375 23.7956C54.153 23.7956 54.0685 23.7516 54.0051 23.6546L53.8785 23.4784L43.6025 8.95421C43.5532 8.8837 43.4617 8.93658 43.4617 9.04233L43.6166 13.1934C43.6377 13.7133 43.7997 14.1981 44.0742 14.5418L50.1622 22.2709C50.303 22.4472 50.3171 22.7469 50.1904 22.9408C50.1271 23.0465 50.0426 23.0994 49.9511 23.0994C49.8666 23.0994 49.7823 23.0641 49.7189 22.9848L43.8418 15.52C43.7855 15.4495 43.7011 15.52 43.7082 15.617L43.8982 20.5171C43.9193 21.0195 44.0952 21.5395 44.3556 21.8832C45.4888 23.3638 50.6269 30.0618 51.6615 31.4631C51.9571 31.8685 52.2597 32.3004 52.499 32.6882C53.1465 33.7281 53.407 34.6711 53.4211 35.6318C53.4703 38.5754 51.5909 40.6905 48.853 42.3915C46.8893 43.6077 43.0184 45.2293 43.138 53.9103C45.0313 50.1647 47.9733 48.3844 50.5142 47.0272C53.1394 45.6171 56.4334 43.6606 58.0874 42.1006C59.5936 40.6817 60.7761 39.1747 61.494 37.2269C62.5849 34.724 63.1901 33.2698 63.8376 31.5424C65.1538 28.0171 67.2794 25.6728 68.9475 25.664C68.9967 25.664 69.0179 25.5847 68.9827 25.5406C67.8495 24.2187 66.3644 23.4167 64.7245 23.4167C64.1614 23.4167 63.6125 23.5136 63.0847 23.6987C61.867 24.1217 60.6705 25.1529 59.847 26.3426L59.2839 25.4261C58.9953 24.9237 43.2647 0.0440687 43.2647 0.0440687C43.2506 0.0176291 43.2296 0 43.2014 0C43.1592 0 43.1169 0.0440654 43.1169 0.123384" fill="white"/>
</mask>
<g mask="url(#mask1_0_120)">
<path d="M34.5802 -3.39523L30.9985 53.591L68.9163 57.3278L72.498 0.341502L34.5802 -3.39523Z" fill="white"/>
</g>
<mask id="mask2_0_120" style="mask-type:luminance" maskUnits="userSpaceOnUse" x="59" y="25" width="7" height="13">
<path d="M60.811 25.1601C60.5083 25.4686 60.1211 25.9445 59.8537 26.3323C60.2548 26.9933 60.7264 27.76 60.7264 27.76C61.5851 29.2142 62.4508 31.6995 62.1623 34.317C62.0426 35.4011 61.8174 36.3529 61.4936 37.2254C62.5846 34.7225 63.1898 33.2683 63.8373 31.5409C64.337 30.2101 64.9423 29.0467 65.6039 28.1214C64.6186 26.3235 62.9997 25.1513 61.1768 25.1513C61.0501 25.1513 60.9306 25.1513 60.811 25.169" fill="white"/>
</mask>
<g mask="url(#mask2_0_120)">
<path d="M60.0082 24.6095L59.2185 37.1735L65.6878 37.8111L66.4775 25.247L60.0082 24.6095Z" fill="white"/>
</g>
</svg>
