<svg width="110" height="24" viewBox="0 0 110 24" fill="none" xmlns="http://www.w3.org/2000/svg">
<g clip-path="url(#clip0_0_86)">
<path d="M36.1644 21.0513C36.1306 21.164 35.8079 21.3086 35.6731 21.2973C34.3895 21.213 32.9482 21.41 31.685 21.2995C31.4394 21.2779 31.2239 21.2415 31.1504 20.9853L31.1636 2.61884C31.2202 2.45488 31.3948 2.39568 31.5682 2.40137L49.3062 2.40479C53.9276 2.87957 56.2575 7.46692 54.6946 11.4292C53.8361 13.6061 51.6939 15.0715 49.2785 15.3732L55.175 20.942C55.3195 21.2153 55.1028 21.2813 54.856 21.3007C53.4941 21.4111 51.0834 21.3952 49.7095 21.3007C49.5422 21.2893 49.382 21.2779 49.2267 21.2107C47.0725 19.3275 45.0532 17.2894 42.952 15.3459H36.1644V21.0525V21.0513ZM36.1644 10.8667H48.3248C49.3025 10.8667 50.1502 9.74863 50.1502 8.87306C50.1502 7.99749 49.2941 6.87941 48.3248 6.87941H36.1644V10.8656V10.8667Z" fill="white"/>
<path d="M64.1143 2.41873L77.326 2.40393C80.547 2.75803 82.8445 5.25266 83.0203 8.27104C83.1431 10.3922 83.1431 13.2535 83.0203 15.3746C82.8457 18.3725 80.5843 20.874 77.385 21.2417C73.2873 21.1939 68.9886 21.4922 64.9042 21.2987C61.3364 21.1302 58.7187 18.7688 58.52 15.3735C58.396 13.2535 58.3972 10.3899 58.52 8.2699C58.6934 5.28796 60.9379 2.80357 64.1143 2.4176V2.41873ZM65.2113 6.89563C64.413 6.98444 63.7146 7.58903 63.5532 8.33252L63.5484 15.2631C63.7001 16.0942 64.419 16.6943 65.3088 16.766C68.8514 16.5804 72.6636 17.0062 76.1748 16.766C77.0972 16.7034 77.8281 16.1261 77.993 15.2619C77.8437 13.0724 78.1905 10.6495 77.9942 8.48851C77.9136 7.59586 77.1008 6.93093 76.1748 6.87742L65.2125 6.89449L65.2113 6.89563Z" fill="white"/>
<path d="M109.909 2.40296C110.077 2.45191 109.972 2.76389 109.853 2.84131L100.352 11.8304L100.403 11.934L109.988 21.0085C110.056 21.2351 109.822 21.3011 109.624 21.3C107.738 21.177 105.644 21.4548 103.784 21.3C103.636 21.2875 103.504 21.2647 103.371 21.1998L96.9037 15.1311L96.7942 15.179L90.6158 21.0267C90.4304 21.1952 90.1787 21.2795 89.9234 21.3011C88.0667 21.4582 85.9667 21.177 84.0835 21.3011C83.8438 21.3205 83.6163 21.1804 83.7644 20.9425L93.4154 11.8247L83.7644 2.70696C83.6753 2.61929 83.7294 2.5077 83.7776 2.4132L90.0968 2.40296L90.3389 2.44736L96.8532 8.5752L103.206 2.56805L103.439 2.40523H109.909V2.40296Z" fill="white"/>
<path d="M7.30795 0C7.85101 0.048959 8.36637 0.294892 8.7252 0.680871L12.4508 4.91525L16.2907 0.627358C16.5737 0.315387 17.2191 0.00113858 17.6502 0.00113858H22.3872C22.3944 0.00113858 22.5028 0.0808392 22.445 0.110442L16.0619 7.29261C15.4635 7.84938 14.6892 8.24788 13.8391 8.30367C12.222 8.4107 10.1111 8.51431 8.92509 7.31994L2.51314 0.109304C2.45534 0.0797006 2.56491 0 2.57093 0H7.30795Z" fill="white"/>
<path d="M22.4725 23.6453H17.5332C17.0684 23.6453 16.4808 23.2161 16.1737 22.9098C15.2152 21.9534 14.3206 20.7567 13.4006 19.7423C13.2838 19.6125 12.5649 18.8007 12.4987 18.7893C12.4192 18.7768 12.3253 18.8986 12.2748 18.9487C11.0357 20.1658 9.96163 21.7416 8.7238 22.9645C8.43481 23.2491 7.85201 23.6453 7.42214 23.6453H2.54183L2.59722 23.4518C4.69842 21.3124 6.52387 18.8177 8.607 16.6818C9.14404 16.1307 9.6594 15.6775 10.4445 15.4703C11.2296 15.2631 13.7907 15.2597 14.6035 15.4942C15.3477 15.7094 15.8173 16.1284 16.3218 16.6556C18.2821 18.705 20.2665 21.0357 22.1257 23.1831C22.2425 23.3186 22.4171 23.4848 22.4737 23.6465L22.4725 23.6453Z" fill="white"/>
<path d="M-3.67651e-05 21.2425V16.4638C-3.67651e-05 16.1496 0.426223 15.5723 0.692334 15.3708L5.14277 11.8765C5.14277 11.7752 4.68039 11.4245 4.56479 11.33C3.32334 10.3098 1.82782 9.31241 0.66223 8.2467C0.412977 8.01898 -0.00124089 7.51118 -0.00124089 7.18099V2.40236C0.0987013 2.37845 0.114355 2.44108 0.172153 2.48434C2.28659 4.02826 4.51663 5.87845 6.554 7.53736C7.6943 8.46531 8.66001 9.1143 8.78163 10.6742C8.89602 12.1475 8.94057 14.0193 7.77016 15.1283C5.28004 17.0206 2.92839 19.086 0.429835 20.9681C0.30581 21.0614 0.14807 21.206 -0.00244501 21.2425H-3.67651e-05Z" fill="white"/>
<path d="M24.9564 2.40198V7.1806C24.9564 7.51307 24.5097 8.08805 24.2364 8.30096L19.816 11.8215L24.3507 15.4513C24.5843 15.6311 24.9564 16.1936 24.9564 16.4623V21.2409C24.7854 21.1874 24.6096 21.0235 24.4663 20.9119C22.0135 19.0139 19.6354 17.0259 17.1838 15.1268C16.0194 14.0223 16.0664 12.1938 16.1723 10.7273C16.2542 9.58756 16.7347 8.93288 17.592 8.19166C19.7233 6.34716 22.217 4.47192 24.4663 2.73103C24.6096 2.62058 24.7854 2.45663 24.9564 2.40198Z" fill="white"/>
</g>
<defs>
<clipPath id="clip0_0_86">
<rect width="109.838" height="23.6101" fill="white" transform="scale(1.00148)"/>
</clipPath>
</defs>
</svg>
