<svg width="37" height="23" viewBox="0 0 37 23" fill="none" xmlns="http://www.w3.org/2000/svg">
<g clip-path="url(#clip0_173_178)">
<path d="M32.9272 22.7957H30.9517V22.1377L32.2524 21.7397V21.7337L30.9517 21.3416V20.6821H32.9272V21.1523L31.4485 21.1358L31.4426 21.1418L32.9272 21.5684V21.9064L31.4426 22.333L31.4485 22.339L32.9272 22.3225V22.7927V22.7957Z" fill="white"/>
<path d="M32.184 20.3428C32.0698 20.3428 31.9645 20.3218 31.8696 20.2813C31.7747 20.2407 31.6901 20.1836 31.6204 20.1115C31.5507 20.0394 31.4959 19.9538 31.4558 19.8561C31.4172 19.7585 31.3965 19.6503 31.3965 19.5362C31.3965 19.422 31.4158 19.3138 31.4558 19.2162C31.4944 19.1186 31.5492 19.0329 31.6204 18.9608C31.6901 18.8887 31.7747 18.8316 31.8696 18.7911C31.9645 18.7505 32.0713 18.7295 32.184 18.7295C32.2968 18.7295 32.4035 18.749 32.4999 18.7911C32.5963 18.8316 32.6809 18.8887 32.7491 18.9593C32.8188 19.0314 32.8722 19.1171 32.9123 19.2162C32.9523 19.3153 32.9716 19.422 32.9716 19.5377C32.9716 19.6533 32.9523 19.76 32.9123 19.8576C32.8737 19.9553 32.8188 20.0409 32.7476 20.113C32.6779 20.1851 32.5934 20.2422 32.4985 20.2828C32.4035 20.3233 32.2968 20.3443 32.184 20.3443V20.3428ZM32.4466 19.7915C32.5207 19.7209 32.5593 19.6353 32.5593 19.5347C32.5593 19.434 32.5222 19.3469 32.4495 19.2778C32.4124 19.2432 32.3709 19.2177 32.3249 19.2012C32.279 19.1847 32.233 19.1756 32.184 19.1756C32.1351 19.1756 32.0891 19.1847 32.0446 19.2012C31.9986 19.2177 31.9571 19.2447 31.92 19.2778C31.8474 19.3469 31.8103 19.4325 31.8103 19.5347C31.8103 19.6368 31.8474 19.7224 31.92 19.7915C31.9571 19.8261 31.9986 19.8516 32.0446 19.8681C32.0906 19.8847 32.1366 19.8937 32.184 19.8937C32.2315 19.8937 32.2775 19.8847 32.3234 19.8681C32.3694 19.8516 32.4095 19.8261 32.448 19.7915H32.4466Z" fill="white"/>
<path d="M32.1827 18.4737C32.0744 18.4737 31.972 18.4557 31.8771 18.4211C31.7822 18.3866 31.6991 18.337 31.628 18.2724C31.5568 18.2078 31.5004 18.1297 31.4589 18.0381C31.4173 17.9464 31.3966 17.8428 31.3966 17.7301C31.3966 17.5514 31.4559 17.4041 31.5731 17.29H30.9531V16.8408H32.9287V17.2674H32.7685V17.2735C32.9079 17.3561 32.9761 17.5063 32.9761 17.7226C32.9761 17.8383 32.9554 17.9419 32.9138 18.0351C32.8723 18.1282 32.816 18.2063 32.7448 18.2724C32.6736 18.337 32.589 18.3881 32.4926 18.4226C32.3962 18.4572 32.2924 18.4752 32.1841 18.4752L32.1827 18.4737ZM32.5609 17.649C32.5609 17.5934 32.552 17.5423 32.5327 17.4943C32.5134 17.4477 32.4882 17.4071 32.4541 17.3726C32.42 17.338 32.3799 17.311 32.3324 17.293C32.285 17.275 32.2346 17.2644 32.1782 17.2644C32.1218 17.2644 32.0759 17.2735 32.0299 17.293C31.9839 17.3125 31.9453 17.338 31.9127 17.3726C31.8801 17.4071 31.8534 17.4477 31.8356 17.4928C31.8163 17.5393 31.8074 17.5889 31.8074 17.643C31.8074 17.6971 31.8163 17.7481 31.8356 17.7947C31.8549 17.8413 31.8801 17.8818 31.9127 17.9149C31.9453 17.9479 31.9854 17.975 32.0299 17.9945C32.0759 18.014 32.1248 18.0245 32.1782 18.0245C32.2909 18.0245 32.3814 17.99 32.4526 17.9224C32.5238 17.8533 32.5594 17.7632 32.5594 17.649H32.5609Z" fill="white"/>
<path d="M32.19 16.5286C32.0817 16.5286 31.9794 16.5091 31.883 16.467C31.7866 16.4264 31.7035 16.3709 31.6308 16.3002C31.5582 16.2296 31.5018 16.147 31.4588 16.0494C31.4158 15.9532 31.395 15.8496 31.395 15.7399C31.395 15.6228 31.4158 15.5161 31.4573 15.42C31.4988 15.3238 31.5567 15.2397 31.6294 15.1691C31.702 15.0985 31.7881 15.0444 31.8874 15.0054C31.9868 14.9663 32.0921 14.9468 32.2033 14.9468C32.2241 14.9468 32.2449 14.9468 32.2641 14.9498C32.2834 14.9513 32.3027 14.9543 32.3205 14.9573V16.0824C32.4065 16.0704 32.4748 16.0314 32.5252 15.9668C32.5756 15.9022 32.6008 15.8241 32.6008 15.7309C32.6008 15.6213 32.5548 15.5296 32.4614 15.4575V14.9979C32.5385 15.0309 32.6082 15.0715 32.6705 15.1225C32.7343 15.1736 32.7877 15.2292 32.8322 15.2908C32.8767 15.3524 32.9108 15.4215 32.936 15.4966C32.9612 15.5717 32.9731 15.6498 32.9731 15.7309C32.9731 15.8406 32.9523 15.9442 32.9123 16.0419C32.8707 16.1395 32.8159 16.2236 32.7447 16.2942C32.6735 16.3648 32.5904 16.4219 32.4955 16.4625C32.3991 16.5045 32.2968 16.5241 32.1885 16.5241L32.19 16.5286ZM32.0224 16.0809V15.3989C31.9423 15.417 31.88 15.4575 31.8355 15.5206C31.791 15.5837 31.7688 15.6573 31.7688 15.7399C31.7688 15.8226 31.791 15.8962 31.8355 15.9593C31.88 16.0223 31.9423 16.0629 32.0224 16.0809Z" fill="white"/>
<path d="M32.9272 14.1836V14.6327H30.9517V14.1836H32.9272Z" fill="white"/>
<path d="M32.4866 13.4431C32.5311 13.4356 32.5653 13.4176 32.5875 13.386C32.6112 13.356 32.6216 13.3169 32.6216 13.2718C32.6216 13.2343 32.6112 13.1982 32.5905 13.1652C32.5697 13.1321 32.5415 13.1156 32.5059 13.1156C32.4807 13.1156 32.46 13.1216 32.4407 13.1351C32.4214 13.1487 32.4066 13.1652 32.3932 13.1847C32.3799 13.2042 32.368 13.2268 32.3591 13.2493C32.3502 13.2733 32.3428 13.2959 32.3354 13.3169C32.3176 13.3725 32.2968 13.4326 32.2746 13.4987C32.2508 13.5633 32.2226 13.6234 32.1885 13.6789C32.1544 13.7345 32.1114 13.7796 32.0625 13.8156C32.0135 13.8517 31.9527 13.8697 31.8815 13.8697C31.8029 13.8697 31.7332 13.8532 31.6739 13.8201C31.6131 13.7871 31.5627 13.742 31.5196 13.688C31.4766 13.6339 31.4455 13.5708 31.4247 13.5017C31.404 13.4326 31.3921 13.362 31.3921 13.2899C31.3921 13.2103 31.4025 13.1382 31.4232 13.0706C31.444 13.0045 31.4737 12.9459 31.5122 12.8948C31.5508 12.8437 31.5997 12.8032 31.6591 12.7716C31.7184 12.7401 31.7851 12.7205 31.8593 12.713V13.1547C31.7851 13.1562 31.7466 13.2027 31.7466 13.2959C31.7466 13.3289 31.7555 13.3575 31.7733 13.3845C31.7911 13.4116 31.8148 13.4236 31.8459 13.4236C31.883 13.4236 31.9127 13.4055 31.9349 13.368C31.9572 13.3304 31.9764 13.2854 31.9942 13.2283C32.0106 13.1727 32.0284 13.1111 32.0476 13.0465C32.0669 12.9819 32.0921 12.9203 32.1262 12.8633C32.1604 12.8077 32.2049 12.7611 32.2582 12.7235C32.3116 12.686 32.3828 12.668 32.4703 12.668C32.5578 12.668 32.6275 12.6845 32.6913 12.719C32.7551 12.7536 32.807 12.7987 32.8485 12.8557C32.8901 12.9128 32.9227 12.9774 32.9435 13.0525C32.9642 13.1261 32.9761 13.2027 32.9761 13.2794C32.9761 13.356 32.9642 13.4371 32.9435 13.5077C32.9212 13.5783 32.8886 13.6414 32.8471 13.6955C32.8055 13.7495 32.7536 13.7931 32.6928 13.8262C32.632 13.8592 32.5623 13.8802 32.4852 13.8892V13.4431H32.4866Z" fill="white"/>
<path d="M15.2408 10.5709C16.3146 9.46378 16.8589 8.08027 16.8589 6.45791C16.8589 5.16452 16.4985 4.01385 15.7881 3.03442C15.0865 2.07001 14.1818 1.33394 13.0161 0.784142C11.8533 0.256874 10.6356 0 9.29042 0H0L2.16539 2.86768H9.29042C10.2723 2.86768 11.1043 3.19515 11.7658 3.8426C12.4228 4.48553 12.7432 5.34028 12.7432 6.4564C12.7432 7.57253 12.4139 8.45581 11.7658 9.08974C11.1043 9.73568 10.2708 10.0647 9.29042 10.0647H6.25887L13.8348 22.9985H18.3213L12.2597 12.4441C13.4195 12.0445 14.4206 11.4151 15.2408 10.5694V10.5709Z" fill="white"/>
<path d="M19.5685 0H14.8848L24.233 14.0875V23H28.1545V12.7265L27.3091 11.325L19.5685 0Z" fill="white"/>
<path d="M33.7148 0L27.1533 9.7462L28.589 12.5478L36.9999 0H33.7148Z" fill="white"/>
</g>
<defs>
<clipPath id="clip0_173_178">
<rect width="37" height="23" fill="white"/>
</clipPath>
</defs>
</svg>
