<svg width="46" height="45" viewBox="0 0 46 45" fill="none" xmlns="http://www.w3.org/2000/svg">
<path d="M2.51594 40.5565H1.48787V44.9937H1.02806V40.5565H0V40.1171H2.51594V40.5565Z" fill="white"/>
<path d="M8.62425 40.1171V44.9937H8.16431V42.7108H6.46007V44.9937H6.00013V40.1171H6.46007V42.2713H8.16431V40.1171H8.62425Z" fill="white"/>
<path d="M12.7848 40.5565V42.2713H14.3863V42.7108H12.7848V44.5542H14.4565V44.9937H12.3248V40.1171H14.4565V40.5565H12.7848Z" fill="white"/>
<path d="M24.0443 40.1171V44.9937H23.5952V41.2264L22.3995 44.9937H22.0857L20.89 41.2264V44.9937H20.4409V40.1171H20.9873L22.2426 44.0826L23.4979 40.1171H24.0443Z" fill="white"/>
<path d="M27.7447 40.1171H28.2151V44.9937H27.7447V40.1171Z" fill="white"/>
<path d="M33.9447 43.5151H32.5651L32.1646 44.9995H31.7048L32.9709 40.1229H33.5389L34.805 44.9995H34.3451L33.9447 43.5151ZM33.8744 43.0542L33.2521 40.6749L32.63 43.0542H33.8744Z" fill="white"/>
<path d="M41.8175 40.1171V44.9937H41.3683V41.2264L40.1727 44.9937H39.8535L38.6577 41.2264V44.9937H38.2087V40.1171H38.7552L40.0103 44.0826L41.2656 40.1171H41.812H41.8175Z" fill="white"/>
<path d="M45.5185 40.1171H45.9887V44.9937H45.5185V40.1171Z" fill="white"/>
<path d="M35.1262 29.3788C41.8262 22.7426 41.8262 11.9832 35.1262 5.34696C28.4261 -1.28923 17.5632 -1.28925 10.8632 5.34695C4.16316 11.9831 4.16317 22.7425 10.8632 29.3787C17.5632 36.0149 28.4261 36.015 35.1262 29.3788Z" fill="#192745"/>
<path d="M22.9943 34.7256C13.3313 34.7256 5.46454 26.9392 5.46454 17.3628C5.46454 7.78647 13.3259 0 22.9943 0C32.6628 0 40.5243 7.78647 40.5243 17.3628C40.5243 26.9392 32.6628 34.7256 22.9943 34.7256ZM22.9943 0.739527C13.7425 0.739527 6.21112 8.19375 6.21112 17.3575C6.21112 26.5212 13.7371 33.9807 22.9943 33.9807C32.2516 33.9807 39.7775 26.5265 39.7775 17.3575C39.7775 8.18839 32.2516 0.739527 22.9943 0.739527Z" fill="white"/>
<path d="M24.9422 28.5629H35.3844C35.59 28.3432 35.7847 28.1128 35.9794 27.8823H24.9097C24.9205 28.1288 24.9314 28.3539 24.9422 28.5629Z" fill="#F2EB59"/>
<path d="M21.0847 27.8823H10.015C10.2043 28.1128 10.4046 28.3432 10.6102 28.5629H21.0523C21.0632 28.3539 21.0739 28.1288 21.0847 27.8823Z" fill="#F2EB59"/>
<path d="M24.834 26.3711H37.0886C37.2347 26.146 37.3754 25.921 37.5106 25.6905H24.8015C24.8123 25.921 24.8232 26.1514 24.834 26.3711Z" fill="#E79640"/>
<path d="M21.1982 25.6959H8.48904C8.6243 25.9263 8.76485 26.1514 8.91094 26.3765H21.1657C21.1765 26.1568 21.1873 25.9263 21.1982 25.6959Z" fill="#E79640"/>
<path d="M21.3121 23.3701H16.6591C16.3778 23.547 16.0964 23.7024 15.8096 23.8256C15.7231 23.6809 15.6582 23.5255 15.5933 23.3701H7.35316C7.44513 23.6006 7.53713 23.8256 7.63993 24.0507H21.2796C21.2905 23.8256 21.3013 23.5952 21.3121 23.3701Z" fill="#DC5142"/>
<path d="M30.1847 23.8256C29.9034 23.7024 29.6166 23.547 29.3353 23.3701H24.6823C24.6932 23.5952 24.704 23.8256 24.7148 24.0507H38.3546C38.4519 23.8256 38.5493 23.6006 38.6413 23.3701H30.4012C30.3417 23.5255 30.2713 23.6809 30.1847 23.8256Z" fill="#DC5142"/>
<path d="M18.8013 21.5481H21.3984C21.4092 21.3177 21.42 21.0926 21.4309 20.8675H19.3965C19.2072 21.098 19.0069 21.3284 18.8013 21.5481Z" fill="#AC3236"/>
<path d="M30.6825 20.8675C30.6987 21.0872 30.7096 21.3123 30.7096 21.5481H39.2364C39.296 21.323 39.3501 21.098 39.3988 20.8675H30.6825Z" fill="#AC3236"/>
<path d="M24.5581 20.8675C24.569 21.0872 24.5797 21.3177 24.5905 21.5481H27.1875C26.9819 21.3284 26.7818 21.1033 26.5925 20.8675H24.5581Z" fill="#AC3236"/>
<path d="M15.3113 20.8675H6.59516C6.64385 21.098 6.69785 21.323 6.75737 21.5481H15.2842C15.2842 21.3177 15.2951 21.0872 15.3113 20.8675Z" fill="#AC3236"/>
<path d="M12.4332 14.5065C12.3574 14.5065 12.2764 14.469 12.2331 14.3993C12.1573 14.2868 12.1897 14.1368 12.2979 14.0671C15.4468 11.9664 18.2278 12.0789 20.0078 12.5452C21.9393 13.0489 23.108 14.0457 23.1567 14.0832C23.2595 14.1689 23.2704 14.3243 23.1784 14.4208C23.0918 14.5226 22.9349 14.5333 22.8375 14.4422C22.8375 14.4422 21.6904 13.4723 19.8617 13.0007C17.4216 12.3683 14.9707 12.8613 12.5684 14.4637C12.5252 14.4904 12.4819 14.5065 12.4332 14.5065Z" fill="white"/>
<path d="M13.326 15.2889C13.326 15.2889 13.2772 15.2889 13.2501 15.2782C13.1203 15.2353 13.0499 15.1014 13.0932 14.9781C13.5152 13.6598 14.5757 12.931 14.619 12.8988C14.7272 12.8238 14.8788 12.8506 14.9599 12.9632C15.0357 13.0703 15.0086 13.2204 14.8949 13.2954C14.8949 13.2954 13.9265 13.9653 13.5586 15.1228C13.5261 15.2246 13.4288 15.2889 13.326 15.2889Z" fill="white"/>
<path d="M14.76 14.887C14.76 14.887 14.7113 14.887 14.6843 14.8763C14.5544 14.8334 14.4841 14.6994 14.5274 14.5762C14.9494 13.2579 16.0099 12.5291 16.0531 12.4969C16.1614 12.4219 16.3128 12.4487 16.3885 12.5612C16.4643 12.6684 16.4373 12.8185 16.3237 12.8935C16.3237 12.8935 15.3551 13.5634 14.9872 14.7209C14.9547 14.8227 14.8574 14.887 14.7546 14.887H14.76Z" fill="white"/>
<path d="M16.1341 14.6941C16.1341 14.6941 16.0855 14.6941 16.0584 14.6834C15.9286 14.6405 15.8582 14.5065 15.9015 14.3833C16.3235 13.065 17.3839 12.3362 17.4272 12.304C17.5354 12.229 17.6869 12.2558 17.7681 12.3683C17.8438 12.4755 17.8167 12.6256 17.7031 12.7006C17.7031 12.7006 16.7347 13.3704 16.3667 14.528C16.3343 14.6298 16.2369 14.6941 16.1341 14.6941Z" fill="white"/>
<path d="M17.8706 13.9117C17.8273 13.9117 17.784 13.901 17.7408 13.8742C17.6271 13.8045 17.5947 13.6545 17.6651 13.5419C18.3197 12.5077 18.9311 12.363 18.996 12.3469C19.1259 12.3201 19.2557 12.4058 19.2828 12.5344C19.3098 12.6631 19.2232 12.7863 19.0934 12.8185C19.0771 12.8185 18.6065 12.9524 18.0763 13.7938C18.0276 13.8688 17.9518 13.9063 17.8706 13.9063V13.9117Z" fill="white"/>
<path d="M19.1641 15.5676C19.1641 15.5676 19.1207 15.5676 19.0991 15.5569C18.9692 15.5193 18.8934 15.3854 18.9313 15.2568C19.2722 14.0724 19.889 13.7777 19.9594 13.7509C20.0838 13.6973 20.2244 13.7509 20.2785 13.8742C20.3326 13.9974 20.2785 14.1368 20.1541 14.1903C20.1379 14.2011 19.6726 14.4422 19.3967 15.3907C19.3642 15.4979 19.2669 15.5676 19.1641 15.5676Z" fill="white"/>
<path d="M22.9945 14.5065C22.9025 14.5065 22.816 14.4583 22.7781 14.3725C22.7673 14.3565 22.1018 13.0328 20.6085 11.8967C18.612 10.3748 16.1557 9.88179 13.3152 10.4284C13.1854 10.4552 13.0555 10.3695 13.0285 10.2355C13.0014 10.1015 13.088 9.97825 13.2233 9.95146C16.9511 9.22801 19.4669 10.407 20.9223 11.527C22.5022 12.7381 23.1893 14.1046 23.2164 14.1582C23.2759 14.2761 23.2271 14.4208 23.1026 14.4797C23.0702 14.4958 23.0323 14.5065 22.9945 14.5065Z" fill="white"/>
<path d="M13.7806 11.4948C13.7265 11.4948 13.6671 11.4734 13.6238 11.4359C13.521 11.3501 13.5102 11.1947 13.5968 11.0983C14.5057 10.0426 15.7663 9.78533 15.8204 9.77461C15.9502 9.74782 16.0801 9.83356 16.1071 9.96217C16.1342 10.0908 16.0477 10.2194 15.9179 10.2462C15.9016 10.2462 14.76 10.4927 13.97 11.4144C13.9214 11.468 13.851 11.5002 13.786 11.5002L13.7806 11.4948Z" fill="white"/>
<path d="M15.2575 11.677C15.2034 11.677 15.144 11.6556 15.1007 11.6181C14.9979 11.5323 14.9871 11.3769 15.0736 11.2805C15.9826 10.2248 17.2432 9.96753 17.2973 9.95681C17.4271 9.93002 17.557 10.0158 17.584 10.1444C17.6111 10.273 17.5246 10.4016 17.3948 10.4284C17.3785 10.4284 16.2369 10.6749 15.4469 11.5966C15.3982 11.6502 15.3279 11.6824 15.2629 11.6824L15.2575 11.677Z" fill="white"/>
<path d="M16.5996 12.0307C16.5455 12.0307 16.486 12.0093 16.4427 11.9718C16.3399 11.886 16.329 11.7306 16.4156 11.6342C17.3246 10.5785 18.5851 10.3212 18.6392 10.3105C18.7691 10.2837 18.8989 10.3695 18.926 10.4981C18.953 10.6267 18.8665 10.7553 18.7367 10.7821C18.7205 10.7821 17.5788 11.0286 16.7889 11.9503C16.7402 12.0039 16.6699 12.0361 16.605 12.0361L16.5996 12.0307Z" fill="white"/>
<path d="M18.2332 12.1004C18.152 12.1004 18.0709 12.0575 18.0276 11.9878C17.9573 11.8753 17.9951 11.7253 18.1088 11.6556C19.3045 10.9268 20.0783 11.0179 20.1107 11.0232C20.246 11.0393 20.3379 11.1626 20.3217 11.2912C20.3054 11.4198 20.181 11.5163 20.0511 11.5002C20.0349 11.5002 19.3911 11.4412 18.3632 12.0682C18.3253 12.095 18.2819 12.1057 18.2386 12.1057L18.2332 12.1004Z" fill="white"/>
<path d="M13.2071 18.4399C13.1584 18.4399 13.1151 18.4292 13.0718 18.3971C12.9582 18.322 12.9311 18.172 13.0068 18.0648C15.1277 14.9459 17.7465 14.0135 19.5752 13.7831C21.5554 13.5312 23.0162 14.0189 23.0757 14.0403C23.2002 14.0832 23.2705 14.2225 23.2272 14.3457C23.184 14.469 23.0433 14.5387 22.9188 14.4958C22.9188 14.4958 21.485 14.0242 19.613 14.2654C17.1133 14.5869 15.0249 15.9588 13.4072 18.3328C13.3585 18.4024 13.2828 18.4399 13.2071 18.4399Z" fill="white"/>
<path d="M14.3323 18.8311C14.2079 18.8311 14.0997 18.7347 14.0888 18.6114C13.9806 17.2288 14.684 16.1624 14.7164 16.1142C14.7922 16.0016 14.9437 15.9748 15.0519 16.0445C15.1655 16.1195 15.1925 16.2696 15.1222 16.3768C15.1114 16.3928 14.4785 17.3628 14.5759 18.5686C14.5867 18.7025 14.4838 18.8151 14.354 18.8258C14.3485 18.8258 14.3431 18.8258 14.3323 18.8258V18.8311Z" fill="white"/>
<path d="M15.5064 17.9255C15.382 17.9255 15.2736 17.829 15.2628 17.7058C15.1546 16.3232 15.8581 15.2568 15.8905 15.2085C15.9663 15.096 16.1177 15.0692 16.2259 15.1389C16.3341 15.2085 16.3666 15.3639 16.2963 15.4711C16.2855 15.4872 15.6525 16.4572 15.7498 17.6629C15.7607 17.7969 15.6578 17.9094 15.5279 17.9201C15.5225 17.9201 15.5172 17.9201 15.5064 17.9201V17.9255Z" fill="white"/>
<path d="M16.7076 17.2342C16.5832 17.2342 16.475 17.1377 16.4642 17.0145C16.3559 15.6319 17.0593 14.5655 17.0917 14.5172C17.1675 14.4047 17.3189 14.3779 17.4271 14.4476C17.5353 14.5172 17.5678 14.6726 17.4975 14.7798C17.4867 14.7959 16.8537 15.7659 16.951 16.9716C16.9619 17.1056 16.8591 17.2181 16.7293 17.2288C16.7238 17.2288 16.7184 17.2288 16.7076 17.2288V17.2342Z" fill="white"/>
<path d="M17.9573 16.634C17.8274 16.634 17.7191 16.5322 17.7137 16.3982C17.6704 15.0156 18.5199 14.051 18.5578 14.0135C18.6498 13.9117 18.8013 13.9063 18.9041 13.9921C19.0069 14.0778 19.0122 14.2332 18.9257 14.3297C18.9257 14.3297 18.1683 15.1978 18.2062 16.3821C18.2062 16.5161 18.1033 16.6286 17.968 16.6286C17.968 16.6286 17.968 16.6286 17.9626 16.6286L17.9573 16.634Z" fill="white"/>
<path d="M16.1558 22.4805C16.1558 22.4805 16.1395 22.4805 16.1287 22.4805C15.9934 22.4645 15.9015 22.3466 15.9123 22.2126C16.3343 18.4775 18.2225 16.4518 19.732 15.4068C21.3713 14.2761 22.8918 14.0403 22.9567 14.0296C23.092 14.0081 23.211 14.0992 23.2327 14.2332C23.2543 14.3672 23.1623 14.4851 23.027 14.5065C23.027 14.5065 21.5391 14.7423 19.9917 15.8141C17.9249 17.2449 16.713 19.4153 16.3938 22.2662C16.3776 22.3894 16.2748 22.4805 16.1503 22.4805H16.1558Z" fill="white"/>
<path d="M17.335 22.3144C17.2538 22.3144 17.1727 22.2769 17.1294 22.2019C16.3882 21.0283 16.5126 19.7582 16.518 19.7047C16.5342 19.5707 16.6532 19.4742 16.7831 19.4903C16.9184 19.5064 17.0158 19.6243 16.9996 19.7529C16.9996 19.769 16.8914 20.9158 17.5406 21.9447C17.611 22.0572 17.5784 22.2073 17.4648 22.2769C17.4269 22.3037 17.3783 22.3144 17.335 22.3144Z" fill="white"/>
<path d="M17.9572 20.9747C17.8761 20.9747 17.7949 20.9372 17.7516 20.8622C17.0103 19.6886 17.1348 18.4185 17.1403 18.3649C17.1565 18.2309 17.2755 18.1345 17.4054 18.1506C17.5406 18.1666 17.638 18.2845 17.6217 18.4131C17.6217 18.4292 17.5135 19.576 18.1628 20.6049C18.2331 20.7175 18.2007 20.8675 18.0871 20.9372C18.0492 20.964 18.0005 20.9747 17.9572 20.9747Z" fill="white"/>
<path d="M18.6986 19.8065C18.6174 19.8065 18.5363 19.7689 18.4931 19.6939C17.7518 18.5203 17.8762 17.2503 17.8816 17.1967C17.8978 17.0627 18.0169 16.9662 18.1467 16.9823C18.282 16.9984 18.3794 17.1163 18.3632 17.2449C18.3632 17.261 18.255 18.4078 18.9043 19.4367C18.9746 19.5492 18.9421 19.6993 18.8284 19.7689C18.7906 19.7957 18.7419 19.8065 18.6986 19.8065Z" fill="white"/>
<path d="M19.5262 18.7025C19.4396 18.7025 19.3584 18.6597 19.3151 18.5793C18.628 17.3735 18.931 16.1463 18.9418 16.0981C18.9743 15.9695 19.1041 15.8891 19.2394 15.9213C19.3693 15.9534 19.4505 16.082 19.418 16.216C19.418 16.2321 19.1582 17.3146 19.7425 18.3435C19.8075 18.4614 19.7696 18.6061 19.6506 18.6704C19.6127 18.6918 19.5695 18.7025 19.5316 18.7025H19.5262Z" fill="white"/>
<path d="M20.5221 17.813C20.4138 17.813 20.3164 17.7433 20.2893 17.6307C19.916 16.216 20.2299 15.1925 20.2461 15.1496C20.284 15.021 20.4246 14.9513 20.549 14.9942C20.6789 15.0317 20.7492 15.171 20.7059 15.2943C20.7059 15.3103 20.4192 16.2374 20.7547 17.5075C20.7871 17.6361 20.7113 17.7701 20.5815 17.8022C20.5599 17.8022 20.5383 17.8076 20.5221 17.8076V17.813Z" fill="white"/>
<path d="M22.9945 14.5065C22.8646 14.5065 22.7565 14.4047 22.7511 14.2707C22.7511 14.2707 22.7024 12.7756 21.8259 11.1197C20.6519 8.90648 18.6337 7.4435 15.8203 6.76828C15.6904 6.73613 15.6094 6.60751 15.6418 6.4789C15.6743 6.35029 15.804 6.2699 15.9339 6.30206C19.6238 7.19163 21.4148 9.30303 22.2642 10.9214C23.1894 12.6738 23.2326 14.2011 23.238 14.2654C23.238 14.3993 23.1352 14.5065 23 14.5119C23 14.5119 23 14.5119 22.9945 14.5119L22.9945 14.5065Z" fill="white"/>
<path d="M15.896 7.95795C15.804 7.95795 15.7174 7.90436 15.6741 7.81862C15.62 7.69536 15.6742 7.55603 15.7933 7.49708C17.0647 6.91832 18.3198 7.20234 18.3739 7.21306C18.5038 7.24522 18.585 7.37383 18.5525 7.50244C18.52 7.63106 18.3902 7.71144 18.2603 7.67929C18.2495 7.67929 17.1079 7.42206 15.9988 7.93115C15.9663 7.94723 15.9285 7.95259 15.896 7.95259V7.95795Z" fill="white"/>
<path d="M17.1619 8.735C17.0699 8.735 16.9834 8.68141 16.9401 8.59566C16.886 8.47241 16.9401 8.33308 17.0591 8.27413C18.3306 7.69537 19.5858 7.97939 19.6399 7.99011C19.7698 8.02226 19.851 8.15088 19.8185 8.27949C19.786 8.4081 19.6562 8.48849 19.5263 8.45633C19.5155 8.45633 18.3739 8.19911 17.2648 8.7082C17.2323 8.72428 17.1943 8.72964 17.1619 8.72964V8.735Z" fill="white"/>
<path d="M18.2333 9.60849C18.1413 9.60849 18.0548 9.5549 18.0115 9.46916C17.9574 9.34591 18.0115 9.20657 18.1306 9.14763C19.402 8.56887 20.6572 8.85289 20.7114 8.86361C20.8412 8.89576 20.9224 9.02437 20.8899 9.15299C20.8575 9.2816 20.7276 9.36198 20.5978 9.32983C20.5815 9.32983 19.4454 9.0726 18.3362 9.5817C18.3038 9.59777 18.2658 9.60313 18.2333 9.60313V9.60849Z" fill="white"/>
<path d="M21.6204 10.5409C21.5825 10.5409 21.5447 10.5302 21.5068 10.5141C21.496 10.5088 20.9063 10.2194 19.716 10.3373C19.5808 10.348 19.4616 10.2516 19.4508 10.1229C19.44 9.98897 19.5375 9.87107 19.6673 9.86036C21.0199 9.73174 21.7017 10.0801 21.7287 10.0908C21.8477 10.1551 21.891 10.2998 21.8315 10.4177C21.7882 10.4981 21.7016 10.5463 21.615 10.5463L21.6204 10.5409Z" fill="white"/>
<path d="M20.2189 12.4701C20.1107 12.4701 20.0134 12.4005 19.9863 12.2933C19.9539 12.1647 20.0295 12.0307 20.1594 11.9986C20.8248 11.8217 21.2361 11.8539 21.2523 11.8539C21.3875 11.8646 21.485 11.9825 21.4742 12.1164C21.4634 12.2504 21.3442 12.3469 21.2144 12.3362C21.209 12.3362 20.8627 12.3147 20.2892 12.4648C20.2676 12.4701 20.246 12.4755 20.2244 12.4755L20.2189 12.4701Z" fill="white"/>
<path d="M22.2315 11.6502C22.199 11.6502 22.172 11.6449 22.1395 11.6341C22.1287 11.6341 21.8094 11.5055 21.2197 11.4841C21.0844 11.4787 20.9816 11.3662 20.9871 11.2322C20.9925 11.0983 21.1061 10.9964 21.2413 11.0018C21.9339 11.0286 22.3126 11.1786 22.3288 11.1894C22.4533 11.2376 22.5128 11.3823 22.4587 11.5055C22.4208 11.5966 22.3289 11.6556 22.2315 11.6556V11.6502Z" fill="white"/>
<path d="M19.5752 13.6812C19.5102 13.6812 19.4453 13.6544 19.3966 13.6062C19.3046 13.5098 19.31 13.3544 19.4074 13.2632C19.8186 12.8828 20.2298 12.6898 20.246 12.6845C20.3705 12.6309 20.5111 12.6845 20.5706 12.8024C20.6247 12.9256 20.5706 13.065 20.4516 13.1239C20.4516 13.1239 20.089 13.29 19.7374 13.6169C19.6887 13.6598 19.6293 13.6812 19.5697 13.6812H19.5752Z" fill="white"/>
<path d="M33.5613 14.5065C33.5126 14.5065 33.4694 14.4958 33.4261 14.4637C31.0292 12.8613 28.5729 12.3683 26.1328 13.0007C24.3041 13.4723 23.1679 14.4369 23.1571 14.4422C23.0543 14.528 22.9028 14.5172 22.8163 14.4154C22.7297 14.3136 22.7404 14.1636 22.8378 14.0778C22.8865 14.0349 24.0552 13.0435 25.9867 12.5398C27.7667 12.0736 30.5477 11.9611 33.6966 14.0617C33.8102 14.1368 33.8373 14.2868 33.7616 14.394C33.7129 14.4637 33.6371 14.5012 33.5613 14.5012V14.5065Z" fill="white"/>
<path d="M32.6682 15.2889C32.5654 15.2889 32.4679 15.2246 32.4355 15.1228C32.0676 13.9653 31.1099 13.3008 31.0991 13.2954C30.9909 13.2204 30.9585 13.0703 31.0343 12.9578C31.11 12.8506 31.2614 12.8185 31.3696 12.8935C31.4129 12.9256 32.4734 13.6491 32.8954 14.9727C32.9387 15.1014 32.8629 15.2353 32.7385 15.2728C32.7114 15.2782 32.6899 15.2836 32.6628 15.2836L32.6682 15.2889Z" fill="white"/>
<path d="M31.2347 14.887C31.1319 14.887 31.0345 14.8227 31.0021 14.7209C30.6287 13.558 29.6765 12.8989 29.6657 12.8935C29.5521 12.8185 29.525 12.6684 29.6007 12.5559C29.6765 12.4433 29.828 12.4166 29.9416 12.4916C29.9849 12.5237 31.0454 13.2472 31.4674 14.5708C31.5107 14.6994 31.4349 14.8334 31.3105 14.8709C31.2834 14.8763 31.2617 14.8816 31.2347 14.8816V14.887Z" fill="white"/>
<path d="M29.8605 14.6941C29.7577 14.6941 29.6603 14.6298 29.6278 14.528C29.2599 13.3704 28.3023 12.7059 28.2914 12.7006C28.1832 12.6256 28.1508 12.4755 28.2266 12.363C28.3023 12.2558 28.4537 12.2236 28.562 12.2987C28.6052 12.3308 29.6657 13.0543 30.0877 14.3779C30.131 14.5065 30.0553 14.6405 29.9308 14.678C29.9038 14.6834 29.8822 14.6887 29.8551 14.6887L29.8605 14.6941Z" fill="white"/>
<path d="M28.1182 13.9117C28.037 13.9117 27.9559 13.8742 27.9126 13.7991C27.377 12.9471 26.9008 12.8238 26.9008 12.8238C26.771 12.797 26.6845 12.6738 26.7115 12.5398C26.7386 12.4112 26.863 12.3255 26.9983 12.3522C27.0632 12.363 27.6746 12.513 28.3292 13.5473C28.3996 13.6598 28.367 13.8099 28.2534 13.8795C28.2155 13.9063 28.1669 13.917 28.1236 13.917L28.1182 13.9117Z" fill="white"/>
<path d="M26.8308 15.5676C26.7226 15.5676 26.6252 15.4979 26.5982 15.3907C26.3168 14.4261 25.8461 14.1903 25.8406 14.1903C25.7162 14.1368 25.6621 13.9974 25.7162 13.8742C25.7703 13.7509 25.9165 13.6973 26.0409 13.7509C26.1112 13.7831 26.728 14.0778 27.0688 15.2568C27.1067 15.3854 27.0309 15.5194 26.9011 15.5569C26.8794 15.5622 26.8579 15.5676 26.8362 15.5676H26.8308Z" fill="white"/>
<path d="M22.9945 14.5065C22.9566 14.5065 22.9242 14.5012 22.8863 14.4797C22.7673 14.4208 22.7132 14.2761 22.7727 14.1582C22.7998 14.0992 23.4869 12.7327 25.0668 11.527C26.5222 10.4123 29.038 9.23337 32.7658 9.95147C32.8957 9.97826 32.9823 10.1015 32.9607 10.2355C32.9336 10.3641 32.8091 10.4498 32.6739 10.4284C29.8334 9.8818 27.3825 10.3748 25.3806 11.8967C23.8819 13.0382 23.2164 14.3618 23.211 14.3726C23.1677 14.4583 23.081 14.5065 22.9945 14.5065Z" fill="white"/>
<path d="M32.2137 11.4948C32.1434 11.4948 32.0784 11.468 32.0297 11.4091C31.229 10.482 30.0929 10.2462 30.082 10.2408C29.9522 10.214 29.8656 10.0854 29.8926 9.95682C29.9197 9.82821 30.0496 9.74247 30.1794 9.76926C30.2335 9.77998 31.4942 10.0426 32.4032 11.0929C32.4897 11.1947 32.4789 11.3448 32.3761 11.4305C32.3328 11.468 32.2733 11.4895 32.2191 11.4895L32.2137 11.4948Z" fill="white"/>
<path d="M30.737 11.677C30.6667 11.677 30.6017 11.6502 30.553 11.5913C29.7577 10.6696 28.6162 10.4284 28.6054 10.423C28.4755 10.3962 28.3889 10.2676 28.4159 10.139C28.443 10.0104 28.5675 9.92467 28.7027 9.95146C28.7568 9.96218 30.0175 10.2248 30.9265 11.2751C31.013 11.3769 31.0022 11.527 30.8994 11.6127C30.8561 11.6502 30.7966 11.6717 30.7425 11.6717L30.737 11.677Z" fill="white"/>
<path d="M29.3949 12.0307C29.3246 12.0307 29.2596 12.0039 29.2109 11.945C28.4101 11.0179 27.274 10.7821 27.2632 10.7767C27.1334 10.7499 27.0467 10.6213 27.0738 10.4927C27.1008 10.3641 27.2307 10.2784 27.3606 10.3052C27.4147 10.3159 28.6754 10.5785 29.5843 11.6288C29.6709 11.7306 29.66 11.8807 29.5572 11.9664C29.514 12.0039 29.4544 12.0254 29.4003 12.0254L29.3949 12.0307Z" fill="white"/>
<path d="M27.7612 12.1004C27.7179 12.1004 27.6746 12.0897 27.6367 12.0629C26.6033 11.4359 25.954 11.4948 25.9486 11.4948C25.8188 11.5109 25.6943 11.4144 25.6781 11.2858C25.6619 11.1572 25.7539 11.034 25.8892 11.0179C25.9216 11.0179 26.6899 10.9268 27.891 11.6502C28.0046 11.7199 28.0425 11.8699 27.9721 11.9825C27.9288 12.0575 27.8477 12.095 27.7666 12.095L27.7612 12.1004Z" fill="white"/>
<path d="M32.7876 18.4399C32.7118 18.4399 32.6306 18.4024 32.5873 18.3328C30.9642 15.9481 28.8703 14.5762 26.3599 14.26C24.4933 14.0242 23.0921 14.4904 23.0759 14.4958C22.946 14.5387 22.8107 14.4744 22.7674 14.3458C22.7241 14.2225 22.7891 14.0832 22.9189 14.0403C22.9784 14.0189 24.4393 13.5366 26.4195 13.7831C28.2428 14.0135 30.8668 14.946 32.9877 18.0648C33.0634 18.1774 33.031 18.3274 32.9228 18.3971C32.8796 18.4239 32.8363 18.4399 32.7876 18.4399Z" fill="white"/>
<path d="M31.6622 18.8312C31.6622 18.8312 31.6513 18.8312 31.6405 18.8312C31.5052 18.8204 31.4079 18.7025 31.4187 18.5739C31.5161 17.3575 30.8777 16.3929 30.8723 16.3821C30.7965 16.2696 30.829 16.1196 30.9427 16.0499C31.0563 15.9749 31.2077 16.007 31.278 16.1196C31.3105 16.1624 32.0138 17.2342 31.9056 18.6168C31.8948 18.7454 31.7866 18.8365 31.6622 18.8365V18.8312Z" fill="white"/>
<path d="M30.488 17.9255C30.488 17.9255 30.4772 17.9255 30.4664 17.9255C30.3311 17.9148 30.2338 17.7969 30.2446 17.6683C30.342 16.4518 29.7035 15.4872 29.6981 15.4765C29.6224 15.3639 29.6548 15.2139 29.7684 15.1442C29.882 15.0692 30.0336 15.1014 30.1039 15.2139C30.1364 15.2568 30.8397 16.3285 30.7315 17.7111C30.7207 17.8398 30.6125 17.9309 30.488 17.9309V17.9255Z" fill="white"/>
<path d="M29.2867 17.2342C29.2867 17.2342 29.2759 17.2342 29.265 17.2342C29.1298 17.2235 29.0324 17.1056 29.0433 16.977C29.1406 15.7659 28.5022 14.7959 28.4968 14.7852C28.4211 14.6726 28.4535 14.5226 28.5671 14.4529C28.6807 14.3779 28.8322 14.4101 28.9026 14.5226C28.935 14.5655 29.6384 15.6372 29.5301 17.0198C29.5193 17.1484 29.4111 17.2395 29.2867 17.2395V17.2342Z" fill="white"/>
<path d="M28.0371 16.634C28.0371 16.634 28.0371 16.634 28.0317 16.634C27.8964 16.634 27.7936 16.5161 27.7936 16.3875C27.8315 15.1978 27.0794 14.3458 27.074 14.335C26.982 14.2332 26.9929 14.0832 27.0957 13.9921C27.1985 13.9063 27.3499 13.9117 27.4419 14.0135C27.4798 14.0564 28.3292 15.021 28.2859 16.3982C28.2859 16.5268 28.1724 16.634 28.0425 16.634H28.0371Z" fill="white"/>
<path d="M29.8387 22.4805C29.7143 22.4805 29.6114 22.3894 29.5952 22.2662C29.2705 19.4099 28.0532 17.2342 25.981 15.8034C24.4336 14.7369 22.9783 14.5065 22.9621 14.5065C22.8268 14.4851 22.7402 14.3618 22.7564 14.2332C22.7781 14.0992 22.9025 14.0135 23.0324 14.0296C23.0973 14.0403 24.6176 14.2761 26.257 15.4068C27.7665 16.4464 29.6548 18.4721 30.0768 22.2126C30.093 22.3466 29.9957 22.4645 29.8604 22.4805C29.8496 22.4805 29.8441 22.4805 29.8333 22.4805H29.8387Z" fill="white"/>
<path d="M28.654 22.3144C28.6107 22.3144 28.5674 22.3037 28.5241 22.2769C28.4105 22.2073 28.3781 22.0572 28.4484 21.9447C29.1031 20.9104 28.9895 19.7636 28.9895 19.7529C28.9732 19.6189 29.0706 19.501 29.2058 19.4903C29.3411 19.4742 29.4601 19.5707 29.4709 19.7047C29.4763 19.7582 29.6009 21.0283 28.8596 22.2019C28.8109 22.2769 28.7351 22.3144 28.654 22.3144Z" fill="white"/>
<path d="M28.037 20.9747C27.9937 20.9747 27.9504 20.964 27.9071 20.9372C27.7935 20.8675 27.7611 20.7175 27.8314 20.6049C28.4861 19.5707 28.3725 18.4239 28.3725 18.4131C28.3563 18.2792 28.4536 18.1613 28.5889 18.1506C28.7241 18.1345 28.8431 18.2309 28.854 18.3649C28.8594 18.4185 28.9837 19.6886 28.2425 20.8622C28.1938 20.9372 28.1181 20.9747 28.037 20.9747Z" fill="white"/>
<path d="M27.296 19.8065C27.2527 19.8065 27.2094 19.7958 27.1662 19.769C27.0525 19.6993 27.0201 19.5492 27.0905 19.4367C27.7397 18.4078 27.6315 17.2556 27.6315 17.2449C27.6153 17.111 27.7126 16.9931 27.8479 16.9823C27.9831 16.9663 28.1022 17.0627 28.113 17.1967C28.1184 17.2503 28.2429 18.5203 27.5017 19.6939C27.453 19.769 27.3772 19.8065 27.296 19.8065Z" fill="white"/>
<path d="M26.4683 18.7025C26.4304 18.7025 26.387 18.6918 26.3492 18.6704C26.2301 18.6061 26.1923 18.456 26.2572 18.3435C26.847 17.3039 26.5819 16.2267 26.5819 16.216C26.5494 16.0874 26.6305 15.9534 26.7604 15.9213C26.8902 15.8891 27.0255 15.9695 27.058 16.0981C27.0688 16.1517 27.3718 17.3789 26.6847 18.5793C26.6414 18.6597 26.5549 18.7025 26.4737 18.7025H26.4683Z" fill="white"/>
<path d="M25.4724 17.813C25.4724 17.813 25.4291 17.813 25.4128 17.8076C25.283 17.7754 25.2073 17.6415 25.2398 17.5129C25.5807 16.2321 25.2938 15.3104 25.2884 15.2996C25.2505 15.171 25.3209 15.0371 25.4453 14.9995C25.5752 14.962 25.7105 15.0317 25.7484 15.1549C25.7646 15.1978 26.0784 16.2214 25.705 17.6361C25.678 17.7433 25.5752 17.8183 25.4724 17.8183V17.813Z" fill="white"/>
<path d="M22.9945 14.5065C22.9945 14.5065 22.9944 14.5065 22.989 14.5065C22.8537 14.5065 22.7509 14.394 22.7509 14.26C22.7509 14.1957 22.7997 12.6684 23.7249 10.9161C24.5743 9.29768 26.3651 7.18628 30.0551 6.2967C30.1849 6.26455 30.3148 6.34493 30.3472 6.47354C30.3797 6.60216 30.2985 6.73077 30.1686 6.76292C27.3552 7.43815 25.3372 8.90648 24.1631 11.1143C23.2866 12.7702 23.238 14.2493 23.238 14.2654C23.238 14.394 23.1242 14.5012 22.9944 14.5012L22.9945 14.5065Z" fill="white"/>
<path d="M30.0985 7.95795C30.0661 7.95795 30.0282 7.95259 29.9958 7.93652C28.8812 7.42742 27.7449 7.68465 27.7341 7.68465C27.6043 7.7168 27.4744 7.63642 27.4419 7.50245C27.4095 7.37383 27.4907 7.24522 27.6205 7.21307C27.6746 7.20235 28.9299 6.91833 30.2013 7.49709C30.3257 7.55068 30.3744 7.69537 30.3203 7.81862C30.277 7.90436 30.1905 7.95795 30.0985 7.95795Z" fill="white"/>
<path d="M28.8325 8.735C28.8 8.735 28.7621 8.72964 28.7297 8.71356C27.6151 8.20447 26.479 8.4617 26.4682 8.4617C26.3383 8.49385 26.2084 8.41347 26.176 8.27949C26.1435 8.15088 26.2246 8.02227 26.3544 7.99011C26.4085 7.97939 27.6638 7.69537 28.9352 8.27413C29.0597 8.32772 29.1083 8.47241 29.0542 8.59567C29.0109 8.68141 28.9244 8.735 28.8325 8.735Z" fill="white"/>
<path d="M27.7612 9.60849C27.7287 9.60849 27.6909 9.60314 27.6584 9.58706C26.5439 9.07796 25.4077 9.33519 25.3969 9.33519C25.2671 9.36735 25.1372 9.28696 25.1047 9.15299C25.0723 9.02438 25.1533 8.89576 25.2832 8.86361C25.3373 8.85289 26.5925 8.56887 27.864 9.14763C27.9884 9.20122 28.0371 9.34591 27.983 9.46916C27.9397 9.55491 27.8532 9.60849 27.7612 9.60849Z" fill="white"/>
<path d="M24.3742 10.5409C24.2876 10.5409 24.2011 10.4927 24.1578 10.4123C24.0983 10.2944 24.1416 10.1497 24.2606 10.0908C24.2876 10.0747 24.9694 9.73175 26.322 9.86036C26.4573 9.87108 26.5546 9.98898 26.5384 10.1229C26.5275 10.2569 26.4031 10.3534 26.2733 10.3373C25.0775 10.2248 24.4878 10.5141 24.4824 10.5141C24.4445 10.5302 24.4066 10.5409 24.3688 10.5409H24.3742Z" fill="white"/>
<path d="M25.7754 12.4701C25.7754 12.4701 25.7321 12.4701 25.7104 12.4594C25.1369 12.304 24.7907 12.3308 24.7853 12.3308C24.6554 12.3415 24.5364 12.2397 24.5256 12.1111C24.5148 11.9771 24.6121 11.8646 24.7474 11.8539C24.7636 11.8539 25.1694 11.8217 25.8403 11.9986C25.9701 12.0307 26.0459 12.1647 26.0135 12.2933C25.9864 12.4005 25.8836 12.4701 25.7808 12.4701H25.7754Z" fill="white"/>
<path d="M23.7629 11.6502C23.6655 11.6502 23.5735 11.5913 23.5356 11.5002C23.4869 11.3769 23.5464 11.2376 23.6654 11.1894C23.6817 11.184 24.0604 11.034 24.7529 11.0018C24.8882 11.0018 25.0018 11.0983 25.0072 11.2322C25.0126 11.3662 24.9099 11.4787 24.7746 11.4841C24.1795 11.5055 23.8549 11.6342 23.8549 11.6342C23.8278 11.6449 23.7954 11.6502 23.7629 11.6502Z" fill="white"/>
<path d="M26.4195 13.6813C26.36 13.6813 26.3004 13.6598 26.2517 13.6169C25.8946 13.2847 25.5429 13.1239 25.5375 13.1239C25.4131 13.0703 25.3644 12.9256 25.4185 12.8024C25.4726 12.6791 25.6187 12.6309 25.7432 12.6845C25.7594 12.6899 26.1706 12.8828 26.5818 13.2633C26.6792 13.3544 26.6846 13.5044 26.5927 13.6062C26.544 13.6545 26.479 13.6813 26.4141 13.6813H26.4195Z" fill="white"/>
<path d="M21.7337 30.0527C21.7337 30.0527 21.7283 30.0955 21.7229 30.0955C21.5876 30.0902 21.4847 30.1706 21.4901 30.0366L22.1286 13.9653C22.1341 13.8313 22.2477 13.7295 22.3829 13.7348C22.5182 13.7402 22.6209 13.8527 22.6155 13.9867L21.9771 30.058C21.9771 30.1866 21.8635 30.058 21.7337 30.058V30.0527Z" fill="white"/>
<path d="M24.2603 30.1813C24.1304 30.1813 24.0223 30.1813 24.0169 30.0527L23.3783 13.9814C23.3729 13.8474 23.4758 13.7348 23.6111 13.7295C23.7463 13.7241 23.8599 13.8259 23.8653 13.9599L24.5037 30.0312C24.5092 30.1652 24.4064 30.042 24.2711 30.0473C24.2711 30.0473 24.2657 30.1813 24.2603 30.1813Z" fill="white"/>
<path d="M22.9942 29.5972C19.775 29.5972 16.9346 30.5832 15.2249 32.0837C15.3115 32.1266 15.398 32.1748 15.49 32.2177C15.582 32.2605 15.6686 32.3088 15.7605 32.3516C17.3728 31.028 20.0131 30.1598 22.9942 30.1598C25.9754 30.1598 28.6212 31.028 30.2335 32.357C30.3254 32.3141 30.412 32.2659 30.504 32.223C30.5906 32.1802 30.6825 32.1319 30.7691 32.089C29.0594 30.5886 26.2134 29.5972 22.9942 29.5972Z" fill="white"/>
<path d="M16.329 30.2724C15.8691 30.0527 15.3496 29.8008 14.3595 29.8008C13.3694 29.8008 12.877 30.0366 12.428 30.2563C12.6281 30.4171 12.8284 30.5725 13.0394 30.7279C13.3694 30.5886 13.7536 30.4814 14.3649 30.4814C15.1981 30.4814 15.604 30.6797 16.0368 30.8833C16.2099 30.9637 16.3885 31.0548 16.5995 31.1298C16.9025 30.9583 17.2216 30.7976 17.557 30.6529C17.016 30.5939 16.6807 30.4385 16.3344 30.2724H16.329Z" fill="#5EBDD4"/>
<path d="M32.5655 30.6797C31.7323 30.6797 31.3265 30.4814 30.8937 30.2777C30.4338 30.058 29.9143 29.8062 28.9242 29.8062C28.0585 29.8062 27.5554 29.9991 27.1334 30.192C27.4905 30.2992 27.8422 30.4171 28.1722 30.551C28.3832 30.5082 28.6266 30.4814 28.9242 30.4814C29.7574 30.4814 30.1632 30.6797 30.5961 30.8833C30.9694 31.0655 31.3914 31.2638 32.0731 31.3281C32.414 31.1084 32.744 30.8833 33.0687 30.6475C32.9172 30.6636 32.7548 30.6743 32.5708 30.6743L32.5655 30.6797Z" fill="#5EBDD4"/>
<path d="M22.9942 30.1598C20.0077 30.1598 17.3728 31.028 15.7605 32.3516C16.1717 32.5446 16.5885 32.7214 17.016 32.8822C18.3794 31.8318 20.549 31.1459 22.9945 31.1459C25.44 31.1459 27.6097 31.8318 28.9785 32.8875C29.4059 32.7268 29.8223 32.5499 30.2335 32.357C28.6212 31.0333 25.9808 30.1598 22.9942 30.1598ZM17.6328 33.1072C19.3209 33.6699 21.1225 33.9861 22.9999 33.9861C24.8774 33.9861 26.6737 33.6753 28.3618 33.1126C27.0957 32.2605 25.1587 31.7193 22.9999 31.7193C20.8412 31.7193 18.9097 32.2605 17.6382 33.1126L17.6328 33.1072Z" fill="#192745"/>
<path d="M22.9945 31.1459C20.549 31.1459 18.3794 31.8318 17.016 32.8822C17.1133 32.9197 17.2159 32.9572 17.3133 32.9947C17.4215 33.0322 17.5243 33.0644 17.6325 33.1019C18.8986 32.2552 20.83 31.7086 22.9942 31.7086C25.1584 31.7086 27.09 32.2552 28.3561 33.1019C28.4643 33.0644 28.5724 33.0322 28.6752 32.9947C28.778 32.9572 28.8754 32.9197 28.9728 32.8822C27.6094 31.8265 25.4343 31.1405 22.9888 31.1405L22.9945 31.1459Z" fill="white"/>
</svg>
