<svg width="55" height="31" viewBox="0 0 55 31" fill="none" xmlns="http://www.w3.org/2000/svg">
<g clip-path="url(#clip0_0_446)">
<path d="M2.411 13.5086C3.36915 13.5086 4.2492 13.3456 4.6033 13.1317H4.65537C4.54601 13.4271 4.87408 14.5783 6.65499 18.8927L9.39406 25.484L12.8153 17.716C14.0494 14.9552 13.336 14.0995 12.2373 13.4016V13.1317C12.9767 13.4016 13.6068 13.5341 14.2629 13.5341C14.9191 13.5341 15.5752 13.4016 16.3719 13.1317V13.4016C15.0857 14.1504 14.4296 15.0113 13.1954 17.8485L7.85268 30.0632H7.35798L7.38402 30.0072L2.78072 18.8876C1.01543 14.5834 0.385344 13.4271 0 13.1368C0.713407 13.4067 1.58824 13.5137 2.411 13.5137V13.5086Z" fill="url(#paint0_linear_0_446)"/>
<path d="M17.4758 24.3076V21.068C17.4758 19.005 17.1217 18.5771 17.0645 18.3632C17.5279 18.3632 19.1474 18.0678 20.7617 16.6772H21.0377V24.3127C21.0377 28.6271 21.2043 29.7783 21.449 30.0737C20.845 29.8037 20.0535 29.6968 19.314 29.6968C18.4392 29.6968 17.5904 29.8598 17.1217 30.0737H17.0697C17.3144 29.7783 17.481 28.6271 17.481 24.3127L17.4758 24.3076ZM19.4494 12.1183C20.543 12.1183 21.449 12.974 21.449 14.0182C21.449 15.0625 20.543 15.9182 19.4494 15.9182C18.3559 15.9182 17.4758 15.0625 17.4758 14.0182C17.4758 12.974 18.3819 12.1183 19.4494 12.1183Z" fill="url(#paint1_linear_0_446)"/>
<path d="M23.0894 26.9048C23.0894 25.4836 24.2402 24.7858 25.5524 24.7858C26.7033 24.7858 27.8541 25.3767 27.8541 26.4209C26.6512 26.2885 25.7972 26.9303 25.7972 28C25.7972 29.2581 26.8387 29.9305 28.0155 29.9305C29.2757 29.9305 30.588 29.1257 30.588 27.5211C30.588 24.1746 23.0842 24.8418 23.0842 19.9926C23.0842 17.5272 25.8493 16.4015 28.479 16.4015C30.8327 16.4015 33.1083 17.3133 33.1083 19.0248C33.1083 20.0435 32.2595 20.9808 30.7546 20.9808C29.7704 20.9808 28.8643 20.339 28.8643 19.2387C30.3172 19.2387 30.7546 16.6919 28.4269 16.6664C27.3854 16.6664 26.2346 17.2827 26.2346 18.7548C26.2346 22.1829 33.7644 21.592 33.7644 26.2834C33.7644 28.9372 30.8327 30.3278 28.0416 30.3278C24.6984 30.3278 23.0842 28.4533 23.0842 26.8997L23.0894 26.9048Z" fill="url(#paint2_linear_0_446)"/>
<path d="M39.0862 13.4019H39.3622V16.6721H41.2264V16.9421H39.3622V26.666C39.3622 28.4335 39.4976 29.5847 40.211 29.5847C40.4036 29.5847 40.6223 29.5338 40.8671 29.3708V29.5032C40.3464 30.0941 39.5809 30.3335 38.7842 30.3335C35.7691 30.3335 35.8003 27.6797 35.8003 25.4028V18.3581C35.8003 17.1 35.6077 16.937 33.9101 16.937V16.667C35.0036 16.667 37.3053 15.8622 39.0862 13.3968V13.4019Z" fill="url(#paint3_linear_0_446)"/>
<path d="M49.9334 19.6725C49.9334 17.5535 48.8659 16.6723 47.7724 16.6723C46.5695 16.6723 45.3093 17.742 45.3093 19.3516C45.3093 20.2889 45.8821 21.0122 46.8715 20.9052C46.8715 22.2194 45.9134 22.8357 44.8719 22.8357C43.6117 22.8357 42.2682 21.98 42.2682 20.3704C42.2682 17.5586 45.5541 16.4074 47.939 16.4074C52.6517 16.4074 53.4692 19.4076 53.4692 21.873V26.6662C53.4692 28.4337 53.6359 29.5849 54.3441 29.5849C54.5367 29.5849 54.7554 29.534 55.0002 29.371V29.5034C54.4794 30.0943 53.714 30.3337 52.9172 30.3337C51.1363 30.3337 50.3969 29.3965 50.1261 28.1638C48.9232 29.6664 47.335 30.3337 45.9082 30.3337C43.9346 30.3337 42.0443 29.101 42.0443 27.0126C42.0443 22.4333 49.9334 23.61 49.9334 19.6725ZM48.0432 28.7292C48.7566 28.7292 49.47 28.4592 50.0688 27.8734C49.9022 27.0941 49.9022 26.2383 49.9022 25.4081L49.9282 20.8543C49.5429 22.2194 45.5436 23.4521 45.5436 26.1059C45.5436 27.7665 46.7205 28.7292 48.038 28.7292H48.0432Z" fill="url(#paint4_linear_0_446)"/>
<path d="M26.9066 11.7105C25.8391 10.9719 25.2767 9.93788 25.2194 8.60841H27.4638C27.521 9.70357 27.8543 10.4931 28.4688 10.977C29.0832 11.466 29.9893 11.7054 31.187 11.7054C32.1712 11.7054 32.9002 11.522 33.3637 11.1553C33.8271 10.7885 34.0615 10.2384 34.0615 9.5151C34.0615 9.12288 33.9781 8.78669 33.8115 8.50145C33.6449 8.2162 33.322 7.95642 32.8377 7.71701C32.3534 7.4776 31.6505 7.26367 30.7183 7.0752C29.2551 6.76448 28.0209 6.32642 27.0211 5.75592C26.0161 5.18542 25.5162 4.35005 25.5162 3.24471C25.5162 1.07987 27.3492 0 31.0204 0C32.8169 0 34.1708 0.315812 35.0873 0.952529C36.0038 1.58925 36.5037 2.43481 36.5922 3.4943H34.3791C34.2229 2.62837 33.8584 2.01203 33.2804 1.65037C32.7023 1.28872 31.916 1.10534 30.9214 1.10534C30.0466 1.10534 29.3957 1.26834 28.9687 1.58415C28.5417 1.90506 28.3282 2.31256 28.3282 2.81174C28.3282 3.0868 28.4011 3.3313 28.5521 3.54015C28.7031 3.75408 29.0051 3.96293 29.4686 4.17177C29.9268 4.38061 30.6038 4.58946 31.489 4.80339C32.7388 5.09883 33.7334 5.39936 34.4624 5.6948C35.1915 5.99023 35.7799 6.41811 36.2225 6.96823C36.6651 7.51835 36.889 8.25185 36.889 9.16872C36.889 9.92769 36.6547 10.5848 36.1809 11.1298C35.707 11.6748 35.0456 12.0925 34.1916 12.3778C33.3376 12.663 32.3482 12.8057 31.2182 12.8057C29.4113 12.8057 27.9741 12.4389 26.9066 11.7003V11.7105Z" fill="url(#paint5_linear_0_446)"/>
<path d="M7.60814 7.37041V4.16645H6.67082L6.84266 3.69783H7.62897L7.99869 2.26139H8.785V3.69783H10.2326L10.0816 4.16645H8.785V7.50285C8.785 8.1141 9.02454 8.41972 9.49841 8.41972C9.75878 8.41972 10.0139 8.3535 10.2535 8.22107V8.69988C9.95666 8.83231 9.5609 8.89853 9.06099 8.89853C8.09242 8.89853 7.60293 8.38916 7.60293 7.37041H7.60814Z" fill="url(#paint6_linear_0_446)"/>
<path d="M10.9667 1.69654H12.1383V4.64072C12.3206 4.31472 12.5914 4.06003 12.9455 3.87666C13.2996 3.69328 13.7005 3.6016 14.1484 3.6016C14.8357 3.6016 15.3721 3.76969 15.7522 4.10588C16.1324 4.44206 16.325 4.91069 16.325 5.50665V8.8023H15.1534V5.40987C15.1534 4.97181 15.044 4.64072 14.8201 4.4115C14.5962 4.18228 14.2733 4.07022 13.8463 4.07022C13.3308 4.07022 12.9142 4.24341 12.6018 4.58469C12.2893 4.92597 12.1331 5.3895 12.1331 5.96V8.79721H10.9615V1.69654H10.9667Z" fill="url(#paint7_linear_0_446)"/>
<path d="M21.4439 8.09918C21.7512 7.87505 21.949 7.56433 22.0324 7.16193H22.9489C22.8239 7.71205 22.5114 8.13483 22.0115 8.44046C21.5168 8.74608 20.9024 8.89889 20.1733 8.89889C19.5693 8.89889 19.0486 8.79192 18.6007 8.57799C18.1529 8.36405 17.8092 8.05843 17.5697 7.66112C17.3301 7.2638 17.2104 6.80027 17.2104 6.26543C17.2104 5.73059 17.3301 5.25178 17.5697 4.84937C17.8092 4.44697 18.1529 4.13625 18.5955 3.91722C19.0381 3.69819 19.5589 3.59122 20.1525 3.59122C21.0586 3.59122 21.7616 3.82044 22.2563 4.27888C22.751 4.73731 23.0061 5.38931 23.0218 6.23487H18.3768V6.28581C18.3768 6.95818 18.5382 7.48284 18.8611 7.85977C19.1839 8.23671 19.6474 8.42518 20.2567 8.42518C20.7409 8.42518 21.1315 8.31311 21.4439 8.09408V8.09918ZM18.9809 4.51319C18.6736 4.81372 18.4862 5.2314 18.408 5.77134H21.897C21.8241 5.21612 21.647 4.79334 21.3554 4.503C21.0638 4.21266 20.6732 4.06494 20.1838 4.06494C19.6943 4.06494 19.2881 4.21266 18.9809 4.51319Z" fill="url(#paint8_linear_0_446)"/>
</g>
<defs>
<linearGradient id="paint0_linear_0_446" x1="8.19116" y1="3.24982" x2="8.19116" y2="31.6474" gradientUnits="userSpaceOnUse">
<stop offset="0.29" stop-color="#E67972"/>
<stop offset="0.62" stop-color="#F3A196"/>
<stop offset="0.97" stop-color="#F5B0B5"/>
</linearGradient>
<linearGradient id="paint1_linear_0_446" x1="19.2568" y1="1.63537" x2="19.2568" y2="31.7444" gradientUnits="userSpaceOnUse">
<stop offset="0.29" stop-color="#E67972"/>
<stop offset="0.62" stop-color="#F3A196"/>
<stop offset="0.97" stop-color="#F5B0B5"/>
</linearGradient>
<linearGradient id="paint2_linear_0_446" x1="28.4321" y1="8.26682" x2="28.4321" y2="31.6369" gradientUnits="userSpaceOnUse">
<stop offset="0.29" stop-color="#E67972"/>
<stop offset="0.62" stop-color="#F3A196"/>
<stop offset="0.97" stop-color="#F5B0B5"/>
</linearGradient>
<linearGradient id="paint3_linear_0_446" x1="37.5656" y1="3.515" x2="37.5656" y2="31.9177" gradientUnits="userSpaceOnUse">
<stop offset="0.29" stop-color="#E67972"/>
<stop offset="0.62" stop-color="#F3A196"/>
<stop offset="0.97" stop-color="#F5B0B5"/>
</linearGradient>
<linearGradient id="paint4_linear_0_446" x1="48.5222" y1="8.26765" x2="48.5222" y2="31.6377" gradientUnits="userSpaceOnUse">
<stop offset="0.29" stop-color="#E67972"/>
<stop offset="0.62" stop-color="#F3A196"/>
<stop offset="0.97" stop-color="#F5B0B5"/>
</linearGradient>
<linearGradient id="paint5_linear_0_446" x1="31.0516" y1="-7.4827" x2="31.0516" y2="14.0129" gradientUnits="userSpaceOnUse">
<stop offset="0.29" stop-color="#E67972"/>
<stop offset="0.62" stop-color="#F3A196"/>
<stop offset="0.97" stop-color="#F5B0B5"/>
</linearGradient>
<linearGradient id="paint6_linear_0_446" x1="8.46215" y1="-1.60984" x2="8.46215" y2="9.51997" gradientUnits="userSpaceOnUse">
<stop offset="0.29" stop-color="#E67972"/>
<stop offset="0.62" stop-color="#F3A196"/>
<stop offset="0.97" stop-color="#F5B0B5"/>
</linearGradient>
<linearGradient id="paint7_linear_0_446" x1="13.6432" y1="-2.45486" x2="13.6432" y2="9.45939" gradientUnits="userSpaceOnUse">
<stop offset="0.29" stop-color="#E67972"/>
<stop offset="0.62" stop-color="#F3A196"/>
<stop offset="0.97" stop-color="#F5B0B5"/>
</linearGradient>
<linearGradient id="paint8_linear_0_446" x1="20.1161" y1="0.499324" x2="20.1161" y2="9.39808" gradientUnits="userSpaceOnUse">
<stop offset="0.29" stop-color="#E67972"/>
<stop offset="0.62" stop-color="#F3A196"/>
<stop offset="0.97" stop-color="#F5B0B5"/>
</linearGradient>
<clipPath id="clip0_0_446">
<rect width="54.4854" height="30.0494" fill="white" transform="scale(1.00945)"/>
</clipPath>
</defs>
</svg>
