<svg width="43" height="47" viewBox="0 0 43 47" fill="none" xmlns="http://www.w3.org/2000/svg">
<path d="M7.68208 46.7277C7.56616 46.7277 7.46102 46.713 7.36734 46.685C7.27366 46.6556 7.19346 46.6042 7.12607 46.5301C7.05934 46.456 7.02228 46.3619 7.01688 46.2484H7.2831C7.29321 46.3465 7.33904 46.4173 7.41991 46.4613C7.50146 46.5054 7.59514 46.5274 7.70095 46.5274C7.80676 46.5274 7.89438 46.5034 7.95503 46.4547C8.01636 46.4059 8.04669 46.3499 8.04669 46.2864C8.04669 46.2057 8.01569 46.1463 7.95368 46.1069C7.89235 46.0682 7.79867 46.0408 7.67264 46.0228C7.45293 45.9901 7.29455 45.9387 7.1975 45.8706C7.10046 45.8018 7.0526 45.699 7.0526 45.5622C7.0526 45.4253 7.10585 45.3192 7.21233 45.2317C7.31814 45.1443 7.47113 45.1002 7.67062 45.1002C7.85259 45.1016 7.99951 45.1409 8.11139 45.2184C8.22327 45.2958 8.28123 45.4153 8.28527 45.5762H8.0386C8.03389 45.5234 8.01973 45.4781 7.99614 45.4393C7.97256 45.4006 7.94155 45.3719 7.90381 45.3532C7.8654 45.3345 7.82765 45.3198 7.78856 45.3112C7.74947 45.3025 7.70837 45.2978 7.66388 45.2978C7.54796 45.2972 7.45967 45.3192 7.39969 45.3639C7.33904 45.4093 7.30938 45.4667 7.30938 45.5361C7.30938 45.5682 7.31275 45.5962 7.32084 45.6189C7.32893 45.6423 7.34308 45.6623 7.36465 45.6797C7.38554 45.697 7.40508 45.7117 7.41991 45.7224C7.43608 45.7337 7.46439 45.7431 7.50753 45.7531C7.54931 45.7631 7.58099 45.7704 7.60188 45.7751C7.62345 45.7798 7.66186 45.7871 7.71915 45.7985C7.93683 45.8359 8.08982 45.8879 8.17676 45.9553C8.2637 46.0228 8.30684 46.1269 8.30684 46.2671C8.30684 46.4073 8.25225 46.5134 8.14239 46.5988C8.03321 46.6836 7.88022 46.7257 7.6841 46.7257H7.68073L7.68208 46.7277Z" fill="white"/>
<path d="M8.57307 45.1338H8.84265L9.29016 45.8961L9.73834 45.1338H10.0059L9.41147 46.1037V46.7058H9.16952V46.1037L8.57307 45.1338Z" fill="white"/>
<path d="M10.3818 45.1338H10.7464L11.2404 46.5182L11.727 45.1338H12.0977V46.7058H11.8578V45.4208L11.3934 46.7058H11.078L10.6197 45.4188V46.7058H10.3818V45.1338Z" fill="white"/>
<path d="M13.3602 45.1358C13.5179 45.1358 13.6399 45.1705 13.7281 45.2372C13.8164 45.3047 13.8609 45.4041 13.8609 45.5356C13.8609 45.6978 13.7861 45.8106 13.6365 45.8727C13.836 45.9215 13.9357 46.0476 13.9357 46.2506C13.9357 46.3861 13.8879 46.4955 13.7908 46.5797C13.6938 46.6638 13.5597 46.7058 13.3885 46.7058H12.6734V45.1338L13.3608 45.1358H13.3602ZM13.3143 45.7953C13.5233 45.7953 13.6277 45.7159 13.6277 45.5557C13.6277 45.4802 13.5994 45.4241 13.5428 45.3868C13.4862 45.3494 13.41 45.33 13.3137 45.33H12.912V45.7966H13.3137V45.7953H13.3143ZM13.348 46.5116C13.4714 46.5116 13.5597 46.4862 13.6129 46.4355C13.6661 46.3847 13.6931 46.3186 13.6931 46.2365C13.6931 46.067 13.5698 45.9802 13.3224 45.9795H12.912V46.5109H13.348V46.5122V46.5116Z" fill="white"/>
<path d="M15.0824 46.733C14.8513 46.733 14.6652 46.6576 14.5244 46.5087C14.3835 46.3592 14.3134 46.1629 14.3134 45.9199C14.3134 45.677 14.3835 45.48 14.5244 45.3292C14.6646 45.1776 14.8513 45.1022 15.0824 45.1022C15.3136 45.1022 15.4996 45.1776 15.6405 45.3292C15.7806 45.4807 15.8514 45.677 15.8514 45.9199C15.8514 46.1629 15.7806 46.3585 15.6405 46.508C15.4996 46.6569 15.3149 46.7323 15.0838 46.7323V46.7337L15.0824 46.733ZM15.0824 46.5341C15.2374 46.5341 15.3621 46.4767 15.4571 46.3632C15.5515 46.249 15.5987 46.1022 15.5987 45.9219C15.5987 45.7417 15.5508 45.5928 15.4558 45.4794C15.3608 45.3652 15.2361 45.3078 15.0824 45.3078C14.9288 45.3078 14.8048 45.3652 14.7097 45.4794C14.6154 45.5928 14.5682 45.7404 14.5682 45.9199C14.5682 46.0995 14.6154 46.247 14.7097 46.3605C14.8048 46.4747 14.9281 46.5307 15.0824 46.5307V46.5341Z" fill="white"/>
<path d="M16.5722 45.1338V46.5136H17.3965V46.7058H16.3323V45.1338H16.5722Z" fill="white"/>
<path d="M19.0303 46.733C18.7992 46.733 18.6132 46.6576 18.4723 46.5087C18.3315 46.3592 18.2614 46.1629 18.2614 45.9199C18.2614 45.677 18.3315 45.48 18.4723 45.3292C18.6125 45.1776 18.7992 45.1022 19.0303 45.1022C19.2615 45.1022 19.4475 45.1776 19.5884 45.3292C19.7286 45.4807 19.7993 45.677 19.7993 45.9199C19.7993 46.1629 19.7286 46.3585 19.5884 46.508C19.4475 46.6569 19.2629 46.7323 19.0317 46.7323V46.7337L19.0303 46.733ZM19.0303 46.5341C19.1854 46.5341 19.31 46.4767 19.4051 46.3632C19.4994 46.249 19.5466 46.1022 19.5466 45.9219C19.5466 45.7417 19.4987 45.5928 19.4037 45.4794C19.3087 45.3652 19.184 45.3078 19.0303 45.3078C18.8767 45.3078 18.7527 45.3652 18.6576 45.4794C18.5633 45.5928 18.5161 45.7404 18.5161 45.9199C18.5161 46.0995 18.5633 46.247 18.6576 46.3605C18.7527 46.4747 18.876 46.5307 19.0303 46.5307V46.5341Z" fill="white"/>
<path d="M21.4243 45.1338V45.326H20.5191V45.806H21.3131V46.0002H20.5191V46.7058H20.2792V45.1338H21.4236H21.4243Z" fill="white"/>
<path d="M23.0057 46.7277C22.8898 46.7277 22.7853 46.713 22.6916 46.685C22.5979 46.6556 22.5177 46.6042 22.4503 46.5301C22.3836 46.456 22.3466 46.3619 22.3405 46.2484H22.6074C22.6175 46.3465 22.6633 46.4173 22.7449 46.4613C22.8264 46.5054 22.9201 46.5274 23.0259 46.5274C23.1317 46.5274 23.2187 46.5034 23.28 46.4547C23.3413 46.4059 23.371 46.3499 23.371 46.2864C23.371 46.2057 23.34 46.1463 23.2786 46.1069C23.2173 46.0682 23.1236 46.0408 22.9976 46.0228C22.7779 45.9901 22.6195 45.9387 22.5225 45.8706C22.4254 45.8018 22.3776 45.699 22.3776 45.5622C22.3776 45.4253 22.4308 45.3192 22.5366 45.2317C22.6424 45.1443 22.7954 45.1002 22.9949 45.1002C23.1769 45.1016 23.3245 45.1409 23.4357 45.2184C23.5475 45.2958 23.6055 45.4153 23.6095 45.5762H23.3629C23.3582 45.5234 23.344 45.4781 23.3204 45.4393C23.2968 45.4006 23.2658 45.3719 23.2274 45.3532C23.1897 45.3345 23.1513 45.3198 23.1128 45.3112C23.0738 45.3025 23.0326 45.2978 22.9882 45.2978C22.8722 45.2972 22.784 45.3192 22.7233 45.3639C22.6633 45.4093 22.633 45.4667 22.633 45.5361C22.633 45.5682 22.6364 45.5962 22.6444 45.6189C22.6519 45.6423 22.6667 45.6623 22.6876 45.6797C22.7091 45.697 22.728 45.7117 22.7435 45.7224C22.759 45.7337 22.788 45.7431 22.8305 45.7531C22.8729 45.7631 22.9046 45.7704 22.9255 45.7751C22.9464 45.7798 22.9855 45.7871 23.0428 45.7985C23.2604 45.8359 23.4134 45.8879 23.4997 45.9553C23.5873 46.0228 23.6304 46.1269 23.6304 46.2671C23.6304 46.4073 23.5759 46.5134 23.4667 46.5988C23.3568 46.6836 23.2045 46.7257 23.0084 46.7257H23.005L23.0057 46.7277Z" fill="white"/>
<path d="M24.7982 45.1318C24.9848 45.1311 25.1237 45.1739 25.2167 45.2613C25.309 45.3488 25.3562 45.4676 25.3562 45.6204C25.3562 45.7733 25.3083 45.8875 25.2126 45.9756C25.1163 46.0637 24.9734 46.1084 24.7833 46.1084H24.356V46.7065H24.1181V45.1345L24.7988 45.1318H24.7982ZM24.78 45.9175C24.8817 45.9175 24.9626 45.8935 25.0246 45.8447C25.0859 45.796 25.1156 45.7212 25.1156 45.6204C25.1156 45.4215 25.0037 45.3221 24.78 45.3221H24.3567L24.3547 45.9168H24.7793L24.78 45.9175Z" fill="white"/>
<path d="M26.042 45.1338V46.5136H26.8662V46.7058H25.8021V45.1338H26.042Z" fill="white"/>
<path d="M28.485 45.1338V45.326H27.5495V45.806H28.4034V46.0002H27.5495V46.5136H28.485V46.7058H27.3089V45.1338H28.485Z" fill="white"/>
<path d="M29.2143 46.7058H28.9771V45.1338H29.2366L30.0979 46.3714V45.1358H30.3358V46.7058H30.0756L29.2143 45.4682V46.7058Z" fill="white"/>
<path d="M31.4807 45.1338C31.7227 45.1338 31.9168 45.2012 32.0617 45.3374C32.2066 45.4729 32.2794 45.6645 32.2794 45.9108C32.2794 46.1571 32.2079 46.3527 32.065 46.4942C31.9222 46.6357 31.7335 46.7065 31.4996 46.7065H30.9126V45.1344H31.4807V45.1338ZM31.4389 46.5102C31.6337 46.5102 31.7827 46.4595 31.8851 46.358C31.9875 46.2566 32.0388 46.109 32.0388 45.9181C32.0388 45.7272 31.9889 45.5824 31.8878 45.4809C31.788 45.3794 31.6411 45.3287 31.4497 45.3287H31.1532V46.5116H31.4389V46.5102Z" fill="white"/>
<path d="M33.4341 46.733C33.2029 46.733 33.0169 46.6576 32.876 46.5087C32.7352 46.3592 32.6651 46.1629 32.6651 45.9199C32.6651 45.677 32.7352 45.48 32.876 45.3292C33.0162 45.1776 33.2029 45.1022 33.4341 45.1022C33.6652 45.1022 33.8512 45.1776 33.9921 45.3292C34.1323 45.4807 34.203 45.677 34.203 45.9199C34.203 46.1629 34.1323 46.3585 33.9921 46.508C33.8512 46.6569 33.6666 46.7323 33.4354 46.7323V46.7337L33.4341 46.733ZM33.4341 46.5341C33.5891 46.5341 33.7137 46.4767 33.8088 46.3632C33.9031 46.249 33.9503 46.1022 33.9503 45.9219C33.9503 45.7417 33.9024 45.5928 33.8074 45.4794C33.7124 45.3652 33.5877 45.3078 33.4341 45.3078C33.2804 45.3078 33.1564 45.3652 33.0614 45.4794C32.967 45.5928 32.9198 45.7404 32.9198 45.9199C32.9198 46.0995 32.967 46.247 33.0614 46.3605C33.1564 46.4747 33.2797 46.5307 33.4341 46.5307V46.5341Z" fill="white"/>
<path d="M34.6839 45.1309L35.3734 45.1289C35.5607 45.1275 35.7002 45.1689 35.7926 45.2524C35.8849 45.3365 35.9307 45.4533 35.9307 45.6048C35.9307 45.8358 35.8189 45.9833 35.5951 46.0487L35.9833 46.7049H35.707L35.3538 46.0808H34.9218V46.7049H34.6846V45.1302L34.6839 45.1309ZM35.3552 45.8865C35.5796 45.8865 35.6908 45.7931 35.6908 45.6035C35.6908 45.4139 35.5789 45.3184 35.3552 45.3184H34.9238L34.9211 45.8859H35.3552V45.8865Z" fill="white"/>
<path d="M28.4932 31.3121H29.8459V31.5534H29.3033V32.852H29.0506V31.5534H28.4932V31.3121ZM31.6026 31.3121V32.852H31.3614V31.8177L30.9682 32.8459H30.6925L30.2905 31.7948V32.852H30.0554V31.3121H30.3222L30.8391 32.5992L31.333 31.3121H31.6026Z" fill="white"/>
<path d="M12.3239 9.58668H11.3446V11.8563H12.3239V9.58668Z" fill="url(#paint0_linear_0_5271)"/>
<path d="M13.3793 8.52325H12.4371V12.9203H13.3793V8.52325Z" fill="url(#paint1_linear_0_5271)"/>
<path d="M14.4348 7.45982H13.5297V13.9843H14.4348V7.45982Z" fill="url(#paint2_linear_0_5271)"/>
<path d="M15.4889 6.39638H14.6242V15.0483H15.4889V6.39638Z" fill="url(#paint3_linear_0_5271)"/>
<path d="M16.5419 5.33295H15.7177V16.1123H16.5419V5.33295Z" fill="url(#paint4_linear_0_5271)"/>
<path d="M16.8107 17.176H16.9657V28.5455H17.4429V17.176H17.5979V4.26853H16.8107V17.176Z" fill="url(#paint5_linear_0_5271)"/>
<path d="M17.9028 18.2393H18.0207V29.6088H18.5349V18.2393H18.6529V3.2051H17.9028V18.2393Z" fill="url(#paint6_linear_0_5271)"/>
<path d="M18.9978 19.303H19.0753V30.6725H19.6293V19.303H19.7068V2.14068H18.9978V19.303Z" fill="url(#paint7_linear_0_5271)"/>
<path d="M20.0913 20.3663H20.129V31.7365H20.7228V20.3663H20.7605V1.07724H20.0913V20.3663Z" fill="url(#paint8_linear_0_5271)"/>
<path d="M21.1833 11.3968V21.4172V32.8134H21.8155V21.4172V11.3968V0H21.1833V11.3968Z" fill="url(#paint9_linear_0_5271)"/>
<path d="M22.8709 1.07724H22.2771V12.4467H22.2394V31.7365H22.9086V12.4467H22.8709V1.07724Z" fill="url(#paint10_linear_0_5271)"/>
<path d="M23.9249 2.14068H23.3709V13.5108H23.2934V30.6725H24.0024V13.5108H23.9249V2.14068Z" fill="url(#paint11_linear_0_5271)"/>
<path d="M24.9787 3.2051H24.4645V14.5746H24.3465V29.6088H25.0966V14.5746H24.9787V3.2051Z" fill="url(#paint12_linear_0_5271)"/>
<path d="M26.0347 4.26853H25.5576V15.6387H25.4025V28.5455H26.1897V15.6387H26.0347V4.26853Z" fill="url(#paint13_linear_0_5271)"/>
<path d="M27.0892 5.33295H26.6495V16.1123H27.0892V5.33295Z" fill="url(#paint14_linear_0_5271)"/>
<path d="M28.1436 6.39638H27.744V15.0483H28.1436V6.39638Z" fill="url(#paint15_linear_0_5271)"/>
<path d="M29.1972 7.45982H28.838V13.9843H29.1972V7.45982Z" fill="url(#paint16_linear_0_5271)"/>
<path d="M30.2527 8.52325H29.9305V12.9203H30.2527V8.52325Z" fill="url(#paint17_linear_0_5271)"/>
<path d="M31.312 9.58668H31.0186V11.8563H31.312V9.58668Z" fill="url(#paint18_linear_0_5271)"/>
<path d="M31.6551 20.9569H30.6758V23.2266H31.6551V20.9569Z" fill="url(#paint19_linear_0_5271)"/>
<path d="M30.5625 19.8935H29.6203V24.2906H30.5625V19.8935Z" fill="url(#paint20_linear_0_5271)"/>
<path d="M29.4698 18.8301H28.5647V25.3546H29.4698V18.8301Z" fill="url(#paint21_linear_0_5271)"/>
<path d="M28.3763 17.7666H27.5117V26.4186H28.3763V17.7666Z" fill="url(#paint22_linear_0_5271)"/>
<path d="M27.2818 16.7012H26.4576V27.4806H27.2818V16.7012Z" fill="url(#paint23_linear_0_5271)"/>
<path d="M16.3498 16.7012H15.9101V27.4806H16.3498V16.7012Z" fill="url(#paint24_linear_0_5271)"/>
<path d="M15.2557 17.7666H14.856V26.4186H15.2557V17.7666Z" fill="url(#paint25_linear_0_5271)"/>
<path d="M14.1622 18.8301H13.8029V25.3546H14.1622V18.8301Z" fill="url(#paint26_linear_0_5271)"/>
<path d="M13.069 19.8935H12.7469V24.2906H13.069V19.8935Z" fill="url(#paint27_linear_0_5271)"/>
<path d="M11.9813 20.9569H11.6879V23.2266H11.9813V20.9569Z" fill="url(#paint28_linear_0_5271)"/>
<path d="M2.29684 37.3109C2.17688 37.1915 2.034 37.0953 1.87158 37.0259C1.54673 36.8864 1.15247 36.8864 0.825597 37.0259C0.663847 37.0947 0.520968 37.1901 0.400329 37.3096C0.280365 37.4291 0.183315 37.5706 0.113898 37.7308C0.0438063 37.8917 0.00808715 38.0659 0.00808715 38.2488C0.00808715 38.4431 0.0566117 38.6433 0.150966 38.8443C0.243298 39.0412 0.349109 39.2248 0.465703 39.3903C0.58095 39.5559 0.697545 39.7014 0.813465 39.8242C0.92669 39.9444 1.00487 40.0258 1.04935 40.0699C1.13359 40.148 1.22256 40.2428 1.31422 40.3516C1.4052 40.4597 1.49214 40.5739 1.57234 40.69C1.65052 40.8035 1.71657 40.9156 1.76914 41.0244C1.81901 41.1272 1.84395 41.218 1.84395 41.2941C1.84395 41.3702 1.84125 41.471 1.83586 41.6025C1.83047 41.7294 1.81159 41.8569 1.7779 41.9803C1.74555 42.0992 1.6923 42.2046 1.62086 42.2934C1.55482 42.3749 1.46451 42.4142 1.34387 42.4142C1.22323 42.4142 1.13292 42.3749 1.06687 42.2934C0.995434 42.2046 0.942191 42.0992 0.909841 41.9803C0.876817 41.8582 0.857273 41.7307 0.851881 41.6025C0.847163 41.471 0.844467 41.3682 0.844467 41.2941V41.0672H0V41.2948C0 41.479 0.0357192 41.6539 0.105811 41.8155C0.175228 41.9763 0.271604 42.1192 0.392242 42.2387C0.512206 42.3582 0.655085 42.4543 0.817509 42.5237C0.979932 42.5931 1.15584 42.6285 1.3405 42.6285C1.52516 42.6285 1.70039 42.5931 1.86349 42.5237C2.02457 42.455 2.16812 42.3602 2.28876 42.24C2.40805 42.1212 2.5051 41.9797 2.57519 41.8188C2.64528 41.6579 2.681 41.4837 2.681 41.3008C2.681 41.1065 2.63315 40.9063 2.53879 40.7054C2.44714 40.5098 2.342 40.3262 2.2254 40.158C2.10814 39.9904 1.99154 39.8449 1.87899 39.7247C1.76577 39.6046 1.68826 39.5231 1.64378 39.4791C1.56021 39.401 1.47125 39.3062 1.38026 39.1974C1.28928 39.0893 1.20301 38.9751 1.12349 38.859C1.04531 38.7448 0.979258 38.632 0.927364 38.5238C0.878165 38.4204 0.853228 38.3296 0.853228 38.2542C0.853228 38.1787 0.855925 38.0773 0.861316 37.9451C0.866708 37.8183 0.885579 37.6914 0.919277 37.5679C0.952301 37.4485 1.00487 37.343 1.07631 37.2549C1.14236 37.1734 1.23267 37.134 1.3533 37.134C1.47394 37.134 1.56425 37.1734 1.6303 37.2549C1.70174 37.3436 1.75498 37.4491 1.78733 37.5679C1.82036 37.6901 1.8399 37.8169 1.84529 37.9451C1.85001 38.0773 1.85338 38.1801 1.85338 38.2542V38.4811H2.68976V38.2535C2.68976 38.0693 2.65404 37.8944 2.58395 37.7328C2.51386 37.5713 2.41748 37.4291 2.29752 37.3096L2.29684 37.3109Z" fill="white"/>
<path d="M4.36504 36.9045H3.52867V42.6126H4.36504V36.9045Z" fill="white"/>
<path d="M7.92853 36.9045L7.00184 39.1594L6.08391 36.9419L6.06841 36.9045H5.20372V42.6126H5.40456V37.4879L6.6561 40.5165L7.90898 37.4879V42.6126H8.74469V36.9045H7.92853Z" fill="white"/>
<path d="M11.8693 37.317C11.7494 37.1982 11.6065 37.1027 11.4441 37.0333C11.1192 36.8944 10.7229 36.8944 10.3981 37.0333C10.2363 37.102 10.0928 37.1982 9.9735 37.317C9.85354 37.4358 9.75649 37.5773 9.68707 37.7382C9.61698 37.8991 9.58126 38.0733 9.58126 38.2562V41.2855C9.58126 41.4684 9.61698 41.6426 9.68707 41.8035C9.75649 41.9637 9.85354 42.1059 9.9735 42.224C10.0928 42.3429 10.2363 42.439 10.3988 42.5084C10.5612 42.5778 10.7371 42.6132 10.9218 42.6132C11.1064 42.6132 11.2817 42.5778 11.4447 42.5084C11.6072 42.439 11.7501 42.3435 11.8693 42.2247C11.9893 42.1059 12.0864 41.9644 12.1558 41.8035C12.2259 41.6433 12.2616 41.4691 12.2616 41.2855V38.2562C12.2616 38.0733 12.2259 37.8991 12.1558 37.7382C12.0864 37.578 11.9893 37.4358 11.8693 37.317ZM11.4252 41.2855C11.4252 41.3596 11.4218 41.4624 11.4171 41.5946C11.4117 41.7221 11.3922 41.8489 11.3585 41.9717C11.3255 42.0905 11.2729 42.196 11.2001 42.2848C11.1334 42.3662 11.0417 42.4063 10.9204 42.4063C10.7991 42.4063 10.7074 42.3669 10.6414 42.2848C10.5693 42.196 10.5154 42.0905 10.483 41.9717C10.4493 41.8482 10.4298 41.7214 10.4244 41.5946C10.4197 41.4624 10.417 41.3596 10.417 41.2855V38.2562C10.417 38.1821 10.4197 38.0793 10.4244 37.9471C10.4298 37.8196 10.4493 37.6928 10.483 37.57C10.516 37.4512 10.5693 37.3457 10.6414 37.2569C10.7074 37.1755 10.7984 37.1361 10.9204 37.1361C11.0424 37.1361 11.1341 37.1755 11.2001 37.2569C11.2722 37.3457 11.3255 37.4512 11.3585 37.57C11.3922 37.6935 11.4117 37.8203 11.4171 37.9471C11.4218 38.0793 11.4252 38.1821 11.4252 38.2562V41.2855Z" fill="white"/>
<path d="M15.6928 40.594L13.9796 36.9392L13.9634 36.9045H13.1001V42.6126H13.3009V37.4559L15.6988 42.5779L15.7143 42.6126H15.8929V36.9045H15.6928V40.594Z" fill="white"/>
<path d="M18.7458 36.9045H18.088L16.7482 42.5392L16.7313 42.6119H16.9349L17.3931 40.6827H18.7714L19.2304 42.6119H20.0937L18.8442 37.3164L18.7451 36.9045H18.7458ZM17.4376 40.4845L18.0792 37.773L18.7276 40.4845H17.4376Z" fill="white"/>
<path d="M23.6807 39.6554H22.6091V36.9045H21.7728V42.6126H22.6091V39.8617H23.6807V42.6126H24.5164V36.9045H23.6807V39.6554Z" fill="white"/>
<path d="M25.3562 42.6043H27.3194V42.4054H26.1926V39.758H26.9413V39.559H26.1926V37.1185H27.3194V36.9203H25.3562V42.6043Z" fill="white"/>
<path d="M28.9952 36.9045H28.1588V42.6126H28.9952V36.9045Z" fill="white"/>
<path d="M32.1162 37.3081C31.9962 37.1893 31.854 37.0932 31.6923 37.0244C31.3681 36.8856 30.9731 36.8856 30.6496 37.0244C30.4879 37.0932 30.345 37.1893 30.2257 37.3081C30.1064 37.4269 30.0101 37.5685 29.9406 37.7293C29.8706 37.8902 29.8348 38.0644 29.8348 38.2473V41.2766C29.8348 41.4595 29.8706 41.6337 29.9406 41.7946C30.0101 41.9548 30.1064 42.097 30.2257 42.2158C30.345 42.3347 30.4879 42.4301 30.6496 42.4995C30.8114 42.569 30.9866 42.6043 31.1706 42.6043C31.3546 42.6043 31.5298 42.569 31.6916 42.4995C31.8533 42.4301 31.9955 42.3347 32.1155 42.2158C32.2348 42.097 32.3305 41.9555 32.4006 41.7946C32.4707 41.6337 32.5064 41.4602 32.5064 41.2766V39.7106H31.356V39.9088H31.67V41.2686C31.67 41.3427 31.6673 41.4455 31.6619 41.577C31.6565 41.7032 31.6377 41.8307 31.604 41.9542C31.5716 42.073 31.5184 42.1785 31.4469 42.2679C31.3809 42.3493 31.2906 42.3887 31.1699 42.3887C31.0493 42.3887 30.959 42.3493 30.8929 42.2679C30.8215 42.1791 30.7683 42.0737 30.7359 41.9542C30.7029 41.832 30.6833 41.7045 30.678 41.577C30.6732 41.4455 30.6705 41.3427 30.6705 41.2686V38.2387C30.6705 38.1646 30.6732 38.0618 30.678 37.9303C30.6833 37.8014 30.7029 37.6746 30.7359 37.5531C30.7683 37.4343 30.8215 37.3288 30.8929 37.2394C30.959 37.1579 31.05 37.1185 31.1699 37.1185C31.2899 37.1185 31.3809 37.1579 31.4469 37.2394C31.5184 37.3281 31.5716 37.4336 31.604 37.5531C31.6377 37.6766 31.6572 37.8034 31.6619 37.9303C31.6673 38.0624 31.67 38.1646 31.67 38.2387V38.4643L32.5064 38.4736V38.2467C32.5064 38.0638 32.4707 37.8902 32.4006 37.7287C32.3312 37.5685 32.2355 37.4263 32.1155 37.3081H32.1162Z" fill="white"/>
<path d="M35.2532 39.6554H34.1816V36.9045H33.3452V42.6126H34.1816V39.8617H35.2532V42.6126H36.0896V36.9045H35.2532V39.6554Z" fill="white"/>
<path d="M36.9287 37.1185H37.7819V42.6123H38.6183V37.1185H39.4715V36.9203H36.9287V37.1185Z" fill="white"/>
<path d="M42.9988 38.4828V38.2552C42.9988 38.0709 42.963 37.896 42.8929 37.7351C42.8235 37.5736 42.7272 37.4307 42.6065 37.3119C42.4865 37.1918 42.3437 37.0963 42.1812 37.0269C41.8557 36.8874 41.4601 36.8874 41.1353 37.0269C40.9735 37.0956 40.83 37.1918 40.7107 37.3106C40.5907 37.4294 40.4937 37.5709 40.4242 37.7318C40.3541 37.8927 40.3184 38.0669 40.3184 38.2498C40.3184 38.4441 40.367 38.6443 40.4613 38.8446C40.5536 39.0415 40.6595 39.2251 40.776 39.3913C40.892 39.5568 41.0086 39.703 41.1238 39.8245C41.237 39.9447 41.3152 40.0268 41.3597 40.0708C41.4433 40.1489 41.5322 40.2437 41.6246 40.3525C41.7176 40.4634 41.8045 40.5775 41.8827 40.6917C41.9609 40.8051 42.0269 40.9173 42.0795 41.0261C42.1294 41.1289 42.1543 41.2197 42.1543 41.2958C42.1543 41.3719 42.1516 41.4727 42.1462 41.6042C42.1408 41.7303 42.1219 41.8578 42.0882 41.9813C42.0559 42.1002 42.0027 42.2056 41.9312 42.2951C41.8652 42.3765 41.7748 42.4159 41.6542 42.4159C41.5336 42.4159 41.4433 42.3765 41.3772 42.2951C41.3058 42.2063 41.2525 42.1008 41.2202 41.9813C41.1872 41.8592 41.1676 41.7317 41.1622 41.6042C41.1575 41.4727 41.1548 41.3699 41.1548 41.2958V41.0688H40.3103V41.2964C40.3103 41.48 40.3461 41.6549 40.4162 41.8165C40.4856 41.978 40.5819 42.1208 40.7026 42.2397C40.8239 42.3598 40.9668 42.4559 41.1279 42.5247C41.2896 42.5948 41.4655 42.6302 41.6508 42.6302C41.8362 42.6302 42.0107 42.5948 42.1738 42.5254C42.3356 42.456 42.4785 42.3605 42.5991 42.2417C42.7191 42.1229 42.8154 41.9813 42.8855 41.8205C42.9556 41.6596 42.9913 41.486 42.9913 41.3024C42.9913 41.1082 42.9435 40.9079 42.8491 40.7077C42.7575 40.5121 42.6523 40.3285 42.5357 40.1603C42.4185 39.9927 42.3019 39.8472 42.1893 39.7271C42.0761 39.6069 41.9986 39.5255 41.9541 39.4807C41.8719 39.4046 41.7836 39.3099 41.6906 39.199C41.5983 39.0889 41.512 38.9748 41.4338 38.8606C41.3557 38.7465 41.2896 38.6336 41.2377 38.5255C41.1885 38.422 41.1636 38.3313 41.1636 38.2558C41.1636 38.1804 41.1663 38.0789 41.1717 37.9468C41.1771 37.8199 41.1959 37.6931 41.2296 37.5696C41.262 37.4508 41.3152 37.3446 41.3867 37.2559C41.4527 37.1744 41.543 37.135 41.6636 37.135C41.7843 37.135 41.8746 37.1744 41.9406 37.2559C42.0121 37.3453 42.0653 37.4508 42.0977 37.5696C42.1307 37.6918 42.1502 37.8186 42.1556 37.9468C42.1604 38.0789 42.1637 38.1817 42.1637 38.2558V38.4828H43.0001H42.9988Z" fill="white"/>
<defs>
<linearGradient id="paint0_linear_0_5271" x1="12.6521" y1="9.91177" x2="11.032" y2="11.5467" gradientUnits="userSpaceOnUse">
<stop stop-color="#DCBD8D"/>
<stop offset="0.58" stop-color="#AC854F"/>
</linearGradient>
<linearGradient id="paint1_linear_0_5271" x1="14.2534" y1="9.38971" x2="11.5888" y2="12.08" gradientUnits="userSpaceOnUse">
<stop stop-color="#DCBD8D"/>
<stop offset="0.58" stop-color="#AC854F"/>
</linearGradient>
<linearGradient id="paint2_linear_0_5271" x1="15.8555" y1="8.86698" x2="12.1448" y2="12.6127" gradientUnits="userSpaceOnUse">
<stop stop-color="#DCBD8D"/>
<stop offset="0.58" stop-color="#AC854F"/>
</linearGradient>
<linearGradient id="paint3_linear_0_5271" x1="17.4561" y1="8.34559" x2="12.7022" y2="13.1453" gradientUnits="userSpaceOnUse">
<stop stop-color="#DCBD8D"/>
<stop offset="0.58" stop-color="#AC854F"/>
</linearGradient>
<linearGradient id="paint4_linear_0_5271" x1="19.0565" y1="7.82352" x2="13.2592" y2="13.6772" gradientUnits="userSpaceOnUse">
<stop stop-color="#DCBD8D"/>
<stop offset="0.58" stop-color="#AC854F"/>
</linearGradient>
<linearGradient id="paint5_linear_0_5271" x1="23.4896" y1="10.1048" x2="11.0386" y2="22.6755" gradientUnits="userSpaceOnUse">
<stop stop-color="#DCBD8D"/>
<stop offset="0.58" stop-color="#AC854F"/>
</linearGradient>
<linearGradient id="paint6_linear_0_5271" x1="25.1006" y1="9.59074" x2="11.5856" y2="23.2357" gradientUnits="userSpaceOnUse">
<stop stop-color="#DCBD8D"/>
<stop offset="0.58" stop-color="#AC854F"/>
</linearGradient>
<linearGradient id="paint7_linear_0_5271" x1="26.7119" y1="9.07904" x2="12.1336" y2="23.7975" gradientUnits="userSpaceOnUse">
<stop stop-color="#DCBD8D"/>
<stop offset="0.58" stop-color="#AC854F"/>
</linearGradient>
<linearGradient id="paint8_linear_0_5271" x1="28.3223" y1="8.56699" x2="12.6807" y2="24.3584" gradientUnits="userSpaceOnUse">
<stop stop-color="#DCBD8D"/>
<stop offset="0.58" stop-color="#AC854F"/>
</linearGradient>
<linearGradient id="paint9_linear_0_5271" x1="29.9393" y1="8.04713" x2="13.221" y2="24.9262" gradientUnits="userSpaceOnUse">
<stop stop-color="#DCBD8D"/>
<stop offset="0.58" stop-color="#AC854F"/>
</linearGradient>
<linearGradient id="paint10_linear_0_5271" x1="30.4704" y1="8.60437" x2="14.8288" y2="24.3965" gradientUnits="userSpaceOnUse">
<stop stop-color="#DCBD8D"/>
<stop offset="0.58" stop-color="#AC854F"/>
</linearGradient>
<linearGradient id="paint11_linear_0_5271" x1="31.0075" y1="9.1558" x2="16.4292" y2="23.8736" gradientUnits="userSpaceOnUse">
<stop stop-color="#DCBD8D"/>
<stop offset="0.58" stop-color="#AC854F"/>
</linearGradient>
<linearGradient id="paint12_linear_0_5271" x1="31.5443" y1="9.70822" x2="18.0294" y2="23.3525" gradientUnits="userSpaceOnUse">
<stop stop-color="#DCBD8D"/>
<stop offset="0.58" stop-color="#AC854F"/>
</linearGradient>
<linearGradient id="paint13_linear_0_5271" x1="32.0814" y1="10.2583" x2="19.6311" y2="22.8283" gradientUnits="userSpaceOnUse">
<stop stop-color="#DCBD8D"/>
<stop offset="0.58" stop-color="#AC854F"/>
</linearGradient>
<linearGradient id="paint14_linear_0_5271" x1="29.698" y1="7.91898" x2="24.0903" y2="13.5754" gradientUnits="userSpaceOnUse">
<stop stop-color="#DCBD8D"/>
<stop offset="0.58" stop-color="#AC854F"/>
</linearGradient>
<linearGradient id="paint15_linear_0_5271" x1="30.2275" y1="8.46107" x2="25.7038" y2="13.0283" gradientUnits="userSpaceOnUse">
<stop stop-color="#DCBD8D"/>
<stop offset="0.58" stop-color="#AC854F"/>
</linearGradient>
<linearGradient id="paint16_linear_0_5271" x1="30.7541" y1="9.00182" x2="27.3144" y2="12.4753" gradientUnits="userSpaceOnUse">
<stop stop-color="#DCBD8D"/>
<stop offset="0.58" stop-color="#AC854F"/>
</linearGradient>
<linearGradient id="paint17_linear_0_5271" x1="31.2818" y1="9.54324" x2="28.9242" y2="11.9235" gradientUnits="userSpaceOnUse">
<stop stop-color="#DCBD8D"/>
<stop offset="0.58" stop-color="#AC854F"/>
</linearGradient>
<linearGradient id="paint18_linear_0_5271" x1="31.8118" y1="10.0813" x2="30.5323" y2="11.375" gradientUnits="userSpaceOnUse">
<stop stop-color="#DCBD8D"/>
<stop offset="0.58" stop-color="#AC854F"/>
</linearGradient>
<linearGradient id="paint19_linear_0_5271" x1="31.9833" y1="21.282" x2="30.3632" y2="22.917" gradientUnits="userSpaceOnUse">
<stop stop-color="#DCBD8D"/>
<stop offset="0.58" stop-color="#AC854F"/>
</linearGradient>
<linearGradient id="paint20_linear_0_5271" x1="31.4366" y1="20.7593" x2="28.7719" y2="23.4503" gradientUnits="userSpaceOnUse">
<stop stop-color="#DCBD8D"/>
<stop offset="0.58" stop-color="#AC854F"/>
</linearGradient>
<linearGradient id="paint21_linear_0_5271" x1="30.8905" y1="20.2372" x2="27.1799" y2="23.9829" gradientUnits="userSpaceOnUse">
<stop stop-color="#DCBD8D"/>
<stop offset="0.58" stop-color="#AC854F"/>
</linearGradient>
<linearGradient id="paint22_linear_0_5271" x1="30.3436" y1="19.7152" x2="25.5896" y2="24.5149" gradientUnits="userSpaceOnUse">
<stop stop-color="#DCBD8D"/>
<stop offset="0.58" stop-color="#AC854F"/>
</linearGradient>
<linearGradient id="paint23_linear_0_5271" x1="29.7964" y1="19.1918" x2="23.9991" y2="25.0455" gradientUnits="userSpaceOnUse">
<stop stop-color="#DCBD8D"/>
<stop offset="0.58" stop-color="#AC854F"/>
</linearGradient>
<linearGradient id="paint24_linear_0_5271" x1="18.9586" y1="19.2873" x2="13.3509" y2="24.9444" gradientUnits="userSpaceOnUse">
<stop stop-color="#DCBD8D"/>
<stop offset="0.58" stop-color="#AC854F"/>
</linearGradient>
<linearGradient id="paint25_linear_0_5271" x1="17.3395" y1="19.8307" x2="12.8159" y2="24.3979" gradientUnits="userSpaceOnUse">
<stop stop-color="#DCBD8D"/>
<stop offset="0.58" stop-color="#AC854F"/>
</linearGradient>
<linearGradient id="paint26_linear_0_5271" x1="15.719" y1="20.3721" x2="12.2793" y2="23.8455" gradientUnits="userSpaceOnUse">
<stop stop-color="#DCBD8D"/>
<stop offset="0.58" stop-color="#AC854F"/>
</linearGradient>
<linearGradient id="paint27_linear_0_5271" x1="14.0982" y1="20.9128" x2="11.7406" y2="23.2938" gradientUnits="userSpaceOnUse">
<stop stop-color="#DCBD8D"/>
<stop offset="0.58" stop-color="#AC854F"/>
</linearGradient>
<linearGradient id="paint28_linear_0_5271" x1="12.4811" y1="21.4516" x2="11.2009" y2="22.7452" gradientUnits="userSpaceOnUse">
<stop stop-color="#DCBD8D"/>
<stop offset="0.58" stop-color="#AC854F"/>
</linearGradient>
</defs>
</svg>
