<svg width="75" height="39" viewBox="0 0 75 39" fill="none" xmlns="http://www.w3.org/2000/svg">
<path d="M2.96943 27.1731H4.05804C4.05804 27.1731 3.76169 27.33 3.61701 27.7531L2.62496 30.7898C2.48717 31.2129 2.69375 31.4312 2.69375 31.4312H2.41134C1.94974 31.4312 1.55017 31.1446 1.40549 30.7147L0.434129 27.7531C0.296338 27.33 0 27.1731 0 27.1731H1.28843C1.28843 27.1731 1.09546 27.33 1.23326 27.7531L2.12893 30.469L3.01771 27.7531C3.16239 27.33 2.96254 27.1731 2.96254 27.1731" fill="white"/>
<path d="M5.37415 27.7521V30.7888C5.37415 31.2119 5.61535 31.3756 5.61535 31.3756H4.32003C4.32003 31.3756 4.56123 31.2187 4.56123 30.7888V27.7521C4.56123 27.3291 4.32003 27.1721 4.32003 27.1721H5.61535C5.61535 27.1721 5.37415 27.3291 5.37415 27.7521Z" fill="white"/>
<path d="M9.94854 27.173C9.94854 27.173 9.7075 27.33 9.7075 27.7531V31.4312H9.56975C9.06681 31.4312 8.59832 31.1582 8.36408 30.7146L6.88272 28.142V30.7829C6.88272 31.206 7.12392 31.3629 7.12392 31.3629H6.09739C6.09739 31.3629 6.33842 31.206 6.33842 30.7829V27.7463C6.33842 27.3232 6.09739 27.1662 6.09739 27.1662H7.29616L9.1632 30.4485V27.7463C9.1632 27.3232 8.922 27.1662 8.922 27.1662H9.94854V27.173Z" fill="white"/>
<path d="M13.8824 27.7521V30.7888C13.8824 31.2119 14.1234 31.3756 14.1234 31.3756H12.8283C12.8283 31.3756 13.0693 31.2187 13.0693 30.7888V29.4923H11.4641V30.7888C11.4641 31.2119 11.7052 31.3756 11.7052 31.3756H10.4169C10.4169 31.3756 10.658 31.2187 10.658 30.7888V27.7521C10.658 27.3291 10.4169 27.1721 10.4169 27.1721H11.7052C11.7052 27.1721 11.4641 27.3291 11.4641 27.7521V29.0487H13.0693V27.7521C13.0693 27.3291 12.8283 27.1721 12.8283 27.1721H14.1234C14.1234 27.1721 13.8824 27.3291 13.8824 27.7521Z" fill="white"/>
<path d="M18.7121 29.2676C18.7121 30.7825 17.6925 31.4308 16.659 31.4308C15.6256 31.4308 14.606 30.7825 14.606 29.2676C14.606 27.7527 15.6256 27.1113 16.659 27.1113C17.6925 27.1113 18.7121 27.7527 18.7121 29.2676ZM15.4191 29.3837C15.5224 30.5164 16.1287 31.0419 16.8039 30.9804C17.479 30.919 17.9887 30.298 17.8854 29.1653C17.7821 28.0325 17.1827 27.5071 16.5006 27.5685C15.8185 27.6299 15.3157 28.2441 15.4191 29.3837Z" fill="white"/>
<path d="M23.2867 30.7896L23.0731 28.3808L21.826 31.3697C21.5505 31.3697 21.3094 31.2127 21.1992 30.9602L20.1174 28.3399L19.904 30.7828C19.8696 31.2059 20.0968 31.3628 20.0968 31.3628H19.0702C19.0702 31.3628 19.3321 31.2059 19.3666 30.7828L19.6352 27.7462C19.6697 27.3231 19.4354 27.1593 19.4354 27.1593H20.4412L21.7366 30.3051L22.8183 27.6984C22.894 27.5278 22.9215 27.3367 22.9009 27.1525H24.017C24.017 27.1525 23.7828 27.3095 23.8241 27.7394L24.0927 30.776C24.1272 31.1991 24.3822 31.356 24.3822 31.356H23.0869C23.0869 31.356 23.3143 31.1991 23.2798 30.776" fill="white"/>
<path d="M26.7172 30.9262C27.3786 30.9262 27.723 30.6464 27.723 30.6464L27.5922 31.3698H24.7467C24.7467 31.3698 24.9879 31.2128 24.9879 30.7897V27.7531C24.9879 27.33 24.7467 27.1662 24.7467 27.1662H27.5301V27.8691C27.5301 27.8691 27.2476 27.6166 26.6344 27.6166H25.7939V28.9473H27.2891L27.1925 29.5614C27.1925 29.5614 26.9722 29.3976 26.4555 29.3976H25.7939V30.9262H26.7172Z" fill="white"/>
<path d="M31.2097 30.2922C31.2097 31.0156 30.5828 31.4387 29.5149 31.4387C28.7777 31.4387 28.261 31.2476 28.261 31.2476L28.2058 30.3878C28.2058 30.3878 28.7363 30.9746 29.5837 30.9746C30.0315 30.9746 30.4037 30.7767 30.4037 30.4014C30.4037 29.5007 28.1989 29.4324 28.1989 28.1564C28.1989 27.4944 28.8122 27.1191 29.6733 27.1191C30.4036 27.1191 30.9616 27.3102 30.9616 27.3102V28.1291C30.9616 28.1291 30.4724 27.5695 29.7421 27.5695C29.315 27.5695 28.9982 27.7674 28.9982 28.0745C28.9982 28.8729 31.2028 28.8865 31.2028 30.2991" fill="white"/>
<path d="M37.2795 29.2676C37.2795 30.7825 36.2599 31.4308 35.2264 31.4308C34.193 31.4308 33.1734 30.7825 33.1734 29.2676C33.1734 27.7527 34.193 27.1113 35.2264 27.1113C36.2599 27.1113 37.2795 27.7527 37.2795 29.2676ZM33.9932 29.3837C34.0965 30.5164 34.7028 31.0419 35.378 30.9804C36.0531 30.919 36.5629 30.298 36.4595 29.1653C36.3562 28.0325 35.7568 27.5071 35.0747 27.5685C34.3926 27.6299 33.8898 28.2441 33.9932 29.3837Z" fill="white"/>
<path d="M41.3029 30.4356L41.2548 31.2476C41.2548 31.2476 40.6621 31.4387 39.9181 31.4387C38.926 31.4387 37.7617 30.8382 37.7617 29.2755C37.7617 27.7128 38.8985 27.1191 39.8079 27.1191C40.5657 27.1191 40.9722 27.3102 40.9722 27.3102V28.1291C40.9722 28.1291 40.5658 27.5695 39.8631 27.5695C39.2568 27.5695 38.6022 27.9994 38.6022 29.2823C38.6022 30.5652 39.2636 30.9951 39.9112 30.9951C40.8068 30.9951 41.296 30.4424 41.296 30.4424" fill="white"/>
<path d="M43.7484 30.9262C44.4098 30.9262 44.7542 30.6464 44.7542 30.6464L44.6234 31.3698H41.7781C41.7781 31.3698 42.0191 31.2128 42.0191 30.7897V27.7531C42.0191 27.33 41.7781 27.1662 41.7781 27.1662H44.5613V27.8691C44.5613 27.8691 44.279 27.6166 43.6658 27.6166H42.8251V28.9473H44.3203L44.2237 29.5614C44.2237 29.5614 44.0034 29.3976 43.4867 29.3976H42.8251V30.9262H43.7484Z" fill="white"/>
<path d="M47.8409 30.7888L47.6549 30.2088H46.2358L46.0566 30.7888C45.9119 31.2119 46.1047 31.3756 46.1047 31.3756H45.0782C45.0782 31.3756 45.3745 31.2187 45.5192 30.7888L46.5113 27.7521C46.6491 27.3291 46.4561 27.1721 46.4561 27.1721H46.959C47.2415 27.1721 47.5034 27.3564 47.593 27.6293L48.6333 30.7956C48.7711 31.2187 49.0673 31.3825 49.0673 31.3825H47.7721C47.7721 31.3825 47.9649 31.2255 47.8271 30.7956M47.5378 29.8198L46.9523 27.9432L46.3666 29.8198H47.5378Z" fill="white"/>
<path d="M53.1939 27.173C53.1939 27.173 52.9529 27.33 52.9529 27.7531V31.4312H52.815C52.312 31.4312 51.8436 31.1582 51.6093 30.7146L50.1281 28.142V30.7829C50.1281 31.206 50.3693 31.3629 50.3693 31.3629H49.3428C49.3428 31.3629 49.5838 31.206 49.5838 30.7829V27.7463C49.5838 27.3232 49.3428 27.1662 49.3428 27.1662H50.5416L52.4086 30.4485V27.7463C52.4086 27.3232 52.1674 27.1662 52.1674 27.1662H53.1939V27.173Z" fill="white"/>
<path d="M58.3547 28.4823C58.3547 29.2125 57.7554 29.8061 57.0182 29.8061H56.2122V30.7888C56.2122 31.2119 56.4532 31.3688 56.4532 31.3688H55.165C55.165 31.3688 55.406 31.2119 55.406 30.7888V27.7521C55.406 27.3291 55.165 27.1721 55.165 27.1721H57.0251C57.7554 27.1721 58.3616 27.759 58.3616 28.4891M56.6599 27.6157H56.2053V29.3694H56.6599C57.1491 29.3694 57.5487 28.9736 57.5487 28.4891C57.5487 28.0046 57.1491 27.6157 56.6599 27.6157Z" fill="white"/>
<path d="M61.0203 30.7888L60.8342 30.2088H59.415L59.2358 30.7888C59.0911 31.2119 59.2841 31.3756 59.2841 31.3756H58.2576C58.2576 31.3756 58.5537 31.2187 58.6984 30.7888L59.6906 27.7521C59.8284 27.3291 59.6355 27.1721 59.6355 27.1721H60.1384C60.4209 27.1721 60.6826 27.3564 60.7722 27.6293L61.8125 30.7956C61.9503 31.2187 62.2466 31.3825 62.2466 31.3825H60.9513C60.9513 31.3825 61.1443 31.2255 61.0065 30.7956M60.7172 29.8198L60.1315 27.9432L59.5458 29.8198H60.7172Z" fill="white"/>
<path d="M66.2081 31.3756C66.2081 31.3756 65.9739 31.4507 65.5261 31.4507C65.0783 31.4507 64.8921 31.2528 64.7199 30.9389L64.0309 29.6629L63.5763 29.7516V30.7956C63.5763 31.2187 63.8175 31.3756 63.8175 31.3756H62.5222C62.5222 31.3756 62.7634 31.2187 62.7634 30.7956V27.759C62.7634 27.3359 62.5222 27.1721 62.5222 27.1721H64.5339C65.1815 27.1721 65.7121 27.6976 65.7121 28.339C65.7121 29.0623 65.0782 29.3626 64.8302 29.4513L65.6225 30.7956C65.8705 31.2187 66.2012 31.3756 66.2012 31.3756M63.5763 27.6157V29.3626L64.1963 29.2398C64.6165 29.1374 64.9128 28.7689 64.9128 28.339C64.9128 27.9432 64.589 27.6225 64.1894 27.6225H63.5763V27.6157Z" fill="white"/>
<path d="M70.2384 31.3765L69.4806 31.4038C69.1981 31.4175 68.9225 31.281 68.7641 31.0422L67.5308 29.3294V30.7828C67.5308 31.2059 67.772 31.3697 67.772 31.3697H66.4767C66.4767 31.3697 66.7248 31.2059 66.7248 30.7828V27.753C66.7248 27.33 66.4767 27.1662 66.4767 27.1662H67.772C67.772 27.1662 67.5308 27.33 67.5308 27.753V29.2816L68.6813 27.7462C69.0051 27.3231 68.8811 27.1594 68.8811 27.1594H70.0318C70.0318 27.1594 69.6803 27.3231 69.3496 27.7462L68.3025 29.0291L69.5839 30.7828C69.9008 31.2128 70.2522 31.3697 70.2522 31.3697" fill="white"/>
<path d="M74.8133 28.0323C74.8133 29.1173 73.0357 29.7519 73.0357 30.912H73.6145C74.6135 30.912 74.9993 30.523 74.9993 30.523L74.7581 31.3624H72.2297V31.0621C72.2297 29.6155 74.0071 29.0013 74.0071 28.046C74.0071 27.7389 73.7867 27.541 73.4216 27.541C72.7671 27.541 72.3744 28.0323 72.3744 28.0323L72.4983 27.2749C72.4983 27.2749 72.96 27.0838 73.6214 27.0838C74.331 27.0838 74.8133 27.3636 74.8133 28.0323Z" fill="white"/>
<mask id="mask0_0_784" style="mask-type:luminance" maskUnits="userSpaceOnUse" x="0" y="27" width="5" height="5">
<path d="M2.96941 27.1731C2.96941 27.1731 3.16237 27.33 3.02458 27.7531L2.1358 30.469L1.24012 27.7531C1.10233 27.33 1.29529 27.1731 1.29529 27.1731H0.00686809C0.00686809 27.1731 0.303206 27.33 0.440997 27.7531L1.41236 30.7147C1.55704 31.1446 1.9635 31.4312 2.41821 31.4312H2.70062C2.70062 31.4312 2.49403 31.2129 2.63182 30.7898L3.62388 27.7531C3.76856 27.33 4.0649 27.1731 4.0649 27.1731H2.9763H2.96941Z" fill="white"/>
</mask>
<g mask="url(#mask0_0_784)">
<path d="M4.05801 27.1731H0.00686809V31.438H4.05801V27.1731Z" fill="white"/>
</g>
<mask id="mask1_0_784" style="mask-type:luminance" maskUnits="userSpaceOnUse" x="4" y="27" width="2" height="5">
<path d="M4.32689 27.1731C4.32689 27.1731 4.5681 27.33 4.5681 27.7531V30.7898C4.5681 31.2129 4.32689 31.3698 4.32689 31.3698H5.61532C5.61532 31.3698 5.37412 31.2129 5.37412 30.7898V27.7531C5.37412 27.33 5.61532 27.1731 5.61532 27.1731H4.32689Z" fill="white"/>
</mask>
<g mask="url(#mask1_0_784)">
<path d="M5.61532 27.1731H4.32689V31.3766H5.61532V27.1731Z" fill="white"/>
</g>
<mask id="mask2_0_784" style="mask-type:luminance" maskUnits="userSpaceOnUse" x="6" y="27" width="4" height="5">
<path d="M8.922 27.1731C8.922 27.1731 9.1632 27.33 9.1632 27.7531V30.4554L7.29616 27.1731H6.09739C6.09739 27.1731 6.33842 27.33 6.33842 27.7531V30.7898C6.33842 31.2129 6.09739 31.3698 6.09739 31.3698H7.12392C7.12392 31.3698 6.88272 31.2129 6.88272 30.7898V28.1489L8.36408 30.7215C8.60521 31.1651 9.06682 31.438 9.57664 31.438H9.7144V27.76C9.7144 27.3369 9.95543 27.1799 9.95543 27.1799H8.9289L8.922 27.1731Z" fill="white"/>
</mask>
<g mask="url(#mask2_0_784)">
<path d="M9.94854 27.1731H6.09739V31.438H9.94854V27.1731Z" fill="white"/>
</g>
<mask id="mask3_0_784" style="mask-type:luminance" maskUnits="userSpaceOnUse" x="10" y="27" width="5" height="5">
<path d="M12.8346 27.1731C12.8346 27.1731 13.0757 27.33 13.0757 27.7531V29.0497H11.4705V27.7531C11.4705 27.33 11.7185 27.1731 11.7185 27.1731H10.4233C10.4233 27.1731 10.6643 27.33 10.6643 27.7531V30.7898C10.6643 31.2129 10.4233 31.3698 10.4233 31.3698H11.7185C11.7185 31.3698 11.4705 31.2129 11.4705 30.7898V29.4932H13.0757V30.7898C13.0757 31.2129 12.8346 31.3698 12.8346 31.3698H14.1229C14.1229 31.3698 13.8819 31.2129 13.8819 30.7898V27.7531C13.8819 27.33 14.1229 27.1731 14.1229 27.1731H12.8346Z" fill="white"/>
</mask>
<g mask="url(#mask3_0_784)">
<path d="M14.1229 27.1731H10.4233V31.3766H14.1229V27.1731Z" fill="white"/>
</g>
<mask id="mask4_0_784" style="mask-type:luminance" maskUnits="userSpaceOnUse" x="14" y="27" width="5" height="5">
<path d="M15.4191 29.3837C15.3157 28.2441 15.8254 27.6231 16.5006 27.5685C17.1827 27.5071 17.7889 28.0325 17.8854 29.1653C17.9887 30.298 17.479 30.919 16.8039 30.9804C16.7694 30.9804 16.7349 30.9804 16.7004 30.9804C16.0666 30.9804 15.5155 30.455 15.4191 29.3768M14.606 29.2676C14.606 30.7825 15.6256 31.4308 16.659 31.4308C17.6925 31.4308 18.7121 30.7825 18.7121 29.2676C18.7121 27.7527 17.6925 27.1113 16.659 27.1113C15.6256 27.1113 14.606 27.7527 14.606 29.2676Z" fill="white"/>
</mask>
<g mask="url(#mask4_0_784)">
<path d="M18.7121 27.1113H14.606V31.4308H18.7121V27.1113Z" fill="white"/>
</g>
<mask id="mask5_0_784" style="mask-type:luminance" maskUnits="userSpaceOnUse" x="19" y="27" width="6" height="5">
<path d="M22.9077 27.1731C22.9284 27.3573 22.9078 27.5416 22.8252 27.719L21.7435 30.3258L20.4481 27.1799H19.4423C19.4423 27.1799 19.6766 27.3369 19.6352 27.76L19.3666 30.7966C19.3321 31.2197 19.0702 31.3766 19.0702 31.3766H20.0968C20.0968 31.3766 19.8696 31.2197 19.904 30.7966L20.1174 28.3536L21.1992 30.974C21.3094 31.2197 21.5505 31.3834 21.826 31.3834L23.0662 28.3946L23.2798 30.8034C23.3143 31.2265 23.0869 31.3834 23.0869 31.3834H24.3822C24.3822 31.3834 24.1272 31.2265 24.0927 30.8034L23.8241 27.7668C23.7828 27.3437 24.017 27.1868 24.017 27.1868H22.9009L22.9077 27.1731Z" fill="white"/>
</mask>
<g mask="url(#mask5_0_784)">
<path d="M24.3891 27.1731H19.0702V31.3766H24.3891V27.1731Z" fill="white"/>
</g>
<mask id="mask6_0_784" style="mask-type:luminance" maskUnits="userSpaceOnUse" x="24" y="27" width="4" height="5">
<path d="M24.7467 27.173C24.7467 27.173 24.9879 27.33 24.9879 27.7531V30.7897C24.9879 31.2128 24.7467 31.3698 24.7467 31.3698H27.5922L27.723 30.6464C27.723 30.6464 27.3786 30.9262 26.7172 30.9262H25.7939V29.3976H26.4555C26.9722 29.3976 27.1925 29.5614 27.1925 29.5614L27.2891 28.9473H25.7939V27.6166H26.6344C27.2476 27.6166 27.5301 27.8691 27.5301 27.8691V27.1662H24.7467V27.173Z" fill="white"/>
</mask>
<g mask="url(#mask6_0_784)">
<path d="M27.723 27.1741H24.7467V31.3776H27.723V27.1741Z" fill="white"/>
</g>
<mask id="mask7_0_784" style="mask-type:luminance" maskUnits="userSpaceOnUse" x="28" y="27" width="4" height="5">
<path d="M28.2058 28.1485C28.2058 29.4314 30.4106 29.4928 30.4106 30.3936C30.4106 30.7689 30.0384 30.9668 29.5906 30.9668C28.7363 30.9668 28.2127 30.3868 28.2127 30.3868L28.2678 31.2466C28.2678 31.2466 28.7846 31.4376 29.5218 31.4376C30.5965 31.4376 31.2166 31.0214 31.2166 30.2912C31.2166 28.8787 29.012 28.865 29.012 28.0666C29.012 27.7596 29.3288 27.5617 29.7559 27.5617C30.4862 27.5617 30.9754 28.1212 30.9754 28.1212V27.3024C30.9754 27.3024 30.4174 27.1113 29.6871 27.1113C28.8259 27.1113 28.2127 27.4866 28.2127 28.1485" fill="white"/>
</mask>
<g mask="url(#mask7_0_784)">
<path d="M31.2097 27.1113H28.2058V31.4308H31.2097V27.1113Z" fill="white"/>
</g>
<mask id="mask8_0_784" style="mask-type:luminance" maskUnits="userSpaceOnUse" x="33" y="27" width="5" height="5">
<path d="M33.9932 29.3837C33.8898 28.2441 34.3995 27.6231 35.0747 27.5685C35.7568 27.5071 36.3631 28.0325 36.4595 29.1653C36.5629 30.298 36.0531 30.919 35.378 30.9804C35.3435 30.9804 35.309 30.9804 35.2745 30.9804C34.6407 30.9804 34.0827 30.455 33.9932 29.3768M33.1734 29.2676C33.1734 30.7825 34.193 31.4308 35.2264 31.4308C36.2599 31.4308 37.2795 30.7825 37.2795 29.2676C37.2795 27.7527 36.2599 27.1113 35.2264 27.1113C34.193 27.1113 33.1734 27.7527 33.1734 29.2676Z" fill="white"/>
</mask>
<g mask="url(#mask8_0_784)">
<path d="M37.2795 27.1113H33.1734V31.4308H37.2795V27.1113Z" fill="white"/>
</g>
<mask id="mask9_0_784" style="mask-type:luminance" maskUnits="userSpaceOnUse" x="37" y="27" width="5" height="5">
<path d="M37.7612 29.2686C37.7612 30.8312 38.9255 31.4317 39.9176 31.4317C40.6685 31.4317 41.2543 31.2407 41.2543 31.2407L41.3024 30.4286C41.3024 30.4286 40.8063 30.9814 39.9176 30.9814C39.27 30.9814 38.6086 30.5037 38.6086 29.2686C38.6086 28.0334 39.2632 27.5558 39.8695 27.5558C40.5722 27.5558 40.9786 28.1153 40.9786 28.1153V27.2965C40.9786 27.2965 40.5653 27.1054 39.8143 27.1054C38.9049 27.1054 37.7681 27.7741 37.7681 29.2617" fill="white"/>
</mask>
<g mask="url(#mask9_0_784)">
<path d="M41.3024 27.1123H37.7612V31.4318H41.3024V27.1123Z" fill="white"/>
</g>
<mask id="mask10_0_784" style="mask-type:luminance" maskUnits="userSpaceOnUse" x="41" y="27" width="4" height="5">
<path d="M41.7786 27.173C41.7786 27.173 42.0196 27.33 42.0196 27.7531V30.7897C42.0196 31.2128 41.7786 31.3698 41.7786 31.3698H44.6239L44.7547 30.6464C44.7547 30.6464 44.4103 30.9262 43.7489 30.9262H42.8256V29.3976H43.4872C44.0039 29.3976 44.2242 29.5614 44.2242 29.5614L44.3208 28.9473H42.8256V27.6166H43.6663C44.2795 27.6166 44.5687 27.8691 44.5687 27.8691V27.1662H41.7855L41.7786 27.173Z" fill="white"/>
</mask>
<g mask="url(#mask10_0_784)">
<path d="M44.7547 27.1741H41.7786V31.3776H44.7547V27.1741Z" fill="white"/>
</g>
<mask id="mask11_0_784" style="mask-type:luminance" maskUnits="userSpaceOnUse" x="45" y="27" width="5" height="5">
<path d="M46.9449 27.9441L47.5304 29.8207H46.3592L46.9449 27.9441ZM46.4625 27.173C46.4625 27.173 46.6554 27.33 46.5177 27.7531L45.5256 30.7897C45.3809 31.2128 45.0846 31.3698 45.0846 31.3698H46.1111C46.1111 31.3698 45.9183 31.2128 46.063 30.7897L46.2421 30.2097H47.6613L47.8473 30.7897C47.9851 31.2128 47.7923 31.3698 47.7923 31.3698H49.0874C49.0874 31.3698 48.7913 31.2128 48.6535 30.7897L47.6132 27.6234C47.5236 27.3505 47.2686 27.1662 46.9861 27.1662H46.4763L46.4625 27.173Z" fill="white"/>
</mask>
<g mask="url(#mask11_0_784)">
<path d="M49.0805 27.1741H45.0846V31.3776H49.0805V27.1741Z" fill="white"/>
</g>
<mask id="mask12_0_784" style="mask-type:luminance" maskUnits="userSpaceOnUse" x="49" y="27" width="5" height="5">
<path d="M52.1743 27.1721C52.1743 27.1721 52.4224 27.3291 52.4224 27.7521V30.4544L50.5553 27.1721H49.3497C49.3497 27.1721 49.5907 27.3291 49.5907 27.7521V30.7888C49.5907 31.2119 49.3497 31.3688 49.3497 31.3688H50.3762C50.3762 31.3688 50.135 31.2119 50.135 30.7888V28.1479L51.6162 30.7205C51.8573 31.1641 52.3189 31.4371 52.8218 31.4371H52.9598V27.759C52.9598 27.3359 53.2008 27.1789 53.2008 27.1789H52.1743V27.1721Z" fill="white"/>
</mask>
<g mask="url(#mask12_0_784)">
<path d="M53.1939 27.1721H49.3428V31.4371H53.1939V27.1721Z" fill="white"/>
</g>
<mask id="mask13_0_784" style="mask-type:luminance" maskUnits="userSpaceOnUse" x="55" y="27" width="4" height="5">
<path d="M56.2122 27.6166H56.6668C57.156 27.6166 57.5556 28.0124 57.5556 28.4901C57.5556 28.9677 57.156 29.3703 56.6668 29.3703H56.2122V27.6166ZM55.165 27.173C55.165 27.173 55.406 27.33 55.406 27.7531V30.7897C55.406 31.2128 55.165 31.3698 55.165 31.3698H56.4532C56.4532 31.3698 56.2122 31.2128 56.2122 30.7897V29.8071H57.0182C57.7485 29.8071 58.3547 29.2202 58.3547 28.4832C58.3547 27.7463 57.7554 27.1662 57.0182 27.1662H55.165V27.173Z" fill="white"/>
</mask>
<g mask="url(#mask13_0_784)">
<path d="M58.3547 27.1741H55.165V31.3776H58.3547V27.1741Z" fill="white"/>
</g>
<mask id="mask14_0_784" style="mask-type:luminance" maskUnits="userSpaceOnUse" x="58" y="27" width="5" height="5">
<path d="M60.1251 27.9441L60.7107 29.8207H59.5394L60.1251 27.9441ZM59.6428 27.173C59.6428 27.173 59.8358 27.33 59.698 27.7531L58.7058 30.7897C58.5611 31.2128 58.2649 31.3698 58.2649 31.3698H59.2915C59.2915 31.3698 59.0985 31.2128 59.2432 30.7897L59.4223 30.2097H60.8416L61.0276 30.7897C61.1654 31.2128 60.9725 31.3698 60.9725 31.3698H62.2609C62.2609 31.3698 61.9646 31.2128 61.8268 30.7897L60.7864 27.6234C60.6969 27.3505 60.442 27.1662 60.1527 27.1662H59.6497L59.6428 27.173Z" fill="white"/>
</mask>
<g mask="url(#mask14_0_784)">
<path d="M62.2609 27.1731H58.2649V31.3766H62.2609V27.1731Z" fill="white"/>
</g>
<mask id="mask15_0_784" style="mask-type:luminance" maskUnits="userSpaceOnUse" x="62" y="27" width="5" height="5">
<path d="M63.5762 27.6166H64.1893C64.5889 27.6166 64.9128 27.9441 64.9128 28.3331C64.9128 28.763 64.6165 29.1383 64.1893 29.2339L63.5694 29.3567V27.6098L63.5762 27.6166ZM62.529 27.1662C62.529 27.1662 62.7702 27.33 62.7702 27.7531V30.7897C62.7702 31.2128 62.529 31.3698 62.529 31.3698H63.8175C63.8175 31.3698 63.5762 31.2128 63.5762 30.7897V29.7457L64.0309 29.6569L64.7199 30.933C64.8852 31.2537 65.092 31.4448 65.526 31.4448C65.9601 31.4448 66.2081 31.3698 66.2081 31.3698C66.2081 31.3698 65.8773 31.2128 65.6293 30.7897L64.8371 29.4454C65.0782 29.3567 65.719 29.0564 65.719 28.3331C65.719 27.6917 65.1883 27.1662 64.5407 27.1662H62.529Z" fill="white"/>
</mask>
<g mask="url(#mask15_0_784)">
<path d="M66.2081 27.1662H62.529V31.4516H66.2081V27.1662Z" fill="white"/>
</g>
<mask id="mask16_0_784" style="mask-type:luminance" maskUnits="userSpaceOnUse" x="66" y="27" width="5" height="5">
<path d="M68.8748 27.1662C68.8748 27.1662 68.9988 27.3232 68.6749 27.7531L67.5244 29.2884V27.7599C67.5244 27.3368 67.7656 27.173 67.7656 27.173H66.4703C66.4703 27.173 66.7184 27.3368 66.7184 27.7599V30.7897C66.7184 31.2128 66.4703 31.3766 66.4703 31.3766H67.7656C67.7656 31.3766 67.5244 31.2128 67.5244 30.7897V29.3362L68.7577 31.049C68.9162 31.2879 69.1918 31.4175 69.4811 31.4107L70.2389 31.3834C70.2389 31.3834 69.8875 31.2265 69.5706 30.7965L68.2893 29.0428L69.3365 27.7599C69.6672 27.3436 70.0185 27.173 70.0185 27.173H68.8679L68.8748 27.1662Z" fill="white"/>
</mask>
<g mask="url(#mask16_0_784)">
<path d="M70.2384 27.1662H66.4767V31.4175H70.2384V27.1662Z" fill="white"/>
</g>
<mask id="mask17_0_784" style="mask-type:luminance" maskUnits="userSpaceOnUse" x="72" y="27" width="4" height="5">
<path d="M72.4988 27.268L72.3748 28.0254C72.3748 28.0254 72.7675 27.5341 73.422 27.5341C73.7941 27.5341 74.0145 27.732 74.0145 28.0391C74.0145 28.9944 72.2371 29.6086 72.2371 31.0484V31.3487H74.7655L75.0067 30.5093C75.0067 30.5093 74.6209 30.8983 73.6219 30.8983H73.0431C73.0431 29.7451 74.8206 29.1036 74.8206 28.0186C74.8206 27.3499 74.3384 27.0701 73.6288 27.0701C72.9674 27.0701 72.5057 27.2611 72.5057 27.2611" fill="white"/>
</mask>
<g mask="url(#mask17_0_784)">
<path d="M74.9998 27.0838H72.2302V31.3624H74.9998V27.0838Z" fill="white"/>
</g>
<path d="M12.0564 35.3334L11.9669 35.8042C11.9669 35.8042 11.8773 35.6541 11.5673 35.6541H11.2297V37.9469C11.2297 38.254 11.4089 38.37 11.4089 38.37H10.4718C10.4718 38.37 10.6509 38.254 10.6509 37.9469V35.6541H10.2996C9.98953 35.6541 9.84491 35.8042 9.84491 35.8042L9.9344 35.3334H12.0564Z" fill="white"/>
<path d="M18.2292 35.7564V37.9469C18.2292 38.254 18.4083 38.37 18.4083 38.37H17.4715C17.4715 38.37 17.6506 38.254 17.6506 37.9469V37.012H16.4861V37.9469C16.4861 38.254 16.6653 38.37 16.6653 38.37H15.7353C15.7353 38.37 15.9144 38.254 15.9144 37.9469V35.7564C15.9144 35.4494 15.7353 35.3334 15.7353 35.3334H16.6653C16.6653 35.3334 16.4861 35.4494 16.4861 35.7564V36.6913H17.6506V35.7564C17.6506 35.4494 17.4715 35.3334 17.4715 35.3334H18.4083C18.4083 35.3334 18.2292 35.4494 18.2292 35.7564Z" fill="white"/>
<path d="M23.6106 38.0503C24.086 38.0503 24.334 37.8524 24.334 37.8524L24.2375 38.3779H22.1844C22.1844 38.3779 22.3635 38.2619 22.3635 37.9548V35.7643C22.3635 35.4572 22.1844 35.3412 22.1844 35.3412H24.1963V35.8462C24.1963 35.8462 23.9895 35.6619 23.5485 35.6619H22.9423V36.6241H24.024L23.9551 37.0677C23.9551 37.0677 23.7966 36.9517 23.4246 36.9517H22.9492V38.0571H23.6175L23.6106 38.0503Z" fill="white"/>
<path d="M34.0612 38.0503C34.5366 38.0503 34.7846 37.8524 34.7846 37.8524L34.6883 38.3779H32.6352C32.6352 38.3779 32.8143 38.2619 32.8143 37.9548V35.7643C32.8143 35.4572 32.6352 35.3412 32.6352 35.3412H34.6469V35.8462C34.6469 35.8462 34.4402 35.6619 33.9993 35.6619H33.3929V36.6241H34.4746L34.4057 37.0677C34.4057 37.0677 34.2472 36.9517 33.8752 36.9517H33.3998V38.0571H34.0681L34.0612 38.0503Z" fill="white"/>
<path d="M41.5304 37.9537L41.3789 36.2136L40.4832 38.37C40.2834 38.37 40.1112 38.254 40.0285 38.0766L39.243 36.1864L39.0915 37.9469C39.0639 38.254 39.2293 38.37 39.2293 38.37H38.4922C38.4922 38.37 38.685 38.254 38.7056 37.9469L38.8986 35.7564C38.9261 35.4494 38.7539 35.3334 38.7539 35.3334H39.4774L40.4142 37.6057L41.1997 35.7223C41.2549 35.5995 41.2756 35.463 41.2618 35.3334H42.0678C42.0678 35.3334 41.9025 35.4494 41.9301 35.7564L42.123 37.9469C42.1506 38.254 42.3364 38.37 42.3364 38.37H41.3996C41.3996 38.37 41.5649 38.254 41.5373 37.9469" fill="white"/>
<path d="M48.3368 36.2897C48.3368 36.8152 47.9029 37.2451 47.3724 37.2451H46.7867V37.9548C46.7867 38.2619 46.9658 38.3779 46.9658 38.3779H46.0289C46.0289 38.3779 46.2081 38.2619 46.2081 37.9548V35.7643C46.2081 35.4572 46.0289 35.3412 46.0289 35.3412H47.3724C47.9029 35.3412 48.3368 35.7643 48.3368 36.2897ZM47.1106 35.6551H46.7867V36.9176H47.1106C47.462 36.9176 47.7513 36.6309 47.7513 36.2829C47.7513 35.9349 47.462 35.6551 47.1106 35.6551Z" fill="white"/>
<path d="M52.8286 35.7564V37.9469C52.8286 38.254 53.0078 38.37 53.0078 38.37H52.0709C52.0709 38.37 52.25 38.254 52.25 37.9469V35.7564C52.25 35.4494 52.0709 35.3334 52.0709 35.3334H53.0078C53.0078 35.3334 52.8286 35.4494 52.8286 35.7564Z" fill="white"/>
<path d="M59.4497 38.3779C59.4497 38.3779 59.2843 38.4324 58.9536 38.4324C58.6229 38.4324 58.492 38.2892 58.3748 38.064L57.8788 37.1427L57.555 37.2041V37.9548C57.555 38.2619 57.7342 38.3779 57.7342 38.3779H56.7971C56.7971 38.3779 56.9763 38.2619 56.9763 37.9548V35.7643C56.9763 35.4572 56.7971 35.3412 56.7971 35.3412H58.2509C58.7194 35.3412 59.1052 35.7234 59.1052 36.1874C59.1052 36.7128 58.6436 36.9312 58.4714 36.9926L59.0431 37.9616C59.2222 38.2687 59.4635 38.3847 59.4635 38.3847M57.5481 35.6551V36.9176L57.9959 36.8288C58.299 36.7538 58.5195 36.4876 58.5195 36.1737C58.5195 35.8871 58.2853 35.6551 57.9959 35.6551H57.555H57.5481Z" fill="white"/>
<path d="M64.5066 38.0503C64.982 38.0503 65.2299 37.8524 65.2299 37.8524L65.1335 38.3779H63.0804C63.0804 38.3779 63.2596 38.2619 63.2596 37.9548V35.7643C63.2596 35.4572 63.0804 35.3412 63.0804 35.3412H65.0921V35.8462C65.0921 35.8462 64.8855 35.6619 64.4446 35.6619H63.8382V36.6241H64.9199L64.8511 37.0677C64.8511 37.0677 64.6926 36.9517 64.3206 36.9517H63.8451V38.0571H64.5135L64.5066 38.0503Z" fill="white"/>
<mask id="mask18_0_784" style="mask-type:luminance" maskUnits="userSpaceOnUse" x="9" y="35" width="4" height="4">
<path d="M9.9344 35.3343L9.84491 35.8052C9.84491 35.8052 9.98953 35.6551 10.2996 35.6551H10.6509V37.9479C10.6509 38.255 10.4718 38.371 10.4718 38.371H11.4089C11.4089 38.371 11.2297 38.255 11.2297 37.9479V35.6551H11.5673C11.8773 35.6551 11.9669 35.8052 11.9669 35.8052L12.0495 35.3343H9.9275H9.9344Z" fill="white"/>
</mask>
<g mask="url(#mask18_0_784)">
<path d="M12.0564 35.3343H9.84491V38.371H12.0564V35.3343Z" fill="white"/>
</g>
<mask id="mask19_0_784" style="mask-type:luminance" maskUnits="userSpaceOnUse" x="15" y="35" width="4" height="4">
<path d="M17.4715 35.3343C17.4715 35.3343 17.6506 35.4503 17.6506 35.7574V36.6923H16.4861V35.7574C16.4861 35.4503 16.6653 35.3343 16.6653 35.3343H15.7353C15.7353 35.3343 15.9144 35.4503 15.9144 35.7574V37.9479C15.9144 38.255 15.7353 38.371 15.7353 38.371H16.6653C16.6653 38.371 16.4861 38.255 16.4861 37.9479V37.013H17.6506V37.9479C17.6506 38.255 17.4715 38.371 17.4715 38.371H18.4014C18.4014 38.371 18.2292 38.255 18.2292 37.9479V35.7574C18.2292 35.4503 18.4014 35.3343 18.4014 35.3343H17.4715Z" fill="white"/>
</mask>
<g mask="url(#mask19_0_784)">
<path d="M18.4025 35.3343H15.7294V38.371H18.4025V35.3343Z" fill="white"/>
</g>
<mask id="mask20_0_784" style="mask-type:luminance" maskUnits="userSpaceOnUse" x="22" y="35" width="3" height="4">
<path d="M22.1913 35.3343C22.1913 35.3343 22.3704 35.4503 22.3704 35.7574V37.9479C22.3704 38.255 22.1913 38.371 22.1913 38.371H24.2444L24.3409 37.8455C24.3409 37.8455 24.0929 38.0434 23.6175 38.0434H22.9492V36.938H23.4246C23.7966 36.938 23.9551 37.0608 23.9551 37.0608L24.024 36.6172H22.9423V35.6551H23.5485C23.9895 35.6551 24.1963 35.8393 24.1963 35.8393V35.3343H22.1844H22.1913Z" fill="white"/>
</mask>
<g mask="url(#mask20_0_784)">
<path d="M24.3404 35.3343H22.1908V38.371H24.3404V35.3343Z" fill="white"/>
</g>
<mask id="mask21_0_784" style="mask-type:luminance" maskUnits="userSpaceOnUse" x="32" y="35" width="3" height="4">
<path d="M32.6421 35.3343C32.6421 35.3343 32.8212 35.4503 32.8212 35.7574V37.9479C32.8212 38.255 32.6421 38.371 32.6421 38.371H34.6952L34.7915 37.8455C34.7915 37.8455 34.5435 38.0434 34.0681 38.0434H33.3998V36.938H33.8752C34.2472 36.938 34.4057 37.0608 34.4057 37.0608L34.4746 36.6172H33.3929V35.6551H33.9993C34.4402 35.6551 34.6469 35.8393 34.6469 35.8393V35.3343H32.6352H32.6421Z" fill="white"/>
</mask>
<g mask="url(#mask21_0_784)">
<path d="M34.791 35.3343H32.6416V38.371H34.791V35.3343Z" fill="white"/>
</g>
<mask id="mask22_0_784" style="mask-type:luminance" maskUnits="userSpaceOnUse" x="38" y="35" width="5" height="4">
<path d="M41.2618 35.3343C41.2756 35.464 41.2617 35.6005 41.1997 35.7233L40.4142 37.6067L39.4774 35.3343H38.7539C38.7539 35.3343 38.9192 35.4503 38.8986 35.7574L38.7056 37.9479C38.6781 38.255 38.4922 38.371 38.4922 38.371H39.2293C39.2293 38.371 39.0639 38.255 39.0915 37.9479L39.243 36.1873L40.0285 38.0775C40.1043 38.255 40.2834 38.371 40.4832 38.371L41.3789 36.2146L41.5304 37.9547C41.558 38.2618 41.3927 38.3778 41.3927 38.3778H42.3295C42.3295 38.3778 42.1437 38.2618 42.1161 37.9547L41.9232 35.7643C41.8956 35.4572 42.0609 35.3412 42.0609 35.3412H41.2549L41.2618 35.3343Z" fill="white"/>
</mask>
<g mask="url(#mask22_0_784)">
<path d="M42.3296 35.3343H38.4853V38.371H42.3296V35.3343Z" fill="white"/>
</g>
<mask id="mask23_0_784" style="mask-type:luminance" maskUnits="userSpaceOnUse" x="46" y="35" width="3" height="4">
<path d="M46.7862 35.6551H47.1102C47.4615 35.6551 47.7509 35.9417 47.7509 36.2829C47.7509 36.6241 47.4615 36.9175 47.1102 36.9175H46.7862V35.6551ZM46.0285 35.3343C46.0285 35.3343 46.2076 35.4503 46.2076 35.7574V37.9479C46.2076 38.255 46.0285 38.371 46.0285 38.371H46.9585C46.9585 38.371 46.7795 38.255 46.7795 37.9479V37.2382H47.365C47.8955 37.2382 48.3296 36.8151 48.3296 36.2829C48.3296 35.7506 47.8955 35.3343 47.365 35.3343H46.0216H46.0285Z" fill="white"/>
</mask>
<g mask="url(#mask23_0_784)">
<path d="M48.3363 35.3343H46.0284V38.371H48.3363V35.3343Z" fill="white"/>
</g>
<mask id="mask24_0_784" style="mask-type:luminance" maskUnits="userSpaceOnUse" x="52" y="35" width="2" height="4">
<path d="M52.0778 35.3343C52.0778 35.3343 52.2569 35.4503 52.2569 35.7574V37.9479C52.2569 38.255 52.0778 38.371 52.0778 38.371H53.0077C53.0077 38.371 52.8286 38.255 52.8286 37.9479V35.7574C52.8286 35.4503 53.0077 35.3343 53.0077 35.3343H52.0778Z" fill="white"/>
</mask>
<g mask="url(#mask24_0_784)">
<path d="M53.0077 35.3343H52.0778V38.371H53.0077V35.3343Z" fill="white"/>
</g>
<mask id="mask25_0_784" style="mask-type:luminance" maskUnits="userSpaceOnUse" x="56" y="35" width="4" height="4">
<path d="M57.5482 35.6551H57.9891C58.2784 35.6551 58.5127 35.8871 58.5127 36.1737C58.5127 36.4876 58.2991 36.7537 57.9891 36.8288L57.5413 36.9175V35.6551H57.5482ZM56.7903 35.3343C56.7903 35.3343 56.9694 35.4572 56.9694 35.7574V37.9479C56.9694 38.255 56.7903 38.371 56.7903 38.371H57.7273C57.7273 38.371 57.5482 38.255 57.5482 37.9479V37.1973L57.872 37.1358L58.368 38.0639C58.492 38.2959 58.6368 38.4324 58.9468 38.4324C59.2568 38.4324 59.4428 38.3778 59.4428 38.3778C59.4428 38.3778 59.2085 38.2618 59.0294 37.9547L58.4577 36.9857C58.6368 36.9243 59.0914 36.7059 59.0914 36.1805C59.0914 35.7165 58.7056 35.3412 58.2371 35.3412H56.7834L56.7903 35.3343Z" fill="white"/>
</mask>
<g mask="url(#mask25_0_784)">
<path d="M59.4487 35.3343H56.7893V38.4324H59.4487V35.3343Z" fill="white"/>
</g>
<mask id="mask26_0_784" style="mask-type:luminance" maskUnits="userSpaceOnUse" x="63" y="35" width="3" height="4">
<path d="M63.081 35.3343C63.081 35.3343 63.2601 35.4503 63.2601 35.7574V37.9479C63.2601 38.255 63.081 38.371 63.081 38.371H65.1341L65.2304 37.8455C65.2304 37.8455 64.9825 38.0434 64.5003 38.0434H63.832V36.938H64.3073C64.6794 36.938 64.8378 37.0608 64.8378 37.0608L64.9066 36.6172H63.8251V35.6551H64.4313C64.8722 35.6551 65.0789 35.8393 65.0789 35.8393V35.3343H63.0672H63.081Z" fill="white"/>
</mask>
<g mask="url(#mask26_0_784)">
<path d="M65.2294 35.3343H63.0799V38.371H65.2294V35.3343Z" fill="white"/>
</g>
<mask id="mask27_0_784" style="mask-type:luminance" maskUnits="userSpaceOnUse" x="27" y="0" width="21" height="22">
<path d="M35.7977 11.7849C35.8597 11.5665 36.0321 11.3959 36.2594 11.3345L37.4513 11.0274L37.1275 12.1738C37.0655 12.3922 36.8932 12.5628 36.6658 12.6242L35.4739 12.9313L35.7977 11.7849ZM38.519 12.6379C38.2917 12.5764 38.1195 12.399 38.0644 12.1807L37.7544 11.0001L38.9118 11.3208C39.1323 11.3823 39.3046 11.5528 39.3666 11.778L39.6766 12.9654L38.519 12.6447V12.6379ZM37.5891 10.8636C37.5891 10.8636 37.5891 10.8636 37.5891 10.8705V10.8636ZM38.0437 9.55346C38.1057 9.33509 38.285 9.16449 38.5054 9.10308L39.6973 8.79599L39.3735 9.9424C39.3115 10.1608 39.1323 10.3314 38.9118 10.3928L37.7199 10.6999L38.0437 9.55346ZM36.2663 10.4133C36.0459 10.3518 35.8735 10.1744 35.8115 9.95606L35.5015 8.77552L36.6589 9.09625C36.8794 9.15766 37.0517 9.33509 37.1137 9.55346L37.4237 10.7408L36.2663 10.4201V10.4133ZM37.472 6.51681L37.1344 7.72464C37.0724 7.943 36.9001 8.1136 36.6727 8.17502L35.4463 8.48893C35.3637 8.5094 35.3293 8.58445 35.3431 8.64587C35.2879 8.64587 35.2398 8.68681 35.2191 8.74822L34.8815 9.95606C34.8195 10.1744 34.6403 10.345 34.4198 10.4064L33.1934 10.7203C33.0488 10.7545 33.0488 10.9523 33.1934 10.9933L34.4129 11.3277C34.6334 11.3891 34.8057 11.5597 34.8677 11.7849L35.1846 12.9995C35.2053 13.0814 35.2811 13.1087 35.3431 13.1019C35.3431 13.1565 35.3843 13.2042 35.4463 13.2247L36.6658 13.5591C36.8863 13.6205 37.0586 13.7911 37.1206 14.0163L37.4375 15.2309C37.472 15.3742 37.6717 15.3742 37.713 15.2309L38.0506 14.0231C38.1126 13.8047 38.2919 13.6341 38.5123 13.5727L39.7385 13.2588C39.8212 13.2384 39.8488 13.1633 39.842 13.1019C39.8971 13.1019 39.9452 13.0609 39.9659 12.9995L40.3035 11.7917C40.3655 11.5733 40.5377 11.4027 40.765 11.3413L41.9914 11.0274C42.1361 10.9933 42.1361 10.7954 41.9914 10.7544L40.7719 10.4201C40.5515 10.3587 40.3793 10.1813 40.3173 9.9629L40.0004 8.74822C39.9797 8.66633 39.9108 8.63222 39.842 8.64587C39.842 8.59128 39.8005 8.54351 39.7385 8.52304L38.519 8.18868C38.2917 8.12726 38.1195 7.95666 38.0644 7.73147L37.7475 6.51681C37.7268 6.44858 37.6718 6.40763 37.6097 6.40763C37.5477 6.40763 37.4927 6.44174 37.472 6.50998M29.673 2.43612C29.7832 4.53105 28.2331 5.50689 28.1711 5.54783L27.9161 5.70477L28.0539 5.97091C28.109 6.07327 28.5844 6.96036 28.9564 7.32203L29.1494 7.5131L29.3699 7.34933C29.4526 7.28792 29.6661 7.13778 30.2104 6.66011C30.6444 6.27797 30.7133 5.17934 30.7133 5.17934C30.5824 5.45229 29.6384 6.33258 29.232 6.6533C29.0666 6.43494 28.8875 6.13469 28.7566 5.9095C29.2458 5.52736 30.2723 4.51058 30.3206 2.77731C30.9406 2.88649 32.1945 3.32323 32.1945 4.96097C32.1945 6.01867 31.4642 6.66012 30.6168 7.3971C29.5351 8.3388 28.3158 9.40332 28.3158 11.587C28.3571 12.788 28.7429 13.4499 29.1425 14.1528C29.5007 14.7737 30.3205 15.886 30.4445 16.5275C30.5685 15.77 30.0726 14.4803 29.7006 13.8389C29.3216 13.1838 28.9909 12.6174 28.9564 11.5802C28.9564 9.69676 30.0174 8.76869 31.0371 7.87476C31.919 7.10366 32.8352 6.30527 32.8352 4.96097C32.8352 2.7705 30.982 2.13587 30.0037 2.10175L29.6592 2.08811L29.6799 2.42931L29.673 2.43612ZM45.0091 2.10175C44.0308 2.12905 42.1774 2.7705 42.1774 4.96097C42.1774 6.30527 43.0938 7.10366 43.9757 7.87476C45.0022 8.76869 46.0563 9.68994 46.0563 11.5802C46.0219 12.6106 45.6911 13.1838 45.3122 13.8389C44.9402 14.4803 44.4441 15.77 44.5681 16.5275C44.6921 15.886 45.5052 14.7737 45.8703 14.1528C46.2768 13.4499 46.6557 12.7948 46.697 11.587C46.697 9.40332 45.4775 8.3388 44.3958 7.3971C43.5484 6.66012 42.8183 6.01867 42.8183 4.96097C42.8183 3.32323 44.0722 2.89332 44.6922 2.77731C44.7404 4.51058 45.767 5.52736 46.2562 5.9095C46.1253 6.13469 45.946 6.43494 45.7806 6.6533C45.3742 6.33258 44.4304 5.45229 44.2995 5.17934C44.2995 5.17934 44.3683 6.27115 44.8024 6.66011C45.3467 7.13778 45.5602 7.28792 45.6429 7.34933L45.8634 7.5131L46.0563 7.32203C46.4215 6.96036 46.9036 6.07327 46.9587 5.97091L47.0967 5.70477L46.8417 5.54783C46.7797 5.50689 45.2296 4.53105 45.3398 2.43612L45.3605 2.09492L45.016 2.10858L45.0091 2.10175ZM35.7427 19.9053C36.287 19.3935 37.0035 19.1069 37.7751 19.1069C38.5467 19.1069 39.2356 19.3867 39.7799 19.878L37.8027 20.7583L35.7427 19.9053ZM31.4298 18.1243C31.6296 18.0014 32.0154 17.7762 32.1807 17.6056C32.2909 17.4896 32.3944 17.36 32.4771 17.2235L37.7337 16.3978L42.5012 17.1757C42.5908 17.3259 42.701 17.4692 42.825 17.6056C43.0524 17.8513 43.3281 18.0424 43.6243 18.1789L40.4619 19.5778C39.773 18.8408 38.7947 18.4177 37.7751 18.4177C36.7554 18.4177 35.7358 18.8612 35.0469 19.6255L31.4298 18.1311V18.1243ZM32.8903 15.8451C32.8903 15.5244 32.849 15.2036 32.7595 14.8966C32.6561 14.5622 32.5045 14.3029 32.3667 14.064C31.8018 13.1292 31.5883 12.3103 31.5883 11.4914C31.5883 10.6726 32.3461 9.32143 32.7871 8.87788C33.228 8.4275 33.6482 7.97713 34.0684 7.41757C34.4749 6.85801 34.7643 6.1688 34.8194 5.45912C34.847 5.16569 34.8332 4.87226 34.7919 4.58566L37.6235 6.09374L37.6511 6.10738L37.6785 6.05962L40.2002 4.68118C40.1658 4.93367 40.1658 5.19299 40.1864 5.45912C40.2415 6.1688 40.5308 6.85801 40.9373 7.41757C41.3575 7.97713 41.7779 8.42068 42.2188 8.87788C42.6529 9.32143 43.4176 10.6726 43.4176 11.4914C43.4176 12.3103 43.211 13.1292 42.6391 14.064C42.5014 14.3097 42.3497 14.5622 42.2464 14.8966C42.1568 15.2036 42.1155 15.5175 42.1155 15.8451C42.1224 16.0635 42.1568 16.275 42.2119 16.4865L37.7889 15.7632H37.7406L32.7802 16.5275C32.8422 16.3023 32.8766 16.0703 32.8834 15.8383M34.5851 3.76678C34.5438 3.6576 34.5025 3.54841 34.4612 3.43923C34.1856 2.82508 33.8066 2.27917 33.3657 1.78103C33.1039 1.4876 32.8078 1.2283 32.484 1.00311H34.2545L36.7141 4.89272L34.592 3.76678H34.5851ZM35.0055 1.00311H37.2998V4.64024L35.0055 1.00311ZM37.9404 1.00311H40.1519L37.9404 4.60613V1.00311ZM40.8961 1.00311H42.5219C42.1981 1.2283 41.9018 1.4876 41.64 1.78103C41.1991 2.27917 40.8203 2.82508 40.5447 3.43923C40.4827 3.57571 40.4345 3.71903 40.3863 3.86233L38.519 4.88591L40.903 1.00311H40.8961ZM29.7832 0V0.0750529C29.7832 0.498135 30.0725 0.85299 30.4652 0.962172C30.5134 1.00312 30.5547 1.0304 30.5961 1.03722C30.8717 1.09864 31.1473 1.19417 31.4023 1.31018C31.9259 1.53537 32.3806 1.88339 32.7595 2.29965C33.5036 3.17311 33.9652 4.31952 33.8067 5.34993C33.7309 5.86855 33.5036 6.34623 33.1591 6.76249C32.8147 7.1651 32.3599 7.60182 31.919 8.01125C31.4712 8.43433 30.982 8.83693 30.548 9.41014C30.3344 9.69674 30.1346 10.038 30.0244 10.4269C29.9141 10.7954 29.8865 11.1844 29.914 11.5529C29.914 11.8804 29.9762 12.2011 30.0726 12.4946C30.1691 12.7948 30.3067 13.0746 30.4514 13.3271C30.7546 13.832 31.0991 14.2619 31.4023 14.6645C31.5469 14.8624 31.6847 15.0603 31.7536 15.2241C31.8294 15.422 31.8776 15.6267 31.8914 15.8314C31.8983 16.2409 31.7604 16.6571 31.4848 16.9574C31.2162 17.2713 30.8029 17.4623 30.3964 17.5169C29.9555 17.5442 29.48 17.4146 29.1287 17.2508C27.6061 16.4251 27.9782 14.685 27.9782 14.685C27.6957 14.8079 27.4614 15.1354 27.3718 15.5926C27.3236 16.0635 27.4132 16.2886 27.4684 16.507C27.6406 17.0939 27.9713 17.5784 28.6671 17.9878C29.1081 18.2471 37.8027 21.8228 37.8027 21.8228L45.4913 18.4177C45.4913 18.4177 46.0563 18.1584 46.3387 17.9878C46.8899 17.6534 47.3653 17.0939 47.5375 16.507C47.5995 16.2886 47.6823 16.0635 47.6341 15.5926C47.5514 15.1354 47.3171 14.8079 47.0277 14.685C47.0277 14.685 47.3998 16.4251 45.8772 17.2508C45.5258 17.4146 45.0504 17.5442 44.6095 17.5169C44.203 17.4623 43.7896 17.2713 43.5278 16.9574C43.2453 16.6571 43.1076 16.2409 43.1214 15.8314C43.1283 15.6267 43.1834 15.422 43.2591 15.2241C43.328 15.0603 43.4658 14.8624 43.6105 14.6645C43.9068 14.2619 44.258 13.8252 44.5612 13.3271C44.7059 13.0678 44.8368 12.7948 44.9401 12.4946C45.0297 12.2011 45.0917 11.8804 45.0986 11.5529C45.1262 11.1844 45.0987 10.7954 44.9884 10.4269C44.8782 10.0448 44.6784 9.69674 44.4648 9.41014C44.0308 8.83693 43.5347 8.42751 43.0938 8.01125C42.6529 7.60182 42.1981 7.1651 41.8536 6.76249C41.5092 6.34623 41.275 5.86855 41.2061 5.34993C41.1441 4.9405 41.1784 4.51741 41.2887 4.10115C41.4609 3.4597 41.8055 2.82509 42.2533 2.29965C42.6322 1.89022 43.0869 1.53537 43.6105 1.31018C43.8723 1.19417 44.141 1.10546 44.4165 1.03722C44.4441 1.03722 44.4717 1.01675 44.4993 0.996283C45.016 0.996283 45.4293 0.580021 45.4293 0.0750529V0H29.79H29.7832Z" fill="white"/>
</mask>
<g mask="url(#mask27_0_784)">
<path d="M34.8332 -9.5283L16.8926 14.1129L40.4913 31.6817L58.432 8.04047L34.8332 -9.5283Z" fill="white"/>
</g>
</svg>
