<svg width="90" height="46" viewBox="0 0 90 46" fill="none" xmlns="http://www.w3.org/2000/svg">
<g clip-path="url(#clip0_0_263)">
<path d="M87.3962 32.2598L86.9555 31.9653C85.4131 30.9541 84.9924 30.4436 84.9924 29.5993C84.9924 28.5292 86.0341 28.1464 86.9355 28.1464C88.4178 28.1464 88.8284 28.7845 88.8384 28.8041C88.9185 28.9416 89.0387 29.3146 89.0488 29.4815C89.0688 29.5895 89.0888 29.7858 89.3292 29.7858C89.5896 29.7858 89.5896 29.511 89.5896 29.3244C89.5896 28.5391 89.6297 28.0776 89.6497 27.8911C89.6497 27.8322 89.6497 27.7929 89.6497 27.7831C89.6497 27.5475 89.4394 27.5475 89.3592 27.5475C89.239 27.5475 89.1289 27.5475 88.8384 27.4788C88.4678 27.3904 87.8469 27.3021 87.1959 27.3021C85.0125 27.3021 83.6103 28.4311 83.6103 30.1785C83.6103 31.2977 84.2713 32.2304 85.8938 33.4084L86.6049 33.9288C87.9971 34.9301 88.5179 35.4014 88.5179 36.3733C88.5179 37.4924 87.6766 38.1895 86.3145 38.1895C85.333 38.1895 84.2112 37.8361 83.9809 36.8445C83.9308 36.658 83.9308 36.4616 83.9308 36.3438C83.9308 36.118 83.7906 36.0395 83.6503 36.0395C83.5602 36.0395 83.3899 36.0886 83.3899 36.4027C83.3899 36.4518 83.3899 36.5107 83.3699 36.5893C83.3399 36.8838 83.2998 37.3746 83.2998 37.9637C83.2998 38.3564 83.3098 38.4938 83.6103 38.6313C84.4115 38.9945 85.5032 39.0436 85.9339 39.0436C87.0657 39.0436 87.917 38.8669 88.4879 38.5036C89.4894 37.8655 90.0002 36.9918 90.0002 35.902C90.0002 34.5472 89.2491 33.4968 87.3862 32.2696L87.3962 32.2598Z" fill="white"/>
<path d="M14.4728 25.024C14.1022 25.024 13.6214 25.0436 13.311 25.0633C13.1707 25.0633 13.0806 25.0731 13.0405 25.0731C12.9604 25.0731 12.8102 25.0731 12.6099 25.0535C12.2293 25.0338 11.7185 25.0142 11.2377 25.0142C11.0474 25.0142 10.6869 25.0142 10.6869 25.2989C10.6869 25.3873 10.7369 25.5443 11.0274 25.5443C11.2177 25.5443 11.4781 25.5443 11.6584 25.6032C11.7986 25.672 11.8186 25.8094 11.8186 25.8879C11.8186 26.045 11.7285 26.3297 11.6584 26.5261C11.2878 27.714 9.01426 33.4767 7.87248 36.098L4.46718 27.282C4.21679 26.6537 3.97642 26.0646 3.97642 25.8487C3.97642 25.7505 4.00646 25.672 4.12665 25.6131C4.25685 25.5541 4.55732 25.5345 4.76765 25.5345C5.0581 25.5345 5.09816 25.348 5.09816 25.2694C5.09816 25.0044 4.69754 25.0044 4.45717 25.0044C3.99645 25.0044 3.46562 25.024 3.12509 25.0436C2.94481 25.0436 2.81461 25.0535 2.75451 25.0535C2.68441 25.0535 2.51414 25.0535 2.30381 25.0436C1.86313 25.024 1.2021 25.0044 0.611177 25.0044C0.350772 25.0044 -0.0097899 25.0044 -0.0097899 25.2694C-0.0097899 25.4265 0.100382 25.5345 0.280662 25.5345C0.380818 25.5345 0.681286 25.5345 0.941692 25.6032C1.5226 25.7603 1.77299 25.9174 2.17361 26.8991L6.68063 37.8356L6.73071 37.9632C7.06122 38.7879 7.17139 39.0333 7.47186 39.0333C7.70222 39.0333 7.78234 38.8468 8.06278 38.2479C8.1429 38.0712 8.24306 37.8651 8.36325 37.6C8.77389 36.7557 9.5551 34.9395 10.6368 32.4263L11.4781 30.4628C12.1391 28.9313 12.6499 27.714 12.8002 27.3507C13.2809 26.1726 13.5413 25.8781 13.7617 25.7407C14.0721 25.5443 14.4427 25.5443 14.5629 25.5443C14.8734 25.5443 14.9235 25.3774 14.9235 25.2793C14.9235 25.1026 14.7732 25.0142 14.4728 25.0142V25.024Z" fill="white"/>
<path d="M18.4489 38.2873C18.3187 38.2873 17.9982 38.2579 17.7579 38.2186C17.4073 38.1695 17.3572 38.0026 17.3072 37.5608C17.237 36.962 17.237 35.833 17.237 34.3898V31.7981C17.237 29.5106 17.237 29.1081 17.2571 28.6467C17.2971 28.146 17.3673 28.0184 17.6978 27.9595C17.858 27.93 17.9582 27.93 18.0583 27.93C18.1885 27.93 18.3187 27.8024 18.3187 27.6748C18.3187 27.5079 18.1885 27.4195 17.9281 27.4195C17.5776 27.4195 16.9466 27.4392 16.6061 27.449C16.4759 27.449 16.3857 27.449 16.3657 27.449C16.3457 27.449 16.2355 27.449 16.0953 27.449C15.7447 27.4392 15.1438 27.4195 14.7832 27.4195C14.5228 27.4195 14.3926 27.5079 14.3926 27.6748C14.3926 27.7926 14.5028 27.93 14.653 27.93C14.7532 27.93 14.9435 27.9497 15.1037 27.9791C15.3341 28.0282 15.4543 28.146 15.4943 28.6565C15.5244 29.1179 15.5244 29.5303 15.5244 31.8079V34.3997C15.5244 35.5974 15.5144 36.9129 15.4342 37.5707C15.3741 38.0321 15.3241 38.1891 15.1238 38.2382C14.9936 38.2677 14.8033 38.307 14.6731 38.307C14.5128 38.307 14.4127 38.4346 14.4127 38.5622C14.4127 38.6604 14.4627 38.8175 14.8033 38.8175C15.1438 38.8175 15.7247 38.788 16.0752 38.7782C16.2255 38.7782 16.3256 38.7684 16.3557 38.7684C16.3757 38.7684 16.4358 38.7684 16.5259 38.7684C16.8565 38.7782 17.6377 38.8175 18.3187 38.8175C18.6793 38.8175 18.7093 38.6211 18.7093 38.5622C18.7093 38.4346 18.6192 38.307 18.4489 38.307V38.2873Z" fill="white"/>
<path d="M31.6792 27.4103C31.2585 27.4103 30.888 27.4299 30.6376 27.4397C30.5074 27.4397 30.4072 27.4495 30.3471 27.4495C30.287 27.4495 30.1668 27.4495 30.0066 27.4495C29.6761 27.4397 29.1853 27.4201 28.7046 27.4201C28.5744 27.4201 28.2639 27.4201 28.2639 27.6557C28.2639 27.8226 28.374 27.9306 28.5243 27.9306C28.6445 27.9306 28.985 27.9502 29.2654 27.9993C29.606 28.0582 29.7261 28.2349 29.7462 29.2363L29.8964 36.2557C29.7362 36.0888 29.5359 35.8826 29.2955 35.6372C28.5243 34.842 27.4626 33.7522 26.441 32.7214C24.7985 31.0819 23.226 29.4817 22.2946 28.5294C21.8539 28.0876 21.5634 27.7931 21.4933 27.7146L21.4232 27.6459C21.1828 27.4102 20.9926 27.2335 20.7922 27.2335C20.4717 27.2335 20.4417 27.6851 20.4417 28.1073V36.5207C20.4417 37.8362 20.3816 38.1504 20.0911 38.2289C19.8808 38.2977 19.6104 38.3075 19.4902 38.3075C19.34 38.3075 19.2298 38.4155 19.2298 38.5627C19.2298 38.818 19.5102 38.818 19.6204 38.818C20.1112 38.818 20.5919 38.7885 20.8724 38.7787C21.0026 38.7787 21.0827 38.7689 21.1328 38.7689C21.1728 38.7689 21.253 38.7689 21.3631 38.7787C21.6536 38.7983 22.1544 38.818 22.7954 38.818C23.1459 38.818 23.216 38.6805 23.216 38.5627C23.216 38.4155 23.0958 38.3075 22.9556 38.3075C22.7954 38.3075 22.4548 38.2878 22.2044 38.2289C21.8839 38.1504 21.7437 37.905 21.7037 36.6778L21.5334 30.1002C22.1944 30.7972 23.6567 32.2895 25.3493 34.0075C26.9919 35.6666 29.2554 37.8362 29.4357 37.9933C30.3671 38.8278 30.5074 38.926 30.7177 38.926C30.9781 38.926 30.9781 38.7198 30.9781 37.7381L31.0182 29.1283C31.0182 28.2055 31.0783 28.0582 31.4588 27.9797C31.6191 27.9502 31.7393 27.9502 31.8094 27.9502C31.9897 27.9502 32.1199 27.8029 32.1199 27.6753C32.1199 27.4397 31.8094 27.4397 31.6892 27.4397L31.6792 27.4103Z" fill="white"/>
<path d="M46.4924 38.2873C46.3822 38.2873 46.0316 38.2579 45.8213 38.2186C45.4608 38.1695 45.4307 38.0124 45.3706 37.5608C45.2905 36.9031 45.2805 35.5876 45.2805 34.3898V31.7981C45.2805 29.5205 45.2805 29.1081 45.3205 28.6467C45.3606 28.146 45.4307 28.0184 45.7412 27.9595C45.9215 27.93 46.0016 27.93 46.1118 27.93C46.252 27.93 46.3922 27.8024 46.3922 27.6748C46.3922 27.557 46.3221 27.4195 45.9816 27.4195C45.641 27.4195 45.0702 27.4392 44.7196 27.449C44.5694 27.449 44.4592 27.449 44.4292 27.449C44.4091 27.449 44.339 27.449 44.2389 27.449C43.8983 27.4392 43.1772 27.4195 42.6564 27.4195C42.396 27.4195 42.2658 27.5079 42.2658 27.6748C42.2658 27.7926 42.376 27.93 42.5262 27.93C42.6564 27.93 42.9168 27.9497 43.037 27.9595C43.4376 28.0184 43.5077 28.146 43.5378 28.6663C43.5578 29.1179 43.5778 29.5892 43.5778 31.8373V32.1024H37.1378V31.8373C37.1378 29.5794 37.1378 29.1081 37.1578 28.6467C37.1879 28.146 37.268 28.0282 37.5985 27.9595C37.7588 27.93 37.8589 27.93 37.9591 27.93C38.0893 27.93 38.2195 27.8024 38.2195 27.6748C38.2195 27.5079 38.0893 27.4195 37.8289 27.4195C37.4783 27.4195 36.8574 27.4392 36.5168 27.449C36.3866 27.449 36.2965 27.449 36.2765 27.449C36.2564 27.449 36.1663 27.449 36.0461 27.449C35.6855 27.4392 35.0045 27.4195 34.4736 27.4195C34.2132 27.4195 34.083 27.5079 34.083 27.6748C34.083 27.8024 34.2132 27.93 34.3434 27.93C34.4737 27.93 34.7341 27.9497 34.8542 27.9595C35.2749 28.0184 35.345 28.1657 35.3751 28.6467C35.4151 29.1081 35.4151 29.5205 35.4151 31.7981V34.3898C35.4151 35.8232 35.4151 36.9522 35.325 37.551V37.5903C35.2449 38.0321 35.2048 38.1695 35.0145 38.2186C34.8843 38.248 34.694 38.2873 34.5638 38.2873C34.4035 38.2873 34.3034 38.4149 34.3034 38.5426C34.3034 38.6407 34.3535 38.7978 34.694 38.7978C35.0345 38.7978 35.6254 38.7684 35.976 38.7586C36.1262 38.7586 36.2364 38.7487 36.2564 38.7487C36.2765 38.7487 36.3265 38.7487 36.4267 38.7487C36.7572 38.7586 37.5184 38.7978 38.1995 38.7978C38.56 38.7978 38.5901 38.6015 38.5901 38.5426C38.5901 38.4149 38.4999 38.2873 38.3297 38.2873C38.1995 38.2873 37.879 38.2579 37.6386 38.2186C37.288 38.1695 37.238 38.0026 37.1879 37.5608C37.1178 36.962 37.1178 35.8428 37.1178 34.4291V33.0056H43.5578V34.4291C43.5578 35.833 43.5578 36.9423 43.4877 37.5412C43.4276 38.0026 43.3775 38.1793 43.1572 38.2186C42.9769 38.2579 42.8367 38.2873 42.7265 38.2873C42.5663 38.2873 42.4661 38.4149 42.4661 38.5426C42.4661 38.7095 42.5963 38.7978 42.8567 38.7978C43.1972 38.7978 43.8282 38.7684 44.1587 38.7586C44.2889 38.7586 44.3891 38.7487 44.3991 38.7487C44.4191 38.7487 44.4892 38.7487 44.6094 38.7487C44.96 38.7586 45.6911 38.7978 46.3421 38.7978C46.7327 38.7978 46.7528 38.5818 46.7528 38.5426C46.7528 38.4149 46.6626 38.2873 46.4723 38.2873H46.4924Z" fill="white"/>
<path d="M53.1627 27.2042C48.7759 27.2042 46.8128 30.6402 46.8128 33.0749C46.8128 35.922 48.7759 38.985 53.0726 38.985C56.7383 38.985 59.4926 36.3441 59.4926 32.8491C59.4926 29.3542 56.9486 27.2042 53.1627 27.2042ZM53.5233 38.1112C50.6488 38.1112 48.7158 35.9318 48.7158 32.6822C48.7158 29.7665 50.3483 28.0288 53.0826 28.0288C55.3461 28.0288 57.6297 29.6487 57.6297 33.2713C57.6297 37.8854 54.2144 38.121 53.5233 38.121V38.1112Z" fill="white"/>
<path d="M74.6865 38.2879C74.5362 38.2879 74.1356 38.2879 73.715 38.1603C73.2042 37.9934 73.074 37.3847 73.0039 36.7564L71.9322 27.7343C71.8721 27.3121 71.7018 27.214 71.5616 27.214C71.3513 27.214 71.2511 27.4201 71.191 27.5281L66.7541 36.3932L62.147 27.5085C62.0168 27.2434 61.8064 27.214 61.7063 27.214C61.546 27.214 61.4158 27.3612 61.3958 27.5968L60.254 37.1884L60.234 37.3356C60.1639 37.8658 60.1138 38.1897 59.7632 38.2486H59.7232C59.5329 38.2879 59.4327 38.2977 59.3326 38.2977C59.1723 38.2977 59.0321 38.4057 59.0321 38.5333C59.0321 38.6315 59.0822 38.8082 59.4427 38.8082C59.7132 38.8082 60.1238 38.7886 60.4143 38.7689C60.5745 38.7689 60.7047 38.7493 60.7548 38.7493C60.7949 38.7493 60.895 38.7493 61.0352 38.7591C61.3457 38.7788 61.8164 38.7984 62.2271 38.7984C62.5776 38.7984 62.6477 38.6511 62.6477 38.5235C62.6477 38.3861 62.5075 38.2879 62.3873 38.2879C62.2671 38.2879 62.0568 38.2683 61.8164 38.2094C61.546 38.1505 61.546 37.9836 61.546 37.9247C61.546 37.6792 61.546 37.4142 61.5661 37.1982L62.1369 30.9445C62.4274 31.5434 62.9582 32.6037 63.3989 33.4774C63.6293 33.9388 63.8296 34.3413 63.9698 34.6162C64.3704 35.4409 65.4321 37.3651 65.8026 38.0228C66.1131 38.5628 66.2233 38.7689 66.4637 38.7689C66.7041 38.7689 66.8042 38.5824 67.1447 37.9148L70.7303 30.7776L71.4414 37.8068C71.4715 38.0326 71.4514 38.1505 71.4414 38.1897C71.3313 38.229 71.2612 38.3272 71.2612 38.4352C71.2612 38.6511 71.5316 38.7002 71.832 38.7199C72.4129 38.7689 74.1657 38.8082 74.5162 38.8082C74.7967 38.8082 74.9769 38.7002 74.9769 38.5333C74.9769 38.3959 74.8668 38.2977 74.7165 38.2977L74.6865 38.2879Z" fill="white"/>
<path d="M82.5483 36.5402C82.318 36.5402 82.2779 36.7464 82.2479 36.874C82.1577 37.4532 81.9474 37.6496 81.6269 37.787C81.2363 37.9343 80.5052 37.9343 80.1045 37.9343C78.5521 37.9343 78.4019 37.7477 78.3718 36.8838C78.3618 36.6776 78.3718 35.7254 78.3718 35.0381C78.3718 34.7633 78.3718 34.5276 78.3718 34.3902V33.1925C78.7424 33.1925 80.2948 33.2121 80.6954 33.2612C81.3064 33.3299 81.3565 33.5066 81.3865 33.6245C81.4466 33.7913 81.4466 33.9288 81.4466 34.0662C81.4466 34.2528 81.5668 34.3411 81.687 34.3411C81.8573 34.3411 81.9674 34.184 81.9674 33.9288C81.9674 33.8404 82.0075 33.2907 82.0375 32.9863C82.0576 32.6722 82.1076 32.4758 82.1377 32.3384C82.1577 32.2598 82.1677 32.2108 82.1677 32.1617C82.1677 31.9751 82.0475 31.9064 81.9374 31.9064C81.8272 31.9064 81.7671 31.9751 81.667 32.0733L81.6069 32.1322C81.4867 32.25 81.2864 32.2697 80.9659 32.2991H80.9258C80.6754 32.3286 79.4535 32.3384 78.3718 32.3384V28.3231V28.3035C78.7424 28.3035 80.3349 28.3231 80.5652 28.3525C81.4166 28.4605 81.5067 28.5587 81.5768 28.7158C81.6369 28.863 81.6569 29.0888 81.6569 29.187C81.6569 29.4914 81.8573 29.511 81.9173 29.511C82.0576 29.511 82.1577 29.3736 82.1978 29.2459C82.2178 29.1379 82.2378 28.8827 82.2679 28.5587C82.2679 28.4311 82.2879 28.3133 82.2879 28.2642C82.308 28.0188 82.348 27.8617 82.3781 27.7537C82.3981 27.6752 82.4081 27.6162 82.4081 27.5672C82.4081 27.3119 82.2378 27.2923 82.1978 27.2923C82.1277 27.2923 82.0576 27.3217 82.0075 27.3414C81.9875 27.3414 81.9674 27.361 81.9574 27.361L81.8573 27.3806C81.707 27.4003 81.4867 27.4395 81.2563 27.4494C81.1562 27.4494 80.7856 27.4494 80.1546 27.4494C79.2933 27.4494 78.1815 27.4494 77.7208 27.4494H77.5105C77.5105 27.4494 77.4003 27.4494 77.2701 27.4494C76.9096 27.4395 76.2185 27.4199 75.6876 27.4199C75.4272 27.4199 75.297 27.5083 75.297 27.6752C75.297 27.8028 75.4272 27.9304 75.5574 27.9304C75.6977 27.9304 75.9581 27.95 76.0783 27.9599C76.4889 28.0188 76.569 28.166 76.5991 28.6471C76.6391 29.1085 76.6391 29.5208 76.6391 31.7984V34.3902C76.6391 35.8235 76.6391 36.9525 76.549 37.5514V37.6005C76.4689 38.0324 76.4288 38.1895 76.2585 38.219C76.1984 38.219 76.1383 38.2386 76.0682 38.2484C75.9681 38.268 75.8679 38.2877 75.7878 38.2877C75.6276 38.2877 75.5274 38.4153 75.5274 38.5429C75.5274 38.6411 75.5775 38.7982 75.918 38.7982C76.1884 38.7982 76.569 38.7785 76.8294 38.7589C77.17 38.7393 77.4604 38.7393 77.5005 38.7393C77.7208 38.7393 78.1415 38.7393 78.7925 38.7785H79.1831C79.8041 38.808 80.5652 38.8276 81.5267 38.8276C82.1477 38.8276 82.3981 38.8276 82.5383 38.3466C82.6285 38.0226 82.7587 37.0114 82.7587 36.8936C82.7587 36.5696 82.5884 36.5304 82.5183 36.5304L82.5483 36.5402Z" fill="white"/>
<path d="M32.11 43.5298H0.0200693V43.9323H32.1V43.5298H32.11Z" fill="white"/>
<path d="M34.3537 44.9631V42.4989H34.4038L36.0964 44.3838V42.4989H36.3468V44.9631H36.2867L34.6141 43.0978V44.9631H34.3537Z" fill="white"/>
<path d="M40.7235 42.4989H40.4729V44.9631H40.7235V42.4989Z" fill="white"/>
<path d="M42.7765 42.4989H43.0269V43.5297H44.3189V42.4989H44.5693V44.9631H44.3189V43.7752H43.0269V44.9631H42.7765V42.4989Z" fill="white"/>
<path d="M46.6024 42.4989L47.7842 44.9631H47.5038L47.1032 44.1482H46.0115L45.6209 44.9631H45.3404L46.5323 42.4989H46.5924H46.6024ZM46.5724 43.0192L46.1417 43.9126H47.003L46.5724 43.0192Z" fill="white"/>
<path d="M48.5657 44.9631V42.4989H48.6258L50.3084 44.3838V42.4989H50.5588V44.9631H50.5087L48.8361 43.0978V44.9631H48.5757H48.5657Z" fill="white"/>
<path d="M51.3798 42.4989H51.6302V43.5297H52.9222V42.4989H53.1726V44.9631H52.9222V43.7752H51.6302V44.9631H51.3798V42.4989Z" fill="white"/>
<path d="M55.2659 42.4989H55.7767C56.0672 42.4989 56.2575 42.5087 56.3576 42.5382C56.4979 42.5775 56.618 42.6462 56.7182 42.7542C56.8083 42.8622 56.8584 42.9996 56.8584 43.1567C56.8584 43.3138 56.8083 43.461 56.7182 43.5592C56.6281 43.6672 56.5079 43.7359 56.3476 43.7752C56.2274 43.8046 56.0171 43.8144 55.7066 43.8144H55.5263V44.9631H55.2759V42.5087L55.2659 42.4989ZM55.5163 42.7444V43.5788H55.947C56.1173 43.5788 56.2475 43.569 56.3276 43.5396C56.4077 43.5101 56.4678 43.461 56.5179 43.3923C56.5579 43.3236 56.588 43.245 56.588 43.1665C56.588 43.088 56.568 43.0094 56.5179 42.9407C56.4678 42.872 56.4077 42.8229 56.3376 42.7934C56.2575 42.764 56.1373 42.7542 55.967 42.7542H55.5163V42.7444Z" fill="white"/>
<path d="M57.64 42.4989H57.8904V43.5297H59.1824V42.4989H59.4328V44.9631H59.1824V43.7752H57.8904V44.9631H57.64V42.4989Z" fill="white"/>
<path d="M60.2338 42.4989H60.4842V43.9813C60.4842 44.1581 60.4842 44.266 60.4842 44.3151C60.4942 44.4133 60.5242 44.4918 60.5743 44.5606C60.6244 44.6293 60.6945 44.6784 60.7846 44.7275C60.8848 44.7667 60.9749 44.7962 61.0751 44.7962C61.1552 44.7962 61.2454 44.7765 61.3155 44.7471C61.3956 44.7078 61.4557 44.6686 61.5058 44.5998C61.5558 44.5409 61.5959 44.4624 61.6159 44.374C61.636 44.3151 61.646 44.1875 61.646 43.9912V42.5087H61.8964V43.9912C61.8964 44.217 61.8763 44.3839 61.8263 44.5311C61.7862 44.6587 61.6961 44.7765 61.5659 44.8845C61.4357 44.9827 61.2754 45.0416 61.0851 45.0416C60.8848 45.0416 60.7045 44.9925 60.5543 44.8944C60.4141 44.7962 60.3139 44.6784 60.2638 44.5213C60.2338 44.4231 60.2137 44.2562 60.2137 44.001V42.5186L60.2338 42.4989Z" fill="white"/>
<path d="M65.1715 42.9604L64.9712 43.1077C64.861 42.9703 64.7308 42.8623 64.5706 42.7936C64.4204 42.7248 64.2501 42.6856 64.0598 42.6856C63.8595 42.6856 63.6692 42.7347 63.4989 42.8328C63.3287 42.9212 63.1884 43.0488 63.0983 43.2157C63.0082 43.3728 62.9581 43.5495 62.9581 43.7458C62.9581 44.0502 63.0682 44.2956 63.2786 44.5018C63.4889 44.7079 63.7593 44.8061 64.0798 44.8061C64.4304 44.8061 64.7308 44.6687 64.9712 44.4036L65.1715 44.5509C65.0413 44.7079 64.8811 44.8257 64.7008 44.9141C64.5105 45.0025 64.3002 45.0417 64.0698 45.0417C63.6291 45.0417 63.2786 44.8945 63.0182 44.6098C62.7978 44.3643 62.6877 44.0796 62.6877 43.736C62.6877 43.3728 62.8179 43.0684 63.0783 42.8328C63.3387 42.5874 63.6592 42.4598 64.0598 42.4598C64.3002 42.4598 64.5105 42.5089 64.7008 42.5972C64.8911 42.6954 65.0513 42.8132 65.1715 42.9801V42.9604Z" fill="white"/>
<path d="M67.2047 44.9631V42.4989H67.2648L68.9474 44.3838V42.4989H69.1978V44.9631H69.1377L67.4651 43.0978V44.9631H67.2047Z" fill="white"/>
<path d="M72.5432 42.9114L72.3429 43.0979C72.2026 42.9605 72.0424 42.8525 71.8821 42.7838C71.7119 42.7151 71.5516 42.6758 71.3914 42.6758C71.1911 42.6758 71.0008 42.7249 70.8205 42.8231C70.6402 42.9212 70.5 43.0489 70.3998 43.2059C70.2997 43.363 70.2496 43.5397 70.2496 43.7164C70.2496 43.8931 70.2997 44.0797 70.3998 44.2466C70.5 44.4135 70.6402 44.5411 70.8205 44.6393C71.0008 44.7374 71.2011 44.7865 71.4114 44.7865C71.6718 44.7865 71.8921 44.7178 72.0724 44.5705C72.2527 44.4331 72.3629 44.2466 72.3929 44.0208H71.5817V43.7852H72.6734C72.6734 44.168 72.5532 44.4626 72.3228 44.6884C72.0925 44.9142 71.782 45.0221 71.4014 45.0221C70.9306 45.0221 70.5601 44.8651 70.2897 44.5509C70.0793 44.3153 69.9792 44.0306 69.9792 43.7263C69.9792 43.4906 70.0393 43.2747 70.1595 43.0783C70.2796 42.8722 70.4499 42.7249 70.6602 42.6071C70.8706 42.4991 71.1109 42.4402 71.3713 42.4402C71.5817 42.4402 71.792 42.4795 71.9823 42.5482C72.1726 42.6267 72.3629 42.7445 72.5432 42.9114Z" fill="white"/>
<path d="M74.7565 42.4989L75.9383 44.9631H75.6679L75.2673 44.1482H74.1756L73.7849 44.9631H73.5045L74.6964 42.4989H74.7565ZM74.7264 43.0192L74.2857 43.9126H75.1471L74.7164 43.0192H74.7264Z" fill="white"/>
<path d="M76.6192 42.4989H77.1199C77.4104 42.4989 77.6007 42.5087 77.7009 42.5382C77.8411 42.5775 77.9613 42.6462 78.0614 42.7542C78.1516 42.8622 78.2016 42.9996 78.2016 43.1567C78.2016 43.3138 78.1616 43.461 78.0614 43.5592C77.9713 43.6672 77.8511 43.7359 77.6908 43.7752C77.5807 43.8046 77.3603 43.8144 77.0498 43.8144H76.8696V44.9631H76.6192V42.5087V42.4989ZM76.8796 42.7444V43.5788H77.3102C77.4905 43.5788 77.6107 43.569 77.6908 43.5396C77.771 43.5101 77.8311 43.461 77.8811 43.3923C77.9312 43.3236 77.9512 43.245 77.9512 43.1665C77.9512 43.088 77.9312 43.0094 77.8811 42.9407C77.8411 42.872 77.781 42.8229 77.7009 42.7934C77.6207 42.764 77.5005 42.7542 77.3303 42.7542H76.8796V42.7444Z" fill="white"/>
<path d="M80.3251 42.7444V42.4989H81.7173V42.7444H81.1564V44.9631H80.896V42.7444H80.3251Z" fill="white"/>
<path d="M82.5186 42.4989H83.0294C83.3098 42.4989 83.5001 42.5087 83.6002 42.5382C83.7505 42.5676 83.8707 42.6462 83.9708 42.7542C84.061 42.8622 84.111 42.9996 84.111 43.1567C84.111 43.2941 84.081 43.4119 84.0109 43.5101C83.9508 43.6083 83.8506 43.6868 83.7304 43.7457C83.6103 43.7948 83.44 43.8243 83.2297 43.8243L84.1411 44.9631H83.8306L82.9192 43.8243H82.779V44.9631H82.5286V42.4989H82.5186ZM82.7689 42.7444V43.5788H83.2096C83.3799 43.5788 83.5101 43.569 83.5802 43.5396C83.6603 43.5101 83.7204 43.461 83.7705 43.3923C83.8106 43.3236 83.8406 43.245 83.8406 43.1665C83.8406 43.088 83.8206 43.0094 83.7705 42.9407C83.7204 42.872 83.6603 42.8229 83.5902 42.7934C83.5101 42.764 83.3899 42.7542 83.2196 42.7542H82.7689V42.7444Z" fill="white"/>
<path d="M39.4513 42.6268C39.4513 42.6268 39.5114 42.5483 39.5314 42.4894C39.5414 42.4403 39.5514 42.3814 39.5514 42.3127H39.251V42.0476H39.7317V42.1163C39.7317 42.1163 39.7317 42.1654 39.7417 42.1949C39.7417 42.2538 39.7417 42.3225 39.7317 42.3912C39.7317 42.4698 39.7117 42.5385 39.6716 42.5974C39.6316 42.6563 39.5815 42.7152 39.5114 42.7545C39.4913 42.7741 39.4713 42.7839 39.4513 42.7937C39.4312 42.8035 39.4112 42.8134 39.3812 42.8232C39.4913 42.941 39.5715 43.0784 39.6316 43.2355C39.6917 43.3926 39.7217 43.5595 39.7217 43.7264C39.7217 44.0994 39.5915 44.4234 39.3411 44.6885C39.0907 44.9535 38.7802 45.0812 38.4197 45.0812C38.0591 45.0812 37.7687 44.9535 37.5083 44.6983C37.2478 44.4332 37.1076 44.1191 37.1076 43.746C37.1076 43.3729 37.2378 43.049 37.4882 42.7839C37.7386 42.5287 38.0491 42.3912 38.4097 42.3912C38.5699 42.3912 38.7201 42.4207 38.8704 42.4796C39.0206 42.5385 39.1508 42.617 39.271 42.7348C39.281 42.7348 39.3111 42.7152 39.3611 42.6857C39.4012 42.6563 39.4312 42.6366 39.4413 42.617L39.4513 42.6268ZM38.4397 42.6563C38.1493 42.6563 37.8989 42.7643 37.6885 42.9803C37.4782 43.1962 37.3781 43.4515 37.3781 43.7656C37.3781 44.0798 37.4782 44.3154 37.6885 44.5216C37.8989 44.7376 38.1493 44.8357 38.4397 44.8357C38.7302 44.8357 38.9705 44.7277 39.1809 44.5118C39.3912 44.2958 39.4913 44.0405 39.4913 43.7264C39.4913 43.4122 39.3812 43.1766 39.1708 42.9606C38.9605 42.7545 38.7201 42.6465 38.4397 42.6465V42.6563Z" fill="white"/>
<path d="M46.7931 45.0913H46.5627V45.4644H46.7931V45.0913Z" fill="white"/>
<path d="M60.9548 42.362L61.4957 41.9693L61.696 42.1362L61.055 42.4602L60.9548 42.3718V42.362Z" fill="white"/>
<path d="M74.1957 42.4892L74.6464 42.1064H74.8467L75.3074 42.4892H75.027L74.7565 42.2732L74.4861 42.4892H74.2057H74.1957ZM74.6263 45.1203H74.8567V45.5031H74.6263V45.1203Z" fill="white"/>
<path d="M55.6667 0C49.8076 0.687212 43.8183 2.58196 43.4177 8.30545C43.2374 10.9856 44.0787 12.9981 45.0202 14.942C42.6364 12.6447 39.2011 10.7991 34.3836 11.2506C37.3182 12.0655 40.7836 13.6264 42.6465 15.6881C43.0371 16.1299 43.618 16.8858 43.4777 17.5337C43.2474 18.6235 41.2042 18.3977 39.9723 18.4566C42.5363 19.4677 45.4108 21.2839 49.0665 21.1661C50.8993 21.1072 52.2414 20.0175 52.1012 17.9951C51.8408 14.3627 49.1165 11.2605 48.8261 7.14701C48.5056 2.51323 51.8308 0.814838 55.5465 0.0589039C55.6267 0.0785386 55.7368 0.0589039 55.7669 0.0392693C55.7969 0.0196346 55.7669 0 55.6667 0Z" fill="white"/>
</g>
<defs>
<clipPath id="clip0_0_263">
<rect width="89.777" height="45.3807" fill="white" transform="scale(1.00249)"/>
</clipPath>
</defs>
</svg>
