<svg width="51" height="22" viewBox="0 0 51 22" fill="none" xmlns="http://www.w3.org/2000/svg">
<path d="M2.57771 9.18707C1.7748 8.76328 1.14088 8.18254 0.686598 7.43437C0.227036 6.68619 0 5.84907 0 4.91255C0 3.97602 0.227036 3.1389 0.686598 2.39073C1.14616 1.64256 1.7748 1.0618 2.57771 0.638013C3.38062 0.214222 4.28397 0.00494738 5.29289 0.00494738C6.30181 0.00494738 7.20503 0.214222 8.00794 0.638013C8.81085 1.0618 9.43949 1.64256 9.89905 2.39073C10.3586 3.1389 10.5858 3.97602 10.5858 4.91255C10.5858 5.84907 10.3586 6.68619 9.89905 7.43437C9.43949 8.18254 8.81085 8.76328 8.00794 9.18707C7.20503 9.61086 6.30181 9.82015 5.29289 9.82015C4.28397 9.82015 3.38062 9.61086 2.57771 9.18707ZM6.5976 7.27218C6.9885 7.0472 7.29487 6.73328 7.52201 6.31995C7.74915 5.91186 7.86002 5.44098 7.86002 4.91255C7.86002 4.38412 7.74915 3.91324 7.52201 3.50514C7.29487 3.09705 6.9885 2.77789 6.5976 2.55292C6.20671 2.32794 5.77358 2.21808 5.29289 2.21808C4.8122 2.21808 4.37365 2.33318 3.98804 2.55292C3.59715 2.77789 3.29078 3.09705 3.06364 3.50514C2.8365 3.91324 2.72563 4.38412 2.72563 4.91255C2.72563 5.44098 2.8365 5.91186 3.06364 6.31995C3.29078 6.72805 3.59715 7.0472 3.98804 7.27218C4.37893 7.49715 4.8122 7.60701 5.29289 7.60701C5.77358 7.60701 6.212 7.49715 6.5976 7.27218Z" fill="white"/>
<path d="M50.9693 0.192948V9.63143H48.7508L44.5459 4.6035V9.63143H41.9048V0.192948H44.1235L48.3282 5.22087V0.192948H50.9693Z" fill="white"/>
<path d="M12.4872 21.3723C11.6949 20.9538 11.0715 20.373 10.6173 19.6248C10.163 18.8767 9.93582 18.0343 9.93582 17.0873C9.93582 16.1403 10.163 15.298 10.6173 14.5498C11.0715 13.8016 11.6949 13.2209 12.4872 12.8023C13.2796 12.3838 14.1776 12.1745 15.176 12.1745C16.0475 12.1745 16.8346 12.3262 17.5319 12.6349C18.2291 12.9384 18.8102 13.3831 19.275 13.9586L17.5583 15.4968C16.9403 14.7591 16.1902 14.3929 15.3133 14.3929C14.7956 14.3929 14.336 14.508 13.9293 14.7277C13.5278 14.9527 13.2109 15.2718 12.989 15.6799C12.7672 16.088 12.6563 16.5589 12.6563 17.0873C12.6563 17.6158 12.7672 18.0866 12.989 18.4947C13.2109 18.9028 13.5225 19.222 13.9293 19.447C14.3307 19.6719 14.7956 19.7818 15.3133 19.7818C16.1955 19.7818 16.9403 19.4156 17.5583 18.6779L19.275 20.2161C18.8102 20.7916 18.2291 21.2311 17.5319 21.5398C16.8346 21.8432 16.0475 22.0002 15.176 22.0002C14.1776 22.0002 13.2796 21.7909 12.4872 21.3723Z" fill="white"/>
<path d="M20.4742 12.3724H23.1681V21.8109H20.4742V12.3724Z" fill="white"/>
<path d="M27.114 14.4874H24.1877V12.3684H31.4456L32.7239 14.4874H29.8081V21.8069H27.114V14.4874Z" fill="white"/>
<path d="M39.0571 18.4258V21.8109H36.3631V18.3839L32.7289 12.3724H35.576L37.8368 16.1185L40.0977 12.3724H42.7124L39.0624 18.4258H39.0571Z" fill="white"/>
<path d="M38.3337 9.63143H41.1387L36.9181 0.192948H34.2611L31.9581 5.36213L34.2664 4.40992L35.5658 2.78277L35.5817 2.84033L38.3337 9.63143Z" fill="white"/>
<path d="M24.7212 2.25433H29.5229V0.192948H22.0485V4.94358L24.7212 5.07962V3.84486V2.25433Z" fill="white"/>
<path d="M24.7214 7.56994V6.70667C23.7494 6.70667 22.8568 7.14615 22.0539 8.01466V9.63134H28.7889L29.708 7.56994H24.7267H24.7214Z" fill="white"/>
<path d="M30.9227 7.68553L30.0563 9.63182H32.8084L34.2188 6.15256C33.3948 6.85364 32.3118 7.46055 30.9278 7.68553H30.9227Z" fill="white"/>
<path d="M33.1732 2.63692C32.2435 4.88668 30.2839 4.91284 29.6922 4.86575C28.8999 4.78204 28.0494 4.56752 27.1409 4.15419C22.0962 1.86782 19.1329 6.50336 19.1329 6.50336C18.5149 7.24107 17.7648 7.60731 16.8879 7.60731C16.3703 7.60731 15.9106 7.49744 15.5039 7.27247C15.1024 7.04749 14.7855 6.73357 14.5636 6.32024C14.3418 5.91215 14.2309 5.44127 14.2309 4.91284C14.2309 4.38441 14.3418 3.91353 14.5636 3.50543C14.7855 3.09734 15.0972 2.77818 15.5039 2.55321C15.9054 2.32823 16.3703 2.21837 16.8879 2.21837C17.7701 2.21837 18.5149 2.5846 19.1329 3.32231L20.8497 1.78411C20.3848 1.20859 19.8037 0.769104 19.1065 0.460417C18.4092 0.156962 17.6222 0 16.7506 0C15.7522 0 14.8542 0.209286 14.0618 0.627844C13.2695 1.0464 12.6462 1.62715 12.1919 2.37532C11.7376 3.1235 11.5106 3.96585 11.5106 4.91284C11.5106 5.85983 11.7376 6.70218 12.1919 7.45035C12.6462 8.19853 13.2695 8.77927 14.0618 9.19783C14.8542 9.61639 15.7522 9.82566 16.7506 9.82566C17.6222 9.82566 18.4092 9.67395 19.1065 9.36526C19.8037 9.0618 20.3848 8.61709 20.8497 8.04157C22.5823 5.69241 24.5156 5.68717 25.477 5.87552C25.8996 5.99062 26.3433 6.13189 26.8187 6.30455C33.3371 8.69556 35.5608 2.77818 35.5608 2.77818L33.1681 2.63169L33.1732 2.63692Z" fill="white"/>
<path d="M33.173 2.63596C32.2433 4.88571 30.2837 4.91188 29.692 4.86479C28.8997 4.78108 28.0492 4.56656 27.1406 4.15323C22.8778 2.22263 20.1046 5.23103 19.3439 6.20941C19.3387 6.21988 19.3334 6.23033 19.3334 6.23033C19.3334 6.23033 21.2931 4.07476 26.6071 6.23033C26.6758 6.25649 26.7498 6.27743 26.8185 6.30359C32.4653 8.37545 34.8845 4.21602 35.4338 3.06499L33.1678 2.63596H33.173Z" fill="url(#paint0_linear_0_5430)"/>
<defs>
<linearGradient id="paint0_linear_0_5430" x1="19.3334" y1="4.75492" x2="35.4391" y2="4.75492" gradientUnits="userSpaceOnUse">
<stop stop-color="#CD644A"/>
<stop offset="0.26" stop-color="#CD644A"/>
<stop offset="0.73" stop-color="#3E4E80"/>
</linearGradient>
</defs>
</svg>
