<svg width="53" height="40" viewBox="0 0 53 40" fill="none" xmlns="http://www.w3.org/2000/svg">
<g clip-path="url(#clip0_0_296)">
<path d="M36.5465 7.39013C36.5465 6.10859 36.0149 4.94651 35.1531 4.09525L31.859 7.39013H36.5465Z" fill="#8BAB80"/>
<path d="M35.054 4.00029C34.1681 3.17222 32.9615 2.65961 31.6297 2.65961V7.16991L35.054 4.00029Z" fill="#8BAB80"/>
<path d="M16.2644 17.4433C16.2644 18.7248 16.7959 19.8869 17.6577 20.7382L20.9519 17.4433H16.2644Z" fill="#8BAB80"/>
<path d="M35.1531 20.7391C36.0137 19.8867 36.5465 18.7258 36.5465 17.4443H31.859L35.1531 20.7391Z" fill="#8BAB80"/>
<path d="M17.7564 20.8344C18.6423 21.6624 19.8488 22.1751 21.1807 22.1751V17.6648L17.7564 20.8344Z" fill="#8BAB80"/>
<path d="M31.6297 17.6638V22.1741C32.9615 22.1741 34.1693 21.6626 35.054 20.8334L31.6297 17.6638Z" fill="#8BAB80"/>
<path d="M17.6577 4.09525C16.7971 4.94767 16.2644 6.10859 16.2644 7.39013H20.9519L17.6577 4.09525Z" fill="#8BAB80"/>
<path d="M21.1807 7.16991V2.65961C19.8488 2.65961 18.6411 3.17106 17.7564 4.00029L21.1807 7.16991Z" fill="#8BAB80"/>
<path d="M26.2944 2.66549C23.6319 2.72348 21.49 4.81452 21.49 7.39035H26.1992L26.2944 2.66549Z" fill="#1B4C3B"/>
<path d="M26.6124 7.39035H31.3216C31.3216 4.81452 29.1798 2.72348 26.5172 2.66549L26.6124 7.39035Z" fill="#1B4C3B"/>
<path d="M31.6302 12.6165V17.1477C34.3072 17.1477 36.4804 15.0868 36.5406 12.5249L31.6302 12.6165Z" fill="#1B4C3B"/>
<path d="M36.5406 12.3086C36.4804 9.74672 34.3072 7.68582 31.6302 7.68582V12.217L36.5406 12.3086Z" fill="#1B4C3B"/>
<path d="M26.1992 17.4433H21.49C21.49 20.0191 23.6319 22.1102 26.2944 22.1681L26.1992 17.4433Z" fill="#1B4C3B"/>
<path d="M21.1812 12.217V7.68582C18.5042 7.68582 16.331 9.74672 16.2708 12.3086L21.1812 12.217Z" fill="#1B4C3B"/>
<path d="M26.5172 22.1691C29.1798 22.1111 31.3216 20.0201 31.3216 17.4443H26.6124L26.5172 22.1691Z" fill="#1B4C3B"/>
<path d="M21.1812 17.1477V12.6165L16.2708 12.5249C16.331 15.0868 18.5042 17.1477 21.1812 17.1477Z" fill="#1B4C3B"/>
<path d="M26.5113 2.36359H30.6636C29.8235 0.964919 28.259 0.0197159 26.4643 0L26.5113 2.36359Z" fill="#C6D486"/>
<path d="M15.9573 12.3142V8.31888C14.5037 9.12839 13.5226 10.6326 13.5009 12.3606L15.9573 12.3154V12.3142Z" fill="#C6D486"/>
<path d="M36.8538 12.3144L39.3103 12.3597C39.2898 10.6328 38.3075 9.12741 36.8538 8.3179V12.3133V12.3144Z" fill="#C6D486"/>
<path d="M26.3471 0C24.5524 0.0197159 22.9879 0.964919 22.1466 2.36359H26.2989L26.3459 0H26.3471Z" fill="#C6D486"/>
<path d="M36.8538 12.5183V16.5137C38.3075 15.7042 39.2886 14.2 39.3103 12.4719L36.8538 12.5172V12.5183Z" fill="#C6D486"/>
<path d="M26.4643 24.8331C28.259 24.8134 29.8235 23.8682 30.6648 22.4695H26.5125L26.4655 24.8331H26.4643Z" fill="#C6D486"/>
<path d="M15.9573 12.5182L13.5009 12.4729C13.5214 14.1998 14.5037 15.7052 15.9573 16.5147V12.5193V12.5182Z" fill="#C6D486"/>
<path d="M26.3004 22.4705H22.1481C22.9894 23.8691 24.5527 24.8132 26.3486 24.8341L26.3016 22.4705H26.3004Z" fill="#C6D486"/>
<path d="M21.9163 31.3698L21.9284 31.3118H22.0067C22.1224 31.3118 22.2237 31.2967 22.308 31.2654C22.3924 31.2341 22.4611 31.1888 22.5154 31.1262C22.5696 31.0636 22.607 30.987 22.6274 30.8943L23.4218 27.2909H22.9276C22.7275 27.2909 22.5612 27.3141 22.431 27.3605C22.3008 27.4069 22.1947 27.4857 22.1152 27.5982C22.0344 27.7107 21.9669 27.8627 21.9103 28.0563L21.856 28.2477H21.7958L22.0549 27.2341H25.4334L25.2466 28.2477H25.1863C25.202 28.1665 25.2141 28.0981 25.2201 28.0424C25.2261 27.9867 25.2309 27.9392 25.2358 27.9009C25.2394 27.8627 25.2418 27.8279 25.2418 27.7965C25.2418 27.6075 25.1875 27.4765 25.0791 27.4022C24.9706 27.3292 24.7898 27.2921 24.5367 27.2921H24.0304L23.2349 30.8954C23.2313 30.9186 23.2265 30.9395 23.2229 30.9592C23.2193 30.9789 23.2168 30.9975 23.2168 31.0172C23.2168 31.1135 23.2542 31.1877 23.3289 31.2375C23.4037 31.2874 23.5146 31.3129 23.6628 31.3129H23.7412L23.7291 31.3709H21.9163V31.3698Z" fill="#1B4C3B"/>
<path d="M27.7632 31.4276C27.5872 31.4276 27.451 31.3731 27.357 31.2629C27.2629 31.1527 27.2159 31.0147 27.2159 30.8489C27.2159 30.7561 27.2244 30.6471 27.2425 30.5218C27.2605 30.3966 27.2895 30.2446 27.3304 30.0672L27.4329 29.6149C27.4449 29.5604 27.4606 29.4919 27.4811 29.4096C27.5016 29.3261 27.5197 29.2356 27.5353 29.1371C27.551 29.0385 27.5595 28.9445 27.5595 28.8564C27.5595 28.7868 27.551 28.7149 27.5353 28.6395C27.5197 28.5641 27.4883 28.5004 27.4425 28.4482C27.3967 28.396 27.3268 28.3705 27.2352 28.3705C27.1231 28.3705 27.011 28.4087 26.9014 28.4864C26.7905 28.5641 26.6892 28.6604 26.5976 28.7764C26.506 28.8924 26.4277 29.013 26.3662 29.1382C26.3047 29.2635 26.2625 29.3725 26.2432 29.4653L25.8214 31.3719H25.2609L26.0866 27.6062C26.107 27.5285 26.1203 27.4624 26.1287 27.4067C26.1372 27.351 26.1408 27.3151 26.1408 27.2988C26.1408 27.1829 26.0998 27.1086 26.0166 27.0762C25.9347 27.0437 25.8346 27.0275 25.7189 27.0275H25.6707L25.6828 26.9695H26.7905L26.5554 28.0353C26.5313 28.1397 26.5084 28.2406 26.4855 28.3392C26.4626 28.4377 26.4409 28.5305 26.4192 28.6175C26.3975 28.7045 26.3782 28.781 26.3614 28.846C26.3457 28.9121 26.3312 28.9619 26.3192 28.9967H26.3433C26.4554 28.8274 26.5711 28.6836 26.6892 28.5676C26.8073 28.4516 26.9327 28.3635 27.0653 28.3044C27.1979 28.2452 27.3401 28.2151 27.4932 28.2151C27.6535 28.2151 27.78 28.2452 27.8728 28.3044C27.9656 28.3635 28.0319 28.4424 28.0741 28.5386C28.1163 28.6349 28.1368 28.7416 28.1368 28.8576C28.1368 28.9538 28.1235 29.0594 28.0982 29.173C28.0717 29.2867 28.0488 29.3945 28.0295 29.4943L27.8728 30.1785C27.8487 30.2864 27.8294 30.3931 27.815 30.4975C27.8005 30.6018 27.7945 30.6981 27.7945 30.7874C27.7945 30.9266 27.821 31.0321 27.8728 31.1063C27.9247 31.1794 28.003 31.2165 28.1079 31.2165C28.1597 31.2165 28.2151 31.2014 28.273 31.1724C28.3309 31.1434 28.3947 31.104 28.4622 31.0541L28.4984 31.1005C28.4345 31.1504 28.3646 31.2014 28.2911 31.2536C28.2164 31.3058 28.1368 31.3487 28.05 31.3812C27.9632 31.4137 27.868 31.4299 27.7644 31.4299L27.7632 31.4276Z" fill="#1B4C3B"/>
<path d="M30.0039 31.4278C29.7906 31.4278 29.5953 31.3837 29.4169 31.2944C29.2385 31.2051 29.0963 31.0729 28.989 30.8978C28.883 30.7215 28.8299 30.4988 28.8299 30.2286C28.8299 30.0593 28.8552 29.8807 28.9059 29.6928C28.9565 29.5061 29.0288 29.324 29.1252 29.1477C29.2217 28.9714 29.3422 28.8126 29.4868 28.6699C29.6315 28.5273 29.799 28.4136 29.9894 28.3313C30.1799 28.2478 30.392 28.2072 30.6246 28.2072C30.8778 28.2072 31.0742 28.2663 31.2153 28.3834C31.3563 28.5017 31.4262 28.6641 31.4262 28.8729C31.4262 29.0584 31.3514 29.2312 31.2008 29.3913C31.0501 29.5513 30.844 29.6812 30.5837 29.7821C30.3233 29.883 30.028 29.9329 29.699 29.9329H29.488C29.4844 29.9677 29.4784 30.0048 29.4724 30.0431C29.4663 30.0813 29.4627 30.1219 29.4603 30.1625C29.4579 30.2031 29.4567 30.2414 29.4567 30.275C29.4567 30.507 29.4796 30.7041 29.5266 30.8688C29.5724 31.0335 29.6411 31.1576 29.7315 31.2423C29.8219 31.3269 29.9316 31.3698 30.0594 31.3698C30.2884 31.3698 30.4704 31.3026 30.6066 31.1669C30.7428 31.0312 30.8476 30.8584 30.9199 30.645C30.9597 30.6566 30.9911 30.6763 31.0128 30.7053C31.0345 30.7343 31.0453 30.7725 31.0453 30.8178C31.0453 30.8908 31.0079 30.9767 30.9344 31.0729C30.8609 31.1692 30.7464 31.2527 30.5945 31.3223C30.4414 31.3919 30.245 31.4267 30.0039 31.4267V31.4278ZM29.6604 29.8749C29.8376 29.8749 29.9967 29.8505 30.1389 29.803C30.2811 29.7543 30.4017 29.6847 30.5005 29.5942C30.5993 29.5038 30.6741 29.3936 30.7259 29.2637C30.7777 29.1338 30.8042 28.99 30.8042 28.8323C30.8042 28.6514 30.7765 28.5122 30.7199 28.4148C30.6632 28.3185 30.5837 28.2698 30.4788 28.2698C30.3583 28.2698 30.2462 28.3173 30.1413 28.4113C30.0365 28.5064 29.9424 28.6328 29.8581 28.7905C29.7737 28.9482 29.7014 29.1222 29.6411 29.3124C29.5808 29.5015 29.5326 29.6893 29.4965 29.8749H29.6592H29.6604Z" fill="#1B4C3B"/>
<path d="M0 39.9067V39.8127H0.204904C0.361595 39.8127 0.492975 39.7907 0.600248 39.7466C0.707521 39.7026 0.789483 39.6341 0.844927 39.5402C0.900372 39.4463 0.928094 39.321 0.928094 39.1644V33.9096C0.928094 33.7588 0.900372 33.6382 0.844927 33.5477C0.789483 33.4573 0.707521 33.3912 0.600248 33.3506C0.492975 33.31 0.361595 33.2891 0.204904 33.2891H0V33.1952H2.98919V33.2891H2.78428C2.63482 33.2891 2.50465 33.3111 2.39376 33.3552C2.28287 33.3993 2.1997 33.47 2.14426 33.5674C2.08881 33.6649 2.06109 33.7913 2.06109 33.9478V37.0409L4.48378 34.4373C4.60793 34.305 4.70917 34.1902 4.78632 34.0893C4.86466 33.9896 4.92372 33.9003 4.96229 33.8214C5.00086 33.7426 5.02135 33.673 5.02135 33.6092C5.02135 33.5338 4.98881 33.4735 4.92372 33.4259C4.85863 33.3784 4.75739 33.3459 4.62119 33.3274C4.48378 33.3088 4.30539 33.2995 4.08362 33.2995V33.1963H6.31104V33.2995C6.16158 33.2995 6.01815 33.3227 5.88074 33.3703C5.74454 33.4178 5.59749 33.5037 5.4408 33.6289C5.28411 33.7542 5.09488 33.9362 4.8743 34.174L3.38935 35.7629L5.49022 38.7237C5.63968 38.9371 5.77226 39.1134 5.88556 39.2549C6.00007 39.3964 6.10132 39.5077 6.1881 39.5889C6.27609 39.6701 6.35564 39.7281 6.42796 39.7629C6.49907 39.7977 6.57501 39.8151 6.65215 39.8151H6.67143V39.909H6.44604C6.10734 39.909 5.82891 39.8951 5.61075 39.8661C5.39259 39.8383 5.21179 39.793 5.06836 39.7292C4.92493 39.6666 4.79957 39.5808 4.6923 39.4706C4.58503 39.3616 4.47534 39.2213 4.36566 39.0519L2.63603 36.5701L2.05989 37.1905V39.1552C2.05989 39.3117 2.08761 39.4393 2.14305 39.5356C2.1985 39.633 2.28167 39.7037 2.39255 39.7466C2.50344 39.7907 2.63362 39.8127 2.78308 39.8127H2.98798V39.9067H0Z" fill="#8BAB80"/>
<path d="M10.0739 40.0003C9.36996 40.0003 8.78538 39.8565 8.32012 39.5677C7.85487 39.279 7.50774 38.8754 7.27994 38.3546C7.05213 37.8339 6.93763 37.2262 6.93763 36.5303C6.93763 35.8345 7.05093 35.2302 7.27994 34.7165C7.50774 34.2027 7.85608 33.8026 8.32495 33.5173C8.79381 33.232 9.3808 33.0893 10.0835 33.0893C10.7862 33.0893 11.3226 33.232 11.789 33.5173C12.2543 33.8026 12.6086 34.2039 12.8497 34.7211C13.0908 35.2384 13.2113 35.8449 13.2113 36.5396C13.2113 37.2343 13.0896 37.842 12.8449 38.3593C12.6002 38.8765 12.2458 39.279 11.7794 39.5677C11.3141 39.8565 10.7452 40.0003 10.0739 40.0003ZM10.0739 39.9064C10.4065 39.9064 10.6922 39.8426 10.9333 39.7139C11.1743 39.5851 11.3696 39.3845 11.519 39.1119C11.6685 38.8394 11.7818 38.4903 11.8565 38.0635C11.9313 37.6379 11.9686 37.1299 11.9686 36.5408C11.9686 35.9516 11.9313 35.446 11.8565 35.0226C11.7818 34.5993 11.6697 34.2514 11.519 33.9789C11.3696 33.7063 11.1755 33.5057 10.9381 33.3769C10.7006 33.2482 10.415 33.1844 10.0835 33.1844C9.75204 33.1844 9.46518 33.2482 9.22411 33.3769C8.98305 33.5057 8.78417 33.7063 8.62748 33.9789C8.47079 34.2514 8.35508 34.5993 8.28035 35.0226C8.20562 35.446 8.16825 35.9516 8.16825 36.5408C8.16825 37.1299 8.20562 37.6379 8.28035 38.0635C8.35508 38.4903 8.46958 38.8394 8.62266 39.1119C8.77573 39.3845 8.9722 39.5851 9.21447 39.7139C9.45553 39.8426 9.7424 39.9064 10.0739 39.9064Z" fill="#8BAB80"/>
<path d="M14.0997 39.9067V39.8127H14.5782C14.7276 39.8127 14.8566 39.7907 14.9639 39.7466C15.0711 39.7026 15.1531 39.6341 15.2086 39.5402C15.264 39.4463 15.2917 39.321 15.2917 39.1644V33.9096C15.2917 33.7588 15.264 33.6382 15.2086 33.5477C15.1531 33.4573 15.0711 33.3912 14.9639 33.3506C14.8566 33.31 14.7276 33.2891 14.5782 33.2891H14.0997V33.1952H16.2789L18.6341 38.704L20.6566 33.1952H22.62V33.2891H22.4151C22.2585 33.2891 22.1271 33.3111 22.0198 33.3552C21.9125 33.3993 21.8306 33.47 21.7751 33.5674C21.7197 33.6649 21.692 33.7913 21.692 33.9478V39.1563C21.692 39.3129 21.7197 39.4405 21.7751 39.5367C21.8306 39.6341 21.9125 39.7049 22.0198 39.7478C22.1271 39.7907 22.2585 39.8139 22.4151 39.8139H22.62V39.9078H19.8743V39.8139H19.9238C20.0612 39.8139 20.1793 39.7919 20.2805 39.7478C20.3818 39.7037 20.4601 39.6353 20.5156 39.5414C20.571 39.4474 20.5987 39.3245 20.5987 39.1749V33.6463L18.3122 39.9078H18.0097L15.3918 33.7495V39.1552C15.3918 39.3117 15.4207 39.4393 15.4797 39.5356C15.5388 39.6318 15.6268 39.7037 15.7437 39.7466C15.8606 39.7907 16.0041 39.8127 16.174 39.8127H16.4078V39.9067H14.1021H14.0997Z" fill="#8BAB80"/>
<path d="M26.645 40.0003C25.9411 40.0003 25.3565 39.8565 24.8912 39.5677C24.426 39.279 24.0789 38.8754 23.8511 38.3546C23.6233 37.8339 23.5087 37.2262 23.5087 36.5303C23.5087 35.8345 23.622 35.2302 23.8511 34.7165C24.0789 34.2027 24.4272 33.8026 24.8961 33.5173C25.3649 33.232 25.9519 33.0893 26.6546 33.0893C27.3573 33.0893 27.8937 33.232 28.3601 33.5173C28.8254 33.8026 29.1798 34.2039 29.4208 34.7211C29.6619 35.2384 29.7824 35.8449 29.7824 36.5396C29.7824 37.2343 29.6607 37.842 29.416 38.3593C29.1713 38.8765 28.817 39.279 28.3505 39.5677C27.8853 39.8565 27.3163 40.0003 26.645 40.0003ZM26.645 39.9064C26.9777 39.9064 27.2633 39.8426 27.5044 39.7139C27.7454 39.5851 27.9407 39.3845 28.0902 39.1119C28.2396 38.8394 28.3529 38.4903 28.4276 38.0635C28.5024 37.6379 28.5397 37.1299 28.5397 36.5408C28.5397 35.9516 28.5024 35.446 28.4276 35.0226C28.3529 34.5993 28.2408 34.2514 28.0902 33.9789C27.9407 33.7063 27.7466 33.5057 27.5092 33.3769C27.2717 33.2482 26.9861 33.1844 26.6546 33.1844C26.3232 33.1844 26.0363 33.2482 25.7952 33.3769C25.5542 33.5057 25.3553 33.7063 25.1986 33.9789C25.0419 34.2514 24.9262 34.5993 24.8515 35.0226C24.7767 35.446 24.7394 35.9516 24.7394 36.5408C24.7394 37.1299 24.7767 37.6379 24.8515 38.0635C24.9262 38.4903 25.0407 38.8394 25.1938 39.1119C25.3469 39.3845 25.5433 39.5851 25.7856 39.7139C26.0267 39.8426 26.3135 39.9064 26.645 39.9064Z" fill="#8BAB80"/>
<path d="M30.6703 39.9067V39.8127H30.8752C31.0319 39.8127 31.1633 39.7907 31.2705 39.7466C31.3778 39.7026 31.4598 39.6341 31.5152 39.5402C31.5707 39.4463 31.5984 39.321 31.5984 39.1644V33.9096C31.5984 33.7588 31.5707 33.6382 31.5152 33.5477C31.4598 33.4573 31.3778 33.3912 31.2705 33.3506C31.1633 33.31 31.0319 33.2891 30.8752 33.2891H30.6703V33.1952H33.4449C34.0247 33.1952 34.5032 33.2624 34.8817 33.397C35.2589 33.5315 35.541 33.7298 35.7266 33.9896C35.9122 34.2494 36.005 34.5683 36.005 34.9441C36.005 35.3198 35.9303 35.597 35.7796 35.8324C35.6302 36.0679 35.4397 36.2523 35.2083 36.3868C34.9769 36.5213 34.7346 36.6269 34.4803 36.7023L35.77 38.6959C35.9194 38.9209 36.0484 39.1076 36.1557 39.2549C36.263 39.4022 36.3594 39.517 36.4438 39.5982C36.5281 39.6794 36.6065 39.7362 36.6788 39.7675C36.7499 39.7988 36.8258 39.8151 36.903 39.8151H36.9319V39.909H36.7367C36.4365 39.909 36.1846 39.8986 35.9797 39.8765C35.7748 39.8545 35.6012 39.8139 35.4614 39.7548C35.3216 39.6956 35.1963 39.6086 35.0854 39.4961C34.9745 39.3836 34.8612 39.2363 34.7431 39.0543L33.3075 36.7788H32.7314V39.1668C32.7314 39.3233 32.7591 39.4486 32.8146 39.5425C32.87 39.6365 32.9532 39.706 33.0641 39.749C33.1749 39.793 33.3051 39.8151 33.4546 39.8151H33.6595V39.909H30.6703V39.9067ZM33.3871 36.6826C33.7258 36.6826 33.9982 36.6257 34.2031 36.5132C34.408 36.4007 34.5574 36.2221 34.6527 35.9774C34.7467 35.7327 34.7937 35.4103 34.7937 35.009C34.7937 34.6077 34.7443 34.2714 34.6466 34.0174C34.549 33.7634 34.3959 33.579 34.1874 33.4631C33.9789 33.3471 33.7053 33.2891 33.3666 33.2891H32.7314V36.6826H33.3859H33.3871Z" fill="#8BAB80"/>
<path d="M37.2179 39.9067V39.8127H37.4228C37.5795 39.8127 37.7109 39.7907 37.8181 39.7466C37.9254 39.7026 38.0074 39.6341 38.0628 39.5402C38.1183 39.4463 38.146 39.321 38.146 39.1644V33.9188C38.146 33.7681 38.1183 33.6463 38.0628 33.5524C38.0074 33.4584 37.9254 33.3912 37.8181 33.3506C37.7109 33.31 37.5795 33.2891 37.4228 33.2891H37.2179V33.1952H42.2694L42.3284 34.8594H42.2308L42.2115 34.5486C42.185 34.2355 42.1247 33.9861 42.0307 33.8017C41.9355 33.6173 41.7885 33.4851 41.586 33.4074C41.3847 33.3285 41.1171 33.2903 40.7844 33.2903H39.2898V36.3462H41.7029V36.4402H39.2898V39.8151H41.0484C41.4003 39.8151 41.6812 39.7756 41.8933 39.6979C42.1055 39.6191 42.2597 39.488 42.3574 39.3036C42.455 39.1192 42.5165 38.8699 42.543 38.5567L42.5623 38.2471H42.6599L42.5912 39.9113H37.2179V39.9067Z" fill="#8BAB80"/>
<path d="M43.3828 39.9067V39.8127H43.5877C43.7444 39.8127 43.8758 39.7907 43.9831 39.7466C44.0903 39.7026 44.1723 39.633 44.2277 39.5356C44.2832 39.4381 44.3109 39.3117 44.3109 39.1552V33.9188C44.3109 33.7681 44.2832 33.6475 44.2277 33.557C44.1723 33.4665 44.0891 33.3993 43.9782 33.3552C43.8674 33.3111 43.7372 33.2891 43.5877 33.2891H43.3828V33.1952H46.0695C46.9289 33.1952 47.5761 33.332 48.0088 33.6046C48.4415 33.8771 48.6585 34.2795 48.6585 34.813C48.6585 35.1262 48.585 35.3929 48.4379 35.6121C48.2909 35.8313 48.0751 36.0018 47.7883 36.1247C47.5014 36.2465 47.1434 36.3242 46.7131 36.3555V36.3741C47.4881 36.3996 48.0546 36.5631 48.4138 36.8681C48.7718 37.172 48.9514 37.5848 48.9514 38.1044C48.9514 38.7063 48.7368 39.1575 48.3065 39.4579C47.8762 39.7582 47.2278 39.909 46.3624 39.909H43.3828V39.9067ZM46.0405 36.3439C46.3792 36.3439 46.6516 36.294 46.8565 36.1931C47.0615 36.0934 47.2109 35.9345 47.3061 35.7188C47.4001 35.5031 47.4484 35.2155 47.4484 34.8583C47.4484 34.2877 47.3399 33.8841 47.1217 33.6451C46.9036 33.4074 46.5371 33.2879 46.0225 33.2879H45.4463V36.3439H46.043H46.0405ZM46.3142 39.8127C46.8288 39.8127 47.1952 39.6805 47.4134 39.4184C47.6316 39.1552 47.74 38.7202 47.74 38.1114C47.74 37.7043 47.693 37.3796 47.5978 37.1383C47.5038 36.8971 47.3531 36.7197 47.1482 36.6072C46.9433 36.4947 46.6709 36.4378 46.3322 36.4378H45.4427V39.8127H46.3129H46.3142Z" fill="#8BAB80"/>
<path d="M49.8216 39.9067V39.8127H50.0265C50.1832 39.8127 50.3146 39.7907 50.4219 39.7466C50.5292 39.7026 50.6111 39.633 50.6666 39.5356C50.722 39.4381 50.7497 39.3117 50.7497 39.1552V33.9188C50.7497 33.7681 50.722 33.6463 50.6666 33.5524C50.6111 33.4584 50.5292 33.3912 50.4219 33.3506C50.3146 33.31 50.1832 33.2891 50.0265 33.2891H49.8216V33.1952H52.8108V33.2891H52.6059C52.4565 33.2891 52.3263 33.3111 52.2154 33.3552C52.1045 33.3993 52.0238 33.47 51.9707 33.5674C51.9189 33.6649 51.8924 33.7913 51.8924 33.9478V39.1563C51.8924 39.3129 51.9177 39.4405 51.9707 39.5367C52.0226 39.6341 52.1045 39.7049 52.2154 39.7478C52.3263 39.7919 52.4565 39.8139 52.6059 39.8139H52.8108V39.9078H49.8216V39.9067Z" fill="#8BAB80"/>
<path d="M25.695 12.1342L22.7854 9.22436C22.0285 10.0188 21.5512 11.0614 21.4993 12.2119L25.6938 12.1342H25.695Z" fill="#8BAB80"/>
<path d="M26.1928 7.6966C24.9971 7.74647 23.9135 8.20458 23.0879 8.93407L26.112 11.7337L26.1928 7.69776V7.6966Z" fill="#8BAB80"/>
<path d="M26.7004 11.7337L29.7245 8.93407C28.8989 8.20574 27.8153 7.74647 26.6196 7.6966L26.7004 11.7326V11.7337Z" fill="#8BAB80"/>
<path d="M31.3107 12.2119C31.2589 11.0614 30.7828 10.0188 30.0246 9.22436L27.115 12.1342L31.3095 12.2119H31.3107Z" fill="#8BAB80"/>
<path d="M26.7004 13.1013L26.6196 17.1372C27.8153 17.0874 28.8989 16.6292 29.7245 15.8998L26.7004 13.1001V13.1013Z" fill="#8BAB80"/>
<path d="M25.6948 12.6996L21.5003 12.6219C21.5521 13.7724 22.0282 14.815 22.7864 15.6094L25.696 12.6996H25.6948Z" fill="#8BAB80"/>
<path d="M27.116 12.6996L30.0256 15.6094C30.7826 14.815 31.2599 13.7724 31.3117 12.6219L27.1172 12.6996H27.116Z" fill="#8BAB80"/>
<path d="M26.111 13.1011L23.0869 15.9007C23.9125 16.6291 24.9961 17.0883 26.1918 17.1382L26.111 13.1022V13.1011Z" fill="#8BAB80"/>
</g>
<defs>
<clipPath id="clip0_0_296">
<rect width="52.6279" height="39.8614" fill="white" transform="scale(1.00348)"/>
</clipPath>
</defs>
</svg>
