<svg width="63" height="39" viewBox="0 0 63 39" fill="none" xmlns="http://www.w3.org/2000/svg">
<mask id="mask0_0_5142" style="mask-type:luminance" maskUnits="userSpaceOnUse" x="0" y="24" width="45" height="15">
<path d="M43.3778 37.8024H43.6092C43.6927 37.8024 43.7633 37.8215 43.8083 37.8533C43.8533 37.8915 43.8726 37.9424 43.8726 38.0061C43.8726 38.0697 43.8468 38.127 43.8083 38.1588C43.7633 38.197 43.6992 38.2161 43.6092 38.2161H43.3778V37.796V37.8024ZM43.2428 37.6814V38.6107H43.3778V38.3307H43.6092C43.6092 38.3307 43.6412 38.3307 43.6669 38.3307L43.8726 38.6171H44.0204L43.7956 38.3052C43.8598 38.2798 43.9112 38.2479 43.9498 38.197C43.9884 38.1461 44.0011 38.0825 44.0011 38.0124C44.0011 37.9106 43.969 37.8342 43.8983 37.7769C43.8276 37.7196 43.7313 37.6878 43.6092 37.6878H43.2428V37.6814ZM42.8829 38.1525C42.8829 37.7578 43.2108 37.4332 43.6156 37.4332C44.0205 37.4332 44.3481 37.7515 44.3481 38.1525C44.3481 38.5535 44.0205 38.8654 43.6156 38.8654C43.2108 38.8654 42.8829 38.5471 42.8829 38.1525ZM42.8123 38.1525C42.8123 38.5789 43.1722 38.9354 43.6092 38.9354C44.0462 38.9354 44.406 38.5853 44.406 38.1525C44.406 37.7196 44.0462 37.3696 43.6092 37.3696C43.1722 37.3696 42.8123 37.7196 42.8123 38.1525ZM11.6639 24.0156L7.82723 34.1106L4.5113 36.122L3.59881 34.6644L7.66014 24.0156H1.2724L2.61556 26.1988L0 33.0667L3.61811 38.9163L12.2036 33.6333L14.7548 26.9308L12.9619 24.0092H11.6575L11.6639 24.0156ZM15.0762 24.0156L16.5864 26.4407L11.8308 38.929H16.0337L19.1955 30.6607L21.9396 35.0972L27.9031 31.4309L25.0434 38.9227H29.2849L33.9118 26.7844L32.6587 24.7666L23.5975 30.3234L19.7031 24.0092H15.0633L15.0762 24.0156Z" fill="white"/>
</mask>
<g mask="url(#mask0_0_5142)">
<path d="M0.382343 20.5964L-1.0676 38.8588L44.2391 42.3934L45.6891 24.131L0.382343 20.5964Z" fill="white"/>
</g>
<mask id="mask1_0_5142" style="mask-type:luminance" maskUnits="userSpaceOnUse" x="31" y="0" width="32" height="39">
<path d="M36.0065 26.5298L31.2766 38.929H35.5116L41.1926 24.0155H34.4513L36.0065 26.5298ZM39.3803 0.0827495L39.5988 4.79292C39.6117 5.11118 39.7338 5.4167 39.9395 5.63948L49.7396 16.5938C49.836 16.702 49.8488 16.8612 49.7909 16.9948C49.7781 17.0267 49.7653 17.0585 49.7396 17.0839C49.6818 17.154 49.5982 17.1858 49.5211 17.1858C49.4439 17.1858 49.3668 17.154 49.3089 17.0839L49.1933 16.9566L39.8108 6.46695C39.7658 6.41603 39.6823 6.45421 39.6823 6.53059L39.8237 9.52856C39.8429 9.9041 39.9908 10.2542 40.2415 10.5024L45.8002 16.0846C45.9287 16.2119 45.9416 16.4283 45.8259 16.5684C45.7681 16.6448 45.6909 16.6829 45.6074 16.6829C45.5302 16.6829 45.4532 16.6575 45.3954 16.6002L40.0294 11.2089C39.9779 11.158 39.9009 11.2089 39.9073 11.279L40.0808 14.818C40.1001 15.1808 40.2607 15.5563 40.4985 15.8046C41.5331 16.8739 46.2244 21.7114 47.1691 22.7234C47.439 23.0162 47.7153 23.3281 47.9338 23.6082C48.525 24.3593 48.7628 25.0403 48.7757 25.7341C48.8206 27.8601 47.1047 29.3877 44.6048 30.6161C42.8119 31.4945 39.2775 32.6657 39.3867 38.9353C41.1154 36.2302 43.8016 34.9444 46.1215 33.9642C48.5185 32.9458 51.5261 31.5327 53.0362 30.4061C54.4115 29.3813 55.4912 28.2929 56.1466 26.8862C57.1427 25.0785 57.6953 24.0283 58.2865 22.7807C59.4882 20.2347 61.429 18.5416 62.952 18.5352C62.997 18.5352 63.0163 18.4779 62.9842 18.4461C61.9496 17.4913 60.5936 16.9121 59.0962 16.9121C58.5821 16.9121 58.081 16.9821 57.599 17.1158C56.4873 17.4213 55.3947 18.166 54.6428 19.0253L54.1287 18.3633C53.8652 18.0005 39.5023 0.0318275 39.5023 0.0318275C39.4895 0.0127322 39.4703 0 39.4446 0C39.4061 0 39.3674 0.0318251 39.3674 0.0891111" fill="white"/>
</mask>
<g mask="url(#mask1_0_5142)">
<path d="M31.5808 -2.45191L28.3026 38.7043L62.924 41.3966L66.2022 0.240314L31.5808 -2.45191Z" fill="white"/>
</g>
<mask id="mask2_0_5142" style="mask-type:luminance" maskUnits="userSpaceOnUse" x="54" y="18" width="6" height="9">
<path d="M55.5229 18.1722C55.2466 18.3949 54.8931 18.7386 54.6489 19.0187C55.0152 19.4961 55.4457 20.0499 55.4457 20.0499C56.2298 21.1001 57.0202 22.895 56.7567 24.7855C56.6475 25.5684 56.4419 26.2558 56.1463 26.886C57.1424 25.0783 57.6949 24.028 58.2861 22.7805C58.7424 21.8194 59.2951 20.9792 59.8991 20.3108C58.9995 19.0123 57.5214 18.1658 55.857 18.1658C55.7413 18.1658 55.6322 18.1658 55.5229 18.1785" fill="white"/>
</mask>
<g mask="url(#mask2_0_5142)">
<path d="M54.7902 17.7743L54.0691 26.8483L59.976 27.3088L60.697 18.2347L54.7902 17.7743Z" fill="white"/>
</g>
</svg>
