<svg width="61" height="41" viewBox="0 0 61 41" fill="none" xmlns="http://www.w3.org/2000/svg">
<path d="M19.169 22.4665L18.2214 19.8554H18.5459L19.3303 22.0759L20.1166 19.8554H20.4252L19.4776 22.4665H19.169Z" fill="white"/>
<path d="M21.622 22.4665V19.8554H21.9129V22.4665H21.622Z" fill="white"/>
<path d="M23.3837 22.4665V19.8554H23.6664L25.0261 21.9828V19.8554H25.3028V22.4665H25.0201L23.6584 20.3372V22.4665H23.3837Z" fill="white"/>
<path d="M26.7735 22.4665V19.8554H27.0642V20.9855H28.4039V19.8554H28.6966V22.4665H28.4039V21.2631H27.0642V22.4665H26.7735Z" fill="white"/>
<path d="M30.3789 20.2049C30.6437 19.9412 30.9682 19.8123 31.3524 19.8123C31.7366 19.8123 32.0651 19.9412 32.3298 20.2049C32.5946 20.4666 32.724 20.7838 32.724 21.1605C32.724 21.5372 32.5946 21.8584 32.3298 22.1221C32.0631 22.3838 31.7406 22.5127 31.3524 22.5127C30.9642 22.5127 30.6397 22.3838 30.3749 22.1221C30.1121 21.8584 29.9827 21.5392 29.9827 21.1605C29.9827 20.7818 30.1121 20.4666 30.3789 20.2049ZM32.1108 20.4032C31.9038 20.195 31.651 20.0919 31.3524 20.0919C31.0538 20.0919 30.8009 20.195 30.5959 20.4032C30.3908 20.6074 30.2913 20.8592 30.2913 21.1605C30.2913 21.4619 30.3908 21.7176 30.5959 21.9258C30.8009 22.132 31.0498 22.2351 31.3524 22.2351C31.655 22.2351 31.9038 22.132 32.1108 21.9258C32.3159 21.7176 32.4194 21.4619 32.4194 21.1605C32.4194 20.8592 32.3159 20.6113 32.1108 20.4032Z" fill="white"/>
<path d="M34.0141 22.4665V19.8554H34.3645L35.3638 21.9867L36.3632 19.8554H36.7036V22.4665H36.4189V20.357L35.4196 22.4705H35.2961L34.2968 20.3451V22.4665H34.0141Z" fill="white"/>
<path d="M38.1727 22.4665V19.8554H39.7454V20.123H38.4614V21.0073H39.6558V21.2631H38.4614V22.1989H39.7633V22.4665H38.1708H38.1727Z" fill="white"/>
<path d="M42.7276 20.6252H42.429C42.3991 20.2644 42.1841 20.0721 41.8138 20.0721C41.4854 20.0721 41.2604 20.2386 41.2604 20.4924C41.2604 20.7145 41.3619 20.8374 41.7362 20.9425L42.0667 21.0337C42.6002 21.1824 42.7794 21.3826 42.7794 21.7355C42.7794 21.9774 42.6957 22.1657 42.5325 22.3045C42.3732 22.4433 42.1523 22.5127 41.8795 22.5127C41.2724 22.5127 40.91 22.1915 40.8901 21.6245H41.1868C41.2047 22.0289 41.4515 22.251 41.8736 22.251C42.2578 22.251 42.4807 22.0706 42.4807 21.7534C42.4807 21.6423 42.4429 21.5531 42.3713 21.4817C42.3016 21.4123 42.1543 21.3489 41.9393 21.2855L41.6645 21.2061C41.3978 21.1328 41.2166 21.0396 41.1151 20.9306C41.0156 20.8215 40.9658 20.6788 40.9658 20.5043C40.9658 20.3001 41.0454 20.1335 41.2047 20.0027C41.3659 19.8718 41.571 19.8104 41.8158 19.8104C42.3573 19.8104 42.6918 20.1038 42.7256 20.6233L42.7276 20.6252Z" fill="white"/>
<path d="M22.6722 9.94286V14.5902C22.1984 14.84 21.8003 15.0918 21.4678 15.3277V11.5627C21.864 11.0095 22.2661 10.4683 22.6722 9.94485V9.94286Z" fill="#B69D6E"/>
<path d="M25.0814 8.98176V13.6132C24.6474 13.7421 24.2472 13.8868 23.877 14.0355V10.4271C24.2731 9.93144 24.6753 9.44966 25.0814 8.98176Z" fill="#B69D6E"/>
<path d="M27.49 8.36908V13.0818C27.068 13.1433 26.6678 13.2166 26.2856 13.2999V9.63797C26.6857 9.1998 27.0859 8.7775 27.49 8.36908Z" fill="#B69D6E"/>
<path d="M29.8986 8.10678V12.879C29.4806 12.8889 29.0805 12.9107 28.6943 12.9444V9.2012C29.0944 8.82053 29.4965 8.45771 29.8986 8.10678Z" fill="#B69D6E"/>
<path d="M32.3053 8.19388V12.9443C31.9191 12.9126 31.519 12.8908 31.1009 12.8789V9.11383C31.5031 8.79264 31.9052 8.48731 32.3053 8.19388Z" fill="#B69D6E"/>
<path d="M34.7125 8.63137V13.3005C34.3303 13.2172 33.9301 13.1439 33.5081 13.0824V9.37486C33.9122 9.11316 34.3144 8.86334 34.7125 8.63137Z" fill="#B69D6E"/>
<path d="M37.1211 9.41729V14.0349C36.7509 13.8862 36.3507 13.7434 35.9168 13.6126V9.98829C36.3229 9.78408 36.723 9.59374 37.1211 9.41927V9.41729Z" fill="#B69D6E"/>
<path d="M39.5303 10.5555V15.3278C39.1978 15.0938 38.7997 14.842 38.3259 14.5902V10.9501C38.734 10.8034 39.1341 10.6725 39.5303 10.5555Z" fill="#B69D6E"/>
<path d="M29.8966 1.0052L31.101 0V9.11223L29.8966 8.10703V1.0052Z" fill="#B69D6E"/>
<path d="M32.3053 3.01741L33.5097 4.02459V9.37574L32.3053 8.19409V3.01741Z" fill="#B69D6E"/>
<path d="M28.6943 3.01741L27.4899 4.02459V8.36856L28.6943 9.20127V3.01741Z" fill="#B69D6E"/>
<path d="M34.7144 5.03162L35.9168 6.03682V9.98823L34.7144 8.6321V5.03162Z" fill="#B69D6E"/>
<path d="M26.2857 5.03162L25.0813 6.03682V8.98105L26.2857 9.6373V5.03162Z" fill="#B69D6E"/>
<path d="M38.3255 4.02354L37.1211 5.03072V9.41831L38.3255 10.9489V4.02354Z" fill="#B69D6E"/>
<path d="M22.6741 4.02354L23.8765 5.03072V10.4255L22.6741 9.94173V4.02354Z" fill="#B69D6E"/>
<path d="M40.7346 2.01226V16.3626C40.5714 16.1842 40.1832 15.7896 39.5302 15.3277V3.01944L40.7346 2.01424V2.01226Z" fill="#B69D6E"/>
<path d="M21.4703 3.01944V15.3297C20.8213 15.7896 20.4332 16.1822 20.2679 16.3626V2.01226L21.4703 3.01746V3.01944Z" fill="#B69D6E"/>
<path d="M21.6318 16.3645C23.3518 15.171 25.8163 14.3601 28.6452 14.1122V14.6753C25.9537 14.8775 23.5548 15.4862 21.6318 16.3645Z" fill="#B69D6E"/>
<path d="M39.3692 16.3645C37.4461 15.4862 35.0035 14.8557 32.2881 14.6753V14.1122C35.1389 14.3383 37.6273 15.171 39.3692 16.3645Z" fill="#B69D6E"/>
<path d="M30.6994 14.1955C30.5958 13.7157 30.566 13.4103 30.56 13.2676H30.4425C30.4346 13.4103 30.4067 13.7177 30.3032 14.1955C29.8175 14.2986 29.5129 14.3283 29.3715 14.3343V14.4512C29.483 14.4572 29.7916 14.481 30.3032 14.59C30.4067 15.0698 30.4366 15.3751 30.4425 15.5179H30.56C30.568 15.3751 30.5958 15.0678 30.6994 14.59C31.211 14.481 31.5195 14.4572 31.631 14.4512V14.3343C31.4897 14.3263 31.1851 14.2986 30.6994 14.1955Z" fill="#B69D6E"/>
<path d="M4.52097 31.9344C4.72005 32.2575 4.945 32.7433 5.35111 32.9138V32.9673H3.75454V32.9138C3.99741 32.7869 3.85408 32.5093 3.655 32.1505L2.41875 29.9121C2.2575 29.9299 2.09426 29.9398 1.93301 29.9398H1.25616V32.2754C1.25616 32.545 1.38157 32.8246 1.60852 32.9138V32.9673H0V32.9138C0.224954 32.8246 0.342407 32.545 0.342407 32.2754V27.1165C0.342407 26.7934 0.224954 26.5693 0 26.4781V26.4246H1.9569C3.45593 26.4246 4.7738 26.5872 4.7738 28.1158C4.7738 28.9326 4.14273 29.4719 3.29269 29.7435L4.52097 31.9363V31.9344ZM1.87727 29.8129C2.93236 29.8129 3.79037 29.3807 3.79037 28.1059C3.79037 26.6764 2.9244 26.5416 1.88722 26.5416H1.25616V29.8129H1.87926H1.87727Z" fill="white"/>
<path d="M5.6815 29.6867C5.6815 27.7814 7.079 26.3698 8.86668 26.3698C10.6544 26.3698 12.0519 27.7616 12.0519 29.6669C12.0519 31.5722 10.6623 33.0275 8.86668 33.0275C7.07103 33.0275 5.6815 31.6159 5.6815 29.6848V29.6867ZM11.0326 29.6788C11.0326 27.5495 10.085 26.4987 8.86668 26.4987C7.64835 26.4987 6.70872 27.5495 6.70872 29.6788C6.70872 31.8082 7.65631 32.9066 8.86668 32.9066C10.0771 32.9066 11.0227 31.8458 11.0326 29.6788Z" fill="white"/>
<path d="M16.5351 26.4246H17.8351V26.4781C17.4548 26.603 17.1761 26.9896 17.0308 27.2771L15.3785 30.4414V32.2754C15.3785 32.545 15.5059 32.8246 15.7309 32.9138V32.9673H14.0527V32.9138C14.2776 32.8246 14.405 32.545 14.405 32.2754V30.4692L12.7806 27.297C12.6532 27.0372 12.4919 26.6585 12.1137 26.4801V26.4266H13.8277V26.4801C13.5032 26.605 13.5211 26.7934 13.7461 27.2256L15.3068 30.2451L16.8676 27.2533C17.0209 26.9659 16.993 26.6685 16.5331 26.4801V26.4266L16.5351 26.4246Z" fill="white"/>
<path d="M22.3797 32.1861C22.4971 32.4558 22.5688 32.7076 22.9032 32.9138V32.9673H21.0897V32.9138C21.3783 32.7611 21.5774 32.5629 21.4042 32.1505L20.9165 30.9629H18.1633L17.7293 32.0335C17.5581 32.4558 17.7751 32.7254 18.0996 32.8959V32.9673H16.8992V32.8959C17.2973 32.7155 17.359 32.4459 17.4765 32.1762L19.8235 26.4246H19.941L22.3777 32.1861H22.3797ZM18.227 30.8102H20.8528L19.5349 27.5666L18.225 30.8102H18.227Z" fill="white"/>
<path d="M27.7194 31.7539L27.4944 32.9673H23.3338V32.9138C23.5587 32.8246 23.6762 32.545 23.6762 32.2754V27.1165C23.6762 26.8469 23.5587 26.5693 23.3338 26.4781V26.4246H24.9304V26.4781C24.7054 26.5673 24.5879 26.8469 24.5879 27.1165V32.8503H25.9954C26.9709 32.8503 27.4486 32.2932 27.6736 31.7539H27.7194Z" fill="white"/>
<path d="M30.2411 32.9673V32.9138C30.4661 32.8246 30.5835 32.545 30.5835 32.2754V27.1165C30.5835 26.8469 30.4661 26.5693 30.2411 26.4781V26.4246H31.8477V26.4781C31.6227 26.5673 31.4953 26.8469 31.4953 27.1165V32.2754C31.4953 32.545 31.6207 32.8246 31.8477 32.9138V32.9673H30.2411Z" fill="white"/>
<path d="M32.6679 32.4564L32.8749 31.5484H32.9107C33.3268 32.3038 34.0037 32.9065 34.8418 32.9065C35.7535 32.9065 36.295 32.4465 36.295 31.6931C36.295 29.8691 32.9207 30.1288 32.9207 28.0629C32.9207 27.02 33.8145 26.3737 35.0687 26.3737C35.8531 26.3737 36.504 26.6156 36.9997 26.9487L36.7827 27.8746H36.7389C36.4224 27.2005 35.863 26.5006 35.0329 26.5006C34.2027 26.5006 33.6613 26.9844 33.6613 27.6783C33.6613 29.3318 37.0813 29.0622 37.0813 31.2748C37.0813 32.3613 36.2154 33.0354 34.8438 33.0354C33.9678 33.0354 33.1835 32.8371 32.6699 32.4604L32.6679 32.4564Z" fill="white"/>
<path d="M42.4027 31.7539L42.1777 32.9673H38.0171V32.9138C38.242 32.8246 38.3595 32.545 38.3595 32.2754V27.1165C38.3595 26.8469 38.242 26.5693 38.0171 26.4781V26.4246H39.6137V26.4781C39.3887 26.5673 39.2713 26.8469 39.2713 27.1165V32.8503H40.6787C41.6542 32.8503 42.132 32.2932 42.3569 31.7539H42.4027Z" fill="white"/>
<path d="M47.8676 32.1861C47.985 32.4558 48.0567 32.7076 48.3911 32.9138V32.9673H46.5776V32.9138C46.8662 32.7611 47.0653 32.5629 46.8921 32.1505L46.4044 30.9629H43.6512L43.2192 32.0335C43.048 32.4558 43.263 32.7254 43.5895 32.8959V32.9673H42.3891V32.8959C42.7872 32.7155 42.8489 32.4459 42.9664 32.1762L45.3135 26.4246H45.4309L47.8676 32.1861ZM43.7169 30.8102H46.3427L45.0248 27.5666L43.7149 30.8102H43.7169Z" fill="white"/>
<path d="M53.416 26.4246H54.3357V26.4781C54.1107 26.6486 53.9475 26.8826 53.9475 27.2157V32.9673H53.8301L49.317 27.3941V32.1762C49.317 32.5093 49.4803 32.7433 49.7152 32.9138V32.9673H48.7855V32.9138C49.0284 32.7334 49.1737 32.5093 49.1737 32.1762V27.3683C49.1737 26.8469 49.0463 26.5773 48.8213 26.488V26.4246H49.6236L53.7942 31.6013V27.2157C53.7942 26.8826 53.6489 26.6585 53.416 26.4781V26.4246Z" fill="white"/>
<path d="M57.6796 26.4246C59.5489 26.4246 61.0001 27.745 61.0001 29.7316C61.0001 31.6013 59.521 32.9673 57.6616 32.9673H55.3165V32.9138C55.5415 32.8246 55.659 32.545 55.659 32.2754V27.1165C55.659 26.8469 55.5415 26.5693 55.3165 26.4781V26.4246H57.6815H57.6796ZM56.5707 32.8424H57.6437C59.0333 32.8424 59.9729 31.7817 59.9729 29.7237C59.9729 27.6657 59.0532 26.5515 57.6616 26.5515H56.5707V32.8424Z" fill="white"/>
<path d="M12.4854 40.2235L11.5578 37.5409H11.8444L12.6646 39.9122L13.4908 37.5409H13.7774L12.8498 40.2235H12.4854Z" fill="white"/>
<path d="M15.2965 40.2797C15.0914 40.2797 14.9083 40.2381 14.751 40.1528C14.5937 40.0675 14.4703 39.9486 14.3807 39.7959C14.2911 39.6413 14.2453 39.4628 14.2453 39.2566V37.5456H14.5221V39.221C14.5221 39.3597 14.5459 39.4807 14.5937 39.5818C14.6415 39.6829 14.7032 39.7662 14.7789 39.8316C14.8565 39.897 14.9401 39.9446 15.0297 39.9763C15.1213 40.0081 15.2089 40.0219 15.2945 40.0219C15.3801 40.0219 15.4716 40.0061 15.5612 39.9763C15.6528 39.9446 15.7364 39.897 15.8121 39.8316C15.8877 39.7662 15.9494 39.6829 15.9972 39.5818C16.045 39.4807 16.0689 39.3597 16.0689 39.221V37.5436H16.3456V39.2566C16.3456 39.4628 16.2998 39.6433 16.2102 39.7959C16.1206 39.9486 15.9972 40.0675 15.8399 40.1528C15.6827 40.2381 15.4995 40.2797 15.2945 40.2797H15.2965ZM15.5951 37.2205C15.5433 37.2205 15.4915 37.2106 15.4418 37.1888C15.392 37.1669 15.3442 37.1431 15.2965 37.1154C15.2507 37.0876 15.2049 37.0638 15.1631 37.042C15.1213 37.0202 15.0815 37.0103 15.0436 37.0103C14.9958 37.0103 14.964 37.0301 14.9501 37.0678C14.9361 37.1055 14.9381 37.1471 14.9501 37.1907H14.755C14.7271 37.0797 14.7371 36.9865 14.7868 36.9092C14.8366 36.8319 14.9182 36.7922 15.0277 36.7922C15.0815 36.7922 15.1332 36.8021 15.183 36.8239C15.2327 36.8458 15.2805 36.8695 15.3283 36.8973C15.3741 36.9251 15.4199 36.9488 15.4617 36.9707C15.5035 36.9925 15.5433 37.0024 15.5811 37.0024C15.6249 37.0024 15.6548 36.9845 15.6727 36.9469C15.6886 36.9092 15.6906 36.8676 15.6727 36.818H15.8678C15.8957 36.927 15.8857 37.0222 15.8359 37.1015C15.7862 37.1808 15.7046 37.2225 15.5931 37.2225L15.5951 37.2205Z" fill="white"/>
<path d="M18.6349 40.2234V39.1013L17.7311 37.5429H18.0496L18.7742 38.788L19.4949 37.5429H19.8134L18.9136 39.1013V40.2234H18.6369H18.6349Z" fill="white"/>
<path d="M20.2591 40.2241V37.5416H21.9413V37.8033H20.5338V38.7312H21.7183V38.9929H20.5338V39.9604H21.9413V40.2221H20.2591V40.2241ZM20.5219 37.2244L20.9519 36.7208H21.2067L21.6347 37.2244H21.354L21.0793 36.9012L20.8026 37.2244H20.5219Z" fill="white"/>
<path d="M22.5787 40.2235V37.5409H22.8554L24.3385 39.7377V37.5409H24.6152V40.2235H24.3385L22.8554 38.0247V40.2235H22.5787Z" fill="white"/>
<path d="M26.2235 39.1666V38.9327H27.3462V39.1666H26.2235Z" fill="white"/>
<path d="M28.9531 40.2235V37.5409H29.2278V38.7504H30.7169V37.5409H30.9897V40.2235H30.7169V39.0121H29.2278V40.2235H28.9531Z" fill="white"/>
<path d="M31.513 40.2235L32.4407 37.541H32.805L33.7327 40.2235H33.446L32.5661 37.6936H32.6736L31.7977 40.2235H31.511H31.513ZM31.9271 39.5732V39.3154H33.3186V39.5732H31.9271ZM32.4049 36.8034L32.3173 36.6607C32.367 36.6091 32.4268 36.5735 32.4964 36.5516C32.5661 36.5318 32.6338 36.5318 32.7015 36.5516C32.7692 36.5715 32.8229 36.621 32.8667 36.6944C32.8986 36.7519 32.9125 36.8074 32.9125 36.8649C32.9125 36.9204 32.8986 36.972 32.8727 37.0195C32.8468 37.0671 32.811 37.1088 32.7692 37.1445C32.7254 37.1801 32.6796 37.2059 32.6278 37.2257L32.5363 37.0989C32.6119 37.0632 32.6657 37.0195 32.6955 36.964C32.7254 36.9085 32.7254 36.853 32.6955 36.7995C32.6736 36.7618 32.6477 36.738 32.6139 36.7321C32.5801 36.7261 32.5442 36.7281 32.5084 36.742C32.4726 36.7559 32.4367 36.7757 32.4069 36.8034H32.4049Z" fill="white"/>
<path d="M34.2945 40.2235V37.5409H34.5695V40.2235H34.2945Z" fill="white"/>
<path d="M36.2529 40.2235V37.5409H37.2921C37.318 37.5409 37.3479 37.5409 37.3817 37.5429C37.4155 37.5429 37.4474 37.5489 37.4812 37.5548C37.6226 37.5766 37.742 37.6242 37.8396 37.7015C37.9371 37.7789 38.0108 37.874 38.0625 37.989C38.1123 38.104 38.1382 38.2329 38.1382 38.3737C38.1382 38.5144 38.1123 38.6393 38.0605 38.7563C38.0088 38.8713 37.9351 38.9684 37.8376 39.0438C37.74 39.1191 37.6206 39.1687 37.4812 39.1905C37.4474 39.1945 37.4135 39.1984 37.3817 39.2024C37.3479 39.2044 37.32 39.2064 37.2921 39.2064H36.5277V40.2254H36.2529V40.2235ZM36.5277 38.9427H37.2841C37.306 38.9427 37.3319 38.9427 37.3618 38.9387C37.3916 38.9367 37.4215 38.9328 37.4494 38.9248C37.541 38.905 37.6166 38.8673 37.6763 38.8118C37.736 38.7563 37.7798 38.6889 37.8097 38.6136C37.8396 38.5362 37.8535 38.4569 37.8535 38.3737C37.8535 38.2904 37.8396 38.2091 37.8097 38.1318C37.7798 38.0544 37.736 37.987 37.6763 37.9315C37.6166 37.876 37.541 37.8383 37.4494 37.8185C37.4215 37.8126 37.3916 37.8086 37.3618 37.8066C37.3319 37.8046 37.306 37.8046 37.2841 37.8046H36.5277V38.9447V38.9427Z" fill="white"/>
<path d="M38.6978 40.2235V37.5409H38.9725V38.7504H40.4616V37.5409H40.7343V40.2235H40.4616V39.0121H38.9725V40.2235H38.6978Z" fill="white"/>
<path d="M42.536 40.2796C42.2673 40.2796 42.0423 40.2201 41.8572 40.1011C41.672 39.9822 41.5327 39.8176 41.4391 39.6094C41.3436 39.3993 41.2978 39.1574 41.2978 38.8838C41.2978 38.6102 41.3456 38.3663 41.4391 38.1581C41.5347 37.948 41.674 37.7834 41.8572 37.6664C42.0423 37.5475 42.2673 37.488 42.536 37.488C42.8048 37.488 43.0317 37.5475 43.2149 37.6664C43.398 37.7854 43.5394 37.95 43.6329 38.1581C43.7285 38.3683 43.7763 38.6102 43.7763 38.8838C43.7763 39.1574 43.7285 39.4013 43.6329 39.6094C43.5374 39.8196 43.398 39.9842 43.2149 40.1011C43.0317 40.2201 42.8048 40.2796 42.536 40.2796ZM42.536 40.0159C42.747 40.0159 42.9222 39.9683 43.0636 39.8731C43.2049 39.778 43.3104 39.6451 43.3801 39.4746C43.4498 39.3041 43.4856 39.1058 43.4856 38.8838C43.4856 38.6617 43.4498 38.4635 43.3801 38.293C43.3104 38.1225 43.2049 37.9896 43.0636 37.8945C42.9222 37.7993 42.747 37.7497 42.536 37.7497C42.325 37.7497 42.1498 37.7973 42.0105 37.8925C41.8711 37.9876 41.7656 38.1205 41.6959 38.293C41.6263 38.4635 41.5904 38.6617 41.5884 38.8838C41.5884 39.1078 41.6223 39.3041 41.6919 39.4726C41.7616 39.6412 41.8671 39.774 42.0085 39.8711C42.1498 39.9683 42.325 40.0159 42.536 40.0179V40.0159ZM42.4106 37.2243L42.1876 36.6474H42.4226L42.6455 37.2243H42.4106Z" fill="white"/>
<path d="M44.3392 40.2235V37.5409H44.6159L46.099 39.7377V37.5409H46.3757V40.2235H46.099L44.6159 38.0247V40.2235H44.3392Z" fill="white"/>
<path d="M48.166 40.2797C47.9768 40.2797 47.8056 40.246 47.6544 40.1805C47.5031 40.1151 47.3737 40.0219 47.2662 39.899C47.1587 39.7781 47.079 39.6314 47.0213 39.4589C46.9656 39.2864 46.9377 39.0941 46.9377 38.8819C46.9377 38.6004 46.9875 38.3565 47.085 38.1464C47.1825 37.9362 47.3239 37.7756 47.507 37.6586C47.6902 37.5417 47.9112 37.4861 48.168 37.4861C48.4546 37.4861 48.6875 37.5535 48.8687 37.6864C49.0479 37.8192 49.1753 37.9996 49.245 38.2237L48.9682 38.2911C48.9105 38.1265 48.813 37.9957 48.6796 37.8985C48.5462 37.8014 48.379 37.7518 48.1799 37.7518C47.9689 37.7518 47.7937 37.7974 47.6544 37.8926C47.515 37.9877 47.4095 38.1206 47.3398 38.2911C47.2701 38.4616 47.2343 38.6599 47.2323 38.8819C47.2323 39.106 47.2662 39.3022 47.3358 39.4708C47.4055 39.6393 47.511 39.7721 47.6524 39.8693C47.7937 39.9664 47.9689 40.014 48.1799 40.016C48.373 40.016 48.5323 39.9783 48.6577 39.905C48.7831 39.8296 48.8787 39.7245 48.9443 39.5838C49.01 39.443 49.0479 39.2804 49.0558 39.0901H48.4347V38.8561H49.3445C49.3485 38.8839 49.3505 38.9156 49.3505 38.9473C49.3505 38.9791 49.3505 39.0009 49.3505 39.0148C49.3505 39.2566 49.3067 39.4727 49.2191 39.6631C49.1315 39.8534 49.0001 40.0041 48.8249 40.1131C48.6497 40.2222 48.4307 40.2777 48.166 40.2777V40.2797Z" fill="white"/>
</svg>
