<svg width="85" height="44" viewBox="0 0 85 44" fill="none" xmlns="http://www.w3.org/2000/svg">
<g clip-path="url(#clip0_0_700)">
<path d="M52.815 14.6952L51.6055 14.4187L55.0913 12.2624L53.305 9.43636C52.9639 8.89573 52.3808 8.57627 51.742 8.57627C51.3946 8.57627 51.0597 8.67457 50.7682 8.85273L45.4774 12.1272L48.467 12.8091L50.6255 11.4698C50.8178 11.3531 51.0349 11.2855 51.2582 11.2855C51.5621 11.2855 51.8474 11.3961 52.0645 11.5989L48.6159 13.7306L43.2134 12.4958L50.2968 8.10937C50.7309 7.83906 51.2272 7.69776 51.7358 7.69776C52.6848 7.69776 53.5469 8.17081 54.0493 8.96331L56.3008 12.5265L52.815 14.6829V14.6952ZM50.2968 17.171C50.9418 17.5089 51.407 18.0741 51.6241 18.7621C51.835 19.4502 51.7668 20.1813 51.4256 20.8141L49.4346 24.5247L45.8061 22.6141L45.4464 21.4407L49.0749 23.3513L50.6565 20.4086C50.886 19.9785 50.9356 19.4809 50.793 19.014C50.6503 18.5471 50.3278 18.1662 49.8936 17.9328L44.3857 15.0331L45.2851 17.9389L47.5366 19.1246C47.8219 19.272 48.0266 19.5239 48.1197 19.825C48.1817 20.0215 48.1879 20.2304 48.1445 20.427L44.5532 18.5348L42.9281 13.2822L50.303 17.1648L50.2968 17.171ZM42.68 11.8569L42.3885 3.58778C42.3637 2.869 42.6242 2.18093 43.1204 1.65259C43.6166 1.12425 44.2865 0.823224 45.0122 0.79865L49.2547 0.651207L49.3974 4.71818L48.5538 5.61513L48.4112 1.54815L45.0432 1.66488C44.026 1.70174 43.2258 2.54954 43.2631 3.55707L43.4802 9.73125L45.5704 7.50731L45.4836 4.98849C45.4712 4.66903 45.589 4.368 45.8061 4.13455C45.9488 3.98096 46.1224 3.87038 46.3209 3.81509L46.4636 7.83906L42.68 11.8569ZM41.6504 23.6216C41.1542 24.15 40.4843 24.451 39.7586 24.4756L35.5161 24.623L35.3734 20.556L36.217 19.6591L36.3596 23.7261L39.7276 23.6093C40.2176 23.5909 40.6766 23.3882 41.0115 23.0257C41.3465 22.6694 41.5263 22.2025 41.5077 21.7171L41.2906 15.543L39.2004 17.7669L39.2872 20.2857C39.3058 20.8325 38.9523 21.2994 38.4499 21.4591L38.3072 17.4351L42.0908 13.4173L42.3823 21.6864C42.4071 22.4052 42.1466 23.0933 41.6504 23.6216ZM34.4678 17.1648C34.0337 17.4351 33.5374 17.5764 33.0288 17.5764C32.0798 17.5764 31.2177 17.1034 30.7153 16.3109L28.4638 12.7477L31.9496 10.5913L33.1591 10.8678L29.6733 13.0241L31.4596 15.8501C31.8007 16.3908 32.3838 16.7102 33.0226 16.7102C33.37 16.7102 33.7049 16.6119 33.9964 16.4338L39.2872 13.1593L36.2976 12.4774L34.1391 13.8166C33.9468 13.9334 33.7297 13.9948 33.5064 13.9948C33.2025 13.9948 32.9172 13.8842 32.6939 13.6876L36.1425 11.5559L41.545 12.7907L34.4616 17.1771L34.4678 17.1648ZM34.4678 8.10937C33.8228 7.77148 33.3576 7.20628 33.1405 6.51821C32.9296 5.83015 32.9978 5.09907 33.339 4.4663L35.33 0.755646L38.9585 2.66626L39.3182 3.83966L35.6897 1.92905L34.1081 4.87177C33.8786 5.30181 33.829 5.79943 33.9716 6.26633C34.1143 6.73324 34.4368 7.11413 34.871 7.34758L40.3789 10.2473L39.4795 7.34144L37.228 6.15575C36.7442 5.89772 36.5085 5.3571 36.6201 4.85334L40.2114 6.74552L41.8303 11.9982L34.4554 8.11551L34.4678 8.10937ZM57.0203 12.4712L54.6013 8.63771C53.9811 7.65476 52.9142 7.07113 51.742 7.07113C51.1093 7.07113 50.4953 7.24929 49.9618 7.58103L44.2989 11.089L47.028 8.18924C47.0838 8.1278 47.1211 8.04794 47.1149 7.96193L46.9536 3.44034C46.9536 3.35433 46.9102 3.27447 46.8481 3.21917C46.7861 3.16388 46.7117 3.13317 46.6249 3.13317H46.6124C46.1224 3.1516 45.6635 3.35433 45.3285 3.7168C44.9936 4.07312 44.8137 4.54002 44.8323 5.02535L44.9129 7.28615L44.0694 8.18309L43.9081 3.55092C43.8833 2.89357 44.4043 2.3468 45.0618 2.32223L47.7847 2.23008L47.9336 6.43221C47.9336 6.56122 48.0204 6.6718 48.1445 6.72095C48.1817 6.73324 48.2189 6.73938 48.2561 6.73938C48.343 6.73938 48.4298 6.70252 48.4918 6.63494L49.9618 5.0745C50.0177 5.01307 50.0487 4.92706 50.0487 4.84719L49.8874 0.325604C49.8874 0.239595 49.844 0.15973 49.782 0.104439C49.7199 0.0491477 49.6455 0.0184304 49.5587 0.0184304L44.9812 0.17816C44.0818 0.208878 43.2507 0.583629 42.6366 1.23484C42.0226 1.88604 41.7 2.73384 41.731 3.62464L41.9667 10.235L40.7944 6.44449C40.7696 6.36463 40.7138 6.29705 40.6394 6.25405L36.6077 4.12841C36.5581 4.10383 36.5085 4.09155 36.4589 4.09155C36.4278 4.09155 36.3968 4.09155 36.3658 4.10383C36.2852 4.12841 36.217 4.1837 36.1735 4.25742C35.6959 5.14822 36.0371 6.25405 36.9365 6.72709L38.9461 7.78377L39.3058 8.95717L35.1749 6.78238C34.8896 6.63494 34.6849 6.38306 34.5919 6.08203C34.4988 5.781 34.5299 5.4554 34.6787 5.17894L35.9564 2.80142L39.7028 4.77347C39.7524 4.79804 39.802 4.81033 39.8517 4.81033C39.9261 4.81033 40.0005 4.78576 40.0563 4.73661C40.1556 4.65674 40.199 4.52159 40.1618 4.39872L39.5291 2.35909C39.5043 2.27922 39.4485 2.21165 39.3741 2.16864L35.3548 0.0368608C35.3052 0.0122869 35.2556 0 35.2059 0C35.1749 0 35.1439 0 35.1129 0.0122869C35.0323 0.0368608 34.964 0.092152 34.9206 0.165874L32.7745 4.15912C32.3528 4.94549 32.2659 5.84858 32.5264 6.70252C32.7869 7.55646 33.37 8.25681 34.1639 8.67457L40.0625 11.7832L36.1611 10.8924C36.1611 10.8924 36.1115 10.8862 36.0867 10.8862C36.0247 10.8862 35.9689 10.9046 35.913 10.9354L32.0426 13.3313C31.8938 13.4235 31.8441 13.6201 31.9372 13.7736C32.2783 14.3143 32.8614 14.6337 33.5002 14.6337C33.8476 14.6337 34.1825 14.5354 34.4802 14.3573L36.4154 13.1593L37.6249 13.4358L33.6553 15.8931C33.463 16.0099 33.2459 16.0713 33.0226 16.0713C32.6071 16.0713 32.2225 15.8624 32.0054 15.5122L30.5602 13.2269L34.1577 10.9968C34.2693 10.9292 34.3252 10.8002 34.3066 10.6712C34.2818 10.5422 34.1887 10.4439 34.0585 10.4132L31.962 9.93398C31.962 9.93398 31.9124 9.92784 31.8876 9.92784C31.8255 9.92784 31.7697 9.94627 31.7139 9.97698L27.8435 12.3729C27.6946 12.4651 27.645 12.6617 27.7381 12.8153L30.157 16.6488C30.7773 17.6317 31.8441 18.2154 33.0164 18.2154C33.6429 18.2154 34.2631 18.0372 34.7966 17.7055L40.4595 14.1975L37.7304 17.0973C37.6684 17.1587 37.6435 17.2386 37.6435 17.3246L37.8048 21.8462C37.8048 21.9322 37.842 22.012 37.9041 22.0673C37.9661 22.1226 38.0405 22.1533 38.1273 22.1533H38.1397C39.157 22.1165 39.9571 21.2687 39.9199 20.2611L39.8393 18.0065L40.6828 17.1095L40.8441 21.7417C40.8565 22.0612 40.7386 22.3622 40.5215 22.5957C40.3044 22.8291 40.0067 22.9643 39.6842 22.9704L36.9613 23.0626L36.8124 18.8604C36.8124 18.7314 36.7256 18.6147 36.6015 18.5717C36.5643 18.5594 36.5271 18.5533 36.4899 18.5533C36.403 18.5533 36.3162 18.5901 36.2542 18.6577L34.7842 20.2181C34.7283 20.2796 34.6973 20.3594 34.6973 20.4454L34.8586 24.967C34.8586 25.053 34.8958 25.1329 34.9578 25.1882C35.0199 25.2435 35.0943 25.2742 35.1811 25.2742L39.7586 25.1145C40.658 25.0838 41.4891 24.709 42.1032 24.0578C42.7172 23.4066 43.0398 22.5588 43.0088 21.668L42.7731 15.0576L43.9453 18.8481C43.9702 18.928 44.026 18.9956 44.1004 19.0386L48.1321 21.1642C48.1817 21.1888 48.2313 21.2011 48.2809 21.2011C48.3988 21.2011 48.5104 21.1397 48.5663 21.0291C48.7957 20.599 48.8454 20.1014 48.7027 19.6345C48.56 19.1676 48.2375 18.7867 47.8033 18.5533L45.7875 17.4966L45.4278 16.3232L49.5587 18.498C49.844 18.6454 50.0487 18.8973 50.1417 19.1983C50.2347 19.4994 50.2037 19.825 50.0549 20.1014L48.7771 22.4789L45.0308 20.5069C44.9812 20.4823 44.9316 20.47 44.8819 20.47C44.8075 20.47 44.7331 20.4946 44.6772 20.5437C44.578 20.6236 44.5346 20.7588 44.5718 20.8816L45.2045 22.9213C45.2293 23.0011 45.2851 23.0687 45.3595 23.1117L49.3912 25.2373C49.4408 25.2619 49.4904 25.2742 49.5401 25.2742C49.5711 25.2742 49.6021 25.2742 49.6331 25.2619C49.7137 25.2373 49.782 25.1821 49.8254 25.1083L51.9715 21.1151C52.3932 20.3287 52.4801 19.4256 52.2196 18.5717C51.9591 17.7177 51.376 17.0174 50.5821 16.5996L44.6835 13.491L48.5849 14.3818C48.5849 14.3818 48.6345 14.388 48.6593 14.388C48.7213 14.388 48.7771 14.3696 48.833 14.3388L52.7034 11.9429C52.7778 11.8999 52.8274 11.8262 52.846 11.7402C52.8646 11.6603 52.846 11.5681 52.8026 11.5006C52.4615 10.9599 51.8784 10.6405 51.2396 10.6405C50.8922 10.6405 50.5573 10.7388 50.2596 10.9169L48.3244 12.1149L47.1149 11.8385L51.0845 9.38107C51.2768 9.26434 51.4939 9.20291 51.7172 9.20291C52.1327 9.20291 52.5173 9.41179 52.7344 9.76196L54.1796 12.0473L50.5821 14.2774C50.4704 14.345 50.4146 14.474 50.4332 14.603C50.4518 14.732 50.5511 14.8303 50.6813 14.861L52.7778 15.3402C52.7778 15.3402 52.8274 15.3464 52.8522 15.3464C52.9142 15.3464 52.9701 15.3279 53.0259 15.2972L56.8963 12.9013C57.0452 12.8091 57.0948 12.6125 57.0017 12.4589" fill="#99875D"/>
<path d="M0 37.7763H0.75051V42.9429H2.40039V43.1518H0V37.7763Z" fill="#F2F1EF"/>
<path d="M5.87395 41.1671L4.93116 38.7896L4.03179 41.1671H5.87395ZM5.12344 37.7391H5.30951L7.41838 43.1515H6.62446L5.94838 41.376H3.95736L3.30609 43.1515H3.089L5.11723 37.7391H5.12344Z" fill="#F2F1EF"/>
<path d="M10.2096 43.0962C9.83747 42.9611 9.50873 42.7645 9.22962 42.5126C8.9505 42.2607 8.73341 41.9658 8.57835 41.6341C8.42949 41.2962 8.34885 40.9399 8.34885 40.5528C8.34885 40.0061 8.49151 39.5023 8.77063 39.0538C8.90088 38.8388 9.06835 38.6422 9.25443 38.464C9.44671 38.2859 9.65759 38.1384 9.88709 38.0156C10.3709 37.7575 10.9105 37.6285 11.4936 37.6285C11.9525 37.6285 12.3557 37.7023 12.7155 37.8558C13.0566 38.0094 13.3791 38.2552 13.6831 38.5869L13.2055 39.0477C13.0566 38.6483 12.8209 38.3473 12.4984 38.1446C12.1758 37.9418 11.7727 37.8436 11.2827 37.8436C10.9725 37.8436 10.6872 37.905 10.4391 38.0217C10.1848 38.1384 9.96772 38.3105 9.78785 38.5378C9.60797 38.7651 9.47152 39.0415 9.37227 39.3548C9.27924 39.6743 9.22962 40.0245 9.22962 40.4115C9.22962 40.8416 9.27924 41.2163 9.38468 41.5481C9.49012 41.8798 9.63898 42.1563 9.83747 42.3836C10.0359 42.6109 10.2778 42.7829 10.5632 42.8996C10.8547 43.0163 11.1834 43.0778 11.5618 43.0778C11.8719 43.0778 12.1262 43.0532 12.3309 43.0102C12.5294 42.9672 12.7403 42.8873 12.9636 42.7645V40.7986H11.1214V40.5897H13.7141V42.5679C13.3605 42.8198 12.9946 43.0102 12.6162 43.1208C12.2379 43.2375 11.8347 43.2928 11.4067 43.2928C10.9787 43.2928 10.5818 43.2252 10.2096 43.0901" fill="#F2F1EF"/>
<path d="M19.1971 42.8996C19.4514 42.7768 19.6747 42.5986 19.8607 42.3713C20.0406 42.1378 20.1833 41.8675 20.2825 41.5419C20.3818 41.2225 20.4314 40.8723 20.4314 40.4852C20.4314 40.0982 20.3818 39.7235 20.2825 39.3978C20.1833 39.0722 20.0344 38.7896 19.8421 38.5623C19.6499 38.335 19.4204 38.1569 19.1536 38.034C18.8869 37.9111 18.5892 37.8497 18.2605 37.8497C17.9504 37.8497 17.665 37.9111 17.4045 38.034C17.144 38.1569 16.9207 38.335 16.7347 38.5685C16.5486 38.8019 16.3997 39.0784 16.3005 39.404C16.2012 39.7235 16.1516 40.0798 16.1516 40.4668C16.1516 40.8539 16.2012 41.2225 16.3067 41.5419C16.4121 41.8614 16.5548 42.144 16.7533 42.3774C16.9455 42.6047 17.1812 42.7829 17.4541 42.9058C17.7271 43.0286 18.031 43.0901 18.3659 43.0901C18.6698 43.0901 18.949 43.0286 19.2033 42.9058M16.7471 42.9181C16.5238 42.7952 16.3191 42.6539 16.1392 42.4819C15.9593 42.3099 15.8043 42.1194 15.674 41.9105C15.4073 41.4682 15.2708 40.9829 15.2708 40.4607C15.2708 40.2026 15.3081 39.9508 15.3763 39.7112C15.4445 39.4716 15.55 39.2443 15.6802 39.0292C15.8105 38.8204 15.9655 38.6299 16.1516 38.4579C16.3377 38.2859 16.5424 38.1384 16.7657 38.0156C17.2371 37.7575 17.7519 37.6285 18.3039 37.6285C18.583 37.6285 18.8497 37.6592 19.1102 37.7268C19.3707 37.7944 19.6126 37.8866 19.8359 38.0094C20.0592 38.1323 20.2577 38.2797 20.4438 38.4579C20.6237 38.6299 20.7787 38.8204 20.9028 39.0292C21.033 39.2443 21.1323 39.4716 21.2005 39.7173C21.2687 39.963 21.3059 40.2149 21.3059 40.4791C21.3059 40.989 21.1695 41.4682 20.8966 41.9044C20.7663 42.1133 20.6113 42.3037 20.4314 42.4757C20.2515 42.6477 20.0468 42.7952 19.8173 42.9181C19.594 43.0409 19.3521 43.1392 19.0916 43.2007C18.8311 43.2682 18.5644 43.299 18.2915 43.299C17.7333 43.299 17.2185 43.1699 16.7471 42.9181Z" fill="#F2F1EF"/>
<path d="M26.4977 42.8996C26.752 42.7768 26.9753 42.5986 27.1613 42.3713C27.3412 42.1378 27.4839 41.8675 27.5831 41.5419C27.6824 41.2225 27.732 40.8723 27.732 40.4852C27.732 40.0982 27.6824 39.7235 27.5831 39.3978C27.4839 39.0722 27.335 38.7896 27.1427 38.5623C26.9505 38.335 26.721 38.1569 26.4542 38.034C26.1875 37.9111 25.8898 37.8497 25.5611 37.8497C25.251 37.8497 24.9656 37.9111 24.7051 38.034C24.4446 38.1569 24.2213 38.335 24.0352 38.5685C23.8492 38.8019 23.7003 39.0784 23.6011 39.404C23.5018 39.7235 23.4522 40.0798 23.4522 40.4668C23.4522 40.8539 23.5018 41.2225 23.6073 41.5419C23.7127 41.8614 23.8554 42.144 24.0539 42.3774C24.2461 42.6047 24.4818 42.7829 24.7547 42.9058C25.0277 43.0286 25.3316 43.0901 25.6665 43.0901C25.9704 43.0901 26.2496 43.0286 26.5039 42.9058M24.0477 42.9181C23.8244 42.7952 23.6197 42.6539 23.4398 42.4819C23.2599 42.3099 23.1049 42.1194 22.9746 41.9105C22.7079 41.4682 22.5714 40.9829 22.5714 40.4607C22.5714 40.2026 22.6087 39.9508 22.6769 39.7112C22.7451 39.4716 22.8506 39.2443 22.9808 39.0292C23.1111 38.8204 23.2661 38.6299 23.4522 38.4579C23.6383 38.2859 23.843 38.1384 24.0663 38.0156C24.5377 37.7575 25.0525 37.6285 25.6045 37.6285C25.8836 37.6285 26.1503 37.6592 26.4108 37.7268C26.6713 37.7944 26.9132 37.8866 27.1365 38.0094C27.3598 38.1323 27.5583 38.2797 27.7444 38.4579C27.9243 38.6299 28.0793 38.8204 28.2034 39.0292C28.3336 39.2443 28.4329 39.4716 28.5011 39.7173C28.5693 39.963 28.6065 40.2149 28.6065 40.4791C28.6065 40.989 28.4701 41.4682 28.1972 41.9044C28.0669 42.1133 27.9119 42.3037 27.732 42.4757C27.5521 42.6477 27.3474 42.7952 27.1179 42.9181C26.8946 43.0409 26.6527 43.1392 26.3922 43.2007C26.1317 43.2682 25.865 43.299 25.5921 43.299C25.0339 43.299 24.519 43.1699 24.0477 42.9181Z" fill="#F2F1EF"/>
<path d="M30.405 39.0906V43.1515H30.2003V37.7391H30.3925L33.2023 41.8429V37.7759H33.407V43.1822H33.2209L30.405 39.0906Z" fill="#F2F1EF"/>
<path d="M39.2931 40.4302C39.6528 40.4302 39.9257 40.3196 40.1118 40.1108C40.2979 39.8958 40.3909 39.5824 40.3909 39.1647C40.3909 38.9435 40.3661 38.7592 40.3165 38.6118C40.2669 38.4643 40.1925 38.3415 40.0932 38.2493C39.994 38.1571 39.8575 38.0896 39.69 38.0466C39.5226 38.0036 39.3117 37.9851 39.0636 37.9851H38.8589V40.4302H39.2869H39.2931ZM38.1084 37.7763H39.597C39.8265 37.7763 40.0374 37.807 40.2297 37.8684C40.4219 37.9298 40.5956 38.022 40.7383 38.1387C40.8809 38.2554 40.9926 38.3967 41.0732 38.5565C41.1476 38.7162 41.1911 38.8882 41.1911 39.0725C41.1911 39.7299 40.7755 40.1906 39.9381 40.4487L42.5618 43.1579H41.6376L39.2807 40.6453H38.8651V43.1579H38.1146V37.7763H38.1084Z" fill="#F2F1EF"/>
<path d="M43.7097 37.7763H46.0108V37.9851H44.4602V40.1784H45.8434V40.3872H44.4602V42.9429H46.1907V43.1518H43.7097V37.7763Z" fill="#F2F1EF"/>
<path d="M48.6776 43.1581C48.4791 43.1028 48.293 43.0168 48.1194 42.9124C47.9457 42.8079 47.7906 42.6912 47.6666 42.5561C47.5363 42.4209 47.4433 42.2735 47.3813 42.126L47.9147 41.7697C47.9209 41.9356 47.9643 42.0953 48.0449 42.2489C48.1256 42.4025 48.2372 42.5376 48.3675 42.6544C48.5039 42.7711 48.659 42.8694 48.8264 42.937C49.0001 43.0045 49.1738 43.0353 49.3599 43.0353C49.5459 43.0353 49.7134 43.0107 49.8685 42.9615C50.0173 42.9124 50.1476 42.8448 50.2592 42.7588C50.3647 42.6728 50.4453 42.5622 50.5011 42.4393C50.557 42.3103 50.588 42.1752 50.588 42.0216C50.588 41.8864 50.5632 41.7636 50.5197 41.6591C50.4701 41.5547 50.3957 41.4502 50.2903 41.3581C50.1848 41.2598 50.0422 41.1676 49.8623 41.0693C49.6824 40.971 49.4591 40.8666 49.1862 40.756C48.6342 40.5226 48.231 40.283 47.9891 40.025C47.8651 39.8959 47.772 39.7546 47.71 39.6011C47.648 39.4475 47.6232 39.2816 47.6232 39.1034C47.6232 38.9068 47.6666 38.7225 47.7534 38.5505C47.8402 38.3785 47.9581 38.2249 48.1069 38.0898C48.2558 37.9608 48.4357 37.8625 48.6404 37.7887C48.8451 37.715 49.0621 37.6843 49.2916 37.6843C49.4901 37.6843 49.6762 37.7089 49.8623 37.758C50.0484 37.8072 50.2158 37.8809 50.3709 37.9669C50.5197 38.059 50.65 38.1635 50.7554 38.2864C50.8609 38.4092 50.9291 38.5444 50.9663 38.6795L50.4391 39.0666C50.4391 38.9007 50.4019 38.7471 50.3399 38.6058C50.2716 38.4645 50.1848 38.3355 50.067 38.2249C49.9491 38.1143 49.8127 38.0345 49.6576 37.973C49.5025 37.9116 49.3413 37.8809 49.1676 37.8809C49.0125 37.8809 48.8761 37.9055 48.7458 37.9485C48.6218 37.9915 48.5101 38.0529 48.4233 38.1389C48.3302 38.2249 48.262 38.3232 48.2124 38.4338C48.1628 38.5505 48.138 38.6734 48.138 38.8024C48.138 38.9437 48.1566 39.0604 48.1938 39.1587C48.231 39.257 48.2992 39.3492 48.3985 39.4352C48.4915 39.5212 48.628 39.6133 48.8016 39.7055C48.9753 39.7976 49.211 39.9082 49.5149 40.0372C49.8313 40.1724 50.0918 40.3014 50.3027 40.4243C50.5073 40.5472 50.6748 40.6639 50.8051 40.7867C50.9291 40.9096 51.016 41.0386 51.0718 41.1799C51.1276 41.3212 51.1586 41.4748 51.1586 41.6468C51.1586 41.868 51.109 42.0769 51.016 42.2735C50.9229 42.4639 50.7927 42.6359 50.619 42.7834C50.4453 42.9247 50.2468 43.0414 50.0173 43.1213C49.7878 43.2011 49.5397 43.238 49.2792 43.238C49.087 43.238 48.8947 43.2073 48.6962 43.152" fill="#F2F1EF"/>
<path d="M53.6274 37.7763H52.8769V43.1579H53.6274V37.7763Z" fill="#F2F1EF"/>
<path d="M56.5983 42.9432C57.324 42.9432 57.876 42.7343 58.2482 42.3227C58.6203 41.9111 58.8064 41.2967 58.8064 40.4919C58.8064 38.8209 58.0683 37.9854 56.5983 37.9854H56.3502V42.9493H56.5983V42.9432ZM55.5935 37.7765H56.5487C57.0263 37.7765 57.4666 37.838 57.8512 37.9547C58.242 38.0714 58.5707 38.2434 58.8436 38.4769C59.1165 38.7042 59.3212 38.9806 59.4639 39.3001C59.6065 39.6257 59.681 39.982 59.681 40.3875C59.681 40.793 59.6065 41.1616 59.4515 41.4995C59.3026 41.8374 59.0855 42.1322 58.8002 42.378C58.5211 42.6237 58.1861 42.8203 57.8016 42.9493C57.417 43.0783 56.9953 43.1521 56.5425 43.1521H55.5873V37.7704L55.5935 37.7765Z" fill="#F2F1EF"/>
<path d="M61.306 37.7763H63.6071V37.9851H62.0565V40.1784H63.4334V40.3872H62.0565V42.9429H63.787V43.1518H61.306V37.7763Z" fill="#F2F1EF"/>
<path d="M65.6293 39.0906V43.1515H65.4246V37.7391H65.6107L68.4267 41.8429V37.7759H68.6313V43.1822H68.4453L65.6293 39.0906Z" fill="#F2F1EF"/>
<path d="M71.7262 42.9303C71.261 42.6907 70.9012 42.359 70.6345 41.9351C70.3616 41.4928 70.2252 41.0136 70.2252 40.4852C70.2252 40.2211 70.2624 39.963 70.3306 39.7173C70.3988 39.4716 70.4981 39.2381 70.6345 39.0231C70.7648 38.8142 70.9198 38.6238 71.1059 38.4518C71.292 38.2797 71.4967 38.1323 71.72 38.0094C72.1914 37.7575 72.7124 37.6285 73.2892 37.6285C73.9219 37.6285 74.4739 37.7575 74.9329 38.0156C75.3919 38.2736 75.7454 38.6483 75.9873 39.1398L75.3733 39.5576C75.3547 39.3364 75.2864 39.1214 75.1686 38.9125C75.057 38.7036 74.9081 38.5193 74.722 38.3596C74.5359 38.1999 74.3313 38.0709 74.108 37.9849C73.8847 37.8927 73.6552 37.8497 73.4257 37.8497C73.0721 37.8497 72.7496 37.9111 72.4581 38.0279C72.1666 38.1507 71.9247 38.3227 71.72 38.5501C71.5153 38.7774 71.3602 39.0538 71.2548 39.3794C71.1493 39.705 71.0935 40.0675 71.0935 40.473C71.0935 40.8784 71.1431 41.2347 71.2548 41.5542C71.3602 41.8798 71.5215 42.1501 71.7262 42.3774C71.9309 42.6047 72.179 42.7829 72.4643 42.9058C72.7496 43.0286 73.0783 43.0901 73.4319 43.0901C73.6986 43.0901 73.9529 43.0471 74.201 42.9611C74.4491 42.875 74.6786 42.7583 74.8771 42.6109C75.0818 42.4634 75.2492 42.2853 75.3795 42.0948C75.5097 41.8982 75.5904 41.6955 75.6214 41.4743L75.9377 41.6464C75.8385 41.8921 75.702 42.1194 75.5283 42.3283C75.3547 42.531 75.15 42.7092 74.9143 42.8566C74.6786 43.0041 74.4305 43.1146 74.1514 43.1945C73.8723 43.2744 73.5931 43.3112 73.2954 43.3112C72.7124 43.3112 72.1852 43.1884 71.7138 42.9426" fill="#F2F1EF"/>
<path d="M77.5693 37.7763H79.8704V37.9851H78.3198V40.1784H79.6968V40.3872H78.3198V42.9429H80.0503V43.1518H77.5693V37.7763Z" fill="#F2F1EF"/>
<path d="M82.5377 43.1571C82.3392 43.1019 82.1531 43.0158 81.9795 42.9114C81.8058 42.807 81.6507 42.6902 81.5267 42.5551C81.3964 42.4199 81.3034 42.2725 81.2414 42.125L81.7748 41.7687C81.781 41.9346 81.8244 42.0943 81.905 42.2479C81.9857 42.4015 82.0973 42.5367 82.2276 42.6534C82.364 42.7701 82.5191 42.8684 82.6866 42.936C82.8602 43.0036 83.0339 43.0343 83.22 43.0343C83.406 43.0343 83.5735 43.0097 83.7286 42.9606C83.8774 42.9114 84.0077 42.8438 84.1193 42.7578C84.2248 42.6718 84.3054 42.5612 84.3612 42.4384C84.4171 42.3093 84.4481 42.1742 84.4481 42.0206C84.4481 41.8854 84.4233 41.7626 84.3798 41.6581C84.3302 41.5537 84.2558 41.4493 84.1504 41.3571C84.0449 41.2588 83.9023 41.1667 83.7224 41.0684C83.5425 40.9701 83.3192 40.8656 83.0463 40.755C82.4943 40.5216 82.0911 40.282 81.8492 40.024C81.7252 39.895 81.6321 39.7537 81.5701 39.6001C81.5081 39.4465 81.4833 39.2806 81.4833 39.1025C81.4833 38.9059 81.5267 38.7216 81.6135 38.5495C81.7003 38.3775 81.8182 38.2239 81.9671 38.0888C82.1159 37.9598 82.2958 37.8615 82.5005 37.7878C82.7052 37.714 82.9222 37.6833 83.1517 37.6833C83.3502 37.6833 83.5363 37.7079 83.7224 37.757C83.9085 37.8062 84.0759 37.8799 84.231 37.9659C84.3799 38.0581 84.5101 38.1625 84.6155 38.2854C84.721 38.4082 84.7892 38.5434 84.8264 38.6786L84.2992 39.0656C84.2992 38.8997 84.262 38.7461 84.2 38.6048C84.1318 38.4635 84.0449 38.3345 83.9271 38.2239C83.8092 38.1134 83.6728 38.0335 83.5177 37.9721C83.3626 37.9106 83.2014 37.8799 83.0277 37.8799C82.8726 37.8799 82.7362 37.9045 82.6059 37.9475C82.4819 37.9905 82.3702 38.0519 82.2834 38.1379C82.1904 38.2239 82.1221 38.3222 82.0725 38.4328C82.0229 38.5495 81.9981 38.6724 81.9981 38.8014C81.9981 38.9427 82.0167 39.0595 82.0539 39.1577C82.0911 39.256 82.1593 39.3482 82.2586 39.4342C82.3516 39.5202 82.4881 39.6124 82.6617 39.7045C82.8354 39.7967 83.0711 39.9072 83.375 40.0363C83.6914 40.1714 83.9519 40.3004 84.1628 40.4233C84.3674 40.5462 84.5349 40.6629 84.6652 40.7858C84.7892 40.9086 84.8761 41.0376 84.9319 41.1789C84.9877 41.3202 85.0187 41.4738 85.0187 41.6459C85.0187 41.867 84.9691 42.0759 84.8761 42.2725C84.783 42.4629 84.6528 42.6349 84.4791 42.7824C84.3054 42.9237 84.1069 43.0404 83.8774 43.1203C83.6479 43.2001 83.3998 43.237 83.1393 43.237C82.9471 43.237 82.7548 43.2063 82.5563 43.151" fill="#F2F1EF"/>
<path d="M17.0386 34.8455C16.8587 34.7779 16.6975 34.6858 16.5672 34.5629C16.4308 34.4401 16.3315 34.2988 16.2571 34.139C16.1827 33.9793 16.1455 33.8011 16.1455 33.6168C16.1455 33.3527 16.2137 33.1131 16.3501 32.8919C16.4122 32.7875 16.4928 32.6892 16.5858 32.6093C16.6789 32.5233 16.7781 32.4496 16.8898 32.3943C17.1255 32.2714 17.386 32.2038 17.6651 32.2038C17.8884 32.2038 18.0806 32.2407 18.2543 32.3144C18.4218 32.3881 18.5769 32.5049 18.7195 32.6707L18.49 32.8919C18.4156 32.7015 18.3039 32.554 18.1489 32.4557C17.9938 32.3574 17.7953 32.3083 17.5596 32.3083C17.4108 32.3083 17.2743 32.339 17.1503 32.3943C17.0262 32.4496 16.9208 32.5356 16.8339 32.6462C16.7471 32.7567 16.6789 32.8858 16.6355 33.0393C16.5858 33.1929 16.5672 33.3649 16.5672 33.5493C16.5672 33.7581 16.592 33.9363 16.6417 34.1022C16.6913 34.2619 16.7657 34.397 16.8587 34.5076C16.9518 34.6182 17.0696 34.7042 17.2123 34.7595C17.3549 34.8148 17.5162 34.8455 17.6961 34.8455C17.845 34.8455 17.969 34.8332 18.0682 34.8148C18.1675 34.7964 18.2667 34.7534 18.3722 34.6981V33.752H17.4852V33.6475H18.7381V34.6059C18.5644 34.7288 18.3908 34.8148 18.2109 34.8762C18.031 34.9315 17.8325 34.9622 17.6279 34.9622C17.4232 34.9622 17.2309 34.9315 17.051 34.864" fill="#F2F1EF"/>
<path d="M20.2269 33.555C20.4006 33.555 20.5308 33.5059 20.6239 33.4015C20.7107 33.297 20.7603 33.1434 20.7603 32.9468C20.7603 32.8424 20.7479 32.7503 20.7231 32.6827C20.6983 32.609 20.6611 32.5537 20.6177 32.5107C20.5681 32.4677 20.506 32.4369 20.4192 32.4124C20.3386 32.3939 20.2393 32.3816 20.1153 32.3816H20.016V33.5612H20.2269V33.555ZM19.6563 32.2772H20.3758C20.4874 32.2772 20.5867 32.2956 20.6797 32.3202C20.7727 32.3509 20.8534 32.3939 20.9216 32.4492C20.9898 32.5045 21.0456 32.5721 21.0829 32.652C21.1201 32.7257 21.1387 32.8117 21.1387 32.9038C21.1387 33.2233 20.934 33.4445 20.5308 33.5673L21.7962 34.8759H21.3496L20.2083 33.6595H20.0098V34.8759H19.6439V32.2772H19.6563Z" fill="#F2F1EF"/>
<path d="M23.3524 33.9122L22.8996 32.7634L22.4655 33.9122H23.3524ZM22.9865 32.2596H23.0795L24.0967 34.8706H23.7122L23.3896 34.0105H22.4282L22.1119 34.8706H22.0065L22.9865 32.2596Z" fill="#F2F1EF"/>
<path d="M24.804 32.9108V34.8767H24.711V32.2596H24.7978L26.1562 34.2378V32.278H26.2554V34.889H26.1624L24.804 32.9108Z" fill="#F2F1EF"/>
<path d="M27.6821 34.7715C28.0357 34.7715 28.3024 34.6732 28.4823 34.4704C28.6621 34.2677 28.7552 33.9728 28.7552 33.5858C28.7552 32.7748 28.4016 32.3755 27.6883 32.3755H27.5643V34.7715H27.6883H27.6821ZM27.1983 32.2772H27.6573C27.8868 32.2772 28.0977 32.3079 28.29 32.3632C28.4761 32.4185 28.6373 32.5045 28.7676 32.6151C28.8978 32.7257 28.9971 32.8608 29.0715 33.0144C29.1397 33.168 29.177 33.3462 29.177 33.5366C29.177 33.7271 29.1397 33.9114 29.0653 34.0772C28.9909 34.2431 28.8854 34.3844 28.749 34.5011C28.6125 34.624 28.4513 34.7162 28.2652 34.7776C28.0791 34.8452 27.8744 34.8759 27.6573 34.8759H27.1983V32.2772Z" fill="#F2F1EF"/>
<path d="M31.9928 34.7717C32.2037 34.7717 32.3587 34.7226 32.4642 34.6243C32.5634 34.526 32.613 34.3724 32.613 34.1635C32.613 33.9546 32.5572 33.7949 32.4456 33.6966C32.3339 33.5983 32.1603 33.543 31.9308 33.543H31.6516V34.7717H31.9928ZM31.9059 33.4447C32.0548 33.4447 32.1727 33.3956 32.2595 33.2973C32.3463 33.199 32.3898 33.0577 32.3898 32.8795C32.3898 32.5478 32.2161 32.3758 31.8749 32.3758H31.6454V33.4447H31.9059ZM31.2857 32.2775H31.9184C32.2099 32.2775 32.427 32.3266 32.5696 32.4188C32.7123 32.5109 32.7805 32.6584 32.7805 32.8488C32.7805 32.9963 32.7309 33.1191 32.6317 33.2236C32.5324 33.328 32.396 33.4079 32.2223 33.4509C32.3339 33.4509 32.4394 33.4693 32.5386 33.5C32.6316 33.5307 32.7185 33.5799 32.7867 33.6352C32.8549 33.6905 32.9108 33.7642 32.948 33.8441C32.9852 33.9239 33.0038 34.0099 33.0038 34.1021C33.0038 34.2127 32.979 34.3171 32.9294 34.4093C32.8798 34.5014 32.8115 34.5874 32.7247 34.655C32.6379 34.7226 32.5324 34.7779 32.4146 34.8147C32.2967 34.8516 32.1665 34.87 32.03 34.87H31.2857V32.2713V32.2775Z" fill="#F2F1EF"/>
<path d="M34.809 33.9122L34.3562 32.7634L33.9221 33.9122H34.809ZM34.4493 32.2596H34.5423L35.5595 34.8706H35.175L34.8524 34.0105H33.891L33.5747 34.8706H33.4693L34.4493 32.2596Z" fill="#F2F1EF"/>
<path d="M36.6759 33.7158L35.8695 32.2782H36.3285L37.017 33.5499L37.7303 32.2782H37.8295L37.0356 33.6912V34.8769H36.6759V33.7158Z" fill="#F2F1EF"/>
<path d="M39.7896 32.2782H40.1494V33.4884H41.1976V32.2782H41.5573V34.8707H41.1976V33.5867H40.1494V34.8707H39.7896V32.2782Z" fill="#F2F1EF"/>
<path d="M43.5049 33.9122L43.0521 32.7634L42.6179 33.9122H43.5049ZM43.1389 32.2596H43.2319L44.2492 34.8706H43.8646L43.5359 34.0105H42.5745L42.2581 34.8706H42.1527L43.1327 32.2596H43.1389Z" fill="#F2F1EF"/>
<path d="M44.8695 32.2782H45.2292V34.7724H46.0293V34.8707H44.8695V32.2782Z" fill="#F2F1EF"/>
<path d="M48.4358 34.7472C48.5598 34.6858 48.6653 34.5998 48.7583 34.4892C48.8451 34.3786 48.9134 34.2435 48.963 34.0899C49.0064 33.9363 49.0312 33.7643 49.0312 33.58C49.0312 33.3957 49.0064 33.2114 48.9568 33.0516C48.9072 32.8919 48.8389 32.7567 48.7459 32.6462C48.6528 32.5356 48.5412 32.4496 48.4171 32.3881C48.2869 32.3267 48.1442 32.3021 47.983 32.3021C47.8341 32.3021 47.6977 32.3328 47.5674 32.3943C47.4433 32.4557 47.3317 32.5417 47.2449 32.6523C47.158 32.7629 47.0836 32.898 47.0402 33.0516C46.9906 33.2052 46.9658 33.3772 46.9658 33.5615C46.9658 33.7458 46.9906 33.924 47.0402 34.0837C47.0898 34.2373 47.1642 34.3725 47.2573 34.4892C47.3503 34.5998 47.462 34.6858 47.5984 34.7472C47.7287 34.8087 47.8775 34.8332 48.0388 34.8332C48.1815 34.8332 48.3179 34.8025 48.442 34.7411M47.2573 34.7595C47.1518 34.7042 47.0526 34.6305 46.9658 34.5506C46.8789 34.4708 46.8045 34.3786 46.7425 34.2742C46.6122 34.0592 46.5502 33.8257 46.5502 33.5738C46.5502 33.451 46.5688 33.3281 46.5998 33.2114C46.6308 33.0946 46.6804 32.9841 46.7487 32.8796C46.8107 32.7813 46.8851 32.6892 46.9782 32.6032C47.065 32.5172 47.1642 32.4496 47.2759 32.3881C47.5054 32.2653 47.7535 32.2038 48.0202 32.2038C48.1504 32.2038 48.2807 32.2223 48.411 32.253C48.535 32.2837 48.6528 32.3328 48.7583 32.3881C48.8637 32.4496 48.963 32.5172 49.0498 32.6032C49.1366 32.6892 49.2111 32.7813 49.2731 32.8796C49.3351 32.9841 49.3847 33.0946 49.4158 33.2114C49.4468 33.3281 49.4654 33.451 49.4654 33.58C49.4654 33.8257 49.3972 34.0592 49.2669 34.268C49.2049 34.3725 49.1304 34.4585 49.0436 34.5445C48.9568 34.6305 48.8575 34.6981 48.7459 34.7595C48.6404 34.821 48.5226 34.864 48.3985 34.8947C48.2745 34.9254 48.1442 34.9438 48.014 34.9438C47.7473 34.9438 47.4992 34.8824 47.2697 34.7595" fill="#F2F1EF"/>
<path d="M50.3274 32.9108V34.8767H50.2281V32.2596H50.315L51.6795 34.2378V32.278H51.7726V34.889H51.6857L50.3274 32.9108Z" fill="#F2F1EF"/>
<path d="M53.4413 34.8455C53.2615 34.7779 53.1002 34.6858 52.9699 34.5629C52.8335 34.4401 52.7342 34.2988 52.6598 34.139C52.5854 33.9793 52.5482 33.8011 52.5482 33.6168C52.5482 33.3527 52.6164 33.1131 52.7529 32.8919C52.8149 32.7875 52.8955 32.6892 52.9885 32.6093C53.0816 32.5233 53.1808 32.4496 53.2925 32.3943C53.5282 32.2714 53.7825 32.2038 54.0678 32.2038C54.2911 32.2038 54.4834 32.2407 54.657 32.3144C54.8245 32.3881 54.9796 32.5049 55.1222 32.6707L54.8927 32.8919C54.8183 32.7015 54.7067 32.554 54.5516 32.4557C54.3965 32.3574 54.2043 32.3083 53.9686 32.3083C53.8197 32.3083 53.6832 32.339 53.5592 32.3943C53.4413 32.4496 53.3359 32.5356 53.2429 32.6462C53.156 32.7567 53.0878 32.8858 53.0444 33.0393C52.9947 33.1929 52.9761 33.3649 52.9761 33.5493C52.9761 33.7581 53.001 33.9363 53.0506 34.1022C53.1002 34.2619 53.1746 34.397 53.2677 34.5076C53.3607 34.6182 53.4785 34.7042 53.6212 34.7595C53.7639 34.8148 53.9251 34.8455 54.105 34.8455C54.2539 34.8455 54.3779 34.8332 54.4772 34.8148C54.5764 34.7964 54.6756 34.7534 54.7811 34.6981V33.752H53.8941V33.6475H55.147V34.6059C54.9796 34.7288 54.7997 34.8148 54.6198 34.8762C54.4399 34.9315 54.2415 34.9622 54.0368 34.9622C53.8321 34.9622 53.6398 34.9315 53.4599 34.864" fill="#F2F1EF"/>
<path d="M57.0449 32.2782H57.4295L58.18 34.4161L58.9243 32.2782H59.0236L58.0746 34.9199H57.9939L57.0449 32.2782Z" fill="#F2F1EF"/>
<path d="M59.9789 32.2782H59.613V34.8769H59.9789V32.2782Z" fill="#F2F1EF"/>
<path d="M60.9278 32.2782H61.2876V34.7724H62.0877V34.8707H60.9278V32.2782Z" fill="#F2F1EF"/>
<path d="M62.77 32.2782H63.1359V34.7724H63.9299V34.8707H62.77V32.2782Z" fill="#F2F1EF"/>
<path d="M65.6105 33.9122L65.1577 32.7634L64.7235 33.9122H65.6105ZM65.2445 32.2596H65.3314L66.3486 34.8706H65.964L65.6353 34.0105H64.6739L64.3576 34.8706H64.2521L65.2321 32.2596H65.2445Z" fill="#F2F1EF"/>
<path d="M67.3723 34.8761C67.2792 34.8454 67.1862 34.8085 67.1056 34.7594C67.0187 34.7103 66.9443 34.6488 66.8823 34.5874C66.8202 34.5198 66.7768 34.4522 66.7458 34.3785L67.0063 34.2065C67.0063 34.2864 67.0311 34.3662 67.0683 34.4399C67.1118 34.5137 67.1614 34.5812 67.2234 34.6365C67.2916 34.6918 67.3599 34.741 67.4467 34.7717C67.5273 34.8024 67.6142 34.8208 67.701 34.8208C67.7878 34.8208 67.8747 34.8085 67.9429 34.784C68.0173 34.7594 68.0794 34.7287 68.129 34.6857C68.1786 34.6427 68.222 34.5935 68.2468 34.5321C68.2716 34.4707 68.284 34.4031 68.284 34.3294C68.284 34.2618 68.2716 34.2065 68.253 34.1573C68.2282 34.1082 68.191 34.059 68.1414 34.0099C68.0918 33.9607 68.0173 33.9177 67.9367 33.8686C67.8499 33.8256 67.7444 33.7703 67.6142 33.715C67.3475 33.6044 67.1552 33.4877 67.0373 33.3587C66.9753 33.2973 66.9319 33.2235 66.9009 33.156C66.8699 33.0822 66.8575 33.0024 66.8575 32.9164C66.8575 32.8242 66.8761 32.7321 66.9195 32.646C66.9629 32.56 67.0187 32.4863 67.0932 32.4249C67.1676 32.3634 67.2544 32.3143 67.3475 32.2774C67.4467 32.2467 67.5521 32.2283 67.6638 32.2283C67.7568 32.2283 67.8499 32.2406 67.9429 32.2652C68.0297 32.2897 68.1104 32.3266 68.1848 32.3696C68.2592 32.4126 68.3213 32.4679 68.3709 32.5232C68.4205 32.5846 68.4515 32.646 68.4701 32.7136L68.2158 32.9041C68.2158 32.8242 68.1972 32.7505 68.1662 32.6829C68.1352 32.6153 68.0918 32.5539 68.0359 32.4986C67.9801 32.4495 67.9119 32.4065 67.8375 32.3757C67.763 32.345 67.6824 32.3327 67.6018 32.3327C67.5273 32.3327 67.4591 32.345 67.3971 32.3634C67.3351 32.3819 67.2854 32.4187 67.242 32.4556C67.1986 32.4986 67.1614 32.5416 67.1366 32.5969C67.1118 32.6522 67.0994 32.7136 67.0994 32.7751C67.0994 32.8426 67.1118 32.8979 67.1242 32.9471C67.1428 32.9962 67.1738 33.0392 67.2234 33.0822C67.2668 33.1252 67.3351 33.1682 67.4219 33.2112C67.5025 33.2543 67.6204 33.3095 67.7692 33.371C67.9181 33.4386 68.0484 33.5 68.1476 33.5553C68.2468 33.6106 68.3275 33.672 68.3895 33.7273C68.4515 33.7887 68.4949 33.8502 68.5197 33.9177C68.5446 33.9853 68.5632 34.059 68.5632 34.1451C68.5632 34.2495 68.5384 34.3539 68.4949 34.4461C68.4515 34.5382 68.3833 34.6181 68.3027 34.6918C68.2158 34.7594 68.1228 34.8147 68.0111 34.8515C67.8995 34.8884 67.7816 34.9068 67.6514 34.9068C67.5583 34.9068 67.4653 34.8946 67.3723 34.8638" fill="#F2F1EF"/>
</g>
<defs>
<clipPath id="clip0_0_700">
<rect width="84.8485" height="43.222" fill="white" transform="scale(1.00178)"/>
</clipPath>
</defs>
</svg>
