<svg width="69" height="49" viewBox="0 0 69 49" fill="none" xmlns="http://www.w3.org/2000/svg">
<path d="M3.07966 39.8489L4.87378 34.3811H5.01179L6.8966 39.9075L7.78381 36.744C7.92182 36.2441 7.96914 35.7481 7.96914 35.3185C7.96914 34.8888 7.88239 34.5647 7.4171 34.5373L7.20811 34.5256V34.4944H9.15996V34.5256L9.04955 34.5373C8.69467 34.5647 8.41865 34.6545 7.82718 36.744L6.56538 41.1963H6.43525L4.51101 35.6192L2.67745 41.1963H2.54733L1.09626 36.1386C0.69012 34.7404 0.563938 34.5842 0.157795 34.5373L0.0789277 34.5256V34.4944H2.38566V34.5256L2.17668 34.5373C1.57338 34.5647 1.63252 34.9279 1.96769 36.0918L3.06388 39.8528L3.07966 39.8489Z" fill="#FFE4C8"/>
<path d="M6.64023 41.2897H6.37604L4.52277 35.9117L2.7523 41.2897H2.48811L1.02127 36.1656C0.611184 34.744 0.496836 34.6698 0.16167 34.6307L0 34.6112V34.4081H2.49205V34.6151L2.19631 34.6307C1.9755 34.6424 1.90847 34.701 1.87692 34.7401C1.75469 34.9119 1.87692 35.3767 2.07408 36.064L3.08352 39.5361L4.80668 34.2909H5.07875L6.88865 39.5986L7.69699 36.7241C7.81922 36.2906 7.88232 35.8063 7.88232 35.322C7.88232 34.8377 7.76008 34.6541 7.41703 34.6307L7.12129 34.6151V34.4081H9.25846V34.6151L9.06525 34.6307C8.78135 34.6541 8.51716 34.6776 7.92175 36.7709L6.64023 41.2897ZM4.5898 35.5446L6.50222 41.0944L6.81766 39.9774L4.94074 34.4745L4.5898 35.5446ZM0.555983 34.5877C0.772855 34.7713 0.926635 35.1814 1.19477 36.1109L2.62218 41.0866L3.00466 39.9227L1.89665 36.1109C1.65217 35.2595 1.56148 34.8611 1.72709 34.6307C1.73892 34.6151 1.75075 34.5995 1.76258 34.5877H0.555983ZM7.83105 34.5877C8.02821 34.7557 8.05976 35.0369 8.05976 35.3181C8.05976 35.4548 8.05581 35.5954 8.04399 35.7321C8.27663 35.0564 8.46196 34.7401 8.6394 34.5916H7.82711L7.83105 34.5877Z" fill="#FFE4C8"/>
<path d="M12.3651 41.208C10.2752 41.208 9.11199 39.5677 9.11199 37.7789C9.11199 35.9902 10.2752 34.3694 12.3651 34.3694C14.4549 34.3694 15.6182 35.9902 15.6182 37.7789C15.6182 39.5677 14.4549 41.208 12.3651 41.208ZM12.3651 34.4084C10.6695 34.4084 10.1254 36.0097 10.1254 37.7867C10.1254 39.5637 10.6695 41.165 12.3651 41.165C14.0606 41.165 14.6048 39.5637 14.6048 37.7867C14.6048 36.0097 14.0606 34.4084 12.3651 34.4084Z" fill="#FFE4C8"/>
<path d="M12.3656 41.2974C10.1693 41.2974 9.01786 39.5282 9.01786 37.7785C9.01786 36.0288 10.1693 34.2791 12.3656 34.2791C14.5619 34.2791 15.7133 36.0406 15.7133 37.7785C15.7133 39.5165 14.5619 41.2974 12.3656 41.2974ZM12.3656 34.5018C10.5005 34.5018 10.2205 36.56 10.2205 37.7902C10.2205 39.0205 10.5005 41.0787 12.3656 41.0787C14.2307 41.0787 14.5106 39.0205 14.5106 37.7902C14.5106 36.56 14.2307 34.5018 12.3656 34.5018ZM13.6156 34.7049C14.3214 35.2321 14.696 36.2827 14.696 37.7902C14.696 39.2978 14.3214 40.3445 13.6195 40.8717C14.6684 40.4421 15.524 39.4384 15.524 37.7824C15.524 36.1265 14.6644 35.1345 13.6156 34.7088V34.7049ZM11.1117 34.7049C10.0588 35.1306 9.20319 36.1304 9.20319 37.7785C9.20319 39.4267 10.0588 40.4382 11.1077 40.8678C10.4058 40.3406 10.0312 39.29 10.0312 37.7863C10.0312 36.2827 10.4058 35.2282 11.1117 34.701V34.7049Z" fill="#FFE4C8"/>
<path d="M22.539 39.9587V36.8421C22.539 36.0414 22.2629 34.5769 21.5138 34.5378L21.3048 34.5261V34.4948H23.4459V34.5261L23.3355 34.5378C22.7913 34.5886 22.5745 35.3384 22.5745 36.8421V41.1694H22.4364L17.2709 35.0846V38.7363C17.2709 39.5369 17.547 41.0015 18.2962 41.0406L18.5051 41.0523V41.0796H16.364V41.0523L16.4744 41.0406C17.0186 40.9898 17.2355 40.2399 17.2355 38.7363V36.0102C17.2355 34.6706 17.0265 34.5534 16.5454 34.5339L16.368 34.5222V34.4909H17.9965L22.5429 39.9509L22.539 39.9587Z" fill="#FFE4C8"/>
<path d="M22.673 41.2589H22.4009L17.3695 35.3342V38.7359C17.3695 39.6069 17.6692 40.9152 18.308 40.9504L18.6037 40.966V41.173H16.2773V40.966L16.4705 40.9504C16.9318 40.9074 17.1447 40.2044 17.1447 38.7359V36.0098C17.1447 34.6507 16.9318 34.6429 16.5454 34.6273L16.2773 34.6116V34.4046H18.0398L22.4482 39.7006V36.8417C22.4482 35.9708 22.1486 34.6624 21.5098 34.6273L21.214 34.6116V34.4046H23.5405V34.6116L23.3473 34.6273C22.8859 34.6702 22.673 35.3732 22.673 36.8417V41.2589ZM22.4837 41.0753V40.0365L22.464 40.013L17.9452 34.5882H17.0304C17.1053 34.6507 17.1605 34.7405 17.2039 34.8655L22.4759 41.0753H22.4837ZM16.8372 40.9894H17.9097C17.5943 40.7512 17.3932 40.2513 17.2867 39.7318C17.2197 40.3841 17.0777 40.7902 16.8411 40.9894H16.8372ZM21.9041 34.5882C22.2195 34.8265 22.4207 35.3264 22.5271 35.8458C22.5941 35.1936 22.7361 34.7874 22.9727 34.5882H21.9001H21.9041Z" fill="#FFE4C8"/>
<path d="M23.872 41.0513L24.081 41.0396C24.566 41.02 24.6527 40.9029 24.6527 39.5633V36.0092C24.6527 34.6696 24.566 34.5524 24.081 34.5329L23.872 34.5212V34.49H27.1053C29.2859 34.49 30.4373 35.9741 30.4373 37.7706C30.4373 39.5672 29.2228 41.0708 27.1132 41.0708H23.868V41.0435L23.872 41.0513ZM26.0092 34.5368C25.5754 34.5368 25.5439 34.693 25.5439 36.0131V39.5672C25.5439 40.8873 25.5715 41.0435 26.0092 41.0435H27.1053C28.7733 41.0435 29.4239 39.45 29.4239 37.7901C29.4239 36.1303 28.6432 34.5368 27.1053 34.5368H26.0092Z" fill="#FFE4C8"/>
<path d="M27.1127 41.173H23.7769V40.966L24.0726 40.9504C24.4551 40.9348 24.5576 40.9309 24.5576 39.5678V36.0138C24.5576 34.6507 24.4551 34.6468 24.0765 34.6312L23.7808 34.6156V34.4086H27.1088C28.8122 34.4086 30.5354 35.4514 30.5354 37.783C30.5354 39.7787 29.1316 41.1769 27.1206 41.1769L27.1127 41.173ZM24.5339 40.9894H25.6065C25.4527 40.7942 25.4527 40.3724 25.4527 39.5678V36.0138C25.4527 35.2092 25.4527 34.7874 25.6065 34.5921H24.5339C24.7074 34.7718 24.739 35.1663 24.739 36.0138V39.5678C24.739 40.4153 24.7035 40.8098 24.53 40.9894H24.5339ZM26.0087 34.6273C25.6814 34.6273 25.638 34.6781 25.638 36.0098V39.5639C25.638 40.8957 25.6814 40.9465 26.0087 40.9465H27.1049C28.7452 40.9465 29.3288 39.314 29.3288 37.7869C29.3288 36.2598 28.6427 34.6273 27.1049 34.6273H26.0087ZM28.1774 34.7288C29.0922 35.2756 29.5141 36.5371 29.5141 37.7869C29.5141 38.9742 29.175 40.22 28.2878 40.7981C29.5378 40.3724 30.3422 39.2476 30.3422 37.7752C30.3422 36.2168 29.522 35.1038 28.1734 34.7249L28.1774 34.7288Z" fill="#FFE4C8"/>
<path d="M34.8927 38.8144L34.8336 38.5996C34.6088 37.7794 34.0923 37.7208 33.6112 37.7208H33.0474V39.5682C33.0474 40.8883 33.0789 41.0445 33.5126 41.0445H34.254C35.22 41.0445 35.7721 40.857 36.265 39.3534L36.3754 39.0214H36.4069V41.0835H31.3794V41.0562L31.5884 41.0445C32.0734 41.0249 32.1602 40.9078 32.1602 39.5682V36.0141C32.1602 34.6745 32.0734 34.5573 31.5884 34.5378L31.3794 34.5261V34.4949H36.2097V36.2641H36.1821L36.0717 35.9321C35.6577 34.6706 34.9558 34.5339 34.0607 34.5339H33.5166C33.0829 34.5339 33.0513 34.6901 33.0513 36.0102V37.6818H33.6152C34.1002 37.6818 34.6128 37.6232 34.8375 36.803L34.8967 36.5882H34.9282V38.8144H34.8967H34.8927Z" fill="#FFE4C8"/>
<path d="M36.4937 41.173H31.2809V40.966L31.5766 40.9504C31.9591 40.9348 32.0616 40.9309 32.0616 39.5678V36.0138C32.0616 34.6507 31.9591 34.6468 31.5806 34.6312L31.2848 34.6156V34.4086H36.3005V36.3614H36.1112L35.9811 35.9669C35.5749 34.7327 34.9007 34.6351 34.0568 34.6351H33.5127C33.1854 34.6351 33.142 34.6859 33.142 36.0177V37.5955H33.6113C34.0884 37.5955 34.5379 37.533 34.7429 36.7831L34.8218 36.502H35.015V38.9117H34.8218L34.7429 38.6305C34.534 37.8806 34.0884 37.8181 33.6113 37.8181H33.142V39.5717C33.142 40.9035 33.1854 40.9543 33.5127 40.9543H34.254C35.1175 40.9543 35.6814 40.8449 36.1782 39.3296L36.3084 38.9351H36.4976V41.1808L36.4937 41.173ZM35.2161 40.9894H36.3084V39.5092C36.0047 40.3802 35.6735 40.802 35.2161 40.9894ZM32.038 40.9894H33.1105C32.9567 40.7942 32.9567 40.3724 32.9567 39.5678V36.0138C32.9567 35.2092 32.9567 34.7874 33.1105 34.5921H32.038C32.2115 34.7718 32.243 35.1663 32.243 36.0138V39.5678C32.243 40.4153 32.2075 40.8098 32.034 40.9894H32.038ZM34.1949 37.701C34.4433 37.783 34.672 37.9548 34.8297 38.3102V37.0956C34.672 37.451 34.4472 37.6228 34.1949 37.7049V37.701ZM35.086 34.5882C35.5 34.7484 35.8589 35.0842 36.1112 35.7794V34.5882H35.086Z" fill="#FFE4C8"/>
<path d="M43.864 41.0396L44.0414 41.0513V41.0786H42.405C42.3143 40.8951 42.196 40.649 41.991 40.2663C41.7938 39.9031 41.4981 39.3172 41.3206 39.0165C40.7173 37.9698 40.5202 37.8136 39.8499 37.8136H39.219V39.5633C39.219 40.9029 39.3097 41.02 39.7907 41.0396L39.9997 41.0513V41.0786H37.5431V41.0513L37.7521 41.0396C38.2371 41.02 38.3239 40.9029 38.3239 39.5633V36.0092C38.3239 34.6696 38.2371 34.5524 37.7521 34.5329L37.5431 34.5212V34.49H40.7962C41.9792 34.49 42.9649 35.0484 42.9649 36.1498C42.9649 36.8645 42.4523 37.3918 41.7702 37.6339C41.297 37.8019 40.8238 37.8292 40.2599 37.8097C41.3758 38.0909 41.8687 38.4346 42.3104 39.118C42.4287 39.3016 42.7362 39.821 42.8348 39.989C43.2015 40.5865 43.4973 41.0161 43.86 41.0357L43.864 41.0396ZM40.7883 37.7784C41.7544 37.7784 41.9634 37.0559 41.9634 36.1772C41.9634 35.1109 41.5296 34.5368 40.8002 34.5368H39.6842C39.2505 34.5368 39.219 34.693 39.219 36.0131V37.7823H40.7883V37.7784Z" fill="#FFE4C8"/>
<path d="M44.1355 41.173H42.3493L42.3256 41.1222C42.231 40.9269 42.1127 40.6848 41.9155 40.3177C41.8406 40.1771 41.746 40.0013 41.6514 39.8217C41.5055 39.5405 41.3517 39.2515 41.2452 39.0679C40.634 38.0056 40.4605 37.9119 39.8572 37.9119H39.321V39.5678C39.321 40.9309 39.4235 40.9348 39.802 40.9504L40.0978 40.966V41.173H37.4559V40.966L37.7516 40.9504C38.1341 40.9348 38.2366 40.9309 38.2366 39.5678V36.0138C38.2366 34.6507 38.1341 34.6468 37.7556 34.6312L37.4598 34.6156V34.4086H40.8075C42.1797 34.4086 43.0709 35.0959 43.0709 36.1622C43.0709 36.8652 42.6017 37.451 41.817 37.7322C41.5055 37.8416 41.194 37.8923 40.8943 37.9079C41.6119 38.1618 42.026 38.4977 42.4045 39.0796C42.511 39.2437 42.7515 39.6537 42.8856 39.8764L42.9289 39.9506C43.268 40.5051 43.5559 40.9348 43.8792 40.9504L44.1434 40.966V41.173H44.1355ZM42.4636 40.9894H43.4889C43.2365 40.802 43.0117 40.4583 42.7594 40.0443L42.7121 39.9662C42.5898 39.7631 42.3375 39.3374 42.2349 39.1773C41.8722 38.6188 41.4858 38.3102 40.7878 38.072C40.9653 38.2594 41.1466 38.5446 41.3951 38.9781C41.5055 39.1655 41.6592 39.4546 41.8051 39.7358C41.8998 39.9154 41.9905 40.0873 42.0654 40.2279C42.2507 40.5676 42.3651 40.802 42.4558 40.9894H42.4636ZM38.209 40.9894H39.3328C39.1593 40.8098 39.1278 40.4153 39.1278 39.5678V36.0138C39.1278 35.2092 39.1278 34.7874 39.2815 34.5921H38.209C38.3825 34.7718 38.414 35.1663 38.414 36.0138V39.5678C38.414 40.4153 38.3786 40.8098 38.2051 40.9894H38.209ZM39.3131 37.6892H40.7878C41.5449 37.6892 41.8682 37.2362 41.8682 36.1778C41.8682 35.178 41.4897 34.6273 40.7957 34.6273H39.6798C39.3525 34.6273 39.3091 34.6781 39.3091 36.0098V37.6853L39.3131 37.6892ZM41.5015 34.6663C41.8603 34.9397 42.0536 35.4592 42.0536 36.1778C42.0536 36.666 41.9944 37.2557 41.6159 37.5955C41.6592 37.5838 41.6987 37.5682 41.742 37.5525C42.4518 37.2987 42.8737 36.7753 42.8737 36.1544C42.8737 35.2756 42.231 34.8265 41.5015 34.6624V34.6663Z" fill="#FFE4C8"/>
<path d="M52.3997 41.208C52.1434 40.8838 51.895 40.669 51.69 40.669C51.5717 40.669 51.4928 40.7198 51.3351 40.8252C50.9684 41.0713 50.5938 41.208 50.1206 41.208C48.0702 41.208 47.0252 39.5364 47.0252 37.7984C47.0252 36.0605 48.0702 34.3694 50.1206 34.3694C50.5662 34.3694 50.9486 34.4865 51.2759 34.7013C51.3745 34.7716 51.4731 34.838 51.5914 34.838C51.7688 34.838 51.966 34.6506 52.2026 34.3694H52.2223V36.2636H52.1907L52.0803 35.9316C51.8162 35.1114 51.1616 34.4084 50.1364 34.4084C48.5473 34.4084 48.0347 36.0995 48.0347 37.7867C48.0347 39.4739 48.5473 41.165 50.1364 41.165C51.41 41.165 52.0685 40.0012 52.2775 39.3489L52.3879 39.017H52.4155V41.2041H52.3958L52.3997 41.208Z" fill="#FFE4C8"/>
<path d="M52.5146 41.2974H52.3568L52.3292 41.2623C51.998 40.8483 51.8009 40.7585 51.6905 40.7585C51.6037 40.7585 51.5406 40.7936 51.3869 40.8991C50.9768 41.1725 50.5864 41.2974 50.1211 41.2974C47.9287 41.2974 46.9311 39.4814 46.9311 37.7981C46.9311 36.1148 47.9287 34.2791 50.1211 34.2791C50.5706 34.2791 50.9768 34.3963 51.3277 34.6267C51.4184 34.6892 51.5012 34.7478 51.5919 34.7478C51.7496 34.7478 51.9625 34.5135 52.1321 34.3143L52.1597 34.2791H52.3174V36.3569H52.1282L51.998 35.9624C51.7023 35.0485 51.0083 34.5018 50.1448 34.5018C48.3349 34.5018 48.1377 36.8021 48.1377 37.7902C48.1377 38.7784 48.3349 41.0787 50.1448 41.0787C51.5998 41.0787 52.14 39.5048 52.1952 39.3251L52.3253 38.9307H52.5146V41.3013V41.2974ZM51.6905 40.5788C51.8758 40.5788 52.0848 40.7116 52.3253 40.9772V39.5048C52.1913 39.8758 51.9704 40.2625 51.6707 40.5749C51.6786 40.5749 51.6826 40.5749 51.6905 40.5749V40.5788ZM49.0801 34.6346C47.7394 35.1071 47.1204 36.4936 47.1204 37.802C47.1204 39.1103 47.7434 40.4812 49.0841 40.9498C48.3546 40.446 47.9524 39.3564 47.9524 37.7902C47.9524 36.2241 48.3546 35.1384 49.0841 34.6346H49.0801ZM51.6077 34.9314C51.8285 35.1579 52.0059 35.4469 52.1321 35.7828V34.5955C51.9468 34.7986 51.7772 34.9236 51.6077 34.9314Z" fill="#FFE4C8"/>
<path d="M55.1913 39.5682C55.1913 40.9078 55.282 41.0249 55.763 41.0445L55.972 41.0562V41.0835H53.5155V41.0562L53.7245 41.0445C54.2095 41.0249 54.2962 40.9078 54.2962 39.5682V36.0141C54.2962 34.6745 54.2095 34.5573 53.7245 34.5378L53.5155 34.5261V34.4949H55.972V34.5261L55.763 34.5378C55.278 34.5573 55.1913 34.6745 55.1913 36.0141V39.5682Z" fill="#FFE4C8"/>
<path d="M56.0627 41.173H53.4208V40.966L53.7166 40.9504C54.0991 40.9348 54.2016 40.9309 54.2016 39.5678V36.0138C54.2016 34.6507 54.0991 34.6468 53.7205 34.6312L53.4248 34.6156V34.4086H56.0667V34.6156L55.771 34.6312C55.3885 34.6468 55.2859 34.6507 55.2859 36.0138V39.5678C55.2859 40.9309 55.3885 40.9348 55.767 40.9504L56.0627 40.966V41.173ZM54.1779 40.9894H55.3017C55.1282 40.8098 55.0967 40.4153 55.0967 39.5678V36.0138C55.0967 35.1663 55.1322 34.7718 55.3057 34.5921H54.1819C54.3554 34.7718 54.3869 35.1663 54.3869 36.0138V39.5678C54.3869 40.4153 54.3514 40.8098 54.1779 40.9894Z" fill="#FFE4C8"/>
<path d="M60.602 41.0796H58.1454V41.0523L58.3544 41.0406C58.8394 41.021 58.9262 40.9039 58.9262 39.5643V36.0102C58.9262 34.6901 58.8946 34.5339 58.4609 34.5339H58.2046C57.897 34.5339 57.2069 34.6003 56.7062 36.1274L56.5958 36.4593H56.5642V34.4949H62.1753V36.4593H62.1437L62.0333 36.1274C61.5286 34.6042 60.8386 34.5339 60.535 34.5339H60.2786C59.8449 34.5339 59.8134 34.6901 59.8134 36.0102V39.5643C59.8134 40.9039 59.9041 41.021 60.3851 41.0406L60.5941 41.0523V41.0796H60.602Z" fill="#FFE4C8"/>
<path d="M60.6966 41.173H58.0547V40.966L58.3504 40.9504C58.7329 40.9347 58.8354 40.9308 58.8354 39.5678V36.0137C58.8354 34.6819 58.7921 34.6312 58.4648 34.6312H58.2085C57.9837 34.6312 57.3016 34.6312 56.7968 36.1582L56.6667 36.5527H56.4775V34.4046H62.2739V36.5527H62.0846L61.9545 36.1582C61.4497 34.6312 60.7676 34.6312 60.5428 34.6312H60.2865C59.9593 34.6312 59.9159 34.6819 59.9159 36.0137V39.5678C59.9159 40.9308 60.0184 40.9347 60.3969 40.9504L60.6927 40.966V41.173H60.6966ZM58.8118 40.9894H59.9356C59.7621 40.8098 59.7305 40.4153 59.7305 39.5678V36.0137C59.7305 35.2092 59.7305 34.7874 59.8843 34.5921H58.863C59.0168 34.7874 59.0168 35.2092 59.0168 36.0137V39.5678C59.0168 40.4153 58.9814 40.8098 58.8079 40.9894H58.8118ZM56.6628 34.5882V35.9747C56.9585 35.1428 57.3173 34.764 57.621 34.5882H56.6628ZM61.1303 34.5882C61.434 34.7601 61.7928 35.1389 62.0885 35.9747V34.5882H61.1303Z" fill="#FFE4C8"/>
<path d="M66.8512 36.7435C67.1351 36.3138 67.5137 35.6382 67.5137 35.2086C67.5137 34.8454 67.4269 34.5642 66.9617 34.5329L66.7527 34.5212V34.49H68.9017V34.5212L68.6927 34.5329C68.3181 34.5524 68.0697 34.9235 66.8867 36.7591L66.177 37.8448V39.5633C66.177 40.9029 66.2637 41.02 66.7487 41.0396L66.9577 41.0513V41.0786H64.5011V41.0513L64.7101 41.0396C65.1951 41.02 65.2819 40.9029 65.2819 39.5633V37.8722L64.1384 36.1342C63.3379 34.9118 63.1723 34.5524 62.7662 34.5329L62.5887 34.5212V34.49H65.0256V34.5212L64.8166 34.5329C64.1739 34.5837 64.4617 35.0602 65.1044 36.0873L66.1612 37.7862L66.8512 36.7396V36.7435Z" fill="#FFE4C8"/>
<path d="M67.0523 41.173H64.4104V40.966L64.7061 40.9504C65.0886 40.9348 65.1912 40.9309 65.1912 39.5678V37.904L64.0634 36.1895C63.9491 36.0138 63.8465 35.8575 63.7559 35.7169C63.2235 34.8929 63.0658 34.6468 62.7661 34.6312L62.5019 34.6156V34.4086H65.1241V34.6156L64.8284 34.6312C64.6864 34.6429 64.5997 34.6741 64.5721 34.7327C64.4814 34.9085 64.8087 35.4357 65.1912 36.045L66.1691 37.6228L66.7802 36.6972C66.9301 36.4707 67.4269 35.6896 67.4269 35.2131C67.4269 34.8733 67.3481 34.6546 66.9616 34.6312L66.6659 34.6156V34.4086H69.0002V34.6156L68.7045 34.6312C68.3811 34.6468 68.1248 35.0256 66.9734 36.8144L66.2794 37.8767V39.5678C66.2794 40.9309 66.382 40.9348 66.7605 40.9504L67.0563 40.966V41.173H67.0523ZM65.1714 40.9894H66.2952C66.1217 40.8098 66.0902 40.4153 66.0902 39.5678L66.0823 37.8377L65.0255 36.1387C64.509 35.3147 64.2685 34.9046 64.3986 34.6468C64.4104 34.6273 64.4222 34.6078 64.438 34.5921H63.1525C63.3536 34.7562 63.5587 35.0725 63.9136 35.6193C64.0043 35.7599 64.1068 35.9161 64.2211 36.0919L65.3804 37.8533V39.5717C65.3804 40.4192 65.3449 40.8137 65.1714 40.9933V40.9894ZM67.3914 34.5882C67.5767 34.7405 67.6083 34.9866 67.6083 35.2092C67.6083 35.3264 67.5846 35.4592 67.5413 35.5959C67.908 35.0413 68.1367 34.7405 68.3299 34.5882H67.3914Z" fill="#FFE4C8"/>
<path d="M21.9397 30.3738L22.6573 28.5147C22.7599 28.2531 22.8151 27.968 22.8151 27.7336C22.8151 27.4993 22.7677 27.3196 22.5114 27.304H22.3971V27.2845H23.4933V27.3001H23.4341C23.2133 27.3274 23.1108 27.4016 22.677 28.5147L21.7346 30.944H21.6755L20.5359 28.1828C20.2165 27.4134 20.1613 27.3314 19.9405 27.304H19.8971V27.2845H21.1905V27.3001H21.0485C20.7015 27.3157 20.8001 27.5344 21.0485 28.1554L21.9357 30.3738H21.9397Z" fill="#FFE4C8"/>
<path d="M21.7738 30.9907H21.6515L20.5001 28.1982C20.1807 27.4249 20.1334 27.3702 19.9442 27.3468L19.8614 27.335V27.2335H21.2454V27.339L21.0601 27.3468C20.9733 27.3468 20.9181 27.3663 20.8945 27.3975C20.8393 27.4835 20.9339 27.7217 21.0798 28.0849L21.9433 30.2408L22.6215 28.495C22.7201 28.245 22.7753 27.9677 22.7753 27.7295C22.7753 27.46 22.7083 27.3585 22.5151 27.3468L22.3574 27.339V27.2335H23.5482V27.339L23.4457 27.3468C23.2524 27.3663 23.1578 27.4171 22.728 28.5262L21.7777 30.9867L21.7738 30.9907ZM20.1453 27.3311C20.2675 27.4249 20.3661 27.6436 20.5829 28.1669L21.7107 30.8969L21.9039 30.4009L20.993 28.1279C20.8195 27.6944 20.7328 27.4796 20.8156 27.3546C20.8195 27.3468 20.8274 27.339 20.8353 27.3311H20.1492H20.1453ZM22.728 27.3311C22.8424 27.421 22.8621 27.5811 22.8621 27.7334C22.8621 27.8115 22.8542 27.8974 22.8424 27.9834C23.0119 27.5889 23.1184 27.4093 23.2288 27.3272H22.728V27.3311Z" fill="#FFE4C8"/>
<path d="M24.6093 30.0613C24.6093 30.7956 24.6566 30.8581 24.9248 30.8698H25.0391V30.8893H23.6945V30.8737H23.8089C24.073 30.8581 24.1243 30.7917 24.1243 30.0613V28.1125C24.1243 27.3782 24.077 27.3157 23.8089 27.304H23.6945V27.2845H25.0391V27.3001H24.9248C24.6606 27.3157 24.6093 27.3821 24.6093 28.1125V30.0613Z" fill="#FFE4C8"/>
<path d="M25.0823 30.936H23.643V30.8305L23.8007 30.8227C24.0137 30.8149 24.0689 30.811 24.0689 30.0611V28.1123C24.0689 27.3624 24.0137 27.3585 23.8007 27.3507L23.643 27.3429V27.2374H25.0823V27.3429L24.9245 27.3507C24.7116 27.3585 24.6564 27.3624 24.6564 28.1123V30.0611C24.6564 30.811 24.7116 30.8149 24.9245 30.8227L25.0823 30.8305V30.936ZM24.0452 30.8462H24.684C24.5815 30.7524 24.5618 30.5376 24.5618 30.0611V28.1123C24.5618 27.6358 24.5815 27.421 24.684 27.3272H24.0452C24.1477 27.421 24.1675 27.6358 24.1675 28.1123V30.0611C24.1675 30.5376 24.1477 30.7524 24.0452 30.8462Z" fill="#FFE4C8"/>
<path d="M28.7533 30.2761V28.5694C28.7533 28.132 28.6035 27.3274 28.1895 27.304H28.0751V27.2845H29.2462V27.3001H29.1871C28.8913 27.3313 28.7691 27.7453 28.7691 28.5694V30.9401H28.6942L25.863 27.6047V29.6083C25.863 30.0457 26.0128 30.8503 26.4269 30.8737H26.5412V30.8932H25.3701V30.8776H25.4293C25.725 30.8464 25.8472 30.4324 25.8472 29.6083V28.1164C25.8472 27.3821 25.7329 27.3196 25.4687 27.3079H25.3701V27.2884H26.2613L28.7533 30.28V30.2761Z" fill="#FFE4C8"/>
<path d="M28.8245 30.9868H28.6826L28.6668 30.9711L25.9145 27.7334V29.6081C25.9145 30.0885 26.0801 30.8071 26.4311 30.8266L26.5888 30.8344V30.9399H25.3231V30.8344L25.4256 30.8266C25.6819 30.8032 25.8002 30.4165 25.8002 29.6081V28.1162C25.8002 27.3663 25.6819 27.3624 25.465 27.3546L25.3231 27.3468V27.2413H26.2852L26.3009 27.2569L28.7102 30.151V28.5692C28.7102 28.0888 28.5446 27.3702 28.1937 27.3507L28.0359 27.3429V27.2374H29.3017V27.3429L29.1991 27.3507C28.9428 27.3741 28.8245 27.7608 28.8245 28.5692V30.9868ZM28.722 30.893H28.7299V30.3189L26.2418 27.3312H25.7253C25.7686 27.3663 25.8041 27.4171 25.8317 27.4874L28.726 30.893H28.722ZM25.6188 30.8462H26.2339C26.0486 30.7173 25.9342 30.4244 25.8751 30.1197C25.8396 30.5025 25.7568 30.7368 25.6188 30.8462ZM28.3947 27.3312C28.5801 27.46 28.6944 27.753 28.7536 28.0576C28.7891 27.6748 28.8719 27.4405 29.0099 27.3312H28.3947Z" fill="#FFE4C8"/>
<path d="M33.0353 30.0613C33.0353 30.7956 33.0826 30.8581 33.3508 30.8698H33.4651V30.8893H32.1205V30.8737H32.2349C32.4991 30.8581 32.5503 30.7917 32.5503 30.0613V29.0498H30.5117V30.0613C30.5117 30.7956 30.559 30.8581 30.8272 30.8698H30.9415V30.8893H29.5969V30.8737H29.7113C29.9755 30.8581 30.0267 30.7917 30.0267 30.0613V28.1125C30.0267 27.3782 29.9794 27.3157 29.7113 27.304H29.5969V27.2845H30.9415V27.3001H30.8272C30.563 27.3157 30.5117 27.3821 30.5117 28.1125V29.0264H32.5503V28.1125C32.5503 27.3782 32.503 27.3157 32.2349 27.304H32.1205V27.2845H33.4651V27.3001H33.3508C33.0866 27.3157 33.0353 27.3821 33.0353 28.1125V30.0613Z" fill="#FFE4C8"/>
<path d="M33.5088 30.936H32.0696V30.8305L32.2273 30.8227C32.4402 30.8149 32.4954 30.811 32.4954 30.0611V29.0965H30.5515V30.0611C30.5515 30.811 30.6067 30.8149 30.8196 30.8227L30.9773 30.8305V30.936H29.5381V30.8305L29.6958 30.8227C29.9087 30.8149 29.9639 30.811 29.9639 30.0611V28.1123C29.9639 27.3624 29.9087 27.3585 29.6958 27.3507L29.5381 27.3429V27.2374H30.9773V27.3429L30.8196 27.3507C30.6067 27.3585 30.5515 27.3624 30.5515 28.1123V28.9832H32.4954V28.1123C32.4954 27.3624 32.4402 27.3585 32.2273 27.3507L32.0696 27.3429V27.2374H33.5088V27.3429L33.3511 27.3507C33.1382 27.3585 33.083 27.3624 33.083 28.1123V30.0611C33.083 30.811 33.1382 30.8149 33.3511 30.8227L33.5088 30.8305V30.936ZM32.4678 30.8462H33.1066C33.0041 30.7524 32.9844 30.5376 32.9844 30.0611V28.1123C32.9844 27.6358 33.0041 27.421 33.1066 27.3272H32.4678C32.5704 27.421 32.5901 27.6358 32.5901 28.1123V30.0611C32.5901 30.5376 32.5704 30.7524 32.4678 30.8462ZM29.9403 30.8462H30.5791C30.4766 30.7524 30.4568 30.5376 30.4568 30.0611V28.1123C30.4568 27.6358 30.4766 27.421 30.5791 27.3272H29.9403C30.0428 27.421 30.0625 27.6358 30.0625 28.1123V30.0611C30.0625 30.5376 30.0428 30.7524 29.9403 30.8462Z" fill="#FFE4C8"/>
<path d="M35.6585 30.9632C34.511 30.9632 33.8762 30.065 33.8762 29.0847C33.8762 28.1044 34.515 27.2178 35.6585 27.2178C36.802 27.2178 37.4408 28.1083 37.4408 29.0847C37.4408 30.0611 36.802 30.9632 35.6585 30.9632ZM35.6585 27.2334C34.7279 27.2334 34.4321 28.1122 34.4321 29.0847C34.4321 30.0572 34.7279 30.9359 35.6585 30.9359C36.589 30.9359 36.8848 30.0572 36.8848 29.0847C36.8848 28.1122 36.589 27.2334 35.6585 27.2334Z" fill="#FFE4C8"/>
<path d="M35.6582 31.006C34.4556 31.006 33.8286 30.0374 33.8286 29.0806C33.8286 28.1237 34.4556 27.1668 35.6582 27.1668C36.8609 27.1668 37.4878 28.1315 37.4878 29.0806C37.4878 30.0296 36.8609 31.006 35.6582 31.006ZM35.6582 27.2801C34.6291 27.2801 34.4793 28.4127 34.4793 29.0884C34.4793 29.764 34.633 30.8966 35.6582 30.8966C36.6835 30.8966 36.8372 29.764 36.8372 29.0884C36.8372 28.4127 36.6835 27.2801 35.6582 27.2801ZM36.3089 27.3777C36.7111 27.6589 36.9279 28.2409 36.9279 29.0845C36.9279 29.9281 36.715 30.51 36.3089 30.7912C36.9003 30.5647 37.3893 30.0062 37.3893 29.0806C37.3893 28.1549 36.9003 27.6043 36.3049 27.3777H36.3089ZM35.0037 27.3777C34.4122 27.6043 33.9193 28.1549 33.9193 29.0806C33.9193 30.0062 34.4083 30.5647 34.9997 30.7912C34.5975 30.51 34.3846 29.9281 34.3846 29.0845C34.3846 28.2409 34.6015 27.655 35.0037 27.3777Z" fill="#FFE4C8"/>
<path d="M38.3232 28.1125C38.3232 27.3782 38.2089 27.3157 37.9447 27.304H37.8461V27.2845H38.7609L40.0779 29.3661L41.2411 27.2845H42.0889V27.3001H41.9746C41.7104 27.3157 41.6591 27.3821 41.6591 28.1125V30.0613C41.6591 30.7956 41.7064 30.8581 41.9746 30.8698H42.0889V30.8893H40.7443V30.8737H40.8587C41.1228 30.8581 41.1741 30.7917 41.1741 30.0613V27.4446L39.861 29.8231H39.7901L38.3469 27.5813V29.6122C38.3469 30.0496 38.4967 30.8542 38.9107 30.8776H39.0251V30.8971H37.854V30.8815H37.9131C38.2089 30.8503 38.3311 30.4363 38.3311 29.6122V28.1203L38.3232 28.1125Z" fill="#FFE4C8"/>
<path d="M42.1404 30.936H40.7012V30.8305L40.8589 30.8227C41.0718 30.8149 41.127 30.811 41.127 30.0611V27.6241L39.8889 29.8659H39.7666L38.3944 27.7334V29.6042C38.3944 30.0846 38.56 30.8032 38.911 30.8227L39.0687 30.8305V30.936H37.803V30.8305L37.9055 30.8227C38.1618 30.7993 38.2801 30.4126 38.2801 29.6042V28.1123C38.2801 27.3624 38.1618 27.3585 37.9449 27.3507L37.803 27.3429V27.2374H38.7887L40.0781 29.2761L41.2138 27.2374H42.1365V27.3429L41.9787 27.3507C41.7658 27.3585 41.7106 27.3624 41.7106 28.1123V30.0611C41.7106 30.811 41.7658 30.8149 41.9787 30.8227L42.1365 30.8305V30.936H42.1404ZM41.0994 30.8462H41.7382C41.6357 30.7524 41.616 30.5376 41.616 30.0611V28.1123C41.616 27.6358 41.6357 27.421 41.7382 27.3272H41.269L41.2177 27.4171V30.0572C41.2177 30.5337 41.198 30.7485 41.0955 30.8423L41.0994 30.8462ZM38.0947 30.8462H38.7099C38.5245 30.7173 38.4102 30.4244 38.351 30.1197C38.3156 30.5025 38.2328 30.7368 38.0947 30.8462ZM39.814 29.776H39.8297L40.0426 29.3933L38.7375 27.3312H38.2012C38.2406 27.3624 38.2722 27.4054 38.2998 27.4718V27.4249L39.814 29.7799V29.776Z" fill="#FFE4C8"/>
<path d="M44.3565 29.6513L44.325 29.5341C44.1988 29.085 43.9188 29.0537 43.6546 29.0537H43.3471V30.0653C43.3471 30.7878 43.3628 30.8737 43.5994 30.8737H44.0056C44.5339 30.8737 44.8376 30.7722 45.1097 29.9481L45.1688 29.7645H45.1846V30.8932H42.4283V30.8776H42.5427C42.8069 30.862 42.8581 30.7956 42.8581 30.0653V28.1164C42.8581 27.3821 42.8108 27.3197 42.5427 27.3079H42.4283V27.2884H45.0781V28.257H45.0623L45.0032 28.0734C44.7745 27.3821 44.392 27.3079 43.8991 27.3079H43.6034C43.3668 27.3079 43.351 27.3939 43.351 28.1164V29.0303H43.6586C43.9228 29.0303 44.2027 28.999 44.3289 28.5499L44.3605 28.4327H44.3762V29.6552H44.3605L44.3565 29.6513Z" fill="#FFE4C8"/>
<path d="M45.2282 30.936H42.3773V30.8305L42.5351 30.8227C42.748 30.8149 42.8032 30.811 42.8032 30.0611V28.1123C42.8032 27.3624 42.748 27.3585 42.5351 27.3507L42.3773 27.3429V27.2374H45.1178V28.2997H45.0232L44.9522 28.0849C44.7274 27.4054 44.3568 27.3507 43.8954 27.3507H43.5997C43.4144 27.3507 43.3907 27.378 43.3907 28.1123V28.9832H43.651C43.9151 28.9832 44.1636 28.9481 44.2779 28.5341L44.3213 28.3817H44.4199V29.694H44.3213L44.2779 29.5417C44.1636 29.1277 43.9151 29.0926 43.651 29.0926H43.3907V30.0572C43.3907 30.7915 43.4144 30.8188 43.5997 30.8188H44.0058C44.483 30.8188 44.7905 30.7602 45.0626 29.9244L45.1336 29.7096H45.2282V30.9321V30.936ZM44.5106 30.8462H45.1375V30.0026C44.964 30.5103 44.7787 30.7446 44.5106 30.8462ZM42.7795 30.8462H43.3868C43.304 30.7485 43.3 30.522 43.3 30.0611V28.1123C43.3 27.6514 43.304 27.4288 43.3868 27.3272H42.7795C42.882 27.421 42.9018 27.6358 42.9018 28.1123V30.0611C42.9018 30.5376 42.882 30.7524 42.7795 30.8462ZM43.9585 29.0379C44.1044 29.0808 44.2385 29.1785 44.3252 29.3933V28.6825C44.2385 28.8973 44.1044 28.9949 43.9585 29.0379ZM44.4396 27.3312C44.6801 27.4171 44.8852 27.6045 45.0311 28.0146V27.3312H44.4396Z" fill="#FFE4C8"/>
<path d="M47.2618 30.9632C47.0173 30.9632 46.7847 30.9164 46.5362 30.7562C46.4534 30.7016 46.4061 30.6742 46.3351 30.6742C46.2168 30.6742 46.0907 30.7914 45.9566 30.9632H45.9448V29.7642H45.9605L46.0236 29.9634C46.1656 30.3852 46.5047 30.9437 47.2499 30.9437C47.731 30.9437 48.0938 30.7289 48.0938 30.2368C48.0938 29.1511 46.0946 29.3698 46.0946 28.1629C46.0946 27.5966 46.5717 27.2139 47.1592 27.2139C47.3879 27.2139 47.5851 27.2725 47.7744 27.3975C47.8453 27.4443 47.9005 27.4717 47.9518 27.4717C48.0425 27.4717 48.1569 27.3662 48.283 27.2139H48.2949V28.2528H48.2791L48.2199 28.0653C48.0583 27.5263 47.6245 27.2373 47.175 27.2373C46.7255 27.2373 46.4731 27.4678 46.4731 27.8271C46.4731 28.9362 48.4999 28.7175 48.4999 29.979C48.4999 30.5688 47.9715 30.9632 47.2578 30.9632H47.2618Z" fill="#FFE4C8"/>
<path d="M47.262 31.006C46.9742 31.006 46.7455 30.9396 46.5128 30.7912C46.43 30.7365 46.3946 30.717 46.3394 30.717C46.225 30.717 46.0909 30.8732 45.9963 30.9904L45.9805 31.0099H45.9095L45.8977 30.963V29.7172H45.9924L46.0673 29.9476C46.1856 30.303 46.4931 30.8967 47.2502 30.8967C47.7549 30.8967 48.0467 30.6545 48.0467 30.2366C48.0467 29.7367 47.5933 29.5258 47.1122 29.3032C46.5878 29.061 46.0475 28.8111 46.0475 28.1628C46.0475 27.5886 46.5168 27.1708 47.1595 27.1708C47.3961 27.1708 47.6051 27.2332 47.8022 27.3621C47.8732 27.409 47.9166 27.4285 47.956 27.4285C48.0507 27.4285 48.2005 27.2489 48.2518 27.1864L48.2675 27.1708H48.3346L48.3464 27.2176V28.3034H48.2478L48.1768 28.0847C48.0309 27.6004 47.6406 27.2879 47.1792 27.2879C46.7691 27.2879 46.5247 27.491 46.5247 27.8308C46.5247 28.3385 46.9781 28.5533 47.4631 28.7837C47.9994 29.0376 48.5514 29.3032 48.5514 29.9828C48.5514 30.5881 48.0231 31.0138 47.262 31.0138V31.006ZM45.9963 30.0023V30.8459C46.0988 30.7287 46.2171 30.6272 46.3394 30.6272C46.3512 30.6272 46.3591 30.6272 46.3709 30.6272C46.1777 30.4319 46.0633 30.1897 45.9963 30.0023ZM46.5838 27.4051C46.3118 27.5613 46.1461 27.8347 46.1461 28.1589C46.1461 28.7486 46.6587 28.9868 47.1595 29.2134C47.6445 29.4399 48.1492 29.6703 48.1492 30.2288C48.1492 30.4592 48.0743 30.6428 47.9324 30.7678C48.2597 30.6076 48.4607 30.3225 48.4607 29.971C48.4607 29.3461 47.9324 29.0962 47.4237 28.854C46.9387 28.6236 46.434 28.3815 46.434 27.8191C46.434 27.6511 46.4892 27.5066 46.5878 27.4012L46.5838 27.4051ZM47.96 27.5144C48.0901 27.6433 48.1926 27.8113 48.2557 28.0026V27.3231C48.1335 27.4559 48.0428 27.5144 47.96 27.5144Z" fill="#FFE4C8"/>
<path d="M18.0078 28.866H0.535826V29.0495H18.0078V28.866Z" fill="#FFE4C8"/>
<path d="M68.3696 28.866H50.8976V29.0495H68.3696V28.866Z" fill="#FFE4C8"/>
<path d="M38.9028 5.02293V5.15181L39.4587 5.17915C40.7008 5.25726 40.9374 6.09305 40.9374 7.26862C40.9374 8.4442 40.6535 9.30342 40.2829 10.6352L40.133 11.1703L39.0408 15.068L37.9091 19.1025L35.1923 11.1234L33.6584 15.7945L32.6253 18.9423L30.3186 10.9555L29.8493 9.33076C28.9503 6.22193 28.7926 5.25335 30.4053 5.17524L30.9613 5.1479V5.01902H19.8574V5.1479L20.0704 5.17524C21.1508 5.30413 21.4938 5.72593 22.5782 9.46355L26.4582 23.0041H26.8013L29.25 15.5562L31.3832 23.0041H31.7263L34.2302 15.3922L36.8523 23.0041H37.1954L39.2655 15.7046L41.7812 23.0041H42.1243L45.5035 11.0844C47.0887 5.49159 47.8261 5.25726 48.7764 5.17915L49.0682 5.15181V5.02293H38.9146H38.9028ZM27.6924 18.9423L24.9165 9.33076C24.0766 6.42502 23.8794 5.20258 25.1767 5.20258C26.1231 5.20258 26.4779 5.95245 27.4953 9.45964L29.037 14.8415L27.6924 18.9423ZM45.2078 10.6313L42.8341 19.0986L40.3578 11.8264L40.5707 11.0805C42.1558 5.48769 42.8774 5.17524 43.8435 5.17524H44.3916C45.6219 5.17524 45.8703 6.08914 45.8703 7.26472C45.8703 8.44029 45.5864 9.29951 45.2157 10.6313H45.2078Z" fill="#FFE4C8"/>
<path d="M35.1681 0C35.1681 2.77295 33.8117 5.02255 32.1398 5.02255V5.14362C33.8117 5.14362 35.1681 7.39322 35.1681 10.1662H35.2903C35.2903 7.39322 36.6468 5.14362 38.3187 5.14362V5.02255C36.6468 5.02255 35.2903 2.77295 35.2903 0H35.1681Z" fill="#FFE4C8"/>
<path d="M14.0692 46.6209V46.3085H15.3153V46.6209H14.0692ZM14.2901 47.8121V45.1212H15.1418C15.1654 45.1212 15.2127 45.1212 15.2837 45.1212C15.3507 45.1212 15.4178 45.129 15.4809 45.1368C15.6938 45.1641 15.8712 45.2383 16.0171 45.3633C16.163 45.4883 16.2734 45.6445 16.3444 45.8359C16.4154 46.0273 16.4548 46.2382 16.4548 46.4647C16.4548 46.6912 16.4193 46.906 16.3444 47.0974C16.2695 47.2888 16.1591 47.445 16.0171 47.57C15.8712 47.6949 15.6938 47.7691 15.4809 47.7965C15.4178 47.8043 15.3507 47.8121 15.2837 47.8121C15.2167 47.8121 15.1694 47.8121 15.1418 47.8121H14.2901ZM14.6962 47.4372H15.1418C15.1851 47.4372 15.2364 47.4372 15.2955 47.4372C15.3547 47.4372 15.406 47.4294 15.4533 47.4215C15.5913 47.3942 15.7056 47.3356 15.7884 47.2419C15.8712 47.1482 15.9383 47.0349 15.9777 46.8982C16.0171 46.7615 16.0369 46.617 16.0369 46.4647C16.0369 46.3124 16.0171 46.1601 15.9738 46.0234C15.9304 45.8867 15.8673 45.7734 15.7806 45.6836C15.6938 45.5937 15.5834 45.5352 15.4493 45.5078C15.406 45.5 15.3508 45.4922 15.2916 45.4922C15.2325 45.4922 15.1812 45.4922 15.1378 45.4922H14.6922V47.4411L14.6962 47.4372Z" fill="#FFE4C8"/>
<path d="M16.6322 47.8121L17.5154 45.1212H18.0833L18.9665 47.8121H18.5564L17.7441 45.3555H17.8467L17.0423 47.8121H16.6322ZM17.0935 47.2028V46.8357H18.5131V47.2028H17.0935Z" fill="#FFE4C8"/>
<path d="M19.3098 47.8121V45.1212H19.7081L21.0448 47.1208V45.1212H21.4431V47.8121H21.0448L19.7081 45.8085V47.8121H19.3098Z" fill="#FFE4C8"/>
<path d="M22.7282 47.8121V45.1212H23.8284C23.856 45.1212 23.8875 45.1212 23.927 45.1212C23.9664 45.1212 24.0019 45.129 24.0374 45.1329C24.1872 45.1563 24.3134 45.2071 24.4159 45.2852C24.5184 45.3633 24.5934 45.461 24.6446 45.582C24.6959 45.7031 24.7195 45.832 24.7195 45.9765C24.7195 46.121 24.6959 46.2538 24.6446 46.3749C24.5934 46.4959 24.5184 46.5936 24.4159 46.6717C24.3134 46.7498 24.1872 46.8006 24.0374 46.824C24.0019 46.8279 23.9664 46.8318 23.927 46.8357C23.8875 46.8396 23.856 46.8357 23.8284 46.8357H23.1226V47.8004H22.7282V47.8121ZM23.1226 46.4725H23.8126C23.8363 46.4725 23.8639 46.4725 23.8954 46.4725C23.927 46.4725 23.9546 46.4647 23.9822 46.4608C24.061 46.4413 24.1281 46.4061 24.1754 46.3553C24.2227 46.3046 24.2582 46.246 24.2818 46.1796C24.3016 46.1132 24.3134 46.0468 24.3134 45.9804C24.3134 45.914 24.3016 45.8476 24.2818 45.7851C24.2621 45.7187 24.2266 45.6601 24.1754 45.6094C24.1241 45.5586 24.061 45.5234 23.9822 45.5039C23.9546 45.4961 23.927 45.4922 23.8954 45.4883C23.8639 45.4844 23.8363 45.4883 23.8126 45.4883H23.1226V46.4764V46.4725Z" fill="#FFE4C8"/>
<path d="M25.0941 47.8121V45.1212H25.4884V46.2811H26.8488V45.1212H27.2471V47.8121H26.8488V46.6482H25.4884V47.8121H25.0941Z" fill="#FFE4C8"/>
<path d="M28.8561 47.8664C28.6432 47.8664 28.4539 47.8234 28.2923 47.7375C28.1306 47.6516 28.0005 47.5305 27.9098 47.3743C27.8191 47.218 27.7718 47.0345 27.7718 46.8236V45.1247H28.17V46.804C28.17 46.9173 28.1898 47.0189 28.2292 47.1087C28.2686 47.1946 28.3199 47.2688 28.3869 47.3274C28.4539 47.386 28.5249 47.4289 28.6077 47.4602C28.6905 47.4914 28.7733 47.5031 28.8561 47.5031C28.9389 47.5031 29.0257 47.4875 29.1046 47.4563C29.1874 47.425 29.2583 47.3821 29.3254 47.3235C29.3924 47.2649 29.4437 47.1907 29.4791 47.1048C29.5186 47.0189 29.5383 46.9173 29.5383 46.804V45.1247H29.9366V46.8275C29.9366 47.0384 29.8892 47.2219 29.7985 47.3782C29.7078 47.5344 29.5777 47.6555 29.4161 47.7453C29.2544 47.8351 29.0651 47.8742 28.8522 47.8742L28.8561 47.8664ZM30.0627 44.7849H30.3703C30.3861 44.9059 30.3821 45.0114 30.3545 45.0934C30.3269 45.1754 30.2717 45.2418 30.1968 45.2887C30.1258 45.3317 30.047 45.3512 29.9602 45.3512C29.8735 45.3512 29.7907 45.3512 29.7118 45.3395V45.1168C29.7394 45.1168 29.767 45.1168 29.7946 45.1168C29.8222 45.1168 29.8498 45.1168 29.8735 45.109C29.9642 45.0934 30.0194 45.0505 30.0391 44.988C30.0588 44.9255 30.0667 44.8552 30.0627 44.7849Z" fill="#FFE4C8"/>
<path d="M31.604 47.8664C31.3319 47.8664 31.0993 47.8078 30.91 47.6906C30.7207 47.5734 30.5709 47.4094 30.4723 47.1985C30.3738 46.9876 30.3185 46.7455 30.3185 46.4643C30.3185 46.1831 30.3698 45.9409 30.4723 45.73C30.5749 45.5191 30.7207 45.3551 30.91 45.2379C31.0993 45.1208 31.3319 45.0622 31.604 45.0622C31.8761 45.0622 32.1048 45.1208 32.298 45.2379C32.4912 45.3551 32.6371 45.5191 32.7357 45.73C32.8382 45.9409 32.8855 46.1831 32.8855 46.4643C32.8855 46.7455 32.8343 46.9876 32.7357 47.1985C32.6332 47.4094 32.4873 47.5734 32.298 47.6906C32.1048 47.8078 31.8761 47.8664 31.604 47.8664ZM31.604 47.4953C31.7972 47.4953 31.9549 47.4563 32.0851 47.3704C32.2113 47.2844 32.3098 47.1634 32.3729 47.0071C32.436 46.8509 32.4676 46.6713 32.4676 46.4643C32.4676 46.2573 32.436 46.0776 32.3729 45.9253C32.3098 45.773 32.2113 45.6519 32.0851 45.566C31.9589 45.4801 31.7972 45.4371 31.604 45.4371C31.4108 45.4371 31.2531 45.4762 31.1229 45.5621C30.9968 45.648 30.8982 45.7691 30.8351 45.9253C30.772 46.0815 30.7365 46.2612 30.7365 46.4682C30.7365 46.6752 30.7681 46.8548 30.8312 47.0071C30.8943 47.1595 30.9928 47.2805 31.119 47.3664C31.2491 47.4524 31.4068 47.4953 31.6001 47.4953H31.604ZM31.4226 48.5342V48.1554H31.8406V48.5342H31.4226ZM32.3335 44.7849H32.6411C32.6568 44.9059 32.6529 45.0114 32.6253 45.1012C32.5977 45.1871 32.5464 45.2535 32.4676 45.2965C32.3966 45.3356 32.3098 45.3512 32.2113 45.3512C32.1127 45.3512 32.022 45.3238 31.9471 45.277V45.1012C32.0062 45.1168 32.0575 45.1247 32.0969 45.1286C32.1403 45.1286 32.1758 45.1286 32.2113 45.109C32.2783 45.0778 32.3138 45.0309 32.3256 44.9723C32.3374 44.9138 32.3414 44.8513 32.3374 44.7849H32.3335Z" fill="#FFE4C8"/>
<path d="M33.2644 47.8121V45.1212H33.6626L34.9993 47.1208V45.1212H35.3976V47.8121H34.9993L33.6626 45.8085V47.8121H33.2644Z" fill="#FFE4C8"/>
<path d="M37.0416 47.8675C36.8602 47.8675 36.6906 47.8363 36.5368 47.7738C36.3831 47.7113 36.249 47.6176 36.1386 47.4965C36.0282 47.3754 35.9375 47.227 35.8744 47.0552C35.8113 46.8833 35.7798 46.6841 35.7798 46.4654C35.7798 46.1764 35.835 45.9265 35.9414 45.7156C36.0479 45.5086 36.1977 45.3445 36.387 45.2352C36.5763 45.1219 36.7971 45.0672 37.0455 45.0672C37.3649 45.0672 37.6212 45.1415 37.8105 45.286C37.9997 45.4305 38.1299 45.6375 38.2008 45.8952L37.8026 45.9655C37.7474 45.8054 37.6567 45.6765 37.5345 45.5789C37.4122 45.4812 37.2545 45.4344 37.0692 45.4344C36.8759 45.4344 36.7182 45.4773 36.5881 45.5633C36.4619 45.6492 36.3633 45.7702 36.3003 45.9265C36.2372 46.0827 36.2017 46.2623 36.2017 46.4693C36.2017 46.6763 36.2332 46.856 36.2963 47.0083C36.3594 47.1606 36.458 47.2817 36.5842 47.3676C36.7143 47.4535 36.872 47.4965 37.0652 47.4965C37.219 47.4965 37.3531 47.4692 37.4635 47.4106C37.5739 47.352 37.6646 47.2661 37.7277 47.1489C37.7947 47.0357 37.8341 46.895 37.8538 46.7271H37.3255V46.4147H38.2718C38.2718 46.4381 38.2758 46.4654 38.2758 46.5045C38.2758 46.5396 38.2758 46.5631 38.2758 46.5748C38.2758 46.8247 38.2284 47.0474 38.1299 47.2426C38.0313 47.4379 37.8933 47.5902 37.708 47.7035C37.5226 47.8168 37.2979 47.8714 37.0376 47.8714L37.0416 47.8675Z" fill="#FFE4C8"/>
<path d="M40.4564 47.1328C40.3618 47.1328 40.275 47.1094 40.1962 47.0664C40.1173 47.0235 40.0582 46.9649 40.0108 46.8868C39.9635 46.8126 39.9438 46.7267 39.9438 46.6329C39.9438 46.5392 39.9675 46.4533 40.0108 46.3752C40.0582 46.301 40.1173 46.2385 40.1962 46.1955C40.275 46.1525 40.3618 46.133 40.4564 46.133C40.5471 46.133 40.626 46.1564 40.7009 46.1994C40.7758 46.2424 40.8349 46.301 40.8783 46.3791C40.9217 46.4533 40.9454 46.5392 40.9454 46.6329C40.9454 46.7267 40.9217 46.8126 40.8783 46.8868C40.8349 46.961 40.7758 47.0235 40.7009 47.0664C40.626 47.1094 40.5432 47.1328 40.4564 47.1328Z" fill="#FFE4C8"/>
<path d="M42.7592 47.8121V45.1212H43.1535V46.2811H44.5139V45.1212H44.9082V47.8121H44.5139V46.6482H43.1535V47.8121H42.7592Z" fill="#FFE4C8"/>
<path d="M47.5854 47.812H47.1753L46.3709 45.3555H46.4734L45.6612 47.812H45.2511L46.1343 45.1211H46.7022L47.5854 47.812ZM47.1241 47.2028H45.7045V46.8357H47.1241V47.2028ZM46.2211 44.8204L45.953 44.1682H46.2645L46.5326 44.8204H46.2211Z" fill="#FFE4C8"/>
<path d="M48.6783 47.8121V45.1212H49.0765L50.4133 47.1208V45.1212H50.8115V47.8121H50.4133L49.0765 45.8085V47.8121H48.6783Z" fill="#FFE4C8"/>
<path d="M52.4787 47.8671C52.2066 47.8671 51.974 47.8085 51.7847 47.6913C51.5915 47.5742 51.4456 47.4101 51.347 47.1992C51.2484 46.9883 51.1932 46.7462 51.1932 46.465C51.1932 46.1838 51.2445 45.9417 51.347 45.7308C51.4495 45.5199 51.5954 45.3558 51.7847 45.2387C51.974 45.1215 52.2066 45.0629 52.4787 45.0629C52.7507 45.0629 52.9794 45.1215 53.1727 45.2387C53.3659 45.3558 53.5118 45.5199 53.6103 45.7308C53.7129 45.9417 53.7602 46.1838 53.7602 46.465C53.7602 46.7462 53.7089 46.9883 53.6103 47.1992C53.5078 47.4101 53.3619 47.5742 53.1727 47.6913C52.9794 47.8085 52.7507 47.8671 52.4787 47.8671ZM52.4787 47.4961C52.6719 47.4961 52.8296 47.457 52.9597 47.3711C53.0859 47.2852 53.1845 47.1641 53.2476 47.0079C53.3107 46.8516 53.3422 46.672 53.3422 46.465C53.3422 46.258 53.3107 46.0783 53.2476 45.926C53.1845 45.7737 53.0859 45.6526 52.9597 45.5667C52.8336 45.4808 52.6719 45.4378 52.4787 45.4378C52.2854 45.4378 52.1277 45.4769 51.9976 45.5628C51.8714 45.6487 51.7729 45.7698 51.7098 45.926C51.6467 46.0823 51.6112 46.2619 51.6112 46.4689C51.6112 46.6759 51.6427 46.8556 51.7058 47.0079C51.7689 47.1602 51.8675 47.2813 51.9937 47.3672C52.1238 47.4531 52.2815 47.4961 52.4747 47.4961H52.4787ZM51.8162 44.8208L52.3052 44.2584H52.6443L53.1332 44.8208H52.7547L52.4747 44.4888L52.1948 44.8208H51.8162ZM52.2697 48.5349V48.1561H52.6877V48.5349H52.2697Z" fill="#FFE4C8"/>
<path d="M54.1787 47.8121V45.1212H54.5731V47.8121H54.1787Z" fill="#FFE4C8"/>
</svg>
