<svg width="118" height="37" viewBox="0 0 118 37" fill="none" xmlns="http://www.w3.org/2000/svg">
<path d="M41.129 16.3533H38.6405V15.5992C38.6405 15.245 38.6099 15.0223 38.5434 14.9261C38.4821 14.83 38.3748 14.7793 38.2266 14.7793C38.0682 14.7793 37.9456 14.8451 37.8587 14.9767C37.777 15.1083 37.7361 15.3057 37.7361 15.5689C37.7361 15.908 37.7821 16.1661 37.8741 16.3382C37.9609 16.5102 38.2164 16.7177 38.6303 16.9607C39.8209 17.6591 40.572 18.2361 40.8837 18.6865C41.1954 19.137 41.3487 19.8607 41.3487 20.8577C41.3487 21.5865 41.2619 22.1179 41.0932 22.4621C40.9195 22.8062 40.5874 23.0947 40.0968 23.3275C39.6063 23.5604 39.034 23.6768 38.3799 23.6768C37.6646 23.6768 37.0514 23.5401 36.5455 23.2719C36.0397 23.0036 35.7075 22.6595 35.5491 22.2445C35.3907 21.8295 35.3141 21.2373 35.3141 20.4731V19.805H37.8025V21.045C37.8025 21.4296 37.8383 21.6726 37.9098 21.7839C37.9814 21.8953 38.104 21.9459 38.2829 21.9459C38.4617 21.9459 38.5945 21.875 38.6814 21.7384C38.7683 21.6017 38.8092 21.3942 38.8092 21.1209C38.8092 20.5186 38.7274 20.1289 38.5588 19.9417C38.3902 19.7595 37.9712 19.4507 37.3069 19.0155C36.6426 18.5802 36.1981 18.2614 35.9834 18.064C35.7688 17.8666 35.59 17.5933 35.4469 17.2441C35.3038 16.8949 35.2323 16.4495 35.2323 15.908C35.2323 15.1286 35.3345 14.5567 35.5338 14.1923C35.7331 13.8329 36.0601 13.5495 36.5098 13.3471C36.9594 13.1446 37.5011 13.0434 38.1398 13.0434C38.8347 13.0434 39.4274 13.1547 39.918 13.3774C40.4085 13.6001 40.7304 13.8785 40.8888 14.2176C41.0472 14.5567 41.129 15.1286 41.129 15.9383V16.3432V16.3533Z" fill="white"/>
<path d="M48.5993 13.2657V20.078C48.5993 20.8523 48.5738 21.3939 48.5227 21.7076C48.4716 22.0214 48.3234 22.3403 48.073 22.6693C47.8226 22.9982 47.4905 23.2462 47.0817 23.4183C46.6729 23.5904 46.1926 23.6713 45.6356 23.6713C45.0225 23.6713 44.4808 23.5701 44.0056 23.3677C43.5355 23.1652 43.1829 22.9021 42.9479 22.5832C42.7128 22.2593 42.5749 21.9202 42.534 21.5609C42.4931 21.2015 42.4727 20.4474 42.4727 19.2986V13.2657H45.1502V20.9131C45.1502 21.3584 45.1758 21.6418 45.2217 21.7684C45.2728 21.8898 45.3699 21.9556 45.5181 21.9556C45.6867 21.9556 45.7991 21.8848 45.8451 21.7532C45.8962 21.6165 45.9167 21.2926 45.9167 20.7865V13.2708H48.5942L48.5993 13.2657Z" fill="white"/>
<path d="M55.9424 13.2657V23.4638H53.597L52.202 18.8279V23.4638H49.9639V13.2657H52.202L53.7043 17.8561V13.2657H55.9424Z" fill="white"/>
<path d="M60.4902 13.2669H63.1882C63.9189 13.2669 64.4759 13.3225 64.8693 13.4389C65.2628 13.5503 65.554 13.7173 65.7533 13.9299C65.9526 14.1424 66.0854 14.4056 66.1519 14.7093C66.2234 15.0129 66.2592 15.4836 66.2592 16.1213V17.007C66.2592 17.6599 66.1927 18.1306 66.0548 18.4292C65.9168 18.7278 65.6716 18.9555 65.3088 19.1175C64.946 19.2794 64.4707 19.3554 63.8882 19.3554H63.1678V23.4599H60.4902V13.2618V13.2669ZM63.1678 15.0129V17.6093C63.2444 17.6093 63.3108 17.6143 63.3619 17.6143C63.6072 17.6143 63.7809 17.5536 63.8729 17.4372C63.97 17.3157 64.016 17.0677 64.016 16.6932V15.8581C64.016 15.5089 63.9598 15.2812 63.8525 15.18C63.7401 15.0737 63.5152 15.0231 63.1678 15.0231V15.0129Z" fill="white"/>
<path d="M67.3525 13.2669H69.2482C70.5104 13.2669 71.3688 13.3175 71.8134 13.4136C72.2579 13.5098 72.6258 13.7578 72.9069 14.1526C73.1879 14.5473 73.331 15.18 73.331 16.0505C73.331 16.8451 73.2288 17.3765 73.0295 17.6498C72.8302 17.9231 72.4368 18.085 71.8542 18.1407C72.3857 18.2723 72.7382 18.4444 72.9222 18.662C73.1061 18.8796 73.2185 19.0821 73.2645 19.2643C73.3105 19.4465 73.331 19.9475 73.331 20.7725V23.4599H70.8425V20.074C70.8425 19.5274 70.7965 19.1883 70.7096 19.0618C70.6228 18.9302 70.3928 18.8644 70.0249 18.8644V23.4599H67.3474V13.2618L67.3525 13.2669ZM70.03 15.0129V17.2803C70.3315 17.2803 70.541 17.2398 70.6637 17.1588C70.7863 17.0779 70.8425 16.8096 70.8425 16.3643V15.8025C70.8425 15.4786 70.7863 15.266 70.6688 15.1648C70.5512 15.0635 70.3366 15.0129 70.03 15.0129Z" fill="white"/>
<path d="M80.8115 19.2379C80.8115 20.2602 80.786 20.989 80.74 21.4142C80.6889 21.8393 80.5407 22.229 80.2801 22.5833C80.0246 22.9376 79.6772 23.2058 79.2377 23.3981C78.8034 23.5854 78.2924 23.6815 77.7099 23.6815C77.1274 23.6815 76.6624 23.5904 76.2229 23.4133C75.7835 23.2362 75.4309 22.9679 75.1652 22.6086C74.8995 22.2492 74.7411 21.8646 74.69 21.4445C74.6389 21.0245 74.6134 20.2906 74.6134 19.2379V17.4918C74.6134 16.4695 74.6389 15.7407 74.6849 15.3155C74.7309 14.8904 74.8842 14.5007 75.1448 14.1464C75.4003 13.7922 75.7477 13.5239 76.1821 13.3367C76.6164 13.1494 77.1274 13.0532 77.7099 13.0532C78.2924 13.0532 78.7574 13.1443 79.1968 13.3215C79.6363 13.4986 79.9889 13.7668 80.2546 14.1262C80.5203 14.4855 80.6787 14.8702 80.7298 15.2902C80.7809 15.7103 80.8064 16.4442 80.8064 17.4969V19.243L80.8115 19.2379ZM78.134 15.8874C78.134 15.4117 78.1085 15.108 78.0522 14.9764C77.996 14.8449 77.8887 14.7791 77.7252 14.7791C77.5873 14.7791 77.4799 14.8347 77.4033 14.941C77.3267 15.0473 77.2909 15.3662 77.2909 15.8874V20.6499C77.2909 21.2421 77.3164 21.6065 77.3624 21.7482C77.4135 21.8848 77.5259 21.9557 77.7048 21.9557C77.8836 21.9557 78.0063 21.8747 78.0522 21.7178C78.1033 21.5609 78.1289 21.1763 78.1289 20.5791V15.8925L78.134 15.8874Z" fill="white"/>
<path d="M82.1351 13.2669H84.8331C85.5638 13.2669 86.1207 13.3225 86.5142 13.4389C86.9076 13.5503 87.1989 13.7173 87.3982 13.9299C87.5975 14.1424 87.7303 14.4056 87.7967 14.7093C87.8683 15.0129 87.9041 15.4836 87.9041 16.1213V17.007C87.9041 17.6599 87.8376 18.1306 87.6997 18.4292C87.5617 18.7278 87.3164 18.9555 86.9536 19.1175C86.5908 19.2794 86.1156 19.3554 85.5331 19.3554H84.8126V23.4599H82.1351V13.2618V13.2669ZM84.8126 15.0129V17.6093C84.8893 17.6093 84.9557 17.6143 85.0068 17.6143C85.2521 17.6143 85.4258 17.5536 85.5178 17.4372C85.6149 17.3157 85.6609 17.0677 85.6609 16.6932V15.8581C85.6609 15.5089 85.6046 15.2812 85.4973 15.18C85.3849 15.0737 85.1601 15.0231 84.8126 15.0231V15.0129Z" fill="white"/>
<path d="M88.9977 13.2669H93.4636V15.3065H91.6752V17.2398H93.3461V19.1782H91.6752V21.4203H93.6374V23.4599H88.9977V13.2618V13.2669Z" fill="white"/>
<path d="M94.7309 13.2669H96.6266C97.8887 13.2669 98.7471 13.3175 99.1917 13.4136C99.6362 13.5098 100.004 13.7578 100.285 14.1526C100.566 14.5473 100.709 15.18 100.709 16.0505C100.709 16.8451 100.607 17.3765 100.408 17.6498C100.209 17.9231 99.8151 18.085 99.2326 18.1407C99.764 18.2723 100.117 18.4444 100.301 18.662C100.484 18.8796 100.597 19.0821 100.643 19.2643C100.689 19.4465 100.709 19.9475 100.709 20.7725V23.4599H98.2208V20.074C98.2208 19.5274 98.1749 19.1883 98.0931 19.0618C98.0062 18.9302 97.7763 18.8644 97.4084 18.8644V23.4599H94.7309V13.2618V13.2669ZM97.4084 15.0129V17.2803C97.7099 17.2803 97.9194 17.2398 98.042 17.1588C98.1646 17.0779 98.2208 16.8096 98.2208 16.3643V15.8025C98.2208 15.4786 98.1646 15.266 98.0471 15.1648C97.9296 15.0635 97.715 15.0129 97.4084 15.0129Z" fill="white"/>
<path d="M107.464 13.2657V15.3054H105.875V23.4638H103.198V15.3054H101.614V13.2657H107.464Z" fill="white"/>
<path d="M114.429 13.2657L112.477 19.7692V23.4588H109.999V19.7692L108.119 13.2657H110.576C110.96 15.2547 111.179 16.5959 111.225 17.2842C111.374 16.1961 111.624 14.8549 111.971 13.2657H114.429Z" fill="white"/>
<path d="M116.549 13.1241C115.747 13.1241 115.098 13.7719 115.098 14.5614C115.098 15.3509 115.752 15.9988 116.549 15.9988C117.346 15.9988 118 15.3509 118 14.5614C118 13.7719 117.346 13.1241 116.549 13.1241ZM116.549 15.7761C115.874 15.7761 115.328 15.2345 115.328 14.5665C115.328 13.8984 115.874 13.3569 116.549 13.3569C117.223 13.3569 117.77 13.8984 117.77 14.5665C117.77 15.2345 117.223 15.7761 116.549 15.7761Z" fill="white"/>
<path d="M117.086 15.2038C117.086 15.2038 117.05 15.1684 117.045 14.9406C117.045 14.8344 117.035 14.7584 117.015 14.7078C116.994 14.6471 116.958 14.6016 116.918 14.5712C116.969 14.5408 117.009 14.5054 117.04 14.4598C117.081 14.3991 117.096 14.3232 117.096 14.2372C117.096 14.055 117.009 13.8373 116.585 13.8373H116.003V15.2848H116.212V14.6623H116.585C116.657 14.6623 116.708 14.6724 116.744 14.6876C116.785 14.7078 116.81 14.7433 116.82 14.7939V14.804C116.82 14.8344 116.831 14.9052 116.841 15.0216C116.846 15.138 116.861 15.219 116.892 15.2646L116.902 15.2848H117.101V15.2139L117.086 15.2038ZM116.882 14.2422C116.882 14.3232 116.856 14.3789 116.795 14.4194C116.744 14.4548 116.667 14.475 116.575 14.475H116.207V14.0246H116.58C116.846 14.0246 116.877 14.1461 116.877 14.2422" fill="white"/>
<path fill-rule="evenodd" clip-rule="evenodd" d="M16.775 17.4351H16.6269V18.169H16.8107C16.918 18.169 16.9945 18.1336 17.0354 18.0576L17.0609 17.9615L17.0711 17.7894C17.0711 17.6629 17.0609 17.5768 17.0354 17.5262C16.9996 17.4655 16.9128 17.4351 16.7801 17.4351H16.775Z" fill="white"/>
<path fill-rule="evenodd" clip-rule="evenodd" d="M19.1568 17.4105C19.0649 17.4105 19.0036 17.446 18.9679 17.5168C18.9474 17.5725 18.9423 17.6332 18.9423 17.7041V19.2933C18.9423 19.3894 18.9577 19.4653 18.9934 19.521C19.024 19.5666 19.0802 19.5919 19.1619 19.5919C19.2487 19.5919 19.315 19.5514 19.3457 19.4805C19.3661 19.4249 19.3712 19.3641 19.3712 19.2983V17.7091C19.3712 17.6332 19.361 17.5725 19.3457 17.5269C19.315 17.4561 19.2487 17.4207 19.1568 17.4207V17.4105Z" fill="white"/>
<path fill-rule="evenodd" clip-rule="evenodd" d="M23.6378 17.4599H23.551V18.2595H23.7348C23.842 18.2595 23.9186 18.2292 23.9595 18.1735C23.9952 18.1077 24.0156 18.0014 24.0156 17.8496C24.0156 17.6724 23.985 17.556 23.9186 17.5054C23.8778 17.47 23.7859 17.4548 23.6378 17.4548V17.4599Z" fill="white"/>
<path fill-rule="evenodd" clip-rule="evenodd" d="M27.5315 16.1348H3.90898C5.2222 13.9686 7.9917 12.3288 12.3044 11.2862C20.0048 9.43389 24.205 14.581 26.6118 14.8999C29.0236 15.2137 29.6265 14.0952 30.4032 13.2145C24.7467 12.5009 19.5347 5.08134 15.4111 0C11.543 4.48413 6.43322 12.7945 0.00510978 13.1082V19.632H2.97389V20.796H26.5402C25.2372 22.9926 22.4575 24.6577 18.104 25.7053C10.4035 27.5627 6.15218 22.3852 3.79146 22.0917C1.43074 21.7981 0.776687 22.9015 0 23.777C5.66164 24.4856 11.2415 31.9102 15.3651 36.9966C19.2332 32.5074 23.97 24.1971 30.3981 23.8884V17.2988H27.5213V16.1348H27.5315ZM7.4143 19.8648C7.23034 20.0622 6.96464 20.1584 6.61206 20.1584C6.25949 20.1584 6.02444 20.0673 5.8507 19.8851C5.71274 19.7383 5.6412 19.5662 5.6412 19.3638V19.0196H6.36679V19.2575C6.36679 19.3638 6.38212 19.4397 6.41278 19.4903C6.45366 19.5561 6.52519 19.5915 6.62228 19.5915C6.69893 19.5915 6.76535 19.5662 6.81134 19.5156C6.85733 19.465 6.87777 19.4093 6.87777 19.3435C6.87777 19.1967 6.78579 19.05 6.60695 18.8931L6.28503 18.6552C6.04998 18.4629 5.91202 18.3414 5.87114 18.2908C5.81493 18.22 5.76384 18.139 5.72807 18.0428C5.69741 17.9467 5.68719 17.8454 5.68719 17.7391C5.68719 17.4355 5.76895 17.2128 5.93757 17.061C6.10108 16.9142 6.33613 16.8383 6.64272 16.8383C6.94931 16.8383 7.18947 16.9091 7.34787 17.0508C7.50116 17.1925 7.57781 17.395 7.57781 17.648V17.9416H6.87777V17.7695C6.87777 17.6734 6.86755 17.5924 6.842 17.5316C6.80623 17.4557 6.73981 17.4152 6.64272 17.4152C6.56607 17.4152 6.49965 17.4355 6.45366 17.476C6.40767 17.5215 6.38212 17.5823 6.38212 17.6582C6.38212 17.7594 6.47921 17.891 6.67338 18.0479L7.00551 18.3009C7.30188 18.559 7.4705 18.7261 7.50627 18.7919C7.58803 18.9386 7.62891 19.1259 7.62891 19.3486C7.62891 19.546 7.55737 19.7231 7.4143 19.8749V19.8648ZM9.89765 19.2271C9.89765 19.5105 9.81079 19.7383 9.63705 19.9053C9.46332 20.0723 9.22827 20.1584 8.9319 20.1584C8.63554 20.1584 8.40559 20.0774 8.23186 19.9104C8.05302 19.7433 7.96615 19.5156 7.96615 19.2271V16.8889H8.71218V19.2372C8.71218 19.3486 8.7224 19.4296 8.74284 19.4852C8.76328 19.5409 8.8246 19.5662 8.92679 19.5662C8.99833 19.5662 9.04943 19.546 9.09031 19.5055C9.12607 19.465 9.1414 19.3739 9.1414 19.2423V16.8939H9.88743V19.2322L9.89765 19.2271ZM12.4321 20.1027H11.6196L11.0116 18.1137L11.0014 20.1027H10.2758V16.8838H11.0933L11.6963 18.7817L11.7065 16.8838H12.4321V20.1027ZM15.498 17.9821H14.7877V17.6632C14.7877 17.4962 14.7111 17.4102 14.5527 17.4102C14.4709 17.4102 14.4096 17.4456 14.3636 17.5165C14.3381 17.5772 14.3227 17.6379 14.3227 17.6987V19.2878C14.3227 19.384 14.3381 19.4599 14.3687 19.5156C14.3994 19.5611 14.4556 19.5864 14.5373 19.5864C14.6957 19.5864 14.7775 19.5055 14.7775 19.3435V18.9285H14.5169V18.3313H15.5031V20.1027H14.849V19.8395C14.7111 20.047 14.5169 20.1533 14.2614 20.1533C14.0059 20.1533 13.8373 20.0622 13.7198 19.8699C13.6227 19.713 13.5767 19.4953 13.5767 19.222V17.7645C13.5767 17.4608 13.6687 17.228 13.8475 17.066C14.0161 16.9142 14.2512 16.8383 14.5424 16.8383C14.8337 16.8383 15.0534 16.8939 15.2118 17.0053C15.406 17.1419 15.5031 17.3444 15.5031 17.6278V17.9871L15.498 17.9821ZM17.1382 20.1027C17.1127 20.0774 17.0922 20.0116 17.0718 19.9104C17.0616 19.8243 17.0565 19.7433 17.0565 19.6725C17.0565 19.5966 17.0565 19.5358 17.0565 19.4953V18.9791C17.0565 18.8931 17.036 18.8273 16.99 18.7767C16.9492 18.7362 16.8725 18.7109 16.7703 18.7109H16.6323V20.1027H15.8863V16.8838H16.8776C17.2098 16.8838 17.4499 16.9446 17.5981 17.0559C17.7463 17.1723 17.8229 17.3747 17.8229 17.6632C17.8229 17.8707 17.7974 18.0226 17.7514 18.1289C17.685 18.2604 17.5623 18.3515 17.3733 18.4072C17.5061 18.4325 17.6134 18.4933 17.6901 18.5894C17.7718 18.6805 17.8076 18.7919 17.8076 18.9285V19.8142C17.8076 19.8446 17.8076 19.8749 17.8178 19.9053C17.8178 19.9812 17.8434 20.047 17.8894 20.1027H17.1484H17.1382ZM20.1172 19.2271C20.1172 19.5105 20.0304 19.7383 19.8566 19.9053C19.6829 20.0723 19.4478 20.1584 19.1566 20.1584C18.8653 20.1584 18.6303 20.0723 18.4565 19.9104C18.2828 19.7433 18.1908 19.5156 18.1908 19.2271V17.7645C18.1908 17.4608 18.2828 17.228 18.4616 17.066C18.6303 16.9142 18.8653 16.8383 19.1566 16.8383C19.4478 16.8383 19.6778 16.9192 19.8566 17.0761C20.0355 17.233 20.1223 17.4658 20.1223 17.7695V19.2322L20.1172 19.2271ZM22.4217 19.2271C22.4217 19.5105 22.3349 19.7383 22.1611 19.9053C21.9874 20.0723 21.7524 20.1584 21.4611 20.1584C21.1698 20.1584 20.9348 20.0774 20.7611 19.9104C20.5822 19.7433 20.4953 19.5156 20.4953 19.2271V16.8889H21.2414V19.2372C21.2414 19.3486 21.2516 19.4296 21.272 19.4852C21.2925 19.5409 21.3538 19.5662 21.456 19.5662C21.5275 19.5662 21.5786 19.546 21.6195 19.5055C21.6553 19.465 21.6706 19.3739 21.6706 19.2423V16.8939H22.4166V19.2322L22.4217 19.2271ZM24.7569 18.0934C24.7569 18.1339 24.7416 18.1997 24.7262 18.2756C24.7109 18.3566 24.6751 18.4426 24.6189 18.5236C24.4912 18.7261 24.2766 18.8323 23.9751 18.8323H23.551V20.1077H22.805V16.8889H23.6072C24.0364 16.8889 24.3328 16.9446 24.4912 17.061C24.6751 17.1976 24.762 17.4658 24.762 17.8657C24.762 17.977 24.762 18.0479 24.762 18.0934H24.7569Z" fill="white"/>
</svg>
