<svg width="61" height="27" viewBox="0 0 61 27" fill="none" xmlns="http://www.w3.org/2000/svg">
<mask id="mask0_0_355" style="mask-type:luminance" maskUnits="userSpaceOnUse" x="0" y="8" width="50" height="9">
<path d="M43.8362 13.7278L43.2068 16.6933H44.9162L45.5193 13.8109L49.2999 9.06397H47.2968L44.8849 12.3048L43.7364 9.04319H41.9957L43.8309 13.7278H43.8362ZM29.5107 13.6863L31.1886 10.648H31.2096L31.5767 13.6914H29.5107V13.6863ZM26.0709 16.631H27.8538L28.8343 14.9379L31.7235 14.9483L31.9647 16.6518H33.6531L32.3947 9.00163H30.6538L26.0709 16.631ZM21.8866 10.3831L24.3092 10.3935L22.9668 16.6258H24.6762L26.0186 10.3987L28.3362 10.4091L28.6455 8.99645L22.196 8.97567L21.8866 10.3883V10.3831ZM13.2295 16.5895H14.8078L15.9299 11.2297H15.9509L18.0535 16.6051H19.7524L21.4147 8.96529H19.8574L18.7352 14.3978H18.7142L16.6325 8.94451H14.8811L13.2295 16.5843V16.5895ZM8.46829 13.6135L10.1463 10.5753H10.1672L10.5343 13.6187H8.46829V13.6135ZM5.02861 16.5583H6.81137L7.79198 14.8652L10.6812 14.8756L10.9224 16.5791H12.6108L11.3522 8.92893H9.61148L5.02861 16.5583ZM0 16.5427H1.68841L2.38059 13.3902L5.67881 13.4006L5.9671 12.097L2.65852 12.0866L3.04129 10.3208L6.82712 10.3312L7.1469 8.91855L1.65167 8.89777L0 16.5427ZM37.182 8.97567C36.8149 9.06396 36.4899 9.20418 36.2015 9.39115C35.9131 9.57812 35.6771 9.82222 35.4936 10.1235C35.3101 10.4247 35.2209 10.7882 35.2209 11.2141C35.2209 11.5413 35.2734 11.8218 35.3835 12.0503C35.4936 12.2788 35.6405 12.471 35.824 12.632C36.0075 12.7878 36.212 12.9176 36.4427 13.0215C36.6734 13.1254 36.9094 13.2085 37.1559 13.2812C37.3918 13.3539 37.6277 13.4214 37.8637 13.4889C38.0996 13.5512 38.3094 13.6291 38.4876 13.7174C38.6712 13.8057 38.818 13.9044 38.9334 14.0238C39.0487 14.1433 39.1065 14.2939 39.1065 14.4809C39.1065 14.673 39.0593 14.8392 38.9701 14.9743C38.881 15.1093 38.7656 15.2184 38.624 15.3067C38.4824 15.3898 38.3251 15.4573 38.1521 15.4988C37.9791 15.5404 37.806 15.5611 37.633 15.5611C37.3866 15.5611 37.1611 15.5352 36.9513 15.4884C36.7416 15.4417 36.5633 15.3638 36.4112 15.2547C36.2591 15.1457 36.1438 15.0002 36.0652 14.8185C35.9865 14.6367 35.9551 14.4082 35.9708 14.1381H34.361C34.361 15.0678 34.618 15.7533 35.1476 16.1948C35.6772 16.631 36.4793 16.8543 37.5648 16.8595C37.9318 16.8595 38.3042 16.818 38.6817 16.7297C39.054 16.6414 39.3948 16.496 39.6937 16.2986C39.9926 16.1013 40.2391 15.8416 40.4331 15.5196C40.6271 15.1976 40.7214 14.8081 40.7266 14.351C40.7266 14.0083 40.6794 13.7174 40.5798 13.4837C40.4802 13.2448 40.3387 13.0474 40.1552 12.8812C39.9717 12.7151 39.7514 12.58 39.4997 12.4761C39.248 12.3723 38.9701 12.2788 38.666 12.2009C38.5349 12.1697 38.3671 12.1334 38.1574 12.0866C37.9476 12.0399 37.7432 11.9724 37.5491 11.8893C37.3499 11.8062 37.182 11.7023 37.0404 11.5777C36.8988 11.453 36.8307 11.2972 36.8307 11.1102C36.8307 10.9336 36.8727 10.783 36.9513 10.6584C37.03 10.5389 37.1349 10.4403 37.266 10.3624C37.3971 10.2897 37.5438 10.2377 37.7063 10.2014C37.8689 10.1702 38.0315 10.1546 38.1888 10.1546C38.3829 10.1546 38.5663 10.1754 38.7393 10.2169C38.9124 10.2585 39.0592 10.3208 39.1851 10.4143C39.3109 10.5078 39.4053 10.6272 39.4735 10.7727C39.5417 10.9181 39.5731 11.0999 39.5626 11.3128H41.1724C41.1724 10.8765 41.099 10.4974 40.9417 10.1858C40.7896 9.87416 40.5798 9.61968 40.3176 9.41713C40.0555 9.21458 39.7513 9.06916 39.4 8.98087C39.0487 8.89258 38.6765 8.84583 38.2832 8.84583H38.2622C37.8952 8.84583 37.5333 8.88738 37.1715 8.97567" fill="white"/>
</mask>
<g mask="url(#mask0_0_355)">
<path d="M49.2532 7.35828L-0.258323 8.89691L0.0445665 18.4276L49.556 16.889L49.2532 7.35828Z" fill="url(#paint0_linear_0_355)"/>
</g>
<mask id="mask1_0_355" style="mask-type:luminance" maskUnits="userSpaceOnUse" x="18" y="17" width="35" height="10">
<path d="M44.7798 26.1818L51.2923 26.2025L51.717 24.2446L47.454 24.229L47.7424 22.9046L51.6279 22.9202L52.0316 21.0661L48.1462 21.0505L48.3821 19.9598L52.5822 19.9754L52.9965 18.0174L46.5364 17.9967L44.7798 26.187V26.1818ZM34.9691 26.1454H37.14L38.0366 21.5127L38.5872 26.1558H40.2966L42.7191 21.6893L41.6704 26.1662L43.8308 26.1766L45.6083 17.9863L42.7348 17.9759L40.0711 22.8994L39.5572 17.9655L36.7362 17.9551L34.9691 26.1454ZM18.5359 26.0883L20.801 26.0987L21.5142 22.8007L24.0782 22.8111L23.3652 26.1091H25.6408L27.4184 17.924L25.1427 17.9136L24.503 20.8479L21.9442 20.8376L22.5839 17.9032L20.3081 17.8928L18.5411 26.0831L18.5359 26.0883ZM30.7847 24.3536C30.5173 24.3536 30.2918 24.3069 30.1136 24.2186C29.93 24.1303 29.7885 24.0108 29.6732 23.8602C29.5578 23.7044 29.4634 23.5226 29.4058 23.3253C29.3428 23.1124 29.3165 22.889 29.3165 22.6501C29.3165 22.3125 29.369 21.9594 29.4634 21.601C29.5577 21.253 29.6994 20.9259 29.8881 20.6454C30.0716 20.3701 30.3077 20.1416 30.5961 19.9702C30.874 19.804 31.2042 19.7209 31.5818 19.7209C31.8544 19.7209 32.0799 19.7677 32.2582 19.856C32.4365 19.9443 32.5781 20.0637 32.6882 20.2039C32.8036 20.3546 32.8875 20.5311 32.9347 20.7337C32.9871 20.9518 33.0185 21.1855 33.0133 21.4348C33.0133 21.7724 32.9608 22.1204 32.8612 22.4735C32.7615 22.8215 32.6148 23.1435 32.426 23.4292C32.2373 23.7044 32.0013 23.9329 31.7234 24.1095C31.4559 24.2757 31.1518 24.3588 30.7847 24.3588H30.7743M29.694 18.1473C29.1382 18.4122 28.6558 18.7757 28.2678 19.2224C27.885 19.669 27.5809 20.1936 27.3712 20.7804C27.1667 21.3621 27.0619 21.9905 27.0567 22.6345C27.0567 23.7979 27.3764 24.7068 28.0214 25.3404C28.6663 25.9688 29.5839 26.2908 30.748 26.296C31.4664 26.296 32.1114 26.161 32.6725 25.8961C33.2283 25.626 33.7054 25.2573 34.0882 24.7951C34.4657 24.338 34.7593 23.7979 34.9586 23.2007C35.1579 22.6034 35.2575 21.9698 35.2575 21.3154C35.2575 20.7493 35.1736 20.2351 35.0006 19.7988C34.8275 19.3574 34.5759 18.9783 34.2508 18.6718C33.9257 18.3654 33.5324 18.1317 33.0657 17.9811C32.6148 17.8305 32.1114 17.7526 31.5608 17.7526H31.5398C30.8581 17.7526 30.2343 17.8876 29.6837 18.1473" fill="white"/>
</mask>
<g mask="url(#mask1_0_355)">
<path d="M52.9648 16.7322L18.2643 17.8105L18.5698 27.4243L53.2703 26.3459L52.9648 16.7322Z" fill="url(#paint1_linear_0_355)"/>
</g>
<mask id="mask2_0_355" style="mask-type:luminance" maskUnits="userSpaceOnUse" x="42" y="0" width="19" height="15">
<path d="M60.7257 0.00519074L42.8661 2.25922C42.6354 2.29038 42.5777 2.58641 42.777 2.70067L50.5112 7.08925C50.5899 7.1308 50.6843 7.13079 50.7629 7.08405L53.0805 5.61427C53.2326 5.51559 53.2273 5.29226 53.07 5.20397L51.6595 4.43533C51.455 4.32627 51.5127 4.01984 51.7434 3.99387L55.351 3.53683C55.5503 3.51087 55.6866 3.7238 55.587 3.89L51.1824 11.3999C51.151 11.4519 51.1404 11.5194 51.1562 11.5817L52.0213 14.8121C52.079 15.0147 52.3517 15.0562 52.4618 14.8693L60.9668 0.358359C61.0612 0.197358 60.9406 0 60.7623 0C60.7518 0 60.7414 0 60.7309 0" fill="white"/>
</mask>
<g mask="url(#mask2_0_355)">
<path d="M61.042 -0.524738L42.1012 0.0648262L42.5966 15.6795L61.5374 15.0899L61.042 -0.524738Z" fill="url(#paint2_linear_0_355)"/>
</g>
<defs>
<linearGradient id="paint0_linear_0_355" x1="-1.36539" y1="14.6456" x2="47.8791" y2="13.0806" gradientUnits="userSpaceOnUse">
<stop stop-color="#DDAD76"/>
<stop offset="0.14" stop-color="#D2A46B"/>
<stop offset="0.7" stop-color="#AF8748"/>
<stop offset="1" stop-color="#A27D3B"/>
</linearGradient>
<linearGradient id="paint1_linear_0_355" x1="20.2851" y1="21.3574" x2="55.0899" y2="20.2513" gradientUnits="userSpaceOnUse">
<stop stop-color="#DDAD76"/>
<stop offset="0.14" stop-color="#D2A46B"/>
<stop offset="0.7" stop-color="#AF8748"/>
<stop offset="1" stop-color="#A27D3B"/>
</linearGradient>
<linearGradient id="paint2_linear_0_355" x1="47.7368" y1="4.66026" x2="66.1967" y2="4.07455" gradientUnits="userSpaceOnUse">
<stop stop-color="#DDAD76"/>
<stop offset="0.14" stop-color="#D2A46B"/>
<stop offset="0.7" stop-color="#AF8748"/>
<stop offset="1" stop-color="#A27D3B"/>
</linearGradient>
</defs>
</svg>
