<svg width="46" height="48" viewBox="0 0 46 48" fill="none" xmlns="http://www.w3.org/2000/svg">
<path d="M23.3624 7.1565C25.1388 6.12812 26.9863 5.20677 28.8497 4.29414C28.8333 4.23423 28.838 4.2511 28.8215 4.19119C27.7633 4.35464 26.7174 4.58381 25.6785 4.85021C23.1328 5.51389 20.6334 6.42419 18.2844 7.67767C19.8976 6.1415 21.7874 4.92001 23.6666 3.80264C26.092 2.3956 28.613 1.1683 31.1888 0.113163C31.2152 0.102111 31.2293 0.0712831 31.2216 0.0422C31.214 0.0136986 31.187 -0.00433241 31.16 0.000902539C29.5955 0.299876 28.0516 0.711692 26.5248 1.19273C21.9172 2.70795 13.214 5.82391 12.147 11.5573C11.2813 18.0731 20.9728 21.3211 25.6638 22.1314C25.7214 22.1436 25.7431 22.0435 25.6873 22.0278C24.1887 21.4252 22.717 20.768 21.2923 20.0345C18.6585 18.5815 15.7304 16.9395 14.6093 13.8671C12.8969 9.17486 19.1136 5.70991 22.384 3.9149C23.9632 3.08603 25.5863 2.34093 27.2365 1.65166C25.981 2.22692 24.7424 2.84523 23.5245 3.50948C21.1226 4.85603 18.7377 6.32531 16.8239 8.43325C16.7182 8.55016 16.7105 8.73397 16.8074 8.85902C16.899 8.9771 17.057 9.00386 17.1792 8.92359C19.8253 7.18326 22.7452 5.95421 25.7308 5.06368C25.9945 4.98632 26.2587 4.91129 26.5236 4.83916C22.202 6.21944 14.6522 9.31679 15.8056 13.5839C16.7857 16.8836 21.4591 18.5303 24.3507 19.1649C24.4059 19.1794 24.4324 19.0858 24.3813 19.0637C22.017 17.6433 15.7668 14.1556 18.571 10.7739C19.8565 9.25746 21.6676 8.15521 23.3636 7.15766L23.3624 7.1565Z" fill="url(#paint0_linear_0_5132)"/>
<path d="M22.6364 28.2542C20.86 29.2826 19.0125 30.2039 17.1491 31.1166C17.1655 31.1765 17.1608 31.1596 17.1773 31.2195C18.2355 31.0561 19.2814 30.8269 20.3203 30.5605C22.866 29.8968 25.3654 28.9865 27.7144 27.733C26.1012 29.2692 24.2114 30.4907 22.3322 31.6081C19.9069 33.0151 17.3858 34.2424 14.8101 35.2975C14.7836 35.3086 14.7695 35.3394 14.7772 35.3685C14.7848 35.397 14.8118 35.415 14.8388 35.4098C16.4033 35.1108 17.9472 34.699 19.474 34.218C24.0817 32.7028 32.7848 29.5868 33.8519 23.8534C34.7175 17.3376 25.026 14.0896 20.335 13.2793C20.2774 13.2671 20.2557 13.3672 20.3115 13.3829C21.8102 13.9855 23.2818 14.6428 24.7065 15.3762C27.3404 16.8292 30.2684 18.4712 31.3895 21.5436C33.1019 26.2358 26.8852 29.7008 23.6148 31.4958C22.0357 32.3247 20.4125 33.0698 18.7623 33.7591C20.0178 33.1838 21.2564 32.5655 22.4743 31.9012C24.8762 30.5547 27.2611 29.0854 29.1749 26.9775C29.2806 26.8605 29.2883 26.6767 29.1914 26.5517C29.0998 26.4336 28.9418 26.4069 28.8196 26.4871C26.1735 28.2275 23.2536 29.4565 20.268 30.347C20.0043 30.4244 19.7401 30.4994 19.4752 30.5715C23.7968 29.1913 31.3466 26.0939 30.1932 21.8269C29.2131 18.5271 24.5397 16.8804 21.6481 16.2458C21.5929 16.2313 21.5664 16.3249 21.6175 16.347C23.9818 17.7674 30.232 21.2551 27.4279 24.6369C26.1423 26.1532 24.3312 27.2555 22.6352 28.253L22.6364 28.2542Z" fill="url(#paint1_linear_0_5132)"/>
<path d="M1.28374 47.1666C0.454537 46.6146 0.0305375 45.7851 0.011158 44.6771H1.84105C1.87629 45.0912 2.02075 45.4187 2.27503 45.6589C2.52931 45.8991 2.88695 46.0684 3.34854 46.1673C3.81012 46.2661 4.39855 46.3156 5.11383 46.3156C6.25546 46.3156 7.09641 46.2458 7.6361 46.1068C8.17579 45.9672 8.44534 45.7543 8.44534 45.4675C8.44534 45.3012 8.29383 45.1633 7.9908 45.0551C7.68778 44.9469 7.27905 44.8579 6.7652 44.7882C6.25135 44.7184 5.5578 44.6427 4.68631 44.5613C3.67329 44.4723 2.82999 44.3414 2.15582 44.1693C1.48106 43.9965 0.953118 43.7423 0.571988 43.4055C0.190859 43.0688 0 42.6232 0 42.0695C0 41.1981 0.429285 40.5589 1.28727 40.1523C2.14525 39.7457 3.44661 39.5427 5.19018 39.5427C6.93374 39.5427 8.18518 39.8196 9.01439 40.3733C9.8436 40.9271 10.2676 41.7542 10.287 42.8541H8.45708C8.42185 42.44 8.27797 42.1137 8.02604 41.8752C7.77352 41.6367 7.41588 41.4686 6.95253 41.3697C6.48919 41.2708 5.90193 41.2214 5.19018 41.2214C4.04091 41.2214 3.19703 41.29 2.65969 41.4279C2.12235 41.5652 1.85338 41.7792 1.85338 42.07C1.85338 42.2207 1.98552 42.3481 2.24919 42.4505C2.51346 42.5528 2.87227 42.6383 3.32564 42.7058C3.77958 42.7739 4.35979 42.8425 5.06744 42.9123C6.15445 42.9978 7.07527 43.1275 7.82989 43.3014C8.58452 43.4759 9.18587 43.7371 9.63336 44.0855C10.0808 44.4339 10.3052 44.8952 10.3052 45.4681C10.3052 46.3394 9.8759 46.9787 9.01791 47.3853C8.15935 47.7918 6.85857 47.9954 5.11442 47.9954C3.37027 47.9954 2.11354 47.7191 1.28433 47.1677L1.28374 47.1666Z" fill="white"/>
<path d="M15.4567 43.5748L21.738 47.7342H18.4123L13.9668 44.7893V47.7342H12.0782V39.8568H13.9668V42.4068L18.0664 39.8568H21.2335L15.4561 43.5748H15.4567Z" fill="white"/>
<path d="M28.477 45.5314V47.7329H26.6178V45.5314L21.7383 39.8439H24.1431L27.5509 43.8463L30.9464 39.8439H33.363L28.4776 45.5314H28.477Z" fill="white"/>
<path d="M44.1993 39.8498H45.9998V47.7331H44.1288V43.5562L41.7709 47.7331H40.2517L37.8939 43.5562V47.7331H36.0229V39.8498H37.8234L41.014 45.5077L44.1987 39.8498H44.1993Z" fill="white"/>
<defs>
<linearGradient id="paint0_linear_0_5132" x1="23.3929" y1="-1.81214" x2="18.7925" y2="19.0882" gradientUnits="userSpaceOnUse">
<stop stop-color="#C3A979"/>
<stop offset="0.06" stop-color="#CEB78A"/>
<stop offset="0.18" stop-color="#ECDCB6"/>
<stop offset="0.19" stop-color="#EFE0BB"/>
<stop offset="0.41" stop-color="#AD9264"/>
<stop offset="0.73" stop-color="#F5E2AC"/>
<stop offset="0.95" stop-color="#AC9365"/>
</linearGradient>
<linearGradient id="paint1_linear_0_5132" x1="27.9294" y1="14.826" x2="22.7873" y2="36.2757" gradientUnits="userSpaceOnUse">
<stop stop-color="#C3A979"/>
<stop offset="0.06" stop-color="#CEB78A"/>
<stop offset="0.18" stop-color="#ECDCB6"/>
<stop offset="0.19" stop-color="#EFE0BB"/>
<stop offset="0.41" stop-color="#AD9264"/>
<stop offset="0.73" stop-color="#F5E2AC"/>
<stop offset="0.95" stop-color="#AC9365"/>
</linearGradient>
</defs>
</svg>
