<svg width="49" height="43" viewBox="0 0 49 43" fill="none" xmlns="http://www.w3.org/2000/svg">
<g clip-path="url(#clip0_0_613)">
<path d="M6.47861 41.5041C6.47861 42.3937 5.963 43.0017 4.77756 43.0017H0V37.8126H4.62802C5.81501 37.8126 6.18108 38.4577 6.18108 39.2066C6.18108 39.5995 6.04711 39.9693 5.76984 40.2447C6.21691 40.4752 6.47861 40.8666 6.47861 41.5056V41.5041ZM0.895696 40.0064H4.4115C4.89595 40.0064 5.28538 40.0064 5.28538 39.2793C5.28538 38.5521 4.89751 38.5521 4.40527 38.5521H0.895696V40.0049V40.0064ZM5.58291 41.5041C5.58291 40.7475 5.19504 40.7475 4.70279 40.7475H0.895696V42.2591H4.70123C5.19348 42.2591 5.58135 42.2591 5.58135 41.5025L5.58291 41.5041Z" fill="white"/>
<path d="M8.71841 38.5532V40.0354H13.3464V40.7765H8.71841V42.2587H13.3464V42.9998H7.82272V37.8106H13.3464V38.5517H8.71841V38.5532Z" fill="white"/>
<path d="M21.7508 37.8126L18.668 43.0017H17.6228L14.5401 37.8126H15.5775L18.1447 42.1786L20.7118 37.8126H21.7492H21.7508Z" fill="white"/>
<path d="M23.841 38.5532V40.0354H28.469V40.7765H23.841V42.2587H28.469V42.9998H22.9453V37.8106H28.469V38.5517H23.841V38.5532Z" fill="white"/>
<path d="M34.6938 41.4004L35.6939 43.0017H34.6486L33.7078 41.4901H30.7823V43.0017H29.8867V37.8126H33.9913C35.1783 37.8126 35.9914 38.4949 35.9914 39.6506C35.9914 40.5619 35.4914 41.1776 34.6923 41.4004H34.6938ZM30.7839 40.7475H33.6205C34.1875 40.7475 35.0988 40.7475 35.0988 39.6506C35.0988 38.5537 34.1875 38.5537 33.6205 38.5537H30.7839V40.7475Z" fill="white"/>
<path d="M42.7113 42.2587V42.9998H37.3372V37.8106H38.2329V42.2587H42.7113Z" fill="white"/>
<path d="M41.741 37.8126H42.8984L45.369 40.5108L47.8396 37.8126H48.997L45.8176 41.2968V43.0017H44.9219V41.2968L41.7426 37.8126H41.741Z" fill="white"/>
<path d="M23.9174 29.4208C23.5295 29.8926 23.2055 30.4249 22.8566 30.9215C23.0684 30.9091 23.2803 30.8844 23.4937 30.8844C23.6697 30.8844 23.8177 31.0329 23.894 31.169V31.1814L23.6074 31.169C23.2959 31.169 22.9703 31.1938 22.6588 31.2062C22.1961 31.8885 20.562 34.1813 20.562 34.9379C20.562 35.0617 20.5994 35.1483 20.749 35.1483C21.1727 35.1483 22.4095 34.0204 22.6961 33.6986C22.3098 34.2572 21.3861 35.5459 20.6742 35.5459C20.3253 35.5459 20.0371 35.0261 20.0371 34.7151C20.0371 34.2309 21.8098 31.7647 22.1463 31.2309C21.9344 31.2433 21.735 31.2557 21.5232 31.2557C21.2599 31.2557 21.0481 31.1938 21.0605 30.8967C21.2848 30.9463 21.5232 30.9586 21.7475 30.9586L22.3223 30.9463C22.6214 30.4372 23.2959 29.3713 23.3706 28.8004C23.6448 28.8994 23.9205 29.099 23.9205 29.4208H23.9174Z" fill="white"/>
<path d="M25.9894 28.2913C26.276 28.3284 26.5019 28.5636 26.5393 28.8498C25.0657 30.5362 23.8055 32.5568 22.5437 34.4041C23.5547 33.3752 24.6295 32.1963 25.8025 31.3546C26.0891 31.3918 26.3399 31.5774 26.4521 31.8373C25.9022 32.221 24.1684 34.565 24.1295 35.1978C24.6794 35.2225 26.276 33.6104 26.6764 33.2391C26.3524 33.7094 24.804 35.6062 24.2666 35.6062C23.9799 35.6062 23.6559 35.173 23.6559 34.9115C23.6559 34.3406 25.1295 32.4067 25.5283 31.9116C24.8787 32.4206 22.0328 34.961 22.0328 35.6928C21.8085 35.5938 21.6091 35.371 21.6091 35.1096L21.634 34.9858C22.8568 33.5469 25.2915 29.9761 25.991 28.2897L25.9894 28.2913Z" fill="white"/>
<path d="M28.0251 31.4415C28.3491 31.4415 28.6871 31.7633 28.6871 32.0867C28.4878 32.5462 27.888 33.8968 27.3272 33.8968C27.1029 33.8968 26.8397 33.7731 26.7026 33.5874C26.4783 33.9092 25.9907 34.542 25.9907 34.952C25.9907 35.1129 26.053 35.2614 26.2399 35.2614C26.9768 35.2614 28.4987 33.8736 28.9613 33.3399C28.575 34.0222 27.1512 35.4486 26.377 35.6219C26.0281 35.5229 25.5904 35.15 25.5904 34.7663C25.5904 33.9108 27.2509 31.8778 28.0126 31.4431H28.0251V31.4415ZM26.7633 33.5116C26.8257 33.5487 26.9129 33.5859 26.9877 33.5859C27.5001 33.5859 28.4239 32.3079 28.4348 31.85C27.8849 31.9118 27.0858 33.0645 26.7618 33.5116H26.7633Z" fill="white"/>
<path d="M34.2949 13.3515C34.2949 16.0389 33.1982 18.5128 31.424 20.3153C29.6497 22.1177 27.2025 23.2456 24.4983 23.2456C21.7941 23.2456 19.3329 22.1177 17.5461 20.3153C15.7594 18.5128 14.6488 16.0389 14.6488 13.3531H14.2422C14.2422 18.9507 18.8593 23.6478 24.4983 23.6509C30.1388 23.6494 34.7014 18.9491 34.7014 13.3531H34.2949V13.3515Z" fill="white"/>
<path d="M34.4759 13.4895C34.4759 16.2001 33.3465 18.6956 31.5333 20.5135C29.7201 22.3314 27.2262 23.4701 24.4986 23.4701C21.7695 23.4701 19.2506 22.3314 17.4109 20.5135C15.5728 18.6956 14.4185 16.2001 14.4185 13.491H14.1864C14.188 19.0422 18.9095 23.7007 24.4986 23.7022C30.0878 23.7022 34.7064 19.0422 34.708 13.491H34.4759V13.4895Z" fill="white"/>
<path d="M26.5826 21.6928V21.6788C26.5826 21.5752 26.5717 21.4328 26.5608 21.2426C26.5499 21.0538 26.5405 20.8202 26.5405 20.5556C26.5405 19.3953 26.7399 17.616 27.9752 16.1354C28.5936 15.3943 29.4722 14.7213 30.7308 14.2309C31.991 13.7404 33.6344 13.4325 35.7716 13.4325C35.8931 13.4325 36.0178 13.4325 36.1424 13.4356L36.1486 13.0318C36.0209 13.0303 35.8947 13.0287 35.7701 13.0287C33.5924 13.0287 31.8991 13.3413 30.5797 13.8549C28.6014 14.6238 27.4752 15.8523 26.8614 17.1117C26.2461 18.371 26.1308 19.6536 26.1308 20.5572C26.1308 20.8326 26.1417 21.0739 26.1526 21.2673C26.1635 21.4592 26.1744 21.6077 26.1729 21.6819V21.6912L26.5795 21.6974L26.5826 21.6928Z" fill="white"/>
<path d="M26.6185 21.9415V21.9291C26.6185 21.8239 26.6045 21.6615 26.5904 21.4449C26.5764 21.2298 26.564 20.9622 26.564 20.6558C26.564 19.446 26.7758 17.6497 28.0235 16.1598C29.2697 14.6715 31.5596 13.4662 35.7779 13.4647C35.8994 13.4647 36.0209 13.4647 36.1456 13.4678L36.1487 13.2372C36.0241 13.2357 35.8994 13.2342 35.7779 13.2342C31.5191 13.2342 29.1451 14.458 27.846 16.0113C26.5468 17.5646 26.3319 19.4197 26.3319 20.6543C26.3319 20.9668 26.3459 21.2391 26.3599 21.4573C26.3739 21.6754 26.3864 21.8409 26.3864 21.926V21.9353L26.6185 21.9384V21.9415Z" fill="white"/>
<path d="M12.8483 13.4325C15.1289 13.4325 16.8751 13.7837 18.2132 14.3407C20.2195 15.1777 21.3115 16.4727 21.919 17.794C22.525 19.1152 22.6356 20.4674 22.6356 21.3864C22.6356 21.6402 22.6278 21.8599 22.6184 22.0393C22.6106 22.2188 22.6013 22.3534 22.6013 22.4493V22.4648L23.0079 22.4586V22.4493C23.0079 22.3782 23.0157 22.2389 23.025 22.0579C23.0328 21.8753 23.0421 21.6494 23.0421 21.3864C23.0421 20.1193 22.8443 18.0338 21.4548 16.2499C20.7601 15.3587 19.7678 14.5511 18.3689 13.9679C16.9701 13.3861 15.1678 13.0287 12.8468 13.0287V13.4325H12.8483Z" fill="white"/>
<path d="M12.8483 13.4676C17.4421 13.4692 19.8924 14.8972 21.2118 16.6145C22.5312 18.3319 22.7197 20.3617 22.7181 21.5778C22.7181 22.0528 22.6901 22.3993 22.6901 22.5695V22.585L22.9222 22.5819V22.5695C22.9222 22.421 22.9502 22.0605 22.9502 21.5778C22.9502 20.3385 22.7617 18.256 21.3956 16.4737C20.0295 14.6914 17.4873 13.234 12.8468 13.2371V13.4676H12.8483Z" fill="white"/>
<path d="M37.4355 13.0518H37.2314C37.2314 16.5452 35.8061 19.706 33.5022 21.9958C31.1967 24.2856 28.0143 25.6997 24.4969 25.6997C20.9796 25.6997 17.7971 24.2841 15.4917 21.9958C13.1862 19.706 11.7625 16.5452 11.7625 13.0518C11.7625 9.55829 13.1878 6.39746 15.4917 4.10768C17.7971 1.8179 20.9796 0.403806 24.4969 0.403806C28.0143 0.403806 31.1967 1.81945 33.5022 4.10768C35.8076 6.39746 37.2314 9.55829 37.2314 13.0518H37.638C37.6395 5.84358 31.756 0 24.4985 0C17.241 0 11.3575 5.84358 11.3575 13.0518C11.3575 20.2599 17.241 26.1035 24.4985 26.1035C31.756 26.1035 37.6395 20.2599 37.6395 13.0518H37.4355Z" fill="white"/>
<path d="M37.2968 13.0515H37.1815C37.1815 16.5341 35.7609 19.6857 33.4632 21.9677C31.1656 24.2498 27.9925 25.6608 24.486 25.6608C20.9796 25.6608 17.8065 24.2498 15.5088 21.9677C13.2112 19.6857 11.7905 16.5341 11.7905 13.0515C11.7905 9.56886 13.2112 6.41732 15.5088 4.13527C17.8065 1.85323 20.9796 0.442227 24.486 0.442227C27.9925 0.442227 31.1656 1.85323 33.4632 4.13527C35.7609 6.41732 37.1815 9.56886 37.1815 13.0515H37.4121C37.4121 5.96091 31.6251 0.213249 24.486 0.213249C17.3469 0.213249 11.56 5.96091 11.56 13.0515C11.56 20.1421 17.3469 25.8897 24.486 25.8897C31.6251 25.8897 37.4121 20.1421 37.4121 13.0515H37.2968Z" fill="white"/>
<path d="M13.2579 13.231C13.2579 10.1475 14.515 7.35801 16.5494 5.33743C18.5838 3.31685 21.3924 2.0683 24.497 2.0683C27.6015 2.0683 30.4101 3.31685 32.4445 5.33743C34.4789 7.35801 35.736 10.1475 35.736 13.231H36.1426C36.1426 6.84281 30.9288 1.66295 24.4954 1.66295C18.0635 1.66295 12.8483 6.84126 12.8483 13.231H13.2548H13.2579Z" fill="white"/>
<path d="M13.3029 13.0395C13.4571 9.94984 14.6986 7.26553 16.6801 5.35171C18.6631 3.43788 21.386 2.29454 24.517 2.29454C27.6371 2.29454 30.3897 3.43943 32.3882 5.35171C34.3868 7.26399 35.6314 9.94674 35.7327 13.0302L35.9648 13.0225C35.8635 9.88176 34.5924 7.14021 32.5502 5.18616C30.508 3.23211 27.6963 2.06402 24.5186 2.06402C21.3299 2.06402 18.5447 3.23057 16.5181 5.18616C14.493 7.14176 13.2281 9.88486 13.0708 13.0287L13.3029 13.0395Z" fill="white"/>
<path fill-rule="evenodd" clip-rule="evenodd" d="M23.1851 21.9447V5.29426C23.1851 3.98228 21.8688 3.98228 21.8688 3.98228V20.6203C21.8688 20.6203 21.8688 23.252 24.4998 23.252C23.1851 23.252 23.1851 21.9462 23.1851 21.9462" fill="white"/>
<path fill-rule="evenodd" clip-rule="evenodd" d="M24.4997 12.7456C25.8144 12.7456 25.8144 14.0514 25.8144 14.0514V21.945C25.8144 21.945 25.8144 23.2508 24.4997 23.2508C27.1494 23.2508 27.1494 20.6191 27.1494 20.6191V15.3572C27.1494 15.3572 27.1494 12.7441 24.4997 12.7441" fill="white"/>
<path fill-rule="evenodd" clip-rule="evenodd" d="M24.4172 23.2505C23.277 23.218 22.4327 22.3021 22.4327 20.6203V5.56037C22.4327 4.7311 22.2115 4.1633 21.8688 3.98228V20.6203C21.8688 20.6203 21.8688 23.1963 24.4172 23.2505Z" fill="white"/>
<path fill-rule="evenodd" clip-rule="evenodd" d="M25.8144 14.0514V21.9264C25.8144 21.9264 25.8144 23.2322 24.4997 23.2322C25.4265 23.2322 26.3783 22.7015 26.3783 21.4932V14.4831C26.3783 13.2747 25.4265 12.7441 24.4997 12.7441C25.8144 12.7441 25.8144 14.0499 25.8144 14.0499" fill="white"/>
<path fill-rule="evenodd" clip-rule="evenodd" d="M24.4997 4.00967C25.8144 4.00967 25.8144 5.09577 25.8144 5.09577V11.6588C25.8144 11.6588 25.8144 12.7449 24.4997 12.7449C27.1494 12.7449 27.1494 10.5572 27.1494 10.5572V6.18187C27.1494 6.18187 27.1494 4.00967 24.4997 4.00967Z" fill="white"/>
<path fill-rule="evenodd" clip-rule="evenodd" d="M25.8144 5.09618V11.6437C25.8144 11.6437 25.8144 12.7453 24.4997 12.7453C25.4265 12.7453 26.3783 12.2889 26.3783 11.2848V5.45666C26.3783 4.45256 25.4265 4.01162 24.4997 4.01162C25.8144 4.01162 25.8144 5.09772 25.8144 5.09772" fill="white"/>
</g>
<defs>
<clipPath id="clip0_0_613">
<rect width="48.913" height="42.9277" fill="white" transform="scale(1.00168)"/>
</clipPath>
</defs>
</svg>
