<svg width="32" height="44" viewBox="0 0 32 44" fill="none" xmlns="http://www.w3.org/2000/svg">
<path d="M6.09252 43.0789C6.11999 43.3292 6.16953 43.7155 6.47169 43.8135C6.67496 43.8733 6.85616 43.8733 6.92758 43.8733C6.96055 43.8733 6.98258 43.8788 6.98258 43.906C6.98258 43.9495 6.92213 43.9658 6.83423 43.9658C6.68041 43.9658 5.92783 43.9441 5.66962 43.9223C5.5103 43.906 5.47179 43.8897 5.47179 43.8516C5.47179 43.8244 5.48832 43.808 5.52128 43.8026C5.55424 43.7971 5.56512 43.6774 5.54864 43.5523L5.21359 39.9827H5.1916L3.48297 43.5795C3.33464 43.8842 3.31271 43.9441 3.25228 43.9441C3.20283 43.9441 3.16993 43.8733 3.03808 43.6285C2.85678 43.2911 2.25797 42.094 2.21951 42.0232C2.15908 41.8981 1.37337 40.2384 1.29646 40.0534H1.2691L0.988908 43.2584C0.983414 43.3673 0.983408 43.4924 0.983408 43.6121C0.983408 43.7155 1.06023 43.808 1.16461 43.8244C1.28548 43.8516 1.38985 43.857 1.4283 43.857C1.45577 43.857 1.48329 43.8733 1.48329 43.8897C1.48329 43.9386 1.43935 43.9495 1.35695 43.9495C1.09874 43.9495 0.763657 43.9277 0.708719 43.9277C0.648288 43.9277 0.313129 43.9495 0.120847 43.9495C0.0494279 43.9495 0 43.9332 0 43.8897C0 43.8679 0.0328983 43.857 0.0713548 43.857C0.126293 43.857 0.175806 43.857 0.280188 43.8352C0.510927 43.7917 0.532908 43.5251 0.560376 43.2639L1.06026 38.7584C1.07674 38.6822 1.0933 38.6332 1.13725 38.6332C1.1812 38.6332 1.20864 38.6604 1.2416 38.7366L3.37862 43.0843L5.43329 38.7421C5.46076 38.6822 5.4882 38.6332 5.53764 38.6332C5.58709 38.6332 5.60914 38.6876 5.62013 38.8182L6.08702 43.0626L6.09252 43.0789Z" fill="white"/>
<path d="M9.86134 41.9639C9.86134 42.6278 9.86137 43.1719 9.89433 43.4658C9.91631 43.6671 9.95476 43.8195 10.169 43.8467C10.2679 43.863 10.4216 43.8739 10.4821 43.8739C10.526 43.8739 10.5371 43.8956 10.5371 43.9174C10.5371 43.95 10.5041 43.9718 10.4272 43.9718C10.0426 43.9718 9.60311 43.95 9.57015 43.95C9.53719 43.95 9.09768 43.9718 8.88343 43.9718C8.80651 43.9718 8.77358 43.9555 8.77358 43.9174C8.77358 43.8956 8.79011 43.8739 8.82857 43.8739C8.889 43.8739 8.97684 43.8575 9.03727 43.8467C9.17461 43.8195 9.21313 43.6671 9.2406 43.4658C9.27357 43.1774 9.27346 42.6278 9.27346 41.9639V40.745C9.27346 39.6676 9.27345 39.4717 9.25697 39.2541C9.24049 39.0201 9.1746 38.9004 9.02077 38.8677C8.94386 38.846 8.85602 38.8405 8.80657 38.8405C8.7791 38.8405 8.75158 38.8242 8.75158 38.797C8.75158 38.7535 8.78452 38.7426 8.86143 38.7426C9.09217 38.7426 9.53169 38.7644 9.56465 38.7644C9.59761 38.7644 10.0371 38.7426 10.2514 38.7426C10.3283 38.7426 10.3612 38.7589 10.3612 38.797C10.3612 38.8242 10.3338 38.8405 10.3064 38.8405C10.2569 38.8405 10.2129 38.846 10.1305 38.8623C9.94374 38.8949 9.88882 39.0147 9.87234 39.2541C9.85585 39.4772 9.85584 39.6676 9.85584 40.745V41.9639H9.86134Z" fill="white"/>
<path d="M14.1681 42.182C14.1681 41.8066 14.0966 41.6542 14.0087 41.4583C13.9593 41.3495 13.0254 39.8259 12.7781 39.4668C12.6023 39.211 12.4265 39.0369 12.3056 38.9553C12.2012 38.8845 12.0694 38.8464 12.0034 38.8464C11.9705 38.8464 11.9321 38.8301 11.9321 38.7975C11.9321 38.7703 11.9595 38.7485 12.0254 38.7485C12.1573 38.7485 12.6792 38.7703 12.7177 38.7703C12.7671 38.7703 13.0308 38.7485 13.3055 38.7485C13.3824 38.7485 13.3989 38.7703 13.3989 38.7975C13.3989 38.8247 13.355 38.8301 13.2945 38.8573C13.2396 38.8845 13.2067 38.9281 13.2067 38.9825C13.2067 39.0641 13.2396 39.1512 13.2945 39.2546C13.4044 39.4559 14.4538 41.2407 14.5801 41.4366C14.712 41.1482 15.5964 39.63 15.7392 39.4015C15.8271 39.2546 15.8601 39.1403 15.8601 39.0478C15.8601 38.9498 15.8326 38.8737 15.7502 38.8519C15.6898 38.8301 15.6459 38.8192 15.6459 38.7811C15.6459 38.7539 15.6898 38.7376 15.7557 38.7376C15.937 38.7376 16.1623 38.7594 16.2173 38.7594C16.2612 38.7594 16.7611 38.7376 16.893 38.7376C16.9424 38.7376 16.9808 38.7539 16.9808 38.7811C16.9808 38.8138 16.9479 38.8356 16.893 38.8356C16.8161 38.8356 16.6842 38.8628 16.5743 38.9335C16.437 39.0151 16.3601 39.0967 16.2063 39.2872C15.9755 39.5647 14.9977 41.1863 14.8713 41.4855C14.7669 41.7358 14.7668 41.9481 14.7668 42.1766V42.7697C14.7668 42.8785 14.7668 43.1724 14.7888 43.4608C14.8053 43.6621 14.8657 43.8145 15.0745 43.8417C15.1734 43.858 15.3273 43.8689 15.3877 43.8689C15.4316 43.8689 15.4425 43.8907 15.4425 43.9124C15.4425 43.9451 15.4096 43.9668 15.3327 43.9668C14.9481 43.9668 14.5086 43.9451 14.4756 43.9451C14.4427 43.9451 14.0032 43.9668 13.7889 43.9668C13.712 43.9668 13.6791 43.9505 13.6791 43.9124C13.6791 43.8907 13.6956 43.8689 13.7341 43.8689C13.7945 43.8689 13.8823 43.8526 13.9428 43.8417C14.0801 43.8145 14.1461 43.6621 14.1571 43.4608C14.1791 43.1724 14.1791 42.8785 14.1791 42.7697V42.1766L14.1681 42.182Z" fill="white"/>
<path d="M19.6952 38.9162C19.7776 38.6877 19.8051 38.6442 19.8491 38.6442C19.893 38.6442 19.9205 38.6768 20.0029 38.8945C20.1073 39.1557 21.206 42.0124 21.629 43.0626C21.8818 43.6775 22.0851 43.7863 22.2279 43.8299C22.3323 43.8625 22.4367 43.8734 22.5081 43.8734C22.552 43.8734 22.5795 43.8788 22.5795 43.9169C22.5795 43.9604 22.519 43.9713 22.4421 43.9713C22.3377 43.9713 21.8268 43.9713 21.3488 43.955C21.217 43.9496 21.1401 43.9496 21.1401 43.906C21.1401 43.8788 21.1622 43.8625 21.1896 43.8571C21.2336 43.8407 21.272 43.7809 21.2335 43.672L20.5853 41.9689C20.5688 41.9417 20.5577 41.9253 20.5248 41.9253H19.025C18.992 41.9253 18.9701 41.9471 18.9536 41.9798L18.5361 43.2041C18.4757 43.3782 18.4373 43.5415 18.4373 43.6666C18.4373 43.8026 18.5856 43.8679 18.7009 43.8679H18.7723C18.8217 43.8679 18.8438 43.8843 18.8438 43.9115C18.8438 43.955 18.7997 43.9659 18.7393 43.9659C18.569 43.9659 18.2723 43.9441 18.1954 43.9441C18.1185 43.9441 17.734 43.9659 17.4044 43.9659C17.311 43.9659 17.2725 43.9496 17.2725 43.9115C17.2725 43.8843 17.3 43.8679 17.333 43.8679C17.3824 43.8679 17.4813 43.8625 17.5362 43.8516C17.8548 43.8081 17.9977 43.5469 18.1241 43.2041L19.7062 38.9108L19.6952 38.9162ZM20.4204 41.6805C20.4534 41.6805 20.4534 41.6587 20.4479 41.6315L19.7832 39.7651C19.7502 39.6617 19.7118 39.6617 19.6789 39.7651L19.0635 41.6315C19.047 41.6642 19.0635 41.6805 19.0855 41.6805H20.4204Z" fill="white"/>
<path d="M24.6232 40.751C24.6232 39.6736 24.6231 39.4777 24.6067 39.2601C24.5902 39.0261 24.5352 38.9118 24.3045 38.8683C24.2495 38.8519 24.1287 38.8465 24.0683 38.8465C24.0408 38.8465 24.0133 38.8302 24.0133 38.803C24.0133 38.7594 24.0462 38.7486 24.1231 38.7486C24.4363 38.7486 24.8758 38.7703 24.9142 38.7703C25.079 38.7703 25.3538 38.7486 25.6724 38.7486C26.8151 38.7486 27.0679 39.4396 27.0679 39.7879C27.0679 40.3538 26.7381 40.6911 26.414 41.034C26.9304 41.1918 27.6227 41.6815 27.6227 42.4923C27.6227 43.2323 27.0349 43.9995 25.8428 43.9995C25.6834 43.9995 24.9691 43.956 24.9142 43.956C24.8812 43.956 24.4417 43.9778 24.2275 43.9778C24.1506 43.9778 24.1176 43.9615 24.1176 43.9234C24.1176 43.9016 24.1342 43.8798 24.1726 43.8798C24.2331 43.8798 24.3209 43.8635 24.3813 43.8526C24.5187 43.8254 24.5572 43.6731 24.5847 43.4717C24.6176 43.1833 24.6177 42.6337 24.6177 41.9699V40.751H24.6232ZM25.1834 40.9034C25.1834 40.9523 25.1999 40.9632 25.2329 40.9795C25.2768 40.985 25.4032 41.0068 25.6559 41.0068C26.046 41.0068 26.1448 40.9904 26.2932 40.8272C26.4415 40.6585 26.546 40.4136 26.546 40.1307C26.546 39.5593 26.2877 38.939 25.6009 38.939C25.524 38.939 25.3758 38.9444 25.2659 38.9717C25.2055 38.988 25.1834 39.0043 25.1834 39.0478V40.9034ZM25.1834 41.638C25.1834 42.1712 25.1834 43.0255 25.1889 43.1289C25.2109 43.4663 25.211 43.5642 25.4252 43.6676C25.612 43.7547 25.9141 43.771 26.0405 43.771C26.4195 43.771 27.0239 43.5697 27.0239 42.7915C27.0239 42.378 26.8865 41.774 26.3481 41.4094C26.1119 41.2516 25.9361 41.2299 25.7713 41.2081C25.6834 41.1918 25.3318 41.1918 25.2274 41.1918C25.1999 41.1918 25.1834 41.2081 25.1834 41.2407V41.6325V41.638Z" fill="white"/>
<path d="M31.0506 41.9639C31.0506 42.6278 31.0505 43.1719 31.0834 43.4658C31.1054 43.6671 31.1438 43.8195 31.3581 43.8467C31.457 43.863 31.6109 43.8739 31.6713 43.8739C31.7152 43.8739 31.7263 43.8956 31.7263 43.9174C31.7263 43.95 31.6933 43.9718 31.6164 43.9718C31.2319 43.9718 30.7923 43.95 30.7594 43.95C30.7264 43.95 30.2869 43.9718 30.0726 43.9718C29.9957 43.9718 29.9628 43.9555 29.9628 43.9174C29.9628 43.8956 29.9792 43.8739 30.0177 43.8739C30.0781 43.8739 30.1661 43.8575 30.2265 43.8467C30.3638 43.8195 30.4022 43.6671 30.4297 43.4658C30.4626 43.1774 30.4627 42.6278 30.4627 41.9639V40.745C30.4627 39.6676 30.4627 39.4717 30.4462 39.2541C30.4297 39.0201 30.3638 38.9004 30.21 38.8677C30.1331 38.846 30.0451 38.8405 29.9957 38.8405C29.9682 38.8405 29.9408 38.8242 29.9408 38.797C29.9408 38.7535 29.9737 38.7426 30.0506 38.7426C30.2814 38.7426 30.7209 38.7644 30.7539 38.7644C30.7868 38.7644 31.2263 38.7426 31.4406 38.7426C31.5175 38.7426 31.5504 38.7589 31.5504 38.797C31.5504 38.8242 31.5229 38.8405 31.4954 38.8405C31.446 38.8405 31.4022 38.846 31.3197 38.8623C31.133 38.8949 31.078 39.0147 31.0616 39.2541C31.0451 39.4772 31.0451 39.6676 31.0451 40.745V41.9639H31.0506Z" fill="white"/>
<path d="M12.5863 35.6298C12.5863 35.9073 12.5863 36.1413 12.6028 36.261C12.6138 36.348 12.6303 36.4079 12.7182 36.4188C12.7566 36.4242 12.8225 36.4296 12.85 36.4296C12.8665 36.4296 12.872 36.4405 12.872 36.446C12.872 36.4623 12.8555 36.4677 12.8225 36.4677C12.6632 36.4677 12.4765 36.4569 12.46 36.4569C12.4435 36.4569 12.2622 36.4677 12.1688 36.4677C12.1358 36.4677 12.1194 36.4623 12.1194 36.446C12.1194 36.4351 12.1248 36.4296 12.1413 36.4296C12.1688 36.4296 12.2018 36.4242 12.2293 36.4188C12.2897 36.4079 12.3007 36.3426 12.3171 36.261C12.3336 36.1358 12.3336 35.9073 12.3336 35.6298V34.3946H11.8996C11.7183 34.4054 11.6469 34.4218 11.5974 34.4925C11.5645 34.5415 11.559 34.5632 11.5481 34.585C11.5371 34.6068 11.5316 34.6122 11.5206 34.6122C11.5096 34.6122 11.5041 34.6013 11.5041 34.585C11.5041 34.5578 11.5646 34.3075 11.5701 34.2803C11.5756 34.264 11.5864 34.2259 11.5974 34.2259C11.6194 34.2259 11.6469 34.2531 11.7293 34.2585C11.8172 34.2694 11.9271 34.2748 11.9601 34.2748H13.0644C13.2511 34.2748 13.3336 34.2476 13.3555 34.2476C13.372 34.2476 13.3719 34.264 13.3719 34.2803C13.3719 34.3673 13.361 34.5687 13.361 34.6013C13.361 34.6285 13.35 34.6394 13.339 34.6394C13.3226 34.6394 13.317 34.6285 13.317 34.5904V34.5578C13.3006 34.4707 13.2346 34.4054 12.9544 34.4H12.5808V35.6298H12.5863Z" fill="white"/>
<path d="M16.9534 35.63C16.9534 35.9075 16.9534 36.1415 16.9699 36.2612C16.9809 36.3482 16.9973 36.4081 17.0852 36.419C17.1237 36.4244 17.1896 36.4299 17.2171 36.4299C17.2336 36.4299 17.2391 36.4407 17.2391 36.4462C17.2391 36.4625 17.2227 36.468 17.1897 36.468C17.0304 36.468 16.8435 36.4571 16.827 36.4571C16.8106 36.4571 16.6293 36.468 16.5359 36.468C16.5029 36.468 16.4865 36.4625 16.4865 36.4462C16.4865 36.4353 16.492 36.4299 16.5085 36.4299C16.536 36.4299 16.5689 36.4244 16.5964 36.419C16.6568 36.4081 16.6677 36.3428 16.6842 36.2612C16.7007 36.136 16.7007 35.9075 16.7007 35.63V35.3252C16.7007 35.3252 16.6897 35.3089 16.6842 35.3089H15.4371C15.4371 35.3089 15.4207 35.3089 15.4207 35.3252V35.63C15.4207 35.9075 15.4206 36.1415 15.4371 36.2612C15.4481 36.3482 15.4647 36.4081 15.5526 36.419C15.5965 36.4244 15.657 36.4299 15.6844 36.4299C15.7009 36.4299 15.7063 36.4407 15.7063 36.4462C15.7063 36.4625 15.6899 36.468 15.6569 36.468C15.4976 36.468 15.3107 36.4571 15.2943 36.4571C15.2778 36.4571 15.0966 36.468 15.0032 36.468C14.9702 36.468 14.9537 36.4625 14.9537 36.4462C14.9537 36.4353 14.9592 36.4299 14.9757 36.4299C15.0032 36.4299 15.0361 36.4244 15.0636 36.419C15.124 36.4081 15.1349 36.3428 15.1514 36.2612C15.1679 36.136 15.1679 35.9075 15.1679 35.63V35.1185C15.1679 34.6614 15.1679 34.5798 15.1624 34.4873C15.1569 34.3893 15.135 34.3403 15.0361 34.3186C15.0141 34.3131 14.9647 34.3077 14.9372 34.3077C14.9262 34.3077 14.9152 34.3023 14.9152 34.2914C14.9152 34.2751 14.9318 34.2696 14.9647 34.2696C15.0966 34.2696 15.2833 34.2805 15.2998 34.2805C15.3162 34.2805 15.4976 34.2696 15.5909 34.2696C15.6239 34.2696 15.6404 34.2751 15.6404 34.2914C15.6404 34.3023 15.6294 34.3077 15.6184 34.3077C15.5965 34.3077 15.58 34.3077 15.5471 34.3186C15.4647 34.3349 15.4426 34.3839 15.4371 34.4873C15.4316 34.5798 15.4316 34.6614 15.4316 35.1185V35.1783C15.4316 35.1783 15.4426 35.1947 15.4481 35.1947H16.6952C16.6952 35.1947 16.7117 35.1947 16.7117 35.1783V35.1185C16.7117 34.6614 16.7117 34.5798 16.7062 34.4873C16.7007 34.3893 16.6787 34.3403 16.5799 34.3186C16.5579 34.3131 16.5085 34.3077 16.481 34.3077C16.47 34.3077 16.459 34.3023 16.459 34.2914C16.459 34.2751 16.4755 34.2696 16.5085 34.2696C16.6403 34.2696 16.8271 34.2805 16.8435 34.2805C16.86 34.2805 17.0413 34.2696 17.1347 34.2696C17.1677 34.2696 17.1842 34.2751 17.1842 34.2914C17.1842 34.3023 17.1732 34.3077 17.1622 34.3077C17.1403 34.3077 17.1237 34.3077 17.0907 34.3186C17.0138 34.3349 16.9864 34.3839 16.9809 34.4873C16.9754 34.5798 16.9754 34.6614 16.9754 35.1185V35.63H16.9534Z" fill="white"/>
<path d="M19.1786 35.1184C19.1786 34.6613 19.1786 34.5797 19.1731 34.4872C19.1676 34.3892 19.1456 34.3402 19.0467 34.3185C19.0248 34.313 18.9754 34.3076 18.9479 34.3076C18.9369 34.3076 18.9259 34.3022 18.9259 34.2913C18.9259 34.2749 18.9424 34.2695 18.9754 34.2695C19.1072 34.2695 19.2939 34.2804 19.3104 34.2804C19.3324 34.2804 19.9147 34.2804 19.9861 34.2804C20.0411 34.2804 20.0905 34.2695 20.1125 34.2641C20.129 34.2641 20.14 34.2477 20.151 34.2477C20.162 34.2477 20.162 34.2586 20.162 34.2749C20.162 34.2967 20.1455 34.3294 20.14 34.411C20.14 34.4382 20.129 34.5688 20.1235 34.6014C20.1235 34.6178 20.1125 34.6341 20.1015 34.6341C20.085 34.6341 20.0796 34.6178 20.0796 34.596C20.0796 34.5742 20.0796 34.5253 20.0631 34.4926C20.0412 34.4436 20.0136 34.411 19.8543 34.3947C19.8049 34.3892 19.4807 34.3838 19.4533 34.3838C19.4423 34.3838 19.4368 34.3947 19.4368 34.411V35.2163C19.4368 35.2163 19.4368 35.2435 19.4533 35.2435C19.4917 35.2435 19.8544 35.2435 19.9203 35.2381C19.9917 35.2326 20.0302 35.2272 20.0576 35.2C20.0796 35.1782 20.0905 35.1619 20.1015 35.1619C20.1125 35.1619 20.118 35.1673 20.118 35.1837C20.118 35.2 20.1015 35.249 20.096 35.3469C20.0905 35.4068 20.0851 35.5156 20.0851 35.5319C20.0851 35.5537 20.0851 35.5863 20.0631 35.5863C20.0467 35.5863 20.0411 35.5754 20.0411 35.5591C20.0411 35.5319 20.0411 35.4993 20.0301 35.4612C20.0192 35.4231 19.9917 35.3687 19.8763 35.3578C19.7994 35.3469 19.5027 35.3415 19.4533 35.3415C19.4368 35.3415 19.4313 35.3523 19.4313 35.3632V35.619C19.4313 35.7169 19.4313 36.0543 19.4313 36.1196C19.4423 36.3209 19.4863 36.359 19.7719 36.359C19.8489 36.359 19.9807 36.359 20.0521 36.3264C20.1291 36.2937 20.162 36.2339 20.184 36.1142C20.1895 36.0815 20.195 36.0706 20.2115 36.0706C20.228 36.0706 20.228 36.0924 20.228 36.1142C20.228 36.1359 20.206 36.3373 20.1895 36.3971C20.1675 36.4733 20.1455 36.4733 20.0301 36.4733C19.5851 36.4733 19.3873 36.457 19.3049 36.457C19.2884 36.457 19.1071 36.4678 19.0137 36.4678C18.9808 36.4678 18.9644 36.4624 18.9644 36.4461C18.9644 36.4352 18.9699 36.4298 18.9864 36.4298C19.0138 36.4298 19.0468 36.4243 19.0742 36.4189C19.1347 36.408 19.1456 36.3427 19.1621 36.2611C19.1786 36.1414 19.1786 35.9074 19.1786 35.6299V35.1184Z" fill="white"/>
<path d="M12.273 10.5606C10.092 12.2148 8.48784 13.9016 7.3726 15.7082C7.466 15.9421 7.57041 16.1489 7.68029 16.3285C8.42744 14.9899 9.48227 13.7275 10.9931 12.3617C10.9931 12.3562 11.0041 12.3508 11.0096 12.3453C11.6304 11.7903 12.2786 11.2625 12.9434 10.7782C12.7181 10.6857 12.4928 10.5932 12.2785 10.5606" fill="white"/>
<path d="M15.833 3.31869C13.141 3.36766 10.7731 4.72258 9.16343 7.13858C8.6635 7.8895 8.04821 9.06485 7.93833 10.3926C7.83944 11.6169 7.98779 12.8521 8.36136 13.9785C8.5042 13.7989 8.65256 13.6248 8.80089 13.4615C8.19108 11.6387 8.40527 9.65253 9.41613 7.85685C10.5094 5.9197 12.4158 4.47772 14.5199 3.99887C17.1789 3.5037 20.195 4.61375 22.2167 6.81754C22.5408 6.88283 22.8374 6.94813 23.1231 7.04608C21.2882 4.66273 18.5798 3.2806 15.822 3.32957" fill="white"/>
<path d="M11.0205 17.2278C10.8337 17.4944 10.6524 17.7937 10.4656 18.1474C10.603 20.2206 11.2127 22.1414 12.2346 23.7031C12.4598 23.7412 12.6961 23.752 12.9488 23.7303C11.9215 22.3046 11.2786 20.5253 11.0808 18.5827C11.0369 18.1528 11.015 17.7175 11.0205 17.2278Z" fill="white"/>
<path d="M14.0696 7.68907C16.5034 8.66853 18.5581 9.96903 20.1788 11.5579C20.2337 11.3403 20.2887 11.1117 20.3106 10.8941C18.8053 9.46842 16.9319 8.27674 14.7399 7.34626C14.5146 7.42788 14.2894 7.54215 14.0696 7.68363" fill="white"/>
<path d="M24.5407 25.4602C26.7217 23.0823 26.9744 19.6814 25.1779 16.7974C24.656 16.0519 24.1013 15.2575 23.5134 14.4957C23.42 14.7079 23.3321 14.8983 23.2387 15.0888C23.8046 15.8343 24.3045 16.5362 24.8099 17.2926C24.8099 17.2926 24.8099 17.2926 24.8099 17.298C24.8099 17.298 24.8099 17.3089 24.8154 17.3089C26.3152 19.8337 26.057 22.8537 24.1507 25.0031C23.2772 25.988 22.1565 26.6682 20.9039 26.9729C19.5634 27.2994 18.1295 27.1742 16.7561 26.6083C16.5363 26.7498 16.3275 26.8695 16.1242 26.9729C17.6624 27.6694 19.2667 27.8816 20.7775 27.5823C22.2279 27.2939 23.5298 26.5593 24.5407 25.4602Z" fill="white"/>
<path d="M5.18003 9.77235C4.03183 11.0021 3.34518 12.4495 3.19685 13.9514C3.07599 16.0735 3.92201 18.2283 5.51521 19.8553C7.06995 21.4442 9.15756 22.3475 11.2562 22.3475H11.2727C11.1848 22.1462 11.1023 21.9503 11.0309 21.7544C8.41582 21.6837 5.99317 20.16 4.68565 17.7713C3.7517 16.264 3.52636 14.5771 4.03178 12.9012C4.64159 10.8878 6.26235 9.10305 8.37745 8.11271C8.52029 7.81343 8.68501 7.53048 8.83334 7.28561C7.41595 7.86784 6.15793 8.72215 5.18003 9.77235Z" fill="white"/>
<path d="M15.3276 21.3238C17.5911 22.3577 19.9149 22.6951 22.0465 22.2979C22.1509 22.0965 22.2333 21.8843 22.2992 21.6667C20.0028 22.1945 17.4043 21.7809 14.9376 20.4967C15.0475 20.7688 15.1793 21.0463 15.3331 21.3293" fill="white"/>
<path d="M19.6512 18.5771C19.9149 18.6043 20.1895 18.6152 20.4587 18.6043C22.2167 16.8467 23.4253 14.7463 23.9582 12.5099C23.8099 12.2977 23.6561 12.1072 23.4968 11.9385C22.9914 14.4253 21.6344 16.7705 19.6512 18.5771Z" fill="white"/>
<path d="M9.6086 18.1356C9.7789 18.2226 9.9547 18.2716 10.158 18.3097C11.504 15.6325 13.9816 13.7661 16.0253 12.4275C15.833 12.2969 15.6627 12.1826 15.5034 12.0847C11.6138 14.6803 10.2678 16.7698 9.6086 18.1356Z" fill="white"/>
<path d="M6.73492 12.8853C6.15258 13.8539 6.17447 15.1109 6.78978 16.3352C7.53144 17.8153 8.95433 18.9253 10.3607 19.143C10.3333 18.9416 10.3114 18.7403 10.2949 18.5444C8.87749 18.256 7.53145 16.9827 7.07547 15.4918C6.71288 14.2946 6.96563 13.19 7.80068 12.3793C7.76772 12.1235 7.74581 11.8732 7.72933 11.6283C7.31729 12.031 6.98215 12.45 6.74042 12.8799" fill="white"/>
<path d="M15.5309 6.38192C13.4048 6.61046 11.3885 8.53128 11.0479 10.6589C11.0314 10.8602 11.0259 11.0724 11.0314 11.2955C11.2511 11.1105 11.4435 10.9473 11.6248 10.8058C11.817 9.45089 12.7895 8.13406 14.1135 7.44844C15.2781 6.84444 16.5528 6.80635 17.6186 7.33417C17.8987 7.23622 18.1679 7.14916 18.4316 7.07298C17.4153 6.56692 16.4374 6.33838 15.5254 6.38736" fill="white"/>
<path d="M12.7293 23.9311C11.5482 23.9637 10.5263 23.4141 9.84509 22.3857C9.61435 22.3422 9.36711 22.2878 9.13087 22.2388C9.77914 23.61 10.9713 24.4262 12.4216 24.497C14.1192 24.5786 15.7783 23.6263 16.6793 22.0701C16.4816 22.0048 16.2893 21.9341 16.1135 21.8688C15.3718 23.1094 14.0808 23.893 12.7293 23.9311Z" fill="white"/>
<path d="M22.6676 18.6463C22.4368 18.2872 22.0962 17.8192 21.827 17.4383L21.794 17.3948C21.6787 17.5417 21.5523 17.6941 21.415 17.8573C21.5249 18.0097 21.6622 18.2001 21.7885 18.3851C21.8819 18.5212 21.9753 18.6463 22.0467 18.7552C22.8268 19.7836 22.8599 21.3072 22.1347 22.5424C21.5139 23.5926 20.4755 24.1476 19.3493 24.0279C19.2285 24.202 19.0966 24.387 18.9428 24.5775C20.3052 24.8169 21.6072 24.2673 22.4478 23.0865C23.4092 21.7371 23.4971 19.9523 22.6676 18.6518" fill="white"/>
<path d="M14.3716 16.3896C14.3551 16.6182 14.3441 16.8576 14.3386 17.1134C16.8163 19.0614 19.684 19.8123 22.0519 19.1267C21.953 18.9634 21.8267 18.7839 21.7168 18.6315C19.382 19.1865 16.6515 18.3486 14.3716 16.3896Z" fill="white"/>
<path d="M16.9211 13.0799C17.1353 14.1355 17.2616 15.1966 17.3001 16.2468C17.4814 16.089 17.6737 15.9094 17.8495 15.719C17.8165 15.1204 17.7451 14.4729 17.6188 13.6839C17.399 13.4717 17.1628 13.2703 16.9211 13.0853" fill="white"/>
<path d="M16.1183 17.3854C16.316 17.4997 16.5083 17.6031 16.6951 17.6956C18.8981 16.221 20.4639 13.9573 21.0023 11.476C21.0408 11.2747 21.0737 11.0679 21.0957 10.872C21.1011 10.8285 21.1067 10.785 21.1122 10.7414C20.9309 10.7197 20.7385 10.7251 20.5298 10.7469C20.1892 13.386 18.5465 15.851 16.1128 17.38" fill="white"/>
<path d="M19.7282 10.1096C19.8985 10.2457 20.0908 10.4089 20.2776 10.5885C21.5412 10.3708 22.8541 10.8878 23.8101 11.9815C24.788 13.1024 25.1341 14.5607 24.7221 15.7959C24.9034 16.0571 25.0408 16.253 25.1341 16.3836C25.8209 14.8872 25.4747 13.0317 24.2276 11.6115C23.008 10.2239 21.2994 9.65799 19.7282 10.1096Z" fill="white"/>
<path d="M12.1246 9.78308C12.0257 9.98985 11.9487 10.1803 11.9047 10.3544C14.9318 10.8224 17.6677 13.3908 18.794 14.5824C18.8983 14.4355 19.0028 14.2723 19.1181 14.0873C17.5524 12.4548 15.0912 10.4088 12.1246 9.78308Z" fill="white"/>
<path d="M26.513 19.9092C27.87 18.3638 28.5897 16.5844 28.6007 14.7398C28.6117 13.0203 27.9963 11.3008 26.8646 9.90236C24.7605 7.29047 20.7611 5.70701 16.5199 7.97065C16.7341 8.08492 16.9484 8.19919 17.1681 8.32434C18.8162 7.47548 20.5798 7.23605 22.2719 7.63328C23.8156 7.99785 25.2439 8.88481 26.2932 10.1363C27.326 11.3715 27.9359 12.8951 28.0073 14.4242C28.0843 16.1056 27.5294 17.738 26.3922 19.1637C26.4471 19.4085 26.4856 19.6589 26.5075 19.9092" fill="white"/>
<path d="M19.9038 22.652C19.6841 22.652 19.4807 22.6357 19.2775 22.6139C18.0963 24.9973 15.4923 27.2664 12.2894 27.016C10.6413 26.9344 9.03156 26.1563 7.87237 24.8884C6.81757 23.7294 6.27379 22.3038 6.33972 20.8618C6.14744 20.7149 5.97163 20.5571 5.78484 20.3884C5.77935 20.4537 5.77384 20.519 5.76834 20.5843C5.67495 21.9501 6.01008 23.2669 6.73526 24.3824C7.41099 25.4217 8.39435 26.2706 9.592 26.8365C12.273 28.1152 15.355 27.7343 17.4316 25.857C17.4371 25.8516 17.4426 25.8461 17.4536 25.8407C18.5304 24.8884 19.3764 23.7838 19.9093 22.6466" fill="white"/>
<path d="M13.5863 16.4981C13.416 18.8651 14.0093 21.0254 15.2564 22.5925C15.4047 22.4347 15.5311 22.2878 15.6464 22.1518C15.6245 22.1191 15.6024 22.0865 15.5804 22.0538C15.542 21.9994 15.509 21.945 15.4706 21.9015C14.0202 19.7956 13.7456 16.7811 14.7015 13.5869C14.4598 13.7665 14.207 13.9678 13.9378 14.1855C13.751 14.9419 13.6357 15.72 13.5863 16.4981Z" fill="white"/>
<path d="M19.8542 30.5428C18.5302 30.5428 17.2007 30.2707 15.9042 29.7375C14.7999 30.1782 13.6297 30.4013 12.4211 30.4013C10.9487 30.4013 9.45448 30.0585 8.09202 29.411C6.49333 28.6492 5.16934 27.5065 4.26287 26.108C3.29047 24.6116 2.82889 22.8704 2.92778 21.0529C0.928044 18.9362 -0.126645 16.1665 0.0271811 13.4186V13.3533C0.235945 11.3345 1.14781 9.40825 2.66409 7.78126C3.90019 6.45899 5.49346 5.36526 7.27345 4.62522C9.36109 1.70317 12.3772 0.0598558 15.7778 0C15.8382 0 15.8987 0 15.9592 0C19.4642 0 22.9307 1.79023 25.2381 4.78302L25.3205 4.88641C26.9301 5.57747 28.353 6.64944 29.4463 8.00436C30.9351 9.849 31.7483 12.1235 31.7318 14.398C31.7153 16.7379 30.8417 19.0069 29.1991 20.9713C29.276 23.3819 28.4135 25.689 26.7489 27.501C25.3919 28.9757 23.6449 29.966 21.6946 30.3523C21.0958 30.4721 20.475 30.5319 19.8542 30.5319M15.9042 28.2356L16.1844 28.3608C17.393 28.894 18.6235 29.1661 19.8487 29.1661C20.3761 29.1661 20.9035 29.1171 21.4144 29.0137C23.0736 28.6818 24.5624 27.8438 25.7161 26.5869C27.1885 24.9816 27.9245 22.9248 27.7927 20.7863L27.7763 20.5033L27.963 20.2911C29.5013 18.5335 30.3254 16.493 30.3363 14.398C30.3473 12.4337 29.6441 10.4693 28.3585 8.86954C27.3751 7.65066 26.0787 6.68753 24.6119 6.09441L24.436 6.02367L24.1283 5.62645C22.0792 2.97103 19.0247 1.38213 15.9537 1.38213C15.8987 1.38213 15.8493 1.38213 15.7943 1.38213C12.7892 1.43654 10.1246 2.92749 8.29522 5.57747L8.17987 5.74616L7.84482 5.88764C6.22965 6.55149 4.79024 7.53095 3.68049 8.72263C2.36748 10.1265 1.58743 11.7807 1.41163 13.5002C1.27428 15.9325 2.24109 18.3866 4.05953 20.2476L4.35622 20.5469L4.32322 20.8679C4.32322 20.9114 4.31772 20.9604 4.31223 21.0094V21.0312C4.20784 22.5929 4.59242 24.0892 5.42198 25.368C6.19111 26.5542 7.32293 27.5228 8.68539 28.1758C9.86106 28.7362 11.1465 29.0301 12.4101 29.0301C13.5308 29.0301 14.6076 28.807 15.613 28.3662L15.8932 28.2411L15.9042 28.2356Z" fill="white"/>
</svg>
