<svg width="55" height="31" viewBox="0 0 55 31" fill="none" xmlns="http://www.w3.org/2000/svg">
<path d="M0 0.281948H9.1898C14.4475 0.281948 15.7732 3.24281 15.7732 5.44798C15.7732 7.65315 14.5765 8.91974 13.1512 9.71027C15.4596 10.585 16.8849 11.8845 16.8849 14.5657C16.8849 17.2469 15.1968 20.0423 9.41742 20.0423H0V0.281948ZM8.24904 8.27144C10.2839 8.27144 11.4123 7.568 11.4123 6.12627C11.4123 4.68454 10.2546 4.09334 8.53332 4.09334H4.50942V8.27144H8.24806H8.24904ZM9.41742 16.2319C11.4445 16.2319 12.524 15.4985 12.524 14.0867C12.524 12.675 11.5266 11.8845 9.27479 11.8845H4.5104V16.2319H9.41742Z" fill="#3A518B"/>
<path d="M48.6728 8.21398C45.2243 7.33927 44.3695 6.91546 44.3695 5.61693V5.56081C44.3695 4.60095 45.2526 3.83848 46.9348 3.83848C48.4051 3.83848 49.9193 4.39969 51.457 5.35181L54.4023 2.5119C52.3782 0.902773 49.8988 0 46.9925 0C42.9168 0 40.0095 2.37159 40.0095 5.95656V6.01268C40.0095 9.93631 42.6032 11.0374 46.6212 12.0534C49.9554 12.9001 50.6403 13.4652 50.6403 14.5653V14.6214C50.6403 15.7787 49.5569 16.485 47.7613 16.485C45.6189 16.485 43.8292 15.6626 42.1314 14.3457L39.2104 17.1624C41.6048 19.2795 44.6538 20.3235 47.6753 20.3235C51.9786 20.3235 55.0002 18.1213 55.0002 14.1976V14.1415C55.0002 10.6978 52.7201 9.25802 48.6728 8.21301V8.21398Z" fill="#3A518B"/>
<path d="M37.4881 0.258453V10.9969L32.9884 6.53626V0.258453H37.4881Z" fill="#3A518B"/>
<path d="M32.9884 13.8155L37.4881 18.2703V20.0662H32.9884V13.8155Z" fill="#3A518B"/>
<path d="M24.0143 0.258453V6.54206L19.5195 10.9969V0.258453H24.0143Z" fill="#3A518B"/>
<path d="M19.5195 18.2704L24.0143 13.8204V20.0662H19.5195V18.2704Z" fill="#3A518B"/>
<path d="M37.4893 11.9329V17.3379L37.4864 17.335L28.5066 8.4447L28.5037 8.44761L28.5008 8.4447L19.5181 17.3379V11.9329L28.5037 3.0329L37.4893 11.9329Z" fill="#09BCCA"/>
<path d="M9.55834 27.5408C9.55834 25.8059 10.6896 24.4571 12.62 24.4571C13.4963 24.4571 14.4488 24.8189 15.0691 25.5272L14.0658 26.37C13.7425 26.0584 13.2667 25.7798 12.62 25.7798C11.7613 25.7798 11.0462 26.429 11.0462 27.5408C11.0462 28.5094 11.6499 29.3009 12.6796 29.3009C13.0537 29.3009 13.3771 29.2244 13.7258 29.0396V28.3323H12.5526V27.1702H15.0867V29.8573C14.5338 30.2782 13.6155 30.5907 12.6796 30.5907C10.9358 30.5907 9.55834 29.4876 9.55834 27.5418V27.5408Z" fill="white"/>
<path d="M17.7486 24.5422H20.1049C21.6015 24.5422 22.2648 25.4102 22.2648 26.6061C22.2648 27.4741 21.874 28.0972 21.1248 28.4001L22.5618 30.523H20.8952L19.6535 28.5936H19.1348V30.523H17.7486V24.5422ZM19.8499 27.3638C20.4624 27.3638 20.7936 27.0686 20.7936 26.5723C20.7936 26.1175 20.5132 25.7808 19.8753 25.7808H19.1358V27.3647H19.8499V27.3638Z" fill="white"/>
<path d="M24.5447 27.5321C24.5447 25.7295 25.8205 24.4571 27.6571 24.4571C29.4937 24.4571 30.7617 25.6956 30.7617 27.5321C30.7617 29.3686 29.4605 30.5984 27.6571 30.5984C25.8537 30.5984 24.5447 29.3347 24.5447 27.5321ZM29.2729 27.5321C29.2729 26.5384 28.592 25.772 27.6571 25.772C26.7222 25.772 26.0325 26.5548 26.0325 27.5321C26.0325 28.5094 26.7046 29.2922 27.6571 29.2922C28.6096 29.2922 29.2729 28.5258 29.2729 27.5321Z" fill="white"/>
<path d="M33.2709 28.0295V24.5422H34.7001V27.9453C34.7001 28.6787 35.0577 29.2845 35.763 29.2845C36.3921 29.2845 36.8513 28.7958 36.8513 27.9453V24.5422H38.2717V28.0295C38.2717 29.5883 37.37 30.5985 35.763 30.5985C34.2742 30.5985 33.2709 29.6889 33.2709 28.0295Z" fill="white"/>
<path d="M40.9941 24.5422H43.2908C44.7796 24.5422 45.443 25.4102 45.443 26.6061C45.443 27.9366 44.5501 28.5936 43.1804 28.5936H42.3813V30.523H40.9951V24.5422H40.9941ZM43.0183 27.3638C43.6474 27.3638 43.9708 27.0686 43.9708 26.5723C43.9708 26.1175 43.6816 25.7808 43.0437 25.7808H42.3804V27.3647H43.0183V27.3638Z" fill="white"/>
</svg>
