<svg width="39" height="56" viewBox="0 0 39 56" fill="none" xmlns="http://www.w3.org/2000/svg">
<path d="M9.91618 4.43708C10.1957 4.43708 10.4223 4.21264 10.4223 3.93575C10.4223 3.65886 10.1957 3.4344 9.91618 3.4344C9.63663 3.4344 9.41003 3.65886 9.41003 3.93575C9.41003 4.21264 9.63663 4.43708 9.91618 4.43708Z" fill="white"/>
<path d="M24.422 24.5114C25.6562 23.7491 26.7032 22.7189 27.4936 21.4965C28.499 19.9375 29.0331 18.1244 29.0331 16.2701C29.0331 10.9407 24.6786 6.60031 19.3118 6.55223C14.0768 6.50416 9.66687 10.6248 9.42418 15.8031C9.25777 19.2988 10.9565 22.5266 13.8479 24.3947C14.2223 24.6419 14.4164 25.0815 14.3263 25.5141L11.2408 40.0188C11.213 40.1562 11.3171 40.2867 11.4627 40.2867H26.7865C26.9321 40.2867 27.036 40.1562 27.0083 40.0188L23.9575 25.624C23.8673 25.1913 24.0476 24.7381 24.4289 24.5046L24.422 24.5114ZM22.8896 24.7312L25.8851 38.8651C25.9475 39.1673 25.7186 39.4488 25.4065 39.4488H12.8286C12.5166 39.4488 12.2878 39.1673 12.3502 38.8651L15.3802 24.6419C15.3802 24.6419 15.3872 24.5801 15.3872 24.5526C15.3872 24.3947 15.2971 24.2504 15.1515 24.1749C11.9342 22.5472 10.0205 19.2164 10.284 15.6108C10.6099 11.1056 14.4096 7.52058 18.9721 7.40383C24.0199 7.26647 28.1733 11.2979 28.1733 16.2701C28.1733 17.9596 27.6739 19.5872 26.7933 20.9814C25.9127 22.3756 24.6509 23.5225 23.1116 24.2642C22.9313 24.3535 22.8411 24.5458 22.8827 24.7312H22.8896Z" fill="#51A9A3"/>
<path d="M28.7068 22.2718C29.8647 20.4793 30.4749 18.4052 30.4749 16.2693C30.4749 10.1776 25.4688 5.1779 19.3185 5.12296H19.2213C16.3368 5.12296 13.5842 6.2218 11.4693 8.21345C9.35453 10.2051 8.11334 12.8767 7.97466 15.7405C7.79439 19.6483 9.61108 23.2676 12.8561 25.4653L9.819 39.7296C9.715 40.2173 9.8398 40.7255 10.1588 41.11C10.4777 41.4946 10.9493 41.7213 11.4555 41.7213H26.7862C27.2924 41.7213 27.7638 41.5015 28.0828 41.11C28.4017 40.7255 28.5265 40.2173 28.4225 39.7296L25.4201 25.5752C26.7306 24.7167 27.8678 23.5766 28.7137 22.2649L28.7068 22.2718ZM25.0528 25.2936L24.9209 25.376L27.9858 39.8189C28.0621 40.1829 27.9718 40.5469 27.7361 40.8353C27.5073 41.1238 27.1537 41.2817 26.7862 41.2817H11.4555C11.081 41.2817 10.7343 41.1169 10.5054 40.8353C10.2697 40.5469 10.1797 40.1829 10.2559 39.8189L13.3553 25.2661L13.2306 25.1837C10.041 23.089 8.24502 19.5659 8.4253 15.7611C8.55704 13.014 9.74279 10.4455 11.7813 8.52936C13.8129 6.61326 16.4547 5.5625 19.2283 5.5625H19.3254C25.2331 5.61745 30.0382 10.418 30.0382 16.2693C30.0382 18.3228 29.4488 20.3145 28.3394 22.0383C27.5004 23.3363 26.3633 24.4626 25.0528 25.2936Z" fill="white"/>
<path d="M2.70455 17.5614L2.69084 17.1287L4.58376 17.0601L4.54906 16.1054L4.93739 16.0917L4.99275 17.479L2.71149 17.5614H2.70455Z" fill="white"/>
<path d="M2.94017 13.3991L3.02346 12.9733L5.26307 13.406L5.17979 13.8318L2.94017 13.3991Z" fill="white"/>
<path d="M4.4308 9.88985L4.86078 10.0821L5.15195 9.45033L5.50558 9.60827L5.21441 10.2401L6.15055 10.659L5.97026 11.0574L3.89011 10.1234L4.45162 8.88716L4.80525 9.04511L4.42403 9.88298L4.4308 9.88985Z" fill="white"/>
<path d="M6.553 6.40052L6.92051 6.69583L7.36437 6.16015L7.66942 6.40738L7.22556 6.94306L7.718 7.34141L8.32116 6.59967L8.62621 6.84693L7.7456 7.92517L5.97761 6.50354L6.83739 5.45277L7.14244 5.7L6.55994 6.41425L6.553 6.40052Z" fill="white"/>
<path d="M12.5026 2.58952C12.6828 2.99472 13.1266 3.16641 13.5288 2.99472C13.7992 2.87796 13.9378 2.66508 13.9933 2.45218L14.3816 2.57579C14.2984 2.89171 14.0626 3.18703 13.6743 3.35185C13.0226 3.63343 12.3569 3.35871 12.0934 2.76121C11.8299 2.16372 12.0727 1.49755 12.7245 1.22284C13.0365 1.08549 13.3553 1.09236 13.6188 1.18851L13.4802 1.5731C13.2999 1.50443 13.085 1.49069 12.877 1.5731C12.4818 1.7448 12.3223 2.1912 12.4956 2.58267L12.5026 2.58952Z" fill="white"/>
<path d="M17.4872 0.00792054C18.1876 -0.0676249 18.7215 0.406237 18.7909 1.04494C18.8602 1.68364 18.4303 2.25368 17.73 2.32235C17.0297 2.3979 16.4957 1.92402 16.4263 1.28531C16.357 0.646613 16.7869 0.0765982 17.4872 0.00792054ZM17.6883 1.93089C18.1182 1.88968 18.3956 1.50508 18.354 1.08614C18.3124 0.660342 17.9588 0.351307 17.5289 0.392514C17.099 0.43372 16.8217 0.818302 16.8633 1.23724C16.9049 1.66304 17.2584 1.97209 17.6883 1.93089Z" fill="white"/>
<path d="M21.6411 0.0888716L21.9462 0.150679L22.8893 1.84702L23.1943 0.404783L23.6243 0.494067L23.1596 2.70549L22.8546 2.64368L21.9117 0.947343L21.6064 2.38958L21.1766 2.30029L21.6411 0.0888716Z" fill="white"/>
<path d="M26.2316 2.72773C26.0166 3.11232 26.1414 3.56559 26.5297 3.77849C26.7863 3.92272 27.0428 3.90211 27.2439 3.8197L27.3756 4.19742C27.0705 4.32104 26.6892 4.31419 26.3286 4.10815C25.7115 3.76477 25.5312 3.07111 25.8502 2.50795C26.1692 1.9448 26.8557 1.7319 27.4728 2.08215C27.7709 2.24698 27.958 2.49422 28.0412 2.76893L27.6461 2.89255C27.5907 2.70712 27.4728 2.52855 27.2786 2.41867C26.9042 2.20577 26.4465 2.35 26.2316 2.72773Z" fill="white"/>
<path d="M30.5786 4.95135L30.2457 5.28101L30.738 5.77549L30.4606 6.0502L29.9683 5.55572L29.5177 5.99526L30.1902 6.67517L29.9128 6.94987L28.9282 5.96091L30.5508 4.37446L31.5145 5.33594L31.2372 5.61065L30.5855 4.95822L30.5786 4.95135Z" fill="white"/>
<path d="M32.3324 8.71555L31.521 9.16882L31.306 8.79108L33.2961 7.67851L33.7192 8.42024C33.8648 8.67435 33.8855 8.85977 33.83 9.03146C33.7815 9.18942 33.6636 9.32677 33.5042 9.41605C33.3447 9.50534 33.1644 9.53282 33.0049 9.49161C32.8316 9.4504 32.6789 9.33365 32.5403 9.07954L32.3324 8.7224V8.71555ZM32.8661 8.86664C32.9424 8.99713 33.0049 9.0452 33.0811 9.05894C33.1505 9.07267 33.2198 9.0658 33.2822 9.03146C33.3446 8.99712 33.3931 8.94217 33.4139 8.87349C33.4347 8.80482 33.4279 8.72242 33.3586 8.59193L33.1644 8.24855L32.6652 8.52325L32.8592 8.86664H32.8661Z" fill="white"/>
<path d="M35.4945 13.2208L35.1131 13.3101L34.9675 12.7332L33.1301 13.1796L33.0262 12.7538L34.8636 12.3074L34.718 11.7305L35.0994 11.6412L35.4945 13.2208Z" fill="white"/>
<path d="M34.108 16.1115C33.9624 16.2352 33.8515 16.4343 33.8446 16.6404C33.8446 16.8327 33.9554 16.97 34.1219 16.9769C34.4131 16.9769 34.4616 16.5648 34.6488 16.2626C34.7598 16.0841 34.9193 15.9467 35.1758 15.9536C35.5849 15.9605 35.8069 16.3382 35.8 16.7159C35.8 16.9425 35.7375 17.1554 35.5711 17.3684L35.2522 17.1348C35.3354 17.0455 35.4047 16.8945 35.4116 16.7502C35.4116 16.5854 35.3491 16.4 35.1689 16.3931C34.8014 16.3863 34.8915 17.4301 34.1219 17.4164C33.7197 17.4095 33.4424 17.0456 33.4562 16.6335C33.4562 16.3313 33.5949 16.0497 33.8168 15.8231L34.108 16.1115Z" fill="white"/>
<path d="M4.95213 22.0231L3.67731 20.7604L2.40254 22.023L3.67736 23.2857L4.95213 22.0231Z" fill="white"/>
<path d="M36.0363 22.023L34.7617 20.7604L33.4869 22.023L34.7616 23.2856L36.0363 22.023Z" fill="white"/>
<path d="M5.31196 54.0082H3.87678V55.8213H4.18877V55.2925H5.31196C5.72799 55.2925 6.01228 55.0521 6.01228 54.6469C6.01228 54.2417 5.72799 54.0014 5.31196 54.0014V54.0082ZM5.1872 55.0384H4.19571V54.2692H5.1872C5.38828 54.2692 5.7003 54.2692 5.7003 54.6538C5.7003 55.0384 5.38135 55.0384 5.1872 55.0384Z" fill="white"/>
<path d="M10.0615 54.0083V54.7843H8.2586V54.0083H7.94661V55.8214H8.2586V55.0453H10.0615V55.8214H10.3734V54.0083H10.0615Z" fill="white"/>
<path d="M14.346 54.0083V54.9148C14.346 55.2102 14.2767 55.5879 13.514 55.5879C12.7513 55.5879 12.675 55.2102 12.675 54.9148V54.0083H12.363V54.9148C12.363 55.5467 12.7097 55.8489 13.514 55.8489C14.3183 55.8489 14.6649 55.5467 14.6649 54.9148V54.0083H14.353H14.346Z" fill="white"/>
<path d="M21.7525 55.5259C21.8911 55.368 21.9534 55.1619 21.9534 54.9147C21.9534 54.3378 21.6068 53.9876 20.8025 53.9876C19.9981 53.9876 19.6515 54.3378 19.6515 54.9147C19.6515 55.4916 19.9981 55.8487 20.8025 55.8487C21.0937 55.8487 21.3156 55.8007 21.4958 55.7182L21.787 55.9998L22.0089 55.78L21.7525 55.5259ZM20.8025 55.5878C20.2408 55.5878 19.9635 55.4161 19.9635 54.9147C19.9635 54.4134 20.2408 54.2485 20.8025 54.2485C21.3641 54.2485 21.6345 54.4202 21.6345 54.9147C21.6345 55.4092 21.3572 55.5878 20.8025 55.5878Z" fill="white"/>
<path d="M25.8496 54.0083V54.9148C25.8496 55.2102 25.7803 55.5879 25.0107 55.5879C24.241 55.5879 24.1786 55.2102 24.1786 54.9148V54.0083H23.8665V54.9148C23.8665 55.5467 24.2133 55.8489 25.0176 55.8489C25.8219 55.8489 26.1686 55.5467 26.1686 54.9148V54.0083H25.8566H25.8496Z" fill="white"/>
<path d="M29.2196 53.9876C28.4153 53.9876 28.0686 54.3378 28.0686 54.9147C28.0686 55.4916 28.4153 55.8487 29.2196 55.8487C30.0239 55.8487 30.3707 55.4916 30.3707 54.9147C30.3707 54.3378 30.0239 53.9876 29.2196 53.9876ZM29.2196 55.5878C28.6649 55.5878 28.3876 55.4161 28.3876 54.9147C28.3876 54.4134 28.6649 54.2485 29.2196 54.2485C29.7743 54.2485 30.0518 54.4202 30.0518 54.9147C30.0518 55.4092 29.7743 55.5878 29.2196 55.5878Z" fill="white"/>
<path d="M34.2537 55.0727C34.1983 55.4573 33.8932 55.5946 33.4286 55.5946C32.8947 55.5946 32.5897 55.423 32.5897 54.9216C32.5897 54.4203 32.8947 54.2554 33.4286 54.2554C33.9001 54.2554 34.1983 54.3859 34.2537 54.7705H34.5659C34.5104 54.2898 34.1498 53.9945 33.4286 53.9945C32.6243 53.9945 32.2777 54.3447 32.2777 54.9216C32.2777 55.4985 32.6243 55.8556 33.4286 55.8556C34.1567 55.8556 34.5104 55.5603 34.5728 55.0796H34.2537V55.0727Z" fill="white"/>
<path d="M1.76473 55.0433L0.882298 54.1692L-0.000243865 55.0434L0.882193 55.9174L1.76473 55.0433Z" fill="white"/>
<path d="M38.4442 55.0365L37.5616 54.1623L36.6791 55.0365L37.5616 55.9106L38.4442 55.0365Z" fill="white"/>
<path d="M33.5254 49.5796L33.449 49.3392L32.0414 45.1636H30.5854V45.1773C30.9598 45.4108 31.0916 45.5276 31.0916 45.6993C31.0916 45.7885 31.0568 45.8916 31.0152 46.0152L30.4535 47.7115L30.2663 48.2678L29.9127 49.3392C29.774 49.7444 29.6701 49.9161 29.1084 50.4655V50.4792H30.5993V50.4655C29.9961 49.9092 29.9475 49.7856 30.0723 49.4079L30.1138 49.2705L30.301 48.7142L30.4605 48.2472L30.6269 47.7458L30.6616 47.6428L30.6755 47.5948L31.2857 45.7542L31.8058 47.3132L32.2078 48.5219L32.2217 48.5631L32.2703 48.7142L32.3604 48.9752C32.6169 49.1537 32.8735 49.346 33.1093 49.5315C33.3103 49.6894 33.4976 49.8337 33.664 49.9573L33.5392 49.5727L33.5254 49.5796Z" fill="white"/>
<path d="M5.22141 45.0875H5.20753C5.00645 45.1631 4.99951 45.1631 4.86084 45.1631H0.977823C0.84608 45.1631 0.839146 45.1631 0.631131 45.0875H0.61725L0.554954 46.6259H0.582716C1.44945 45.376 1.53947 45.3211 2.02484 45.3211H2.42706V49.8263C2.42706 50.1147 2.40623 50.1628 1.87926 50.465V50.4787H3.97329V50.465C3.43245 50.1628 3.41161 50.1147 3.41161 49.8263V45.3211H3.82076C4.31306 45.3211 4.40326 45.376 5.26305 46.6259H5.28388L5.22141 45.0875Z" fill="white"/>
<path d="M10.4567 45.816C10.4567 45.5276 10.4843 45.4795 11.0182 45.1773V45.1636H8.91744V45.1773C9.45828 45.4795 9.47895 45.5276 9.47895 45.816V49.8268C9.47895 50.1152 9.45828 50.1633 8.91744 50.4655V50.4792H11.0182V50.4655C10.4843 50.1633 10.4567 50.1152 10.4567 49.8268V45.816ZM7.26016 45.816C7.26016 45.5276 7.28099 45.4795 7.8149 45.1773V45.1636H5.72087V45.1773C6.24784 45.4795 6.27561 45.5276 6.27561 45.816V49.8268C6.27561 50.1152 6.24784 50.1633 5.72087 50.4655V50.4792H7.8149V50.4655C7.28099 50.1633 7.26016 50.1152 7.26016 49.8268V45.816Z" fill="white"/>
<path d="M15.608 48.9404C14.6372 50.3139 14.5818 50.3208 13.9578 50.3208H12.9869V45.3211H13.9923C14.5817 45.3211 14.651 45.3417 15.5247 46.5641H15.5455L15.4763 45.0875H15.4624C15.2405 45.1631 15.2335 45.1631 15.0949 45.1631H11.4477V45.1768C11.9746 45.479 11.9955 45.5271 11.9955 45.8155V49.8263C11.9955 50.1147 11.9746 50.1628 11.4477 50.465V50.4787H15.1643C15.3029 50.4787 15.3097 50.4787 15.5247 50.5543H15.5385L15.6288 48.9335H15.601L15.608 48.9404Z" fill="white"/>
<path d="M19.4706 46.6742C19.1793 46.6742 18.8534 46.6948 18.5275 46.7635L18.6939 45.7334L18.7633 45.2938L18.8049 45.0191L18.9366 44.2156L18.7355 44.2087L18.6108 44.9504L18.153 47.7456L18.1808 47.7731C18.4928 47.7113 18.784 47.6838 19.0336 47.6838C20.3649 47.6838 21.4397 48.6247 21.4397 49.6068C21.4397 50.2386 20.9335 51.1658 19.7409 51.1589V51.3443C21.6408 51.3443 22.4313 50.0463 22.4313 48.9955C22.4313 47.7593 21.1208 46.6742 19.4636 46.6742H19.4706Z" fill="white"/>
<path d="M28.7621 45.1221V45.1358C29.3723 45.7127 29.3931 45.85 29.2683 46.2415L28.4362 48.8856L27.4517 45.9737C27.2991 45.5273 27.313 45.4586 27.7567 45.1289V45.1152H25.8985V45.1289C26.1967 45.438 26.3283 45.644 26.4878 46.0973L25.5171 48.8856L24.5393 45.9737C24.3868 45.5204 24.4008 45.4586 24.8515 45.1289V45.1152H22.9447V45.1289C23.2428 45.438 23.3745 45.644 23.534 46.1179L25.0594 50.5064H25.0871L26.5711 46.3308L28.0271 50.5064H28.0548L29.4277 46.2346C29.5595 45.8157 29.6497 45.6921 30.1836 45.1289V45.1152H28.7621V45.1221Z" fill="white"/>
<path d="M36.4578 45.1636V45.1773C37.0264 45.7679 37.0333 45.8847 36.8114 46.2899L35.9239 47.8695L34.7243 45.9259C34.5163 45.5894 34.544 45.4864 34.9808 45.1842V45.1704H33.0948V45.1842C33.3236 45.4383 33.3999 45.555 33.6149 45.8916L35.0155 48.1167V49.8337C35.0155 49.9367 35.0155 50.0122 34.9808 50.0809C34.9808 50.0878 34.9738 50.1015 34.96 50.1152C34.953 50.1221 34.9461 50.1358 34.9392 50.1427C34.9322 50.1564 34.9185 50.1702 34.8977 50.1839C34.8145 50.2595 34.6826 50.3419 34.4608 50.4724C34.4954 50.4792 34.5233 50.4861 34.551 50.4861H36.5478V50.4724C36.0139 50.1702 35.9862 50.1221 35.9862 49.8337V48.0412L36.9778 46.2968C37.2066 45.8916 37.3176 45.7542 37.8723 45.1842V45.1704H36.4508L36.4578 45.1636Z" fill="white"/>
<path d="M19.7477 51.3506C18.3609 51.3506 17.2722 50.8218 17.2653 49.7299C17.2584 48.6379 19.0405 48.267 19.4496 49.0843C19.3248 48.9126 18.257 49.0499 18.25 49.9634C18.25 50.4784 18.4857 51.1652 19.7477 51.1721V51.3575V51.3506Z" fill="white"/>
<path d="M18.7424 44.2084C19.1861 44.2084 21.7794 44.5106 22.5421 43.7002C22.0567 45.5613 20.4274 45.575 18.6176 44.9501L18.7424 44.2084Z" fill="white"/>
<path d="M5.28354 49.2634C4.69416 48.8238 4.56232 48.0752 5.01302 47.5327C5.53306 46.9077 6.55926 46.8253 8.29965 47.2305C9.3744 47.4777 10.6642 47.7112 11.8568 47.8555C12.7859 47.9654 13.514 47.9791 14.1103 47.8074C14.5194 47.6906 14.8729 47.3816 14.8799 46.9489C15.1087 47.2236 15.2682 47.6014 15.0948 47.931C14.9215 48.2607 14.4223 48.4804 14.1103 48.5148C13.4446 48.5903 12.3004 48.2332 11.3782 48.1302C10.0192 47.9722 8.43134 47.5739 7.89744 47.4846C6.4968 47.2511 5.95604 47.7181 5.54694 48.1439C5.32506 48.3706 5.19338 48.6933 5.26966 49.2565L5.28354 49.2634Z" fill="white"/>
<path d="M36.0007 49.9706V50.4788H34.5586C34.5586 50.4788 34.0108 50.5131 33.6502 50.2384C33.4838 50.1148 32.6309 49.4486 32.3743 49.2769C31.8058 48.8855 31.2233 48.3704 30.842 48.2536C29.8227 47.9446 29.4345 48.6039 29.3305 48.7687C29.2056 48.9679 29.0184 49.4349 29.1016 49.7096C28.845 49.5654 28.5676 48.8923 28.8935 48.3567C29.2056 47.8347 30.0168 47.5462 31.0015 47.9858C31.4938 48.233 33.4145 49.4898 33.5324 49.5791C33.9415 49.8882 34.3297 50.1148 34.8151 50.1697C34.822 50.1697 34.8359 50.1697 34.8498 50.1697C34.8498 50.1697 34.8914 50.1697 34.9122 50.1697C34.9538 50.1697 35.0023 50.1697 35.0509 50.1697C35.141 50.1697 35.4253 50.1629 35.5223 50.1491C35.7858 50.1217 35.7788 50.1217 36.0077 49.9637L36.0007 49.9706Z" fill="white"/>
<path d="M33.4488 49.3386L33.5252 49.579L33.6499 49.9635L33.8163 50.4786" fill="white"/>
<path d="M34.9452 50.1295C34.9452 50.1295 34.9249 50.1568 34.9044 50.1704C34.884 50.1704 34.8635 50.1704 34.8431 50.1704C34.884 50.1704 34.9179 50.1568 34.9452 50.1295Z" fill="white"/>
<path d="M27.4801 16.2698C27.4801 11.7646 23.7773 8.09719 19.2287 8.09719C19.1525 8.09719 19.0761 8.09719 18.9999 8.09719C14.8188 8.20708 11.2965 11.5311 10.9984 15.6586C10.7557 18.9551 12.5169 22.0525 15.4845 23.5497L16.2541 23.9343L13.1963 38.3016C13.1686 38.4527 13.2309 38.5557 13.2725 38.6038C13.3141 38.6587 13.4044 38.7412 13.5569 38.7412H24.6927C24.8452 38.7412 24.9353 38.6587 24.9769 38.6038C25.0116 38.5557 25.081 38.4458 25.0533 38.3016L22.0231 24.0098L22.8204 23.6321C25.6494 22.2723 27.4801 19.3878 27.4801 16.2698ZM21.607 20.5484C21.3504 20.7957 21.0662 20.9948 20.7611 21.1528C20.7195 21.1734 20.6779 21.194 20.6363 21.2146C20.6363 21.2146 20.6363 21.2146 20.6294 21.2146C20.0331 21.5374 19.631 22.1692 19.631 22.8903V23.3368H20.0193C20.158 23.3368 20.2688 23.4466 20.2688 23.584V23.7694C20.2688 23.9068 20.158 24.0167 20.0193 24.0167H19.631V32.8967H21.5516V33.5423H20.768C20.6779 33.5423 20.6017 33.5766 20.5463 33.6384C20.4908 33.6934 20.456 33.7689 20.456 33.8582C20.456 34.0299 20.5947 34.1741 20.775 34.1741H21.5586V34.7991H20.775C20.5947 34.7991 20.456 34.9433 20.456 35.115V35.1287C20.456 35.3073 20.5947 35.4446 20.775 35.4446H21.5586V36.0559H19.6379V37.244H18.5354V24.0167H18.147C18.0083 24.0167 17.8975 23.9068 17.8975 23.7694V23.584C17.8975 23.4466 18.0083 23.3368 18.147 23.3368H18.5354V23.0826C18.5354 22.2929 18.05 21.613 17.3566 21.3176C17.3428 21.3176 17.3219 21.3108 17.3081 21.297C17.2665 21.2764 17.218 21.2558 17.1764 21.2352C17.1764 21.2352 17.1694 21.2352 17.1625 21.2352C17.1417 21.2215 17.1139 21.2077 17.0861 21.194C16.9058 21.0979 16.7395 20.9742 16.5869 20.8369C16.0253 20.3287 15.7479 19.7312 15.7479 19.0375C15.7479 18.6186 15.8382 18.289 16.0185 18.0692C16.1987 17.8425 16.4275 17.7258 16.7049 17.7258C16.9823 17.7258 17.2041 17.8151 17.3775 18.0005C17.5508 18.1859 17.6339 18.4194 17.6339 18.7079C17.6339 18.9276 17.5924 19.0993 17.5092 19.223C17.426 19.3466 17.2665 19.4496 17.0377 19.532C16.8089 19.6213 16.698 19.7175 16.698 19.8342C16.698 19.999 16.7741 20.1776 16.9267 20.3767C17.0861 20.5759 17.315 20.7407 17.627 20.8575C17.939 20.9811 18.2996 21.0429 18.7018 21.0429C19.4922 21.0429 20.0955 20.8025 20.5116 20.3149C20.9276 19.8273 21.1355 19.0375 21.1355 17.9387C21.1355 16.9429 20.9206 16.2149 20.4769 15.7547C20.04 15.2877 19.4784 15.0611 18.792 15.0611C18.48 15.0611 18.1748 15.116 17.8628 15.2328C17.5508 15.3427 17.2387 15.5144 16.9336 15.741C16.8989 16.0981 16.8296 16.3385 16.7394 16.4621C16.6424 16.5789 16.5246 16.6407 16.379 16.6407C16.282 16.6407 16.1917 16.6063 16.1293 16.5377C16.0669 16.4621 16.0323 16.366 16.0323 16.2355C16.0323 16.0088 16.1363 15.7891 16.3513 15.5693C16.4137 15.5006 16.4552 15.4457 16.483 15.3908L16.6633 13.1381C16.7395 12.2453 16.7741 11.38 16.7741 10.5421C18.0846 10.8374 19.1525 10.9885 19.9776 10.9885C20.3659 10.9885 20.7333 10.9542 21.0731 10.8786C21.4128 10.8031 21.6695 10.7138 21.8359 10.6177C21.926 10.5696 21.9815 10.549 22.0092 10.549C22.0647 10.549 22.0925 10.5833 22.0925 10.6589C22.0925 10.8374 21.9746 11.0778 21.7458 11.3731C21.5101 11.6616 21.191 11.9019 20.7958 12.0736C20.3936 12.2453 19.936 12.3346 19.409 12.3346C18.8058 12.3346 18.0848 12.2453 17.2458 12.0599L16.9891 14.9924C17.3774 14.8001 17.7519 14.649 18.1125 14.5529C18.473 14.4567 18.8058 14.4087 19.1317 14.4087C20.1441 14.4087 20.9969 14.7383 21.6833 15.4045C22.3698 16.0707 22.7234 16.8948 22.7234 17.87C22.7234 18.9551 22.3559 19.8479 21.6209 20.5553L21.607 20.5484Z" fill="url(#paint0_linear_0_5051)"/>
<defs>
<linearGradient id="paint0_linear_0_5051" x1="19.2219" y1="7.42415" x2="19.2219" y2="39.4554" gradientUnits="userSpaceOnUse">
<stop stop-color="#395A9F"/>
<stop offset="0.2" stop-color="#407FA2"/>
<stop offset="0.43" stop-color="#4EA7A1"/>
<stop offset="0.49" stop-color="#59AB95"/>
<stop offset="0.61" stop-color="#79B677"/>
<stop offset="0.63" stop-color="#80B971"/>
<stop offset="0.7" stop-color="#9DB36F"/>
<stop offset="0.86" stop-color="#E9A76B"/>
<stop offset="1" stop-color="#D8553B"/>
</linearGradient>
</defs>
</svg>
