<svg width="64" height="51" viewBox="0 0 64 51" fill="none" xmlns="http://www.w3.org/2000/svg">
<g clip-path="url(#clip0_0_5444)">
<path fill-rule="evenodd" clip-rule="evenodd" d="M20.8918 31.1556L21.6666 29.2219L25.321 20.5628C25.5456 20.0295 26.0712 19.6813 26.6527 19.6813C27.2342 19.6813 27.7589 20.027 27.9844 20.5603L31.6888 29.3161L32.3975 31.1506H30.9928C30.2613 31.1506 29.6069 30.6989 29.3526 30.0168L28.7211 28.6273H24.5284L23.874 30.1185C23.6468 30.7401 23.056 31.1506 22.3905 31.1506H20.891L20.8935 31.1548L20.8918 31.1556ZM25.0955 26.5178H28.1794L26.6298 22.7631L25.0964 26.5178H25.0955ZM4.77821 30.571C4.97402 31.0976 5.36226 31.3617 5.94886 31.3617C6.53546 31.3617 6.9237 31.0976 7.11951 30.571L11.2282 20.0119C11.1104 19.9462 10.9468 19.8941 10.7417 19.8512C10.5459 19.7974 10.3619 19.7696 10.1898 19.7696C9.28111 19.7696 8.68518 20.1397 8.40375 20.8832L5.92682 27.692L5.82001 27.4051L3.4821 20.8832C3.2227 20.1397 2.62763 19.7696 1.69603 19.7696C1.5231 19.7696 1.33237 19.7965 1.12808 19.8512C0.932261 19.8941 0.77544 19.9479 0.657611 20.0119L4.7816 30.571H4.77905H4.77821ZM13.506 31.217C13.1601 31.217 12.8609 31.0925 12.6134 30.8469C12.3743 30.5988 12.2565 30.3027 12.2565 29.9587V21.4829C12.2565 20.9026 12.4523 20.4711 12.8405 20.191C13.2313 19.9109 13.8315 19.7705 14.6427 19.7705V29.1681H18.4191C18.96 29.1681 19.3711 29.3464 19.6534 29.7013C19.9467 30.047 20.0916 30.5509 20.0916 31.2195H13.506V31.217ZM34.4802 30.587C35.3525 31.1043 36.5342 31.3617 38.0278 31.3617C38.9433 31.3617 39.7367 31.233 40.4072 30.9756C41.0888 30.7065 41.6092 30.3246 41.9729 29.83C42.3459 29.3355 42.5315 28.7593 42.5315 28.1016C42.5315 27.4438 42.3815 26.9114 42.084 26.4707C41.7974 26.0299 41.327 25.6531 40.6793 25.3411C40.041 25.0181 39.173 24.733 38.0753 24.4848C37.448 24.3444 36.9614 24.2047 36.6206 24.0643C36.2909 23.9238 36.0569 23.7682 35.9187 23.5966C35.7806 23.4133 35.7119 23.1828 35.7119 22.9027C35.7119 22.4939 35.8933 22.1819 36.2553 21.9649C36.6164 21.7504 37.1343 21.6419 37.8048 21.6419C38.6254 21.6419 39.2273 21.8093 39.6087 22.1415C39.9927 22.4763 40.2106 23.002 40.2631 23.7253C40.9336 23.7026 41.4126 23.5807 41.7016 23.3552C41.9992 23.118 42.1492 22.8018 42.1492 22.4023C42.1492 21.885 41.9627 21.4283 41.5906 21.0287C41.2176 20.6309 40.7022 20.3239 40.041 20.1094C39.3824 19.8832 38.6364 19.7705 37.8048 19.7705C36.9326 19.7705 36.1637 19.8991 35.5051 20.159C34.8439 20.4164 34.3276 20.7823 33.9555 21.2567C33.5944 21.7201 33.4121 22.2576 33.4121 22.8716C33.4121 23.5176 33.5461 24.055 33.8122 24.4865C34.0894 24.918 34.5302 25.2881 35.1372 25.6001C35.7441 25.9122 36.5799 26.1923 37.6455 26.4404C38.3474 26.6027 38.8814 26.7592 39.2425 26.908C39.6155 27.0594 39.8766 27.2243 40.0241 27.4077C40.1741 27.591 40.247 27.8282 40.247 28.1192C40.247 28.5507 40.0495 28.8897 39.6562 29.1361C39.2629 29.3733 38.7195 29.4911 38.0269 29.4911C37.1318 29.4911 36.4341 29.2926 35.934 28.8947C35.4432 28.486 35.177 27.8871 35.1363 27.1032C34.4344 27.1032 33.9343 27.2277 33.6342 27.4741C33.3367 27.7222 33.1867 28.0435 33.1867 28.4431C33.1867 29.3582 33.6181 30.074 34.4794 30.5912V30.587H34.4802ZM43.2995 21.9657H47.2124V31.3634C47.9915 31.3634 48.5823 31.2187 48.9824 30.9277C49.3935 30.6367 49.6004 30.2119 49.6004 29.6509V21.9657H51.6297C52.875 21.9657 53.4972 21.2811 53.4972 19.9143H45.1644C43.9192 19.9143 43.2961 20.5989 43.2961 21.9657H43.2987H43.2995ZM52.6114 29.2219L51.8366 31.1556H53.3361C53.9999 31.1556 54.5924 30.7418 54.8196 30.1236L55.474 28.6323H59.6666L60.2982 30.0218C60.5525 30.7039 61.2069 31.1556 61.9384 31.1556H63.343L62.6344 29.3212L58.9308 20.5653C58.7062 20.032 58.1806 19.6863 57.5991 19.6863C57.0176 19.6863 56.492 20.0346 56.2674 20.5678L52.613 29.227L52.6105 29.2228L52.6114 29.2219ZM59.1241 26.5178H56.0402L57.5737 22.7631L59.1233 26.5178H59.1241Z" fill="white"/>
<path fill-rule="evenodd" clip-rule="evenodd" d="M50.3363 0.512565C50.3363 0.512565 36.9793 8.01687 17.3097 0.783399C17.3097 0.783399 15.1989 3.20073 13.6604 4.999C29.0442 8.55013 44.2058 7.12278 50.3363 0.512565ZM20.2961 8.61994C23.48 8.94293 39.2545 9.63431 46.0148 4.999C46.0148 4.999 38.5459 12.6236 17.9853 11.6092L20.2961 8.62078V8.61994ZM24.259 13.7961C34.0302 13.2965 40.6905 9.49469 40.6905 9.49469C32.9325 16.1049 23.3299 16.369 23.3299 16.369L24.259 13.7961Z" fill="white"/>
<path fill-rule="evenodd" clip-rule="evenodd" d="M50.3363 0.512565C50.3363 0.512565 36.9793 8.01687 17.3097 0.783399C17.3097 0.783399 15.1989 3.20073 13.6604 4.999C29.0442 8.55013 44.2058 7.12278 50.3363 0.512565ZM20.2961 8.61994C23.48 8.94293 39.2545 9.63431 46.0148 4.999C46.0148 4.999 38.5459 12.6236 17.9853 11.6092L20.2961 8.62078V8.61994ZM24.259 13.7961C34.0302 13.2965 40.6905 9.49469 40.6905 9.49469C32.9325 16.1049 23.3299 16.369 23.3299 16.369L24.259 13.7961Z" fill="url(#paint0_linear_0_5444)"/>
<path opacity="0.8" d="M11.8184 34.6247H14.8014V35.0671H13.5349V38.5518H13.0899V35.0671H11.8184V34.6247ZM18.6143 34.6247V38.5543H18.1692V36.8006H15.9068V38.5543H15.4617V34.6247H15.9068V36.3784H18.1692V34.6247H18.6143ZM20.0655 37.0336C20.0655 37.2002 20.0918 37.3524 20.1469 37.4903C20.1994 37.6283 20.2766 37.7477 20.3741 37.8453C20.4724 37.9454 20.5894 38.0211 20.7259 38.0757C20.8649 38.1279 21.0183 38.1565 21.1853 38.1565C21.3523 38.1565 21.5108 38.1304 21.6473 38.0757C21.7863 38.0211 21.9033 37.9428 22.0016 37.8453C22.0999 37.7452 22.1762 37.6266 22.2288 37.4903C22.2814 37.3524 22.3102 37.2002 22.3102 37.0336V34.6247H22.7552V37.0336C22.7552 37.2641 22.7171 37.4786 22.6425 37.6712C22.5679 37.8638 22.4628 38.0303 22.3237 38.1666C22.1873 38.3045 22.022 38.4113 21.8278 38.4879C21.6363 38.5644 21.421 38.6023 21.1836 38.6023C20.9463 38.6023 20.736 38.5644 20.5419 38.4879C20.3503 38.4113 20.185 38.302 20.046 38.1666C19.9095 38.0286 19.8019 37.8646 19.7273 37.6712C19.6527 37.4786 19.6171 37.2666 19.6171 37.0336V34.6247H20.0621V37.0336H20.0655ZM24.6981 38.5518V36.9974C24.6981 36.9453 24.6837 36.8881 24.6574 36.8259C24.6311 36.7661 24.5854 36.6854 24.5209 36.5878L23.1757 34.6222H23.5639C23.6597 34.6222 23.7411 34.6718 23.808 34.7719L24.7922 36.1883C24.8236 36.2362 24.8498 36.2934 24.871 36.3574C24.8948 36.4196 24.9092 36.4785 24.9168 36.5332H24.9219C24.9244 36.5096 24.9312 36.4835 24.9388 36.4549C24.9456 36.4238 24.9558 36.3927 24.9651 36.3641C24.977 36.333 24.9889 36.3044 25.0007 36.2758C25.0126 36.2472 25.027 36.2236 25.0414 36.2018L26.0374 34.7736C26.1044 34.6735 26.1858 34.6239 26.2816 34.6239H26.6647L25.3169 36.592C25.2499 36.6896 25.2042 36.7678 25.1804 36.8301C25.1567 36.8898 25.1448 36.947 25.1448 36.9991V38.5535H24.6998V38.551L24.6981 38.5518ZM32.1069 34.6247V38.5543H31.7619C31.7356 38.5543 31.7093 38.5451 31.6779 38.5257C31.6491 38.5064 31.6228 38.4803 31.6033 38.4517L29.3383 35.184H29.3265C29.3477 35.2362 29.3621 35.2892 29.3697 35.3413C29.379 35.3909 29.3841 35.4389 29.3841 35.4843V38.5518H28.9391V34.6222H29.2841C29.3443 34.6222 29.3968 34.6314 29.4417 34.6508C29.4892 34.6701 29.5324 34.708 29.5714 34.7626L31.7288 37.8638H31.7381C31.7068 37.7999 31.6856 37.7427 31.6737 37.6922C31.6644 37.64 31.6593 37.5921 31.6593 37.5467V34.6213H32.1069V34.6239V34.6247ZM36.1766 38.3567C36.0545 38.4139 35.9274 38.461 35.7934 38.4971C35.6595 38.5333 35.5256 38.5611 35.3866 38.5779C35.2475 38.5947 35.1085 38.6014 34.9703 38.6014C34.7839 38.6014 34.6041 38.5779 34.4295 38.5325C34.2574 38.4845 34.0964 38.4181 33.9455 38.3298C33.7971 38.244 33.6632 38.1397 33.5411 38.0177C33.4191 37.8941 33.314 37.7586 33.2275 37.6106C33.141 37.4609 33.0715 37.3011 33.0241 37.1278C32.9783 36.9537 32.9546 36.7729 32.9546 36.5853C32.9546 36.3977 32.9783 36.2186 33.0241 36.0453C33.0715 35.8712 33.1393 35.7122 33.2275 35.5625C33.314 35.4153 33.4191 35.2791 33.5411 35.158C33.6658 35.0343 33.8022 34.9292 33.9506 34.8442C34.1015 34.7584 34.2617 34.692 34.4363 34.6466C34.6109 34.5986 34.7957 34.5751 34.9848 34.5751C35.1161 34.5751 35.2484 34.5919 35.3849 34.623C35.5213 34.6516 35.6527 34.692 35.7799 34.7441C35.907 34.7963 36.0266 34.856 36.1368 34.925C36.247 34.9914 36.3453 35.0654 36.4267 35.1462L36.3334 35.2387C36.3046 35.2648 36.2758 35.2883 36.2427 35.3077C36.2114 35.327 36.1783 35.343 36.1401 35.3506C36.1045 35.3573 36.0681 35.3598 36.0299 35.3531C35.9943 35.3464 35.9554 35.3295 35.9223 35.3009C35.8697 35.258 35.8053 35.2202 35.7307 35.184C35.6587 35.1487 35.5824 35.1201 35.501 35.0957C35.4196 35.0696 35.3357 35.0503 35.2492 35.0385C35.1628 35.0242 35.0772 35.0175 34.9932 35.0175C34.7703 35.0175 34.5651 35.0579 34.371 35.1386C34.1795 35.2194 34.0099 35.3312 33.8658 35.4717C33.7226 35.6122 33.6098 35.7762 33.5284 35.9688C33.4471 36.1589 33.4064 36.3666 33.4064 36.5878C33.4064 36.809 33.4471 37.0134 33.5284 37.2044C33.6098 37.3944 33.7226 37.561 33.8633 37.704C34.0065 37.8444 34.1718 37.9538 34.3609 38.0345C34.5524 38.1153 34.7584 38.1556 34.9788 38.1582C35.0695 38.1582 35.1628 38.1531 35.2586 38.1439C35.3569 38.1346 35.4527 38.1203 35.5485 38.1035C35.6443 38.0841 35.7375 38.0581 35.8265 38.027C35.9172 37.9958 36.0011 37.958 36.0757 37.9151V36.9874H35.64C35.5493 36.9874 35.4823 36.9638 35.4366 36.9159C35.3908 36.8679 35.3696 36.8065 35.3696 36.7275V36.5988H36.5208V38.1506C36.5208 38.1506 36.3029 38.2978 36.1783 38.355L36.1766 38.3567ZM37.6829 37.0336C37.6829 37.2002 37.7092 37.3524 37.7643 37.4903C37.8169 37.6283 37.8932 37.7477 37.9915 37.8453C38.0898 37.9454 38.2068 38.0211 38.3433 38.0757C38.4823 38.1279 38.6349 38.1565 38.8027 38.1565C38.9706 38.1565 39.1282 38.1304 39.2647 38.0757C39.4037 38.0211 39.5207 37.9428 39.619 37.8453C39.7174 37.7452 39.7937 37.6266 39.8462 37.4903C39.8988 37.3549 39.9276 37.2002 39.9276 37.0336V34.6247H40.3752V37.0336C40.3752 37.2641 40.337 37.4786 40.2599 37.6712C40.1853 37.8638 40.0802 38.0303 39.9412 38.1666C39.8047 38.3045 39.6394 38.4113 39.4453 38.4879C39.2537 38.5644 39.0384 38.6023 38.801 38.6023C38.5637 38.6023 38.3535 38.5644 38.1619 38.4879C37.9703 38.4113 37.8025 38.302 37.666 38.1666C37.5295 38.0286 37.4244 37.8646 37.3472 37.6712C37.2727 37.4786 37.2371 37.2666 37.2371 37.0336V34.6247H37.6821L37.6795 37.0336H37.6829ZM42.3147 38.5518V36.9974C42.3147 36.9453 42.3003 36.8881 42.274 36.8259C42.2477 36.7661 42.2019 36.6854 42.1375 36.5878L40.7922 34.6222H41.1805C41.2763 34.6222 41.3576 34.6718 41.4246 34.7719L42.4088 36.1883C42.4401 36.2362 42.4664 36.2934 42.4902 36.3574C42.5139 36.4196 42.5283 36.4785 42.5359 36.5332H42.541C42.5436 36.5096 42.5503 36.4835 42.558 36.4549C42.5647 36.4238 42.5749 36.3927 42.5817 36.3641C42.5936 36.333 42.6054 36.3044 42.6173 36.2758C42.6292 36.2472 42.6436 36.2236 42.658 36.2018L43.654 34.7736C43.7235 34.6735 43.8049 34.6239 43.8982 34.6239H44.2813L42.9335 36.592C42.8665 36.6896 42.8207 36.7678 42.797 36.8301C42.7733 36.8898 42.7614 36.947 42.7614 36.9991V38.5535H42.3164V38.551L42.3147 38.5518ZM44.8476 38.5518V34.6222H47.2609V35.0646H45.2951V36.3187H46.8896V36.7611H45.2951V38.1035H47.2609V38.5459H44.8476V38.551V38.5518ZM51.3069 34.6247V38.5543H50.9619C50.9356 38.5543 50.9094 38.5451 50.878 38.5257C50.8492 38.5064 50.8229 38.4803 50.8034 38.4517L48.5384 35.184H48.5265C48.5477 35.2362 48.5621 35.2892 48.5697 35.3413C48.5791 35.3909 48.5842 35.4389 48.5842 35.4843V38.5518H48.1366V34.6222H48.4816C48.5418 34.6222 48.5943 34.6314 48.6393 34.6508C48.6876 34.6701 48.73 34.708 48.769 34.7626L50.9263 37.8638H50.9331C50.9017 37.7999 50.8805 37.7427 50.8687 37.6922C50.8593 37.64 50.8543 37.5921 50.8543 37.5467V34.6213H51.3018L51.3069 34.6239V34.6247Z" fill="white"/>
<path d="M48.1882 41.9058H16.7196" stroke="white" stroke-width="0.25" stroke-linecap="round"/>
<g opacity="0.8">
<path d="M16.9921 45.137H18.0771L19.1214 47.0951H19.1672L20.2116 45.137H21.2941L19.625 48.0767V49.6849H18.6645V48.0767L16.9954 45.137H16.9929H16.9921Z" fill="white" stroke="white" stroke-miterlimit="10"/>
<path d="M13.463 49.6859V45.138H15.2948C15.6305 45.138 15.9119 45.1868 16.1366 45.286C16.3612 45.3853 16.5316 45.5224 16.6426 45.7007C16.7562 45.8757 16.813 46.0775 16.813 46.3055C16.813 46.4829 16.7774 46.6394 16.7045 46.7731C16.6341 46.9077 16.5341 47.0154 16.4095 47.1011C16.2849 47.1844 16.1442 47.2467 15.9848 47.2811V47.3266C16.1577 47.335 16.323 47.3829 16.4748 47.4721C16.6291 47.5604 16.7537 47.6899 16.8478 47.8514C16.9427 48.0129 16.991 48.2038 16.991 48.4301C16.991 48.6723 16.9317 48.8876 16.8096 49.0752C16.6909 49.2636 16.5146 49.4117 16.279 49.5218C16.0467 49.632 15.7568 49.6859 15.4135 49.6859H13.457H13.4621H13.463ZM14.4285 48.9003H15.216C15.4864 48.9003 15.6813 48.849 15.806 48.7472C15.9306 48.6454 15.9924 48.5049 15.9924 48.3334C15.9924 48.2072 15.9628 48.097 15.9001 47.9994C15.8382 47.9027 15.7509 47.827 15.6373 47.7732C15.5262 47.7194 15.3914 47.6899 15.2372 47.6899H14.4259V48.8977L14.4285 48.9003ZM14.4285 47.0414H15.1456C15.2778 47.0414 15.3948 47.017 15.4974 46.9716C15.6025 46.9228 15.6839 46.8589 15.7432 46.7723C15.8051 46.6865 15.8356 46.5839 15.8356 46.4628C15.8356 46.2987 15.7763 46.1667 15.6602 46.0649C15.544 45.9657 15.3787 45.9144 15.1651 45.9144H14.4293V47.0414H14.4285Z" fill="white"/>
<path d="M24.7566 49.7106C24.5718 49.3245 24.3904 48.9233 24.2107 48.5078C24.031 48.0923 23.8606 47.6818 23.6987 47.2747C23.5368 46.8685 23.3884 46.479 23.2537 46.1073C23.118 45.7355 23.001 45.4033 22.9027 45.1114H24.053C24.1395 45.3772 24.2361 45.664 24.3421 45.971C24.448 46.278 24.5565 46.5842 24.6667 46.8887C24.7769 47.1931 24.8821 47.4858 24.9838 47.7651C25.0847 48.0443 25.1813 48.2857 25.2737 48.4884C25.361 48.2866 25.4559 48.046 25.5594 47.7668C25.6628 47.4875 25.7696 47.1957 25.8798 46.8903C25.99 46.5859 26.0976 46.2797 26.2044 45.9727C26.3104 45.6657 26.407 45.378 26.4944 45.1106H27.6048C27.5006 45.4041 27.3819 45.7364 27.2463 46.1073C27.1115 46.4782 26.9631 46.8676 26.8029 47.2747C26.6427 47.6818 26.4732 48.0931 26.2951 48.5095C26.1171 48.9258 25.9357 49.3253 25.7518 49.7106H24.7566Z" fill="white"/>
<path d="M30.8745 49.711C30.8228 49.5512 30.7677 49.3872 30.7083 49.2189C30.649 49.0507 30.5897 48.8825 30.5312 48.716H28.7205C28.662 48.8833 28.6035 49.0516 28.545 49.2206C28.4865 49.3888 28.4314 49.5529 28.3806 49.7118H27.2972C27.4719 49.2164 27.6372 48.758 27.794 48.3383C27.9508 47.9178 28.1034 47.5224 28.2534 47.1507C28.4035 46.7789 28.551 46.4265 28.6959 46.0926C28.8417 45.7586 28.9926 45.4323 29.1486 45.1135H30.1378C30.2896 45.4323 30.4405 45.7586 30.588 46.0926C30.7363 46.4265 30.8846 46.7797 31.0347 47.1507C31.1847 47.5224 31.3382 47.9186 31.495 48.3383C31.6518 48.7589 31.8179 49.2164 31.9926 49.7118H30.8753L30.8745 49.711ZM29.6216 46.154C29.5987 46.2204 29.564 46.3112 29.519 46.4265C29.4741 46.5417 29.4232 46.6746 29.3656 46.8252C29.3088 46.9757 29.2444 47.1414 29.174 47.3231C29.1037 47.5048 29.0316 47.694 28.9587 47.8934H30.2836C30.2133 47.694 30.1438 47.5031 30.0777 47.3214C30.0115 47.1397 29.948 46.9732 29.8878 46.8226C29.8276 46.6721 29.7759 46.5392 29.7301 46.424C29.6852 46.3096 29.6487 46.2187 29.6207 46.154H29.6216Z" fill="white"/>
<path d="M35.6967 49.7107C35.3983 49.1842 35.0745 48.6644 34.727 48.1513C34.3794 47.6382 34.009 47.1538 33.6165 46.6979V49.7107H32.5866V45.1116H33.4359C33.5834 45.2571 33.7462 45.4371 33.9242 45.649C34.1022 45.8618 34.2845 46.0881 34.4693 46.3295C34.6541 46.5709 34.838 46.8207 35.0211 47.0789C35.2034 47.3379 35.3754 47.5869 35.5357 47.8258V45.1116H36.5724V49.7107H35.6959H35.6967Z" fill="white"/>
<path d="M39.0342 45.0585C39.725 45.0585 40.2557 45.1788 40.6261 45.4202C40.9965 45.6616 41.1813 46.056 41.1813 46.6044C41.1813 47.1528 40.994 47.5566 40.6193 47.8022C40.2447 48.0478 39.7098 48.1706 39.0147 48.1706H38.6866V49.7106H37.6431V45.1779C37.8703 45.1334 38.111 45.1031 38.3653 45.0846C38.6196 45.0669 38.8426 45.0577 39.0342 45.0577V45.0585ZM39.1011 45.9417C39.0257 45.9417 38.9511 45.9442 38.8773 45.9484C38.8036 45.9526 38.74 45.9576 38.6866 45.9618V47.2891H39.0147C39.3758 47.2891 39.6479 47.2403 39.8301 47.1427C40.0132 47.0452 40.1048 46.8643 40.1048 46.5986C40.1048 46.4707 40.081 46.3639 40.0344 46.2798C39.9878 46.1957 39.9208 46.1284 39.8335 46.0771C39.7462 46.0266 39.6403 45.9904 39.5156 45.9711C39.391 45.9509 39.2529 45.9417 39.1011 45.9417Z" fill="white"/>
<path d="M44.7461 45.1116H45.7896V49.7107H44.7461V47.7593H42.9939V49.7107H41.9504V45.1116H42.9939V46.8703H44.7461V45.1116Z" fill="white"/>
<path d="M48.6723 49.8031C48.3468 49.8031 48.0662 49.7577 47.8297 49.6668C47.5932 49.576 47.3982 49.4498 47.2448 49.2883C47.0913 49.1268 46.9778 48.9342 46.904 48.7113C46.8303 48.4876 46.7938 48.2412 46.7938 47.9712V45.1106H47.8373V47.8845C47.8373 48.0704 47.8585 48.2285 47.9009 48.3589C47.9433 48.4893 48.0009 48.5953 48.0747 48.6777C48.1484 48.7593 48.2374 48.8182 48.3425 48.8535C48.4468 48.8888 48.5621 48.9065 48.6867 48.9065C48.941 48.9065 49.147 48.8291 49.3055 48.6743C49.464 48.5196 49.5428 48.2563 49.5428 47.8845V45.1106H50.5863V47.9712C50.5863 48.2412 50.5482 48.4884 50.4728 48.7147C50.3965 48.9401 50.2812 49.1336 50.1252 49.2951C49.9692 49.4566 49.7709 49.5819 49.5301 49.6702C49.2894 49.7585 49.0037 49.8031 48.674 49.8031H48.6723Z" fill="white"/>
</g>
</g>
<defs>
<linearGradient id="paint0_linear_0_5444" x1="33.0088" y1="1.13162" x2="22.1522" y2="18.8528" gradientUnits="userSpaceOnUse">
<stop stop-color="#D62C2C"/>
<stop offset="1" stop-color="#AA007A"/>
</linearGradient>
<clipPath id="clip0_0_5444">
<rect width="63.7726" height="50.2867" fill="white" transform="scale(1.00357)"/>
</clipPath>
</defs>
</svg>
