<svg width="42" height="46" viewBox="0 0 42 46" fill="none" xmlns="http://www.w3.org/2000/svg">
<path d="M35.3974 14.2739C35.3974 6.40241 28.9335 0 20.9863 0C13.0391 0 6.57501 6.40241 6.57501 14.2739C6.57501 22.1453 13.0391 28.5477 20.9863 28.5477C26.0567 28.5477 30.5269 25.9376 33.0932 22.0018C33.1208 21.9677 33.1346 21.9472 33.1415 21.9403C34.5695 19.7197 35.3974 17.089 35.3974 14.2739ZM13.9496 2.46668C15.9088 1.31192 18.4751 1.9542 19.5444 3.9494C19.572 4.00406 19.6064 4.06555 19.634 4.12022C18.7441 3.12262 17.0333 2.494 15.9503 2.41884C15.0397 2.35051 14.2325 2.48032 13.5012 2.7468C13.6461 2.65114 13.7978 2.56232 13.9496 2.47349V2.46668ZM8.49284 8.3566C8.92745 7.46833 9.74837 6.83288 10.7211 6.60739C10.8452 6.58006 10.9695 6.55271 11.0936 6.52538C12.0801 5.09731 13.6391 3.59409 15.8398 3.82641C18.3716 4.09289 19.6273 5.50046 20.1309 6.55956C19.7928 5.91727 16.5229 3.62825 13.5772 6.25207C14.6189 6.21107 15.2535 6.27941 15.5984 6.34774C16.0468 6.15642 16.6194 6.06758 17.3438 6.19057C19.234 6.52539 19.9032 7.82364 20.1239 9.14922C19.2478 8.09012 17.7852 7.03786 16.0744 6.73038C16.0675 6.73038 16.0537 6.73038 16.033 6.73038C15.964 6.71671 15.9019 6.70987 15.8329 6.70304C15.7708 6.69621 15.7019 6.68937 15.6261 6.6757C15.5226 6.66204 15.419 6.6552 15.3155 6.6552C15.2465 6.6552 15.1776 6.64154 15.1087 6.63471C14.3291 6.58004 13.1769 6.55956 12.0386 6.79871C11.9973 6.80554 11.9559 6.81919 11.9145 6.82603C11.8869 6.83286 11.8525 6.83969 11.8249 6.84652C11.7421 6.86702 11.6593 6.88754 11.5765 6.90804C10.2382 7.27018 9.16892 7.89196 8.50665 8.34976C8.49975 8.3566 8.48593 8.36343 8.47903 8.37026C8.47903 8.37026 8.47903 8.36344 8.47903 8.3566H8.49284ZM19.503 27.9259C15.895 27.5433 12.6941 25.7804 10.4521 23.1839C9.52079 22.1043 8.99649 20.7241 9.06548 19.3028C9.09307 18.6947 9.21721 18.0934 9.54144 17.6288C9.87947 17.1437 10.3831 16.884 11.0867 16.8294C12.6734 16.7064 14.3152 18.2916 16.2192 20.1228C17.3023 21.1682 18.4752 22.2956 19.779 23.2454C19.6755 25.0151 19.5789 26.696 19.5099 27.9259H19.503ZM19.8134 22.5826C18.6475 21.7012 17.5921 20.6762 16.5987 19.7265C14.605 17.8064 12.8803 16.1461 11.0384 16.2827C10.1692 16.351 9.51391 16.6995 9.08619 17.3145C8.59639 18.0251 8.47906 18.9817 8.51356 19.8358C8.51356 19.8973 8.47208 19.9315 8.42379 19.9315C8.38929 19.9315 8.36179 19.9178 8.34109 19.8768C8.34109 19.8768 8.34109 19.8631 8.33419 19.8563C7.7685 18.6127 7.67188 17.1915 8.12029 15.9069C8.29965 15.3944 8.56177 14.8888 8.95499 14.4925C9.49998 13.9322 10.2313 13.6589 11.1282 13.6726C12.4596 13.6999 14.0669 15.0391 15.9295 16.597C17.1575 17.622 18.5026 18.7494 19.9789 19.6513C19.9237 20.6011 19.8686 21.5987 19.8134 22.5826ZM20.0135 19.0295C18.6682 18.1754 17.4266 17.1368 16.2883 16.1802C14.3498 14.5608 12.6735 13.1601 11.142 13.1328C10.0865 13.1123 9.21726 13.4471 8.56189 14.1167C8.0652 14.6292 7.74787 15.2715 7.54092 15.9069C7.52022 15.9821 7.45109 16.0162 7.389 16.0162C7.31311 16.0162 7.24414 15.9684 7.23034 15.8796C7.16136 15.3808 7.13384 14.841 7.13384 14.3012C7.13384 14.2944 7.13384 14.2875 7.13384 14.2739C7.13384 12.3675 8.08579 10.5704 9.66557 9.47718C10.9142 8.61624 12.4112 8.03546 13.9703 8.01496C11.5765 8.59575 10.4175 10.3108 9.97597 11.1581L11.4109 11.527C11.8593 10.7959 12.8459 9.61385 14.7154 9.32004C14.9085 9.28587 15.0949 9.27221 15.2742 9.25171C13.86 9.95549 13.1493 11.3767 12.9217 11.9165L14.3359 12.2787C14.6257 11.6842 15.3914 10.4201 16.7573 10.2903C17.7852 10.1878 18.5717 10.4133 19.1442 10.9736C19.9376 11.7457 20.2757 13.0713 20.2826 14.0689C20.2826 14.3012 20.1721 16.4262 20.0204 19.0432L20.0135 19.0295ZM20.2688 2.97914C20.2688 2.97914 20.2481 2.94496 20.2412 2.92447C19.71 1.9747 18.9994 1.29825 18.2888 0.813113C18.9304 0.683288 19.5927 0.601283 20.2688 0.567119V2.97914ZM30.8857 6.53222C31.0857 6.57322 31.2789 6.61421 31.4583 6.66204C32.3206 6.8807 33.0381 7.47516 33.383 8.28827V8.30193C32.7208 7.84413 31.679 7.26335 30.3959 6.90804C30.3131 6.88754 30.2302 6.86702 30.1475 6.84652C30.1199 6.84652 30.0855 6.83286 30.0579 6.82603C30.0165 6.81919 29.9751 6.80554 29.9337 6.79871C28.7955 6.56639 27.6434 6.58004 26.8639 6.63471C26.7949 6.64154 26.7259 6.64837 26.6569 6.6552C26.5534 6.6552 26.45 6.66887 26.3465 6.6757C26.2706 6.68254 26.2016 6.68937 26.1395 6.70304C26.0705 6.70987 26.0084 6.72354 25.9394 6.73038C25.9187 6.73038 25.9049 6.73038 25.898 6.73038C24.1871 7.03786 22.7247 8.09012 21.8486 9.14922C22.0694 7.82364 22.7384 6.52539 24.6286 6.19057C25.3529 6.06075 25.9255 6.15642 26.374 6.34774C26.7189 6.27941 27.3537 6.21107 28.3954 6.25207C25.4497 3.63508 22.1797 5.91727 21.8417 6.55956C22.3453 5.50046 23.6008 4.09289 26.1326 3.82641C28.3333 3.59409 29.8992 5.09731 30.8788 6.52538L30.8857 6.53222ZM28.0435 2.45984C28.2022 2.54866 28.3539 2.64431 28.5057 2.7468C27.7744 2.48032 26.9465 2.34367 26.029 2.412C24.9459 2.494 23.2352 3.12261 22.3453 4.11338C22.3729 4.05188 22.4004 3.99722 22.4349 3.94256C23.5111 1.94736 26.0774 1.31191 28.0435 2.45984ZM21.7105 0.567119C22.3866 0.601283 23.042 0.683288 23.6905 0.813113C22.9868 1.29825 22.2762 1.9747 21.7381 2.92447C21.7312 2.94496 21.7174 2.95864 21.7105 2.97914V0.567119ZM21.7105 14.0552C21.7105 13.0576 22.0555 11.732 22.8489 10.9599C23.4214 10.3996 24.201 10.1741 25.2357 10.2766C26.5948 10.4133 27.3674 11.6705 27.6572 12.265L29.0714 11.9029C28.8438 11.3699 28.1331 9.94181 26.7189 9.23803C26.8982 9.25169 27.0845 9.2722 27.2777 9.30636C29.1403 9.60701 30.1338 10.7823 30.5822 11.5134L32.0171 11.1444C31.5756 10.2971 30.4097 8.57524 28.0228 8.00128C29.3059 8.02178 30.5546 8.41808 31.6584 9.04671C33.4589 10.0716 34.3488 12.183 33.8176 14.1645C33.8176 14.1782 33.8176 14.185 33.8107 14.1987C33.7831 14.3149 33.7486 14.4242 33.7142 14.5403C32.7483 17.704 30.6029 19.7401 27.3329 20.6011C25.4082 21.1067 23.6215 20.7924 21.9589 20.0681C21.8278 16.9865 21.7174 14.3149 21.7174 14.0484L21.7105 14.0552ZM21.9727 20.6831C23.0558 21.1272 24.201 21.4074 25.4082 21.4074C26.0774 21.4074 26.7603 21.3254 27.464 21.1409C31.7825 19.9998 33.5279 17.0138 34.2315 14.7112C34.3764 14.2329 34.4868 13.7751 34.5627 13.3309C34.5903 13.2148 34.6316 13.0645 34.6937 13.0576C34.7282 13.0576 34.7697 13.1328 34.7973 13.2216C34.8456 14.2944 34.7075 15.3671 34.3695 16.392C33.5141 19.0295 31.5066 22.3913 27.6364 23.6896C25.1116 24.5368 22.8695 24.0175 22.1107 23.7852C22.0693 22.7671 22.021 21.7148 21.9796 20.6831H21.9727ZM29.5198 25.0834C27.4847 26.6618 24.9943 27.6868 22.2831 27.9396C22.2417 27.0377 22.1935 25.8897 22.1383 24.6462C22.4073 24.7691 22.6832 24.8853 22.973 24.981C24.0837 25.3773 25.1115 25.5344 26.0566 25.5344C27.3398 25.5344 28.4574 25.2406 29.3749 24.8443C29.5267 24.7828 29.6508 24.981 29.5198 25.0834ZM30.3132 23.7442C30.258 23.7784 30.1959 23.8194 30.1338 23.8535C28.1263 25.0425 25.9739 25.3089 23.7181 24.653C24.0216 24.6803 24.3596 24.7008 24.7114 24.7008C25.6221 24.7008 26.6844 24.5778 27.802 24.202C30.251 23.3821 32.1137 21.6807 33.3899 19.7197C33.4865 19.5693 33.7141 19.6923 33.6451 19.8495C33.6451 19.8631 33.6313 19.8768 33.6313 19.8836C32.9138 21.4552 31.7826 22.8149 30.3132 23.7374V23.7442Z" fill="white"/>
<path d="M21.9239 38.4748C21.8618 38.591 21.7859 38.6866 21.7031 38.7686L21.6135 38.8575L21.4618 39.0078C21.4066 39.0146 21.372 39.0556 21.3651 39.1103C21.3582 39.1649 21.3651 39.2128 21.4065 39.2469C21.4479 39.3221 21.51 39.3426 21.5514 39.3426C21.5928 39.3426 21.6343 39.3289 21.6757 39.3016C21.8826 39.1786 22.0757 38.96 22.2481 38.6525C22.2826 38.6115 22.2896 38.5773 22.2827 38.55C22.2758 38.5022 22.2344 38.4612 22.1585 38.4202C22.124 38.386 22.0894 38.3723 22.048 38.3723C21.9929 38.3723 21.9515 38.4065 21.917 38.4817L21.9239 38.4748ZM21.5583 39.2811C21.5583 39.2811 21.5583 39.2811 21.5652 39.2811H21.5583ZM22.0549 38.4202C22.0549 38.4202 22.0549 38.4202 22.048 38.4202H22.0549Z" fill="white"/>
<path d="M28.691 38.4748C28.6289 38.591 28.553 38.6866 28.4702 38.7686L28.3806 38.8575L28.2288 39.0078C28.1737 39.0146 28.1391 39.0556 28.1322 39.1103C28.1253 39.1649 28.1322 39.2128 28.1736 39.2469C28.215 39.3221 28.2771 39.3426 28.3184 39.3426C28.3598 39.3426 28.4012 39.3289 28.4426 39.3016C28.6495 39.1786 28.8427 38.96 29.0152 38.6525C29.0497 38.6115 29.0566 38.5773 29.0497 38.55C29.0428 38.5022 29.0015 38.4612 28.9256 38.4202C28.8911 38.386 28.8565 38.3723 28.8151 38.3723C28.7599 38.3723 28.7186 38.4065 28.6841 38.4817L28.691 38.4748ZM28.3184 39.2811C28.3184 39.2811 28.3185 39.2811 28.3254 39.2811H28.3184ZM28.822 38.4202C28.822 38.4202 28.822 38.4202 28.8151 38.4202H28.822Z" fill="white"/>
<path d="M6.5951 31.765C5.71898 32.1681 4.8911 32.6327 4.13225 33.152C3.37341 33.6713 2.69049 34.2385 2.10411 34.8261C1.51083 35.4206 1.04863 36.0287 0.738197 36.63C0.420862 37.2313 0.269146 37.8394 0.276045 38.4202C0.276045 39.0078 0.51059 39.5544 0.958999 40.0327C1.01419 40.0874 1.0763 40.1079 1.15909 40.1079C1.21427 40.1079 1.24179 40.0806 1.24869 40.0601C1.27628 40.0122 1.26244 39.9507 1.20725 39.8483C1.20725 39.8483 1.20725 39.8482 1.20725 39.8414C0.820933 39.3768 0.627894 38.8643 0.641691 38.3177C0.655488 37.7642 0.821041 37.1903 1.14527 36.6231C1.46951 36.0492 1.93171 35.4752 2.51809 34.9149C3.11137 34.3546 3.78737 33.8217 4.52552 33.3434C5.26367 32.8582 6.07079 32.4209 6.91931 32.0451C7.76784 31.6693 8.63014 31.3687 9.47866 31.1569C10.3272 30.9519 11.1689 30.8425 11.9691 30.8357H12.0313C12.7694 30.8357 13.4524 30.945 14.0594 31.1637C13.7973 31.3892 13.5214 31.6693 13.2316 31.9973C12.9212 32.3458 12.5624 32.7694 12.1623 33.2409C11.8588 33.6235 11.5621 33.9993 11.2931 34.3615C11.024 34.7236 10.7412 35.1063 10.4653 35.4957C10.1893 35.892 9.89269 36.3088 9.58915 36.7325C9.28561 37.1629 8.9407 37.6207 8.57508 38.1059C8.30603 38.4748 8.02995 38.8438 7.74711 39.2128C7.48496 39.5613 7.216 39.9029 6.96765 40.2446C6.60202 40.0942 6.23636 39.9029 5.89143 39.6843C5.5327 39.4588 5.17395 39.165 4.83592 38.8165C4.78073 38.7618 4.73247 38.7413 4.69108 38.7413C4.66348 38.7413 4.60836 38.755 4.58076 38.8233C4.55317 38.8917 4.53926 38.9873 4.64274 39.0898C4.98767 39.4451 5.34642 39.7389 5.69825 39.9644C6.02938 40.1762 6.38122 40.3539 6.74685 40.4974C6.11907 41.2831 5.49825 42.0211 4.89807 42.6771C4.29099 43.3467 3.70459 43.9206 3.15271 44.3716C2.60082 44.8226 2.07652 45.1369 1.59362 45.3214C1.35217 45.4102 1.12451 45.458 0.903757 45.458C0.683001 45.458 0.476104 45.4102 0.276045 45.3214C0.269146 45.3214 0.262228 45.3214 0.255329 45.3214C0.0897626 45.3214 0.0552292 45.4102 0.041432 45.4649C0.0207362 45.4854 0.0068986 45.5059 0 45.5332C0 45.5537 2.02112e-05 45.581 0.020716 45.6084C0.0414118 45.6357 0.0690803 45.663 0.0966747 45.6903C0.0966747 45.6903 0.103587 45.6972 0.110485 45.6972C0.351936 45.8202 0.60709 45.8817 0.876135 45.8817C1.11069 45.8817 1.366 45.8338 1.62814 45.7382C2.17313 45.54 2.75953 45.1916 3.3666 44.6996C3.96678 44.2145 4.60144 43.6063 5.24991 42.8957C5.88458 42.1988 6.51923 41.4403 7.13321 40.6477C7.6575 40.8048 8.19563 40.88 8.72683 40.88C9.16144 40.88 9.60288 40.8254 10.0375 40.7229C11.024 40.4905 11.9484 40.0942 12.7969 39.5408C13.6386 38.9873 14.3836 38.3177 15.0114 37.5456C15.6391 36.7735 16.0738 35.974 16.3084 35.1677C16.5429 34.3546 16.5429 33.5757 16.2946 32.8377C16.06 32.1203 15.515 31.519 14.6664 31.0612L14.9148 30.8767C15.039 30.7879 15.0942 30.7196 15.1011 30.6512C15.1011 30.6171 15.0942 30.5897 15.0666 30.5692C15.039 30.5419 14.9977 30.5282 14.9563 30.5282C14.9011 30.5282 14.8459 30.5487 14.77 30.5966L14.3491 30.8972C13.611 30.6239 12.8038 30.4872 11.9484 30.4872C11.093 30.4872 10.1892 30.6034 9.28548 30.822C8.38177 31.0475 7.47813 31.3618 6.602 31.765H6.5951ZM4.67036 38.796C4.67036 38.796 4.67036 38.796 4.66346 38.796H4.67036ZM0.862325 45.827C0.862325 45.827 0.848507 45.827 0.841609 45.827H0.855419C0.855419 45.827 0.917594 45.827 0.945189 45.827C0.917594 45.827 0.889919 45.827 0.862325 45.827ZM14.9494 30.5829C14.9494 30.5829 14.963 30.5829 14.9699 30.5829C14.9561 30.5829 14.9494 30.5829 14.9356 30.5829C14.9356 30.5829 14.9425 30.5829 14.9494 30.5829ZM8.70611 40.8322C8.70611 40.8322 8.67157 40.8322 8.65777 40.8322C8.67847 40.8322 8.69232 40.8322 8.71301 40.8322H8.70611ZM14.3629 31.3003C15.177 31.724 15.7013 32.2774 15.9289 32.9402C16.1566 33.6167 16.1635 34.341 15.9496 35.0789C15.7358 35.8237 15.3219 36.5753 14.7355 37.2996C14.1422 38.0307 13.4385 38.6662 12.6452 39.1923C11.8518 39.7184 10.9757 40.1011 10.0513 40.3334C9.60979 40.4427 9.16144 40.4974 8.72683 40.4974C8.29221 40.4974 7.82989 40.4427 7.39527 40.3265L8.98199 38.2972C9.36141 37.7779 9.69941 37.2996 9.98915 36.8828C10.2789 36.466 10.5619 36.0628 10.824 35.6802C11.0793 35.3044 11.3413 34.9423 11.6035 34.5938C11.8656 34.2453 12.1485 33.8832 12.452 33.521C12.7693 33.1315 13.1004 32.7284 13.4315 32.3253C13.7489 31.9426 14.0663 31.5941 14.3767 31.3003H14.3629Z" fill="white"/>
<path d="M39.8391 42.2743C40.0806 42.1992 40.3359 42.1172 40.5842 42.0147C40.8326 41.9122 41.074 41.796 41.3086 41.6662C41.5431 41.5364 41.7431 41.3861 41.9087 41.2221C41.9639 41.1674 41.9846 41.1469 41.9915 41.1264C42.0122 41.0854 41.9915 41.0376 41.957 40.9966C41.9156 40.9146 41.8536 40.9009 41.8122 40.9009C41.7708 40.9009 41.7294 40.9146 41.688 40.9419C41.688 40.9419 41.6811 40.9419 41.6742 40.9488C41.5294 41.0922 41.3569 41.2221 41.1499 41.3451C40.943 41.4681 40.7223 41.5774 40.4877 41.6799C40.26 41.7755 40.0253 41.8575 39.8046 41.9259C39.5838 41.9874 39.3908 42.0284 39.239 42.042C39.0459 42.0694 38.8665 42.083 38.7009 42.083C38.4732 42.083 38.2662 42.0557 38.0937 42.0079C37.7902 41.919 37.542 41.7755 37.3626 41.591C37.1764 41.3997 37.0383 41.1742 36.9555 40.9078C36.8728 40.6481 36.8314 40.368 36.8314 40.0878C36.8314 39.8965 36.7693 39.7667 36.6589 39.6984C36.59 39.6574 36.5071 39.6369 36.4105 39.6369C36.3484 39.6369 36.2794 39.6437 36.2035 39.6642C36.0242 39.7052 35.8035 39.7804 35.562 39.8965C35.3619 39.9922 35.1481 40.1083 34.9274 40.245C34.9412 40.1835 34.955 40.1288 34.9619 40.0742C34.9757 39.9717 34.9619 39.8418 34.9205 39.6915C34.8791 39.5685 34.8101 39.5412 34.7618 39.5412C34.7618 39.5412 34.748 39.5412 34.7411 39.5412C34.6928 39.5412 34.6169 39.5753 34.5756 39.6847C34.5756 39.6847 34.5756 39.6984 34.5756 39.7052V39.7257L34.472 39.8282C34.472 39.8282 34.4307 39.8692 34.41 39.876C34.41 39.876 34.4031 39.876 34.3962 39.8828C34.3617 39.917 34.3547 39.9238 34.3478 39.9238C34.334 39.9307 34.3133 39.9443 34.2926 39.9717C34.2926 39.9717 34.279 39.9717 34.2721 39.9717C34.2583 39.9717 34.2513 39.9717 34.2375 39.9853C34.1341 40.0605 33.9685 40.1562 33.7478 40.2587C33.527 40.3611 33.2855 40.4568 33.0441 40.5456C32.8026 40.6276 32.5612 40.7028 32.3335 40.7643C32.1748 40.8053 32.0437 40.8258 31.9333 40.8258C31.9747 40.7848 32.023 40.7301 32.0782 40.6618C32.1886 40.532 32.2853 40.3816 32.3749 40.2177C32.4646 40.0537 32.5266 39.8897 32.561 39.7325C32.5955 39.5617 32.568 39.4114 32.4784 39.2952C32.4301 39.2474 32.3887 39.2201 32.3542 39.2132C32.3197 39.2064 32.2851 39.1995 32.2437 39.1995C32.2368 39.1995 32.2163 39.1995 32.2025 39.1995C32.0576 39.1995 31.8988 39.261 31.7333 39.3909C31.6367 39.466 31.5471 39.548 31.4712 39.6369C31.4712 39.6232 31.4712 39.6095 31.4574 39.6027C31.4574 39.5685 31.4298 39.5002 31.3125 39.5002C31.2435 39.5002 31.1953 39.507 31.1608 39.5207C31.009 39.5754 30.8435 39.671 30.6503 39.8008C30.4709 39.9238 30.319 40.0673 30.188 40.2245C29.9189 40.3543 29.6499 40.4841 29.3878 40.6071C29.0705 40.7506 28.7807 40.8599 28.5186 40.9419C28.4427 40.9693 28.3323 40.9966 28.2013 41.0307C28.0771 41.0649 27.9598 41.0786 27.8563 41.0786C27.7666 41.0786 27.7115 41.0581 27.677 41.0239C27.677 41.0239 27.6424 40.9693 27.7804 40.7506C27.8425 40.6481 27.9115 40.5456 27.9805 40.4568C28.0425 40.368 28.146 40.2723 28.2909 40.1698C28.3323 40.1493 28.422 40.0673 28.3323 39.9238C28.284 39.835 28.215 39.8213 28.1736 39.8213C28.1391 39.8213 28.1115 39.8282 28.077 39.8487C27.9321 39.9307 27.8148 39.9922 27.732 40.0468C27.6492 40.1015 27.5804 40.1493 27.5114 40.1971C27.4769 40.2245 27.4354 40.2518 27.394 40.2792C27.3319 40.3133 27.2631 40.3475 27.1872 40.3816C26.9388 40.4978 26.6491 40.614 26.3387 40.7233C26.0213 40.8326 25.6901 40.9351 25.359 41.0307C25.0209 41.1196 24.7106 41.1879 24.4277 41.2153C24.3036 41.2289 24.1794 41.2357 24.0759 41.2357C23.9517 41.2357 23.8345 41.2221 23.7379 41.2016C23.524 41.1537 23.5033 41.0376 23.5033 40.9556C23.5033 40.8599 23.5309 40.7574 23.5792 40.655C23.6137 40.5866 23.6551 40.5115 23.6965 40.4363C23.7654 40.3885 23.7999 40.327 23.7999 40.2655V40.245L24.1517 40.0537C24.4621 39.8555 24.8278 39.6027 25.2417 39.302C25.6556 39.0014 26.0696 38.6939 26.4766 38.3728C26.8698 38.0653 27.2492 37.7647 27.601 37.4845C27.9528 37.1975 28.2082 36.9925 28.3806 36.849C28.7256 36.5416 29.0015 36.2751 29.2015 36.0564C29.4085 35.8241 29.5258 35.6328 29.5534 35.4756C29.5534 35.4756 29.5534 35.4756 29.5534 35.4688C29.5534 35.3868 29.5188 35.257 29.298 35.257H29.1808H29.167C28.8083 35.38 28.3599 35.6123 27.8494 35.9676C27.3389 36.3161 26.8146 36.7192 26.2972 37.1565C25.7798 37.6007 25.2761 38.0653 24.807 38.5436C24.3379 39.0219 23.9586 39.4524 23.6757 39.8213L23.5654 40.0058L23.4204 40.081C23.3583 40.1083 23.317 40.1425 23.3101 40.1903C23.3101 40.2108 23.3101 40.2313 23.3101 40.2518C23.0548 40.3748 22.7928 40.4978 22.5375 40.614C22.2202 40.7574 21.9305 40.8668 21.6683 40.9488C21.5924 40.9761 21.4819 41.0034 21.3508 41.0376C21.2198 41.0718 21.1094 41.0854 21.0059 41.0854C20.9162 41.0854 20.861 41.0649 20.8334 41.0307C20.8334 41.0307 20.799 40.9761 20.937 40.7574C20.9991 40.6549 21.0681 40.5525 21.1371 40.4636C21.1992 40.3748 21.3026 40.2791 21.4475 40.1766C21.4889 40.1561 21.5786 40.0742 21.4889 39.9307C21.4406 39.8418 21.3717 39.8282 21.3303 39.8282C21.2958 39.8282 21.2681 39.835 21.2336 39.8555C21.0887 39.9375 20.9715 39.999 20.8887 40.0537C20.8059 40.1083 20.7369 40.1561 20.6679 40.204C20.5989 40.2518 20.5231 40.2996 20.4403 40.3475C20.3576 40.4021 20.2334 40.4568 20.0816 40.5183C20.0609 40.532 20.0471 40.5456 20.0333 40.5593C19.847 40.6345 19.6745 40.6891 19.5159 40.7164C19.3572 40.7506 19.2055 40.7643 19.0675 40.7643C18.8744 40.7643 18.695 40.7301 18.5432 40.6686C18.5846 40.6344 18.626 40.6003 18.6743 40.5593C18.757 40.491 18.833 40.4226 18.902 40.3475C18.971 40.2723 19.0261 40.204 19.0744 40.1356C19.1227 40.0673 19.1502 40.0263 19.164 39.999C19.2192 39.9238 19.2538 39.8418 19.2745 39.753C19.2883 39.6573 19.2814 39.5754 19.2607 39.5002C19.24 39.425 19.1985 39.3635 19.1502 39.3089C19.1019 39.261 19.0467 39.2405 18.9708 39.2405C18.9502 39.2405 18.9296 39.2405 18.9089 39.2405C18.7778 39.2542 18.6467 39.3225 18.5225 39.4387C18.3983 39.5549 18.2949 39.6915 18.2052 39.8487C18.1155 40.0058 18.0534 40.163 18.012 40.3133C17.9775 40.45 17.9775 40.5661 18.012 40.655C17.8602 40.7506 17.736 40.8258 17.6395 40.8873C17.536 40.9488 17.4531 40.9966 17.391 41.0239C17.329 41.0513 17.2807 41.0649 17.2462 41.0718C17.2324 41.0718 17.2255 41.0718 17.2186 41.0718C17.2186 41.0718 17.2186 41.0718 17.2117 41.0718C17.2117 41.0581 17.2117 41.0239 17.2393 40.9488C17.2738 40.8394 17.3153 40.7164 17.3567 40.5866C17.3981 40.45 17.4533 40.3065 17.5153 40.1425C17.5774 39.9853 17.6257 39.8555 17.6671 39.7462C17.6671 39.7325 17.6671 39.7189 17.6671 39.7052C17.6395 39.63 17.5774 39.589 17.4946 39.589C17.4808 39.589 17.467 39.589 17.4463 39.589C17.3497 39.6027 17.2876 39.6368 17.2531 39.6847C17.1496 39.8008 16.991 39.917 16.7702 40.0332C16.5426 40.1561 16.3494 40.2723 16.1907 40.3816C16.1562 40.4021 16.1218 40.4295 16.1011 40.4841C16.0183 40.532 15.9355 40.573 15.8527 40.614C15.6319 40.7301 15.4112 40.8326 15.1973 40.9146C15.0594 40.9693 14.949 40.9966 14.8662 40.9966C14.8317 40.9966 14.8042 40.9966 14.7835 40.9829C14.7214 40.9556 14.7145 40.8668 14.7628 40.7233C14.818 40.5593 14.9284 40.4158 15.0939 40.3065C15.1836 40.2381 15.1973 40.1425 15.1421 40.04C15.1076 39.9785 15.0525 39.9648 15.0111 39.9648C14.949 39.9648 14.8801 39.999 14.7904 40.0673C14.7283 40.1152 14.6524 40.163 14.5765 40.2245C14.5765 40.204 14.5696 40.1835 14.5558 40.163C14.5075 40.0742 14.4246 39.999 14.2867 39.9238C14.1556 39.8555 13.997 39.8213 13.8314 39.8213C13.5831 39.8213 13.3347 39.8965 13.0863 40.0332C12.8449 40.1766 12.638 40.3338 12.4724 40.5183C12.3069 40.7028 12.2034 40.8941 12.162 41.0991C12.1206 41.3109 12.1897 41.4749 12.369 41.5842C12.4173 41.6184 12.4861 41.632 12.562 41.632C12.6241 41.632 12.7001 41.6184 12.7897 41.5979C12.9622 41.5501 13.1623 41.4817 13.3762 41.3861C13.59 41.2904 13.8038 41.1811 14.0039 41.0581C14.1419 40.9693 14.2661 40.8873 14.3834 40.8121C14.3696 40.8941 14.3696 40.9761 14.3903 41.0581C14.4247 41.2084 14.5282 41.3109 14.7007 41.3519C14.7558 41.3656 14.811 41.3724 14.8731 41.3724C14.9973 41.3724 15.1422 41.3451 15.3009 41.2904C15.5355 41.2084 15.7699 41.1127 16.0044 40.9898C16.239 40.8668 16.4599 40.7438 16.6599 40.6208C16.7841 40.5388 16.8875 40.4773 16.9703 40.4295C16.9703 40.4431 16.9634 40.4568 16.9565 40.4705C16.9151 40.6071 16.8807 40.7369 16.8531 40.8736C16.8255 41.0103 16.8117 41.1333 16.8255 41.2426C16.8324 41.4066 16.9151 41.4544 16.9772 41.4681C16.9979 41.4681 17.0185 41.4749 17.053 41.4749C17.1082 41.4749 17.1703 41.4681 17.2531 41.4476C17.3704 41.4202 17.4877 41.3792 17.6118 41.3246C17.736 41.2699 17.8533 41.2084 17.9775 41.1333C18.0879 41.0649 18.1982 40.9898 18.2879 40.9146C18.4742 41.0581 18.7295 41.1333 19.0537 41.1333C19.1779 41.1333 19.309 41.1264 19.447 41.1059C19.7712 41.0581 20.1367 40.9351 20.5437 40.7233C20.5231 40.7711 20.5025 40.8189 20.4818 40.8668C20.4197 41.0308 20.4403 41.1742 20.5299 41.2904C20.6058 41.3997 20.7508 41.4612 20.9439 41.4612C21.006 41.4612 21.0819 41.4612 21.1578 41.4407C21.4545 41.3929 21.7717 41.3109 22.1028 41.1948C22.434 41.0786 22.7583 40.9419 23.0549 40.7848C23.0963 40.7643 23.1446 40.7438 23.1791 40.7164C23.1584 40.7916 23.1445 40.8736 23.1445 40.9419C23.1445 41.0991 23.1997 41.2289 23.3101 41.3246C23.4136 41.4134 23.5378 41.4749 23.6619 41.5022C23.8068 41.55 23.9862 41.5706 24.1862 41.5706C24.338 41.5706 24.5035 41.5569 24.6829 41.5296C25.1037 41.4681 25.5315 41.3724 25.9661 41.2426C26.4007 41.1128 26.8008 40.9624 27.1665 40.7984C27.2493 40.7643 27.325 40.7233 27.394 40.6891C27.3664 40.7438 27.3458 40.7984 27.3182 40.8599C27.2561 41.0239 27.2769 41.1674 27.3666 41.2836C27.4424 41.3929 27.5872 41.4544 27.7804 41.4544C27.8425 41.4544 27.9184 41.4544 27.9943 41.4339C28.2909 41.3861 28.6082 41.3041 28.9393 41.1879C29.2704 41.0718 29.5947 40.9351 29.8914 40.7779C29.9121 40.7643 29.9328 40.7575 29.9535 40.7506C29.9535 40.7643 29.9535 40.7711 29.9466 40.7848C29.919 40.9829 29.9879 41.1538 30.1673 41.2972C30.2845 41.3929 30.4639 41.4544 30.7192 41.4681C30.733 41.4681 30.7468 41.4681 30.7606 41.4681C30.9952 41.4681 31.2849 41.3656 31.6091 41.1538C31.6919 41.1674 31.7884 41.1811 31.885 41.1811C32.0092 41.1811 32.1472 41.1674 32.299 41.1401C32.5749 41.0922 32.8508 41.0239 33.1268 40.9283C33.3751 40.8463 33.6097 40.7506 33.8305 40.6481H33.8443C33.8719 40.6481 33.9064 40.6413 33.934 40.6276C34.0168 40.5866 34.1064 40.532 34.2168 40.4636L34.5341 40.2655C34.5341 40.2655 34.5341 40.2655 34.541 40.2587C34.5548 40.245 34.5686 40.2381 34.5686 40.2313C34.5686 40.2313 34.5687 40.2313 34.5756 40.2313C34.5549 40.2996 34.5203 40.368 34.4858 40.4431C34.4306 40.5456 34.3341 40.6618 34.1892 40.7711C34.1892 40.7711 34.1823 40.7779 34.1754 40.7848C34.1409 40.8463 34.0996 40.8941 34.0651 40.9351L34.0029 40.9966L33.9408 41.0581C33.8097 41.1879 33.8581 41.2972 33.8995 41.3451C33.9409 41.3997 33.9891 41.4066 34.0236 41.4066C34.0719 41.4066 34.1202 41.3861 34.1685 41.3382C34.2168 41.3314 34.2719 41.2904 34.3271 41.2221C34.3754 41.1606 34.4375 41.0854 34.4996 41.0103C34.6031 40.9351 34.7411 40.8326 34.9136 40.7164C35.086 40.6003 35.2654 40.491 35.4448 40.3953C35.6241 40.2996 35.8173 40.2177 36.0036 40.1493C36.1554 40.0947 36.3001 40.0673 36.4174 40.0673C36.4243 40.0673 36.4312 40.0673 36.4381 40.0673C36.4381 40.2723 36.4795 40.5183 36.5485 40.7984C36.6243 41.1059 36.7624 41.3997 36.9693 41.6662C37.1763 41.9327 37.4591 42.1513 37.8248 42.3153C38.0731 42.4247 38.3698 42.4793 38.7078 42.4793C38.8734 42.4793 39.0597 42.4657 39.2528 42.4383C39.4253 42.411 39.6391 42.3632 39.8874 42.288L39.8391 42.2743ZM41.8122 40.9556C41.8122 40.9556 41.8122 40.9556 41.8053 40.9556H41.8122ZM28.146 39.8213C28.146 39.8213 28.1944 39.8282 28.2151 39.8487C28.1944 39.8282 28.1667 39.8213 28.1391 39.8282C28.1391 39.8282 28.146 39.8282 28.1529 39.8282L28.146 39.8213ZM25.0831 38.6734C25.4418 38.3113 25.8419 37.9286 26.2765 37.5528C26.7111 37.177 27.1733 36.8081 27.6493 36.4596C28.1046 36.1248 28.5599 35.8583 29.0014 35.6533L28.9118 35.7421C28.8015 35.8651 28.6842 35.9881 28.56 36.1043C28.4358 36.2273 28.2701 36.3707 28.077 36.5279C27.9321 36.6441 27.7045 36.8285 27.4009 37.0814C27.0974 37.3273 26.7594 37.5938 26.3937 37.8672C26.0281 38.1405 25.6626 38.4138 25.3039 38.6871C25.0072 38.9126 24.7519 39.0971 24.5381 39.2405C24.6967 39.0697 24.8761 38.8852 25.0762 38.6734H25.0831ZM21.2889 39.8213C21.2889 39.8213 21.337 39.8282 21.3646 39.8487C21.337 39.8282 21.3095 39.8213 21.2819 39.8213C21.2819 39.8213 21.2889 39.8213 21.2958 39.8213H21.2889ZM17.4256 39.6027C17.4256 39.6027 17.4256 39.6027 17.4325 39.6027C17.4187 39.6027 17.4048 39.6027 17.3841 39.6027C17.3979 39.6027 17.4118 39.6027 17.4187 39.6027H17.4256ZM14.9422 39.9922C14.9422 39.9922 14.9422 39.9922 14.9491 39.9922C14.9491 39.9922 14.9422 39.9922 14.9353 39.9922H14.9422ZM12.4931 41.5432C12.4931 41.5432 12.5277 41.5432 12.5484 41.5432C12.5277 41.5432 12.5138 41.5432 12.4931 41.5432ZM14.1971 40.409C13.9901 40.5525 13.7763 40.6891 13.5625 40.8121C13.3486 40.9351 13.1346 41.0376 12.9415 41.1264C12.7966 41.1879 12.6724 41.2221 12.5758 41.2221C12.5482 41.2221 12.5276 41.2221 12.507 41.2221C12.4794 41.2016 12.4449 41.1606 12.507 41.0307C12.5621 40.9146 12.6587 40.7848 12.7966 40.6481C12.9346 40.5115 13.0932 40.3953 13.2726 40.2928C13.452 40.1903 13.6175 40.1425 13.7624 40.1425C13.9417 40.1425 14.0246 40.1766 14.0591 40.1971C14.1212 40.245 14.1833 40.286 14.2523 40.327C14.2661 40.3338 14.2798 40.3406 14.2936 40.3475C14.2591 40.368 14.2316 40.3953 14.1971 40.4158V40.409ZM14.335 40.2928C14.335 40.2928 14.3281 40.2928 14.3212 40.2928H14.335ZM14.7972 41.2836C14.7972 41.2836 14.7766 41.2836 14.7697 41.2836C14.7835 41.2836 14.7972 41.2836 14.8041 41.2836C14.8317 41.2836 14.8593 41.2836 14.8869 41.2836C14.8524 41.2836 14.8248 41.2836 14.7972 41.2836ZM16.9703 41.3929C16.9703 41.3929 16.9841 41.3929 16.991 41.3929C16.991 41.3929 16.9841 41.3929 16.9772 41.3929H16.9703ZM18.9158 39.2474C18.9158 39.2474 18.8812 39.2474 18.8605 39.2474C18.8812 39.2474 18.8951 39.2474 18.9089 39.2474H18.9158ZM18.5294 39.8418C18.6536 39.6642 18.764 39.5754 18.8605 39.5754C18.8812 39.5754 18.8882 39.5754 18.8882 39.5754C18.8882 39.589 18.8812 39.63 18.7915 39.7325C18.6811 39.8692 18.5225 40.04 18.3155 40.2518C18.3638 40.1015 18.4328 39.9648 18.5225 39.835L18.5294 39.8418ZM18.9708 41.0444C18.9295 41.0444 18.8812 41.0444 18.8398 41.0444C18.8881 41.0444 18.9295 41.0444 18.9778 41.0444C18.9778 41.0444 18.9708 41.0444 18.9639 41.0444H18.9708ZM20.868 41.3724C20.868 41.3724 20.868 41.3724 20.8611 41.3724C20.8611 41.3724 20.868 41.3724 20.8749 41.3724H20.868ZM24.1241 41.4886C24.1241 41.4886 24.1035 41.4886 24.0897 41.4886H24.1379C24.1379 41.4886 24.1241 41.4886 24.1172 41.4886H24.1241ZM27.7253 41.3724C27.7253 41.3724 27.7253 41.3724 27.7184 41.3724C27.7184 41.3724 27.7251 41.3724 27.732 41.3724H27.7253ZM30.6434 41.0512C30.3812 41.0512 30.3466 40.9419 30.3328 40.9078C30.2845 40.7711 30.333 40.614 30.4778 40.4295C30.6365 40.327 30.7951 40.2108 30.9607 40.0878C31.0642 40.0127 31.1538 39.9375 31.2297 39.876C31.1262 40.0537 31.071 40.2381 31.0503 40.4226C31.0296 40.614 31.0848 40.7711 31.202 40.9078C30.9951 41.0034 30.8089 41.0444 30.6365 41.0444L30.6434 41.0512ZM30.7054 41.3861C30.7054 41.3861 30.6846 41.3861 30.6708 41.3861C30.6708 41.3861 30.6847 41.3861 30.6916 41.3861C30.7054 41.3861 30.7192 41.3861 30.733 41.3861C30.7261 41.3861 30.7123 41.3861 30.7054 41.3861ZM32.1818 39.2064C32.1818 39.2064 32.2092 39.2064 32.223 39.2064C32.2092 39.2064 32.1956 39.2064 32.1818 39.2064ZM31.4988 40.6823C31.4367 40.6276 31.416 40.5456 31.4367 40.4363C31.4643 40.2928 31.5194 40.1493 31.6022 40.0127C31.685 39.876 31.7884 39.7462 31.8988 39.6369C31.9954 39.548 32.0783 39.5002 32.1541 39.5002C32.1541 39.5002 32.168 39.5002 32.1749 39.5002C32.1887 39.507 32.1956 39.5549 32.1818 39.6164C32.1611 39.712 32.1195 39.835 32.0506 39.9648C31.9816 40.1015 31.892 40.2381 31.7885 40.3748C31.6919 40.4978 31.6023 40.6003 31.5057 40.6823H31.4988ZM31.8299 41.0923C31.8299 41.0923 31.7747 41.0923 31.754 41.0923C31.7816 41.0923 31.8161 41.0923 31.8437 41.0923C31.8437 41.0923 31.8368 41.0923 31.8299 41.0923ZM34.7342 39.5754C34.7342 39.5754 34.7411 39.5754 34.748 39.5754C34.748 39.5754 34.7549 39.5754 34.7618 39.5754C34.7549 39.5754 34.748 39.5754 34.7342 39.5754ZM36.3485 39.6847C36.3485 39.6847 36.3829 39.6847 36.3967 39.6847C36.4105 39.6847 36.4174 39.6847 36.4312 39.6847C36.4036 39.6847 36.3829 39.6847 36.3553 39.6847H36.3485ZM38.6595 42.411C38.6595 42.411 38.6457 42.411 38.6388 42.411C38.6594 42.411 38.6802 42.411 38.7078 42.411C38.694 42.411 38.6802 42.411 38.6664 42.411H38.6595Z" fill="white"/>
<path d="M20.3026 35.0456C20.275 34.9773 20.268 34.8543 20.268 34.6767V33.5834H20.8336V33.2486H20.268V32.7498L19.4539 33.5766H19.7921V34.6835C19.7921 35.032 19.8057 35.2506 19.8333 35.3395C19.9023 35.5444 20.0748 35.6538 20.3507 35.6538C20.4887 35.6538 20.6406 35.6264 20.8061 35.5786L20.9855 35.1208C20.8544 35.1891 20.7233 35.2233 20.5853 35.2233C20.4405 35.2233 20.3439 35.1618 20.2957 35.0388L20.3026 35.0456Z" fill="white"/>
<path d="M22.8827 34.526C22.8827 34.3962 22.8827 34.3005 22.8827 34.2322C22.8827 33.9179 22.855 33.6924 22.8067 33.5626C22.7239 33.3234 22.5515 33.2073 22.2962 33.2073C22.1996 33.2073 22.0754 33.2414 21.9237 33.3098L21.5511 33.7539V32.9408C21.5511 32.7358 21.5788 32.5035 21.6409 32.2438L20.9786 32.3805C21.0407 32.5923 21.0682 32.8041 21.0682 33.0296V34.8198C21.0682 35.1683 21.0407 35.4348 20.9786 35.6124H21.6409C21.5788 35.4279 21.5511 35.1478 21.5511 34.772V33.8769C21.7443 33.7266 21.9167 33.6582 22.0547 33.6582C22.2134 33.6582 22.317 33.7129 22.3653 33.8291C22.3929 33.8974 22.4065 34.0204 22.4065 34.2117V34.977C22.4065 35.1956 22.3721 35.4075 22.3169 35.6193H22.9792C22.9102 35.4143 22.8757 35.1546 22.8757 34.8335C22.8757 34.772 22.8757 34.6695 22.8757 34.5328L22.8827 34.526Z" fill="white"/>
<path d="M24.8831 34.253C24.8831 33.9592 24.8279 33.72 24.6968 33.5287C24.545 33.3101 24.3312 33.2007 24.0484 33.2007C23.731 33.2007 23.4757 33.3306 23.2964 33.5971C23.1377 33.8294 23.0619 34.1095 23.0619 34.4443C23.0619 34.8065 23.1584 35.0934 23.3585 35.3121C23.5655 35.5444 23.8414 35.6537 24.2001 35.6537C24.3174 35.6537 24.4691 35.6332 24.6554 35.5854L24.8347 35.1481C24.6347 35.2369 24.4553 35.2779 24.2897 35.2779C23.8689 35.2779 23.6207 35.0114 23.5517 34.4853H24.8831V34.2462V34.253ZM24.4829 34.1573H23.5517C23.5517 33.9933 23.5861 33.8499 23.6551 33.7337C23.7379 33.597 23.8621 33.5287 24.0207 33.5287C24.1656 33.5287 24.2829 33.5902 24.3657 33.7064C24.4484 33.8089 24.4829 33.9387 24.4829 34.0822V34.1505V34.1573Z" fill="white"/>
</svg>
