<svg width="85" height="50" viewBox="0 0 85 50" fill="none" xmlns="http://www.w3.org/2000/svg">
<g clip-path="url(#clip0_0_373)">
<path d="M26.6553 25.8896H27.212L28.0753 28.0714L28.9329 25.8896H29.4782L28.2883 28.7499H27.8453L26.6553 25.8896Z" fill="white"/>
<path d="M31.2247 25.8896H31.7269V28.7274H31.2247V25.8896Z" fill="white"/>
<path d="M33.721 25.8896H34.1867L35.7203 27.8519V25.8896H36.2144V28.7274H35.7941L34.2151 26.7088V28.7274H33.721V25.8896Z" fill="white"/>
<path d="M38.1827 25.8896H38.6853V27.0692H40.0513V25.8896H40.554V28.7274H40.0513V27.5309H38.6853V28.7274H38.1827V25.8896Z" fill="white"/>
<path d="M42.3913 27.3166V27.3082C42.3913 26.5143 43.0132 25.8414 43.8936 25.8414C44.774 25.8414 45.3874 26.503 45.3874 27.3026V27.311C45.3874 28.1049 44.7655 28.7778 43.8851 28.7778C43.0047 28.7778 42.3913 28.1162 42.3913 27.3166ZM44.8592 27.3166V27.3082C44.8592 26.7564 44.4587 26.2975 43.8851 26.2975C43.3114 26.2975 42.9195 26.748 42.9195 27.2997V27.3082C42.9195 27.86 43.3199 28.3189 43.8936 28.3189C44.4673 28.3189 44.8592 27.8684 44.8592 27.3166Z" fill="white"/>
<path d="M47.2221 25.8896H47.7589L48.6307 27.2325L49.5026 25.8896H50.0393V28.7274H49.5367V26.692L48.6336 28.0292H48.6165L47.7219 26.7004V28.7274H47.2278V25.8896H47.2221Z" fill="white"/>
<path d="M52.0018 25.8895H54.1261V26.3343H52.5073V27.0719H53.9443V27.5167H52.5073V28.2796H54.1488V28.7245H52.0047V25.8866L52.0018 25.8895Z" fill="white"/>
<path d="M55.7788 28.3165L56.0827 27.9589C56.361 28.1982 56.6279 28.3277 56.9858 28.3277C57.2953 28.3277 57.4941 28.187 57.4941 27.9702V27.9617C57.4941 27.7619 57.3805 27.6464 56.8466 27.5282C56.236 27.3874 55.8924 27.1988 55.8924 26.6808V26.6723C55.8924 26.1853 56.3013 25.8503 56.8693 25.8503C57.2896 25.8503 57.6134 25.977 57.9087 26.2078L57.639 26.5851C57.3777 26.3936 57.1249 26.2923 56.8608 26.2923C56.5655 26.2923 56.3951 26.4387 56.3951 26.6301V26.6386C56.3951 26.861 56.5257 26.9539 57.0738 27.0834C57.6787 27.2382 57.9939 27.4409 57.9939 27.9139V27.9223C57.9939 28.4572 57.5736 28.7697 56.9716 28.7697C56.5285 28.7697 56.1196 28.6233 55.776 28.3165H55.7788Z" fill="white"/>
<path d="M26.6553 25.8896H27.212L28.0753 28.0714L28.9329 25.8896H29.4782L28.2883 28.7499H27.8453L26.6553 25.8896Z" fill="white"/>
<path d="M31.2247 25.8896H31.7269V28.7274H31.2247V25.8896Z" fill="white"/>
<path d="M33.721 25.8896H34.1867L35.7203 27.8519V25.8896H36.2144V28.7274H35.7941L34.2151 26.7088V28.7274H33.721V25.8896Z" fill="white"/>
<path d="M38.1827 25.8896H38.6853V27.0692H40.0513V25.8896H40.554V28.7274H40.0513V27.5309H38.6853V28.7274H38.1827V25.8896Z" fill="white"/>
<path d="M42.3913 27.3166V27.3082C42.3913 26.5143 43.0132 25.8414 43.8936 25.8414C44.774 25.8414 45.3874 26.503 45.3874 27.3026V27.311C45.3874 28.1049 44.7655 28.7778 43.8851 28.7778C43.0047 28.7778 42.3913 28.1162 42.3913 27.3166ZM44.8592 27.3166V27.3082C44.8592 26.7564 44.4587 26.2975 43.8851 26.2975C43.3114 26.2975 42.9195 26.748 42.9195 27.2997V27.3082C42.9195 27.86 43.3199 28.3189 43.8936 28.3189C44.4673 28.3189 44.8592 27.8684 44.8592 27.3166Z" fill="white"/>
<path d="M47.2221 25.8896H47.7589L48.6307 27.2325L49.5026 25.8896H50.0393V28.7274H49.5367V26.692L48.6336 28.0292H48.6165L47.7219 26.7004V28.7274H47.2278V25.8896H47.2221Z" fill="white"/>
<path d="M52.0018 25.8895H54.1261V26.3343H52.5073V27.0719H53.9443V27.5167H52.5073V28.2796H54.1488V28.7245H52.0047V25.8866L52.0018 25.8895Z" fill="white"/>
<path d="M55.7788 28.3165L56.0827 27.9589C56.361 28.1982 56.6279 28.3277 56.9858 28.3277C57.2953 28.3277 57.4941 28.187 57.4941 27.9702V27.9617C57.4941 27.7619 57.3805 27.6464 56.8466 27.5282C56.236 27.3874 55.8924 27.1988 55.8924 26.6808V26.6723C55.8924 26.1853 56.3013 25.8503 56.8693 25.8503C57.2896 25.8503 57.6134 25.977 57.9087 26.2078L57.639 26.5851C57.3777 26.3936 57.1249 26.2923 56.8608 26.2923C56.5655 26.2923 56.3951 26.4387 56.3951 26.6301V26.6386C56.3951 26.861 56.5257 26.9539 57.0738 27.0834C57.6787 27.2382 57.9939 27.4409 57.9939 27.9139V27.9223C57.9939 28.4572 57.5736 28.7697 56.9716 28.7697C56.5285 28.7697 56.1196 28.6233 55.776 28.3165H55.7788Z" fill="white"/>
<path d="M0.0255593 34.4682H0V32.5453H7.73596V34.4682H7.7246C7.7246 34.3077 7.59964 32.8128 6.30463 32.8128H4.72279V40.8251C4.72279 41.9765 5.39018 42.0863 5.45266 42.0863V42.0976H2.28898V42.0863C2.35146 42.0863 3.01884 41.9765 3.01884 40.8251V32.8128H1.437C0.136316 32.8128 0.0255593 34.3077 0.0255593 34.4682Z" fill="white"/>
<path d="M14.8672 37.0639V33.8178C14.8672 32.6664 14.1998 32.5566 14.1373 32.5566V32.5453H17.301V32.5566C17.2385 32.5566 16.5712 32.6664 16.5712 33.8178V40.8251C16.5712 41.9765 17.2385 42.0863 17.301 42.0863V42.0976H14.1373V42.0863C14.1998 42.0863 14.8672 41.9765 14.8672 40.8251V37.3341H10.5306V40.8251C10.5306 41.9765 11.198 42.0863 11.2605 42.0863V42.0976H8.08546V42.0863C8.1593 42.0863 8.82668 41.9765 8.82668 40.8251V33.8178C8.82668 32.6664 8.1593 32.5566 8.08546 32.5566V32.5453H11.2605V32.5566C11.198 32.5566 10.5306 32.6664 10.5306 33.8178V37.0639H14.8672Z" fill="white"/>
<path d="M24.6419 34.4316H24.6164C24.6164 34.2852 24.5056 32.8156 23.2333 32.8156H20.8591V37.0667H23.0232C24.0739 37.0667 24.1733 36.0729 24.1733 35.9631H24.1847V38.4377H24.1733C24.1733 38.3279 24.0739 37.3341 23.0232 37.3341H20.8591V41.8302H23.4293C24.6902 41.8302 24.8123 40.3352 24.8123 40.1748H24.8379V42.0976H18.4111V42.0863C18.485 42.0863 19.1523 41.9765 19.1523 40.8251V33.8178C19.1523 32.6664 18.485 32.5566 18.4111 32.5566V32.5453H24.6391V34.4316H24.6419Z" fill="white"/>
<path d="M28.7287 37.4435C28.7287 34.662 30.373 32.3703 33.957 32.3703C35.3912 32.3703 36.4164 32.8236 36.9219 32.8236V34.9435H36.8963C36.7856 34.2932 36.5754 33.7555 36.1807 33.3641C35.6752 32.8996 34.9084 32.6547 33.9428 32.6547C31.5317 32.6547 30.4696 34.6761 30.4696 37.4463C30.4696 39.921 31.4209 41.993 33.7326 41.993C34.153 41.993 34.7579 41.8945 35.1526 41.7593V38.0601C35.1526 36.9086 34.4852 36.8101 34.4114 36.8101V36.7847H37.6489V36.8101C37.5864 36.8101 36.919 36.9086 36.919 38.0601V41.6496C36.5981 41.6496 35.0021 42.2745 33.6304 42.2745C29.9981 42.2745 28.723 39.9463 28.723 37.4463L28.7287 37.4435Z" fill="white"/>
<path d="M37.3309 42.0749C37.4417 42.0749 38.1971 41.8779 38.6771 40.6673L41.2614 34.1865C41.818 32.7901 40.8894 32.5677 40.8411 32.5677V32.5424H43.1272L45.8592 40.5434C46.3164 41.8779 46.9725 42.0749 47.069 42.0749V42.1003H43.9309V42.0749C43.9565 42.0749 44.55 41.9145 44.1524 40.7405L43.6214 39.1724H39.5801L38.961 40.7152C38.5038 41.892 39.1456 42.0749 39.1712 42.0749V42.1003H37.3309V42.0749ZM43.522 38.9021L41.7555 33.7079L39.6795 38.9021H43.522Z" fill="white"/>
<path d="M53.6435 40.1767H53.669V42.0996H47.2678V42.0883C47.3417 42.0883 48.009 41.9785 48.009 40.8271V33.8198C48.009 32.6683 47.3417 32.5585 47.2678 32.5585V32.5473H50.4429V32.5585C50.3804 32.5585 49.713 32.6683 49.713 33.8198V41.8321H52.2462C53.5185 41.8321 53.6435 40.3372 53.6435 40.1767Z" fill="white"/>
<path d="M60.5754 40.1767H60.6009V42.0996H54.1998V42.0883C54.2736 42.0883 54.941 41.9785 54.941 40.8271V33.8198C54.941 32.6683 54.2736 32.5585 54.1998 32.5585V32.5473H57.3748V32.5585C57.3123 32.5585 56.6449 32.6683 56.6449 33.8198V41.8321H59.1781C60.4504 41.8321 60.5754 40.3372 60.5754 40.1767Z" fill="white"/>
<path d="M67.3571 34.4316H67.3315C67.3315 34.2852 67.2208 32.8156 65.9485 32.8156H63.5743V37.0667H65.7383C66.7891 37.0667 66.8885 36.0729 66.8885 35.9631H66.8999V38.4377H66.8885C66.8885 38.3279 66.7891 37.3341 65.7383 37.3341H63.5743V41.8302H66.1444C67.4054 41.8302 67.5275 40.3352 67.5275 40.1748H67.553V42.0976H61.1263V42.0863C61.2001 42.0863 61.8675 41.9765 61.8675 40.8251V33.8178C61.8675 32.6664 61.2001 32.5566 61.1263 32.5566V32.5453H67.3542V34.4316H67.3571Z" fill="white"/>
<path d="M68.7547 42.0883C68.8285 42.0883 69.4959 41.9785 69.4959 40.8271V33.8198C69.4959 32.6683 68.8285 32.5585 68.7547 32.5585V32.5473H72.1171C73.2531 32.5473 74.267 32.719 74.8605 33.2567C75.3802 33.6255 75.6528 34.1745 75.6528 34.9487C75.6528 36.407 74.5652 37.5332 73.0316 37.8766C74.0199 37.8766 74.4771 38.0962 74.8491 38.9296L75.6017 40.6215C76.1583 41.8603 76.8627 42.0799 76.9734 42.0799V42.1052H75.3547C74.3408 42.1052 74.1562 41.6632 73.6734 40.5849L73.0685 39.2252C72.6113 38.2201 72.2023 38.0258 71.5605 38.0258H71.2027V40.8327C71.2027 41.9841 71.8701 42.0939 71.9325 42.0939V42.1052H68.7575V42.0939L68.7547 42.0883ZM71.6202 37.7499C73.202 37.7499 73.9318 36.5506 73.9318 35.1514C73.9318 34.5152 73.7955 33.9746 73.5115 33.5833C73.202 33.0934 72.7078 32.8119 71.8814 32.8119H71.2027V37.7499H71.623H71.6202Z" fill="white"/>
<path d="M78.7879 42.089C78.8618 42.089 79.5178 41.9792 79.5178 40.8278L79.5292 38.2293L77.1919 33.843C76.6353 32.776 75.9821 32.5677 75.8827 32.5677V32.5424H78.9839V32.5536C78.9839 32.5536 78.4528 32.7366 78.9214 33.6206L81.0343 37.638L83.0478 33.7417C83.5533 32.762 82.974 32.5536 82.9484 32.5536V32.5424H84.7518V32.5677C84.6155 32.5677 83.826 32.8014 83.2324 33.9641L81.2189 37.8492V40.8278C81.2189 41.9792 81.8863 42.089 81.9488 42.089V42.1003H78.7851V42.089H78.7879Z" fill="white"/>
<path d="M0.0255593 34.4682H0V32.5453H7.73596V34.4682H7.7246C7.7246 34.3077 7.59964 32.8128 6.30463 32.8128H4.72279V40.8251C4.72279 41.9765 5.39018 42.0863 5.45266 42.0863V42.0976H2.28898V42.0863C2.35146 42.0863 3.01884 41.9765 3.01884 40.8251V32.8128H1.437C0.136316 32.8128 0.0255593 34.3077 0.0255593 34.4682Z" fill="white"/>
<path d="M14.8672 37.0639V33.8178C14.8672 32.6664 14.1998 32.5566 14.1373 32.5566V32.5453H17.301V32.5566C17.2385 32.5566 16.5712 32.6664 16.5712 33.8178V40.8251C16.5712 41.9765 17.2385 42.0863 17.301 42.0863V42.0976H14.1373V42.0863C14.1998 42.0863 14.8672 41.9765 14.8672 40.8251V37.3341H10.5306V40.8251C10.5306 41.9765 11.198 42.0863 11.2605 42.0863V42.0976H8.08546V42.0863C8.1593 42.0863 8.82668 41.9765 8.82668 40.8251V33.8178C8.82668 32.6664 8.1593 32.5566 8.08546 32.5566V32.5453H11.2605V32.5566C11.198 32.5566 10.5306 32.6664 10.5306 33.8178V37.0639H14.8672Z" fill="white"/>
<path d="M24.6419 34.4316H24.6164C24.6164 34.2852 24.5056 32.8156 23.2333 32.8156H20.8591V37.0667H23.0232C24.0739 37.0667 24.1733 36.0729 24.1733 35.9631H24.1847V38.4377H24.1733C24.1733 38.3279 24.0739 37.3341 23.0232 37.3341H20.8591V41.8302H23.4293C24.6902 41.8302 24.8123 40.3352 24.8123 40.1748H24.8379V42.0976H18.4111V42.0863C18.485 42.0863 19.1523 41.9765 19.1523 40.8251V33.8178C19.1523 32.6664 18.485 32.5566 18.4111 32.5566V32.5453H24.6391V34.4316H24.6419Z" fill="white"/>
<path d="M28.7287 37.4435C28.7287 34.662 30.373 32.3703 33.957 32.3703C35.3912 32.3703 36.4164 32.8236 36.9219 32.8236V34.9435H36.8963C36.7856 34.2932 36.5754 33.7555 36.1807 33.3641C35.6752 32.8996 34.9084 32.6547 33.9428 32.6547C31.5317 32.6547 30.4696 34.6761 30.4696 37.4463C30.4696 39.921 31.4209 41.993 33.7326 41.993C34.153 41.993 34.7579 41.8945 35.1526 41.7593V38.0601C35.1526 36.9086 34.4852 36.8101 34.4114 36.8101V36.7847H37.6489V36.8101C37.5864 36.8101 36.919 36.9086 36.919 38.0601V41.6496C36.5981 41.6496 35.0021 42.2745 33.6304 42.2745C29.9981 42.2745 28.723 39.9463 28.723 37.4463L28.7287 37.4435Z" fill="white"/>
<path d="M37.3309 42.0749C37.4417 42.0749 38.1971 41.8779 38.6771 40.6673L41.2614 34.1865C41.818 32.7901 40.8894 32.5677 40.8411 32.5677V32.5424H43.1272L45.8592 40.5434C46.3164 41.8779 46.9725 42.0749 47.069 42.0749V42.1003H43.9309V42.0749C43.9565 42.0749 44.55 41.9145 44.1524 40.7405L43.6214 39.1724H39.5801L38.961 40.7152C38.5038 41.892 39.1456 42.0749 39.1712 42.0749V42.1003H37.3309V42.0749ZM43.522 38.9021L41.7555 33.7079L39.6795 38.9021H43.522Z" fill="white"/>
<path d="M53.6435 40.1767H53.669V42.0996H47.2678V42.0883C47.3417 42.0883 48.009 41.9785 48.009 40.8271V33.8198C48.009 32.6683 47.3417 32.5585 47.2678 32.5585V32.5473H50.4429V32.5585C50.3804 32.5585 49.713 32.6683 49.713 33.8198V41.8321H52.2462C53.5185 41.8321 53.6435 40.3372 53.6435 40.1767Z" fill="white"/>
<path d="M60.5754 40.1767H60.6009V42.0996H54.1998V42.0883C54.2736 42.0883 54.941 41.9785 54.941 40.8271V33.8198C54.941 32.6683 54.2736 32.5585 54.1998 32.5585V32.5473H57.3748V32.5585C57.3123 32.5585 56.6449 32.6683 56.6449 33.8198V41.8321H59.1781C60.4504 41.8321 60.5754 40.3372 60.5754 40.1767Z" fill="white"/>
<path d="M67.3571 34.4316H67.3315C67.3315 34.2852 67.2208 32.8156 65.9485 32.8156H63.5743V37.0667H65.7383C66.7891 37.0667 66.8885 36.0729 66.8885 35.9631H66.8999V38.4377H66.8885C66.8885 38.3279 66.7891 37.3341 65.7383 37.3341H63.5743V41.8302H66.1444C67.4054 41.8302 67.5275 40.3352 67.5275 40.1748H67.553V42.0976H61.1263V42.0863C61.2001 42.0863 61.8675 41.9765 61.8675 40.8251V33.8178C61.8675 32.6664 61.2001 32.5566 61.1263 32.5566V32.5453H67.3542V34.4316H67.3571Z" fill="white"/>
<path d="M68.7547 42.0883C68.8285 42.0883 69.4959 41.9785 69.4959 40.8271V33.8198C69.4959 32.6683 68.8285 32.5585 68.7547 32.5585V32.5473H72.1171C73.2531 32.5473 74.267 32.719 74.8605 33.2567C75.3802 33.6255 75.6528 34.1745 75.6528 34.9487C75.6528 36.407 74.5652 37.5332 73.0316 37.8766C74.0199 37.8766 74.4771 38.0962 74.8491 38.9296L75.6017 40.6215C76.1583 41.8603 76.8627 42.0799 76.9734 42.0799V42.1052H75.3547C74.3408 42.1052 74.1562 41.6632 73.6734 40.5849L73.0685 39.2252C72.6113 38.2201 72.2023 38.0258 71.5605 38.0258H71.2027V40.8327C71.2027 41.9841 71.8701 42.0939 71.9325 42.0939V42.1052H68.7575V42.0939L68.7547 42.0883ZM71.6202 37.7499C73.202 37.7499 73.9318 36.5506 73.9318 35.1514C73.9318 34.5152 73.7955 33.9746 73.5115 33.5833C73.202 33.0934 72.7078 32.8119 71.8814 32.8119H71.2027V37.7499H71.623H71.6202Z" fill="white"/>
<path d="M78.7879 42.089C78.8618 42.089 79.5178 41.9792 79.5178 40.8278L79.5292 38.2293L77.1919 33.843C76.6353 32.776 75.9821 32.5677 75.8827 32.5677V32.5424H78.9839V32.5536C78.9839 32.5536 78.4528 32.7366 78.9214 33.6206L81.0343 37.638L83.0478 33.7417C83.5533 32.762 82.974 32.5536 82.9484 32.5536V32.5424H84.7518V32.5677C84.6155 32.5677 83.826 32.8014 83.2324 33.9641L81.2189 37.8492V40.8278C81.2189 41.9792 81.8863 42.089 81.9488 42.089V42.1003H78.7851V42.089H78.7879Z" fill="white"/>
<path d="M25.9456 47.2859H26.9084C27.1583 47.2859 27.3429 47.3506 27.4707 47.4745C27.5644 47.5674 27.6155 47.6885 27.6155 47.8264V47.832C27.6155 48.091 27.4678 48.2234 27.3088 48.305C27.5644 48.3923 27.7348 48.5302 27.7348 48.823V48.8287C27.7348 49.2087 27.4195 49.4114 26.9396 49.4114H25.9456V47.2831V47.2859ZM26.8345 48.184C27.0788 48.184 27.2406 48.091 27.2406 47.894V47.8883C27.2406 47.7166 27.11 47.6181 26.8629 47.6181H26.3205V48.184H26.8345ZM26.9424 49.0848C27.2009 49.0848 27.3571 48.9863 27.3571 48.7921V48.7864C27.3571 48.6034 27.2122 48.4993 26.914 48.4993H26.3148V49.082H26.9396L26.9424 49.0848Z" fill="white"/>
<path d="M29.2283 47.2722H29.5777L30.5233 49.4175H30.1258L29.9071 48.9023H28.8904L28.6689 49.4175H28.2826L29.2283 47.2722ZM29.7708 48.5701L29.3987 47.7171L29.0295 48.5701H29.7679H29.7708Z" fill="white"/>
<path d="M32.5203 48.5135H32.2902V48.1785H32.5203V47.286H33.3211C33.997 47.286 34.4628 47.7449 34.4628 48.3446V48.3502C34.4628 48.9498 33.997 49.4144 33.3211 49.4144H32.5203V48.5107V48.5135ZM33.3211 49.0765C33.7727 49.0765 34.0652 48.7753 34.0652 48.3586V48.353C34.0652 47.9363 33.7698 47.6295 33.3211 47.6295H32.898V48.1813H33.4347V48.5163H32.898V49.0793H33.3211V49.0765Z" fill="white"/>
<path d="M34.9595 46.7648L35.2975 46.6156L35.6155 47.1139H35.3372L34.9595 46.7648ZM35.2463 47.2857H35.624V49.414H35.2463V47.2857Z" fill="white"/>
<path d="M36.5042 47.286H36.8536L38.0037 48.7584V47.286H38.3758V49.4144H38.0605L36.8763 47.8997V49.4144H36.5042V47.286Z" fill="white"/>
<path d="M39.2364 47.286H39.6141V48.17H40.6393V47.286H41.0171V49.4144H40.6393V48.5163H39.6141V49.4144H39.2364V47.286Z" fill="white"/>
<path d="M43.1472 48.3478V48.3422C43.1472 48.1085 43.346 47.9171 43.5789 47.9171C43.8117 47.9171 44.0134 48.1085 44.0134 48.3422V48.3478C44.0134 48.5815 43.8174 48.7729 43.5789 48.7729C43.3403 48.7729 43.1472 48.5815 43.1472 48.3478Z" fill="white"/>
<path d="M46.1433 47.286H46.521V48.17H47.5462V47.286H47.9239V49.4144H47.5462V48.5163H46.521V49.4144H46.1433V47.286Z" fill="white"/>
<path d="M49.5425 47.2719H49.8918L50.8375 49.4172H50.4399L50.2212 48.902H49.2045L48.983 49.4172H48.5968L49.5425 47.2719ZM49.2329 46.7314L49.5709 46.5822L49.889 47.0805H49.6107L49.2329 46.7314ZM50.0849 48.5698L49.7129 47.7168L49.3437 48.5698H50.0821H50.0849Z" fill="white"/>
<path d="M52.7405 47.286H53.0898L54.24 48.7584V47.286H54.612V49.4144H54.2968L53.1126 47.8997V49.4144H52.7405V47.286Z" fill="white"/>
<path d="M55.3788 48.3591V48.3535C55.3788 47.7566 55.8446 47.2527 56.5035 47.2527C57.1623 47.2527 57.6224 47.7482 57.6224 48.3478V48.3535C57.6224 48.9503 57.1566 49.4542 56.4978 49.4542C55.8389 49.4542 55.3788 48.9587 55.3788 48.3591ZM57.2276 48.3591V48.3535C57.2276 47.9396 56.9266 47.5961 56.4978 47.5961C56.0689 47.5961 55.7736 47.934 55.7736 48.3478V48.3535C55.7736 48.7673 56.0746 49.1108 56.5035 49.1108C56.9323 49.1108 57.2276 48.7729 57.2276 48.3591ZM56.3274 46.6333H56.671L57.0288 47.0809H56.7335L56.4949 46.8782L56.2592 47.0809H55.9695L56.3245 46.6333H56.3274ZM56.3331 49.6203H56.6767V50.0004H56.3331V49.6203Z" fill="white"/>
<path d="M58.4089 47.286H58.7866V49.4144H58.4089V47.286Z" fill="white"/>
<path d="M25.9456 47.2859H26.9084C27.1583 47.2859 27.3429 47.3506 27.4707 47.4745C27.5644 47.5674 27.6155 47.6885 27.6155 47.8264V47.832C27.6155 48.091 27.4678 48.2234 27.3088 48.305C27.5644 48.3923 27.7348 48.5302 27.7348 48.823V48.8287C27.7348 49.2087 27.4195 49.4114 26.9396 49.4114H25.9456V47.2831V47.2859ZM26.8345 48.184C27.0788 48.184 27.2406 48.091 27.2406 47.894V47.8883C27.2406 47.7166 27.11 47.6181 26.8629 47.6181H26.3205V48.184H26.8345ZM26.9424 49.0848C27.2009 49.0848 27.3571 48.9863 27.3571 48.7921V48.7864C27.3571 48.6034 27.2122 48.4993 26.914 48.4993H26.3148V49.082H26.9396L26.9424 49.0848Z" fill="white"/>
<path d="M29.2283 47.2722H29.5777L30.5233 49.4175H30.1258L29.9071 48.9023H28.8904L28.6689 49.4175H28.2826L29.2283 47.2722ZM29.7708 48.5701L29.3987 47.7171L29.0295 48.5701H29.7679H29.7708Z" fill="white"/>
<path d="M32.5203 48.5135H32.2902V48.1785H32.5203V47.286H33.3211C33.997 47.286 34.4628 47.7449 34.4628 48.3446V48.3502C34.4628 48.9498 33.997 49.4144 33.3211 49.4144H32.5203V48.5107V48.5135ZM33.3211 49.0765C33.7727 49.0765 34.0652 48.7753 34.0652 48.3586V48.353C34.0652 47.9363 33.7698 47.6295 33.3211 47.6295H32.898V48.1813H33.4347V48.5163H32.898V49.0793H33.3211V49.0765Z" fill="white"/>
<path d="M34.9595 46.7648L35.2975 46.6156L35.6155 47.1139H35.3372L34.9595 46.7648ZM35.2463 47.2857H35.624V49.414H35.2463V47.2857Z" fill="white"/>
<path d="M36.5042 47.286H36.8536L38.0037 48.7584V47.286H38.3758V49.4144H38.0605L36.8763 47.8997V49.4144H36.5042V47.286Z" fill="white"/>
<path d="M39.2364 47.286H39.6141V48.17H40.6393V47.286H41.0171V49.4144H40.6393V48.5163H39.6141V49.4144H39.2364V47.286Z" fill="white"/>
<path d="M43.1472 48.3478V48.3422C43.1472 48.1085 43.346 47.9171 43.5789 47.9171C43.8117 47.9171 44.0134 48.1085 44.0134 48.3422V48.3478C44.0134 48.5815 43.8174 48.7729 43.5789 48.7729C43.3403 48.7729 43.1472 48.5815 43.1472 48.3478Z" fill="white"/>
<path d="M46.1433 47.286H46.521V48.17H47.5462V47.286H47.9239V49.4144H47.5462V48.5163H46.521V49.4144H46.1433V47.286Z" fill="white"/>
<path d="M49.5425 47.2719H49.8918L50.8375 49.4172H50.4399L50.2212 48.902H49.2045L48.983 49.4172H48.5968L49.5425 47.2719ZM49.2329 46.7314L49.5709 46.5822L49.889 47.0805H49.6107L49.2329 46.7314ZM50.0849 48.5698L49.7129 47.7168L49.3437 48.5698H50.0821H50.0849Z" fill="white"/>
<path d="M52.7405 47.286H53.0898L54.24 48.7584V47.286H54.612V49.4144H54.2968L53.1126 47.8997V49.4144H52.7405V47.286Z" fill="white"/>
<path d="M55.3788 48.3591V48.3535C55.3788 47.7566 55.8446 47.2527 56.5035 47.2527C57.1623 47.2527 57.6224 47.7482 57.6224 48.3478V48.3535C57.6224 48.9503 57.1566 49.4542 56.4978 49.4542C55.8389 49.4542 55.3788 48.9587 55.3788 48.3591ZM57.2276 48.3591V48.3535C57.2276 47.9396 56.9266 47.5961 56.4978 47.5961C56.0689 47.5961 55.7736 47.934 55.7736 48.3478V48.3535C55.7736 48.7673 56.0746 49.1108 56.5035 49.1108C56.9323 49.1108 57.2276 48.7729 57.2276 48.3591ZM56.3274 46.6333H56.671L57.0288 47.0809H56.7335L56.4949 46.8782L56.2592 47.0809H55.9695L56.3245 46.6333H56.3274ZM56.3331 49.6203H56.6767V50.0004H56.3331V49.6203Z" fill="white"/>
<path d="M58.4089 47.286H58.7866V49.4144H58.4089V47.286Z" fill="white"/>
<path d="M42.3774 3.89637C37.8989 3.89637 34.2552 7.50839 34.2552 11.9481C34.2552 16.3878 37.8989 19.9998 42.3774 19.9998C46.856 19.9998 50.4996 16.3878 50.4996 11.9481C50.4996 7.50839 46.856 3.89637 42.3774 3.89637ZM42.3774 20.1688C37.8051 20.1688 34.0848 16.4807 34.0848 11.9481C34.0848 7.41548 37.8051 3.72745 42.3774 3.72745C46.9497 3.72745 50.67 7.41548 50.67 11.9481C50.67 16.4807 46.9497 20.1688 42.3774 20.1688ZM42.3774 2.9645C37.382 2.9645 33.3152 6.99319 33.3152 11.9481C33.3152 16.903 37.3791 20.9317 42.3774 20.9317C47.3757 20.9317 51.4396 16.903 51.4396 11.9481C51.4396 6.99319 47.3757 2.9645 42.3774 2.9645ZM42.3774 21.1006C37.2854 21.1006 33.1448 16.9959 33.1448 11.9481C33.1448 6.90028 37.2854 2.79559 42.3774 2.79559C47.4694 2.79559 51.61 6.90028 51.61 11.9481C51.61 16.9959 47.4694 21.1006 42.3774 21.1006ZM42.3774 2.03264C36.8623 2.03264 32.3752 6.4808 32.3752 11.9481C32.3752 17.4154 36.8623 21.8636 42.3774 21.8636C47.8925 21.8636 52.3796 17.4154 52.3796 11.9481C52.3796 6.4808 47.8925 2.03264 42.3774 2.03264ZM42.3774 22.0325C36.7686 22.0325 32.2048 17.5083 32.2048 11.9481C32.2048 6.3879 36.7686 1.86372 42.3774 1.86372C47.9863 1.86372 52.55 6.3879 52.55 11.9481C52.55 17.5083 47.9863 22.0325 42.3774 22.0325ZM42.3774 1.10078C36.3426 1.10078 31.4352 5.9656 31.4352 11.9481C31.4352 17.9306 36.3426 22.7954 42.3774 22.7954C48.4123 22.7954 53.3196 17.9306 53.3196 11.9481C53.3196 5.9656 48.4094 1.10078 42.3774 1.10078ZM42.3774 22.9643C36.2489 22.9643 31.2648 18.0235 31.2648 11.9481C31.2648 5.8727 36.2489 0.931862 42.3774 0.931862C48.506 0.931862 53.49 5.8727 53.49 11.9481C53.49 18.0235 48.506 22.9643 42.3774 22.9643ZM42.3774 0.168918C35.8257 0.168918 30.4952 5.45322 30.4952 11.9481C30.4952 18.443 35.8257 23.7273 42.3774 23.7273C48.9291 23.7273 54.2597 18.443 54.2597 11.9481C54.2597 5.45322 48.9291 0.168918 42.3774 0.168918ZM42.3774 23.8962C35.732 23.8962 30.3248 18.5359 30.3248 11.9481C30.3248 5.36032 35.732 0 42.3774 0C49.0228 0 54.4301 5.36032 54.4301 11.9481C54.4301 18.5359 49.0228 23.8962 42.3774 23.8962Z" fill="white"/>
<path d="M49.7017 11.9484C49.7017 14.8003 48.0432 17.2665 45.6293 18.4546C46.5096 16.9878 46.5125 14.6371 46.5125 11.9822C45.7883 13.8826 44.2093 15.2029 42.3747 15.2029V11.9513H49.6989L49.7017 11.9484ZM42.3775 4.68781C38.3335 4.68781 35.0534 7.93947 35.0534 11.9484C35.0534 14.8003 36.7119 17.2665 39.1258 18.4546C38.2426 16.9822 38.2426 14.6173 38.2426 11.9484C38.2426 7.48621 39.8131 4.68781 42.3804 4.68781H42.3775ZM46.4046 10.0172H49.4376C48.5828 6.94567 45.7485 4.68781 42.3775 4.68781C44.5501 4.68781 46.0098 6.6923 46.4046 10.0172Z" fill="white"/>
<path d="M50.6669 12.0015C50.6555 13.7357 50.1017 15.3433 49.1617 16.6664C49.1759 16.3905 49.1873 16.1118 49.1958 15.8275C49.8518 14.6985 50.2295 13.3923 50.2409 12.0015H50.6669ZM49.0538 7.83205C49.4628 8.48238 49.778 9.19465 49.9796 9.95196C50.1103 9.93226 50.2494 9.90692 50.3999 9.87314C50.1103 8.77517 49.5991 7.7673 48.9146 6.89737C48.9686 7.19861 49.014 7.50829 49.0538 7.82923V7.83205ZM33.1474 11.948C33.1474 14.4114 34.1357 16.6524 35.7374 18.2965C35.7118 18.0685 35.692 17.8348 35.6721 17.5983C34.3629 16.0752 33.5705 14.1017 33.5705 11.948C33.5705 9.43114 34.6497 7.16201 36.3764 5.56574C36.4587 5.29547 36.5468 5.03365 36.6433 4.78309C34.5134 6.461 33.1474 9.04826 33.1474 11.948ZM51.1809 12.0015C51.1667 14.1214 50.3886 16.064 49.1049 17.5701C49.085 17.8094 49.0652 18.0431 49.0396 18.2712C50.6186 16.6383 51.5927 14.4283 51.6069 11.9987H51.1809V12.0015ZM35.6153 16.6974C35.6011 16.4243 35.5897 16.1456 35.5812 15.8641C34.9025 14.7126 34.5134 13.3754 34.5134 11.948C34.5134 10.3039 35.0303 8.77799 35.9106 7.51674C35.9703 7.19579 36.0356 6.8833 36.1066 6.57924C34.8485 8.02067 34.0874 9.89847 34.0874 11.948C34.0874 13.716 34.6525 15.3545 35.6153 16.6974ZM46.7506 1.82703C46.9551 2.05225 47.1454 2.3 47.3271 2.56745C49.8007 3.85404 51.7035 6.07531 52.5611 8.75265C52.6747 8.63722 52.7826 8.51054 52.882 8.36977C51.8597 5.42779 49.6133 3.04887 46.7506 1.82703ZM47.8383 3.44864C47.9547 3.68231 48.0655 3.93005 48.1706 4.18906C49.8887 5.45313 51.1752 7.26336 51.7631 9.36075C51.8909 9.28756 52.0158 9.20873 52.1351 9.11864C51.4365 6.75379 49.8859 4.7493 47.8383 3.45145V3.44864ZM32.2074 11.948C32.2074 15.0899 33.6643 17.8995 35.9447 19.752C35.905 19.5409 35.8709 19.3241 35.8368 19.1045C33.8687 17.3365 32.6334 14.783 32.6334 11.9508C32.6334 8.58655 34.3799 5.61641 37.021 3.88782C37.1403 3.63445 37.2653 3.39515 37.3959 3.16429C34.3004 4.8957 32.2074 8.18396 32.2074 11.9508V11.948ZM43.5898 0.0646566C44.3622 0.205421 45.0665 0.484135 45.697 0.906429C49.1418 1.92557 51.9221 4.49311 53.2143 7.78701C53.2967 7.6012 53.3676 7.39849 53.4216 7.1789C51.7148 3.31069 48.0002 0.503842 43.5898 0.0646566ZM36.879 22.5729C36.7654 22.3674 36.6632 22.1478 36.5695 21.9226C33.0963 19.9294 30.7562 16.2047 30.7562 11.948C30.7562 6.54828 34.5219 2.00439 39.5883 0.762849C40.1592 0.399676 40.7839 0.154746 41.457 0.039319C35.2432 0.506658 30.3302 5.6699 30.3302 11.948C30.3302 16.5707 32.994 20.5881 36.879 22.5729ZM54.4241 12.0015H53.9981C53.9782 16.2244 51.6552 19.9181 48.2132 21.9085C48.1195 22.1337 48.0172 22.3533 47.9036 22.5588C51.7574 20.5769 54.4042 16.5904 54.4241 12.0015ZM53.4841 12.0015H53.0581C53.0411 15.4896 51.3144 18.5837 48.6676 20.5009C48.6136 20.7176 48.554 20.9316 48.4915 21.1371C51.4848 19.1749 53.467 15.8134 53.4841 12.0015ZM52.5441 12.0015H52.1181C52.1039 14.8027 50.8799 17.3252 48.9374 19.082C48.9061 19.3044 48.8692 19.5211 48.8294 19.7323C51.0815 17.8911 52.527 15.1124 52.5412 12.0015H52.5441ZM48.4915 5.10122C48.5682 5.35459 48.6392 5.61641 48.7045 5.8895C49.7382 6.95086 50.505 8.27123 50.8941 9.74082C51.0247 9.69859 51.161 9.64791 51.2945 9.59161C50.8202 7.82923 49.8291 6.27801 48.4887 5.10122H48.4915ZM31.2674 11.948C31.2674 15.7937 33.2667 19.1833 36.2883 21.154C36.223 20.9485 36.1662 20.7374 36.1123 20.5206C33.4371 18.5949 31.6962 15.4699 31.6962 11.948C31.6962 7.67158 34.2663 3.98073 37.9554 2.30844C38.1457 2.05507 38.3444 1.8214 38.5546 1.60744C34.3061 3.15585 31.2702 7.20705 31.2702 11.948H31.2674Z" fill="white"/>
</g>
<defs>
<clipPath id="clip0_0_373">
<rect width="84.2046" height="49.6734" fill="white" transform="scale(1.00657)"/>
</clipPath>
</defs>
</svg>
