<svg width="101" height="23" viewBox="0 0 101 23" fill="none" xmlns="http://www.w3.org/2000/svg">
<g clip-path="url(#clip0_0_766)">
<path d="M33.2055 19.7915C33.1745 19.8975 32.8782 20.0334 32.7544 20.0227C31.5758 19.9435 30.2524 20.1287 29.0926 20.0249C28.8671 20.0045 28.6692 19.9703 28.6018 19.7294L28.6139 2.4616C28.6659 2.30745 28.8262 2.25179 28.9854 2.25714L45.272 2.26035C49.5153 2.70674 51.6546 7.01968 50.2195 10.7449C49.4312 12.7917 47.4644 14.1694 45.2466 14.4531L50.6607 19.6888C50.7933 19.9457 50.5943 20.0078 50.3677 20.026C49.1173 20.1298 46.9038 20.1148 45.6424 20.026C45.4887 20.0152 45.3416 20.0045 45.199 19.9414C43.2211 18.1708 41.367 16.2547 39.4377 14.4274H33.2055V19.7926V19.7915ZM33.2055 10.2161H44.3709C45.2687 10.2161 46.047 9.16491 46.047 8.34172C46.047 7.51852 45.2609 6.46732 44.3709 6.46732H33.2055V10.2151V10.2161Z" fill="white"/>
<path d="M58.8688 2.27267L70.9995 2.25876C73.9569 2.59168 76.0664 4.93709 76.2278 7.77491C76.3406 9.76921 76.3406 12.4593 76.2278 14.4536C76.0675 17.2722 73.9912 19.624 71.0536 19.9698C67.2913 19.9248 63.3443 20.2053 59.5941 20.0233C56.3182 19.8649 53.9146 17.6447 53.7322 14.4525C53.6183 12.4593 53.6194 9.76707 53.7322 7.77384C53.8914 4.97027 55.9523 2.63449 58.8688 2.2716V2.27267ZM59.876 6.48178C59.143 6.56528 58.5018 7.1337 58.3536 7.83272L58.3492 14.3487C58.4885 15.1301 59.1485 15.6943 59.9656 15.7617C63.2183 15.5872 66.7186 15.9876 69.9425 15.7617C70.7894 15.7029 71.4605 15.1601 71.612 14.3476C71.4749 12.2891 71.7933 10.0111 71.6131 7.97938C71.539 7.14012 70.7927 6.51497 69.9425 6.46465L59.8771 6.48071L59.876 6.48178Z" fill="white"/>
<path d="M100.917 2.25777C101.07 2.3038 100.974 2.59711 100.865 2.66991L92.1416 11.1213L92.1881 11.2187L100.989 19.7504C101.052 19.9634 100.836 20.0255 100.655 20.0244C98.9234 19.9088 97.0008 20.17 95.2926 20.0244C95.1566 20.0127 95.035 19.9913 94.9134 19.9302L88.9752 14.2246L88.8746 14.2696L83.2018 19.7675C83.0315 19.926 82.8004 20.0052 82.566 20.0255C80.8612 20.1732 78.933 19.9088 77.2039 20.0255C76.9839 20.0437 76.7749 19.912 76.9109 19.6883L85.7723 11.116L76.9109 2.54359C76.8291 2.46116 76.8788 2.35626 76.9231 2.26741L82.7253 2.25777L82.9475 2.29952L88.9288 8.06082L94.7619 2.41299L94.9753 2.25992H100.917V2.25777Z" fill="white"/>
<path d="M6.7101 0C7.20872 0.0460304 7.68192 0.277253 8.01139 0.640144L11.4321 4.62124L14.9579 0.589832C15.2177 0.296522 15.8103 0.00107047 16.2061 0.00107047H20.5555C20.5622 0.00107047 20.6617 0.0760037 20.6086 0.103836L14.7478 6.85639C14.1983 7.37985 13.4874 7.75452 12.7069 7.80697C11.222 7.9076 9.28393 8.00501 8.19492 6.88208L2.3076 0.102766C2.25453 0.0749332 2.35514 0 2.36067 0H6.7101Z" fill="white"/>
<path d="M20.6339 22.2308H16.0987C15.6719 22.2308 15.1324 21.8272 14.8505 21.5393C13.9704 20.6401 13.149 19.515 12.3043 18.5612C12.197 18.4392 11.537 17.6759 11.4762 17.6652C11.4032 17.6535 11.317 17.768 11.2705 17.8151C10.1329 18.9594 9.14669 20.441 8.01013 21.5907C7.74479 21.8583 7.20968 22.2308 6.81498 22.2308H2.33398L2.38484 22.0488C4.31411 20.0374 5.9902 17.692 7.90289 15.6838C8.39599 15.1657 8.86918 14.7396 9.59003 14.5448C10.3109 14.35 12.6625 14.3468 13.4088 14.5673C14.092 14.7696 14.5232 15.1635 14.9865 15.6592C16.7864 17.586 18.6084 19.7773 20.3155 21.7962C20.4227 21.9236 20.583 22.0799 20.635 22.2319L20.6339 22.2308Z" fill="white"/>
<path d="M0.000244497 19.972V15.4792C0.000244497 15.1837 0.391627 14.641 0.635964 14.4515L4.72226 11.1662C4.72226 11.071 4.29771 10.7412 4.19157 10.6524C3.0517 9.69325 1.67854 8.75552 0.608324 7.75355C0.379465 7.53946 -0.000861103 7.06202 -0.000861103 6.75159V2.2588C0.0909036 2.23632 0.105276 2.2952 0.158345 2.33588C2.09978 3.78744 4.14735 5.52696 6.01802 7.08664C7.06502 7.95908 7.95172 8.56925 8.06338 10.0358C8.16841 11.421 8.20932 13.1809 7.13468 14.2235C4.8483 16.0026 2.68906 17.9445 0.394943 19.714C0.281067 19.8017 0.136233 19.9377 -0.0019667 19.972H0.000244497Z" fill="white"/>
<path d="M22.915 2.25876V6.75154C22.915 7.06412 22.5049 7.60471 22.2539 7.80489L18.1952 11.1148L22.3589 14.5275C22.5734 14.6966 22.915 15.2254 22.915 15.4781V19.9708C22.758 19.9205 22.5966 19.7664 22.4651 19.6615C20.213 17.877 18.0294 16.0079 15.7784 14.2224C14.7093 13.184 14.7524 11.4648 14.8497 10.0861C14.9249 9.01452 15.366 8.399 16.1532 7.70212C18.1101 5.96795 20.3998 4.20488 22.4651 2.56812C22.5966 2.46429 22.758 2.31014 22.915 2.25876Z" fill="white"/>
</g>
<defs>
<clipPath id="clip0_0_766">
<rect width="100.303" height="22.0771" fill="white" transform="scale(1.00695)"/>
</clipPath>
</defs>
</svg>
