<svg width="89" height="19" viewBox="0 0 89 19" fill="none" xmlns="http://www.w3.org/2000/svg">
<g clip-path="url(#clip0_0_536)">
<path d="M49.4465 17.1814H54.1189V18.2525H48.2762V0H49.4465V17.1814Z" fill="white"/>
<path d="M66.0411 18.2529H64.9453V16.2741H64.8971C64.0687 17.6808 62.2672 18.4895 60.6104 18.4895C57.2003 18.4895 55.0569 15.8912 55.0569 12.6778C55.0569 9.46434 57.174 7.00801 60.5578 7.00801C62.2848 7.00801 63.9416 7.76943 64.8927 9.15031H64.941V7.24461H66.0368V18.2486L66.0411 18.2529ZM56.1527 12.6821C56.1527 15.2072 57.8578 17.4958 60.5841 17.4958C63.4595 17.4958 65.0155 15.2072 65.0155 12.5659C65.0155 9.92463 63.2359 8.01463 60.5096 8.01463C57.9279 8.01463 56.1483 10.3032 56.1483 12.6864" fill="white"/>
<path d="M69.0305 8.96496H69.0787C69.7362 7.75185 70.9547 7.01194 72.4143 7.01194C75.3116 7.01194 76.1181 8.77568 76.1181 11.6106V18.2569H75.0223V11.6106C75.0223 9.63174 74.7812 8.01426 72.3179 8.01426C69.4908 8.01426 69.0305 10.5867 69.0305 12.828V18.2569H67.9347V7.25284H69.0305V8.96496Z" fill="white"/>
<path d="M87.9042 16.278H87.856C87.0276 17.6847 85.2261 18.4935 83.5693 18.4935C80.1592 18.4935 78.0158 15.8952 78.0158 12.6817C78.0158 9.46828 80.1329 7.01195 83.5167 7.01195C85.248 7.01195 86.9005 7.77337 87.8516 9.15425H87.8998V0.292532H88.9956V18.2526H87.8998V16.2737L87.9042 16.278ZM87.9787 12.5613C87.9787 10.0103 86.1992 8.00997 83.4728 8.00997C80.8912 8.00997 79.1116 10.2985 79.1116 12.6817C79.1116 15.2069 80.8166 17.4954 83.543 17.4954C86.4183 17.4954 87.9744 15.2069 87.9744 12.5656" fill="white"/>
<path d="M9.9191 8.72831H9.71747C12.1326 8.72831 14.0831 6.814 14.0831 4.45662C14.0831 2.09923 12.1282 0.180624 9.71747 0.180624H0V3.38977C0.521596 3.38977 0.946763 3.80704 0.946763 4.31466V13.9507C0.946763 14.4626 0.521596 14.8799 0 14.8799V18.089H9.9191C12.5621 18.089 14.7055 15.9897 14.7055 13.4044C14.7055 10.819 12.5621 8.724 9.9191 8.724M6.67117 14.8799H6.24162V10.7415H6.67117C7.84148 10.7415 8.78824 11.6664 8.78824 12.8107C8.78824 13.955 7.84148 14.8799 6.67117 14.8799ZM6.67117 7.5281H6.24162V3.38977H6.67117C7.84148 3.38977 8.78824 4.31466 8.78824 5.45894C8.78824 6.60321 7.84148 7.5281 6.67117 7.5281Z" fill="white"/>
<path d="M16.6037 0V3.38982C17.1165 3.38982 17.5373 3.78989 17.5504 4.2889V13.9507C17.5504 14.4627 17.1253 14.8756 16.6037 14.8756V18.1966H22.9636C23.4852 18.1966 23.906 17.7837 23.906 17.2717V14.8756C23.3932 14.8756 22.9768 14.4756 22.9592 13.9766V4.31901C22.9592 3.8071 23.3844 3.39412 23.906 3.39412V0H16.6037Z" fill="white"/>
<path d="M44.3138 3.38982V0H36.7003L35.061 7.53246L33.4217 0H25.8081V3.38982C26.3341 3.38982 26.7549 3.8071 26.7549 4.31471V13.9507C26.7549 14.4627 26.3297 14.8756 25.8081 14.8756V18.1966H31.1293C31.6553 18.1966 32.076 17.7794 32.076 17.2674V14.8756C31.5501 14.8756 31.1293 14.4627 31.1293 13.9507V6.94311L33.5839 18.2009H35.6133L38.0678 6.94311V13.9507C38.0678 14.4627 37.6427 14.8756 37.1211 14.8756V18.1966H43.4021C43.9106 18.1966 44.327 17.7923 44.327 17.2932V14.8756C43.8054 14.8756 43.3802 14.4627 43.3802 13.9507V4.31901C43.3802 3.8071 43.8054 3.39412 44.327 3.39412" fill="white"/>
<path d="M49.4465 17.1814H54.1189V18.2525H48.2762V0H49.4465V17.1814Z" fill="white"/>
<path d="M66.0411 18.2529H64.9453V16.2741H64.8971C64.0687 17.6808 62.2672 18.4895 60.6104 18.4895C57.2003 18.4895 55.0569 15.8912 55.0569 12.6778C55.0569 9.46434 57.174 7.00801 60.5578 7.00801C62.2848 7.00801 63.9416 7.76943 64.8927 9.15031H64.941V7.24461H66.0368V18.2486L66.0411 18.2529ZM56.1527 12.6821C56.1527 15.2072 57.8578 17.4958 60.5841 17.4958C63.4595 17.4958 65.0155 15.2072 65.0155 12.5659C65.0155 9.92463 63.2359 8.01463 60.5096 8.01463C57.9279 8.01463 56.1483 10.3032 56.1483 12.6864" fill="white"/>
<path d="M69.0305 8.96496H69.0787C69.7362 7.75185 70.9547 7.01194 72.4143 7.01194C75.3116 7.01194 76.1181 8.77568 76.1181 11.6106V18.2569H75.0223V11.6106C75.0223 9.63174 74.7812 8.01426 72.3179 8.01426C69.4908 8.01426 69.0305 10.5867 69.0305 12.828V18.2569H67.9347V7.25284H69.0305V8.96496Z" fill="white"/>
<path d="M87.9042 16.278H87.856C87.0276 17.6847 85.2261 18.4935 83.5693 18.4935C80.1592 18.4935 78.0158 15.8952 78.0158 12.6817C78.0158 9.46828 80.1329 7.01195 83.5167 7.01195C85.248 7.01195 86.9005 7.77337 87.8516 9.15425H87.8998V0.292532H88.9956V18.2526H87.8998V16.2737L87.9042 16.278ZM87.9787 12.5613C87.9787 10.0103 86.1992 8.00997 83.4728 8.00997C80.8912 8.00997 79.1116 10.2985 79.1116 12.6817C79.1116 15.2069 80.8166 17.4954 83.543 17.4954C86.4183 17.4954 87.9744 15.2069 87.9744 12.5656" fill="white"/>
<path d="M9.9191 8.72831H9.71747C12.1326 8.72831 14.0831 6.814 14.0831 4.45662C14.0831 2.09923 12.1282 0.180624 9.71747 0.180624H0V3.38977C0.521596 3.38977 0.946763 3.80704 0.946763 4.31466V13.9507C0.946763 14.4626 0.521596 14.8799 0 14.8799V18.089H9.9191C12.5621 18.089 14.7055 15.9897 14.7055 13.4044C14.7055 10.819 12.5621 8.724 9.9191 8.724M6.67117 14.8799H6.24162V10.7415H6.67117C7.84148 10.7415 8.78824 11.6664 8.78824 12.8107C8.78824 13.955 7.84148 14.8799 6.67117 14.8799ZM6.67117 7.5281H6.24162V3.38977H6.67117C7.84148 3.38977 8.78824 4.31466 8.78824 5.45894C8.78824 6.60321 7.84148 7.5281 6.67117 7.5281Z" fill="white"/>
<path d="M16.6037 0V3.38982C17.1165 3.38982 17.5373 3.78989 17.5504 4.2889V13.9507C17.5504 14.4627 17.1253 14.8756 16.6037 14.8756V18.1966H22.9636C23.4852 18.1966 23.906 17.7837 23.906 17.2717V14.8756C23.3932 14.8756 22.9768 14.4756 22.9592 13.9766V4.31901C22.9592 3.8071 23.3844 3.39412 23.906 3.39412V0H16.6037Z" fill="white"/>
<path d="M44.3138 3.38982V0H36.7003L35.061 7.53246L33.4217 0H25.8081V3.38982C26.3341 3.38982 26.7549 3.8071 26.7549 4.31471V13.9507C26.7549 14.4627 26.3297 14.8756 25.8081 14.8756V18.1966H31.1293C31.6553 18.1966 32.076 17.7794 32.076 17.2674V14.8756C31.5501 14.8756 31.1293 14.4627 31.1293 13.9507V6.94311L33.5839 18.2009H35.6133L38.0678 6.94311V13.9507C38.0678 14.4627 37.6427 14.8756 37.1211 14.8756V18.1966H43.4021C43.9106 18.1966 44.327 17.7923 44.327 17.2932V14.8756C43.8054 14.8756 43.3802 14.4627 43.3802 13.9507V4.31901C43.3802 3.8071 43.8054 3.39412 44.327 3.39412" fill="white"/>
</g>
<defs>
<clipPath id="clip0_0_536">
<rect width="88.5387" height="18.3976" fill="white" transform="scale(1.00521)"/>
</clipPath>
</defs>
</svg>
