<svg width="53" height="54" viewBox="0 0 53 54" fill="none" xmlns="http://www.w3.org/2000/svg">
<g clip-path="url(#clip0_0_5269)">
<path d="M3.74993 47.7763H2.22462C2.17395 47.7763 2.13848 47.8111 2.13848 47.8608V47.9154C2.13848 48.0098 2.20435 48.0148 2.21956 48.0148H2.79218C2.79218 48.0148 2.81245 48.1092 2.82765 48.293C2.82765 48.3625 2.83272 48.4817 2.83272 48.6506V49.1275C2.83272 49.1275 2.83272 49.1324 2.83272 49.1424C2.63002 49.2765 2.41719 49.346 2.19929 49.346C1.95098 49.346 1.75335 49.3262 1.60639 49.2864C1.38849 49.2268 1.19086 49.1126 1.01856 48.9437C0.714514 48.6456 0.56249 48.2383 0.56249 47.7267C0.56249 47.2597 0.704379 46.8723 0.988158 46.5742C1.16552 46.3904 1.35302 46.2613 1.55572 46.1918C1.70774 46.1421 1.90537 46.1123 2.13341 46.1123C2.55908 46.1123 2.87833 46.1768 3.08103 46.311C3.1469 46.3557 3.19251 46.4053 3.20771 46.465C3.21785 46.5047 3.22292 46.5395 3.22292 46.5792C3.22292 46.614 3.24319 46.6488 3.30906 46.6488C3.32427 46.6488 3.36987 46.6487 3.38508 46.5842C3.39521 46.5494 3.40535 46.4401 3.42562 46.2563L3.44589 46.1172C3.45602 46.0427 3.46109 45.998 3.46109 45.9881C3.46109 45.9682 3.45602 45.9285 3.39521 45.9086C3.19758 45.8391 2.89353 45.8043 2.48813 45.8043C2.08273 45.8043 1.77362 45.844 1.52531 45.9185C1.06924 46.0576 0.724649 46.2663 0.50168 46.5345C0.187497 46.912 0.0304049 47.3491 0.0304049 47.826C0.0304049 48.3029 0.131754 48.6903 0.324319 48.9635C0.50168 49.2119 0.744919 49.3957 1.05404 49.5149C1.22633 49.5795 1.50504 49.6093 1.91044 49.6093C2.27023 49.6093 2.60975 49.5398 2.929 49.3957C3.17731 49.2815 3.27866 49.2616 3.32427 49.2566C3.36987 49.2467 3.39521 49.2169 3.39521 49.1672C3.38001 48.9785 3.37494 48.7748 3.37494 48.5513C3.37494 48.4271 3.37494 48.3029 3.38001 48.1737C3.38001 48.0893 3.38001 48.0346 3.38508 48.0148H3.76514C3.81074 48.0148 3.84622 47.98 3.84622 47.9353V47.8608C3.84622 47.8111 3.81074 47.7813 3.76007 47.7813L3.74993 47.7763ZM48.6123 42.9481C48.967 43.256 49.5802 43.415 50.4315 43.415C51.1613 43.415 51.7288 43.2262 52.1139 42.8487C52.4788 42.4911 52.6612 42.0241 52.6612 41.4678C52.6612 40.9859 52.5244 40.5885 52.2609 40.2955C52.0835 40.1017 51.8656 39.9329 51.6123 39.7987C51.5312 39.754 51.2829 39.6447 50.8471 39.456C50.6292 39.3666 50.4113 39.2821 50.1984 39.1977C49.9501 39.0884 49.7778 38.989 49.6968 38.8996C49.5194 38.7109 49.4332 38.4923 49.4332 38.239C49.4332 37.8217 49.5295 37.5286 49.712 37.3697C49.8893 37.2157 50.1731 37.1362 50.5481 37.1362C50.9738 37.1362 51.3538 37.2306 51.6832 37.4144C51.8504 37.5088 51.9569 37.6528 52.0025 37.8615C52.0278 38.0154 52.0531 38.1396 52.0734 38.239C52.0987 38.3284 52.1545 38.3433 52.1849 38.3433H52.4231C52.5143 38.3433 52.5143 38.2241 52.5143 38.1794C52.5143 37.7621 52.494 37.4243 52.4585 37.171C52.4484 37.0965 52.4129 37.0369 52.3572 37.0021C52.2558 36.9127 52.0987 36.8282 51.8808 36.7438C51.5515 36.6196 51.1917 36.555 50.8065 36.555C50.2238 36.555 49.7474 36.709 49.3876 37.012C48.9164 37.4045 48.6731 37.8913 48.6731 38.4675C48.6731 39.0735 48.8505 39.5305 49.2001 39.8186C49.4586 40.0372 49.8944 40.2508 50.4974 40.4644C51.0143 40.6482 51.3842 40.8419 51.5869 41.0505C51.7694 41.2343 51.8555 41.4429 51.8555 41.6963C51.8555 41.9844 51.8048 42.2327 51.7136 42.4215C51.5008 42.8388 51.0802 43.0375 50.4366 43.0375C50.2694 43.0375 50.0819 43.0027 49.8741 42.9332C49.6664 42.8636 49.5042 42.7792 49.3978 42.6798C49.1647 42.4712 49.038 42.193 49.0177 41.8602C49.0025 41.6913 48.9924 41.592 48.9873 41.5473C48.9772 41.4727 48.9265 41.433 48.8556 41.433H48.6529C48.5718 41.433 48.5211 41.4827 48.5211 41.5572C48.5211 41.582 48.5312 42.6848 48.5312 42.7096C48.5312 42.8288 48.5566 42.9083 48.6123 42.958V42.9481ZM0.126687 36.9624H0.298981C0.369926 36.9624 0.451006 37.012 0.527018 37.1064C0.699312 37.3597 0.942551 37.8615 1.2618 38.6016C1.44423 39.0338 1.62666 39.4659 1.81416 39.903C2.0726 40.4693 2.54894 41.6019 3.22292 43.261C3.26346 43.3554 3.3192 43.4647 3.41548 43.4647C3.48642 43.4647 3.54217 43.3901 3.62831 43.1964C4.19587 41.8254 4.66715 40.6929 5.03707 39.7987C5.45767 38.7755 5.8428 37.8416 6.18232 37.012C6.20259 36.9822 6.233 36.9673 6.26847 36.9673H6.58772C6.62826 36.9673 6.67894 36.9375 6.67894 36.858V36.6842C6.67894 36.6345 6.64346 36.5848 6.56745 36.5848H4.85971C4.80904 36.5848 4.75836 36.6196 4.75836 36.6941V36.858C4.75836 36.9127 4.79383 36.9673 4.89012 36.9673H5.44754C5.48301 36.9673 5.53875 36.9673 5.53875 37.0965C5.53875 37.2554 5.49821 37.4641 5.4222 37.7075C5.3918 37.7869 5.28031 38.0999 5.09788 38.5817C4.86478 39.2026 4.79383 39.3765 4.77863 39.4113C4.6114 39.8335 4.44925 40.2607 4.28202 40.678C3.96277 41.4876 3.7702 41.9496 3.70939 42.049C3.70939 42.0539 3.69926 42.0639 3.69926 42.0688C3.69419 42.0589 3.68406 42.039 3.67392 42.0192C3.61818 41.9099 3.28373 41.0853 2.67056 39.5653L1.69254 37.2405C1.65707 37.1511 1.64186 37.0816 1.64186 37.0319C1.64186 36.9822 1.65707 36.9723 1.70267 36.9723H2.31584C2.36144 36.9723 2.41719 36.9425 2.41719 36.8531V36.6892C2.41719 36.6444 2.38678 36.5898 2.29557 36.5898H0.111485C0.0405398 36.5898 0 36.6345 0 36.6991V36.863C0 36.8878 0.00506748 36.9127 0.0202699 36.9326C0.0506748 36.9773 0.106417 36.9773 0.126687 36.9773V36.9624ZM7.51507 45.9136C7.30224 45.8192 6.99312 45.7695 6.59279 45.7695C6.32928 45.7695 6.08604 45.8093 5.86814 45.8937C5.56409 46.0129 5.32592 46.1619 5.15869 46.3457C4.99653 46.5246 4.86985 46.7531 4.78877 47.0163C4.71782 47.2399 4.68742 47.4733 4.68742 47.7217C4.68742 48.0794 4.72289 48.3774 4.7989 48.596C4.85971 48.7847 4.96106 48.9586 5.10295 49.1126C5.21443 49.2417 5.36139 49.346 5.52355 49.4305C5.75159 49.5447 6.09111 49.5994 6.53705 49.5994C6.81576 49.5994 7.04886 49.5646 7.22622 49.5C7.44413 49.4205 7.62655 49.3262 7.76338 49.2219C7.82925 49.1672 7.91033 49.0877 8.01168 48.9685C8.29546 48.6407 8.44242 48.1837 8.44242 47.6025C8.44242 47.0908 8.3208 46.6686 8.08263 46.3507C7.94581 46.1669 7.75324 46.0179 7.51507 45.9136ZM7.75324 48.6506C7.63669 48.9039 7.4948 49.0828 7.33264 49.1871C7.12487 49.3212 6.89177 49.3907 6.64853 49.3907C6.43063 49.3907 6.22286 49.346 6.03537 49.2616C5.79719 49.1523 5.61983 49.0083 5.50328 48.8294C5.30565 48.5314 5.2043 48.1141 5.2043 47.5876C5.2043 47.2299 5.26004 46.9269 5.37153 46.6835C5.45261 46.4997 5.60463 46.3308 5.82253 46.1768C5.93908 46.0924 6.13165 46.0527 6.40529 46.0527C6.61306 46.0527 6.82589 46.0974 7.03873 46.1818C7.22116 46.2563 7.37825 46.3656 7.50494 46.5146C7.64682 46.6736 7.75324 46.8673 7.81912 47.0859C7.87993 47.2746 7.91033 47.4982 7.91033 47.7515C7.91033 48.1141 7.85459 48.4171 7.75324 48.6506ZM42.6074 43.3653H47.3353C47.4012 43.3653 47.4519 43.3355 47.4975 43.2759C47.6292 43.0325 47.7407 42.8189 47.837 42.6252C47.8522 42.5805 47.8471 42.5457 47.8269 42.5159C47.8167 42.501 47.7914 42.4811 47.7458 42.4811H47.7154C47.69 42.501 47.614 42.5407 47.4924 42.6103C46.9907 42.8388 45.9519 42.958 44.4114 42.958C44.381 42.958 44.2137 42.9033 44.2137 41.8453V39.9974V39.9726C44.234 39.9726 45.4249 39.9925 45.4249 39.9925C46.1951 40.0074 46.6259 40.0123 46.6563 40.0123C46.6664 40.0123 46.6816 40.0123 46.6867 40.0521C46.7069 40.3402 46.7222 40.5885 46.7374 40.8021C46.7526 40.9164 46.8336 40.9214 46.859 40.9214H46.94C46.9755 40.9214 47.0566 40.9065 47.0566 40.7525C47.0566 40.7326 47.0566 40.5736 47.0465 40.2806C47.0414 39.9875 47.0363 39.8186 47.0363 39.7689C47.0363 39.7193 47.0414 39.5653 47.0566 39.307C47.0718 38.9791 47.0769 38.9046 47.0769 38.8947C47.0769 38.7904 47.011 38.7506 46.9553 38.7506H46.8792C46.8488 38.7506 46.7576 38.7606 46.7576 38.8947C46.7525 38.9195 46.7373 39.0536 46.7221 39.1629C46.7019 39.3219 46.6917 39.4262 46.6816 39.4759C46.6816 39.4957 46.6765 39.4957 46.6613 39.4957H44.2188C44.2188 39.4957 44.1985 39.4957 44.1985 39.461C44.1985 37.5535 44.2087 37.0965 44.2188 37.0518C44.2239 37.0319 44.2289 37.0319 44.2391 37.0319C45.4401 37.0468 46.2357 37.0865 46.6005 37.1462C46.8539 37.1909 47.0414 37.2703 47.1529 37.3796L47.2441 37.474H47.2694C47.3454 37.474 47.3809 37.3896 47.4113 37.315C47.4823 37.0816 47.538 36.868 47.5836 36.6941C47.5988 36.6494 47.5836 36.6246 47.5735 36.6047C47.5532 36.5799 47.5228 36.565 47.4772 36.565H47.4113C47.4113 36.565 47.3607 36.5749 47.3252 36.5749C47.2238 36.5799 47.1478 36.5848 47.087 36.5848H42.6124C42.5212 36.5848 42.4908 36.6444 42.4908 36.6941V36.858C42.4908 36.9226 42.5364 36.9673 42.6023 36.9673H43.2053C43.2053 36.9673 43.3371 36.9773 43.3371 37.9012C43.3371 37.9409 43.3472 39.903 43.3472 39.9328C43.3472 39.9627 43.3675 42.9182 43.3675 42.9481C43.3675 42.9878 43.3573 42.9878 43.332 42.9878H42.5922C42.5415 42.9878 42.4908 43.0226 42.4908 43.0971V43.2511C42.4908 43.3405 42.5516 43.3703 42.6023 43.3703L42.6074 43.3653ZM30.8913 36.7835C30.5062 36.6146 29.9488 36.5302 29.2292 36.5302C28.7529 36.5302 28.3171 36.6047 27.9269 36.7537C27.3745 36.9673 26.9488 37.2405 26.6549 37.5634C26.361 37.8863 26.1381 38.2936 25.986 38.7655C25.8593 39.1629 25.7985 39.5901 25.7985 40.0372C25.7985 40.6879 25.8644 41.2194 25.9962 41.6168C26.1026 41.9546 26.285 42.2675 26.5384 42.5457C26.7411 42.7742 26.9995 42.9679 27.2985 43.112C27.709 43.3156 28.3221 43.415 29.1279 43.415C29.6346 43.415 30.0501 43.3554 30.3694 43.2411C30.7647 43.0971 31.089 42.9282 31.3373 42.7345C31.4589 42.6401 31.6059 42.4911 31.7832 42.2824C32.295 41.6913 32.5585 40.8667 32.5585 39.8236C32.5585 38.8947 32.3406 38.1347 31.9099 37.5634C31.6667 37.2306 31.3221 36.9673 30.8913 36.7786V36.7835ZM31.3525 41.731C31.1397 42.193 30.8812 42.5258 30.5873 42.7146C30.2072 42.963 29.7866 43.0871 29.3306 43.0871C28.9302 43.0871 28.5552 43.0077 28.2106 42.8537C27.7748 42.655 27.4505 42.3917 27.2326 42.0639C26.8728 41.5174 26.6904 40.7574 26.6904 39.7987C26.6904 39.153 26.7918 38.5966 26.9945 38.1496C27.1414 37.8167 27.4201 37.5038 27.8255 37.2256C28.0384 37.0766 28.3981 36.9971 28.8948 36.9971C29.2799 36.9971 29.665 37.0766 30.0501 37.2306C30.3795 37.3647 30.6684 37.5684 30.9065 37.8366C31.1701 38.1297 31.3626 38.4774 31.4842 38.8748C31.5907 39.2175 31.6464 39.6298 31.6464 40.0918C31.6464 40.7574 31.5501 41.3088 31.3576 41.731H31.3525ZM12.2684 49.0629L12.2582 49.053H12.243C12.243 49.053 12.2025 49.0579 12.1366 49.1026C11.9694 49.202 11.7413 49.2666 11.4677 49.2864C11.3816 49.2914 11.037 49.2964 10.4491 49.2964C10.4491 49.2964 10.3478 49.2914 10.3478 48.7201C10.3478 48.6109 10.3529 48.1489 10.363 47.3491C10.3782 46.311 10.3883 46.0626 10.3934 46.0378H10.9458C10.9812 46.0378 11.0167 46.0129 11.0167 45.9633V45.8689C11.0167 45.8341 10.9914 45.7993 10.9407 45.7993H9.45085C9.40524 45.7993 9.36977 45.8291 9.36977 45.8788V45.9583C9.36977 45.998 9.3951 46.0378 9.45591 46.0378H9.76503C9.76503 46.0378 9.83091 46.0924 9.83091 46.5693C9.83091 46.604 9.83091 46.9667 9.82077 47.6571C9.8157 48.3476 9.81064 48.7996 9.82077 48.9983V49.0182C9.82584 49.207 9.83091 49.3063 9.82584 49.3361H9.41031C9.3647 49.3361 9.33429 49.3659 9.33429 49.4106V49.5C9.33429 49.5348 9.35963 49.5745 9.41537 49.5745H12.0403C12.0707 49.5745 12.1011 49.5547 12.1265 49.5199C12.1771 49.4355 12.2126 49.3758 12.2228 49.3411C12.3089 49.197 12.319 49.1672 12.319 49.1473C12.319 49.1275 12.3089 49.0977 12.2734 49.0679L12.2684 49.0629ZM7.20089 36.9723H7.83432C7.83432 36.9723 7.94581 37.017 7.94581 37.8366L7.95594 42.9033C7.95594 42.963 7.94581 42.9828 7.94581 42.9828H7.26676C7.26676 42.9828 7.22116 42.9828 7.20595 42.9977C7.15528 43.0226 7.15528 43.0822 7.15528 43.102V43.256C7.15528 43.2809 7.16035 43.3057 7.17555 43.3256C7.20089 43.3653 7.25156 43.3703 7.28197 43.3703H9.70422C9.74983 43.3703 9.79544 43.3405 9.79544 43.2709V43.0871C9.79544 43.0275 9.75489 42.9878 9.69409 42.9878H8.98971C8.98971 42.9878 8.88329 42.9828 8.85288 42.4414C8.85288 42.3718 8.85288 42.0986 8.85288 41.6168C8.85288 41.5174 8.85288 39.9875 8.86302 37.022C8.86302 36.9822 8.87315 36.9822 8.88836 36.9822H9.59274C9.67888 36.9822 9.70929 36.9276 9.70929 36.8829V36.7041C9.70929 36.6444 9.66368 36.6047 9.60287 36.6047H7.18062C7.1046 36.6047 7.06913 36.6544 7.06913 36.7041V36.8729C7.06913 36.9276 7.1046 36.9822 7.20089 36.9822V36.9723ZM25.1398 45.7993H23.9388C23.8932 45.7993 23.8628 45.8291 23.8628 45.8738V45.9633C23.8628 45.998 23.8881 46.0378 23.9438 46.0378H24.3188C24.3188 46.0378 24.4303 46.0477 24.4709 46.7878C24.4709 46.8375 24.4709 47.1654 24.4759 47.7664C24.4759 48.3476 24.4759 48.6655 24.4759 48.7152C24.035 48.1688 23.6043 47.6224 23.204 47.1008C23.1685 47.0561 23.0064 46.8474 22.7175 46.4699C22.3425 45.9782 22.2716 45.8788 22.2665 45.8639C22.2361 45.8093 22.1956 45.7993 22.1651 45.7993H21.2935C21.2479 45.7993 21.2175 45.8291 21.2175 45.8738V45.9633C21.2175 46.0129 21.253 46.0378 21.2885 46.0378H21.481C21.5571 46.0378 21.7851 46.0378 21.7851 46.4898C21.7851 46.5047 21.775 46.8176 21.7445 47.6422C21.7192 48.4072 21.704 48.8294 21.704 48.9387V49.3311H21.3696C21.3138 49.3311 21.2885 49.3659 21.2885 49.4056V49.505C21.2885 49.505 21.2885 49.5696 21.3696 49.5696H22.454C22.4945 49.5696 22.5249 49.5398 22.5249 49.5V49.4007C22.5249 49.3659 22.4996 49.3311 22.4489 49.3311H22.0841C22.0841 49.3311 21.9827 49.3212 21.9827 48.6605C21.9827 48.5016 21.9929 48.1042 22.0131 47.4485C22.0334 46.8276 22.0435 46.5842 22.0537 46.4997C22.4337 46.9567 22.7732 47.379 23.057 47.7465C23.878 48.7698 24.3746 49.4007 24.5418 49.6192C24.5671 49.654 24.6026 49.6689 24.6431 49.6689C24.7242 49.6689 24.7242 49.5497 24.7242 49.4951C24.7242 49.4603 24.7445 47.6124 24.7445 47.5727C24.7445 47.5329 24.7546 46.0775 24.7546 46.0626C24.7546 46.0427 24.7546 46.0378 24.7648 46.0378H25.1499C25.1854 46.0378 25.2259 46.0129 25.2259 45.9583V45.8689C25.2259 45.8341 25.2006 45.7993 25.1448 45.7993H25.1398ZM41.8624 43.2511V43.0871C41.8624 43.0126 41.8118 42.9779 41.7611 42.9779H41.1885C41.1581 42.9779 41.001 42.9282 40.9554 41.9446C40.93 41.4926 40.9199 40.7326 40.9199 39.6895C40.9199 38.2688 40.93 37.4442 40.9554 37.2356C40.9706 37.0617 41.0162 36.9574 41.0719 36.9574H41.5685C41.6091 36.9574 41.6597 36.9276 41.6597 36.8481V36.6743C41.6597 36.6246 41.6243 36.5749 41.5483 36.5749H40.2712C40.18 36.5749 40.104 36.6196 40.0584 36.7041C39.6277 37.6628 39.1969 38.6165 38.7865 39.5404C38.3659 40.4594 37.9655 41.3436 37.5906 42.1781C37.5855 42.1731 37.5754 42.1632 37.5703 42.1533C36.9622 40.9313 36.3896 39.7491 35.8625 38.6413C35.5027 37.936 35.1683 37.2803 34.8592 36.6792C34.8338 36.6345 34.7832 36.5749 34.6768 36.5749H33.3592C33.2984 36.5749 33.2579 36.6146 33.2579 36.6743V36.8531C33.2579 36.9127 33.2984 36.9524 33.3541 36.9524C33.6278 36.9773 33.7342 37.0071 33.7798 37.0319C34.094 37.1859 34.2511 37.4839 34.2511 37.936C34.2511 38.2936 34.2359 38.7357 34.2105 39.2424C34.1953 39.5007 34.1801 39.754 34.1649 40.0123C34.1193 41.3635 34.094 42.3073 34.094 42.8189C34.094 42.9779 34.0433 42.9779 34.023 42.9779H33.5011C33.4454 42.9779 33.3896 43.0126 33.3896 43.107V43.261C33.3896 43.3057 33.42 43.3603 33.5112 43.3603H35.3203C35.3659 43.3603 35.4166 43.3305 35.4166 43.2511V43.0772C35.4166 43.0325 35.3862 42.9779 35.3001 42.9779H34.7122C34.6717 42.9779 34.5349 42.9182 34.5349 42.1781V41.0704C34.5349 40.4743 34.5805 39.5156 34.6717 38.2191C34.6717 38.2191 34.6717 38.2191 34.6717 38.2141C34.6717 38.2141 34.6717 38.2191 34.6768 38.2241C35.1582 39.1778 35.5382 39.9527 35.8119 40.5289C36.3034 41.5174 36.7747 42.4762 37.2308 43.3852C37.251 43.4597 37.3068 43.5044 37.3828 43.5044C37.4436 43.5044 37.4892 43.4448 37.5247 43.3802C37.6362 43.0871 37.7882 42.7245 37.9807 42.3023C39.5618 38.7606 39.952 37.9012 40.0027 37.8018C40.0027 37.8018 40.0027 37.8018 40.0027 37.7969C40.0027 37.8068 40.0027 37.8167 40.0027 37.8267C40.028 38.2588 40.0432 39.1281 40.0432 40.4097V42.9182C40.0432 42.9679 40.028 42.9779 39.9824 42.9779H39.4452C39.3794 42.9779 39.3338 43.0226 39.3338 43.0871V43.2511C39.3338 43.3057 39.3692 43.3603 39.4655 43.3603H41.751C41.8219 43.3603 41.8624 43.3156 41.8624 43.2511ZM25.1195 42.9828H24.3948C24.3948 42.9828 24.2884 42.8835 24.258 42.049C24.2529 41.8403 24.2479 41.0704 24.2479 39.754V37.0915C24.2479 37.012 24.2529 36.9872 24.2479 36.9822C24.258 36.9822 24.2884 36.9723 24.3746 36.9723H25.0283C25.1043 36.9723 25.155 36.9226 25.155 36.8531V36.7239C25.155 36.6246 25.0891 36.5898 25.0283 36.5898H22.4692C22.3729 36.5898 22.3374 36.6494 22.3374 36.6991V36.8531C22.3374 36.9276 22.3831 36.9723 22.4489 36.9723H23.2192C23.2192 36.9723 23.3509 36.9822 23.3509 37.8267C23.3509 37.8764 23.3611 39.4162 23.3611 39.4311C23.3611 39.4609 23.3611 39.461 23.3408 39.461H19.829C19.829 39.461 19.8189 39.451 19.8189 39.4262H19.8138C19.824 39.3517 19.824 39.1877 19.824 38.8351C19.824 38.4377 19.824 37.8416 19.824 37.0468C19.824 37.012 19.824 36.9922 19.824 36.9822C19.8392 36.9822 19.8645 36.9822 19.9101 36.9822H20.6601C20.7513 36.9822 20.7817 36.9226 20.7817 36.8729V36.7339C20.7817 36.6345 20.7159 36.5997 20.6601 36.5997H18.1112C18.0352 36.5997 17.9895 36.6444 17.9895 36.709V36.8729C17.9895 36.9226 18.02 36.9822 18.1112 36.9822H18.8105C18.8105 36.9822 18.9169 37.0816 18.9169 37.9161C18.9169 37.9608 18.9169 38.2887 18.927 38.9096C18.9321 39.5305 18.9372 39.8832 18.9372 39.9726C18.9372 40.062 18.9372 40.524 18.9473 41.3585C18.9524 42.193 18.9574 42.6401 18.9574 42.6947C18.9574 42.9331 18.9422 42.9779 18.9422 42.9828C18.9422 42.9828 18.927 42.9977 18.8561 42.9977H18.2328C18.1568 42.9977 18.1112 43.0474 18.1112 43.1169V43.2709C18.1112 43.3206 18.1416 43.3802 18.2328 43.3802H20.8273C20.878 43.3802 20.9287 43.3454 20.9287 43.2709V43.1169C20.9287 43.0275 20.8729 42.9977 20.8273 42.9977H19.9861C19.9861 42.9977 19.8544 42.9878 19.824 41.9645C19.8189 41.7261 19.8138 41.0903 19.8138 40.0173C19.8138 39.9726 19.824 39.9726 19.8392 39.9726H23.3459C23.3459 39.9726 23.3611 39.9726 23.3661 39.9726C23.3661 39.9726 23.3661 39.9825 23.3661 39.9974C23.3661 41.4578 23.3661 42.342 23.356 42.6947C23.356 42.9282 23.3408 42.9779 23.3357 42.9878C23.3357 42.9878 23.3256 42.9977 23.2851 42.9977H22.5604C22.4591 42.9977 22.4236 43.0573 22.4236 43.107V43.2709C22.4236 43.3206 22.4591 43.3802 22.5503 43.3802H25.1296C25.1752 43.3802 25.231 43.3504 25.231 43.261V43.1169C25.231 43.0424 25.1803 42.9977 25.1094 42.9977L25.1195 42.9828ZM12.6282 42.9828H11.9643C11.9288 42.9828 11.7616 42.9232 11.7616 41.741C11.7616 41.4429 11.7819 40.7028 11.8174 39.5454C11.868 38.1595 11.8832 37.8068 11.8883 37.7621C12.5977 38.6066 13.2211 39.3864 13.743 40.0719C15.2278 41.9297 16.1349 43.0722 16.4338 43.4647C16.4744 43.5193 16.5352 43.5491 16.6011 43.5491C16.7227 43.5491 16.7227 43.3603 16.7227 43.256C16.7227 43.2014 16.7277 42.6401 16.7429 41.5224C16.7582 40.3799 16.7632 39.8385 16.7632 39.7689C16.7632 39.6994 16.7632 39.2325 16.7734 38.3681C16.7734 38.3681 16.7835 37.0518 16.7835 37.0319C16.7835 36.9624 16.8038 36.9624 16.824 36.9624H17.5183C17.5689 36.9624 17.6298 36.9326 17.6298 36.8431V36.6792C17.6298 36.6345 17.5994 36.5799 17.5081 36.5799H15.3291C15.2582 36.5799 15.2126 36.6246 15.2126 36.6892V36.8531C15.2126 36.9028 15.248 36.9624 15.3393 36.9624H16.0234C16.074 36.9624 16.2514 37.0617 16.3223 38.3483C16.3223 38.4377 16.3274 39.0338 16.3325 40.1266C16.3325 41.2144 16.3325 41.7956 16.3325 41.8552C16.3325 41.8751 16.3325 41.89 16.3325 41.9049C15.5166 40.8965 14.7312 39.8981 13.9913 38.9294C13.9254 38.85 13.6315 38.4675 13.1096 37.7869C12.466 36.9425 12.3089 36.7239 12.2886 36.6892C12.238 36.5997 12.1721 36.5799 12.1265 36.5799H10.5454C10.4745 36.5799 10.4339 36.6246 10.4339 36.6892V36.8531C10.4339 36.9276 10.4846 36.9624 10.5353 36.9624H10.8849C11.2701 36.9624 11.4576 37.2405 11.4576 37.8068C11.4576 37.8217 11.4474 38.1198 11.3866 39.903C11.3359 41.2691 11.3157 42.0589 11.3157 42.2526V42.9828C11.3157 42.9828 11.3157 42.9828 11.3005 42.9828H10.6873C10.591 42.9828 10.5606 43.0424 10.5606 43.0921V43.2709C10.5606 43.2709 10.5708 43.3603 10.6873 43.3603H12.6535C12.7143 43.3603 12.7548 43.3206 12.7548 43.261V43.0772C12.7548 43.0275 12.7194 42.9779 12.6434 42.9779L12.6282 42.9828ZM33.8457 49.4653C34.1599 48.7102 34.4183 48.0843 34.621 47.5926C34.8541 47.0312 35.0669 46.5146 35.2494 46.0576C35.2595 46.0427 35.2696 46.0378 35.2899 46.0378H35.4673C35.4673 46.0378 35.5332 46.0229 35.5332 45.9633V45.8689C35.5332 45.8341 35.5078 45.7993 35.4571 45.7993H34.5146C34.4791 45.7993 34.4436 45.8242 34.4436 45.8738V45.9633C34.4436 45.998 34.4639 46.0378 34.5298 46.0378H34.8389C34.8389 46.0378 34.8795 46.0378 34.8795 46.0974C34.8795 46.1818 34.8592 46.2961 34.8136 46.4302C34.7984 46.4749 34.7376 46.6338 34.6362 46.912C34.4943 47.2846 34.469 47.3541 34.4588 47.369C34.3676 47.6025 34.2764 47.836 34.1852 48.0694C33.9825 48.586 33.9014 48.7599 33.8761 48.8145C33.8761 48.8145 33.8761 48.8096 33.8761 48.8046C33.8558 48.7649 33.7443 48.4966 33.3237 47.4535L32.7866 46.1719C32.7663 46.1272 32.7612 46.0874 32.7612 46.0626C32.7612 46.0427 32.7612 46.0427 32.7815 46.0427H33.121C33.1565 46.0427 33.192 46.0179 33.192 45.9633V45.8738C33.192 45.8391 33.1666 45.8043 33.1109 45.8043H31.9048C31.8592 45.8043 31.8288 45.8341 31.8288 45.8788V45.9682C31.8288 45.9682 31.8288 45.998 31.844 46.0129C31.8643 46.0427 31.8998 46.0427 31.915 46.0427H32.0113C32.0467 46.0427 32.0873 46.0676 32.1278 46.1172C32.2241 46.2563 32.3558 46.5345 32.5332 46.9369C32.6346 47.1753 32.7359 47.4137 32.8373 47.6522C32.9791 47.9651 33.2427 48.586 33.6126 49.505C33.6379 49.5596 33.6683 49.6242 33.7291 49.6242C33.7747 49.6242 33.8102 49.5845 33.8558 49.4702L33.8457 49.4653ZM39.1969 49.053H39.1767C39.1767 49.053 39.1209 49.0877 39.0551 49.1225C38.7814 49.2467 38.2088 49.3113 37.3625 49.3113C37.3625 49.3113 37.2662 49.3063 37.2662 48.7102L37.2561 47.6869L37.925 47.6969C38.3152 47.7018 38.5382 47.7068 38.5939 47.7068C38.599 47.7068 38.604 47.7068 38.604 47.7068C38.604 47.7068 38.604 47.7118 38.604 47.7167C38.6142 47.8757 38.6243 48.0098 38.6345 48.129C38.6446 48.1886 38.6801 48.2085 38.7155 48.2085H38.7611C38.7611 48.2085 38.8372 48.1986 38.8372 48.1042C38.8372 48.0943 38.8372 48.0048 38.8321 47.8459C38.8321 47.682 38.827 47.5926 38.827 47.5627C38.827 47.5329 38.827 47.4535 38.8372 47.3094C38.8422 47.1654 38.8473 47.0908 38.8473 47.0809C38.8473 47.0114 38.8017 46.9865 38.7662 46.9865H38.7257C38.7257 46.9865 38.6446 46.9865 38.6446 47.0759C38.6446 47.0859 38.6345 47.1356 38.6243 47.225C38.6142 47.3144 38.6091 47.369 38.604 47.3988L37.2561 47.3889C37.2561 46.3457 37.2612 46.0874 37.2662 46.0626C37.925 46.0676 38.3659 46.0924 38.5686 46.1272C38.7054 46.152 38.8067 46.1967 38.8676 46.2514L38.9182 46.306H38.9385C38.9942 46.306 39.0196 46.2414 39.0297 46.2116C39.0703 46.0825 39.1007 45.9682 39.126 45.8689C39.1361 45.8391 39.126 45.8192 39.1159 45.8093C39.1007 45.7894 39.0804 45.7844 39.05 45.7844H38.9993C38.9993 45.7844 38.979 45.7844 38.9638 45.7894C38.9081 45.7894 38.8676 45.7944 38.8321 45.7944H36.3642C36.3085 45.7944 36.2831 45.8291 36.2831 45.8689V45.9583C36.2831 46.003 36.3135 46.0328 36.3592 46.0328H36.6885C36.6885 46.0328 36.7544 46.0825 36.7544 46.5345C36.7544 46.5544 36.7595 47.6373 36.7595 47.6522C36.7595 47.6671 36.7646 48.745 36.7646 48.745C36.7646 49.1126 36.7646 49.3013 36.7646 49.3262H36.3592C36.3237 49.3262 36.2882 49.351 36.2882 49.4007V49.4851C36.2882 49.5398 36.3237 49.5646 36.3642 49.5646H38.9689C39.0094 49.5646 39.0399 49.5447 39.0703 49.51C39.1412 49.3758 39.202 49.2566 39.2578 49.1473C39.2679 49.1175 39.2628 49.0977 39.2527 49.0778C39.2476 49.0679 39.2273 49.053 39.1969 49.053ZM31.2967 49.4951V49.4156C31.2967 49.356 31.2613 49.3311 31.2258 49.3311H30.9724C30.9724 49.3311 30.9167 49.3013 30.8001 49.053C30.6988 48.8344 30.5164 48.3526 30.263 47.6174C29.9995 46.8623 29.8221 46.3656 29.7258 46.1023C29.7005 46.0278 29.6904 45.9633 29.6904 45.9136C29.6904 45.8738 29.7157 45.8291 29.7613 45.7844C29.8272 45.7198 29.8018 45.6652 29.7917 45.6453C29.7816 45.6304 29.7562 45.5957 29.7157 45.5957H29.7005H29.6904C29.6093 45.6255 29.5485 45.6453 29.4927 45.6652C29.4572 45.6801 29.4319 45.7149 29.4066 45.7844C29.0924 46.5097 28.8289 47.1306 28.611 47.6373C28.2563 48.4767 28.0637 48.9387 27.9927 49.1026C27.9117 49.3063 27.8711 49.3262 27.8711 49.3262H27.633C27.5975 49.3262 27.562 49.351 27.562 49.4007V49.4901C27.562 49.5348 27.5924 49.5646 27.638 49.5646H28.7529C28.7985 49.5646 28.8289 49.5348 28.8289 49.4901V49.4106C28.8289 49.3609 28.7985 49.3262 28.7478 49.3262H28.3424C28.3424 49.3262 28.3323 49.2765 28.3323 49.192C28.3323 49.1771 28.3373 49.1275 28.3779 48.9437C28.3931 48.8791 28.4286 48.7649 28.4944 48.5811C28.5552 48.4022 28.6008 48.2929 28.6211 48.2482C28.6211 48.2482 28.6262 48.2383 28.6211 48.2383H29.9488C29.9488 48.2383 29.9539 48.2383 29.964 48.2631C29.9691 48.2781 30.0096 48.3774 30.1464 48.7698C30.2478 49.0629 30.3137 49.2517 30.3339 49.3212H29.9691C29.9336 49.3212 29.8931 49.3411 29.8931 49.4056V49.4802C29.8931 49.5348 29.9285 49.5596 29.9691 49.5596H31.241C31.241 49.5596 31.3069 49.5447 31.3069 49.4851L31.2967 49.4951ZM28.7427 47.9502C28.763 47.9055 28.7985 47.8211 28.8745 47.6422C28.9708 47.4187 29.1279 47.0412 29.3508 46.5196C29.437 46.7779 29.5181 47.0263 29.5991 47.2647C29.6802 47.5081 29.7613 47.7366 29.8322 47.9502H28.7427ZM15.7295 49.3162C16.2514 48.9735 16.5149 48.4171 16.5149 47.6571C16.5149 47.066 16.3528 46.609 16.0335 46.2961C15.922 46.1868 15.8055 46.0974 15.6838 46.0278C15.6281 45.998 15.547 45.9583 15.4355 45.9086C15.2632 45.8341 15.0301 45.7993 14.7464 45.7993H13.0437C12.9879 45.7993 12.9626 45.8341 12.9626 45.8738V45.9633C12.9626 46.008 12.993 46.0378 13.0386 46.0378H13.4136C13.4136 46.0378 13.4694 46.1023 13.4795 46.5444C13.4795 46.5842 13.4795 46.7978 13.4795 47.1902V47.8558C13.4795 47.8956 13.4947 49.2715 13.4947 49.2964C13.4947 49.3212 13.4947 49.3311 13.4947 49.3361H13.1146C13.0589 49.3361 13.0336 49.3709 13.0336 49.4106C13.0336 49.4255 13.0336 49.4404 13.0336 49.4653C13.0336 49.4851 13.0336 49.4951 13.0336 49.5C13.0336 49.5447 13.064 49.5745 13.1096 49.5745H13.4136C13.5504 49.5745 13.7227 49.5745 13.9305 49.5894C14.1433 49.5994 14.3106 49.6043 14.4423 49.6043C14.7261 49.6043 14.9389 49.5944 15.0808 49.5696C15.3241 49.5298 15.542 49.4504 15.7295 49.3262V49.3162ZM14.0673 49.2914C14.0673 49.2914 14.0065 49.1871 14.0065 48.6158V47.523C14.0065 47.4684 14.0116 46.1719 14.0116 46.147C14.0116 46.0874 14.0318 46.0874 14.0369 46.0825C14.0623 46.0775 14.118 46.0725 14.2396 46.0725C14.4778 46.0725 14.721 46.1222 14.9643 46.2166C15.1974 46.311 15.4153 46.4749 15.6129 46.7183C15.8916 47.061 16.0335 47.4982 16.0335 48.0297C16.0335 48.4668 15.9017 48.8145 15.6433 49.053C15.4457 49.2417 15.1568 49.3361 14.7869 49.3361C14.4423 49.3361 14.194 49.3212 14.0623 49.3013L14.0673 49.2914ZM52.5802 49.053H52.5599C52.5599 49.053 52.5041 49.0877 52.4383 49.1225C52.1646 49.2467 51.592 49.3113 50.7457 49.3113C50.7457 49.3113 50.6494 49.3063 50.6494 48.7102L50.6393 47.6869L51.3082 47.6969C51.7035 47.7018 51.9264 47.7068 51.9771 47.7068H51.9873C51.9873 47.7068 51.9873 47.7118 51.9873 47.7167C51.9974 47.8757 52.0075 48.0098 52.0177 48.129C52.0278 48.1886 52.0633 48.2085 52.0987 48.2085H52.1443C52.1443 48.2085 52.2204 48.1986 52.2204 48.1042C52.2204 48.0943 52.2204 48.0048 52.2153 47.8459C52.2153 47.682 52.2102 47.5926 52.2102 47.5627C52.2102 47.5329 52.2102 47.4535 52.2204 47.3094C52.2204 47.3094 52.2305 47.0859 52.2305 47.0809C52.2305 47.0114 52.1849 46.9865 52.1494 46.9865H52.1089C52.1089 46.9865 52.0278 46.9865 52.0278 47.0759C52.0278 47.0859 52.0177 47.1356 52.0075 47.225C51.9974 47.3144 51.9923 47.369 51.9873 47.3988L50.6393 47.3889C50.6393 46.3457 50.6444 46.0874 50.6494 46.0626C51.3082 46.0676 51.7491 46.0924 51.9518 46.1272C52.0886 46.152 52.19 46.1967 52.2508 46.2514L52.3014 46.306H52.3217C52.3775 46.306 52.4028 46.2414 52.4129 46.2116C52.4535 46.0825 52.4839 45.9682 52.5092 45.8689C52.5193 45.8391 52.5092 45.8192 52.4991 45.8093C52.4839 45.7894 52.4636 45.7844 52.4332 45.7844H52.3825C52.3825 45.7844 52.3623 45.7844 52.347 45.7894C52.2913 45.7894 52.2508 45.7944 52.2153 45.7944H49.7474C49.6917 45.7944 49.6664 45.8291 49.6664 45.8689V45.9583C49.6664 46.003 49.6968 46.0328 49.7424 46.0328H50.0717C50.0717 46.0328 50.1376 46.0825 50.1376 46.5345C50.1376 46.5544 50.1427 47.6373 50.1427 47.6522C50.1427 47.6671 50.1427 47.9452 50.1478 48.4867C50.1478 49.0232 50.1528 49.3013 50.1478 49.3262H49.7373C49.7018 49.3262 49.6664 49.351 49.6664 49.4007V49.4851C49.6664 49.5398 49.7018 49.5646 49.7424 49.5646H52.347C52.3876 49.5646 52.4231 49.5447 52.4484 49.51C52.5193 49.3758 52.5802 49.2566 52.6359 49.1473C52.646 49.1175 52.641 49.0977 52.6308 49.0778C52.6258 49.0679 52.6055 49.053 52.5751 49.053H52.5802ZM19.6973 46.1371C19.8341 46.1619 19.9355 46.2067 19.9963 46.2613L20.0469 46.3159H20.0672C20.123 46.3159 20.1483 46.2514 20.1584 46.2216C20.199 46.0924 20.2294 45.9782 20.2547 45.8788C20.2648 45.849 20.2547 45.8291 20.2446 45.8192C20.2294 45.7993 20.2091 45.7944 20.1787 45.7944H20.128C20.128 45.7944 20.1078 45.7944 20.0926 45.7993C20.0368 45.7993 19.9963 45.8043 19.9608 45.8043H17.4929C17.4372 45.8043 17.4119 45.8391 17.4119 45.8788V45.9682C17.4119 46.0129 17.4423 46.0427 17.4879 46.0427H17.8173C17.8173 46.0427 17.8831 46.0924 17.8831 46.5444C17.8831 46.5643 17.8831 46.7531 17.8831 47.1058C17.8831 47.1058 17.8831 47.9552 17.8933 48.4966C17.8933 49.0331 17.8983 49.3113 17.8933 49.3361H17.4879C17.4524 49.3361 17.4169 49.3609 17.4169 49.4106V49.4951C17.4169 49.5497 17.4524 49.5745 17.4929 49.5745H20.0976C20.1382 49.5745 20.1736 49.5547 20.199 49.5199C20.2699 49.3858 20.3307 49.2666 20.3865 49.1573C20.3966 49.1275 20.3915 49.1076 20.3814 49.0877C20.3763 49.0778 20.3561 49.0629 20.3257 49.0629H20.3054C20.3054 49.0629 20.2496 49.0977 20.1838 49.1324C19.9101 49.2566 19.3375 49.3212 18.4912 49.3212C18.4912 49.3212 18.3949 49.3162 18.3949 48.7201L18.3848 47.6969L19.0537 47.7068C19.449 47.7118 19.6719 47.7167 19.7226 47.7167C19.7277 47.7167 19.7328 47.7167 19.7328 47.7167C19.7328 47.7167 19.7328 47.7217 19.7328 47.7267L19.7632 48.139C19.7733 48.1986 19.8088 48.2184 19.8442 48.2184H19.8899C19.8899 48.2184 19.9659 48.2085 19.9659 48.1141C19.9659 48.1042 19.9659 48.0148 19.9608 47.8558C19.9608 47.6919 19.9557 47.6025 19.9557 47.5727C19.9557 47.5429 19.9557 47.4634 19.9659 47.3193C19.9709 47.1753 19.976 47.1008 19.976 47.0908C19.976 47.0213 19.9304 46.9965 19.8949 46.9965H19.8544C19.8544 46.9965 19.7733 46.9965 19.7733 47.0859C19.7733 47.0958 19.7632 47.1455 19.753 47.2349C19.7429 47.3243 19.7378 47.379 19.7328 47.4088L18.3848 47.3988C18.3848 46.3557 18.3899 46.0974 18.3949 46.0725C19.0537 46.0775 19.4946 46.1023 19.6973 46.1371ZM48.6731 45.7993H47.5481C47.4924 45.7993 47.4671 45.8341 47.4671 45.8738V45.9633C47.4671 45.9633 47.4671 45.9931 47.4823 46.008C47.4975 46.0278 47.5177 46.0378 47.5481 46.0378H47.9029C47.9029 46.0378 48.0042 46.0626 48.0346 46.8276C48.0448 47.1157 48.0498 47.5677 48.0498 48.1688C48.0498 48.6109 47.9738 48.9089 47.8269 49.053C47.6292 49.2467 47.3606 49.346 47.0313 49.346C46.7019 49.346 46.4282 49.2815 46.2357 49.1523C46.0431 49.0232 45.9316 48.8443 45.8911 48.596C45.8708 48.4618 45.8607 48.1986 45.8607 47.8161C45.8607 46.7084 45.8657 46.1123 45.8708 46.0378H46.2559C46.2863 46.0378 46.3269 46.0179 46.3269 45.9533V45.8689C46.3269 45.8341 46.3015 45.7993 46.2458 45.7993H44.8928C44.8472 45.7993 44.8168 45.8291 44.8168 45.8788V45.9633C44.8168 46.008 44.8472 46.0378 44.8928 46.0378H45.2576C45.2576 46.0378 45.3235 46.1073 45.3235 46.6239C45.3235 47.5081 45.3235 48.0694 45.3337 48.288C45.3438 48.6357 45.3945 48.899 45.4857 49.0728C45.5972 49.2864 45.7796 49.4355 46.0279 49.5249C46.2711 49.6093 46.5904 49.649 46.9755 49.649C47.3911 49.649 47.7204 49.5348 47.9434 49.3113C48.212 49.048 48.3387 48.6208 48.3285 48.0446C48.3184 47.4684 48.3133 47.0014 48.3133 46.6587C48.3133 46.4153 48.3235 46.2365 48.3285 46.1172C48.3285 46.0874 48.3285 46.0626 48.3336 46.0427C48.364 46.0427 48.4198 46.0427 48.5312 46.0427H48.6883C48.6883 46.0427 48.7542 46.0427 48.7542 45.9633V45.8788C48.7542 45.8341 48.7238 45.8043 48.6782 45.8043L48.6731 45.7993ZM44.006 45.7993H42.805C42.7594 45.7993 42.729 45.8291 42.729 45.8738V45.9633C42.729 45.998 42.7543 46.0378 42.8101 46.0378H43.1901C43.1901 46.0378 43.3016 46.0477 43.3421 46.7878C43.3421 46.8375 43.3421 47.1654 43.3472 47.7664C43.3472 48.3476 43.3472 48.6655 43.3472 48.7152C42.9013 48.1638 42.4756 47.6224 42.0753 47.1008C42.0398 47.0561 41.8776 46.8474 41.5888 46.4699C41.2341 46.003 41.1479 45.8838 41.1378 45.8639C41.1074 45.8093 41.0668 45.7993 41.0364 45.7993H40.1648C40.1192 45.7993 40.0888 45.8291 40.0888 45.8738V45.9633C40.0888 46.0129 40.1243 46.0378 40.1598 46.0378H40.3523C40.4283 46.0378 40.6564 46.0378 40.6564 46.4898C40.6564 46.5047 40.6412 46.8971 40.6158 47.6422C40.5905 48.4072 40.5753 48.8294 40.5753 48.9387V49.3311H40.2408C40.1851 49.3311 40.1598 49.3659 40.1598 49.4056V49.505C40.1598 49.505 40.1598 49.5696 40.2408 49.5696H41.3253C41.3658 49.5696 41.3962 49.5398 41.3962 49.5V49.4007C41.3962 49.3659 41.3709 49.3311 41.3202 49.3311H40.9554C40.9554 49.3311 40.854 49.3212 40.854 48.6605C40.854 48.4916 40.8641 48.0843 40.8844 47.4485C40.9047 46.8127 40.9148 46.5792 40.925 46.4948C41.305 46.9518 41.6445 47.369 41.9283 47.7416C42.7644 48.7847 43.2459 49.3957 43.4131 49.6143C43.4384 49.649 43.4739 49.664 43.5144 49.664C43.5955 49.664 43.5955 49.5447 43.5955 49.4901C43.5955 49.4553 43.6158 47.6075 43.6158 47.5677C43.6158 47.528 43.6259 46.0576 43.6259 46.0576C43.6259 46.0378 43.6259 46.0328 43.6361 46.0328H44.0212C44.0567 46.0328 44.0972 46.008 44.0972 45.9533V45.8639C44.0972 45.8291 44.0719 45.7944 44.0161 45.7944L44.006 45.7993ZM11.9136 20.2968C12.8714 20.2968 13.8291 19.9391 14.5589 19.2238L16.8088 17.0183L18.5267 15.3344L18.8764 14.9916L18.8966 14.9718L22.7479 11.1966C22.9303 11.0177 23.2293 11.0177 23.4168 11.1966L24.1111 11.8771C24.2935 12.0559 24.2935 12.349 24.1111 12.5328L20.2598 16.308L20.2395 16.3279L19.8899 16.6706L18.172 18.3546L15.922 20.5601C14.4626 21.9907 14.4626 24.3154 15.922 25.746C16.6517 26.4613 17.6095 26.819 18.5672 26.819C19.525 26.819 20.4827 26.4613 21.2125 25.746L22.753 24.2359C22.9354 24.0571 23.2344 24.0571 23.4219 24.2359L24.1161 24.9165C24.2986 25.0953 24.2986 25.3884 24.1161 25.5722L22.5756 27.0822C21.8712 27.7727 21.4861 28.6917 21.4861 29.6752C21.4861 30.6588 21.8763 31.5777 22.5756 32.2682C23.2344 32.9139 24.1111 33.2915 25.0435 33.3362H25.0536C25.0992 33.3362 25.1448 33.3362 25.1904 33.3362C26.1735 33.3262 27.1009 32.9487 27.7951 32.2682C28.4995 31.5777 28.8846 30.6588 28.8846 29.6752C28.8846 28.6917 28.4944 27.7727 27.7951 27.0822L25.1854 24.524L23.8222 23.1878L19.601 19.05C19.4186 18.8712 19.4186 18.5781 19.601 18.3943L20.2952 17.7138C20.4777 17.5349 20.7767 17.5349 20.9642 17.7138L24.8154 21.489L26.5435 23.1828L29.1532 25.741C29.8576 26.4315 30.7951 26.809 31.7984 26.809C32.8018 26.809 33.7393 26.4265 34.4436 25.741C35.9031 24.3104 35.9031 21.9857 34.4436 20.5551L32.9031 19.045C32.7207 18.8662 32.7207 18.5731 32.9031 18.3893L33.5974 17.7088C33.7798 17.53 34.0788 17.53 34.2663 17.7088L35.8068 19.2189C36.5365 19.9342 37.4943 20.2918 38.452 20.2918C39.4098 20.2918 40.3675 19.9342 41.0972 19.2189C41.7915 18.5383 42.1766 17.6343 42.1868 16.6656V16.5216C42.1411 15.6076 41.756 14.7482 41.0972 14.1074C40.3929 13.417 39.4554 13.0395 38.452 13.0395C37.4487 13.0395 36.5112 13.4219 35.8068 14.1074L33.567 16.303L33.5467 16.3229L33.2021 16.6607L31.4741 18.3546L27.6228 22.1298C27.4404 22.3086 27.1414 22.3086 26.9539 22.1298L26.2597 21.4492C26.0772 21.2704 26.0772 20.9773 26.2597 20.7935L30.4809 16.6557L31.839 15.3244L34.4487 12.7662C35.1531 12.0758 35.5382 11.1568 35.5382 10.1733C35.5382 9.18973 35.1531 8.27077 34.4487 7.5803C33.7443 6.88984 32.8069 6.51232 31.8035 6.51232C30.8001 6.51232 29.8626 6.89481 29.1583 7.5803L27.6178 9.09039C27.4353 9.26921 27.1363 9.26921 26.9488 9.09039L26.2546 8.40986C26.0722 8.23103 26.0722 7.93795 26.2546 7.75416L27.7951 6.24408C27.7951 6.24408 27.8357 6.19937 27.8559 6.1795C27.8762 6.15963 27.9015 6.1348 27.9218 6.11493C28.4539 5.53871 28.7833 4.82341 28.8644 4.0485C28.8644 4.03359 28.8644 4.01869 28.8644 4.00876C28.8745 3.89451 28.8796 3.77529 28.8796 3.65607C28.8796 2.67253 28.4894 1.75357 27.79 1.0631C27.0958 0.38257 26.1735 0.00504885 25.1854 -0.00488591H25.1752C24.1871 0.00504885 23.2648 0.38257 22.5705 1.0631C21.8662 1.75357 21.481 2.67253 21.481 3.65607C21.481 4.63961 21.8712 5.55858 22.5705 6.24905L24.8306 8.4645L26.5384 10.1385L30.7596 14.2763C30.942 14.4552 30.942 14.7482 30.7596 14.932L30.0653 15.6126C29.8829 15.7914 29.5839 15.7914 29.3964 15.6126L25.1752 11.4747L23.8121 10.1385L21.2023 7.5803C20.4979 6.88984 19.5605 6.51232 18.5571 6.51232C17.5537 6.51232 16.6163 6.89481 15.9119 7.5803C14.4524 9.01091 14.4524 11.3356 15.9119 12.7662L17.4524 14.2763C17.6348 14.4552 17.6348 14.7482 17.4524 14.932L16.7581 15.6126C16.5757 15.7914 16.2767 15.7914 16.0892 15.6126L14.5487 14.1025C13.8443 13.412 12.9069 13.0345 11.9035 13.0345C10.9001 13.0345 9.96266 13.417 9.25828 14.1025C8.56404 14.783 8.17891 15.6871 8.16878 16.6557V16.6656C8.17891 17.6343 8.56404 18.5383 9.25828 19.2189C9.988 19.9342 10.9458 20.2918 11.9035 20.2918L11.9136 20.2968ZM25.5097 26.2875L27.0502 27.7975C27.5569 28.2943 27.8357 28.9599 27.8357 29.6702C27.8357 30.3806 27.5569 31.0462 27.0502 31.5429C26.5485 32.0347 25.8847 32.3079 25.1752 32.3129C25.1398 32.3129 25.1094 32.3129 25.0739 32.3129C24.3999 32.2831 23.7715 32.0099 23.3003 31.5429C22.7935 31.0462 22.5148 30.3806 22.5148 29.6702C22.5148 28.9599 22.7935 28.2943 23.3003 27.7975L24.8408 26.2875C25.0232 26.1086 25.3222 26.1086 25.5097 26.2875ZM22.0081 22.86C22.1905 23.0388 22.1905 23.3319 22.0081 23.5157L20.4675 25.0257C19.4135 26.059 17.7007 26.059 16.6467 25.0257C15.5926 23.9925 15.5926 22.3136 16.6467 21.2853L18.1872 19.7752C18.3696 19.5964 18.6686 19.5964 18.8561 19.7752L22.0081 22.8649V22.86ZM34.996 16.3378L36.5365 14.8277C37.0433 14.331 37.7223 14.0578 38.447 14.0578C39.1716 14.0578 39.8506 14.331 40.3574 14.8277C40.8287 15.2897 41.1074 15.9056 41.1429 16.5613V16.6656C41.1378 17.3611 40.8591 18.0118 40.3574 18.4986C39.3034 19.5318 37.5906 19.5318 36.5416 18.4986L35.0011 16.9885C34.8186 16.8097 34.8186 16.5166 35.0011 16.3328L34.996 16.3378ZM28.3424 22.86L31.4944 19.7703C31.6768 19.5914 31.9758 19.5914 32.1633 19.7703L33.7038 21.2803C34.7578 22.3136 34.7578 23.9925 33.7038 25.0208C33.197 25.5175 32.518 25.7907 31.7934 25.7907C31.0687 25.7907 30.3897 25.5175 29.8829 25.0208L28.3424 23.5107C28.16 23.3319 28.16 23.0388 28.3424 22.855V22.86ZM24.8458 7.04383L23.3053 5.53374C22.7986 5.03701 22.5199 4.37138 22.5199 3.66104C22.5199 2.95071 22.7986 2.28508 23.3053 1.78834C23.8019 1.30153 24.4709 1.02833 25.1803 1.01839C25.8897 1.02833 26.5536 1.30153 27.0553 1.78834C27.562 2.28508 27.8407 2.95071 27.8407 3.66104C27.8407 3.75045 27.8407 3.83987 27.8255 3.92431C27.8255 3.97399 27.8154 4.02366 27.8053 4.0783C27.7191 4.62968 27.4607 5.13635 27.0502 5.53374L25.5097 7.04383C25.3273 7.22265 25.0283 7.22265 24.8408 7.04383H24.8458ZM28.3424 10.4763C28.16 10.2975 28.16 10.0044 28.3424 9.82059L29.8829 8.31051C30.3897 7.81377 31.0687 7.54056 31.7934 7.54056C32.518 7.54056 33.197 7.81377 33.7038 8.31051C34.2105 8.80725 34.4893 9.47288 34.4893 10.1832C34.4893 10.8935 34.2105 11.5592 33.7038 12.0559L32.1633 13.566C31.9809 13.7448 31.6819 13.7448 31.4944 13.566L28.3424 10.4763ZM25.5097 13.2531L28.6617 16.3428C28.8441 16.5216 28.8441 16.8147 28.6617 16.9985L25.5097 20.0882C25.3273 20.267 25.0283 20.267 24.8408 20.0882L21.6888 16.9985C21.5064 16.8196 21.5064 16.5266 21.6888 16.3428L24.8408 13.2531C25.0232 13.0742 25.3222 13.0742 25.5097 13.2531ZM16.6517 12.0509C15.5977 11.0177 15.5977 9.33876 16.6517 8.31051C17.1585 7.81377 17.8375 7.54056 18.5622 7.54056C19.2868 7.54056 19.9659 7.81377 20.4726 8.31051L22.0131 9.82059C22.1956 9.99942 22.1956 10.2925 22.0131 10.4763L18.8612 13.566C18.6787 13.7448 18.3797 13.7448 18.1922 13.566L16.6517 12.0559V12.0509ZM10.0032 14.8277C10.5099 14.331 11.189 14.0578 11.9136 14.0578C12.6383 14.0578 13.3173 14.331 13.8241 14.8277L15.3646 16.3378C15.547 16.5166 15.547 16.8097 15.3646 16.9935L13.8241 18.5036C12.77 19.5368 11.0572 19.5368 10.0083 18.5036C9.51166 18.0168 9.23295 17.3611 9.22281 16.6656C9.23295 15.9702 9.51166 15.3195 10.0083 14.8277H10.0032ZM37.9301 53.7471H37.6868C37.6868 53.7471 37.6615 53.7273 37.6514 53.5733C37.6514 53.5484 37.6514 53.4491 37.6514 53.2752C37.6514 53.2405 37.6514 52.6941 37.6514 51.631H37.8895C37.9351 51.631 37.9554 51.6012 37.9554 51.5714V51.5068C37.9554 51.4721 37.9301 51.4472 37.8895 51.4472H37.0179C36.9774 51.4472 36.9521 51.477 36.9521 51.5068V51.5665C36.9521 51.5963 36.9723 51.631 37.023 51.631H37.2409C37.2409 51.631 37.2662 51.7105 37.2662 51.9191C37.2662 51.9191 37.2662 53.7422 37.2662 53.7471H37.023L37.0129 53.7521C36.9977 53.7571 36.9825 53.7769 36.9825 53.8117V53.8912L36.9926 53.9011C37.0027 53.916 37.023 53.926 37.0534 53.926H37.925C37.9554 53.926 37.9807 53.9061 37.9807 53.8664V53.8018C37.9807 53.767 37.9554 53.7422 37.9199 53.7422L37.9301 53.7471ZM20.5942 51.5218C20.4523 51.4572 20.2496 51.4274 19.9861 51.4274C19.8138 51.4274 19.6517 51.4572 19.5098 51.5118C19.3071 51.5913 19.15 51.6906 19.0436 51.8099C18.9372 51.9291 18.851 52.0781 18.8003 52.252C18.7547 52.396 18.7294 52.555 18.7294 52.7189C18.7294 52.9573 18.7547 53.1511 18.8003 53.2951C18.8409 53.4193 18.9068 53.5335 18.998 53.6379C19.074 53.7223 19.1703 53.7918 19.2767 53.8465C19.4287 53.921 19.6517 53.9607 19.9456 53.9607C20.128 53.9607 20.2851 53.9409 20.4017 53.8962C20.5436 53.8465 20.6652 53.7819 20.7564 53.7124C20.802 53.6776 20.8527 53.623 20.9185 53.5435C21.106 53.3249 21.2023 53.0219 21.2023 52.6444C21.2023 52.3066 21.1212 52.0284 20.9642 51.8148C20.8729 51.6906 20.7463 51.5963 20.5892 51.5267L20.5942 51.5218ZM20.726 53.315C20.65 53.4789 20.5638 53.5931 20.4574 53.6577C20.3257 53.7422 20.1787 53.7869 20.0216 53.7869C19.8797 53.7869 19.748 53.7571 19.6314 53.7024C19.4794 53.6329 19.3628 53.5435 19.2919 53.4243C19.1652 53.2305 19.0993 52.9623 19.0993 52.6245C19.0993 52.396 19.1348 52.1973 19.2057 52.0384C19.2564 51.9241 19.3527 51.8148 19.4946 51.7155C19.5655 51.6658 19.6922 51.636 19.8645 51.636C20.0013 51.636 20.1382 51.6658 20.2699 51.7204C20.3865 51.7701 20.4878 51.8397 20.5689 51.934C20.6601 52.0384 20.7311 52.1576 20.7716 52.3016C20.8071 52.4208 20.8273 52.5699 20.8273 52.7338C20.8273 52.9673 20.7919 53.166 20.726 53.315ZM17.7564 53.7471H17.5537C17.5537 53.7471 17.5031 53.7074 17.4929 53.3994C17.4828 53.2405 17.4828 52.9673 17.4828 52.5897C17.4828 52.0781 17.4828 51.785 17.4929 51.7105C17.498 51.6459 17.5132 51.636 17.5132 51.631H17.6906C17.721 51.631 17.7463 51.6112 17.7463 51.5665V51.5068C17.7463 51.477 17.726 51.4472 17.6804 51.4472H17.2193C17.1788 51.4472 17.1433 51.4671 17.1179 51.5068C16.9608 51.8496 16.8088 52.1923 16.6619 52.5252C16.5149 52.8431 16.3781 53.1461 16.2514 53.4292C16.0386 53.002 15.8359 52.5897 15.6534 52.1973C15.5217 51.944 15.4051 51.7105 15.2936 51.4919C15.2784 51.4572 15.248 51.4423 15.2075 51.4423H14.7312C14.6957 51.4423 14.6703 51.4671 14.6703 51.5019V51.5665C14.6703 51.6012 14.6957 51.6261 14.7261 51.6261C14.8224 51.636 14.8578 51.6459 14.873 51.6509C14.9795 51.7006 15.0301 51.7999 15.0301 51.9539C15.0301 52.0831 15.0301 52.2371 15.0149 52.4208C15.0149 52.5152 15.0048 52.6046 14.9997 52.699C14.9845 53.1958 14.9744 53.5236 14.9744 53.7074C14.9744 53.7273 14.9744 53.7372 14.9744 53.7422H14.7869C14.7565 53.7422 14.721 53.762 14.721 53.8117V53.8664C14.721 53.8962 14.7413 53.926 14.792 53.926H15.4406C15.471 53.926 15.5014 53.9061 15.5014 53.8614V53.8018C15.5014 53.772 15.4811 53.7422 15.4355 53.7422H15.2227C15.2227 53.7422 15.1822 53.7173 15.1822 53.4789V53.0815C15.1822 52.8828 15.1974 52.5699 15.2278 52.1427C15.3849 52.4556 15.5065 52.704 15.5977 52.8927C15.7751 53.2504 15.9423 53.5931 16.1044 53.916C16.1146 53.9558 16.145 53.9756 16.1805 53.9756C16.2159 53.9756 16.2413 53.9409 16.2565 53.916C16.297 53.8117 16.3528 53.6776 16.4186 53.5286C16.7886 52.699 17.0166 52.1923 17.1078 51.9986C17.1129 52.1725 17.1179 52.4507 17.1179 52.8381V53.7372H16.9254C16.8848 53.7372 16.8595 53.762 16.8595 53.8018V53.8614C16.8595 53.8912 16.8798 53.926 16.9304 53.926H17.7514C17.7868 53.926 17.8173 53.9011 17.8173 53.8614V53.8018C17.8173 53.762 17.7868 53.7372 17.7564 53.7372V53.7471ZM24.704 51.4423H23.9185C23.878 51.4423 23.8526 51.4671 23.8526 51.5068V51.5665C23.8526 51.5963 23.8729 51.631 23.9236 51.631H24.1668C24.1668 51.631 24.2276 51.6757 24.2529 52.1079C24.2529 52.1377 24.2529 52.3513 24.2529 52.7437C24.2529 53.0865 24.2529 53.2454 24.2529 53.315C23.9742 52.9673 23.7057 52.6245 23.4523 52.2967C23.432 52.2718 23.3256 52.1377 23.1381 51.8893C22.8949 51.5714 22.8493 51.5068 22.8442 51.4969C22.8189 51.4522 22.7834 51.4472 22.7631 51.4472H22.1956C22.1601 51.4472 22.1297 51.4721 22.1297 51.5118V51.5714C22.1297 51.6112 22.1601 51.636 22.1905 51.636H22.3172C22.3932 51.636 22.4996 51.6658 22.4996 51.9142C22.4996 51.9291 22.4895 52.1774 22.4743 52.6692C22.4591 53.1709 22.4489 53.4441 22.4489 53.5137V53.7521H22.2462C22.1956 53.7521 22.1753 53.7869 22.1753 53.8167V53.8813C22.1753 53.8813 22.1753 53.9359 22.2462 53.9359H22.9506C22.9861 53.9359 23.0114 53.9111 23.0114 53.8763V53.8117C23.0114 53.7819 22.9911 53.7521 22.9455 53.7521H22.7124C22.7124 53.7521 22.6567 53.7074 22.6567 53.3299C22.6567 53.2206 22.6618 52.9474 22.677 52.5401C22.6871 52.1973 22.6972 52.0384 22.6972 51.9589C22.9354 52.247 23.1482 52.5053 23.3256 52.7437C23.8678 53.4193 24.1871 53.8216 24.2935 53.9657C24.3138 53.9905 24.3391 54.0054 24.3746 54.0054C24.4455 54.0054 24.4455 53.916 24.4455 53.8763C24.4455 53.8564 24.4607 52.6493 24.4607 52.6245C24.4607 52.5997 24.4658 51.8695 24.4658 51.8695C24.4658 51.7254 24.4658 51.6459 24.4556 51.641H24.704C24.7445 51.641 24.7698 51.6112 24.7698 51.5714V51.5118C24.7698 51.482 24.7496 51.4522 24.6989 51.4522L24.704 51.4423ZM28.0485 52.7338H27.0553C27.0097 52.7338 26.9843 52.7636 26.9843 52.8083V52.8431C26.9843 52.9027 27.0198 52.9226 27.0553 52.9226H27.4151C27.4151 52.9226 27.4252 52.9921 27.4353 53.0914C27.4353 53.1361 27.4353 53.2107 27.4353 53.3249V53.6279C27.3086 53.7124 27.1718 53.7571 27.035 53.7571C26.8728 53.7571 26.7461 53.7422 26.6499 53.7223C26.513 53.6826 26.3864 53.613 26.2749 53.5037C26.0823 53.315 25.981 53.0517 25.981 52.7189C25.981 52.4208 26.0722 52.1725 26.2546 51.9787C26.3661 51.8595 26.4877 51.7801 26.6144 51.7353C26.7107 51.7006 26.8374 51.6857 26.9894 51.6857C27.263 51.6857 27.4657 51.7304 27.5975 51.8099C27.638 51.8347 27.6634 51.8645 27.6735 51.8993C27.6786 51.9241 27.6836 51.944 27.6836 51.9688C27.6836 51.9986 27.7039 52.0284 27.7546 52.0284C27.7799 52.0284 27.8103 52.0135 27.8205 51.9738C27.8205 51.9638 27.8306 51.939 27.8458 51.7602L27.8559 51.6658C27.861 51.6161 27.8661 51.5863 27.8661 51.5814C27.8661 51.5516 27.8458 51.5217 27.8154 51.5118C27.6836 51.4671 27.486 51.4423 27.2174 51.4423C26.9488 51.4423 26.7461 51.4671 26.584 51.5168C26.285 51.6062 26.057 51.7453 25.9049 51.9241C25.6972 52.1725 25.5908 52.4606 25.5908 52.7785C25.5908 53.0964 25.6566 53.3497 25.7884 53.5286C25.9049 53.6925 26.0671 53.8117 26.2698 53.8912C26.3813 53.9359 26.5688 53.9558 26.8374 53.9558C27.0705 53.9558 27.2985 53.9111 27.5113 53.8167C27.6836 53.7372 27.7394 53.7273 27.7647 53.7273C27.7951 53.7223 27.8255 53.7024 27.8255 53.6528C27.8154 53.5335 27.8154 53.3994 27.8154 53.2504C27.8154 53.1709 27.8154 53.0914 27.8154 53.007C27.8154 52.9673 27.8154 52.9375 27.8154 52.9176H28.0485C28.089 52.9176 28.1194 52.8878 28.1194 52.848V52.7984C28.1194 52.7586 28.089 52.7288 28.0485 52.7288V52.7338ZM36.0956 53.7471H35.9386C35.9386 53.7471 35.9082 53.7273 35.8321 53.5733C35.7663 53.4342 35.6497 53.1212 35.4825 52.6394C35.3153 52.1576 35.1987 51.8248 35.1328 51.6509C35.1176 51.6062 35.1075 51.5665 35.1126 51.5317C35.1126 51.5118 35.1278 51.487 35.1531 51.4572C35.2088 51.4025 35.1835 51.3578 35.1734 51.3479C35.1531 51.3231 35.1328 51.3082 35.1075 51.3082H35.0923H35.0822C35.0315 51.328 34.9909 51.3429 34.9555 51.3529C34.9251 51.3628 34.9048 51.3876 34.8896 51.4423L34.3676 52.6493C34.1447 53.1759 34.0129 53.4988 33.9673 53.608C33.9217 53.7223 33.8964 53.7422 33.9014 53.7422H33.7494C33.719 53.7422 33.6886 53.762 33.6886 53.8067V53.8664C33.6886 53.9011 33.7139 53.9309 33.7545 53.9309H34.4791C34.5146 53.9309 34.545 53.9061 34.545 53.8664V53.8167C34.545 53.7769 34.5146 53.7471 34.4741 53.7471H34.2257C34.2257 53.7471 34.2257 53.7124 34.2257 53.6776C34.2257 53.6726 34.2257 53.6428 34.2511 53.5186C34.2612 53.4789 34.2866 53.3994 34.3271 53.2852C34.3676 53.1709 34.393 53.0964 34.398 53.0716L35.2595 53.0815C35.2595 53.0815 35.2848 53.1461 35.3761 53.4094C35.4369 53.5882 35.4774 53.6975 35.4926 53.7471H35.2747C35.2443 53.7471 35.2088 53.767 35.2088 53.8167V53.8664C35.2088 53.9061 35.2342 53.9359 35.2747 53.9359H36.1058C36.1362 53.9359 36.1615 53.916 36.1615 53.8713V53.8216C36.1615 53.767 36.121 53.7521 36.1007 53.7521L36.0956 53.7471ZM34.4994 52.8431C34.5146 52.8083 34.5349 52.7537 34.5754 52.6642C34.6362 52.5252 34.7325 52.2917 34.8693 51.9738C34.92 52.1278 34.9707 52.2768 35.0163 52.4208C35.0669 52.5748 35.1176 52.7139 35.1632 52.848H34.4994V52.8431ZM32.8069 53.4243C32.7916 53.3945 32.7764 53.3597 32.7714 53.3199C32.7562 53.2752 32.7258 53.2703 32.7156 53.2703C32.7004 53.2703 32.6599 53.2752 32.6599 53.3398C32.6548 53.3795 32.6346 53.4243 32.6042 53.469C32.5484 53.5534 32.4623 53.618 32.3508 53.6726C32.2342 53.7273 32.1126 53.7521 31.991 53.7521C31.8187 53.7521 31.6819 53.7372 31.5856 53.7024C31.4741 53.6677 31.3677 53.6031 31.2562 53.5037C31.0434 53.31 30.9319 53.0418 30.9319 52.699C30.9319 52.3861 31.0332 52.1228 31.241 51.9142C31.4184 51.7304 31.6667 51.641 31.9707 51.641C32.2089 51.641 32.3913 51.6708 32.5079 51.7254C32.6244 51.7999 32.6396 51.8248 32.6396 51.8297C32.6548 51.8546 32.6548 51.8645 32.6548 51.8645C32.6599 51.8993 32.6852 51.9191 32.7207 51.9191C32.7308 51.9191 32.7714 51.9191 32.7815 51.8546C32.7815 51.8049 32.7917 51.7503 32.8018 51.6857C32.8119 51.6062 32.817 51.5516 32.8221 51.5317C32.8221 51.5019 32.8069 51.477 32.7866 51.4721C32.7612 51.4572 32.7004 51.4373 32.5079 51.4174C32.3863 51.4075 32.2545 51.3976 32.1126 51.3976C31.7275 51.3976 31.4032 51.477 31.1549 51.636C30.9623 51.7602 30.8204 51.9092 30.7241 52.088C30.6076 52.3066 30.5518 52.5301 30.5518 52.7487C30.5518 53.1411 30.6582 53.4392 30.8609 53.6379C30.9826 53.7571 31.1143 53.8366 31.2461 53.8813C31.3728 53.926 31.5451 53.9458 31.7579 53.9458C32.0113 53.9458 32.219 53.916 32.3863 53.8564C32.6042 53.7819 32.7562 53.6925 32.8525 53.5931C32.8727 53.5683 32.8778 53.5385 32.8626 53.5087C32.8423 53.4739 32.8271 53.4392 32.817 53.4143L32.8069 53.4243Z" fill="white"/>
</g>
<defs>
<clipPath id="clip0_0_5269">
<rect width="52.6279" height="53.9662" fill="white" transform="scale(1.00063)"/>
</clipPath>
</defs>
</svg>
