<svg width="80" height="29" viewBox="0 0 80 29" fill="none" xmlns="http://www.w3.org/2000/svg">
<g clip-path="url(#clip0_0_4856)">
<path d="M37.7413 12.8119C37.7413 10.6836 39.4542 8.96775 41.5867 8.96775C43.1669 8.96775 44.4359 9.8898 45.0197 11.2763L43.936 11.5571C43.5234 10.6212 42.646 10.0215 41.5867 10.0215C40.0171 10.0215 38.8669 11.2659 38.8669 12.8154C38.8669 14.3649 40.0136 15.585 41.5867 15.585C42.8662 15.585 43.8521 14.7462 44.1108 13.4463L41.5867 13.4567L41.5762 12.5104H45.205V12.8986C45.205 15.0374 43.6982 16.6457 41.5867 16.6457C39.4752 16.6457 37.7413 14.916 37.7413 12.8119Z" fill="white"/>
<path d="M46.2222 9.04045H47.3373V15.5295H51.1933V16.559H46.2222V9.04045Z" fill="white"/>
<path d="M51.4523 12.8119C51.4523 10.6836 53.1548 8.96775 55.2873 8.96775C57.4197 8.96775 59.1117 10.6767 59.1222 12.8119C59.1222 14.9264 57.4197 16.6457 55.2873 16.6457C53.1548 16.6457 51.4523 14.916 51.4523 12.8119ZM57.9966 12.8119C57.9966 11.2659 56.8359 9.99726 55.2873 9.99726C53.7386 9.99726 52.5675 11.2659 52.5675 12.8119C52.5675 14.3579 53.7141 15.6058 55.2873 15.6058C56.8604 15.6058 57.9966 14.3475 57.9966 12.8119Z" fill="white"/>
<path d="M60.1287 9.04045H63.4882C64.918 9.04045 65.7745 9.85852 65.7745 10.9851C65.7745 11.7789 65.362 12.4132 64.7013 12.7044C65.5893 13.006 66.0542 13.6611 66.0542 14.5312C66.0542 15.7444 65.1663 16.5625 63.6595 16.5625H60.1287V9.04392V9.04045ZM63.4113 12.3162C64.1909 12.3162 64.7013 11.8447 64.7013 11.1549C64.7013 10.4651 64.2364 10.0388 63.4568 10.0388H61.2159V12.3162H63.4148H63.4113ZM63.5861 15.5607C64.4111 15.5607 64.918 15.1101 64.918 14.3683C64.918 13.6265 64.3237 13.2174 63.5547 13.2174H61.2159V15.5607H63.5896H63.5861Z" fill="white"/>
<path d="M69.3056 9.04045H71.1479L73.8572 16.559H72.6861L72.0568 14.8397H68.3512L67.7115 16.559H66.5403L69.3021 9.04045H69.3056ZM71.7212 13.831L70.225 9.58814L68.6973 13.831H71.7212Z" fill="white"/>
<path d="M74.7663 9.04045H75.8814V15.5295H79.7374V16.559H74.7663V9.04045Z" fill="white"/>
<path d="M37.7413 22.4763C37.7413 20.348 39.4542 18.6321 41.5867 18.6321C43.1669 18.6321 44.4359 19.5576 45.0197 20.9407L43.936 21.2215C43.5234 20.2856 42.646 19.6859 41.5867 19.6859C40.0171 19.6859 38.8669 20.9303 38.8669 22.4798C38.8669 24.0292 40.0136 25.2494 41.5867 25.2494C42.8662 25.2494 43.8521 24.4105 44.1108 23.1107L41.5867 23.1211L41.5762 22.1747H45.205V22.563C45.205 24.7017 43.6982 26.3101 41.5867 26.3101C39.4752 26.3101 37.7413 24.5804 37.7413 22.4763Z" fill="white"/>
<path d="M48.3654 18.7088H50.2078L52.9171 26.2273H51.746L51.1167 24.508H47.4111L46.7713 26.2273H45.6002L48.3619 18.7088H48.3654ZM50.7811 23.4993L49.2849 19.2564L47.7572 23.4993H50.7811Z" fill="white"/>
<path d="M55.3956 19.7383H52.8716V18.7088H58.9474V19.7383H56.5108V26.2273H55.3956V19.7383Z" fill="white"/>
<path d="M60.1395 18.7088H65.4917V19.7383H61.2547V21.9603H65.0582V22.969H61.2547V25.1909H65.4917V26.2204H60.1395V18.7019V18.7088Z" fill="white"/>
<path d="M37.8602 3.79854H38.1853L39.1606 6.51617L40.1534 3.79854H40.4716L39.4228 6.63403H38.9054L37.8602 3.79854Z" fill="white"/>
<path d="M41.8631 3.79854H42.157V6.63403H41.8631V3.79854Z" fill="white"/>
<path d="M43.7054 3.79854H44.2682L45.7644 6.50231V3.79854H46.0546V6.63403H45.4987L43.992 3.906V6.63403H43.7054V3.79854Z" fill="white"/>
<path d="M47.5928 3.79854H47.8865V5.0811H49.589V3.79854H49.8826V6.63403H49.589V5.35147H47.8865V6.63403H47.5928V3.79854Z" fill="white"/>
<path d="M51.3265 5.21702C51.3265 4.41976 51.9558 3.76808 52.7598 3.76808C53.5639 3.76808 54.1931 4.41283 54.1931 5.21702C54.1966 6.01429 53.5639 6.6625 52.7598 6.6625C51.9558 6.6625 51.3265 6.01429 51.3265 5.21702ZM53.8995 5.21702C53.8995 4.57228 53.4135 4.04193 52.7598 4.04193C52.1061 4.04193 51.6202 4.56881 51.6202 5.21702C51.6202 5.86524 52.0991 6.38866 52.7598 6.38866C53.4205 6.38866 53.8995 5.86524 53.8995 5.21702Z" fill="white"/>
<path d="M55.6193 3.79854H56.1611L57.1505 6.53004L58.1398 3.79854H58.6887V6.63403H58.402V3.91987L57.4231 6.63403H56.8813L55.9094 3.93373V6.63403H55.6228V3.79854H55.6193Z" fill="white"/>
<path d="M60.2024 3.79906H62.1915V4.06944H60.496V5.08162H62.0272V5.34506H60.496V6.36071H62.1915V6.63108H60.2024V3.7956V3.79906Z" fill="white"/>
<path d="M63.6424 6.21141V5.8925C63.985 6.21141 64.3765 6.39166 64.7751 6.39166C65.1736 6.39166 65.5127 6.23221 65.5127 5.89597C65.5127 5.61173 65.275 5.45227 64.6632 5.31015C63.985 5.1611 63.6354 4.97392 63.6354 4.55449C63.6354 4.03453 64.1843 3.76415 64.7017 3.76415C65.1911 3.76415 65.5337 3.96174 65.7295 4.11772V4.4401C65.4638 4.20785 65.0897 4.03453 64.7017 4.03453C64.3381 4.03453 63.9256 4.20438 63.9256 4.54755C63.9256 4.86992 64.3311 4.96698 64.831 5.08137C65.5686 5.24776 65.7994 5.51813 65.8029 5.88557C65.8064 6.41939 65.2855 6.6655 64.7576 6.66204C64.3101 6.65857 63.9501 6.48872 63.6424 6.20794V6.21141Z" fill="white"/>
<path d="M4.25798 14.499C4.25798 10.8212 5.83811 7.51082 8.36213 5.19528C8.46002 5.10516 8.51595 4.98037 8.51595 4.85211V0.175987C8.51595 0.0407984 8.36563 -0.0458608 8.24677 0.0234665C3.3071 2.98028 0 8.35661 0 14.499C0 20.6414 3.3071 26.0177 8.25027 28.9745C8.36913 29.0439 8.51945 28.9607 8.51945 28.822V24.1459C8.51945 24.0142 8.46352 23.8894 8.36563 23.8027C5.84161 21.4872 4.26147 18.1768 4.26147 14.499H4.25798Z" fill="white"/>
<path d="M34.0741 14.4995C34.0741 8.35708 30.767 2.98075 25.8239 0.0239363C25.705 -0.045391 25.5547 0.0378018 25.5547 0.176456V4.85258C25.5547 4.9843 25.6106 5.10909 25.7085 5.19575C28.2325 7.51129 29.8127 10.8217 29.8127 14.4995C29.8127 18.1773 28.2325 21.4877 25.7085 23.8032C25.6106 23.8933 25.5547 24.0181 25.5547 24.1464V28.8225C25.5547 28.9577 25.705 29.0443 25.8239 28.975C30.767 26.0182 34.0741 20.6419 34.0741 14.4995Z" fill="white"/>
<path d="M12.7772 6.98865V2.80822C12.7772 2.68689 12.6548 2.60023 12.5395 2.64183C11.1131 3.17218 9.81268 3.94865 8.68002 4.91923C8.57514 5.00936 8.51921 5.13761 8.51921 5.2728V12.8399C8.51921 12.8399 8.51921 12.8849 8.55067 12.9057C8.58214 12.9265 8.62409 12.9196 8.64856 12.8988C8.67652 12.878 8.68002 12.8503 8.68352 12.8433C8.82685 12.1293 9.17993 10.8779 10.1098 9.58843C10.9698 8.39946 11.9592 7.68193 12.6059 7.29023C12.7108 7.22783 12.7772 7.11344 12.7772 6.98865Z" fill="white"/>
<path d="M21.2968 6.98865V2.80822C21.2968 2.68689 21.4192 2.60023 21.5345 2.64183C22.9608 3.17218 24.2613 3.94865 25.394 4.91923C25.4988 5.00936 25.5548 5.13761 25.5548 5.2728V12.8399C25.5548 12.8399 25.5548 12.8849 25.5233 12.9057C25.4918 12.9265 25.4499 12.9196 25.4254 12.8988C25.3975 12.878 25.394 12.8503 25.3905 12.8433C25.2471 12.1293 24.8941 10.8779 23.9642 9.58843C23.1042 8.39946 22.1148 7.68193 21.4681 7.29023C21.3632 7.22783 21.2968 7.11344 21.2968 6.98865Z" fill="white"/>
<path d="M21.2968 22.015V26.1954C21.2968 26.3168 21.4192 26.4034 21.5345 26.3618C22.9608 25.8315 24.2613 25.055 25.394 24.0844C25.4988 23.9943 25.5548 23.866 25.5548 23.7308V16.1638C25.5548 16.1638 25.5548 16.1187 25.5233 16.0979C25.4918 16.0771 25.4499 16.084 25.4254 16.1048C25.3975 16.1256 25.394 16.1534 25.3905 16.1603C25.2471 16.8744 24.8941 18.1257 23.9642 19.4152C23.1042 20.6042 22.1148 21.3217 21.4681 21.7134C21.3632 21.7758 21.2968 21.8902 21.2968 22.015Z" fill="white"/>
<path d="M12.7772 22.015V26.1954C12.7772 26.3168 12.6548 26.4034 12.5395 26.3618C11.1131 25.8315 9.81268 25.055 8.68002 24.0844C8.57514 23.9943 8.51921 23.866 8.51921 23.7308V16.1638C8.51921 16.1638 8.51921 16.1187 8.55067 16.0979C8.58214 16.0771 8.62409 16.084 8.64856 16.1048C8.67652 16.1256 8.68002 16.1534 8.68352 16.1603C8.82685 16.8744 9.17993 18.1257 10.1098 19.4152C10.9698 20.6042 11.9592 21.3217 12.6059 21.7134C12.7108 21.7758 12.7772 21.8902 12.7772 22.015Z" fill="white"/>
<path d="M21.1152 7.08549C19.9056 6.43035 18.5143 6.05252 17.039 6.05252C15.5637 6.05252 14.1724 6.42688 12.9628 7.08549C12.8509 7.14789 12.781 7.26574 12.781 7.394V13.3665C12.781 13.3977 12.795 13.4255 12.8195 13.4393C12.8544 13.4567 12.8894 13.4359 12.8929 13.4324C12.9209 13.4151 12.9279 13.3839 12.9313 13.3804C13.0292 13.0268 13.3683 11.9869 14.4101 11.1793C15.5078 10.3265 16.6824 10.278 17.039 10.278C17.3956 10.278 18.5702 10.3231 19.6679 11.1793C20.7062 11.9869 21.0488 13.0268 21.1467 13.3804C21.1467 13.3839 21.1571 13.4151 21.1851 13.4324C21.1851 13.4324 21.2236 13.4567 21.2585 13.4393C21.283 13.4255 21.3005 13.3977 21.297 13.3665V7.394C21.297 7.26574 21.2271 7.14789 21.1152 7.08549Z" fill="white"/>
<path d="M21.297 15.7865C21.297 15.6964 21.2446 15.6201 21.1677 15.582C21.1362 15.5646 21.1013 15.5577 21.0628 15.5577H18.3325C18.2032 15.5577 18.0983 15.6617 18.0983 15.79V18.5873C17.6089 18.7121 17.2174 18.726 17.0321 18.726C16.6755 18.726 15.5009 18.6809 14.4032 17.8247C13.3649 17.0171 13.0223 15.9771 12.9244 15.6236C12.9244 15.6201 12.9139 15.5889 12.886 15.5716C12.886 15.5716 12.8475 15.5473 12.8126 15.5646C12.7881 15.5785 12.7706 15.6062 12.7741 15.6374V21.61C12.7741 21.7382 12.844 21.8561 12.9559 21.9185C14.1655 22.5736 15.5568 22.9515 17.0321 22.9515C18.5073 22.9515 19.8987 22.5771 21.1083 21.9185C21.2201 21.8561 21.2901 21.7382 21.2901 21.61V19.7832V15.79L21.297 15.7865Z" fill="white"/>
</g>
<defs>
<clipPath id="clip0_0_4856">
<rect width="79.2514" height="28.8229" fill="white" transform="scale(1.00613)"/>
</clipPath>
</defs>
</svg>
