<svg width="103" height="24" viewBox="0 0 103 24" fill="none" xmlns="http://www.w3.org/2000/svg">
<g clip-path="url(#clip0_0_461)">
<path d="M33.738 15.9976C31.2191 14.1124 26.8109 14.1652 22.7505 16.3814C19.9966 17.8876 17.971 20.0798 16.9935 22.3295C16.9512 22.4303 16.909 22.531 16.8714 22.6317C16.8338 22.531 16.7915 22.4303 16.7492 22.3295C15.767 20.0798 13.7415 17.8876 10.9922 16.3814C6.93182 14.1604 2.52365 14.1077 0 15.9976C1.80462 14.1604 4.30008 13.0236 7.04931 13.0236C11.9462 13.0236 16.0254 16.626 16.8714 21.3797C17.7126 16.626 21.7918 13.0236 26.6934 13.0236C29.4473 13.0236 31.9381 14.1604 33.7427 15.9976H33.738ZM12.0026 11.6325C14.2537 12.8605 15.922 14.6449 16.7492 16.4821C16.7915 16.578 16.8338 16.6692 16.8714 16.7651C16.909 16.674 16.9465 16.578 16.9888 16.4821C17.816 14.6449 19.4843 12.8557 21.7401 11.6277C25.1191 9.77606 28.7894 9.73289 30.8901 11.3063C29.3862 9.77606 27.3137 8.83107 25.0251 8.83107C20.9929 8.83107 17.6327 11.7572 16.8761 15.6427C16.1147 11.7572 12.7546 8.83107 8.72705 8.83107C6.43837 8.83107 4.36117 9.77606 2.85732 11.3063C4.95802 9.73289 8.62836 9.78086 12.012 11.6277L12.0026 11.6325ZM13.3044 7.80454C14.9116 8.68717 16.1241 9.94875 16.7586 11.2583C16.8009 11.3446 16.8385 11.431 16.8761 11.5173C16.909 11.431 16.9465 11.3446 16.9935 11.2631C17.628 9.95355 18.8358 8.68717 20.4477 7.80454C22.9573 6.43263 25.6736 6.40385 27.2338 7.56949C26.1201 6.43743 24.5786 5.73228 22.8821 5.73228C19.9637 5.73228 17.5152 7.80454 16.8808 10.5867C16.2416 7.80454 13.7932 5.73228 10.8794 5.73228C9.17821 5.73228 7.64146 6.43743 6.52766 7.56949C8.08321 6.40385 10.8042 6.43743 13.3138 7.80454H13.3044ZM14.6814 4.39875C15.6213 4.91201 16.3403 5.63155 16.7633 6.39425C16.8009 6.46621 16.8385 6.53336 16.8714 6.61011C16.9043 6.53816 16.9418 6.46621 16.9794 6.39425C17.4024 5.63634 18.1214 4.91681 19.0613 4.39875C20.6404 3.53531 22.3557 3.51612 23.3332 4.25004C22.633 3.53531 21.6649 3.09399 20.5934 3.09399C18.8311 3.09399 17.346 4.28362 16.8714 5.91936C16.392 4.28362 14.9069 3.09399 13.1493 3.09399C12.0778 3.09399 11.1097 3.53531 10.4095 4.25004C11.3917 3.51612 13.1023 3.53531 14.6814 4.39875ZM18.1966 1.90916C17.7361 1.90916 16.8667 0.661971 16.8667 0C16.8667 0.661971 15.9972 1.90916 15.5367 1.90916C15.9972 1.90916 16.8667 3.15635 16.8667 3.81832C16.8667 3.15635 17.7361 1.90916 18.1966 1.90916ZM40.7779 7.96763L42.5497 2.92131H41.8353L40.4067 7.13297L38.9733 2.92131H38.2684L40.0354 7.96763H40.7779ZM43.8091 3.78954C43.889 3.708 43.9313 3.60726 43.9313 3.49214C43.9313 3.37701 43.889 3.27628 43.8091 3.19473C43.7292 3.11318 43.6305 3.07001 43.5178 3.07001C43.405 3.07001 43.3016 3.11318 43.2217 3.19473C43.1418 3.28107 43.1042 3.37701 43.1042 3.49214C43.1042 3.60726 43.1418 3.708 43.2217 3.78954C43.3016 3.87109 43.4003 3.91426 43.5178 3.91426C43.6352 3.91426 43.7292 3.87589 43.8091 3.78954ZM43.8232 7.96763V4.36037H43.2076V7.96763H43.8232ZM45.5198 4.87844V4.36037H44.9041V7.96763H45.5198V6.06327C45.5198 5.66033 45.6138 5.36292 45.8017 5.16625C45.9897 4.97437 46.2388 4.87364 46.5443 4.87364C46.8168 4.87364 47.033 4.95519 47.1881 5.11348C47.3432 5.27178 47.4231 5.50203 47.4231 5.79464V7.96763H48.0387V5.75147C48.0387 5.52122 48.0058 5.31495 47.94 5.13267C47.8742 4.95039 47.7802 4.79209 47.6628 4.66737C47.5406 4.53786 47.3996 4.44192 47.2304 4.36997C47.0612 4.29801 46.8779 4.26443 46.6665 4.26443C46.1495 4.26443 45.7688 4.4707 45.5198 4.87844ZM51.6292 7.80454C51.9111 7.63665 52.1273 7.4064 52.2777 7.11858L51.7561 6.80679C51.6574 6.99866 51.5164 7.15216 51.3284 7.26249C51.1404 7.37762 50.9289 7.43038 50.6893 7.43038C50.3368 7.43038 50.0407 7.30566 49.801 7.06102C49.5661 6.81158 49.4486 6.50458 49.4486 6.14961C49.4486 5.79464 49.5661 5.48284 49.801 5.22861C50.0407 4.98397 50.3368 4.85925 50.6893 4.85925C50.9289 4.85925 51.1404 4.91681 51.3237 5.03194C51.507 5.14706 51.6433 5.30056 51.7326 5.49244L52.2495 5.19023C52.1132 4.90242 51.9064 4.67217 51.6292 4.50428C51.3519 4.33639 51.037 4.25004 50.6893 4.25004C50.1582 4.25004 49.7165 4.43233 49.3593 4.79689C49.0068 5.15666 48.8282 5.60756 48.8282 6.14482C48.8282 6.68207 49.0068 7.13297 49.3593 7.50233C49.7118 7.8621 50.1535 8.04438 50.6893 8.04438C51.0323 8.04438 51.3472 7.95804 51.6292 7.79015V7.80454ZM56.5637 6.164C56.5637 5.63635 56.3804 5.18544 56.0185 4.81608C55.6614 4.45151 55.2196 4.26923 54.698 4.26923C54.1763 4.26923 53.7346 4.45151 53.3774 4.81608C53.0202 5.18064 52.8417 5.63155 52.8417 6.164C52.8417 6.69646 53.0202 7.14736 53.3774 7.51193C53.7346 7.87649 54.1763 8.05877 54.698 8.05877C55.2196 8.05877 55.6614 7.87649 56.0185 7.51193C56.3804 7.14257 56.5637 6.69166 56.5637 6.164ZM53.8145 7.08501C53.5748 6.84036 53.4526 6.53336 53.4526 6.164C53.4526 5.79464 53.5748 5.48764 53.8145 5.243C54.0541 4.99836 54.3502 4.87364 54.698 4.87364C55.0457 4.87364 55.3465 4.99836 55.5909 5.243C55.8306 5.48764 55.9527 5.79464 55.9527 6.164C55.9527 6.53336 55.8306 6.84036 55.5909 7.08501C55.3512 7.32965 55.0551 7.45437 54.698 7.45437C54.3408 7.45437 54.0541 7.32965 53.8145 7.08501ZM60.1353 4.87844C59.9192 4.4707 59.5714 4.26443 59.0967 4.26443C58.6221 4.26443 58.2837 4.46111 58.044 4.84965V4.36037H57.4284V7.96763H58.044V5.96733C58.044 5.60277 58.1286 5.32934 58.3025 5.14706C58.4764 4.96478 58.6879 4.87364 58.9511 4.87364C59.1813 4.87364 59.3646 4.95039 59.5009 5.10389C59.6372 5.25739 59.703 5.47325 59.703 5.75147V7.96763H60.3186V5.96733C60.3186 5.59317 60.3938 5.31495 60.5536 5.14227C60.7087 4.96478 60.9202 4.87364 61.188 4.87364C61.4277 4.87364 61.6157 4.95039 61.7567 5.10389C61.8977 5.25739 61.9635 5.47325 61.9635 5.75147V7.96763H62.5791V5.72269C62.5791 5.50203 62.5462 5.30056 62.4851 5.12308C62.424 4.9408 62.33 4.7873 62.2125 4.66258C62.095 4.53306 61.9541 4.43712 61.7943 4.36997C61.6345 4.30281 61.4512 4.26923 61.2538 4.26923C60.7604 4.26923 60.3891 4.4755 60.1447 4.88323L60.1353 4.87844ZM68.3783 7.67023C68.6979 7.4064 68.8577 7.05143 68.8577 6.61011C68.8577 6.45182 68.8389 6.30791 68.8013 6.17839C68.7637 6.05367 68.6979 5.94335 68.6086 5.8522C68.5475 5.78025 68.4911 5.71789 68.4441 5.66992C68.3971 5.62195 68.3219 5.56919 68.2232 5.51642C68.1763 5.48764 68.134 5.46366 68.1011 5.44447C68.0682 5.42528 68.0306 5.40609 67.9977 5.3917C67.9648 5.37731 67.9272 5.35813 67.8849 5.34373C67.8426 5.32934 67.7909 5.30536 67.7298 5.28138C67.6687 5.25739 67.617 5.2382 67.5747 5.21902C67.5324 5.20462 67.4948 5.19023 67.4666 5.18064L67.1753 5.0847C66.7993 4.96478 66.5314 4.84486 66.3716 4.72494C66.2165 4.60981 66.1366 4.44192 66.1366 4.22126C66.1366 4.00061 66.2212 3.80873 66.3857 3.67442C66.5502 3.5401 66.7664 3.47295 67.0343 3.47295C67.57 3.47295 67.946 3.73198 68.1575 4.25004L68.7073 3.92386C68.5616 3.59287 68.3454 3.32424 68.0588 3.12278C67.7721 2.92131 67.429 2.82057 67.0343 2.82057C66.6019 2.82057 66.2353 2.95009 65.9299 3.20912C65.6291 3.45856 65.4787 3.80873 65.4787 4.25004C65.4787 4.43233 65.5116 4.59542 65.5727 4.73933C65.6338 4.88323 65.709 5.00316 65.7889 5.0943C65.8641 5.18064 65.9863 5.26698 66.1507 5.35333C66.3199 5.43488 66.4562 5.49724 66.5596 5.54041L67.0343 5.6987C67.2457 5.76586 67.4243 5.83302 67.5747 5.89538C67.7251 5.95774 67.8426 6.0201 67.9319 6.08246C68.1105 6.20718 68.1998 6.38946 68.1998 6.6245C68.1998 6.85955 68.1105 7.05143 67.9319 7.19054C67.7533 7.33444 67.4948 7.4016 67.1565 7.4016C66.4656 7.4016 66.0239 7.0946 65.8359 6.48539L65.2719 6.81638C65.4035 7.20493 65.6338 7.50713 65.9581 7.72299C66.2823 7.93885 66.6771 8.04918 67.1471 8.04918C67.6499 8.04918 68.0635 7.91966 68.3877 7.66063L68.3783 7.67023ZM70.3193 4.87844V2.91651H69.7036V7.96284H70.3193V6.05847C70.3193 5.65553 70.4132 5.35813 70.6012 5.16145C70.7892 4.96958 71.0383 4.86884 71.3437 4.86884C71.6163 4.86884 71.8325 4.95039 71.9876 5.10869C72.1427 5.26698 72.2226 5.49724 72.2226 5.78985V7.96284H72.8382V5.74667C72.8382 5.51642 72.8053 5.31016 72.7395 5.12787C72.6737 4.94559 72.5797 4.7873 72.4622 4.66258C72.34 4.53306 72.1991 4.43712 72.0299 4.36517C71.8607 4.29322 71.6774 4.25964 71.4659 4.25964C70.949 4.25964 70.5683 4.4659 70.3193 4.87364V4.87844ZM77.3592 6.164C77.3592 5.63635 77.1759 5.18544 76.814 4.81608C76.4568 4.45151 76.0151 4.26923 75.4934 4.26923C74.9718 4.26923 74.53 4.45151 74.1729 4.81608C73.8157 5.18064 73.6371 5.63155 73.6371 6.164C73.6371 6.69646 73.8157 7.14736 74.1729 7.51193C74.53 7.87649 74.9718 8.05877 75.4934 8.05877C76.0151 8.05877 76.4568 7.87649 76.814 7.51193C77.1759 7.14257 77.3592 6.69166 77.3592 6.164ZM74.6099 7.08501C74.3702 6.84036 74.2481 6.53336 74.2481 6.164C74.2481 5.79464 74.3702 5.48764 74.6099 5.243C74.8496 4.99836 75.1457 4.87364 75.4934 4.87364C75.8412 4.87364 76.142 4.99836 76.3864 5.243C76.626 5.48764 76.7482 5.79464 76.7482 6.164C76.7482 6.53336 76.626 6.84036 76.3864 7.08501C76.1467 7.32965 75.8506 7.45437 75.4934 7.45437C75.1363 7.45437 74.8496 7.32965 74.6099 7.08501ZM78.8395 4.97917V4.36037H78.2239V9.4067H78.8395V7.34404C79.1403 7.81893 79.5867 8.05877 80.1742 8.05877C80.6723 8.05877 81.0953 7.87649 81.4384 7.51193C81.7861 7.14257 81.96 6.69166 81.96 6.164C81.96 5.63635 81.7861 5.19023 81.4384 4.82087C81.0906 4.45151 80.6676 4.26443 80.1742 4.26443C79.5867 4.26443 79.1403 4.50428 78.8395 4.97917ZM79.2014 7.08501C78.9617 6.83557 78.8395 6.52857 78.8395 6.164C78.8395 5.79944 78.9617 5.49244 79.2014 5.2478C79.4411 4.99836 79.7418 4.87364 80.099 4.87364C80.4562 4.87364 80.7475 4.99836 80.9872 5.2478C81.2269 5.49244 81.3491 5.79944 81.3491 6.164C81.3491 6.52857 81.2316 6.83557 80.9872 7.08501C80.7475 7.32965 80.4515 7.45437 80.099 7.45437C79.7465 7.45437 79.4411 7.33444 79.2014 7.08501ZM83.4545 4.87844V2.91651H82.8388V7.96284H83.4545V6.05847C83.4545 5.65553 83.5484 5.35813 83.7364 5.16145C83.9244 4.96958 84.1735 4.86884 84.479 4.86884C84.7515 4.86884 84.9677 4.95039 85.1228 5.10869C85.2779 5.26698 85.3578 5.49724 85.3578 5.78985V7.96284H85.9734V5.74667C85.9734 5.51642 85.9405 5.31016 85.8747 5.12787C85.8089 4.94559 85.7149 4.7873 85.5975 4.66258C85.4753 4.53306 85.3343 4.43712 85.1651 4.36517C84.9959 4.29322 84.8126 4.25964 84.6012 4.25964C84.0842 4.25964 83.7035 4.4659 83.4545 4.87364V4.87844ZM90.4944 6.164C90.4944 5.63635 90.3111 5.18544 89.9492 4.81608C89.5921 4.45151 89.1503 4.26923 88.6287 4.26923C88.107 4.26923 87.6653 4.45151 87.3081 4.81608C86.9509 5.18064 86.7723 5.63155 86.7723 6.164C86.7723 6.69646 86.9509 7.14736 87.3081 7.51193C87.6653 7.87649 88.107 8.05877 88.6287 8.05877C89.1503 8.05877 89.5921 7.87649 89.9492 7.51193C90.3111 7.14257 90.4944 6.69166 90.4944 6.164ZM87.7452 7.08501C87.5055 6.84036 87.3833 6.53336 87.3833 6.164C87.3833 5.79464 87.5055 5.48764 87.7452 5.243C87.9848 4.99836 88.2809 4.87364 88.6287 4.87364C88.9764 4.87364 89.2772 4.99836 89.5216 5.243C89.7613 5.48764 89.8834 5.79464 89.8834 6.164C89.8834 6.53336 89.7613 6.84036 89.5216 7.08501C89.2819 7.32965 88.9858 7.45437 88.6287 7.45437C88.2715 7.45437 87.9848 7.32965 87.7452 7.08501ZM93.7982 6.26474C93.7982 6.66768 93.7042 6.96508 93.5162 7.16176C93.3282 7.35843 93.0791 7.45437 92.7737 7.45437C92.5011 7.45437 92.2849 7.37282 92.1298 7.21452C91.9747 7.05622 91.8948 6.82597 91.8948 6.53336V4.36037H91.2792V6.57653C91.2792 6.80679 91.3121 7.01305 91.3779 7.19533C91.4437 7.37762 91.5377 7.53112 91.6552 7.66063C91.7774 7.78535 91.9183 7.88609 92.0875 7.95804C92.2567 8.02999 92.44 8.06357 92.6515 8.06357C93.1684 8.06357 93.5491 7.8573 93.7982 7.44957V7.96763H94.4138V4.36037H93.7982V6.26953V6.26474ZM96.1902 4.97437C96.3124 4.88803 96.4628 4.84965 96.6367 4.84965C97.0173 4.84965 97.2711 5.00316 97.398 5.31016L97.915 5.01275C97.8022 4.7777 97.633 4.59542 97.4074 4.46111C97.1818 4.32679 96.9281 4.26443 96.6414 4.26443C96.2842 4.26443 95.9834 4.36517 95.7438 4.56664C95.5088 4.76811 95.3913 5.02714 95.3913 5.33894C95.3913 5.53081 95.4336 5.68911 95.5135 5.81383C95.5934 5.93855 95.6968 6.03928 95.819 6.12083C95.9411 6.20238 96.0821 6.26474 96.2325 6.31271C96.3829 6.36068 96.5286 6.40385 96.6696 6.44222C96.867 6.49019 97.0314 6.55735 97.1677 6.63889C97.304 6.72524 97.3698 6.83557 97.3698 6.97468C97.3698 7.14257 97.304 7.26729 97.1724 7.34404C97.0408 7.42558 96.8717 7.46396 96.6696 7.46396C96.4534 7.46396 96.2654 7.41599 96.1103 7.31526C95.9552 7.21452 95.8472 7.07541 95.7908 6.90272L95.2597 7.21452C95.3631 7.47355 95.537 7.67982 95.7814 7.82852C96.0257 7.98202 96.3218 8.05398 96.6649 8.05398C97.0455 8.05398 97.3604 7.95324 97.6095 7.75657C97.8586 7.5599 97.9807 7.29607 97.9807 6.96988C97.9807 6.778 97.9432 6.61491 97.8633 6.49019C97.7834 6.36068 97.68 6.25994 97.5531 6.1736C97.4262 6.09205 97.2852 6.02489 97.1348 5.97692C96.9845 5.92896 96.8388 5.89058 96.7025 5.8618C96.5051 5.80903 96.3406 5.74188 96.2043 5.65553C96.068 5.56919 96.0022 5.45886 96.0022 5.31975C96.0022 5.16625 96.0633 5.04633 96.1855 4.96478L96.1902 4.97437ZM102.253 6.45182C102.267 6.36068 102.271 6.26474 102.271 6.1688C102.271 5.64114 102.107 5.19023 101.778 4.82567C101.454 4.45151 101.031 4.26443 100.514 4.26443C99.9687 4.26443 99.5222 4.44672 99.1791 4.80648C98.8361 5.16145 98.6622 5.61236 98.6622 6.164C98.6622 6.71564 98.8361 7.16176 99.1838 7.52632C99.541 7.88129 99.9969 8.05877 100.556 8.05877C101.242 8.05877 101.764 7.78535 102.112 7.2433L101.59 6.9411C101.379 7.29127 101.04 7.46876 100.57 7.46876C100.232 7.46876 99.9499 7.38241 99.7243 7.20013C99.4987 7.01785 99.353 6.77321 99.2919 6.45182H102.253ZM101.256 5.11828C101.468 5.29577 101.599 5.5548 101.651 5.90017H99.2919C99.3436 5.58358 99.4799 5.32934 99.6961 5.13747C99.9123 4.95039 100.185 4.85445 100.514 4.85445C100.796 4.85445 101.045 4.9408 101.256 5.11828ZM46.1589 20.7753L44.1005 17.1921C44.6409 16.9378 45.0733 16.5637 45.4023 16.0648C45.7312 15.5659 45.8957 15.0191 45.8957 14.4242C45.8957 13.556 45.595 12.8125 44.9934 12.1985C44.3919 11.5845 43.6587 11.2775 42.7987 11.2775H39.0767V20.7753H40.9095V17.4799H42.3053L44.1804 20.7753H46.1589ZM42.7987 13.0284C42.9679 13.0284 43.1277 13.0667 43.2828 13.1387C43.4379 13.2106 43.5742 13.3114 43.6869 13.4361C43.7997 13.5608 43.8937 13.7095 43.9595 13.8822C44.0253 14.0549 44.0582 14.2324 44.0582 14.4242C44.0582 14.6161 44.0253 14.7936 43.9595 14.9663C43.8937 15.139 43.7997 15.2877 43.6869 15.422C43.5695 15.5515 43.4379 15.657 43.2828 15.729C43.1277 15.801 42.9679 15.8393 42.7987 15.8393H40.9095V13.0331H42.7987V13.0284ZM53.8427 17.3839C53.8427 16.391 53.4996 15.5419 52.8182 14.8464C52.1367 14.1508 51.3049 13.8007 50.318 13.8007C49.3311 13.8007 48.4993 14.1508 47.8178 14.8464C47.1458 15.5323 46.8074 16.3814 46.8074 17.3839C46.8074 18.3865 47.1458 19.2451 47.8178 19.9359C48.4899 20.6266 49.3264 20.9672 50.318 20.9672C51.3096 20.9672 52.1414 20.6218 52.8182 19.9359C53.4996 19.2403 53.8427 18.3913 53.8427 17.3839ZM48.5228 17.3839C48.5228 16.8515 48.692 16.4006 49.0256 16.0408C49.3734 15.6858 49.801 15.5131 50.3133 15.5131C50.8255 15.5131 51.2579 15.6906 51.601 16.0408C51.944 16.391 52.1179 16.8419 52.1179 17.3839C52.1179 17.926 51.944 18.3721 51.601 18.7271C51.2579 19.082 50.8255 19.2547 50.3133 19.2547C49.801 19.2547 49.3687 19.0772 49.0256 18.7271C48.6873 18.3673 48.5228 17.9164 48.5228 17.3839ZM57.6399 18.5496L55.9105 13.9925H54.0353L56.7611 20.5595C56.6013 21.02 56.3851 21.3558 56.1172 21.562C55.8494 21.7683 55.4828 21.869 55.0222 21.8594V23.4856C55.8823 23.5287 56.5966 23.3369 57.1605 22.9004C57.7292 22.4686 58.185 21.7587 58.5281 20.7705L60.9484 13.9877H59.1155L57.6399 18.5448V18.5496ZM66.5455 14.7936C66.0333 14.1316 65.3095 13.8007 64.379 13.8007C63.4485 13.8007 62.7295 14.1508 62.095 14.8464C61.4653 15.5419 61.1504 16.391 61.1504 17.3839C61.1504 18.3769 61.4653 19.2355 62.095 19.9359C62.7342 20.6218 63.4955 20.9672 64.379 20.9672C65.3095 20.9672 66.0333 20.6362 66.5455 19.9742V20.7753H68.2608V13.9925H66.5455V14.7936ZM62.8658 17.3839C62.8658 16.8227 63.0397 16.367 63.3827 16.012C63.7305 15.6523 64.1675 15.47 64.6986 15.47C65.2296 15.47 65.6667 15.6523 66.0145 16.012C66.3669 16.367 66.5455 16.8227 66.5455 17.3839C66.5455 17.9452 66.3669 18.4057 66.0145 18.7654C65.662 19.1252 65.2296 19.2931 64.6986 19.2931C64.1675 19.2931 63.7305 19.1156 63.3827 18.7654C63.035 18.4057 62.8658 17.9404 62.8658 17.3839ZM71.527 20.7753V10.8745H69.8117V20.7753H71.527ZM76.4991 11.2775V20.7753H78.332V17.6573H79.9674C80.8509 17.6573 81.6075 17.3503 82.2279 16.7363C82.8388 16.1319 83.1443 15.374 83.1443 14.4722C83.1443 13.5704 82.8388 12.8221 82.2279 12.2081C81.6075 11.5941 80.8556 11.2871 79.9674 11.2871H76.4991V11.2775ZM78.332 15.9065V13.0331H79.9674C80.3669 13.0331 80.6911 13.1675 80.9449 13.4409C81.1987 13.7143 81.3256 14.0549 81.3256 14.4722C81.3256 14.6785 81.2927 14.8704 81.2269 15.043C81.1611 15.2157 81.0671 15.3644 80.9496 15.4987C80.8321 15.6283 80.6864 15.7338 80.5173 15.8058C80.3481 15.8777 80.1695 15.9161 79.9721 15.9161H78.3367L78.332 15.9065ZM88.873 14.7936C88.3608 14.1316 87.6371 13.8007 86.7065 13.8007C85.776 13.8007 85.057 14.1508 84.4226 14.8464C83.7928 15.5419 83.478 16.391 83.478 17.3839C83.478 18.3769 83.7928 19.2355 84.4226 19.9359C85.0617 20.6218 85.823 20.9672 86.7065 20.9672C87.6371 20.9672 88.3608 20.6362 88.873 19.9742V20.7753H90.5884V13.9925H88.873V14.7936ZM85.1886 17.3839C85.1886 16.8227 85.3625 16.367 85.7055 16.012C86.0533 15.6523 86.4904 15.47 87.0214 15.47C87.5525 15.47 87.9895 15.6523 88.3373 16.012C88.6898 16.367 88.8683 16.8227 88.8683 17.3839C88.8683 17.9452 88.6898 18.4057 88.3373 18.7654C87.9848 19.1252 87.5525 19.2931 87.0214 19.2931C86.4904 19.2931 86.0533 19.1156 85.7055 18.7654C85.3578 18.4057 85.1886 17.9404 85.1886 17.3839ZM93.8546 13.9925H92.1392V20.7753H93.8546V17.5326C93.8546 16.8803 94.0566 16.415 94.4655 16.1367C94.8837 15.8489 95.3537 15.7386 95.8754 15.8105V13.8582C95.4242 13.8582 95.0153 13.9685 94.6441 14.1844C94.2775 14.4003 94.0143 14.7265 93.8546 15.163V13.9973V13.9925ZM100.246 17.3408L102.915 13.9925H100.871L98.587 16.9762V11.2775H96.8717V20.7753H98.587V17.6957L101.007 20.7753H103L100.251 17.3408H100.246Z" fill="white"/>
</g>
<defs>
<clipPath id="clip0_0_461">
<rect width="102.16" height="23.3036" fill="white" transform="scale(1.00822)"/>
</clipPath>
</defs>
</svg>
