<svg width="30" height="54" viewBox="0 0 30 54" fill="none" xmlns="http://www.w3.org/2000/svg">
<path d="M12.7096 44.0526V46.1915H12.1045V44.0526H11.2929V43.5485H13.5211V44.0526H12.7096Z" fill="white"/>
<path d="M15.66 46.1847V45.1424H14.4496V46.1847H13.8443V43.5416H14.4496V44.6452H15.66V43.5416H16.2583V46.1847H15.66Z" fill="white"/>
<path d="M17.4481 44.0389V44.6111H18.7341V45.1084H17.4481V45.6942H18.9198V46.1915H16.8497V43.5485H18.8785V44.0458H17.4481V44.0389Z" fill="white"/>
<path d="M1.66429 52.7101H4.76602V53.7319H0V52.9076L3.06043 49.345H0.103094V48.3232H4.718V49.1406L1.66429 52.7169V52.7101Z" fill="white"/>
<path d="M10.4467 51.4644C10.4467 51.8187 10.3917 52.1388 10.2748 52.4249C10.1579 52.711 9.99974 52.9563 9.78654 53.1538C9.57333 53.3513 9.31896 53.508 9.01635 53.617C8.71374 53.726 8.36972 53.7805 7.99833 53.7805C7.62695 53.7805 7.27621 53.726 6.9736 53.617C6.67099 53.508 6.40972 53.3513 6.18965 53.1538C5.97645 52.9494 5.80452 52.711 5.68761 52.4249C5.57069 52.1388 5.51567 51.8187 5.51567 51.4644V48.3173H6.74676V51.4644C6.74676 51.8595 6.86368 52.1661 7.09752 52.384C7.33135 52.6088 7.62695 52.7178 7.99833 52.7178C8.36972 52.7178 8.66547 52.6088 8.88555 52.384C9.10563 52.1593 9.21565 51.8527 9.21565 51.4644V48.3173H10.4467V51.4644Z" fill="white"/>
<path d="M14.0366 52.1865H12.7781V53.7328H11.547V48.3173H13.9197C14.635 48.3173 15.192 48.4808 15.5771 48.8078C15.9622 49.1348 16.1617 49.598 16.1617 50.1974C16.1617 50.613 16.0724 50.974 15.9005 51.2669C15.7286 51.5666 15.474 51.7914 15.137 51.9413L16.2993 53.726H14.9031L14.0366 52.1797V52.1865ZM13.9197 51.1647C14.2636 51.1647 14.5248 51.0898 14.7105 50.9331C14.8962 50.7764 14.9857 50.5448 14.9857 50.2383C14.9857 49.9318 14.8962 49.707 14.7105 49.5571C14.5248 49.4072 14.2636 49.3323 13.9197 49.3323H12.7781V51.1647H13.9197Z" fill="white"/>
<path d="M17.2003 53.7328V48.3173H18.4314V53.7328H17.2003Z" fill="white"/>
<path d="M22.1663 48.283C22.3657 48.283 22.5584 48.3035 22.7578 48.3443C22.9573 48.3852 23.1497 48.4465 23.3354 48.5214C23.5211 48.5963 23.6999 48.6917 23.865 48.8007C24.03 48.9097 24.1815 49.0391 24.319 49.1754L23.5968 50.0405C23.4111 49.8225 23.1911 49.6522 22.9366 49.5228C22.6822 49.3933 22.4276 49.332 22.1732 49.332C21.9393 49.332 21.7193 49.3729 21.5198 49.4615C21.3204 49.55 21.1416 49.6658 20.9903 49.8157C20.839 49.9656 20.722 50.1427 20.6395 50.3402C20.557 50.5446 20.5089 50.7625 20.5089 51.001C20.5089 51.2394 20.5501 51.4574 20.6395 51.6617C20.722 51.8661 20.839 52.0432 20.9903 52.193C21.1416 52.3429 21.3135 52.4587 21.5198 52.5473C21.7262 52.6358 21.9393 52.6767 22.1732 52.6767C22.4207 52.6767 22.6753 52.6222 22.9229 52.5064C23.1704 52.3906 23.3974 52.2407 23.5968 52.0432L24.3259 52.8266C24.037 53.1195 23.693 53.3579 23.301 53.5282C22.909 53.7053 22.517 53.7939 22.1112 53.7939C21.7054 53.7939 21.3272 53.7257 20.9765 53.5827C20.6257 53.4396 20.3231 53.2489 20.0686 52.9968C19.8142 52.7448 19.6148 52.4587 19.4704 52.1181C19.3259 51.7775 19.2502 51.4165 19.2502 51.0214C19.2502 50.6263 19.3259 50.2653 19.4704 49.9315C19.6148 49.5977 19.821 49.3116 20.0824 49.0664C20.3437 48.8212 20.6464 48.6304 21.004 48.4874C21.3548 48.3511 21.7467 48.2762 22.1594 48.2762L22.1663 48.283Z" fill="white"/>
<path d="M28.7687 53.7328V51.6007H26.2928V53.7328H25.0617V48.3173H26.2928V50.5789H28.7687V48.3173H29.9998V53.7328H28.7687Z" fill="white"/>
<path d="M12.7096 44.0526V46.1915H12.1045V44.0526H11.2929V43.5485H13.5211V44.0526H12.7096Z" fill="white"/>
<path d="M15.66 46.1847V45.1424H14.4496V46.1847H13.8443V43.5416H14.4496V44.6452H15.66V43.5416H16.2583V46.1847H15.66Z" fill="white"/>
<path d="M17.4481 44.0389V44.6111H18.7341V45.1084H17.4481V45.6942H18.9198V46.1915H16.8497V43.5485H18.8785V44.0458H17.4481V44.0389Z" fill="white"/>
<path d="M1.66429 52.7101H4.76602V53.7319H0V52.9076L3.06043 49.345H0.103094V48.3232H4.718V49.1406L1.66429 52.7169V52.7101Z" fill="white"/>
<path d="M10.4467 51.4644C10.4467 51.8187 10.3917 52.1388 10.2748 52.4249C10.1579 52.711 9.99974 52.9563 9.78654 53.1538C9.57333 53.3513 9.31896 53.508 9.01635 53.617C8.71374 53.726 8.36972 53.7805 7.99833 53.7805C7.62695 53.7805 7.27621 53.726 6.9736 53.617C6.67099 53.508 6.40972 53.3513 6.18965 53.1538C5.97645 52.9494 5.80452 52.711 5.68761 52.4249C5.57069 52.1388 5.51567 51.8187 5.51567 51.4644V48.3173H6.74676V51.4644C6.74676 51.8595 6.86368 52.1661 7.09752 52.384C7.33135 52.6088 7.62695 52.7178 7.99833 52.7178C8.36972 52.7178 8.66547 52.6088 8.88555 52.384C9.10563 52.1593 9.21565 51.8527 9.21565 51.4644V48.3173H10.4467V51.4644Z" fill="white"/>
<path d="M14.0366 52.1865H12.7781V53.7328H11.547V48.3173H13.9197C14.635 48.3173 15.192 48.4808 15.5771 48.8078C15.9622 49.1348 16.1617 49.598 16.1617 50.1974C16.1617 50.613 16.0724 50.974 15.9005 51.2669C15.7286 51.5666 15.474 51.7914 15.137 51.9413L16.2993 53.726H14.9031L14.0366 52.1797V52.1865ZM13.9197 51.1647C14.2636 51.1647 14.5248 51.0898 14.7105 50.9331C14.8962 50.7764 14.9857 50.5448 14.9857 50.2383C14.9857 49.9318 14.8962 49.707 14.7105 49.5571C14.5248 49.4072 14.2636 49.3323 13.9197 49.3323H12.7781V51.1647H13.9197Z" fill="white"/>
<path d="M17.2003 53.7328V48.3173H18.4314V53.7328H17.2003Z" fill="white"/>
<path d="M22.1663 48.283C22.3657 48.283 22.5584 48.3035 22.7578 48.3443C22.9573 48.3852 23.1497 48.4465 23.3354 48.5214C23.5211 48.5963 23.6999 48.6917 23.865 48.8007C24.03 48.9097 24.1815 49.0391 24.319 49.1754L23.5968 50.0405C23.4111 49.8225 23.1911 49.6522 22.9366 49.5228C22.6822 49.3933 22.4276 49.332 22.1732 49.332C21.9393 49.332 21.7193 49.3729 21.5198 49.4615C21.3204 49.55 21.1416 49.6658 20.9903 49.8157C20.839 49.9656 20.722 50.1427 20.6395 50.3402C20.557 50.5446 20.5089 50.7625 20.5089 51.001C20.5089 51.2394 20.5501 51.4574 20.6395 51.6617C20.722 51.8661 20.839 52.0432 20.9903 52.193C21.1416 52.3429 21.3135 52.4587 21.5198 52.5473C21.7262 52.6358 21.9393 52.6767 22.1732 52.6767C22.4207 52.6767 22.6753 52.6222 22.9229 52.5064C23.1704 52.3906 23.3974 52.2407 23.5968 52.0432L24.3259 52.8266C24.037 53.1195 23.693 53.3579 23.301 53.5282C22.909 53.7053 22.517 53.7939 22.1112 53.7939C21.7054 53.7939 21.3272 53.7257 20.9765 53.5827C20.6257 53.4396 20.3231 53.2489 20.0686 52.9968C19.8142 52.7448 19.6148 52.4587 19.4704 52.1181C19.3259 51.7775 19.2502 51.4165 19.2502 51.0214C19.2502 50.6263 19.3259 50.2653 19.4704 49.9315C19.6148 49.5977 19.821 49.3116 20.0824 49.0664C20.3437 48.8212 20.6464 48.6304 21.004 48.4874C21.3548 48.3511 21.7467 48.2762 22.1594 48.2762L22.1663 48.283Z" fill="white"/>
<path d="M28.7687 53.7328V51.6007H26.2928V53.7328H25.0617V48.3173H26.2928V50.5789H28.7687V48.3173H29.9998V53.7328H28.7687Z" fill="white"/>
<path d="M22.5094 7.62253H18.6168V5.3201H17.4888V7.62253C16.801 7.62253 16.2441 7.07077 16.2441 6.38958V3.27653H15.1161V6.38958C15.1161 7.07077 14.559 7.62253 13.8713 7.62253H13.7682V5.3201H12.6402V7.62253H7.87414V10.8105H8.9333C8.9333 9.62523 9.90295 8.66475 11.0996 8.66475H12.647V19.775C10.1505 24.2777 7.88103 30.0746 7.88103 36.3075V39.1753H22.53V35.9873H21.4709C21.4709 37.1726 20.5012 38.1331 19.3045 38.1331H16.2508V15.9944C17.0486 14.85 17.8396 13.8146 18.5755 12.9018H18.6306V12.8336C20.8038 10.1429 22.5025 8.54894 22.5231 8.52851V7.62253H22.5094ZM13.8713 38.1399H13.7544V19.9248C14.2014 19.1347 14.6553 18.3854 15.1023 17.6905V36.9206C15.1023 37.5949 14.5521 38.1399 13.8713 38.1399ZM20.8726 8.67155C20.3087 9.25056 19.5246 10.0952 18.6168 11.1715V9.90451C18.6168 9.22331 19.1737 8.67155 19.8615 8.67155H20.8726ZM17.4819 9.91132V12.5612C17.0761 13.0721 16.6636 13.617 16.2372 14.1892V8.67837C16.925 8.67837 17.4819 9.23013 17.4819 9.91132ZM14.9992 8.67155H15.1023V15.7764C15.0129 15.9126 14.9167 16.0489 14.8273 16.1851C14.4766 16.7096 14.1189 17.2682 13.7544 17.8472V9.90451C13.7544 9.22331 14.3115 8.67155 14.9992 8.67155ZM12.6266 38.1399H12.5095C11.8287 38.1399 11.2784 37.5949 11.2784 36.9206V25.0338C11.698 23.9984 12.152 22.997 12.6266 22.0433V38.1331V38.1399ZM8.91264 36.3211C8.91264 33.5214 9.38721 30.8103 10.1437 28.2762V36.9274C10.1437 37.6017 9.59351 38.1467 8.91264 38.1467V36.3279V36.3211ZM15.0406 2.55447L14.6829 2.20023V0.640321H15.0406L15.6663 0L16.2921 0.640321H16.6498V2.20023L16.2921 2.55447H15.0406Z" fill="white"/>
</svg>
