<svg width="51" height="49" viewBox="0 0 51 49" fill="none" xmlns="http://www.w3.org/2000/svg">
<path d="M0 43.7881H1.88951V48.9928H2.52389V43.7881H4.4134V43.4807H0V43.7881Z" fill="white"/>
<path d="M9.31747 46.0703H6.17283V43.4679H5.53845V48.9869H6.17283V46.3777H9.31747V48.9869H9.95876V43.4679H9.31747V46.0703Z" fill="white"/>
<path d="M14.7096 46.2069C14.3579 45.3053 14.0062 44.4037 13.6476 43.4952L13.6338 43.4679H13.3305L11.0548 48.98H11.3858L13.296 44.3559C13.5857 45.0936 13.8753 45.8517 14.1718 46.6031C14.4753 47.3817 14.7855 48.1604 15.0958 48.9527L15.1096 48.98H15.7925L15.7716 48.9185C15.413 48.0101 15.0545 47.1085 14.7028 46.2069" fill="white"/>
<path d="M20.4057 48.0306L17.2816 43.4884L17.2678 43.4679H16.5505L16.999 44.1168V48.9869H17.3092V44.5813L20.3296 48.9664L20.3434 48.9869H20.7158V43.4679H20.4057V48.0306Z" fill="white"/>
<path d="M26.1914 46.0703H23.0538V43.4679H22.4195V48.9869H23.0538V46.3777H26.1914V48.9869H26.8399V43.4679H26.1914V46.0703Z" fill="white"/>
<path d="M34.2878 43.4679L32.481 45.8244L31.0536 43.4679H30.3088L30.3502 43.5362C30.5984 43.9461 30.8675 44.39 31.164 44.8818C31.4537 45.3599 31.7568 45.8586 32.0671 46.364L30.0468 48.9937H30.4468L32.2466 46.6509C32.488 47.0539 32.7223 47.45 32.9567 47.8325C33.1912 48.2219 33.4259 48.6043 33.6534 48.9732L33.6672 48.9937H34.4188L32.6604 46.1113L34.6808 43.4748H34.2945L34.2878 43.4679Z" fill="white"/>
<path d="M39.5558 47.1349C39.5558 47.3467 39.5143 47.5516 39.4315 47.736C39.3488 47.9204 39.2386 48.0912 39.0938 48.2278C38.949 48.3712 38.7833 48.4805 38.5971 48.5625C38.4109 48.6444 38.2041 48.6854 37.9904 48.6854C37.7766 48.6854 37.5696 48.6444 37.3765 48.5625C37.1834 48.4805 37.0179 48.3712 36.8731 48.2278C36.7283 48.0843 36.6178 47.9204 36.5351 47.736C36.4523 47.5516 36.4111 47.3467 36.4111 47.1349V43.4807H35.7768V46.8139C35.7768 47.1144 35.8319 47.3945 35.9492 47.6609C36.0664 47.9272 36.225 48.1595 36.4249 48.3576C36.6249 48.5556 36.8594 48.7127 37.1284 48.8289C37.3904 48.945 37.68 48.9996 37.9904 48.9996C38.3007 48.9996 38.5764 48.945 38.8453 48.8289C39.1142 48.7127 39.3487 48.5556 39.5487 48.3576C39.7487 48.1595 39.9074 47.9272 40.0178 47.6609C40.135 47.3945 40.1902 47.1076 40.1902 46.8139V43.4807H39.5558V47.1349Z" fill="white"/>
<path d="M44.487 46.1999C44.1353 45.2983 43.7835 44.3967 43.4249 43.4883L43.4111 43.4473H43.0801L40.7908 48.9935H41.1632L43.0663 44.4036C43.356 45.1481 43.6456 45.8857 43.9283 46.6098C44.2318 47.3884 44.542 48.1671 44.8523 48.9594L44.8661 49.0004H45.5833L45.549 48.9184C45.1904 48.01 44.8316 47.1084 44.4799 46.2068" fill="white"/>
<path d="M42.7973 42.9492L43.2044 42.4915L43.6041 42.9492H44.2802L43.3145 42.1569H43.0869L42.1215 42.9492H42.7973Z" fill="white"/>
<path d="M50.0519 43.4679V48.0306L46.9282 43.4884L46.9144 43.4679H46.1971L46.6453 44.1168V48.9869H46.9558V44.5813L49.9762 48.9664L49.99 48.9869H50.3624V43.4679H50.0519Z" fill="white"/>
<path d="M9.15841 36.8089H10.2962V39.9372H10.7169V36.8089H11.8547V36.5767H9.15841V36.8089Z" fill="white"/>
<path d="M12.9168 38.3661H14.7649V39.9371H15.1925V36.5629H14.7649V38.1339H12.9168V36.5629H12.4891V39.9371H12.9168V38.3661Z" fill="white"/>
<path d="M17.9505 39.8337C18.116 39.7654 18.2609 39.6698 18.3781 39.5468C18.5022 39.4239 18.5987 39.2805 18.6677 39.1165C18.7366 38.9526 18.771 38.7818 18.771 38.5974V36.5688H18.3434V38.7887C18.3434 38.9116 18.3227 39.0346 18.2744 39.1438C18.2261 39.2531 18.1575 39.3488 18.0747 39.4376C17.9919 39.5195 17.8953 39.5878 17.7781 39.6356C17.5574 39.7313 17.2884 39.7313 17.0608 39.6356C16.9505 39.5878 16.8469 39.5195 16.7642 39.4376C16.6814 39.3556 16.6124 39.26 16.5642 39.1438C16.5159 39.0346 16.4955 38.9184 16.4955 38.7887V36.5688H16.0678V38.5974C16.0678 38.7818 16.1023 38.9526 16.1712 39.1165C16.2402 39.2805 16.3367 39.4239 16.4608 39.5468C16.5849 39.6698 16.7298 39.7654 16.8884 39.8337C17.0539 39.902 17.2262 39.9362 17.4124 39.9362C17.5986 39.9362 17.7711 39.902 17.9366 39.8337" fill="white"/>
<path d="M21.7157 39.2609L19.8745 36.5902L19.8536 36.5629H19.3711L19.6607 36.9864V39.9371H19.895V37.3279L21.6675 39.9098L21.6813 39.9371H21.9433V36.5629H21.7157V39.2609Z" fill="white"/>
<path d="M23.1228 39.4251C23.2814 39.5822 23.4676 39.712 23.6814 39.8008C23.8952 39.8896 24.1227 39.9374 24.371 39.9374C24.6193 39.9374 24.8468 39.8896 25.0606 39.8008C25.2744 39.712 25.4606 39.5822 25.6192 39.4251C25.7778 39.268 25.9018 39.0836 25.9984 38.8718C26.088 38.6601 26.1364 38.4347 26.1364 38.1956V38.1H24.3225V38.3322H25.7431C25.7293 38.5098 25.6882 38.6874 25.6192 38.8445C25.5434 39.0153 25.44 39.1724 25.3158 39.2953C25.1917 39.4251 25.0468 39.5207 24.8882 39.5959C24.7296 39.671 24.5572 39.7052 24.371 39.7052C24.1848 39.7052 24.0053 39.6642 23.8329 39.589C23.6674 39.5139 23.5159 39.4046 23.3918 39.268C23.2677 39.1314 23.1641 38.9675 23.0952 38.7899C23.0262 38.6055 22.9847 38.4074 22.9847 38.2025C22.9847 37.9976 23.0193 37.7927 23.0952 37.6082C23.1641 37.4238 23.2677 37.2599 23.3918 37.1233C23.5159 36.9867 23.6674 36.8774 23.8329 36.8023C23.9984 36.7271 24.1779 36.6861 24.371 36.6861C24.5779 36.6861 24.7641 36.734 24.9434 36.8227C25.1227 36.9115 25.2744 37.0345 25.4054 37.1916L25.4397 37.2394L25.6468 37.0003L25.6121 36.9662C25.4535 36.8091 25.2673 36.6861 25.0535 36.5905C24.8397 36.5017 24.6124 36.4539 24.371 36.4539C24.1296 36.4539 23.8952 36.5017 23.6814 36.5905C23.4676 36.6793 23.2814 36.8091 23.1228 36.9662C22.9642 37.1233 22.8398 37.3077 22.7433 37.5194C22.6536 37.7312 22.6056 37.9566 22.6056 38.2025C22.6056 38.4484 22.6536 38.6669 22.7433 38.8787C22.8329 39.0904 22.9642 39.2748 23.1228 39.4319" fill="white"/>
<path d="M30.9432 39.7049H29.495V36.5629H29.0677V39.9371H30.9432V39.7049Z" fill="white"/>
<path d="M31.5496 39.5468C31.6737 39.6698 31.8186 39.7654 31.9772 39.8337C32.1427 39.902 32.3153 39.9362 32.5015 39.9362C32.6877 39.9362 32.8599 39.902 33.0254 39.8337C33.1909 39.7654 33.3358 39.6698 33.453 39.5468C33.5772 39.4239 33.6737 39.2805 33.7426 39.1165C33.8116 38.9526 33.846 38.7818 33.846 38.5974V36.5688H33.4187V38.7887C33.4187 38.9116 33.3911 39.0346 33.3497 39.1438C33.3014 39.2531 33.2324 39.3488 33.1497 39.4376C33.0669 39.5195 32.9702 39.5878 32.853 39.6356C32.6323 39.7313 32.3634 39.7313 32.1358 39.6356C32.0255 39.5878 31.9222 39.5195 31.8395 39.4376C31.7567 39.3556 31.6877 39.26 31.6395 39.1438C31.5912 39.0346 31.5704 38.9184 31.5704 38.7887V36.5688H31.1428V38.5974C31.1428 38.7818 31.1772 38.9526 31.2462 39.1165C31.3151 39.2805 31.4116 39.4239 31.5358 39.5468" fill="white"/>
<path d="M36.763 39.9362H37.0182V36.5688H36.7906V39.26L34.9494 36.5893L34.9356 36.5688H34.446L34.7427 36.9855V39.9362H34.9703V37.327L36.7425 39.9088L36.763 39.9362Z" fill="white"/>
<path d="M40.6937 39.4251C40.8523 39.268 40.9763 39.0836 41.0728 38.8719C41.1625 38.6601 41.2109 38.4347 41.2109 38.1956V38.1H39.3973V38.3322H40.8179C40.8041 38.5167 40.7626 38.6874 40.6937 38.8445C40.6178 39.0153 40.5144 39.1724 40.3903 39.2953C40.2662 39.4251 40.1213 39.5207 39.9627 39.5959C39.8041 39.671 39.6317 39.7052 39.4455 39.7052C39.2593 39.7052 39.0801 39.6642 38.9077 39.589C38.7422 39.5139 38.5904 39.4046 38.4663 39.268C38.3421 39.1314 38.2386 38.9743 38.1696 38.7899C38.1007 38.6055 38.0595 38.4074 38.0595 38.2025C38.0595 37.9976 38.0938 37.7927 38.1696 37.6082C38.2386 37.4238 38.3421 37.2599 38.4663 37.1233C38.5904 36.9867 38.7422 36.8774 38.9077 36.8023C39.0732 36.7271 39.2524 36.6861 39.4455 36.6861C39.6523 36.6861 39.8386 36.734 40.0179 36.8227C40.1972 36.9115 40.3488 37.0345 40.4799 37.1916L40.5142 37.2394L40.7213 37.0003L40.6866 36.9662C40.528 36.8091 40.3421 36.6861 40.1283 36.5905C39.9146 36.5017 39.6868 36.4539 39.4455 36.4539C39.2041 36.4539 38.9696 36.5017 38.7559 36.5905C38.5421 36.6793 38.3558 36.8091 38.1972 36.9662C38.0386 37.1233 37.9146 37.3077 37.8181 37.5194C37.7284 37.7312 37.68 37.9566 37.68 38.2025C37.68 38.4484 37.7284 38.6669 37.8181 38.8787C37.9077 39.0904 38.0386 39.2748 38.1972 39.4319C38.3558 39.589 38.5421 39.7188 38.7559 39.8076C38.9696 39.8964 39.1972 39.9442 39.4455 39.9442C39.6937 39.9442 39.9213 39.8964 40.1351 39.8076C40.3488 39.7188 40.5351 39.589 40.6937 39.4319" fill="white"/>
<path d="M31.5909 35.8796C31.5909 35.8796 31.6048 35.9206 31.6185 35.9411L31.6324 35.9684H31.8256L31.7704 35.8865C31.7428 35.8455 31.7359 35.8318 31.729 35.7772C31.7221 35.7089 31.729 35.6611 31.7704 35.6201C31.8049 35.5791 31.853 35.5449 31.9081 35.5313C31.9702 35.5176 32.0323 35.5176 32.1081 35.5313H32.1358C32.2047 35.5518 32.2601 35.5654 32.3152 35.6132C32.3635 35.6611 32.4117 35.7089 32.4462 35.7498C32.4669 35.7772 32.4875 35.7977 32.5082 35.8182C32.522 35.8318 32.5358 35.8455 32.5496 35.8591C32.591 35.9069 32.6325 35.9479 32.6738 35.9821C32.7221 36.0231 32.7773 36.0504 32.8462 36.0709C32.8876 36.0845 32.9288 36.0914 32.9701 36.0914C32.9908 36.0914 33.0185 36.0914 33.0392 36.0914C33.1012 36.0777 33.1566 36.0572 33.2048 36.0231C33.2531 35.9889 33.2944 35.9479 33.322 35.9001C33.3496 35.8455 33.3702 35.7908 33.3702 35.7294C33.3702 35.6952 33.3702 35.6611 33.3564 35.6201C33.3495 35.5859 33.3358 35.5449 33.3082 35.504C33.253 35.4425 33.191 35.4015 33.122 35.381H32.984L32.991 35.4971H33.0254C33.1288 35.5245 33.1772 35.5996 33.1772 35.5996C33.191 35.6269 33.1978 35.6542 33.1978 35.6816C33.1978 35.7157 33.1978 35.7362 33.184 35.7567C33.1771 35.7772 33.1632 35.7977 33.1425 35.8113C33.1288 35.825 33.108 35.8386 33.0873 35.8455C33.0666 35.8523 33.0462 35.8591 33.0324 35.8591C33.0118 35.8591 32.9908 35.8591 32.9701 35.8523C32.9564 35.8523 32.9359 35.8386 32.9015 35.8113C32.867 35.7908 32.8324 35.7567 32.791 35.7089C32.7772 35.6952 32.7634 35.6815 32.7496 35.6679C32.7151 35.6337 32.6805 35.6064 32.6391 35.5518C32.584 35.4766 32.5221 35.4357 32.46 35.4015L32.4324 35.381C32.3565 35.3332 32.2739 35.2991 32.198 35.2854C32.1153 35.2717 32.0392 35.2649 31.9634 35.2854C31.8875 35.2991 31.8187 35.3264 31.7566 35.3742C31.6945 35.4152 31.653 35.4698 31.6185 35.5381C31.5841 35.6064 31.5702 35.6815 31.5771 35.7703C31.5771 35.8113 31.5773 35.825 31.598 35.866" fill="white"/>
<path d="M35.6462 10.2169C35.5221 10.3262 35.3634 10.3877 35.191 10.3877C35.0599 10.3877 34.9358 10.3467 34.8324 10.2852C34.66 10.4287 34.4461 10.5243 34.2047 10.5243C33.8323 10.5243 33.5084 10.3126 33.3498 9.99836C33.3084 10.0052 33.2669 10.012 33.2255 10.012C33.1497 10.012 33.0738 9.99836 33.0117 9.9642C33.0186 10.7155 33.5084 11.3508 34.1842 11.5898C34.9151 11.4805 35.5012 10.9273 35.6529 10.2101" fill="#C95C68"/>
<path d="M34.8738 8.89313C34.8738 9.11171 34.6668 9.28929 34.4186 9.28929C34.1703 9.28929 33.9633 9.11171 33.9633 8.89313C33.9633 8.67456 34.1703 8.49697 34.4186 8.49697C34.6668 8.49697 34.8738 8.67456 34.8738 8.89313Z" fill="#B08F36"/>
<path d="M34.1905 8.07309C34.1905 8.29166 33.9838 8.46925 33.7355 8.46925C33.4873 8.46925 33.2803 8.29166 33.2803 8.07309C33.2803 7.85451 33.4873 7.67694 33.7355 7.67694C33.9838 7.67694 34.1905 7.85451 34.1905 8.07309Z" fill="#B08F36"/>
<path d="M33.7431 9.02276C33.7431 9.24133 33.5361 9.41892 33.2879 9.41892C33.0396 9.41892 32.833 9.24133 32.833 9.02276C32.833 8.80419 33.0396 8.62661 33.2879 8.62661C33.5361 8.62661 33.7431 8.80419 33.7431 9.02276Z" fill="#B08F36"/>
<path d="M34.5494 9.80057C34.5494 10.0191 34.3428 10.1967 34.0945 10.1967C33.8462 10.1967 33.6393 10.0191 33.6393 9.80057C33.6393 9.582 33.8462 9.40442 34.0945 9.40442C34.3428 9.40442 34.5494 9.582 34.5494 9.80057Z" fill="#B08F36"/>
<path d="M35.6803 9.6238C35.6803 9.84237 35.4733 10.02 35.225 10.02C34.9768 10.02 34.7701 9.84237 34.7701 9.6238C34.7701 9.40523 34.9768 9.22764 35.225 9.22764C35.4733 9.22764 35.6803 9.40523 35.6803 9.6238Z" fill="#B08F36"/>
<path d="M35.9695 8.68099C35.9695 8.89957 35.7625 9.07716 35.5143 9.07716C35.266 9.07716 35.0593 8.89957 35.0593 8.68099C35.0593 8.46242 35.266 8.28484 35.5143 8.28484C35.7625 8.28484 35.9695 8.46242 35.9695 8.68099Z" fill="#B08F36"/>
<path d="M35.3287 7.92283C35.3287 8.1414 35.122 8.31899 34.8738 8.31899C34.6255 8.31899 34.4185 8.1414 34.4185 7.92283C34.4185 7.70426 34.6255 7.52668 34.8738 7.52668C35.122 7.52668 35.3287 7.70426 35.3287 7.92283Z" fill="#B08F36"/>
<path d="M38.1696 10.4091C37.9007 10.7096 37.5834 10.9623 37.2248 11.1604C36.6869 11.461 36.0665 11.6317 35.4045 11.6317C35.3424 11.6317 35.2803 11.6317 35.2183 11.6249C34.8183 11.8913 34.3494 12.0757 33.8529 12.1508C34.4114 12.5401 35.0873 12.7724 35.8183 12.7724C36.9079 12.7724 37.8731 12.2669 38.5006 11.4814C38.5006 11.4746 38.5146 11.4678 38.5215 11.4541C38.5974 11.3448 38.6387 11.2082 38.6387 11.0648C38.6387 10.7643 38.4455 10.5047 38.1696 10.4091Z" fill="#C95C68"/>
<path d="M33.4463 11.7888C33.3221 11.6249 33.1776 11.4746 33.019 11.3448C32.819 11.1809 32.5913 11.0511 32.3499 10.9487C32.3361 10.9487 32.3293 10.9418 32.3156 10.935C32.2949 10.9282 32.267 10.9145 32.2395 10.9077C32.0671 10.8462 31.8879 10.7984 31.7017 10.7779C31.5155 10.7233 31.3362 10.655 31.1569 10.5798C31.1224 10.573 31.0811 10.5593 31.0397 10.5593C30.8949 10.5593 30.7777 10.655 30.7363 10.7847C30.7363 10.7984 30.7294 10.8189 30.7225 10.8326C30.7225 10.8462 30.7225 10.8599 30.7225 10.8735C30.7225 10.8804 30.7225 10.894 30.7225 10.9009C30.7225 10.935 30.7087 10.9692 30.7087 11.0033C30.7087 11.3927 30.9016 11.741 31.205 11.9527C31.2464 11.9801 31.2879 12.0006 31.3293 12.0279C31.3362 12.0279 31.3431 12.0347 31.3569 12.0415C31.6328 12.2055 31.9362 12.3352 32.2603 12.4172C32.5362 12.4855 32.8256 12.5333 33.1291 12.5333C33.336 12.5333 33.5429 12.5128 33.7429 12.4787C33.5774 12.2943 33.474 12.0552 33.4671 11.7888" fill="#C95C68"/>
<path d="M32.5628 6.24871C32.3077 5.85938 31.8663 5.59983 31.356 5.59983C31.3422 5.59983 31.3355 5.59983 31.3217 5.59983C30.5424 5.62032 29.9216 6.24872 29.9216 7.02054C29.9216 7.09568 29.9287 7.16398 29.9425 7.23911C29.9838 7.51915 30.1149 7.77871 30.3011 7.97679C30.4252 7.93581 30.5628 7.90848 30.7008 7.90165C30.749 7.90165 30.7905 7.90165 30.8388 7.90165C30.9698 7.90165 31.0938 7.91532 31.218 7.94264C31.5007 8.00412 31.7561 8.13389 31.9699 8.31148C32.2112 8.19536 32.418 8.01777 32.5628 7.7992C32.487 7.55331 32.4524 7.29375 32.4524 7.02737C32.4524 6.76099 32.4939 6.50144 32.5628 6.25555" fill="#C95C68"/>
<path d="M30.5087 8.36631C30.4121 8.36631 30.3157 8.37314 30.2191 8.3868C29.8674 8.41412 29.5847 8.70099 29.5847 9.05617C29.5847 9.20644 29.6399 9.34987 29.7295 9.45916C29.7295 9.45916 29.7639 9.50014 29.7777 9.5138C29.7777 9.5138 29.7846 9.52746 29.7915 9.52746C30.3638 10.108 31.1636 10.4701 32.0532 10.4701C32.267 10.4701 32.4742 10.4496 32.6741 10.4086C32.6259 9.26792 31.6741 8.35948 30.5087 8.35948" fill="#C95C68"/>
<path d="M38.1492 7.23205C38.0251 7.23205 37.901 7.25254 37.7906 7.2867C37.7217 7.30719 37.6594 7.33451 37.5973 7.36866C37.5767 7.38232 37.5561 7.38915 37.5354 7.40281C37.0389 7.65553 36.632 8.0517 36.37 8.53665C36.4459 8.77571 36.4942 9.02844 36.4942 9.29482C36.4942 9.74562 36.37 10.1623 36.1562 10.5243C36.1286 10.5721 36.1009 10.6131 36.0733 10.6609C36.1147 10.6609 36.156 10.6609 36.1905 10.6541C37.2663 10.5379 38.2388 10.0598 38.9698 9.34263C38.9767 9.3358 38.9835 9.32897 38.9904 9.32214C39.011 9.30164 39.0387 9.27433 39.0594 9.25384C39.2525 9.0421 39.3698 8.76205 39.3698 8.45469C39.3698 7.78532 38.825 7.24572 38.1492 7.24572" fill="#C95C68"/>
<path d="M35.3494 3.89985C34.9563 3.89985 34.5909 3.99547 34.2668 4.16623C33.8462 4.41895 33.5011 4.7673 33.2597 5.19078C33.0252 5.6006 32.8943 6.0719 32.8943 6.57051C32.8943 6.87105 32.9428 7.15793 33.0324 7.43114C33.1152 7.3765 33.1977 7.32868 33.2873 7.2877C33.6045 7.1306 33.9562 7.04181 34.3355 7.04181C35.1217 7.04181 35.9148 7.5814 36.3424 8.16881C36.6113 7.45163 37.3491 7.02815 37.5835 6.93252C37.6387 6.7481 37.694 6.28364 37.694 6.21533C37.694 4.93806 36.6457 3.89985 35.3561 3.89985" fill="#C95C68"/>
<path d="M30.4879 10.6009C30.1638 10.4779 29.8946 10.2457 29.7222 9.94516C29.6601 9.83588 29.6119 9.71293 29.5774 9.58316C29.5705 9.64463 29.5636 9.71293 29.5636 9.78123C29.5636 10.3345 29.8878 10.8126 30.3499 11.0517C30.3499 11.038 30.3499 11.0244 30.3499 11.0107C30.3499 10.8604 30.3983 10.7238 30.4879 10.6145C30.4879 10.6145 30.4876 10.6145 30.5014 10.6077" fill="#C95C68"/>
<path d="M30.2468 28.7219C30.0331 28.2301 29.5365 27.9501 29.0262 27.9774C28.8193 28.1687 28.6812 28.4282 28.6467 28.7083C28.6191 28.9268 28.647 29.1522 28.7366 29.3708C28.9504 29.8626 29.4469 30.1426 29.9572 30.1153C30.2193 29.8694 30.364 29.5279 30.3502 29.1727C30.3502 29.0225 30.3158 28.8722 30.2468 28.7288" fill="#C95C68"/>
<path d="M40.8524 14.6089C40.8179 14.4655 40.6869 14.3493 40.5352 14.3289C40.5214 14.3289 40.5075 14.3289 40.4938 14.3289C40.4938 14.3289 40.4801 14.3289 40.4732 14.3289C39.3147 14.2879 38.149 14.7114 37.2801 15.5993C36.4181 16.4804 36.0321 17.6484 36.108 18.7822H36.0871C36.0871 18.7822 36.0871 18.8027 36.0871 18.8164C36.0871 18.953 36.0112 19.0759 35.9009 19.1443C35.8871 19.1443 35.8734 19.1579 35.8665 19.1647C35.8527 19.1716 35.8389 19.1784 35.8251 19.1852C35.6113 19.2945 35.3976 19.397 35.1769 19.4858C33.9356 20.0254 32.5771 20.3532 31.1565 20.4284C31.1358 20.4284 31.1152 20.4284 31.0945 20.4215C31.4462 20.1551 31.7841 19.8546 32.1013 19.5336C32.5633 19.0623 32.9633 18.55 33.2943 18.0104C33.8046 17.1839 34.17 16.296 34.3907 15.3807C34.3976 15.3534 34.4047 15.3261 34.4116 15.2988V15.2851C34.4116 15.2715 34.4116 15.251 34.4116 15.2373C34.4116 14.9777 34.2046 14.7592 33.9425 14.7523C33.7149 14.7523 33.515 14.9026 33.4667 15.1144C33.315 15.7632 33.0873 16.3985 32.77 16.9995C32.4183 17.6689 31.9703 18.3041 31.4117 18.871C30.798 19.4994 30.1013 20.0049 29.3634 20.3942C29.3496 20.401 29.3291 20.4147 29.3153 20.4215L27.5913 20.3805C27.6947 20.3122 27.7914 20.2371 27.8879 20.1551C28.9499 19.2945 29.6739 18.0446 29.8187 16.6102C29.8187 16.6102 29.8187 16.6034 29.8187 16.5965C29.8187 16.3233 29.6049 16.0911 29.3291 16.0911C29.067 16.0911 28.8531 16.2755 28.8186 16.5282H28.8119C28.6602 17.9353 27.8189 19.1374 26.6259 19.8C26.1707 20.0527 25.6672 20.2234 25.1362 20.2986C25.0742 20.3054 25.0052 20.3122 24.9362 20.3191L23.9089 20.2986L22.7297 20.2713C22.7297 20.2713 22.6674 20.2576 22.6398 20.2508C22.7294 20.1825 22.8193 20.1073 22.9021 20.0322C22.971 19.9707 23.0399 19.9024 23.1088 19.8341C23.2468 19.6907 23.3708 19.5472 23.488 19.3901C23.6949 19.1101 23.8743 18.8164 24.0123 18.509C24.2812 17.8943 24.4123 17.2386 24.3985 16.5829C24.3985 16.5146 24.3983 16.4394 24.3914 16.3711C24.3914 16.3711 24.3914 16.3301 24.3914 16.3028C24.3914 16.1799 24.4465 16.0706 24.5224 15.9886C24.55 15.9613 24.5847 15.9408 24.6123 15.9135C25.226 15.3876 25.6189 14.6089 25.6396 13.7414C25.6534 13.0174 25.4052 12.3412 24.9776 11.8221C24.7777 11.5762 24.5294 11.3577 24.2604 11.1869C24.2397 11.1732 24.2192 11.1596 24.1985 11.1528C24.1295 11.1118 24.0603 11.0776 23.9914 11.0366C23.9155 11.0708 23.84 11.1118 23.7641 11.1528C23.7641 11.1528 23.7639 11.1528 23.757 11.1528C23.295 11.4055 22.9089 11.7811 22.633 12.2388C22.5089 12.4437 22.4124 12.6623 22.3435 12.9013C22.2676 13.1472 22.2261 13.4068 22.2192 13.68C22.2192 13.7893 22.2192 13.8917 22.233 14.001C22.302 14.7797 22.6743 15.4832 23.2398 15.9681C23.2536 15.9818 23.2674 15.9955 23.2812 16.0023C23.364 16.0774 23.4122 16.1867 23.426 16.3028C23.426 16.3165 23.426 16.337 23.426 16.3506C23.426 16.4121 23.4329 16.4736 23.4398 16.5351C23.4605 17.0063 23.3848 17.4845 23.2193 17.9353C23.102 18.2563 22.9297 18.5637 22.7159 18.8437C22.6262 18.9598 22.5294 19.076 22.426 19.1784C22.2949 19.315 22.1573 19.438 22.0125 19.5472C21.7642 19.7317 21.5021 19.8819 21.2262 19.998C21.178 20.0185 21.1295 20.039 21.0882 20.0527C21.0882 20.0527 21.0675 20.0527 21.0606 20.0527C21.0468 20.0527 21.04 20.0527 21.0262 20.0527C20.6125 20.0527 20.2125 20.0732 19.8194 20.1278C19.6263 20.1551 19.4402 20.1893 19.2541 20.2303C18.7368 20.3464 18.2401 20.5172 17.7711 20.7357C15.6885 21.7056 14.1302 23.6113 13.6682 25.9131C13.6682 25.9336 13.6682 25.9473 13.6544 25.9678C13.6544 25.9814 13.6544 26.0019 13.6544 26.0156C13.6544 26.2956 13.875 26.5278 14.1578 26.5347C14.3922 26.5347 14.5922 26.3912 14.6612 26.1863C14.6612 26.1658 14.675 26.1454 14.675 26.1317C14.675 26.118 14.6748 26.0975 14.6817 26.0839C15.2403 23.5635 17.3093 21.6168 19.8884 21.207C20.1505 21.207 20.4057 21.1797 20.6609 21.1319C20.785 21.1319 20.9157 21.1319 21.0468 21.1319C21.1364 21.1319 21.2261 21.1319 21.3158 21.1455C21.3434 21.1592 21.371 21.1797 21.3986 21.1934C21.3986 21.1797 21.3917 21.166 21.3848 21.1524C22.4951 21.2343 23.5156 21.5963 24.3914 22.1633C24.9569 22.5321 25.4604 22.9897 25.8811 23.5088C26.2328 23.946 26.5293 24.4309 26.7569 24.95C26.7982 25.0525 26.8394 25.155 26.8808 25.2574C26.3705 25.7629 26.0189 26.4391 25.9292 27.1972C25.9292 27.245 25.9154 27.2997 25.9154 27.3475C25.8533 28.1398 26.0812 28.8911 26.5087 29.4922C26.5639 29.5605 26.6395 29.6015 26.736 29.6015C26.805 29.6015 26.867 29.581 26.9222 29.54C26.9222 29.54 26.9291 29.5332 26.936 29.5264C27.3498 29.1917 27.6878 28.7614 27.9085 28.2696C28.074 27.9008 28.1843 27.5046 28.2118 27.0811C28.2256 26.8967 28.2256 26.7123 28.2118 26.5279C28.2256 26.5347 28.2327 26.5483 28.2465 26.5552C28.3362 26.6371 28.4327 26.7123 28.5361 26.7806C29.3498 27.3475 30.3152 27.5319 31.2255 27.3612C31.2531 27.3612 31.2875 27.3543 31.3151 27.3407C31.4254 27.2997 31.5083 27.1972 31.5083 27.0743C31.5083 27.047 31.5082 27.0196 31.5013 26.9923V26.9787C31.3013 26.2751 30.8599 25.6399 30.2116 25.1891C29.4738 24.6768 28.5979 24.4992 27.7704 24.629C27.5842 24.1714 27.3568 23.7411 27.0879 23.3313C26.8258 22.9351 26.5222 22.5663 26.1912 22.2316C25.8533 21.8901 25.4881 21.5895 25.0881 21.3163C25.095 21.3163 25.1088 21.3163 25.1157 21.3163V21.3436L28.0809 21.4256L28.4876 21.4392H28.4738L29.4048 21.4529L30.1083 21.4734C30.1565 21.4734 30.205 21.4734 30.2601 21.4734C30.2877 21.4734 30.315 21.4734 30.3426 21.4734C31.2253 21.4871 32.0875 21.4119 32.9219 21.2548C34.1563 21.0226 35.3287 20.6128 36.4113 20.0527C36.57 19.9707 36.7285 19.8819 36.8871 19.7931C37.9491 19.7658 39.0111 19.3423 39.8041 18.5227C40.4731 17.8397 40.8523 16.9859 40.9557 16.1116C41.0178 15.613 40.9832 15.1075 40.8591 14.6226" fill="white"/>
<path d="M9.32382 15.1558C9.32382 15.1558 9.33763 15.1831 9.34453 15.1968C9.34453 15.1968 9.35144 15.2036 9.35833 15.2104C9.35833 15.2104 9.37214 15.2241 9.37214 15.2309C9.37214 15.2309 9.38578 15.2377 9.39268 15.2446C9.39268 15.2446 9.39959 15.2514 9.40648 15.2582C9.41338 15.2582 9.4203 15.2651 9.4341 15.2719C9.4341 15.2719 9.44101 15.2719 9.4479 15.2719C9.4548 15.2719 9.46862 15.2787 9.48242 15.2856C9.49621 15.2856 9.51003 15.2856 9.51693 15.2856C9.51693 15.2856 9.54439 15.2856 9.55818 15.2856C9.55818 15.2856 9.5858 15.2856 9.59959 15.2787C9.95819 15.1353 10.3168 15.0123 10.6754 14.9236C10.8202 14.8894 10.9581 14.8552 11.1029 14.8279C11.3994 14.7733 11.696 14.7323 11.9856 14.7118C12.0752 14.2337 12.2063 13.7624 12.3649 13.2979C12.0477 13.257 11.7306 13.2296 11.4133 13.216C11.2271 13.216 11.034 13.2091 10.8409 13.216C10.372 13.2296 9.89612 13.2774 9.42029 13.3594C9.42029 13.3594 9.37903 13.3731 9.36524 13.3799C9.2549 13.4277 9.18593 13.537 9.17903 13.6463C9.17903 14.1244 9.22725 14.6094 9.30311 15.0875C9.30311 15.0875 9.30311 15.108 9.30311 15.1216C9.30311 15.1353 9.30312 15.149 9.31692 15.1558" fill="white"/>
<path d="M12.1651 9.86872C12.2616 9.71162 12.3652 9.56135 12.4686 9.41108C12.7031 9.0764 12.9651 8.75537 13.2409 8.448C12.7513 8.35238 12.2548 8.2909 11.7583 8.26358C11.6618 8.25675 11.5582 8.26359 11.4617 8.30457C11.3789 8.34555 11.3032 8.4002 11.2549 8.47533C10.9308 8.87149 10.6412 9.28814 10.386 9.71845C10.7998 9.71845 11.2134 9.73894 11.6272 9.79358C11.8134 9.81407 11.9927 9.84139 12.172 9.87554" fill="white"/>
<path d="M13.9993 10.3755C14.3303 10.5053 14.6545 10.6419 14.9717 10.8058C15.3717 10.3687 15.813 9.97251 16.2957 9.60367C16.3026 9.59684 16.3164 9.59001 16.3233 9.58318C16.3233 9.58318 16.3302 9.57634 16.3371 9.56951C16.2337 9.51487 16.1301 9.46024 16.0266 9.40559C15.8129 9.25533 15.5921 9.10505 15.3714 8.97528C15.1231 8.82501 14.875 8.6884 14.6198 8.55863C14.6129 8.55863 14.5991 8.54496 14.5922 8.54496C14.5233 8.51764 14.4474 8.51764 14.3784 8.54496C14.3577 8.55179 14.344 8.56546 14.3302 8.57229C14.3165 8.58595 14.3026 8.59277 14.2888 8.60643C14.2612 8.62692 14.2338 8.65425 14.2131 8.68157C14.0545 8.83184 13.8959 8.98211 13.7511 9.13921C13.4821 9.42608 13.2269 9.72661 12.9925 10.0408C13.3373 10.1296 13.675 10.2389 14.006 10.3687" fill="white"/>
<path d="M16.5853 10.2047C16.2198 10.4916 15.8748 10.7989 15.5576 11.1336C15.4266 11.2702 15.3026 11.4137 15.1784 11.5571C14.9716 11.803 14.7853 12.0489 14.606 12.3153C15.0612 12.5065 15.5026 12.7251 15.9233 12.9778C16.137 12.7729 16.3646 12.5817 16.5991 12.4041C16.7163 12.3153 16.8335 12.2333 16.9577 12.1513C17.2611 11.9464 17.585 11.762 17.9298 11.5981C18.0401 11.5434 18.0954 11.4137 18.0402 11.3044C18.0402 11.2907 18.0266 11.2771 18.0197 11.2702C18.0197 11.2702 18.0059 11.2566 18.0059 11.2497C17.7025 10.8809 17.3715 10.5394 17.0267 10.2183C17.0267 10.2183 17.0198 10.2115 17.0129 10.2047C16.9232 10.1296 16.7921 10.1091 16.6748 10.1569C16.6541 10.1637 16.6403 10.1774 16.6196 10.1842C16.6196 10.1842 16.6127 10.191 16.6058 10.1979C16.6058 10.1979 16.5922 10.2047 16.5853 10.2115" fill="white"/>
<path d="M9.21343 12.7454C9.80649 12.6293 10.4065 12.5746 10.9996 12.5678C11.0892 12.2263 11.1995 11.8916 11.3237 11.5637C11.4478 11.2359 11.5927 10.908 11.7582 10.5938C11.3651 10.5597 10.9721 10.5392 10.5721 10.5528C10.3514 10.5528 10.1375 10.5665 9.91684 10.587C9.88236 10.587 9.84795 10.587 9.81347 10.5938C9.79278 10.5938 9.77893 10.5938 9.75825 10.5938C9.73756 10.5938 9.72388 10.6006 9.70319 10.6143C9.63423 10.6484 9.57892 10.7031 9.55823 10.7714C9.55823 10.7782 9.55823 10.7919 9.55133 10.7987C9.47547 11.0719 9.41356 11.352 9.35839 11.632C9.31012 11.8916 9.27553 12.1443 9.24795 12.4038C9.22036 12.5131 9.19286 12.6292 9.16528 12.7385C9.16528 12.7385 9.17909 12.7385 9.18599 12.7385C9.19978 12.7385 9.20654 12.7385 9.22033 12.7385" fill="white"/>
<path d="M9.51687 16.1046C9.51687 16.1046 9.5567 16.0713 9.58333 16.058C9.56336 16.0713 9.53683 16.078 9.51687 16.0913V16.1046Z" fill="white"/>
<path d="M13.2406 12.2536C13.4475 12.1648 13.6752 12.1784 13.8545 12.2672C13.8959 12.1989 13.937 12.1375 13.9784 12.076C14.1577 11.8028 14.351 11.5364 14.5579 11.2837C14.2338 11.1539 13.9095 11.0378 13.5716 10.9421C13.3716 10.8875 13.1717 10.8329 12.9718 10.7919C12.9166 10.7714 12.8614 10.7577 12.8063 10.7577C12.7304 10.7577 12.6545 10.7714 12.5786 10.7987C12.5028 10.8329 12.4407 10.8807 12.3924 10.9353C12.358 10.9763 12.3303 11.0309 12.3096 11.0788C12.2062 11.2563 12.1097 11.4408 12.02 11.6252C11.8683 11.9325 11.7372 12.2536 11.62 12.5814C11.951 12.5951 12.2821 12.6292 12.6063 12.6839C12.6821 12.6975 12.7578 12.7044 12.8337 12.718C12.882 12.52 13.0268 12.3424 13.2337 12.2536" fill="white"/>
<path d="M13.4339 14.7395C13.7787 14.7805 14.1167 14.842 14.4478 14.9239C14.6064 14.6234 14.7855 14.3297 14.9855 14.0497C15.1165 13.8721 15.2545 13.6945 15.3993 13.5237C14.9994 13.3325 14.5857 13.1685 14.1582 13.0388C14.0134 12.991 13.8684 12.95 13.7167 12.909C13.7029 12.909 13.6891 12.9022 13.6753 12.8953C13.6339 12.8885 13.5859 12.8953 13.5376 12.9158C13.4962 12.9363 13.4615 12.9636 13.4339 13.0046C13.427 13.0183 13.4202 13.0319 13.4133 13.0456C13.3444 13.1822 13.2754 13.3188 13.2133 13.4554C13.034 13.8584 12.8755 14.2751 12.7514 14.6917C12.9789 14.6917 13.1996 14.7122 13.4272 14.7395" fill="white"/>
<path d="M18.9157 12.2265C18.8536 12.1241 18.7433 12.0694 18.6261 12.0763C18.5985 12.0763 18.5708 12.0763 18.5432 12.0899C18.5294 12.0899 18.5225 12.0967 18.5156 12.1036C18.5156 12.1036 18.502 12.1036 18.4951 12.1104C18.4675 12.1241 18.4469 12.1309 18.4193 12.1446C18.0883 12.288 17.7779 12.4588 17.4883 12.6432C17.3849 12.7115 17.2815 12.7798 17.1849 12.8481C16.9573 13.012 16.7364 13.1828 16.5364 13.374C16.364 13.5311 16.2054 13.6951 16.0468 13.8658C15.8951 14.0297 15.7573 14.2005 15.6262 14.3781C15.4469 14.624 15.2885 14.8767 15.1437 15.1363C16.3229 15.5529 17.3918 16.2633 18.2331 17.2127C18.3228 17.0966 18.4053 16.9804 18.488 16.8575C18.619 16.6526 18.7363 16.4408 18.8328 16.2291C18.888 16.113 18.9362 16.0037 18.9776 15.8808C19.0673 15.6485 19.1363 15.4026 19.1914 15.1567C19.1983 15.1158 19.2054 15.0816 19.2123 15.0406C19.3433 14.3644 19.3293 13.6541 19.1638 12.9642C19.1087 12.7456 19.0398 12.5271 18.9571 12.3153C18.9571 12.2948 18.9434 12.2812 18.9365 12.2607C18.9365 12.247 18.9227 12.2402 18.9227 12.2265" fill="white"/>
<path d="M14.144 15.5795C13.8474 15.5112 13.5509 15.4634 13.2474 15.4293C13.0268 15.4088 12.8061 15.3951 12.5785 15.3951C12.351 15.3951 12.1165 15.402 11.882 15.4293C11.6062 15.4566 11.3304 15.4976 11.0545 15.559C10.9373 15.5864 10.8132 15.6137 10.6959 15.6478C10.358 15.7366 10.0271 15.8596 9.70295 16.003C9.67537 16.0167 9.6546 16.0235 9.62702 16.0372C9.62702 16.0372 9.61321 16.0372 9.60631 16.044C9.59941 16.044 9.5856 16.0508 9.5787 16.0577C9.55112 16.0713 9.53053 16.0918 9.50984 16.1055C9.42709 16.1874 9.39253 16.3104 9.42701 16.4197C9.42701 16.4333 9.43392 16.4402 9.44081 16.4538C9.44771 16.4743 9.46153 16.488 9.46842 16.5085C9.57186 16.7134 9.6891 16.9115 9.82013 17.0959C10.227 17.6833 10.7511 18.1614 11.351 18.5166C11.3855 18.5371 11.4199 18.5576 11.4544 18.5781C11.6751 18.701 11.9026 18.8103 12.1371 18.9059C12.2543 18.9537 12.3716 18.9947 12.4957 19.0289C12.7233 19.0972 12.9647 19.1518 13.1991 19.1928C13.3439 19.2133 13.4887 19.2338 13.6335 19.2474C13.4818 17.9906 13.6612 16.7339 14.1302 15.5864" fill="white"/>
<path d="M17.5169 17.4987C16.8549 16.802 16.0547 16.2624 15.172 15.9072C15.1444 15.8936 15.117 15.8799 15.0895 15.8731C15.0205 15.8594 14.9513 15.8594 14.8824 15.8936C14.8134 15.9277 14.7584 15.9755 14.7309 16.037C14.7171 16.0643 14.7101 16.0916 14.7032 16.119C14.386 17.0069 14.2548 17.9632 14.3376 18.9194C14.3376 18.9604 14.3445 19.0014 14.3652 19.0355C14.4203 19.1585 14.5515 19.2268 14.6756 19.2131C15.1859 19.1517 15.696 19.015 16.1926 18.7965C16.6822 18.5779 17.1238 18.2979 17.5031 17.97C17.5031 17.97 17.51 17.9632 17.5169 17.9563C17.6134 17.8675 17.6478 17.7241 17.5926 17.6012C17.5858 17.5807 17.5721 17.5602 17.5583 17.5465C17.5445 17.526 17.5305 17.5124 17.5098 17.4987" fill="white"/>
<path d="M28.3632 4.15342C28.0874 4.15342 27.8391 4.04413 27.6598 3.86655C27.6391 3.83922 27.6115 3.8119 27.5908 3.79141C27.5908 3.78458 27.5768 3.77775 27.5699 3.77092C27.5147 3.70945 27.4597 3.64797 27.3908 3.60016C27.2321 3.45673 27.0597 3.33378 26.8736 3.22449C26.8736 2.82833 26.5494 2.51413 26.1563 2.51413C25.9081 2.51413 25.6873 2.64391 25.5563 2.83516C25.5011 2.83516 25.4391 2.83516 25.3839 2.83516C25.2046 2.83516 25.0253 2.84882 24.8529 2.88297C24.777 2.89663 24.7082 2.91029 24.6323 2.93078C24.3496 3.00592 24.0875 3.11521 23.8461 3.25865C23.1427 3.6753 22.6325 4.37198 22.4601 5.19162C22.4188 5.38287 22.3979 5.58096 22.3979 5.78587C22.3979 6.38694 22.5775 6.94019 22.8878 7.40466C23.3429 7.01533 23.7083 6.52355 23.9565 5.97029C24.0462 5.77221 24.1152 5.5673 24.1704 5.35556C23.9359 5.3214 23.7565 5.12332 23.7565 4.88426C23.7565 4.85694 23.7565 4.83645 23.7565 4.80913C23.7772 4.69984 23.8325 4.59739 23.9084 4.52909C23.9911 4.45396 24.1014 4.40614 24.2256 4.40614C24.2463 4.40614 24.2668 4.40614 24.2875 4.40614C24.3496 4.41297 24.4117 4.43346 24.4599 4.46761C24.5082 4.49493 24.5564 4.52908 24.5909 4.5769C24.653 4.6452 24.6876 4.73399 24.7014 4.82962C24.7014 4.84328 24.7014 4.86377 24.7014 4.87743C24.7014 4.91842 24.7013 4.95939 24.6876 5.00037C24.6669 5.08234 24.6255 5.15064 24.5704 5.20529C24.5497 5.22578 24.5289 5.24627 24.5014 5.25993C24.4393 5.5673 24.3426 5.861 24.2185 6.14788C23.9634 6.74212 23.584 7.26805 23.1151 7.70519C23.0806 7.73252 23.0532 7.75983 23.0188 7.78716C23.0877 7.80765 23.1635 7.82814 23.2393 7.8418C23.3221 7.85546 23.4047 7.86229 23.4875 7.86229C24.1771 7.86229 24.7635 7.41149 24.9704 6.79676C24.9842 6.76261 24.9908 6.72845 24.9977 6.68747C24.9977 6.66015 25.0115 6.63283 25.0115 6.60551C25.1425 6.25716 25.4804 6.01127 25.8735 6.01127C25.9356 6.01127 25.9976 6.01127 26.0597 6.03176C26.2321 6.07274 26.4116 6.09323 26.5978 6.09323C27.2805 6.09323 27.8873 5.7927 28.2942 5.30775C28.5976 4.95257 28.7838 4.5086 28.8114 4.01681C28.6666 4.09878 28.5011 4.14658 28.3218 4.14658" fill="#DB9E98"/>
<path d="M21.1787 0.457632C21.0821 0.457632 20.9922 0.457631 20.9026 0.478122C20.9026 0.478122 20.8476 0.478122 20.8201 0.478122C20.6132 0.478122 20.4339 0.396163 20.3029 0.259556C20.1718 0.102458 19.9718 0 19.7442 0C19.3443 0 19.02 0.321028 19.02 0.717188C19.02 0.75817 19.02 0.805984 19.0338 0.846966C19.0476 0.908439 19.0614 0.963082 19.089 1.01772C19.089 1.03139 19.089 1.04504 19.089 1.05187C19.089 1.2841 18.9029 1.46852 18.6684 1.46852C18.6339 1.46852 18.5925 1.46853 18.558 1.45487C18.5373 1.45487 18.5096 1.4412 18.4889 1.42754C18.3855 1.39339 18.2754 1.37973 18.165 1.37973C17.5582 1.37973 17.0683 1.86468 17.0683 2.46575C17.0683 2.54772 17.0752 2.62285 17.0959 2.69798C17.0959 2.73897 17.1097 2.76628 17.1097 2.80043C17.1097 2.99851 16.9856 3.16928 16.8063 3.23759C16.6202 3.30589 16.4892 3.48348 16.4892 3.69522C16.4892 3.9616 16.7098 4.18017 16.9787 4.18017C17.0615 4.18017 17.1445 4.15968 17.2134 4.1187C17.5376 3.97526 17.9029 3.89329 18.2822 3.89329C19.2821 3.89329 20.1509 4.46021 20.5854 5.27985L20.5924 5.29352C20.5924 5.25936 20.5924 5.23204 20.5924 5.19789C20.5924 5.18423 20.5924 5.16373 20.5924 5.15007C20.5924 4.87003 20.5855 4.58316 20.5648 4.30995C20.5372 3.92062 20.4888 3.53812 20.4268 3.16245C20.2061 3.12147 20.0406 2.93022 20.0406 2.69798C20.0406 2.43843 20.2545 2.21986 20.5234 2.21986C20.7924 2.21986 21.0063 2.4316 21.0063 2.69798C21.0063 2.84825 20.9304 2.98486 20.8201 3.07365C20.8959 3.5108 20.9578 3.94794 20.9854 4.39874C20.9854 4.48754 20.9992 4.57633 20.9992 4.67195C21.013 4.89052 21.0197 5.10226 21.0197 5.32083C21.0197 5.45744 21.0197 5.59405 21.0197 5.73066C21.068 5.74432 21.1166 5.75115 21.1649 5.75115C21.4683 5.75115 21.7163 5.50525 21.7232 5.20472C21.7232 5.20472 21.7232 5.20472 21.7232 5.19789C21.7232 5.13642 21.7166 5.08178 21.6959 5.02713C21.6821 4.90419 21.6821 4.78124 21.6959 4.65146C21.7028 4.54218 21.7233 4.43972 21.744 4.33726C21.9164 3.62008 22.4682 3.05316 23.1647 2.84825C23.1922 2.71164 23.2128 2.56821 23.2128 2.42477C23.2128 1.33192 22.3164 0.443968 21.213 0.443968" fill="#DB9E98"/>
<path d="M21.7365 8.47539C21.5503 7.15031 20.7641 6.01646 19.6539 5.35392C19.6332 5.34026 19.6126 5.33343 19.5919 5.31977C18.9092 4.98508 18.1437 4.787 17.3369 4.75285C17.3162 4.75285 17.2956 4.75285 17.2749 4.75285C17.2129 4.75285 17.1437 4.75285 17.0816 4.75285C16.8127 4.75285 16.544 4.77334 16.2819 4.80749C16.2199 4.81432 16.1507 4.82116 16.0887 4.82116C15.8335 4.82116 15.5921 4.75969 15.3852 4.64357C15.2542 4.57527 15.1372 4.48647 15.0337 4.38401C15.0889 4.61625 15.1715 4.83482 15.2819 5.03973C15.3164 5.10804 15.3579 5.17633 15.4061 5.23781C15.4544 5.31294 15.5094 5.38808 15.5715 5.45638C15.599 5.49053 15.6269 5.52468 15.6614 5.55883C15.7027 5.59982 15.7439 5.64763 15.7853 5.68861C16.0059 5.90035 16.2681 6.07111 16.5577 6.18722C16.5991 6.84977 17.1508 7.38253 17.8335 7.38253H17.8474C17.8405 7.44401 17.8335 7.50548 17.8335 7.56696C17.8335 8.23633 18.3851 8.78276 19.0609 8.78276C19.1505 8.78276 19.2334 8.77592 19.3161 8.75543V8.76227C19.3713 8.74861 19.4196 8.74177 19.4747 8.73494C19.5368 8.73494 19.5987 8.72811 19.6677 8.72811C19.7711 8.72811 19.8748 8.73494 19.9714 8.7486C20.3231 8.79642 20.6471 8.92619 20.923 9.12427C21.0126 9.18575 21.0885 9.25405 21.1644 9.32235C21.0885 9.18574 21.0125 9.04914 20.9297 8.91253C20.7159 8.57102 20.4745 8.25682 20.2125 7.95628C20.0608 7.78552 19.8953 7.62159 19.7229 7.4645C19.6677 7.48499 19.5987 7.49865 19.5367 7.49865C19.2539 7.49865 19.0195 7.26642 19.0195 6.98637C19.0195 6.95905 19.0197 6.93173 19.0266 6.90441C19.0472 6.76098 19.1369 6.63119 19.2542 6.55606C19.3369 6.50142 19.4332 6.4741 19.5367 6.4741C19.5643 6.4741 19.5852 6.4741 19.6128 6.4741C19.8059 6.50142 19.9642 6.63803 20.0263 6.82245C20.0401 6.87026 20.0539 6.9249 20.0539 6.97955C20.0539 7.04102 20.0402 7.1025 20.0195 7.16397C20.1023 7.2391 20.185 7.32106 20.2677 7.40302C20.6125 7.75137 20.9227 8.12704 21.1917 8.53686C21.3572 8.78959 21.509 9.05597 21.6469 9.32919C21.6469 9.32919 21.6813 9.36333 21.7089 9.36333C21.7434 9.36333 21.771 9.33601 21.7779 9.30186C21.7779 9.22673 21.7779 9.15159 21.7779 9.06963C21.7779 8.87155 21.7641 8.67347 21.7365 8.47539Z" fill="#DB9E98"/>
</svg>
