<svg width="53" height="51" viewBox="0 0 53 51" fill="none" xmlns="http://www.w3.org/2000/svg">
<path d="M3.47478 41.6429L0.268285 35.0387C0.220118 34.9364 0.123858 34.8274 0 34.7252H1.20418C1.16977 34.8001 1.14907 34.8683 1.14907 34.9433C1.14907 34.9841 1.14909 35.0114 1.16285 35.0387L3.82571 40.3479L6.66766 35.025C6.69518 34.991 6.70898 34.9569 6.70898 34.9228C6.70898 34.8342 6.66084 34.7729 6.55762 34.7252H7.3351C7.16307 34.8001 7.03918 34.9092 6.96349 35.0591L3.47478 41.6429Z" fill="white"/>
<path d="M9.20683 35.0387V41.2884C9.20683 41.3702 9.26187 41.4656 9.36508 41.5883H8.1678C8.27101 41.4656 8.32605 41.3702 8.32605 41.2884V35.0387C8.32605 34.9569 8.27101 34.8546 8.1678 34.7252H9.36508C9.26187 34.8478 9.20683 34.9501 9.20683 35.0387Z" fill="white"/>
<path d="M17.182 41.7168L11.1611 35.5215V41.2874C11.1611 41.4305 11.2367 41.5259 11.3881 41.5873H10.6037C10.7826 41.5191 10.8653 41.4101 10.8653 41.2533V35.2285C10.7827 35.0172 10.6588 34.8468 10.5005 34.7241H11.8974C11.8699 34.7855 11.8561 34.8468 11.8561 34.9081C11.8561 34.9559 11.863 34.9967 11.8767 35.0308L16.8724 40.1356V35.0172C16.8724 34.8741 16.7966 34.7787 16.6384 34.7173H17.4296C17.2645 34.7855 17.182 34.8945 17.182 35.0513V41.7031V41.7168Z" fill="white"/>
<path d="M24.9917 35.0387V41.2884C24.9917 41.3702 25.04 41.4656 25.1432 41.5883H23.9595C24.0558 41.4656 24.111 41.3702 24.111 41.2884V37.9625H19.6177V41.2884C19.6177 41.3702 19.6728 41.4656 19.776 41.5883H18.5787C18.6819 41.4656 18.7369 41.3702 18.7369 41.2884V35.0387C18.7369 34.9569 18.6819 34.8546 18.5787 34.7252H19.776C19.6728 34.8478 19.6177 34.9501 19.6177 35.0387V37.6626H24.111V35.0387C24.111 34.9569 24.0627 34.8546 23.9595 34.7252H25.1432C25.0469 34.8478 24.9917 34.9501 24.9917 35.0387Z" fill="white"/>
<path d="M33.8407 38.1593C33.8407 39.1408 33.476 39.9791 32.7397 40.6742C32.0103 41.3694 31.1228 41.717 30.0837 41.717C29.0447 41.717 28.1432 41.3694 27.4 40.6742C26.6569 39.9791 26.2923 39.1408 26.2923 38.1593C26.2923 37.1779 26.6638 36.3396 27.4 35.6444C28.1432 34.9493 29.0309 34.6017 30.0837 34.6017C31.1365 34.6017 32.0103 34.9493 32.7397 35.6444C33.4691 36.3396 33.8407 37.1779 33.8407 38.1593ZM33.015 38.2275C33.015 37.2325 32.7673 36.4487 32.2787 35.8625C31.7695 35.2355 31.0264 34.9152 30.0562 34.9016C29.1685 34.8811 28.4461 35.1878 27.8887 35.8285C27.3726 36.4419 27.1111 37.212 27.1111 38.1457C27.1111 39.0794 27.4001 39.8087 27.9712 40.4561C28.5492 41.0968 29.2373 41.4171 30.0493 41.4103C30.8475 41.4035 31.5356 41.0832 32.1274 40.463C32.7123 39.836 33.0082 39.0931 33.0082 38.2343L33.015 38.2275Z" fill="white"/>
<path d="M38.7125 41.7169L36.0839 35.9033L35.5403 41.2875C35.5265 41.4238 35.6023 41.5192 35.7674 41.5874H34.976C35.0173 41.5669 35.0587 41.5397 35.0862 41.5124C35.1688 41.4374 35.2169 41.3488 35.2238 41.2534L35.843 35.2286C35.8499 35.1468 35.8156 35.0514 35.733 34.9491C35.6504 34.8469 35.5678 34.7719 35.4783 34.731H36.6C36.5587 34.8537 36.5518 34.9559 36.5862 35.0445L38.9808 40.3197L41.3616 35.0241C41.3685 34.9423 41.3065 34.8469 41.1689 34.7379H42.4007C42.3181 34.8605 42.2769 34.9628 42.2837 35.0514L42.9167 41.3011C42.9236 41.3829 42.9856 41.4783 43.1094 41.601H41.8777C41.9809 41.4851 42.0359 41.3897 42.0291 41.3148L41.4649 35.6443L38.7125 41.7305V41.7169Z" fill="white"/>
<path d="M45.2975 35.0387V38.1124H47.1692C47.3068 38.1124 47.4032 38.0307 47.4583 37.8671V38.6713C47.3619 38.5077 47.2655 38.426 47.1692 38.426H45.2975V41.2884H47.2174C47.355 41.2884 47.4996 41.1998 47.651 41.0294L47.4996 41.5883H44.2585C44.3617 41.4656 44.4168 41.3702 44.4168 41.2884V35.0387C44.4168 34.9569 44.3617 34.8546 44.2585 34.7252H47.4514V35.284C47.3551 35.1205 47.2588 35.0387 47.1624 35.0387H45.2907H45.2975Z" fill="white"/>
<path d="M50.7331 41.718C50.4304 41.718 50.1276 41.6771 49.8317 41.6022C49.701 41.5544 49.4946 41.4863 49.2262 41.3977C49.1368 41.3909 48.9991 41.3704 48.8202 41.3432L48.7995 40.3481C48.9647 40.6616 49.1987 40.9138 49.5083 41.0978C49.8111 41.2887 50.1275 41.3841 50.4647 41.3841C50.8019 41.3841 51.0978 41.275 51.3317 41.0569C51.5657 40.8388 51.6826 40.5594 51.6826 40.2186C51.6826 39.7892 51.4074 39.2917 50.8638 38.7465C50.4716 38.3648 50.0794 37.9832 49.6872 37.6083C49.2606 37.1244 49.0404 36.6542 49.0404 36.1907C49.0404 35.7273 49.2125 35.3524 49.5496 35.0525C49.8868 34.7595 50.2859 34.6095 50.7469 34.6095C50.8501 34.6095 50.9945 34.6232 51.1666 34.6504C51.373 34.6777 51.5176 34.6913 51.5864 34.6913C51.7102 34.7118 51.8754 34.7118 52.0956 34.6913V35.5841C51.896 35.1343 51.5038 34.9094 50.9189 34.9094C50.1276 34.9094 49.7354 35.2638 49.7354 35.9658C49.7354 36.2657 49.8317 36.5383 50.0244 36.7905C50.1414 36.9336 50.3546 37.1381 50.6712 37.4039C50.8157 37.5265 51.0358 37.7105 51.3248 37.9627C52.0817 38.6579 52.4672 39.3735 52.4672 40.1028C52.4672 40.6139 52.3088 41.0092 51.9923 41.2887C51.6757 41.5681 51.263 41.7044 50.7469 41.7044L50.7331 41.718Z" fill="white"/>
<path d="M12.5022 51.0001C12.2958 51.0001 12.0894 50.9729 11.8899 50.9251C11.8004 50.8911 11.6627 50.8433 11.4769 50.7888C11.415 50.7888 11.3187 50.7684 11.2018 50.7548L11.188 50.08C11.2981 50.2913 11.4632 50.4617 11.6696 50.5912C11.876 50.7207 12.0962 50.782 12.3164 50.782C12.5366 50.782 12.75 50.707 12.9082 50.5639C13.0665 50.414 13.149 50.23 13.149 49.9914C13.149 49.6984 12.9631 49.3644 12.5916 48.9896C12.3232 48.7306 12.0549 48.4716 11.7934 48.2126C11.4975 47.8854 11.3531 47.5583 11.3531 47.2448C11.3531 46.9313 11.4701 46.6723 11.6972 46.4747C11.9242 46.277 12.1994 46.1748 12.5091 46.1748C12.5848 46.1748 12.6742 46.1816 12.7911 46.202C12.9356 46.2225 13.0321 46.2293 13.0734 46.2293C13.1559 46.2429 13.2729 46.2429 13.4174 46.2293V46.8359C13.2798 46.5292 13.0113 46.3792 12.6191 46.3792C12.0824 46.3792 11.8141 46.6178 11.8141 47.0949C11.8141 47.2993 11.8829 47.4833 12.0137 47.6537C12.0894 47.7491 12.2407 47.8923 12.454 48.0763C12.5503 48.1581 12.7018 48.2876 12.9013 48.458C13.4174 48.9282 13.6788 49.4189 13.6788 49.9164C13.6788 50.264 13.5687 50.5366 13.3554 50.7207C13.1421 50.9115 12.86 51.0001 12.5091 51.0001H12.5022Z" fill="white"/>
<path d="M15.1584 48.6824V50.7134C15.1584 50.7679 15.1928 50.8361 15.2685 50.9178H14.4566C14.5323 50.8361 14.5666 50.7679 14.5666 50.7134V46.4605C14.5666 46.406 14.5323 46.331 14.4566 46.2493H15.2685C15.1928 46.331 15.1584 46.406 15.1584 46.4605V48.4779L17.085 46.5151C17.14 46.4605 17.1469 46.3719 17.1125 46.2493H17.7869C17.7112 46.2901 17.608 46.3583 17.4773 46.4605L15.6332 48.328L17.9658 50.7134C18.0208 50.7679 18.124 50.8361 18.2754 50.9178H17.1539C17.1883 50.8292 17.1814 50.7611 17.1332 50.7066L15.1584 48.6824Z" fill="white"/>
<path d="M20.2158 50.7134V48.6687L18.8533 46.4537C18.8258 46.3992 18.7501 46.331 18.6262 46.2493H19.4863C19.4657 46.331 19.4726 46.3992 19.5139 46.4537L20.7181 48.4166L21.9085 46.4605C21.936 46.4265 21.9498 46.3924 21.9498 46.3583C21.9498 46.3106 21.9291 46.2697 21.8809 46.2493H22.4177C22.3764 46.2629 22.3351 46.2833 22.3007 46.3038C22.2113 46.3515 22.1493 46.4128 22.1012 46.4878L20.8283 48.5869V50.7202C20.8283 50.7747 20.8626 50.8429 20.9245 50.9247H20.1195C20.1883 50.8429 20.2227 50.7747 20.2227 50.7202L20.2158 50.7134Z" fill="white"/>
<path d="M25.4932 50.7134C25.4932 50.7679 25.5277 50.8361 25.6034 50.9178H24.7915C24.8672 50.8361 24.9015 50.7679 24.9015 50.7134V46.4537C24.9015 46.3992 24.8672 46.331 24.7915 46.2493H26.3191C26.615 46.2493 26.8902 46.3379 27.1379 46.5151C27.4544 46.74 27.6333 47.0739 27.6677 47.5101C27.6952 47.8986 27.5783 48.2325 27.3237 48.5256C27.0691 48.8187 26.7594 48.9618 26.4016 48.9618C26.2571 48.9618 26.1057 48.9345 25.9612 48.8732C26.1677 48.8323 26.3535 48.7642 26.5118 48.6687C26.8764 48.437 27.069 48.0826 27.0828 47.6123C27.0896 47.2443 26.9796 46.9444 26.7525 46.7263C26.5598 46.5355 26.3328 46.4333 26.0851 46.4333H25.4932V50.7134Z" fill="white"/>
<path d="M29.168 49.2006L28.5005 50.7068C28.5005 50.7068 28.4799 50.7613 28.4799 50.7886C28.4799 50.8431 28.5075 50.8908 28.5694 50.9181H28.0327C28.0739 50.9044 28.1083 50.884 28.1427 50.8635C28.2253 50.809 28.2734 50.7545 28.3009 50.6863L29.918 47.0264L29.7667 46.6857L30.1107 46.1336L32.1544 50.7136C32.1819 50.7681 32.2439 50.8363 32.3539 50.9181H31.5419C31.5763 50.8363 31.5832 50.7681 31.5556 50.7136L30.8813 49.2006H29.168ZM30.7919 48.9961L30.0143 47.2513L29.2506 48.9961H30.7919Z" fill="white"/>
<path d="M37.281 50.9042C37.1572 50.952 37.0195 50.9792 36.8543 50.9792C36.469 50.9792 36.0975 50.8225 35.7397 50.5158C35.609 50.4135 35.4713 50.2908 35.3268 50.1477C34.969 49.7933 34.6044 49.3503 34.219 48.8255H33.8405V50.7202C33.8405 50.7747 33.8749 50.8429 33.9437 50.9247H33.1318C33.2075 50.8429 33.2418 50.7747 33.2418 50.7202V46.4606C33.2418 46.406 33.2075 46.3379 33.1318 46.2561H34.1777C34.6112 46.2561 34.9827 46.3652 35.2992 46.5901C35.6364 46.8286 35.8017 47.1285 35.7948 47.4965C35.7948 47.6874 35.7329 47.885 35.6159 48.0758C35.4576 48.3484 35.2168 48.5529 34.8934 48.6756C35.1273 49.105 35.5676 49.6297 36.2076 50.25C36.6548 50.6793 37.0058 50.8974 37.2742 50.9042H37.281ZM35.2099 47.5101C35.203 47.2648 35.0998 47.0399 34.914 46.8286C34.7007 46.5969 34.446 46.481 34.1364 46.481H33.8405V48.6006H34.157C34.3979 48.5938 34.6318 48.4984 34.852 48.3144C35.0997 48.0963 35.2167 47.8237 35.203 47.5101H35.2099Z" fill="white"/>
<path d="M38.1547 48.6824V50.7134C38.1547 50.7679 38.189 50.8361 38.2647 50.9178H37.4528C37.5285 50.8361 37.5629 50.7679 37.5629 50.7134V46.4605C37.5629 46.406 37.5285 46.331 37.4528 46.2493H38.2647C38.189 46.331 38.1547 46.406 38.1547 46.4605V48.4779L40.0814 46.5151C40.1365 46.4605 40.1434 46.3719 40.109 46.2493H40.7833C40.7076 46.2901 40.6042 46.3583 40.4735 46.4605L38.6294 48.328L40.9622 50.7134C41.0172 50.7679 41.1204 50.8361 41.2718 50.9178H40.1501C40.1845 50.8292 40.1776 50.7611 40.1295 50.7066L38.1547 48.6824Z" fill="white"/>
<path d="M26.4425 15.5869V19.7034L22.658 15.9549L22.6167 15.9208L20.7933 14.1079C20.7313 14.0329 20.6968 13.9512 20.6968 13.8557C20.6968 13.7944 20.7175 13.7194 20.7588 13.6649C20.7726 13.6513 20.7726 13.6308 20.7933 13.624L22.3828 12.0497C22.5204 11.9134 22.7406 11.9134 22.8782 12.0497L26.4425 15.5801V15.5869Z" fill="white"/>
<path d="M30.3921 16.3644L26.993 19.7039L26.9861 19.7176V15.5874L28.3072 14.2993L30.3921 16.3644Z" fill="white"/>
<path d="M23.0369 3.37363L26.443 0V4.13016L25.1357 5.43191L23.0369 3.37363Z" fill="white"/>
<path d="M32.7184 5.84876C32.7184 5.88965 32.6841 5.93736 32.6635 5.97825C32.6428 6.01914 32.6428 6.06686 32.6084 6.09412L29.7253 8.9498L27.8674 7.15051C27.7367 7.0142 27.7367 6.79611 27.8674 6.6598L28.6931 5.84876L26.9728 4.13809V0.0215587L30.7781 3.79732H30.7918L32.6084 5.59659C32.684 5.67156 32.7184 5.75334 32.7184 5.84876Z" fill="white"/>
<path d="M32.6221 14.1292L30.8056 15.9285L29.7666 14.8925L20.9037 6.11421C20.7317 5.94383 20.7317 5.67801 20.9037 5.50763L21.1171 5.29635V5.28273L22.6653 3.74925L24.7641 5.80069L24.7503 5.81433L27.7572 8.78586L32.6221 13.5976C32.7597 13.7475 32.7735 13.9929 32.6221 14.1292Z" fill="white"/>
<path d="M16.8718 13.618H12.7363C12.7363 13.618 12.7568 13.5771 12.7774 13.5567L18.3029 8.07706C18.4749 7.90668 18.7641 7.90668 18.9361 8.07706L20.3879 9.51511C20.5599 9.69913 20.5599 9.97176 20.3879 10.1421L16.8718 13.6248V13.618Z" fill="white"/>
<path d="M16.9128 14.1494L26.4431 23.5888V27.7189L12.7774 14.1834C12.7774 14.1834 12.7569 14.163 12.7569 14.1494H16.9128Z" fill="white"/>
<path d="M40.6659 14.1494C40.6659 14.1494 40.6659 14.163 40.6522 14.1698L26.9866 27.7189V23.5888L36.5167 14.1494H40.6659Z" fill="white"/>
<path d="M33.0354 10.1211C32.8634 9.95075 32.8634 9.67132 33.0354 9.50093L34.4872 8.05606C34.6592 7.89931 34.9415 7.89931 35.1135 8.05606L40.6595 13.5493C40.6595 13.5493 40.6939 13.5902 40.7008 13.6106H36.5653L33.0423 10.1211H33.0354Z" fill="white"/>
<path d="M24.7154 13.8627L25.5411 13.0517C25.6787 12.9154 25.6787 12.6973 25.5411 12.561L23.6901 10.7617L22.3828 12.043L20.8001 13.6106C20.7657 13.6447 20.7657 13.6855 20.7519 13.7264C20.7313 13.7673 20.6968 13.8082 20.6968 13.8559C20.6968 13.9445 20.7313 14.0331 20.8001 14.1081L22.6235 15.9142L22.6649 15.9551L24.7292 13.8696L24.7154 13.8559V13.8627Z" fill="white"/>
</svg>
