<svg width="74" height="35" viewBox="0 0 74 35" fill="none" xmlns="http://www.w3.org/2000/svg">
<path d="M9.71919 22.0885H5.29819V22.5849H7.03434V23.554C7.03434 23.9204 6.96881 24.2395 6.84352 24.5114C6.71226 24.7832 6.54515 25.0019 6.34229 25.1732C6.13944 25.3446 5.90083 25.4805 5.64428 25.5633C5.38176 25.6519 5.1192 25.6933 4.85668 25.6933C4.41517 25.6933 4.05717 25.646 3.78868 25.5633C3.52616 25.4746 3.26361 25.321 3.00706 25.0964C2.78034 24.8955 2.58945 24.6532 2.44626 24.3695C2.2971 24.08 2.18369 23.7609 2.10016 23.4122C2.01663 23.0635 1.95709 22.6912 1.92129 22.3012C1.88549 21.9053 1.86754 21.5093 1.86754 21.1134C1.86754 20.5343 1.9033 19.9551 1.98087 19.3819C2.05246 18.8205 2.20161 18.3182 2.42237 17.875C2.63716 17.4436 2.94145 17.0891 3.32926 16.8231C3.71111 16.5631 4.22426 16.4272 4.86863 16.4272C5.4056 16.4272 5.85305 16.5217 6.18716 16.7049C6.53321 16.8881 6.8076 17.1186 7.01642 17.3845C7.22524 17.6564 7.38038 17.94 7.47584 18.2355C7.57727 18.5369 7.64295 18.8028 7.67875 19.0274L7.69666 19.1574H8.1322V16.179H7.70264L7.65486 16.2381C7.5952 16.3149 7.52953 16.374 7.46987 16.4095C7.446 16.4213 7.37441 16.4567 7.17155 16.4567C7.02836 16.4567 6.90313 16.4331 6.78977 16.3858C6.65851 16.3326 6.51533 16.2735 6.35424 16.2026C6.18718 16.1317 5.98433 16.0726 5.7576 16.0135C5.52492 15.9544 5.23258 15.9308 4.88057 15.9308C4.19444 15.9308 3.57388 16.0608 3.03095 16.3208C2.49398 16.5749 2.01673 16.9118 1.59908 17.3254C1.47976 17.4436 1.3306 17.6032 1.15161 17.8159C0.972618 18.0287 0.793546 18.2946 0.620523 18.6019C0.447499 18.9151 0.304318 19.2815 0.184991 19.6951C0.0656647 20.1147 0 20.5875 0 21.1075C0 21.8816 0.155136 22.5967 0.45942 23.2172C0.763703 23.8377 1.15162 24.3814 1.61103 24.8364C2.08237 25.3032 2.57756 25.646 3.09067 25.8646C3.60377 26.0833 4.19441 26.1897 4.85071 26.1897C5.28625 26.1897 5.66206 26.1424 5.97231 26.0597C6.27659 25.971 6.54513 25.8705 6.77185 25.7642C6.99857 25.6519 7.18949 25.5574 7.35654 25.4746C7.49974 25.4037 7.6429 25.3623 7.78013 25.3623C7.92332 25.3623 7.98306 25.386 8.00095 25.3978C8.03675 25.4155 8.10229 25.4628 8.20969 25.5751L8.25747 25.6224H8.63925V22.5908H9.71919V22.0944V22.0885Z" fill="white"/>
<path d="M19.5577 22.8747C19.3548 23.6902 19.0387 24.3462 18.6091 24.8131C18.1855 25.274 17.6126 25.4986 16.8609 25.4986H14.6175V16.6698H16.1151V16.1734H11.4614V16.6698H12.959V25.4986H11.4614V25.9949H20.0111V22.7625H19.5875L19.5577 22.8807V22.8747Z" fill="white"/>
<path d="M30.7504 17.4082C30.2969 16.9531 29.778 16.5867 29.1992 16.3267C28.6205 16.0667 28.0179 15.9308 27.4033 15.9308C26.8246 15.9308 26.2398 16.0608 25.667 16.3267C25.0943 16.5867 24.5753 16.9531 24.1159 17.4082C23.6624 17.8632 23.2805 18.4069 22.9941 19.0274C22.7018 19.6479 22.5526 20.3393 22.5526 21.0661C22.5526 21.7221 22.672 22.3721 22.9166 22.9867C23.1553 23.6013 23.4953 24.1509 23.9249 24.6237C24.3545 25.0964 24.8736 25.4746 25.4643 25.7583C26.0609 26.0419 26.7113 26.1897 27.4033 26.1897C28.0954 26.1897 28.7219 26.0419 29.3125 25.7465C29.8972 25.4569 30.4164 25.0669 30.8459 24.5882C31.2815 24.1154 31.6215 23.5659 31.8721 22.9513C32.1227 22.3367 32.2479 21.7044 32.2479 21.0661C32.2479 20.3393 32.1107 19.6538 31.8363 19.0274C31.5618 18.4069 31.1979 17.8632 30.7444 17.4023M27.4033 25.6933C26.8425 25.6933 26.3771 25.5987 26.0012 25.4155C25.6313 25.2323 25.327 24.9487 25.0943 24.5764C24.8556 24.1923 24.6827 23.7077 24.5753 23.1345C24.4679 22.5494 24.4142 21.8521 24.4142 21.0661C24.4142 20.4634 24.4559 19.8665 24.5335 19.3051C24.6111 18.7496 24.7602 18.2473 24.981 17.8159C25.1958 17.3904 25.5001 17.0536 25.8879 16.7995C26.2697 16.5513 26.7769 16.4213 27.4033 16.4213C28.0298 16.4213 28.531 16.5454 28.9188 16.7995C29.3007 17.0536 29.6048 17.3904 29.8256 17.8159C30.0463 18.2473 30.1955 18.7496 30.273 19.3051C30.3506 19.8724 30.3925 20.4634 30.3925 21.0661C30.3925 21.858 30.3388 22.5494 30.2314 23.1345C30.13 23.7077 29.9509 24.1923 29.7122 24.5764C29.4796 24.9487 29.1693 25.2323 28.7994 25.4155C28.4235 25.5987 27.9523 25.6933 27.4033 25.6933Z" fill="white"/>
<path d="M42.8975 26.0838C43.0944 26.0838 43.2614 26.072 43.4046 26.0483C43.5418 26.0247 43.6671 25.9892 43.7686 25.9538C43.87 25.9183 43.9535 25.8711 44.0251 25.8238C44.0847 25.7824 44.1385 25.741 44.1862 25.7056L44.3055 25.611L43.9775 25.2151L43.858 25.3333C43.7745 25.416 43.685 25.4751 43.5776 25.5106C43.4702 25.5519 43.3628 25.5697 43.2673 25.5697C43.0585 25.5697 42.9213 25.5047 42.8318 25.3628C42.7244 25.1915 42.6469 24.9964 42.5932 24.7778C42.5574 24.636 42.5335 24.4587 42.5216 24.24C42.5096 24.0155 42.4978 23.785 42.4799 23.5486C42.468 23.3122 42.45 23.0759 42.4261 22.8395C42.4023 22.6031 42.3605 22.3904 42.3068 22.2013C42.2114 21.8703 42.0383 21.5985 41.7996 21.3917C41.5729 21.1907 41.3223 21.0253 41.0539 20.9071C40.8331 20.8066 40.6184 20.7298 40.4036 20.6825C40.6244 20.6175 40.8153 20.5348 40.9823 20.4402C41.3105 20.2511 41.573 20.0325 41.746 19.802C41.925 19.5656 42.0443 19.3352 42.098 19.1047C42.1517 18.8801 42.1756 18.7028 42.1756 18.5551C42.1756 18.2655 42.104 17.9582 41.9667 17.6391C41.8295 17.3141 41.5849 17.0186 41.2508 16.7645C40.8809 16.475 40.4752 16.2918 40.0456 16.2327C39.6339 16.1736 39.1565 16.144 38.6195 16.144C38.5121 16.144 38.4049 16.144 38.2915 16.1499C38.1901 16.1499 38.0827 16.1559 37.9753 16.1559H37.9633C37.8559 16.1677 37.7545 16.1736 37.6471 16.1795C37.5457 16.1795 37.4383 16.1854 37.3309 16.1854H34.6162V16.6818H36.1137V25.5106H34.6162V26.007H39.2699V25.5106H37.7724V20.9957H38.9656C39.1088 20.9957 39.2879 21.0075 39.4908 21.0253C39.6757 21.043 39.8546 21.108 40.0277 21.2085C40.1947 21.3089 40.3499 21.4744 40.4811 21.699C40.6124 21.9294 40.6959 22.2544 40.7317 22.674L40.8272 23.8914C40.857 24.24 40.9048 24.5473 40.9764 24.8073C41.048 25.0792 41.1672 25.3156 41.3223 25.5047C41.4834 25.6997 41.6982 25.8474 41.9608 25.942C42.2173 26.0365 42.5336 26.0838 42.9095 26.0838M40.2127 17.515C40.326 17.7751 40.3797 18.1296 40.3797 18.5728C40.3797 18.9629 40.3379 19.2938 40.2663 19.542C40.1947 19.7843 40.0874 19.9793 39.9561 20.1152C39.8249 20.2511 39.6757 20.3457 39.4908 20.3989C39.2998 20.458 39.085 20.4875 38.8463 20.4875H37.7604V16.6522C37.844 16.6463 37.9334 16.6404 38.0349 16.6345C38.2019 16.6345 38.363 16.6286 38.5241 16.6286C38.7449 16.6286 38.9777 16.6523 39.2044 16.6936C39.4192 16.735 39.616 16.8177 39.7891 16.9477C39.9561 17.0718 40.0993 17.2668 40.2127 17.5209" fill="white"/>
<path d="M51.4234 16.1734V16.6698H52.6822L50.3912 20.8951L47.9629 16.6698H49.198V16.1734H44.7649V16.6698H46.0537L49.0249 21.8583V25.4926H47.5274V25.989H52.1811V25.4926H50.6836V21.4269L53.249 16.6698H54.6213V16.1734H51.4234Z" fill="white"/>
<path d="M3.27507 31.4616H1.14519V29.2928H0.447032V34.2155H1.14519V32.1176H3.27507V34.2155H3.97323V29.2928H3.27507V31.4616Z" fill="white"/>
<path d="M9.74335 29.2928H9.4092V34.2155H9.74335H10.1014H12.6012V33.5595H10.1014V32.0999H12.2253V31.4439H10.1014V29.9488H12.6012V29.2928H10.1014H9.74335Z" fill="white"/>
<path d="M18.4893 29.2928H17.7913V34.2155H18.4893V29.2928Z" fill="white"/>
<path d="M25.6014 32.2243H26.6096V32.4429C26.6096 32.8093 26.5142 33.093 26.3292 33.2939C26.1443 33.5007 25.8937 33.6012 25.5834 33.6012C25.2732 33.6012 25.0166 33.5066 24.8257 33.3116C24.6348 33.1166 24.5393 32.8625 24.5393 32.5434V31.0897C24.5393 30.741 24.6348 30.4573 24.8197 30.2446C25.0047 30.0319 25.2553 29.9255 25.5655 29.9255C25.7744 29.9255 25.9712 29.9905 26.1562 30.1264C26.3412 30.2623 26.4665 30.4573 26.5262 30.7115H27.2838C27.2241 30.416 27.1168 30.1619 26.9557 29.9432C26.7946 29.7246 26.5918 29.5532 26.3531 29.4291C26.1145 29.305 25.8519 29.2459 25.5596 29.2459C25.2075 29.2459 24.9032 29.3227 24.6407 29.4764C24.3782 29.63 24.1753 29.8428 24.0321 30.1205C23.889 30.3983 23.8174 30.7174 23.8174 31.0897V32.5434C23.8174 32.8921 23.889 33.1993 24.0381 33.4594C24.1873 33.7194 24.3901 33.9203 24.6527 34.0621C24.9152 34.204 25.2255 34.2749 25.5775 34.2749C25.9295 34.2749 26.2338 34.1981 26.4903 34.0444C26.7529 33.8908 26.9557 33.678 27.0989 33.4003C27.2421 33.1225 27.3136 32.7975 27.3136 32.4311V31.5683H25.5894V32.2243H25.6014Z" fill="white"/>
<path d="M35.4811 31.4616H33.3511V29.2928H32.6529V34.2155H33.3511V32.1176H35.4811V34.2155H36.1791V29.2928H35.4811V31.4616Z" fill="white"/>
<path d="M40.9284 29.9488H42.3306V34.2155H43.0286V29.9488H44.4365V29.2928H40.9284V29.9488Z" fill="white"/>
<path d="M52.0142 31.787C51.865 31.6924 51.6979 31.6156 51.5189 31.5683C51.334 31.5151 51.155 31.4738 50.9701 31.4383C50.7672 31.397 50.5762 31.3556 50.4032 31.3083C50.2242 31.261 50.081 31.1901 49.9736 31.0956C49.8662 31.001 49.8065 30.8592 49.8065 30.676C49.8065 30.4278 49.9021 30.2387 50.0871 30.1028C50.278 29.9669 50.5404 29.9018 50.8805 29.9018C51.2564 29.9018 51.6383 30.0378 52.0142 30.3155L52.4139 29.7659C52.1693 29.5946 51.9246 29.4645 51.6681 29.3759C51.4115 29.2932 51.149 29.2459 50.8865 29.2459C50.3256 29.2459 49.8901 29.37 49.5858 29.6241C49.2756 29.8782 49.1264 30.2328 49.1264 30.6878C49.1264 30.9833 49.1742 31.2078 49.2756 31.3792C49.371 31.5506 49.5022 31.6806 49.6633 31.7693C49.8244 31.8579 49.9975 31.9229 50.1884 31.9702C50.3794 32.0115 50.5643 32.0529 50.7493 32.0884C50.9402 32.1179 51.1193 32.1593 51.2863 32.2066C51.4474 32.2538 51.5786 32.3307 51.68 32.4252C51.7815 32.5257 51.8292 32.6675 51.8292 32.8566C51.8292 33.0989 51.7278 33.288 51.5309 33.418C51.334 33.548 51.0536 33.6189 50.6956 33.6189C50.4272 33.6189 50.1824 33.5776 49.9557 33.4948C49.729 33.4121 49.5203 33.2939 49.3293 33.1284L48.8938 33.6544C49.1325 33.8553 49.4068 34.009 49.7051 34.1094C50.0035 34.2099 50.3377 34.2631 50.6956 34.2631C51.2744 34.2631 51.7217 34.139 52.0439 33.8908C52.3601 33.6426 52.5212 33.2939 52.5212 32.8389C52.5212 32.5611 52.4735 32.3484 52.384 32.177C52.2945 32.0115 52.1753 31.8756 52.0261 31.7811" fill="white"/>
<mask id="mask0_0_5190" style="mask-type:luminance" maskUnits="userSpaceOnUse" x="57" y="21" width="9" height="14">
<path d="M65.7428 34.2687V27.2778L57.4794 21.1142L65.7428 34.2687Z" fill="white"/>
</mask>
<g mask="url(#mask0_0_5190)">
<path d="M58.9481 17.8817L52.2373 31.7735L64.1314 37.4104L70.8423 23.5185L58.9481 17.8817Z" fill="url(#paint0_linear_0_5190)"/>
</g>
<mask id="mask1_0_5190" style="mask-type:luminance" maskUnits="userSpaceOnUse" x="65" y="21" width="9" height="14">
<path d="M65.7426 27.2778V34.2687L73.9999 21.1142L65.7426 27.2778Z" fill="white"/>
</mask>
<g mask="url(#mask1_0_5190)">
<path d="M70.0704 17.0611L59.1398 27.4578L69.7357 38.3865L80.6663 27.9898L70.0704 17.0611Z" fill="url(#paint1_linear_0_5190)"/>
</g>
<mask id="mask2_0_5190" style="mask-type:luminance" maskUnits="userSpaceOnUse" x="62" y="1" width="12" height="21">
<path d="M63.4694 6.60615C65.1281 9.01723 69.4179 15.2458 69.4179 15.2458C69.4179 15.2458 71.2853 17.7396 67.8785 20.2748L70.8081 21.8113L72.7531 20.3575C72.7531 20.3575 75.7422 18.2833 71.9416 12.7934L64.2511 1.67173C64.2511 1.67173 62.0137 4.49056 63.4694 6.60025" fill="white"/>
</mask>
<g mask="url(#mask2_0_5190)">
<path d="M69.1914 -5.08041L51.8875 11.3783L68.6327 28.6495L85.9366 12.1908L69.1914 -5.08041Z" fill="url(#paint2_linear_0_5190)"/>
</g>
<mask id="mask3_0_5190" style="mask-type:luminance" maskUnits="userSpaceOnUse" x="64" y="0" width="3" height="5">
<path d="M64.2519 1.6842L66.2923 4.63894C64.5143 2.0565 65.5644 0 65.5644 0C64.7053 1.04598 64.2519 1.67829 64.2519 1.67829" fill="white"/>
</mask>
<g mask="url(#mask3_0_5190)">
<path d="M65.3419 -0.981974L61.938 2.2557L65.2564 5.67839L68.6603 2.44072L65.3419 -0.981974Z" fill="url(#paint3_linear_0_5190)"/>
</g>
<mask id="mask4_0_5190" style="mask-type:luminance" maskUnits="userSpaceOnUse" x="63" y="18" width="10" height="8">
<path d="M63.261 23.7788L65.743 25.6108L72.7595 20.3631L70.6474 18.1884L63.261 23.7788Z" fill="white"/>
</mask>
<g mask="url(#mask4_0_5190)">
<path d="M68.2315 13.5293L59.5517 21.7852L67.8499 30.3441L76.5297 22.0882L68.2315 13.5293Z" fill="url(#paint4_linear_0_5190)"/>
</g>
<mask id="mask5_0_5190" style="mask-type:luminance" maskUnits="userSpaceOnUse" x="58" y="11" width="5" height="8">
<path d="M59.0312 14.8384C59.8784 16.0616 60.9165 17.5685 60.9165 17.5685L61.5609 18.7918C63.3269 17.5154 62.4915 16.4989 62.4915 16.4989L59.3354 11.9427C59.3354 11.9427 58.0109 13.3669 59.0371 14.8384" fill="white"/>
</mask>
<g mask="url(#mask5_0_5190)">
<path d="M60.8056 9.33906L54.5829 15.2578L60.5876 21.451L66.8102 15.5323L60.8056 9.33906Z" fill="url(#paint5_linear_0_5190)"/>
</g>
<mask id="mask6_0_5190" style="mask-type:luminance" maskUnits="userSpaceOnUse" x="58" y="17" width="4" height="4">
<path d="M58.458 20.1865L59.0845 20.6533L61.5607 18.7859L61.3279 17.9527L58.458 20.1865Z" fill="white"/>
</mask>
<g mask="url(#mask6_0_5190)">
<path d="M60.1037 16.4486L57.1258 19.2811L59.9772 22.2221L62.9551 19.3897L60.1037 16.4486Z" fill="url(#paint6_linear_0_5190)"/>
</g>
<mask id="mask7_0_5190" style="mask-type:luminance" maskUnits="userSpaceOnUse" x="59" y="11" width="1" height="2">
<path d="M59.1442 12.1788L59.3589 12.3265L59.9675 12.8584C59.4485 12.1078 59.7707 11.2746 59.7707 11.2746L59.1442 12.1847V12.1788Z" fill="white"/>
</mask>
<g mask="url(#mask7_0_5190)">
<path d="M59.6007 10.8934L58.37 12.064L59.5643 13.2958L60.795 12.1252L59.6007 10.8934Z" fill="url(#paint7_linear_0_5190)"/>
</g>
<mask id="mask8_0_5190" style="mask-type:luminance" maskUnits="userSpaceOnUse" x="60" y="7" width="8" height="14">
<path d="M61.1313 11.2749C62.593 13.4024 65.2539 17.214 65.2539 17.214L65.9758 20.021C69.0187 17.9349 67.3004 15.6302 67.3004 15.6302L61.513 7.21512C61.513 7.21512 59.8127 9.34845 61.1313 11.269" fill="white"/>
</mask>
<g mask="url(#mask8_0_5190)">
<path d="M64.6332 2.6987L53.3842 13.3983L64.2611 24.6168L75.5101 13.9173L64.6332 2.6987Z" fill="url(#paint8_linear_0_5190)"/>
</g>
<mask id="mask9_0_5190" style="mask-type:luminance" maskUnits="userSpaceOnUse" x="60" y="16" width="7" height="7">
<path d="M60.2178 21.4637L62.1628 22.9174L66.542 19.5963L66.3273 16.8425L60.2178 21.4637Z" fill="white"/>
</mask>
<g mask="url(#mask9_0_5190)">
<path d="M63.5342 13.7451L57.1781 19.7907L63.2777 26.082L69.6339 20.0363L63.5342 13.7451Z" fill="url(#paint9_linear_0_5190)"/>
</g>
<mask id="mask10_0_5190" style="mask-type:luminance" maskUnits="userSpaceOnUse" x="59" y="16" width="3" height="4">
<path d="M60.4095 16.829C60.4095 16.829 61.2628 18.07 59.8368 19.1159L61.6327 17.8158L60.7318 16.6576L60.4095 16.829Z" fill="white"/>
</mask>
<g mask="url(#mask10_0_5190)">
<path d="M60.7868 15.7995L58.6136 17.8666L60.7129 20.0319L62.8861 17.9648L60.7868 15.7995Z" fill="url(#paint10_linear_0_5190)"/>
</g>
<mask id="mask11_0_5190" style="mask-type:luminance" maskUnits="userSpaceOnUse" x="61" y="6" width="2" height="3">
<path d="M61.4885 7.23818L61.5124 7.59275L62.288 8.34916C61.5482 7.27954 62.0196 6.4404 62.0196 6.4404L61.4885 7.23227V7.23818Z" fill="white"/>
</mask>
<g mask="url(#mask11_0_5190)">
<path d="M61.9309 6.08531L60.5538 7.39511L61.901 8.78464L63.2781 7.47484L61.9309 6.08531Z" fill="url(#paint11_linear_0_5190)"/>
</g>
<mask id="mask12_0_5190" style="mask-type:luminance" maskUnits="userSpaceOnUse" x="63" y="15" width="3" height="5">
<path d="M63.3446 19.0988L65.6595 17.4028L64.496 15.9018L64.0008 15.4231C64.0008 15.4231 65.391 17.5328 63.3446 19.0988Z" fill="white"/>
</mask>
<g mask="url(#mask12_0_5190)">
<path d="M64.5839 14.3088L61.5242 17.2191L64.4872 20.2752L67.547 17.3649L64.5839 14.3088Z" fill="url(#paint12_linear_0_5190)"/>
</g>
<defs>
<linearGradient id="paint0_linear_0_5190" x1="65.437" y1="31.8941" x2="75.9325" y2="36.9643" gradientUnits="userSpaceOnUse">
<stop stop-color="#DDAD76"/>
<stop offset="0.14" stop-color="#D2A46B"/>
<stop offset="0.7" stop-color="#AF8748"/>
<stop offset="1" stop-color="#A27D3B"/>
</linearGradient>
<linearGradient id="paint1_linear_0_5190" x1="54.4112" y1="21.0051" x2="76.0536" y2="43.7588" gradientUnits="userSpaceOnUse">
<stop stop-color="#DDAD76"/>
<stop offset="0.14" stop-color="#D2A46B"/>
<stop offset="0.7" stop-color="#AF8748"/>
<stop offset="1" stop-color="#A27D3B"/>
</linearGradient>
<linearGradient id="paint2_linear_0_5190" x1="61.9815" y1="13.8414" x2="83.6239" y2="36.5952" gradientUnits="userSpaceOnUse">
<stop stop-color="#DDAD76"/>
<stop offset="0.13" stop-color="#D5A46D"/>
<stop offset="0.69" stop-color="#B08849"/>
<stop offset="1" stop-color="#A27D3B"/>
</linearGradient>
<linearGradient id="paint3_linear_0_5190" x1="64.5531" y1="11.1442" x2="86.1955" y2="33.8979" gradientUnits="userSpaceOnUse">
<stop stop-color="#DDAD76"/>
<stop offset="0.14" stop-color="#D2A46B"/>
<stop offset="0.7" stop-color="#AF8748"/>
<stop offset="1" stop-color="#A27D3B"/>
</linearGradient>
<linearGradient id="paint4_linear_0_5190" x1="56.5279" y1="19.0611" x2="78.1702" y2="41.8149" gradientUnits="userSpaceOnUse">
<stop stop-color="#DDAD76"/>
<stop offset="0.14" stop-color="#D2A46B"/>
<stop offset="0.7" stop-color="#AF8748"/>
<stop offset="1" stop-color="#A27D3B"/>
</linearGradient>
<linearGradient id="paint5_linear_0_5190" x1="55.9478" y1="19.6085" x2="77.5901" y2="42.3623" gradientUnits="userSpaceOnUse">
<stop stop-color="#DDAD76"/>
<stop offset="0.14" stop-color="#D2A46B"/>
<stop offset="0.7" stop-color="#AF8748"/>
<stop offset="1" stop-color="#A27D3B"/>
</linearGradient>
<linearGradient id="paint6_linear_0_5190" x1="53.4676" y1="21.8386" x2="75.1099" y2="44.5924" gradientUnits="userSpaceOnUse">
<stop stop-color="#DDAD76"/>
<stop offset="0.14" stop-color="#D2A46B"/>
<stop offset="0.7" stop-color="#AF8748"/>
<stop offset="1" stop-color="#A27D3B"/>
</linearGradient>
<linearGradient id="paint7_linear_0_5190" x1="52.1418" y1="-1.23627" x2="73.7682" y2="21.5007" gradientUnits="userSpaceOnUse">
<stop stop-color="#DDAD76"/>
<stop offset="0.14" stop-color="#D2A46B"/>
<stop offset="0.7" stop-color="#AF8748"/>
<stop offset="1" stop-color="#A27D3B"/>
</linearGradient>
<linearGradient id="paint8_linear_0_5190" x1="58.8547" y1="16.8752" x2="80.4971" y2="39.629" gradientUnits="userSpaceOnUse">
<stop stop-color="#DDAD76"/>
<stop offset="0.14" stop-color="#D2A46B"/>
<stop offset="0.7" stop-color="#AF8748"/>
<stop offset="1" stop-color="#A27D3B"/>
</linearGradient>
<linearGradient id="paint9_linear_0_5190" x1="55.0971" y1="20.4056" x2="76.7395" y2="43.1594" gradientUnits="userSpaceOnUse">
<stop stop-color="#DDAD76"/>
<stop offset="0.14" stop-color="#D2A46B"/>
<stop offset="0.7" stop-color="#AF8748"/>
<stop offset="1" stop-color="#A27D3B"/>
</linearGradient>
<linearGradient id="paint10_linear_0_5190" x1="54.1626" y1="20.9488" x2="75.8049" y2="43.7025" gradientUnits="userSpaceOnUse">
<stop stop-color="#DDAD76"/>
<stop offset="0.14" stop-color="#D2A46B"/>
<stop offset="0.7" stop-color="#AF8748"/>
<stop offset="1" stop-color="#A27D3B"/>
</linearGradient>
<linearGradient id="paint11_linear_0_5190" x1="60.3367" y1="15.266" x2="81.979" y2="38.0197" gradientUnits="userSpaceOnUse">
<stop stop-color="#DDAD76"/>
<stop offset="0.14" stop-color="#D2A46B"/>
<stop offset="0.7" stop-color="#AF8748"/>
<stop offset="1" stop-color="#A27D3B"/>
</linearGradient>
<linearGradient id="paint12_linear_0_5190" x1="56.8827" y1="18.6964" x2="78.525" y2="41.4501" gradientUnits="userSpaceOnUse">
<stop stop-color="#DDAD76"/>
<stop offset="0.14" stop-color="#D2A46B"/>
<stop offset="0.7" stop-color="#AF8748"/>
<stop offset="1" stop-color="#A27D3B"/>
</linearGradient>
</defs>
</svg>
