<svg width="48" height="42" viewBox="0 0 48 42" fill="none" xmlns="http://www.w3.org/2000/svg">
<path d="M20.0859 26.8135C19.238 27.5069 17.1048 29.2569 16.2132 30.0155C16.1147 30.0967 16.1913 30.2539 16.3225 30.2322C17.2196 30.048 19.2873 29.3761 20.2829 26.9543C20.3321 26.8351 20.1843 26.7322 20.0859 26.8135Z" fill="white"/>
<path d="M27.9197 26.8135C27.8213 26.7322 27.6735 26.8351 27.7227 26.9543C28.7183 29.3707 30.7861 30.048 31.6832 30.2322C31.809 30.2593 31.891 30.1022 31.7926 30.0155C30.901 29.2569 28.7676 27.5069 27.9197 26.8135Z" fill="white"/>
<path d="M24.1015 0.0758516C24.0905 0.0325079 24.0468 0 24.003 0C23.9593 0 23.9154 0.02709 23.9045 0.0758516C23.7294 0.704335 23.6036 1.33282 23.4942 1.96672C22.9527 5.08746 22.8106 8.25697 23.0677 11.4102C23.1169 12.3584 23.1825 13.3065 23.3248 14.2438C23.56 15.8096 23.7842 20.209 23.6857 21.7856C23.6474 22.5983 23.56 23.5031 23.467 24.3862C23.467 24.3862 23.467 24.3862 23.467 24.3916C23.467 24.4079 23.4615 24.4512 23.456 24.5163C23.4123 24.9659 23.27 26.4938 23.3575 27.7399C23.3684 27.8808 23.3794 28.0163 23.3958 28.1463C23.4013 28.2059 23.4122 28.2655 23.4177 28.3251C23.4177 28.3359 23.5545 29.1324 23.8334 30.0588C23.8553 30.1293 23.8771 30.2051 23.9045 30.2918C23.9154 30.3135 23.9209 30.3243 23.9209 30.3243C23.9318 30.346 23.9538 30.3622 23.9757 30.3676C23.9866 30.3676 23.9976 30.3676 24.0085 30.3676C24.0195 30.3676 24.0303 30.3676 24.0412 30.3676C24.0686 30.3622 24.085 30.346 24.096 30.3243C24.096 30.3243 24.1015 30.3135 24.1124 30.2918C24.1398 30.2105 24.1616 30.1347 24.1835 30.0588C24.4624 29.1324 24.5937 28.3359 24.5992 28.3251C24.6047 28.2655 24.6156 28.2059 24.6211 28.1463C24.6266 28.0758 24.6375 28 24.643 27.9187C24.643 27.8537 24.6539 27.7995 24.6594 27.7399C24.7469 26.4884 24.6102 24.9605 24.561 24.5163C24.561 24.4729 24.55 24.435 24.55 24.3916V24.3862C24.4571 23.5085 24.3695 22.5983 24.3312 21.7856C24.2327 20.209 24.4571 15.8096 24.6923 14.2438C24.8345 13.3065 24.9001 12.3584 24.9493 11.4102C25.201 8.25697 25.0642 5.08746 24.5227 1.96672C24.4078 1.33824 24.2875 0.709752 24.1124 0.0758516H24.1015Z" fill="white"/>
<path d="M21.8642 13.3766C21.1859 9.68701 19.873 5.48267 17.3349 3.31549C17.2583 3.25047 17.1381 3.29381 17.1271 3.39134C17.0451 4.07942 16.9138 6.29536 18.2211 8.87973C19.1784 10.776 20.5897 14.6119 21.547 17.3317C21.5798 17.4238 21.6126 17.5105 21.6399 17.6026C21.8478 18.2311 22.34 19.9053 22.3947 21.8774C22.4276 23.2102 22.2636 24.6893 21.6783 26.0709C21.6783 26.0709 21.6783 26.0709 21.6783 26.0763C21.6673 26.1034 21.6564 26.1251 21.6454 26.1522C21.5852 26.293 21.5195 26.4339 21.4484 26.5694C21.1257 27.2629 20.5624 28.5036 20.3053 29.2025C20.2068 29.5113 20.1302 29.7985 20.0864 30.0639C20.07 30.1669 20.1794 30.2427 20.2669 30.194C20.8687 29.8743 22.548 28.6607 22.7778 24.9765C22.7778 24.9765 23.1715 20.2033 21.8751 13.3712L21.8642 13.3766Z" fill="white"/>
<path d="M27.7119 29.2084C27.4548 28.5095 26.8914 27.2688 26.5686 26.5753C26.4975 26.4344 26.4318 26.299 26.3717 26.1581C26.3717 26.1581 26.3499 26.1094 26.3389 26.0823V26.0768C25.7482 24.6899 25.584 23.2162 25.6223 21.8833C25.6387 19.9329 26.0927 18.4321 26.2349 18.0041C26.2787 17.8741 26.3279 17.744 26.3717 17.6086C26.4318 17.4352 26.4647 17.3377 26.4647 17.3377C27.422 14.6233 28.8277 10.7874 29.7905 8.88567C31.0923 6.3013 30.9665 4.08536 30.8845 3.39728C30.8735 3.29975 30.7533 3.25641 30.6767 3.32143C28.1386 5.48861 26.8257 9.69294 26.1474 13.3826C24.851 20.22 25.2449 24.9878 25.2449 24.9878C25.4801 28.6721 27.1539 29.8857 27.7556 30.2053C27.8486 30.2541 27.958 30.1782 27.9362 30.0753C27.8924 29.8152 27.8159 29.5227 27.7174 29.2138L27.7119 29.2084Z" fill="white"/>
<path d="M15.0923 13.0475C9.5566 8.7511 5.2954 9.44459 4.15216 9.748C4.03729 9.77509 4.02633 9.93221 4.13026 9.98097C4.28889 10.0568 4.44746 10.1273 4.61156 10.2031C4.72643 10.2519 8.0469 11.628 10.3498 12.0777C12.691 12.5382 14.2554 13.1071 14.9446 13.2588C14.961 13.2588 14.972 13.2643 14.9884 13.2697C15.1197 13.2968 15.1962 13.1288 15.0923 13.053V13.0475Z" fill="white"/>
<path d="M43.8492 9.748C42.7059 9.44459 38.4502 8.7511 32.909 13.0475C32.8051 13.1288 32.8817 13.2913 33.0129 13.2643C33.0239 13.2643 33.0402 13.2588 33.0566 13.2534C33.7458 13.1017 35.3104 12.5328 37.6516 12.0723C39.9545 11.6226 43.2748 10.241 43.3897 10.1977C43.5538 10.1273 43.7123 10.0514 43.871 9.97555C43.9749 9.92679 43.9641 9.77509 43.8492 9.74258V9.748Z" fill="white"/>
<path d="M37.2022 6.2091C36.0918 6.59378 32.1807 8.34919 28.5759 14.8399C28.5759 14.8399 27.6898 16.319 27.2139 17.6952C27.1701 17.8198 27.3507 17.9065 27.4163 17.7873C27.8266 17.1046 28.5705 16.0752 29.8231 14.8778C29.9817 14.7315 30.1459 14.5853 30.31 14.4281C32.5801 12.3151 35.6597 9.18898 37.3499 6.38789C37.4101 6.29037 37.3116 6.17118 37.2022 6.2091Z" fill="white"/>
<path d="M17.6911 14.4331C17.8607 14.5902 18.0193 14.7365 18.1779 14.8828C19.436 16.0802 20.1746 17.1041 20.5848 17.7922C20.6559 17.906 20.8309 17.8247 20.7871 17.7001C20.3113 16.3185 19.4251 14.8449 19.4251 14.8449C15.8149 8.35414 11.9092 6.59873 10.7988 6.21405C10.6894 6.17612 10.5909 6.29532 10.6511 6.39284C12.3359 9.19393 15.421 12.3255 17.6911 14.4331Z" fill="white"/>
<path d="M0 32.8269H4.40891V33.0328H2.70219V37.4809H1.93095V33.0328H0V32.8269Z" fill="white"/>
<path d="M14.6379 33.0171H11.8044V34.7075H13.4345V34.8971H11.8044V37.2918H14.6379V37.4869H11.0332V32.8329H14.6379V33.0225V33.0171Z" fill="white"/>
<path d="M22.1051 36.3325L22.28 36.4734C22.0393 36.8093 21.733 37.0747 21.3611 37.2698C20.9836 37.4648 20.5789 37.5678 20.1358 37.5678C19.6653 37.5678 19.2331 37.4594 18.8338 37.2481C18.4345 37.0314 18.1173 36.7442 17.8875 36.3704C17.6578 36.002 17.543 35.6011 17.543 35.1622C17.543 34.7234 17.6578 34.3224 17.8875 33.954C18.1173 33.5856 18.4345 33.293 18.8338 33.0763C19.2331 32.8596 19.6708 32.7566 20.1358 32.7566C20.5734 32.7566 20.9782 32.8487 21.3501 33.033C21.7221 33.2172 22.0175 33.4718 22.2418 33.7969L22.0448 33.9161C21.826 33.6235 21.5853 33.4014 21.3282 33.2659C20.9781 33.0763 20.6336 32.9842 20.3054 32.9842C19.9553 32.9842 19.6216 33.0817 19.3153 33.2713C19.0035 33.4664 18.7573 33.7264 18.5713 34.0678C18.3853 34.4037 18.2923 34.7721 18.2923 35.1622C18.2923 35.5523 18.3853 35.9207 18.5713 36.2566C18.7573 36.5925 19.0035 36.858 19.3153 37.0531C19.6271 37.2481 19.9553 37.3402 20.3054 37.3402C20.6555 37.3402 21 37.2427 21.3611 37.0422C21.64 36.8851 21.8917 36.6467 22.1051 36.3325Z" fill="white"/>
<path d="M25.026 32.8436L27.1757 37.4868H26.3279L25.8684 36.4953H23.2537L22.7724 37.4868H22.5535L24.4899 33.51L24.9221 32.6161L25.026 32.8436ZM23.3466 36.3003H25.7809L24.5938 33.7376L23.3466 36.3003Z" fill="white"/>
<path d="M32.1206 32.8274H32.3286V37.4814H32.1644C32.1644 37.4814 32.1535 37.4489 32.1425 37.4218C32.1316 37.3947 32.1043 37.3405 32.0605 37.2593C32.0168 37.178 31.962 37.0913 31.9019 37.0046C31.8417 36.9179 31.7542 36.8096 31.6393 36.6796C31.5245 36.5495 31.3987 36.4249 31.2564 36.2949C31.1142 36.1703 30.9392 36.0348 30.7204 35.8831C30.5016 35.7314 30.2718 35.5905 30.0202 35.4497C28.9371 34.8754 28.2151 34.3552 27.8541 33.9001V37.4543H27.6461V32.8274H27.9854C28.3409 33.445 29.0465 34.0464 30.1077 34.6316C31.1306 35.2004 31.8034 35.7314 32.1206 36.219V32.822V32.8274Z" fill="white"/>
<path d="M36.9775 33.1253C37.3494 33.3366 37.6229 33.6237 37.8089 33.9759C37.9949 34.3335 38.0879 34.729 38.0879 35.1624C38.0879 35.5959 37.9949 35.9859 37.8034 36.3381C37.612 36.6957 37.333 36.9774 36.9665 37.1887C36.6 37.4 36.157 37.5084 35.6483 37.5084C35.1396 37.5084 34.6909 37.4055 34.3244 37.1942C33.9579 36.9829 33.6789 36.7011 33.493 36.3435C33.307 35.9859 33.214 35.5959 33.214 35.157C33.214 34.7181 33.307 34.3281 33.493 33.9705C33.6789 33.6129 33.9525 33.3311 34.3244 33.1198C34.6909 32.9085 35.1341 32.8002 35.6483 32.8002C36.1625 32.8002 36.6055 32.9085 36.9775 33.1198V33.1253ZM36.5946 37.0154C36.8517 36.8257 37.054 36.5657 37.1853 36.246C37.322 35.9264 37.3877 35.5633 37.3877 35.1678C37.3877 34.7723 37.322 34.4093 37.1853 34.0897C37.0485 33.77 36.8517 33.5099 36.5946 33.3149C36.3375 33.1198 36.0201 33.0223 35.6536 33.0223C35.2871 33.0223 34.9699 33.1198 34.7073 33.3149C34.4447 33.5099 34.2479 33.77 34.1166 34.0897C33.9853 34.4093 33.9142 34.7723 33.9142 35.1678C33.9142 35.5633 33.9799 35.9264 34.1166 36.246C34.2479 36.5657 34.4447 36.8257 34.7073 37.0154C34.9699 37.2104 35.2816 37.3025 35.6536 37.3025C36.0256 37.3025 36.3375 37.205 36.5946 37.0154Z" fill="white"/>
<path d="M42.339 33.055C42.6016 33.2067 42.8094 33.4126 42.968 33.6781C43.1212 33.9381 43.1977 34.2253 43.1977 34.5341C43.1977 34.8429 43.1212 35.1247 42.9735 35.3847C42.8203 35.6448 42.6179 35.8507 42.3553 36.0078C42.0982 36.1649 41.8139 36.2408 41.513 36.2408H39.7462V37.4869H38.9748V32.8329H41.4747C41.792 32.8329 42.0819 32.9087 42.3445 33.0604L42.339 33.055ZM41.688 35.8073C41.9123 35.6664 42.0928 35.4877 42.224 35.2655C42.3553 35.0434 42.421 34.7996 42.421 34.5341C42.421 34.2524 42.3608 33.9977 42.2459 33.7702C42.1311 33.5426 41.9506 33.3638 41.7154 33.2338C41.4802 33.1038 41.2012 33.0333 40.873 33.0333H39.7353V36.024H40.9387C41.2122 36.0132 41.4582 35.9428 41.6825 35.8019L41.688 35.8073Z" fill="white"/>
<path d="M47.7372 32.8269H47.9998L46.1837 35.4059V37.4864H45.4124V35.4004L43.5963 32.8323H44.5645L46.1509 35.1079L47.7372 32.8323V32.8269Z" fill="white"/>
<path d="M9.37575 32.8269H10.147V37.4809H9.37575V34.8912H5.86935V37.4809H5.09812V32.8269H5.86935V34.7069H9.37575V32.8269Z" fill="white"/>
<path d="M13.9111 41.2367L14.1955 41.5238C14.2448 41.5726 14.2995 41.6159 14.3542 41.6484C14.4089 41.6863 14.4691 41.7134 14.5348 41.7351V41.773H14.1738C13.9878 41.773 13.8291 41.708 13.6978 41.578L13.3969 41.2908C13.293 41.1879 13.1672 41.1337 13.0195 41.1337H12.7625V41.773H12.3686V39.3891H13.6485C13.8455 39.3891 14.026 39.4487 14.1846 39.5625C14.2502 39.6113 14.3104 39.6655 14.3597 39.7305C14.48 39.8876 14.5348 40.0664 14.5348 40.2614C14.5348 40.4185 14.4965 40.5648 14.4199 40.7003C14.3433 40.8357 14.2339 40.9387 14.1026 41.0199C14.0315 41.0633 13.9549 41.0958 13.8729 41.112C13.8729 41.112 13.8455 41.1175 13.8072 41.1283C13.7908 41.1283 13.7798 41.1283 13.7743 41.1337C13.8236 41.1608 13.8728 41.1987 13.9111 41.2421V41.2367ZM13.6268 40.9766C13.676 40.9603 13.7198 40.9387 13.758 40.917C13.8729 40.8466 13.9659 40.7545 14.0315 40.6407C14.0972 40.5269 14.13 40.4023 14.13 40.2668C14.13 40.1206 14.0972 39.9905 14.0425 39.8768C13.9823 39.763 13.8947 39.6709 13.7743 39.6004C13.654 39.5354 13.5119 39.4975 13.3423 39.4975H12.757V41.0308H13.375C13.4626 41.0308 13.5447 41.0091 13.6268 40.9766Z" fill="white"/>
<path d="M16.8264 39.4807H15.3769V40.3476H16.2138V40.4451H15.3769V41.6696H16.8264V41.7671H14.9776V39.3832H16.8264V39.4807Z" fill="white"/>
<path d="M19.1514 40.8252C19.2334 40.9173 19.2717 41.0311 19.2607 41.1611C19.2498 41.2749 19.2006 41.3833 19.113 41.4808C19.0255 41.5783 18.8997 41.6541 18.7466 41.7137C18.5934 41.7733 18.4239 41.8004 18.2324 41.8004C18.0081 41.8004 17.8331 41.7733 17.7073 41.7192C17.5924 41.6704 17.5049 41.6108 17.4393 41.5458C17.3736 41.4754 17.3189 41.3941 17.2806 41.2966H17.4119C17.4119 41.2966 17.4174 41.3074 17.4229 41.3182C17.4283 41.3291 17.4393 41.3507 17.4612 41.3778C17.4831 41.4049 17.5049 41.432 17.5268 41.4591C17.5486 41.4862 17.5869 41.5133 17.6252 41.5458C17.6689 41.5783 17.7127 41.6 17.7619 41.6216C17.8823 41.6758 18.041 41.7029 18.2379 41.7029C18.4512 41.7029 18.6262 41.665 18.7575 41.5837C18.8286 41.5404 18.8779 41.497 18.9107 41.4537C18.9435 41.4049 18.9655 41.3507 18.9655 41.2803C18.9655 41.2045 18.9435 41.1394 18.8779 41.0798C18.8177 41.0202 18.7411 40.9715 18.6427 40.9336C18.5497 40.8956 18.4184 40.8469 18.2488 40.7873C18.0465 40.7168 17.8823 40.6518 17.7565 40.5922C17.6252 40.5326 17.5159 40.4568 17.4283 40.3647C17.3408 40.2672 17.2916 40.148 17.2916 40.0125C17.2916 39.8879 17.3299 39.7741 17.4119 39.6766C17.494 39.5737 17.6088 39.4978 17.7565 39.4382C17.9042 39.3786 18.0738 39.3515 18.2653 39.3515C18.4348 39.3515 18.5824 39.384 18.7137 39.4436C18.7684 39.4707 18.8177 39.5032 18.8669 39.5357C18.9107 39.5737 18.9489 39.6062 18.9708 39.6387C18.9927 39.6712 19.0146 39.6983 19.031 39.7254C19.0474 39.7524 19.0584 39.7741 19.0584 39.7904V39.812H18.9436C18.8998 39.7254 18.8396 39.6603 18.7685 39.6116C18.6208 39.5141 18.4458 39.4653 18.2434 39.4653C18.041 39.4653 17.8932 39.5141 17.7729 39.6062C17.7127 39.6549 17.6635 39.7037 17.6361 39.747C17.6088 39.7958 17.5925 39.85 17.5925 39.915C17.5925 39.9908 17.6198 40.0613 17.6854 40.1155C17.7511 40.175 17.8276 40.2184 17.9261 40.2617C18.0191 40.3051 18.1503 40.3484 18.3199 40.408C18.5278 40.4785 18.6974 40.5381 18.8287 40.5976C18.9545 40.6572 19.0638 40.7331 19.1514 40.8252Z" fill="white"/>
<path d="M20.1146 41.773H19.7208V39.3891H20.1146V41.773Z" fill="white"/>
<path d="M22.417 39.5463C22.614 39.6546 22.7617 39.7955 22.8656 39.9797C22.9641 40.1639 23.0188 40.3644 23.0188 40.5811C23.0188 40.7978 22.9695 40.9929 22.8656 41.1771C22.7617 41.3559 22.6139 41.5021 22.4116 41.6105C22.2146 41.7189 21.9794 41.773 21.7059 41.773H20.5627V39.3891H21.7059C21.9849 39.3891 22.2201 39.4433 22.417 39.5517V39.5463ZM22.1928 41.5292C22.335 41.4317 22.4445 41.3017 22.5156 41.1337C22.5922 40.9658 22.625 40.7816 22.625 40.5811C22.625 40.3806 22.5867 40.1964 22.5156 40.0339C22.4445 39.8713 22.335 39.7359 22.1928 39.6384C22.0506 39.5408 21.8756 39.4921 21.6732 39.4867H20.9566V41.6755H21.6677C21.8701 41.6755 22.0451 41.6268 22.1873 41.5292H22.1928Z" fill="white"/>
<path d="M25.316 39.4807H23.8665V40.3476H24.7034V40.4451H23.8665V41.6696H25.316V41.7671H23.4672V39.3832H25.316V39.4807Z" fill="white"/>
<path d="M28.0567 39.3891H28.1661V41.773H28.0841L25.8796 39.9255V41.7622H25.7702V39.3891H25.9452L27.0339 40.3156L28.0622 41.1446V39.3891H28.0567Z" fill="white"/>
<path d="M30.956 41.1828L31.0489 41.2532C30.9286 41.4266 30.77 41.562 30.5786 41.6596C30.3871 41.7625 30.1792 41.8113 29.9494 41.8113C29.7087 41.8113 29.4845 41.7571 29.2821 41.6487C29.0797 41.5404 28.9157 41.3887 28.7953 41.199C28.675 41.0094 28.6202 40.8035 28.6202 40.5814C28.6202 40.3593 28.6804 40.1534 28.7953 39.9637C28.9157 39.7741 29.0742 39.6224 29.2821 39.5141C29.4845 39.4057 29.7087 39.3515 29.9494 39.3515C30.1737 39.3515 30.3816 39.4003 30.5731 39.4924C30.7645 39.5899 30.9176 39.7199 31.027 39.8825L30.9286 39.9421C30.8137 39.7904 30.6934 39.682 30.5621 39.6062C30.3816 39.5086 30.2066 39.4599 30.037 39.4599C29.8565 39.4599 29.6868 39.5086 29.5282 39.6062C29.3696 39.7037 29.2438 39.8391 29.1508 40.0125C29.0578 40.1859 29.0086 40.3701 29.0086 40.5706C29.0086 40.771 29.0578 40.9552 29.1508 41.1286C29.2438 41.302 29.3751 41.4374 29.5282 41.535C29.6868 41.6325 29.8565 41.6812 30.037 41.6812C30.2175 41.6812 30.3926 41.6325 30.5786 41.5295C30.7208 41.4483 30.8466 41.3291 30.9614 41.1665L30.956 41.1828Z" fill="white"/>
<path d="M33.2037 39.4807H31.7542V40.3476H32.5911V40.4451H31.7542V41.6696H33.2037V41.7671H31.3549V39.3832H33.2037V39.4807Z" fill="white"/>
<path d="M35.5287 40.8252C35.6107 40.9173 35.6491 41.0311 35.6382 41.1611C35.6273 41.2749 35.578 41.3833 35.4905 41.4808C35.3975 41.5783 35.2771 41.6541 35.1239 41.7137C34.9707 41.7733 34.8012 41.8004 34.6097 41.8004C34.3855 41.8004 34.2105 41.7733 34.0846 41.7192C33.9698 41.6704 33.8823 41.6108 33.8166 41.5458C33.751 41.4754 33.6963 41.3941 33.658 41.2966H33.7892C33.7892 41.2966 33.7947 41.3074 33.8002 41.3182C33.8002 41.3291 33.8166 41.3507 33.8385 41.3778C33.8604 41.4049 33.8822 41.432 33.9041 41.4591C33.926 41.4862 33.9644 41.5133 34.0026 41.5458C34.0464 41.5783 34.0902 41.6 34.1394 41.6216C34.2597 41.6758 34.4183 41.7029 34.6152 41.7029C34.8286 41.7029 35.0036 41.665 35.1349 41.5837C35.206 41.5404 35.2552 41.497 35.288 41.4537C35.3209 41.4049 35.3428 41.3507 35.3428 41.2803C35.3428 41.2045 35.3208 41.1394 35.2552 41.0798C35.195 41.0202 35.1185 40.9715 35.02 40.9336C34.927 40.8956 34.7957 40.8469 34.6262 40.7873C34.4238 40.7168 34.2597 40.6518 34.1339 40.5922C34.0026 40.5326 33.8932 40.4568 33.8057 40.3647C33.7127 40.2672 33.6689 40.148 33.6689 40.0125C33.6689 39.8879 33.7072 39.7741 33.7892 39.6766C33.8713 39.5737 33.9862 39.4978 34.1339 39.4382C34.2816 39.3786 34.4511 39.3515 34.6426 39.3515C34.8122 39.3515 34.9599 39.384 35.0912 39.4436C35.1459 39.4707 35.195 39.5032 35.2442 39.5357C35.288 39.5737 35.3264 39.6062 35.3483 39.6387C35.3701 39.6712 35.3919 39.6983 35.4084 39.7254C35.4248 39.7524 35.4357 39.7741 35.4357 39.7904V39.812H35.3209C35.2771 39.7254 35.2169 39.6603 35.1458 39.6116C34.9981 39.5141 34.8231 39.4653 34.6207 39.4653C34.4183 39.4653 34.2706 39.5141 34.1502 39.6062C34.09 39.6549 34.0408 39.7037 34.0135 39.747C33.9861 39.7958 33.9698 39.85 33.9698 39.915C33.9698 39.9908 33.9971 40.0613 34.0627 40.1155C34.1284 40.175 34.2049 40.2184 34.3034 40.2617C34.3964 40.3051 34.5276 40.3484 34.6972 40.408C34.9051 40.4785 35.0748 40.5381 35.206 40.5976C35.3318 40.6572 35.4412 40.7331 35.5287 40.8252Z" fill="white"/>
</svg>
