<svg width="119" height="91" viewBox="0 0 119 91" fill="none" xmlns="http://www.w3.org/2000/svg">
<mask id="mask0_12_4115" style="mask-type:luminance" maskUnits="userSpaceOnUse" x="0" y="66" width="10" height="15">
<path d="M0.00315722 66.9H0V80.3178H9.84713L9.3041 78.0763H2.30156V74.6444H7.956V72.3808H2.30156V69.1036H9.3041L9.84713 66.9H0.00315722Z" fill="white"/>
</mask>
<g mask="url(#mask0_12_4115)">
<path d="M6.84186 62.3643L-6.17871 70.9955L3.00721 84.8529L16.0278 76.2217L6.84186 62.3643Z" fill="url(#paint0_linear_12_4115)"/>
</g>
<mask id="mask1_12_4115" style="mask-type:luminance" maskUnits="userSpaceOnUse" x="19" y="66" width="9" height="15">
<path d="M19.3472 66.881V80.2578H27.1674V77.9594H21.6487V66.881H19.3472Z" fill="white"/>
</mask>
<g mask="url(#mask1_12_4115)">
<path d="M24.7779 63.2797L13.1836 70.9655L21.7328 83.8623L33.3271 76.1766L24.7779 63.2797Z" fill="url(#paint1_linear_12_4115)"/>
</g>
<mask id="mask2_12_4115" style="mask-type:luminance" maskUnits="userSpaceOnUse" x="31" y="66" width="13" height="15">
<path d="M41.2263 66.881C40.9264 67.3104 40.6359 67.7713 40.3486 68.267C40.0613 68.7626 39.7772 69.2583 39.4899 69.7603C39.2026 70.2591 38.9216 70.758 38.6406 71.2505C38.3596 71.743 38.085 72.2102 37.8103 72.6554L34.3216 66.881H31.7075L36.68 75.2285V80.3178H38.8648V75.2285L43.8183 66.881H41.2263Z" fill="white"/>
</mask>
<g mask="url(#mask2_12_4115)">
<path d="M40.1211 61.3057L25.519 70.9853L35.4045 85.8979L50.0065 76.2183L40.1211 61.3057Z" fill="url(#paint2_linear_12_4115)"/>
</g>
<mask id="mask3_12_4115" style="mask-type:luminance" maskUnits="userSpaceOnUse" x="51" y="66" width="11" height="15">
<path d="M54.83 67.0767C54.2523 67.2061 53.7408 67.4177 53.2988 67.7113C52.8568 68.0049 52.5001 68.3837 52.2349 68.8447C51.9665 69.3088 51.8339 69.8613 51.8339 70.5117C51.8339 71.162 51.9634 71.6766 52.2254 72.0902C52.4843 72.507 52.8221 72.8479 53.2294 73.1131C53.6398 73.3783 54.0944 73.5899 54.5933 73.7477C55.0921 73.9024 55.5909 74.0382 56.0834 74.1582C56.5002 74.2623 56.8885 74.3634 57.2547 74.4612C57.6178 74.5591 57.9367 74.6791 58.2082 74.8212C58.4829 74.9632 58.7007 75.14 58.8617 75.3452C59.0259 75.5536 59.108 75.8125 59.108 76.1251C59.108 76.4629 59.0164 76.7533 58.8333 76.9933C58.6502 77.2332 58.426 77.4353 58.1608 77.5994C57.8925 77.7605 57.6052 77.8804 57.2926 77.9594C56.9801 78.0383 56.7022 78.0793 56.4528 78.0793C55.7109 78.0793 55.0037 77.9909 54.3281 77.8141C53.6493 77.6405 53.0021 77.3879 52.3769 77.0659L51.7739 79.2696C52.5253 79.6484 53.2578 79.9168 53.9713 80.081C54.6848 80.242 55.4962 80.3241 56.4023 80.3241C57.04 80.3241 57.6588 80.2293 58.2619 80.0304C58.8649 79.8347 59.4016 79.5569 59.8688 79.1906C60.3361 78.8244 60.7086 78.3824 60.9865 77.8615C61.2643 77.3406 61.4064 76.7533 61.4064 76.103C61.4064 75.3737 61.2454 74.7675 60.9296 74.2876C60.6108 73.8046 60.213 73.4099 59.7331 73.1037C59.2564 72.7974 58.7323 72.5606 58.1671 72.3902C57.6052 72.2197 57.0685 72.0776 56.5633 71.9608C56.2129 71.8692 55.8908 71.7777 55.6004 71.6861C55.3099 71.5946 55.0605 71.4904 54.8521 71.3736C54.6438 71.2567 54.4859 71.1115 54.3754 70.9442C54.2618 70.7769 54.2081 70.5653 54.2081 70.3191C54.2081 69.9907 54.3123 69.7413 54.5206 69.5677C54.729 69.3909 54.9721 69.2709 55.2531 69.2078C55.5309 69.1415 55.8245 69.1067 56.1308 69.1004C56.437 69.0941 56.6864 69.0909 56.8822 69.0909C57.4915 69.0909 58.1198 69.1793 58.7638 69.353C59.4047 69.5266 60.0014 69.694 60.5476 69.8487L60.7402 67.8502C59.973 67.566 59.2721 67.3356 58.6344 67.1525C57.9967 66.9725 57.3273 66.8841 56.6265 66.8841C56.0013 66.8841 55.4015 66.9504 54.8206 67.0798" fill="white"/>
</mask>
<g mask="url(#mask3_12_4115)">
<path d="M58.469 62.4453L45.5879 70.984L54.7162 84.7546L67.5973 76.2158L58.469 62.4453Z" fill="url(#paint3_linear_12_4115)"/>
</g>
<mask id="mask4_12_4115" style="mask-type:luminance" maskUnits="userSpaceOnUse" x="71" y="66" width="3" height="15">
<path d="M71.1838 66.862H71.1807V80.2578H71.1838H73.4822V66.862H71.1838Z" fill="white"/>
</mask>
<g mask="url(#mask4_12_4115)">
<path d="M72.7769 65.8064L65.0088 70.9558L71.8817 81.3238L79.6498 76.1744L72.7769 65.8064Z" fill="url(#paint4_linear_12_4115)"/>
</g>
<mask id="mask5_12_4115" style="mask-type:luminance" maskUnits="userSpaceOnUse" x="84" y="66" width="12" height="15">
<path d="M92.9085 66.881V74.6823C92.9085 75.1369 92.8328 75.5663 92.6844 75.9704C92.536 76.3745 92.3245 76.7218 92.053 77.0123C91.7783 77.3059 91.4594 77.5363 91.09 77.7037C90.7206 77.8742 90.3165 77.9562 89.8745 77.9562C89.4325 77.9562 89 77.8742 88.6117 77.7037C88.2233 77.5332 87.8887 77.3027 87.6109 77.0123C87.333 76.7218 87.1152 76.3714 86.9573 75.9704C86.8026 75.5663 86.7268 75.1369 86.7268 74.6823V66.881H84.4253V74.6823C84.4253 75.4495 84.561 76.1725 84.8357 76.8449C85.1104 77.5206 85.4893 78.1109 85.9755 78.6192C86.4617 79.1244 87.0394 79.5253 87.6993 79.819C88.3654 80.1126 89.0852 80.2578 89.865 80.2578C90.6449 80.2578 91.3237 80.1126 91.9803 79.819C92.6402 79.5253 93.2022 79.1275 93.6789 78.6192C94.1525 78.1109 94.5282 77.5206 94.7997 76.8449C95.0743 76.1693 95.2101 75.4463 95.2101 74.6823V66.881H92.9085Z" fill="white"/>
</mask>
<g mask="url(#mask5_12_4115)">
<path d="M91.9138 61.9172L78.2617 70.967L87.7145 85.227L101.367 76.1772L91.9138 61.9172Z" fill="url(#paint5_linear_12_4115)"/>
</g>
<mask id="mask6_12_4115" style="mask-type:luminance" maskUnits="userSpaceOnUse" x="106" y="66" width="13" height="15">
<path d="M112.29 74.7991L106.146 66.9189V80.2578H106.15H108.448V73.3184L112.252 78.1331L116.114 73.1795V80.2578H118.412H118.415V66.9L112.29 74.7991Z" fill="white"/>
</mask>
<g mask="url(#mask6_12_4115)">
<path d="M114.669 61.2565L99.9956 70.9832L109.891 85.9115L124.565 76.1849L114.669 61.2565Z" fill="url(#paint6_linear_12_4115)"/>
</g>
<mask id="mask7_12_4115" style="mask-type:luminance" maskUnits="userSpaceOnUse" x="30" y="85" width="5" height="6">
<path d="M31.3123 88.2548H32.9825C33.1151 88.2548 33.2508 88.2643 33.3866 88.2801C33.5286 88.299 33.6581 88.3401 33.7781 88.4032C33.9012 88.4695 34.0022 88.5642 34.0843 88.681C34.1664 88.7979 34.2201 88.9494 34.2516 89.1357V89.1483V89.1609C34.2516 89.4419 34.1822 89.6787 34.0433 89.8618C33.8949 90.0544 33.6455 90.1586 33.2887 90.1744H31.3123V88.2548ZM31.3123 85.9312H31.4575C31.9059 85.9312 32.2405 85.9312 32.4615 85.9343C32.6794 85.9375 32.8278 85.9406 32.9067 85.9406H32.9761C33.2066 85.9691 33.3803 86.0701 33.4971 86.2406C33.6044 86.4016 33.6549 86.5784 33.6455 86.771C33.636 86.9604 33.5634 87.1372 33.4339 87.2951C33.2982 87.4592 33.1056 87.5571 32.8372 87.5855H31.3123V85.9312ZM30.6777 85.2713V90.8405H33.3392C33.5886 90.8342 33.8159 90.7837 34.0148 90.6921C34.2137 90.5974 34.3874 90.4743 34.5263 90.3228C34.6684 90.1681 34.7757 89.9913 34.8515 89.7955C34.9273 89.5998 34.9651 89.3977 34.9651 89.1957C34.9651 89.0567 34.9336 88.9147 34.8736 88.7758C34.8104 88.6274 34.7315 88.4916 34.6336 88.3685C34.5389 88.2454 34.4253 88.138 34.3021 88.0465C34.1853 87.9581 34.0717 87.8981 33.9643 87.8665L33.6391 87.7781L33.9233 87.6013C34.0243 87.5382 34.1032 87.4687 34.1601 87.3961C34.2169 87.3172 34.2548 87.2382 34.28 87.1656C34.3053 87.0899 34.3179 87.0109 34.3179 86.9415C34.3211 86.8594 34.3242 86.7899 34.3242 86.7331C34.3242 86.5437 34.2864 86.3542 34.2169 86.1774C34.1443 85.9975 34.0433 85.8365 33.9107 85.7007C33.7781 85.5649 33.6234 85.4576 33.4402 85.3787C33.2729 85.3029 33.0898 85.265 32.8972 85.265H30.6777V85.2713Z" fill="white"/>
</mask>
<g mask="url(#mask7_12_4115)">
<path d="M34.6947 84.2437L29.3311 85.6208L30.9383 91.8805L36.3019 90.5033L34.6947 84.2437Z" fill="url(#paint7_linear_12_4115)"/>
</g>
<mask id="mask8_12_4115" style="mask-type:luminance" maskUnits="userSpaceOnUse" x="48" y="85" width="6" height="6">
<path d="M52.5754 85.2714C52.4618 85.4387 52.3513 85.6155 52.2439 85.8018C52.1176 86.0164 51.9945 86.2343 51.8682 86.4521C51.7451 86.67 51.622 86.8878 51.4988 87.1025C51.3757 87.3203 51.2557 87.5256 51.1326 87.7213L51.0063 87.9265L49.3993 85.2714H48.6006L50.659 88.7284V90.8437H51.3189V88.7284L53.3679 85.2714H52.5723H52.5754Z" fill="white"/>
</mask>
<g mask="url(#mask8_12_4115)">
<path d="M53.0726 84.1276L47.2563 85.6209L48.8934 91.9968L54.7096 90.5034L53.0726 84.1276Z" fill="url(#paint8_linear_12_4115)"/>
</g>
<mask id="mask9_12_4115" style="mask-type:luminance" maskUnits="userSpaceOnUse" x="58" y="85" width="5" height="6">
<path d="M59.3196 85.3534C59.086 85.4071 58.8776 85.4924 58.7008 85.6092C58.5272 85.7228 58.3883 85.8712 58.2841 86.0543C58.1799 86.2311 58.1294 86.4521 58.1294 86.7078C58.1294 86.9636 58.1799 87.1625 58.2778 87.3203C58.3788 87.4813 58.5114 87.6171 58.6693 87.7244C58.8366 87.8318 59.026 87.9202 59.2281 87.9833C59.4428 88.0496 59.6575 88.1096 59.8721 88.1601C60.0553 88.2043 60.2257 88.2485 60.3868 88.2927C60.5541 88.3369 60.7056 88.3969 60.8351 88.4601C60.9708 88.5295 61.0845 88.6242 61.1666 88.7284C61.2581 88.8452 61.3055 88.9905 61.3055 89.1578C61.3055 89.3377 61.255 89.4956 61.1571 89.625C61.0655 89.745 60.9519 89.846 60.8224 89.925C60.693 90.0007 60.5541 90.0607 60.4025 90.0986C60.2542 90.1365 60.1216 90.1555 60.0016 90.1555C59.6669 90.1555 59.3417 90.1144 59.0355 90.0355C58.7892 89.9723 58.5493 89.8839 58.3157 89.7766L58.1325 90.4491C58.4104 90.5817 58.6882 90.6795 58.9534 90.7364C59.2533 90.8058 59.5975 90.8374 59.9826 90.8374C60.2415 90.8374 60.5004 90.7964 60.7467 90.7174C60.9961 90.6385 61.2139 90.5217 61.4034 90.3733C61.5896 90.2281 61.7412 90.0481 61.8517 89.8429C61.9622 89.6377 62.019 89.404 62.019 89.1452C62.019 88.8579 61.9559 88.6179 61.8327 88.4348C61.7064 88.2422 61.5454 88.0844 61.3528 87.9612C61.1571 87.8349 60.9361 87.7371 60.7056 87.6676C60.4625 87.5982 60.232 87.535 60.011 87.4813C59.8563 87.4435 59.7143 87.4024 59.5848 87.3614C59.4491 87.3203 59.3291 87.2667 59.2281 87.213C59.1176 87.153 59.0292 87.0709 58.9692 86.9762C58.9061 86.8783 58.8745 86.7615 58.8745 86.6226C58.8745 86.4363 58.9376 86.288 59.0639 86.1806C59.1712 86.0891 59.3007 86.0259 59.4459 85.9912C59.5754 85.9596 59.7143 85.9438 59.8564 85.9407C59.9921 85.9407 60.1026 85.9375 60.1879 85.9375C60.4688 85.9375 60.7561 85.9754 61.0498 86.0575C61.2676 86.1175 61.4697 86.1743 61.6622 86.228L61.7191 85.6439C61.4286 85.5397 61.1603 85.4513 60.9172 85.3819C60.6551 85.3061 60.371 85.2682 60.0805 85.2682C59.8185 85.2682 59.5659 85.2966 59.326 85.3503" fill="white"/>
</mask>
<g mask="url(#mask9_12_4115)">
<path d="M61.7693 84.3422L56.7817 85.6228L58.3638 91.7846L63.3513 90.504L61.7693 84.3422Z" fill="url(#paint9_linear_12_4115)"/>
</g>
<mask id="mask10_12_4115" style="mask-type:luminance" maskUnits="userSpaceOnUse" x="67" y="85" width="2" height="6">
<path d="M67.4241 85.2618L67.4209 85.265V90.8153L67.4241 90.8184H68.1344V85.265L68.1313 85.2618H67.4241Z" fill="white"/>
</mask>
<g mask="url(#mask10_12_4115)">
<path d="M68.0841 85.0982L66.0781 85.6132L67.46 90.9952L69.466 90.4802L68.0841 85.0982Z" fill="url(#paint10_linear_12_4115)"/>
</g>
<mask id="mask11_12_4115" style="mask-type:luminance" maskUnits="userSpaceOnUse" x="74" y="85" width="5" height="6">
<path d="M75.0009 85.9501H75.9038C76.1816 85.9628 76.45 86.0259 76.6962 86.1396C76.9457 86.2501 77.1635 86.4048 77.3561 86.5942C77.5424 86.7836 77.6939 87.0109 77.8012 87.2603C77.9117 87.5129 77.9686 87.7844 77.9686 88.0717C77.9686 88.359 77.9117 88.6305 77.8012 88.8831C77.6939 89.1357 77.5424 89.3567 77.3561 89.5493C77.1667 89.7419 76.9457 89.8934 76.6962 90.0071C76.4468 90.1207 76.1816 90.1807 75.8975 90.1933H75.0009V85.9501ZM74.3347 85.2808V90.8405H75.8975C76.2795 90.8405 76.6394 90.7679 76.9709 90.6227C77.3024 90.4775 77.596 90.2754 77.8391 90.026C78.0822 89.7734 78.2811 89.4766 78.4232 89.142C78.5653 88.8105 78.6347 88.4474 78.6347 88.0654C78.6347 87.6834 78.5653 87.3203 78.42 86.9825C78.278 86.6447 78.0822 86.3448 77.836 86.0922C77.5929 85.8428 77.2993 85.6407 76.9678 85.4955C76.6363 85.3503 76.2763 85.2776 75.8943 85.2776H74.3315L74.3347 85.2808Z" fill="white"/>
</mask>
<g mask="url(#mask11_12_4115)">
<path d="M78.3642 84.2501L72.9883 85.6304L74.5939 91.884L79.9698 90.5037L78.3642 84.2501Z" fill="url(#paint11_linear_12_4115)"/>
</g>
<mask id="mask12_12_4115" style="mask-type:luminance" maskUnits="userSpaceOnUse" x="84" y="85" width="5" height="6">
<path d="M84.1123 85.2808V90.8437H88.0777L87.9103 90.1586H84.8227V88.3685H87.2916V87.6739H84.8227V85.9501H87.9103L88.0777 85.2808H84.1123Z" fill="white"/>
</mask>
<g mask="url(#mask12_12_4115)">
<path d="M87.83 84.336L82.769 85.6354L84.3543 91.8094L89.4152 90.51L87.83 84.336Z" fill="url(#paint12_linear_12_4115)"/>
</g>
<mask id="mask13_12_4115" style="mask-type:luminance" maskUnits="userSpaceOnUse" x="39" y="85" width="7" height="6">
<path d="M41.8884 86.6605C41.6389 87.1467 41.3895 87.6266 41.1401 88.1064C40.8907 88.5863 40.6381 89.0694 40.3824 89.5587C40.1614 89.9755 39.9372 90.4048 39.7036 90.8405H40.4392L41.3169 89.1515H41.3043L42.5324 86.8089L43.2112 88.1096L44.0573 89.7103H44.0636L44.1394 89.8681L44.654 90.8405H45.3454C45.1181 90.4112 44.8971 89.9881 44.6856 89.5745C44.4362 89.0946 44.1868 88.6116 43.9373 88.1317C43.6879 87.6518 43.4385 87.1688 43.1828 86.6826L42.5324 85.426C42.3146 85.8428 42.0967 86.2564 41.8915 86.6605" fill="white"/>
</mask>
<g mask="url(#mask13_12_4115)">
<path d="M44.9896 84.072L38.3936 85.7656L40.0471 92.2056L46.6431 90.5121L44.9896 84.072Z" fill="url(#paint13_linear_12_4115)"/>
</g>
<mask id="mask14_12_4115" style="mask-type:luminance" maskUnits="userSpaceOnUse" x="53" y="23" width="13" height="6">
<path d="M55.9949 24.6067C54.6215 25.3834 53.646 26.5768 53.084 27.9281C54.0059 27.6187 54.9467 27.1198 55.4013 26.7946C56.0012 26.3747 57.1157 25.7086 58.2017 25.5697L58.77 25.5349C59.774 25.5349 60.8064 25.8443 61.6525 26.4063C62.587 27.0346 63.5499 27.8965 64.6423 28.3511C65.1822 28.5753 65.5294 28.6416 65.9115 28.6668C65.7662 28.1617 65.5768 27.6629 65.3053 27.1861C64.0487 24.9667 61.7346 23.7164 59.3509 23.7164C58.2112 23.7164 57.0525 24.0037 55.9917 24.6067" fill="white"/>
</mask>
<g mask="url(#mask14_12_4115)">
<path d="M60.1909 17.3424L50.6206 25.9263L58.7998 35.0454L68.3701 26.4615L60.1909 17.3424Z" fill="url(#paint14_linear_12_4115)"/>
</g>
<mask id="mask15_12_4115" style="mask-type:luminance" maskUnits="userSpaceOnUse" x="52" y="26" width="15" height="6">
<path d="M58.7664 26.1948L58.2802 26.2232C57.4088 26.3243 56.3196 26.9462 55.7829 27.3314C55.1736 27.7608 53.9833 28.3954 52.831 28.7048H52.8278L52.8215 28.7079L52.7773 28.7174C52.752 28.8121 52.7457 28.9163 52.7236 29.0142C52.8815 28.9542 53.0362 28.8973 53.1877 28.8468C53.6203 28.7111 54.0717 28.6542 54.5106 28.6542C55.4167 28.6542 56.2659 28.8847 56.8216 29.2067C57.6204 29.674 58.8295 30.4159 59.5399 30.7695C60.045 31.0253 60.6796 31.2494 61.33 31.2494H61.3363L62.0656 31.1515C62.7097 30.9716 64.6482 30.1034 66.0184 29.352C65.5069 29.3362 65.0302 29.232 64.3893 28.9605C63.1612 28.4427 62.1635 27.5366 61.2858 26.9557C60.5597 26.4695 59.6409 26.198 58.7727 26.198L58.7664 26.1948Z" fill="white"/>
</mask>
<g mask="url(#mask15_12_4115)">
<path d="M60.088 19.5889L50.2075 28.451L58.646 37.8592L68.5265 28.997L60.088 19.5889Z" fill="url(#paint15_linear_12_4115)"/>
</g>
<mask id="mask16_12_4115" style="mask-type:luminance" maskUnits="userSpaceOnUse" x="53" y="32" width="13" height="6">
<path d="M56.7398 33.2984C56.0673 33.6236 54.7824 34.2992 53.9805 34.7223C55.417 36.5787 57.6649 37.5321 59.9222 37.3459C60.099 37.3301 60.2727 37.308 60.4431 37.2795C60.7462 37.2322 61.0525 37.1754 61.3524 37.0838C61.6302 36.9954 61.8923 36.8786 62.1512 36.7555C62.3374 36.6734 62.5237 36.6134 62.7037 36.5124C63.6666 35.9536 64.4843 35.1706 65.0715 34.2297C64.5537 34.3245 64.0739 34.356 63.7108 34.356L63.4266 34.3497C62.7857 34.3213 62.1922 34.1698 60.5189 33.2921C59.8338 32.9322 59.2182 32.7996 58.6562 32.7996C57.9553 32.7996 57.3239 33.0111 56.743 33.2952" fill="white"/>
</mask>
<g mask="url(#mask16_12_4115)">
<path d="M60.1241 27.2926L51.6279 34.9131L58.9238 43.0474L67.42 35.4269L60.1241 27.2926Z" fill="url(#paint16_linear_12_4115)"/>
</g>
<mask id="mask17_12_4115" style="mask-type:luminance" maskUnits="userSpaceOnUse" x="52" y="29" width="15" height="6">
<path d="M54.5079 29.3173C54.1227 29.3173 53.7376 29.3678 53.3871 29.4783C53.1377 29.5572 52.8599 29.6709 52.5884 29.7877C52.4305 31.1737 52.6736 32.6165 53.4155 33.9235C53.4692 34.0182 53.5387 34.0909 53.5955 34.1824C54.3879 33.7625 55.7329 33.0585 56.4464 32.708C57.0841 32.3955 57.8166 32.1461 58.6532 32.1461H58.6564C59.3257 32.1461 60.0519 32.3102 60.819 32.7144C62.4923 33.5857 62.928 33.6678 63.4521 33.6962L63.7047 33.7025H63.711C64.1719 33.7025 64.8728 33.6394 65.539 33.4405C66.0315 32.3765 66.243 31.2021 66.1515 30.0245C64.7528 30.779 62.9754 31.5809 62.2398 31.7925C61.9335 31.8809 61.6273 31.9187 61.3305 31.9187C60.5254 31.9187 59.7993 31.6472 59.2373 31.3694C58.4796 30.9905 57.2767 30.2486 56.4811 29.7814C56.0739 29.5383 55.3004 29.3204 54.5174 29.3204H54.5016L54.5079 29.3173Z" fill="white"/>
</mask>
<g mask="url(#mask17_12_4115)">
<path d="M60.0869 22.4511L50.0137 31.4861L58.5913 41.0493L68.6645 32.0143L60.0869 22.4511Z" fill="url(#paint17_linear_12_4115)"/>
</g>
<mask id="mask18_12_4115" style="mask-type:luminance" maskUnits="userSpaceOnUse" x="32" y="0" width="54" height="62">
<path d="M54.8993 49.2262H59.2246V50.9816C58.9657 51.0194 58.7447 51.1615 58.5963 51.3604L54.8993 49.2293V49.2262ZM59.4961 50.9784V49.2262H63.8182L60.1338 51.3541C59.9823 51.152 59.755 51.0163 59.4929 50.9784M46.1572 44.4936L53.8827 48.9515H48.7334L46.1572 44.4936ZM72.5604 44.4936L69.9873 48.9515H64.838L72.5604 44.4936ZM41.7309 41.6206C41.794 41.4912 41.8319 41.3523 41.8319 41.1976C41.8319 41.0776 41.8066 40.9639 41.7656 40.8566L43.2494 40.001L45.4121 43.7454L41.7309 41.6206ZM75.4681 40.0042L76.952 40.8629C76.8541 41.106 76.8572 41.3838 76.9709 41.6301L73.3054 43.7454L75.4649 40.001L75.4681 40.0042ZM40.951 40.2473V36.0262L43.1105 39.7674L41.633 40.6198C41.472 40.4083 41.2289 40.2694 40.951 40.2441M75.6039 39.7674L77.7665 36.0262V40.2631C77.5865 40.2788 77.4097 40.3388 77.2582 40.4588C77.1951 40.5093 77.1414 40.5661 77.0909 40.6261L75.6039 39.7674ZM38.1065 30.5454L40.6795 26.0875V35.0033L38.1065 30.5454ZM78.038 26.0875L80.6142 30.5454L78.038 35.0033V26.0875ZM75.6039 21.3234L77.0814 20.4709C77.255 20.6888 77.5045 20.8087 77.7665 20.8277V25.0677L75.6039 21.3234ZM40.951 20.8403C41.2289 20.8151 41.4688 20.6761 41.6298 20.4678L43.1105 21.3234L40.951 25.0677V20.8403ZM41.7656 20.231C41.8066 20.1236 41.8319 20.0068 41.8319 19.8837C41.8319 19.7353 41.794 19.5932 41.7309 19.4669L45.4089 17.3422L43.2463 21.0834L41.7624 20.2278L41.7656 20.231ZM73.3086 17.3453L76.9709 19.4575C76.8541 19.7006 76.8446 19.9816 76.9488 20.2341L75.4712 21.0866L73.3118 17.3453H73.3086ZM48.7334 12.1392H53.8827L46.1572 16.6003L48.7334 12.1392ZM59.7613 21.9643C59.7613 21.7906 59.6476 21.6454 59.4961 21.5885V12.1361H64.2918L72.8319 17.0707L75.2313 21.2223L67.0448 25.9517C66.9754 25.8886 66.8838 25.8507 66.7828 25.8507C66.5618 25.8507 66.3818 26.0307 66.3818 26.2517C66.3818 26.4727 66.5618 26.6558 66.7828 26.6558C67.0038 26.6558 67.1837 26.4758 67.1837 26.2517C67.1837 26.2327 67.1838 26.2106 67.1774 26.1917L75.3702 21.4623L77.7696 25.6139V35.48L75.3702 39.6316L67.1901 34.9085C67.1964 34.8833 67.1995 34.8549 67.1995 34.8265C67.1995 34.6023 67.0196 34.4255 66.7986 34.4255C66.5776 34.4255 66.3976 34.6054 66.3976 34.8265C66.3976 35.0475 66.5776 35.2306 66.7986 35.2306C66.8933 35.2306 66.9785 35.1958 67.048 35.1422L75.2376 39.8716L72.8382 44.0264L64.2981 48.9578H59.5024V39.5085C59.6603 39.4548 59.7771 39.3064 59.7771 39.1296C59.7771 38.9086 59.5971 38.7287 59.3761 38.7287C59.1551 38.7287 58.972 38.9086 58.972 39.1296C58.972 39.3001 59.0794 39.4454 59.2309 39.5022V48.9578H54.4352L45.892 44.0264L43.4957 39.8716L51.6885 35.1422C51.7579 35.1927 51.84 35.2274 51.9347 35.2274C52.1557 35.2274 52.3357 35.0475 52.3357 34.8233C52.3357 34.5991 52.1557 34.4223 51.9347 34.4223C51.7137 34.4223 51.5306 34.6023 51.5306 34.8233C51.5306 34.8549 51.5338 34.8801 51.5401 34.9085L43.3568 39.6316L40.9574 35.48V25.6139L43.3568 21.4623L51.5496 26.1917C51.5464 26.2106 51.5433 26.2327 51.5433 26.2517C51.5433 26.4727 51.7232 26.6526 51.9442 26.6526C52.1652 26.6526 52.3483 26.4727 52.3483 26.2517C52.3483 26.0307 52.1684 25.8475 51.9442 25.8475C51.8432 25.8475 51.7516 25.8886 51.6822 25.9486L43.4957 21.2192L45.892 17.0675L54.4352 12.1329H59.2309V21.5854C59.0762 21.6422 58.9625 21.7874 58.9625 21.9611C58.9625 22.1852 59.1425 22.3652 59.3667 22.3652C59.5908 22.3652 59.7708 22.1852 59.7708 21.9611M64.838 12.1392H69.9873L72.5604 16.6003L64.838 12.1392ZM59.4961 10.0334C59.7329 10.0018 59.9413 9.88502 60.0928 9.71453L63.8214 11.8677H59.4993V10.0366L59.4961 10.0334ZM58.6405 9.70822C58.7889 9.8787 58.991 9.99867 59.2246 10.0334V11.8677H54.8993L58.6405 9.71137V9.70822ZM59.2246 0.00631323V8.13596C58.7605 8.20857 58.4069 8.60322 58.4069 9.08626C58.4069 9.22517 58.4385 9.36093 58.4921 9.4809L54.3531 11.8677H48.5724L45.6836 16.8749L41.5793 19.2428C41.4025 19.0502 41.1499 18.9239 40.8658 18.9239C40.5659 18.9239 40.2975 19.066 40.1207 19.287L32.9761 15.1606L32.8403 15.3974L39.9786 19.5206C39.9313 19.6343 39.906 19.7574 39.906 19.89C39.906 20.3573 40.2375 20.7487 40.6795 20.834V25.5445L37.7876 30.5485L40.6795 35.5558V40.2599C40.2375 40.3483 39.906 40.7366 39.906 41.2039C39.906 41.3396 39.9313 41.4659 39.9818 41.5796L32.8435 45.7028L32.9792 45.9396L40.127 41.8132C40.3038 42.0279 40.569 42.17 40.869 42.17C41.1499 42.17 41.4025 42.05 41.5793 41.8574L45.6899 44.2284L48.5787 49.2357H54.3594L58.4732 51.6098C58.4353 51.714 58.4132 51.8214 58.4132 51.9382C58.4132 52.4212 58.7668 52.8159 59.2309 52.8885V61.0939H59.5024V52.8885C59.9728 52.8253 60.3391 52.4244 60.3391 51.935C60.3391 51.8182 60.3138 51.7014 60.2759 51.5972L64.3739 49.2293H70.1546L73.0434 44.2221L77.1382 41.8606C77.4729 42.2363 78.0412 42.2963 78.4453 41.9869C78.5116 41.9363 78.5653 41.8764 78.6126 41.8132L85.7509 45.9364L85.8867 45.6997L78.7484 41.5764C78.8683 41.2702 78.8336 40.9103 78.6189 40.6324C78.4737 40.443 78.2685 40.3262 78.0506 40.282V35.5526L80.9394 30.5454L78.0506 25.5413V20.8119C78.1864 20.7803 78.3158 20.7235 78.4327 20.6351C78.7831 20.3699 78.8904 19.9121 78.7389 19.5238L85.8898 15.3942L85.7541 15.1574L78.6095 19.2807C78.2843 18.8608 77.6813 18.7818 77.2614 19.107C77.214 19.1449 77.173 19.186 77.1319 19.227L73.0466 16.8686L70.1578 11.8614H64.377L60.2538 9.4809C60.3106 9.35777 60.3454 9.22202 60.3454 9.07679C60.3454 8.58743 59.9791 8.18963 59.5087 8.12649V0H59.2372L59.2246 0.00631323Z" fill="white"/>
</mask>
<g mask="url(#mask18_12_4115)">
<path d="M62.2313 -26.3544L2.48047 27.2381L56.4862 87.4496L116.237 33.8571L62.2313 -26.3544Z" fill="url(#paint18_linear_12_4115)"/>
</g>
<defs>
<linearGradient id="paint0_linear_12_4115" x1="-22.5576" y1="92.2117" x2="118.779" y2="-1.47895" gradientUnits="userSpaceOnUse">
<stop stop-color="#D4A18D"/>
<stop offset="0.05" stop-color="#D4A18D"/>
<stop offset="0.11" stop-color="#E1B9A9"/>
<stop offset="0.18" stop-color="#ECCBBF"/>
<stop offset="0.24" stop-color="#F2D7CC"/>
<stop offset="0.3" stop-color="#F5DBD1"/>
<stop offset="0.52" stop-color="#D4A18D"/>
<stop offset="0.58" stop-color="#E1B9A9"/>
<stop offset="0.64" stop-color="#ECCBBF"/>
<stop offset="0.7" stop-color="#F2D7CC"/>
<stop offset="0.76" stop-color="#F5DBD1"/>
<stop offset="0.98" stop-color="#CF9E89"/>
<stop offset="1" stop-color="#CF9E89"/>
</linearGradient>
<linearGradient id="paint1_linear_12_4115" x1="-17.143" y1="100.7" x2="124.194" y2="7.0092" gradientUnits="userSpaceOnUse">
<stop stop-color="#D4A18D"/>
<stop offset="0.05" stop-color="#D4A18D"/>
<stop offset="0.11" stop-color="#E1B9A9"/>
<stop offset="0.18" stop-color="#ECCBBF"/>
<stop offset="0.24" stop-color="#F2D7CC"/>
<stop offset="0.3" stop-color="#F5DBD1"/>
<stop offset="0.52" stop-color="#D4A18D"/>
<stop offset="0.58" stop-color="#E1B9A9"/>
<stop offset="0.64" stop-color="#ECCBBF"/>
<stop offset="0.7" stop-color="#F2D7CC"/>
<stop offset="0.76" stop-color="#F5DBD1"/>
<stop offset="0.98" stop-color="#CF9E89"/>
<stop offset="1" stop-color="#CF9E89"/>
</linearGradient>
<linearGradient id="paint2_linear_12_4115" x1="-12.7227" y1="107.293" x2="128.614" y2="13.6023" gradientUnits="userSpaceOnUse">
<stop stop-color="#D4A18D"/>
<stop offset="0.05" stop-color="#D4A18D"/>
<stop offset="0.11" stop-color="#E1B9A9"/>
<stop offset="0.18" stop-color="#ECCBBF"/>
<stop offset="0.24" stop-color="#F2D7CC"/>
<stop offset="0.3" stop-color="#F5DBD1"/>
<stop offset="0.52" stop-color="#D4A18D"/>
<stop offset="0.58" stop-color="#E1B9A9"/>
<stop offset="0.64" stop-color="#ECCBBF"/>
<stop offset="0.7" stop-color="#F2D7CC"/>
<stop offset="0.76" stop-color="#F5DBD1"/>
<stop offset="0.98" stop-color="#CF9E89"/>
<stop offset="1" stop-color="#CF9E89"/>
</linearGradient>
<linearGradient id="paint3_linear_12_4115" x1="-6.81801" y1="116.146" x2="134.519" y2="22.4556" gradientUnits="userSpaceOnUse">
<stop stop-color="#D4A18D"/>
<stop offset="0.05" stop-color="#D4A18D"/>
<stop offset="0.11" stop-color="#E1B9A9"/>
<stop offset="0.18" stop-color="#ECCBBF"/>
<stop offset="0.24" stop-color="#F2D7CC"/>
<stop offset="0.3" stop-color="#F5DBD1"/>
<stop offset="0.52" stop-color="#D4A18D"/>
<stop offset="0.58" stop-color="#E1B9A9"/>
<stop offset="0.64" stop-color="#ECCBBF"/>
<stop offset="0.7" stop-color="#F2D7CC"/>
<stop offset="0.76" stop-color="#F5DBD1"/>
<stop offset="0.98" stop-color="#CF9E89"/>
<stop offset="1" stop-color="#CF9E89"/>
</linearGradient>
<linearGradient id="paint4_linear_12_4115" x1="-2.19284" y1="123.248" x2="139.144" y2="29.5578" gradientUnits="userSpaceOnUse">
<stop stop-color="#D4A18D"/>
<stop offset="0.05" stop-color="#D4A18D"/>
<stop offset="0.11" stop-color="#E1B9A9"/>
<stop offset="0.18" stop-color="#ECCBBF"/>
<stop offset="0.24" stop-color="#F2D7CC"/>
<stop offset="0.3" stop-color="#F5DBD1"/>
<stop offset="0.52" stop-color="#D4A18D"/>
<stop offset="0.58" stop-color="#E1B9A9"/>
<stop offset="0.64" stop-color="#ECCBBF"/>
<stop offset="0.7" stop-color="#F2D7CC"/>
<stop offset="0.76" stop-color="#F5DBD1"/>
<stop offset="0.98" stop-color="#CF9E89"/>
<stop offset="1" stop-color="#CF9E89"/>
</linearGradient>
<linearGradient id="paint5_linear_12_4115" x1="3.2057" y1="131.227" x2="144.542" y2="37.5368" gradientUnits="userSpaceOnUse">
<stop stop-color="#D4A18D"/>
<stop offset="0.05" stop-color="#D4A18D"/>
<stop offset="0.11" stop-color="#E1B9A9"/>
<stop offset="0.18" stop-color="#ECCBBF"/>
<stop offset="0.24" stop-color="#F2D7CC"/>
<stop offset="0.3" stop-color="#F5DBD1"/>
<stop offset="0.52" stop-color="#D4A18D"/>
<stop offset="0.58" stop-color="#E1B9A9"/>
<stop offset="0.64" stop-color="#ECCBBF"/>
<stop offset="0.7" stop-color="#F2D7CC"/>
<stop offset="0.76" stop-color="#F5DBD1"/>
<stop offset="0.98" stop-color="#CF9E89"/>
<stop offset="1" stop-color="#CF9E89"/>
</linearGradient>
<linearGradient id="paint6_linear_12_4115" x1="10.2312" y1="141.523" x2="151.568" y2="47.8321" gradientUnits="userSpaceOnUse">
<stop stop-color="#D4A18D"/>
<stop offset="0.05" stop-color="#D4A18D"/>
<stop offset="0.11" stop-color="#E1B9A9"/>
<stop offset="0.18" stop-color="#ECCBBF"/>
<stop offset="0.24" stop-color="#F2D7CC"/>
<stop offset="0.3" stop-color="#F5DBD1"/>
<stop offset="0.52" stop-color="#D4A18D"/>
<stop offset="0.58" stop-color="#E1B9A9"/>
<stop offset="0.64" stop-color="#ECCBBF"/>
<stop offset="0.7" stop-color="#F2D7CC"/>
<stop offset="0.76" stop-color="#F5DBD1"/>
<stop offset="0.98" stop-color="#CF9E89"/>
<stop offset="1" stop-color="#CF9E89"/>
</linearGradient>
<linearGradient id="paint7_linear_12_4115" x1="21.68" y1="89.4048" x2="93.8442" y2="70.8762" gradientUnits="userSpaceOnUse">
<stop stop-color="#D4A18D"/>
<stop offset="0.05" stop-color="#D4A18D"/>
<stop offset="0.11" stop-color="#E1B9A9"/>
<stop offset="0.18" stop-color="#ECCBBF"/>
<stop offset="0.24" stop-color="#F2D7CC"/>
<stop offset="0.3" stop-color="#F5DBD1"/>
<stop offset="0.52" stop-color="#D4A18D"/>
<stop offset="0.58" stop-color="#E1B9A9"/>
<stop offset="0.64" stop-color="#ECCBBF"/>
<stop offset="0.7" stop-color="#F2D7CC"/>
<stop offset="0.76" stop-color="#F5DBD1"/>
<stop offset="0.98" stop-color="#CF9E89"/>
<stop offset="1" stop-color="#CF9E89"/>
</linearGradient>
<linearGradient id="paint8_linear_12_4115" x1="22.8228" y1="93.7377" x2="94.9871" y2="75.209" gradientUnits="userSpaceOnUse">
<stop stop-color="#D4A18D"/>
<stop offset="0.05" stop-color="#D4A18D"/>
<stop offset="0.11" stop-color="#E1B9A9"/>
<stop offset="0.18" stop-color="#ECCBBF"/>
<stop offset="0.24" stop-color="#F2D7CC"/>
<stop offset="0.3" stop-color="#F5DBD1"/>
<stop offset="0.52" stop-color="#D4A18D"/>
<stop offset="0.58" stop-color="#E1B9A9"/>
<stop offset="0.64" stop-color="#ECCBBF"/>
<stop offset="0.7" stop-color="#F2D7CC"/>
<stop offset="0.76" stop-color="#F5DBD1"/>
<stop offset="0.98" stop-color="#CF9E89"/>
<stop offset="1" stop-color="#CF9E89"/>
</linearGradient>
<linearGradient id="paint9_linear_12_4115" x1="23.4963" y1="96.0922" x2="95.6606" y2="77.5636" gradientUnits="userSpaceOnUse">
<stop stop-color="#D4A18D"/>
<stop offset="0.05" stop-color="#D4A18D"/>
<stop offset="0.11" stop-color="#E1B9A9"/>
<stop offset="0.18" stop-color="#ECCBBF"/>
<stop offset="0.24" stop-color="#F2D7CC"/>
<stop offset="0.3" stop-color="#F5DBD1"/>
<stop offset="0.52" stop-color="#D4A18D"/>
<stop offset="0.58" stop-color="#E1B9A9"/>
<stop offset="0.64" stop-color="#ECCBBF"/>
<stop offset="0.7" stop-color="#F2D7CC"/>
<stop offset="0.76" stop-color="#F5DBD1"/>
<stop offset="0.98" stop-color="#CF9E89"/>
<stop offset="1" stop-color="#CF9E89"/>
</linearGradient>
<linearGradient id="paint10_linear_12_4115" x1="24.0973" y1="97.8261" x2="96.2616" y2="79.2975" gradientUnits="userSpaceOnUse">
<stop stop-color="#D4A18D"/>
<stop offset="0.05" stop-color="#D4A18D"/>
<stop offset="0.11" stop-color="#E1B9A9"/>
<stop offset="0.18" stop-color="#ECCBBF"/>
<stop offset="0.24" stop-color="#F2D7CC"/>
<stop offset="0.3" stop-color="#F5DBD1"/>
<stop offset="0.52" stop-color="#D4A18D"/>
<stop offset="0.58" stop-color="#E1B9A9"/>
<stop offset="0.64" stop-color="#ECCBBF"/>
<stop offset="0.7" stop-color="#F2D7CC"/>
<stop offset="0.76" stop-color="#F5DBD1"/>
<stop offset="0.98" stop-color="#CF9E89"/>
<stop offset="1" stop-color="#CF9E89"/>
</linearGradient>
<linearGradient id="paint11_linear_12_4115" x1="24.3793" y1="99.9449" x2="96.5436" y2="81.4163" gradientUnits="userSpaceOnUse">
<stop stop-color="#D4A18D"/>
<stop offset="0.05" stop-color="#D4A18D"/>
<stop offset="0.11" stop-color="#E1B9A9"/>
<stop offset="0.18" stop-color="#ECCBBF"/>
<stop offset="0.24" stop-color="#F2D7CC"/>
<stop offset="0.3" stop-color="#F5DBD1"/>
<stop offset="0.52" stop-color="#D4A18D"/>
<stop offset="0.58" stop-color="#E1B9A9"/>
<stop offset="0.64" stop-color="#ECCBBF"/>
<stop offset="0.7" stop-color="#F2D7CC"/>
<stop offset="0.76" stop-color="#F5DBD1"/>
<stop offset="0.98" stop-color="#CF9E89"/>
<stop offset="1" stop-color="#CF9E89"/>
</linearGradient>
<linearGradient id="paint12_linear_12_4115" x1="25.2151" y1="102.346" x2="97.3793" y2="83.8173" gradientUnits="userSpaceOnUse">
<stop stop-color="#D4A18D"/>
<stop offset="0.05" stop-color="#D4A18D"/>
<stop offset="0.11" stop-color="#E1B9A9"/>
<stop offset="0.18" stop-color="#ECCBBF"/>
<stop offset="0.24" stop-color="#F2D7CC"/>
<stop offset="0.3" stop-color="#F5DBD1"/>
<stop offset="0.52" stop-color="#D4A18D"/>
<stop offset="0.58" stop-color="#E1B9A9"/>
<stop offset="0.64" stop-color="#ECCBBF"/>
<stop offset="0.7" stop-color="#F2D7CC"/>
<stop offset="0.76" stop-color="#F5DBD1"/>
<stop offset="0.98" stop-color="#CF9E89"/>
<stop offset="1" stop-color="#CF9E89"/>
</linearGradient>
<linearGradient id="paint13_linear_12_4115" x1="22.5143" y1="91.8431" x2="94.6785" y2="73.3144" gradientUnits="userSpaceOnUse">
<stop stop-color="#D4A18D"/>
<stop offset="0.05" stop-color="#D4A18D"/>
<stop offset="0.11" stop-color="#E1B9A9"/>
<stop offset="0.18" stop-color="#ECCBBF"/>
<stop offset="0.24" stop-color="#F2D7CC"/>
<stop offset="0.3" stop-color="#F5DBD1"/>
<stop offset="0.52" stop-color="#D4A18D"/>
<stop offset="0.58" stop-color="#E1B9A9"/>
<stop offset="0.64" stop-color="#ECCBBF"/>
<stop offset="0.7" stop-color="#F2D7CC"/>
<stop offset="0.76" stop-color="#F5DBD1"/>
<stop offset="0.98" stop-color="#CF9E89"/>
<stop offset="1" stop-color="#CF9E89"/>
</linearGradient>
<linearGradient id="paint14_linear_12_4115" x1="31.2938" y1="52.5487" x2="95.9087" y2="-5.40655" gradientUnits="userSpaceOnUse">
<stop stop-color="#D4A18D"/>
<stop offset="0.05" stop-color="#D4A18D"/>
<stop offset="0.11" stop-color="#E1B9A9"/>
<stop offset="0.18" stop-color="#ECCBBF"/>
<stop offset="0.24" stop-color="#F2D7CC"/>
<stop offset="0.3" stop-color="#F5DBD1"/>
<stop offset="0.52" stop-color="#D4A18D"/>
<stop offset="0.58" stop-color="#E1B9A9"/>
<stop offset="0.64" stop-color="#ECCBBF"/>
<stop offset="0.7" stop-color="#F2D7CC"/>
<stop offset="0.76" stop-color="#F5DBD1"/>
<stop offset="0.98" stop-color="#CF9E89"/>
<stop offset="1" stop-color="#CF9E89"/>
</linearGradient>
<linearGradient id="paint15_linear_12_4115" x1="32.5348" y1="53.8204" x2="97.1496" y2="-4.13482" gradientUnits="userSpaceOnUse">
<stop stop-color="#D4A18D"/>
<stop offset="0.05" stop-color="#D4A18D"/>
<stop offset="0.11" stop-color="#E1B9A9"/>
<stop offset="0.18" stop-color="#ECCBBF"/>
<stop offset="0.24" stop-color="#F2D7CC"/>
<stop offset="0.3" stop-color="#F5DBD1"/>
<stop offset="0.52" stop-color="#D4A18D"/>
<stop offset="0.58" stop-color="#E1B9A9"/>
<stop offset="0.64" stop-color="#ECCBBF"/>
<stop offset="0.7" stop-color="#F2D7CC"/>
<stop offset="0.76" stop-color="#F5DBD1"/>
<stop offset="0.98" stop-color="#CF9E89"/>
<stop offset="1" stop-color="#CF9E89"/>
</linearGradient>
<linearGradient id="paint16_linear_12_4115" x1="35.8107" y1="57.4669" x2="100.426" y2="-0.488373" gradientUnits="userSpaceOnUse">
<stop stop-color="#D4A18D"/>
<stop offset="0.05" stop-color="#D4A18D"/>
<stop offset="0.11" stop-color="#E1B9A9"/>
<stop offset="0.18" stop-color="#ECCBBF"/>
<stop offset="0.24" stop-color="#F2D7CC"/>
<stop offset="0.3" stop-color="#F5DBD1"/>
<stop offset="0.52" stop-color="#D4A18D"/>
<stop offset="0.58" stop-color="#E1B9A9"/>
<stop offset="0.64" stop-color="#ECCBBF"/>
<stop offset="0.7" stop-color="#F2D7CC"/>
<stop offset="0.76" stop-color="#F5DBD1"/>
<stop offset="0.98" stop-color="#CF9E89"/>
<stop offset="1" stop-color="#CF9E89"/>
</linearGradient>
<linearGradient id="paint17_linear_12_4115" x1="34.0347" y1="55.5333" x2="98.6496" y2="-2.42191" gradientUnits="userSpaceOnUse">
<stop stop-color="#D4A18D"/>
<stop offset="0.05" stop-color="#D4A18D"/>
<stop offset="0.11" stop-color="#E1B9A9"/>
<stop offset="0.18" stop-color="#ECCBBF"/>
<stop offset="0.24" stop-color="#F2D7CC"/>
<stop offset="0.3" stop-color="#F5DBD1"/>
<stop offset="0.52" stop-color="#D4A18D"/>
<stop offset="0.58" stop-color="#E1B9A9"/>
<stop offset="0.64" stop-color="#ECCBBF"/>
<stop offset="0.7" stop-color="#F2D7CC"/>
<stop offset="0.76" stop-color="#F5DBD1"/>
<stop offset="0.98" stop-color="#CF9E89"/>
<stop offset="1" stop-color="#CF9E89"/>
</linearGradient>
<linearGradient id="paint18_linear_12_4115" x1="33.4512" y1="54.89" x2="98.0661" y2="-3.06522" gradientUnits="userSpaceOnUse">
<stop stop-color="#D4A18D"/>
<stop offset="0.05" stop-color="#D4A18D"/>
<stop offset="0.11" stop-color="#E1B9A9"/>
<stop offset="0.18" stop-color="#ECCBBF"/>
<stop offset="0.24" stop-color="#F2D7CC"/>
<stop offset="0.3" stop-color="#F5DBD1"/>
<stop offset="0.52" stop-color="#D4A18D"/>
<stop offset="0.58" stop-color="#E1B9A9"/>
<stop offset="0.64" stop-color="#ECCBBF"/>
<stop offset="0.7" stop-color="#F2D7CC"/>
<stop offset="0.76" stop-color="#F5DBD1"/>
<stop offset="0.98" stop-color="#CF9E89"/>
<stop offset="1" stop-color="#CF9E89"/>
</linearGradient>
</defs>
</svg>
