<svg width="98" height="129" viewBox="0 0 98 129" fill="none" xmlns="http://www.w3.org/2000/svg">
<mask id="mask0_12_4083" style="mask-type:luminance" maskUnits="userSpaceOnUse" x="25" y="0" width="48" height="91">
<path d="M50.2379 5.76101C50.5007 5.29072 50.7704 4.89652 51.0678 4.5438C50.7704 4.18417 50.5076 3.79687 50.2379 3.32658C49.9198 2.75947 49.6085 2.09554 49.2489 1.24488H49.1867C48.834 2.09554 48.5227 2.75947 48.1977 3.32658C47.9349 3.79687 47.6652 4.18417 47.3678 4.5438C47.6652 4.90343 47.928 5.29072 48.1977 5.76101C48.5158 6.32812 48.827 6.99205 49.1867 7.84272H49.2489C49.6016 6.99205 49.9129 6.3212 50.2379 5.76101ZM52.3404 4.97259C51.9531 5.38063 51.6349 5.80943 51.3168 6.36962C50.9917 6.94365 50.6529 7.69057 50.2448 8.7003L50.0858 9.08759H48.3568L48.1977 8.7003C47.7827 7.68365 47.4508 6.94365 47.1257 6.36962C46.8076 5.80943 46.4894 5.38063 46.1022 4.97259L45.6872 4.5438L46.1022 4.115C46.4894 3.70696 46.8076 3.27818 47.1257 2.71798C47.4508 2.13704 47.7897 1.39703 48.1977 0.387293L48.3568 0H50.0858L50.2448 0.387293C50.6529 1.40394 50.9917 2.14396 51.3168 2.71798C51.6349 3.27818 51.9531 3.70696 52.3404 4.115L52.7553 4.5438L52.3404 4.97259ZM55.2658 20.2638C54.4497 19.4477 53.7166 18.5556 52.9905 17.4767C52.0706 16.1073 51.1508 14.4336 50.065 12.2136H48.3775C47.2917 14.4406 46.3719 16.1142 45.4521 17.4767C44.7259 18.5556 43.9928 19.4477 43.1767 20.2638C43.9928 20.5889 44.7397 21.0315 45.376 21.5778C46.7868 22.7881 47.679 24.4964 47.679 26.6403V39.1721H50.7704V26.6403C50.7704 24.4964 51.6626 22.7881 53.0734 21.5778C53.7097 21.0315 54.4566 20.5889 55.2727 20.2638H55.2658ZM41.6828 75.0937C41.6828 76.3316 41.6828 77.1685 41.6828 77.4313V77.6941L37.1805 81.9682V88.2686L46.4549 82.148C46.4549 80.9239 46.4549 78.2543 46.441 75.0937H41.6759H41.6828ZM35.9426 81.4425V76.3385H37.1875V80.2668L40.4449 77.1754V75.1006H32.8511V84.3818L35.9426 81.4495V81.4425ZM34.7046 48.1629C34.1306 48.1075 33.5151 48.0868 32.8581 48.0799V72.6108H31.6132V46.8281H32.2356C33.1209 46.8281 33.9439 46.8488 34.7046 46.918V48.1629ZM63.731 46.9111C64.4917 46.8488 65.3147 46.8212 66.2 46.8212H66.8224V72.6039H65.5775V48.073C64.9205 48.0799 64.2981 48.1075 63.731 48.1559V46.9111ZM56.7528 72.6108L56.7666 66.9328C56.7804 62.7832 56.7873 58.7996 56.7873 57.4303C56.7873 52.7136 57.5688 50.0786 59.1595 48.5917C59.7543 48.0384 60.4459 47.6511 61.2412 47.3814V43.3493C58.2328 43.4462 55.9782 44.2899 54.4843 46.2402C52.8314 48.3911 52.0222 51.9113 52.0222 57.2781L51.9946 69.2497V72.6039H50.7497V69.2497C50.7704 63.9105 50.7843 58.6682 50.7843 57.2781C50.7843 51.6278 51.6833 47.8655 53.5022 45.4864C55.3696 43.045 58.1498 42.0906 61.8706 42.0906H62.493V73.8419H68.2194C68.3508 72.9843 68.7658 72.2097 69.3537 71.6219C69.9415 71.034 70.7161 70.626 71.5737 70.4876V43.7574C70.7161 43.626 69.9415 43.211 69.3537 42.6232C68.7658 42.0353 68.3508 41.2607 68.2194 40.4031H30.2231C30.0917 41.2607 29.6767 42.0353 29.0888 42.6232C28.501 43.211 27.7264 43.6191 26.8688 43.7574V70.4876C27.7264 70.619 28.501 71.034 29.0888 71.6219C29.6767 72.2097 30.0847 72.9843 30.2231 73.8419H35.9495V49.2694V45.4795V42.0837H36.5719C40.2927 42.0837 43.066 43.0381 44.9403 45.4795C46.7592 47.8516 47.6582 51.6139 47.6582 57.2712C47.6582 58.6544 47.6721 63.8967 47.6859 69.2428V72.597H46.4549V69.2428L46.4203 57.2712C46.4203 51.9044 45.6042 48.3842 43.9582 46.2333C42.4574 44.2761 40.2097 43.4393 37.2013 43.3424V47.3745C37.9897 47.6373 38.6882 48.0246 39.283 48.5847C40.8737 50.0717 41.6552 52.7067 41.6552 57.4234C41.6552 58.7927 41.6621 62.7694 41.6759 66.9259L41.6898 72.6039H40.4518L40.438 66.9259C40.4241 61.7597 40.4103 58.1357 40.4103 57.4234C40.4103 53.087 39.7602 50.7287 38.4323 49.4907C38.0796 49.1588 37.6647 48.9029 37.1944 48.7023V73.8419H61.2481V48.7023C60.7779 48.9029 60.3698 49.1588 60.0102 49.4907C58.6892 50.7287 58.0322 53.087 58.0322 57.4234C58.0322 58.1288 58.0184 61.7597 58.0045 66.9259L57.9907 72.6039H56.7528V72.6108ZM56.7458 77.4313C56.7458 77.1616 56.7458 76.3316 56.7458 75.0937H51.9807C51.9738 78.2543 51.9669 80.9239 51.9669 82.148L61.2412 88.2686V81.9682L56.7389 77.6941V77.4313H56.7458ZM65.5775 75.0937H57.9907V77.1685L61.2481 80.2599V76.3316H62.493V81.4356L65.5845 84.368V75.0868L65.5775 75.0937ZM53.772 39.1652V31.8273C53.772 29.6834 54.6641 27.9751 56.075 26.7648C56.7113 26.2185 57.4582 25.7758 58.2743 25.4508V20.8448C56.5799 20.9554 55.0168 21.5364 53.8757 22.5115C52.7346 23.4867 52.0084 24.8837 52.0084 26.6265V39.1583H53.772V39.1652ZM55.0168 37.9203V39.1652H56.7804V37.0212C56.7804 34.8565 57.8316 33.1344 59.4915 31.9311C60.0309 31.5438 60.6326 31.2049 61.2827 30.9283V26.0456C59.5883 26.1562 58.0253 26.7372 56.8842 27.7123C55.743 28.6875 55.0168 30.0845 55.0168 31.8273V37.9203ZM43.4188 39.1652V31.8273C43.4188 30.0776 42.6926 28.6875 41.5514 27.7123C40.4103 26.7372 38.8404 26.1562 37.1529 26.0456V30.9283C37.803 31.2049 38.4047 31.5438 38.9441 31.9311C40.6039 33.1344 41.6552 34.8565 41.6552 37.0212V39.1652H43.4188ZM44.6636 37.9203V39.1652H46.4272V26.6334C46.4272 24.8837 45.701 23.4936 44.5599 22.5184C43.4187 21.5364 41.8488 20.9623 40.1613 20.8517V25.4577C40.9774 25.7828 41.7174 26.2254 42.3606 26.7718C43.7715 27.982 44.6636 29.6903 44.6636 31.8343V37.9272V37.9203ZM61.2827 39.1652V32.2907C60.9023 32.4843 60.5496 32.6987 60.2177 32.9339C58.876 33.916 58.0253 35.2992 58.0253 37.0212V39.1652H61.2827ZM62.5276 37.9203V39.1652H65.619V31.2256C64.5263 31.2741 63.482 31.4677 62.5276 31.7789V37.9203ZM35.908 39.1652V31.7789C34.9536 31.4677 33.9093 31.281 32.8166 31.2256V39.1652H35.908ZM37.1529 37.9203V39.1652H40.4103V37.0212C40.4103 35.2922 39.5596 33.909 38.2179 32.9339C37.8929 32.6918 37.5333 32.4774 37.1529 32.2907V37.9272V37.9203ZM29.6421 39.1652H31.5717V29.9669H32.1941C33.4874 29.9669 34.7461 30.1398 35.908 30.4787V24.773H36.5304C37.3534 24.773 38.1557 24.8699 38.9165 25.0566V19.586H39.5389C40.3204 19.586 41.0881 19.669 41.8212 19.8419C42.7756 18.9567 43.5986 18.0023 44.4147 16.7851C45.3552 15.395 46.2889 13.666 47.4231 11.3215L47.596 10.9687H50.8396L51.0125 11.3215C52.1467 13.666 53.0804 15.395 54.0209 16.7851C54.8439 18.0023 55.66 18.9567 56.6213 19.8419C57.3544 19.6759 58.1221 19.586 58.9036 19.586H59.5261V25.0566C60.2937 24.8699 61.096 24.773 61.9121 24.773H62.5345V30.4787C63.6895 30.1398 64.9551 29.9669 66.2484 29.9669H66.8708V39.1652H69.4159V39.7876C69.4159 40.5484 69.7271 41.2469 70.232 41.7518C70.7369 42.2566 71.4285 42.5678 72.1961 42.5678H72.8186V71.691H72.1961C71.4354 71.691 70.7369 72.0022 70.232 72.5071C69.7271 73.012 69.4159 73.7105 69.4159 74.4712V75.0937H66.8293V87.2658L62.493 83.1508V90.5786L50.7289 82.8188V82.4869L50.7497 75.1006H47.6997L47.7205 82.8257L35.9564 90.5855V83.1577L31.6201 87.2727V75.1006H29.0335V74.4781C29.0335 73.7174 28.7223 73.0189 28.2174 72.514C27.7126 72.0091 27.0141 71.6979 26.2533 71.6979H25.6309V42.5748H26.2533C27.0141 42.5748 27.7126 42.2635 28.2174 41.7587C28.7223 41.2538 29.0335 40.5622 29.0335 39.7945V39.1721H29.656L29.6421 39.1652Z" fill="white"/>
</mask>
<g mask="url(#mask0_12_4083)">
<path d="M72.8117 -0.00689697H25.624V90.5786H72.8117V-0.00689697Z" fill="url(#paint0_linear_12_4083)"/>
</g>
<mask id="mask1_12_4083" style="mask-type:luminance" maskUnits="userSpaceOnUse" x="38" y="95" width="22" height="13">
<path d="M55.9717 104.528C56.0409 104.507 56.117 104.48 56.2 104.438C56.276 104.397 56.3314 104.369 56.3452 104.362C56.5942 104.217 56.8293 104.037 57.0506 103.836C57.2719 103.629 57.4656 103.422 57.6316 103.193C57.7353 103.062 57.8321 102.917 57.929 102.758C58.0258 102.592 58.0742 102.426 58.0811 102.253C58.088 102.184 58.0673 102.114 58.0258 102.052C57.9774 101.99 57.9151 101.962 57.8391 101.983C57.7353 102.011 57.6316 102.073 57.5278 102.17C57.4241 102.267 57.3411 102.35 57.2719 102.419C57.2235 102.474 57.1682 102.536 57.1198 102.592C57.0714 102.647 57.023 102.702 56.9815 102.751C56.8431 102.924 56.7117 103.09 56.5803 103.256C56.4489 103.422 56.3245 103.594 56.2069 103.774C56.1861 103.802 56.1516 103.857 56.0962 103.94C56.0409 104.023 55.9856 104.113 55.9441 104.21C55.8957 104.307 55.868 104.383 55.8611 104.452C55.8542 104.514 55.8887 104.542 55.9787 104.521M42.9351 103.387C42.6032 103.366 42.285 103.297 41.9807 103.166C41.6764 103.034 41.4482 102.834 41.2753 102.571C41.0955 102.287 40.9848 101.99 40.9364 101.679C40.888 101.367 40.888 101.049 40.9295 100.724C40.971 100.406 41.0471 100.088 41.1646 99.7768C41.2822 99.4656 41.4136 99.182 41.5727 98.9192C41.8286 98.4904 42.1329 98.0893 42.4718 97.7227C42.8106 97.3562 43.191 97.0242 43.599 96.7199C44.0071 96.4156 44.4359 96.1528 44.8854 95.9246C45.335 95.6964 45.7983 95.5165 46.2686 95.3644C46.5453 95.2814 46.8288 95.2122 47.1331 95.15C47.4374 95.0947 47.7348 95.0601 48.0322 95.0532C48.6339 95.0393 49.2494 95.0532 49.8718 95.0947C50.4943 95.1431 51.1029 95.2606 51.6838 95.4474C51.9881 95.5442 52.2855 95.6134 52.5829 95.6618C52.8872 95.7102 53.1846 95.7517 53.482 95.8001C53.7033 95.8347 53.9246 95.8554 54.1528 95.8693C54.3741 95.8831 54.5955 95.8762 54.8237 95.8554C55.0381 95.8277 55.2525 95.7794 55.4807 95.7171C55.5084 95.7102 55.5429 95.6894 55.5983 95.6618C55.6467 95.6341 55.7089 95.6134 55.7643 95.5926C55.8265 95.5719 55.8818 95.558 55.9302 95.5511C55.9786 95.5511 56.0132 95.558 56.034 95.5857C56.0755 95.641 56.0893 95.7171 56.0686 95.7932C56.0478 95.8692 56.0063 95.9384 55.9441 95.9868C55.46 96.3672 54.9343 96.6093 54.3465 96.713C53.7655 96.8167 53.1777 96.8652 52.5829 96.8375C52.3339 96.8237 52.0919 96.7891 51.8429 96.7545C51.6008 96.7199 51.3519 96.6646 51.1167 96.6093C50.7018 96.5124 50.2937 96.4225 49.8857 96.3326C49.4707 96.2427 49.0627 96.1528 48.6477 96.056C48.4679 96.0145 48.2812 95.9868 48.0944 95.9799C47.9077 95.9799 47.7141 95.9592 47.5273 95.9453C47.2714 95.9246 47.0155 95.9246 46.7666 95.9453C46.5176 95.9661 46.2686 96.0076 46.0196 96.0837C45.5908 96.2151 45.1897 96.3879 44.8024 96.6162C44.4221 96.8444 44.0763 97.1141 43.765 97.4254C43.4538 97.7366 43.191 98.0893 42.9697 98.4697C42.7484 98.85 42.5755 99.2581 42.4718 99.6869C42.4233 99.8943 42.3818 100.116 42.3473 100.351C42.3196 100.586 42.3127 100.821 42.3403 101.042C42.368 101.271 42.4302 101.485 42.5271 101.679C42.6239 101.879 42.783 102.045 42.9835 102.184C43.1149 102.267 43.2602 102.336 43.4331 102.377C43.606 102.419 43.765 102.439 43.9241 102.439C44.1247 102.439 44.3183 102.419 44.5258 102.391C44.7264 102.356 44.92 102.294 45.0998 102.197C45.1482 102.17 45.2174 102.135 45.2935 102.08C45.3695 102.031 45.4525 101.976 45.5355 101.928C45.6185 101.879 45.6946 101.831 45.7776 101.796C45.8606 101.762 45.9297 101.755 45.992 101.769C46.0404 101.789 46.0681 101.81 46.075 101.852C46.075 101.886 46.075 101.935 46.0542 101.983C46.0335 102.031 46.0127 102.073 45.9781 102.114C45.9436 102.156 45.9159 102.184 45.8882 102.211C45.7084 102.412 45.5009 102.585 45.2727 102.737C45.0445 102.889 44.7955 103.013 44.5396 103.117C44.2837 103.221 44.0209 103.297 43.7443 103.352C43.4676 103.408 43.2048 103.422 42.9489 103.408L42.9351 103.387ZM40.6252 107.889C40.2586 107.855 39.8921 107.772 39.5325 107.633C39.3803 107.564 39.2212 107.474 39.0691 107.371C38.9169 107.267 38.7924 107.135 38.6956 106.99C38.6265 106.879 38.5781 106.748 38.5573 106.596C38.5296 106.444 38.5296 106.292 38.5366 106.139C38.5504 105.987 38.585 105.842 38.6334 105.697C38.6887 105.559 38.7648 105.434 38.8478 105.33C38.9446 105.22 39.0691 105.144 39.242 105.102C39.408 105.068 39.5601 105.067 39.6984 105.109C39.8022 105.144 39.899 105.199 39.9889 105.282C40.0788 105.365 40.148 105.462 40.1964 105.572C40.2448 105.683 40.2655 105.794 40.2725 105.911C40.2725 106.029 40.2448 106.139 40.1895 106.243C40.1549 106.299 40.1203 106.361 40.0719 106.423C40.0304 106.478 39.9889 106.548 39.9612 106.61C39.9336 106.672 39.9128 106.741 39.9059 106.81C39.9059 106.879 39.9197 106.949 39.9682 107.018C40.0304 107.108 40.1065 107.191 40.2102 107.246C40.307 107.301 40.4177 107.35 40.5284 107.384C40.6459 107.412 40.7566 107.433 40.8811 107.44C41.0056 107.447 41.1093 107.447 41.213 107.44C41.5658 107.405 41.9115 107.336 42.2573 107.232C42.5962 107.128 42.9213 106.983 43.2187 106.783C43.5091 106.582 43.7858 106.361 44.0417 106.098C44.2976 105.842 44.5327 105.565 44.754 105.275C44.9753 104.985 45.1828 104.68 45.3695 104.369C45.5563 104.058 45.7361 103.747 45.909 103.435C46.0266 103.228 46.1372 103.02 46.234 102.806C46.3378 102.592 46.4415 102.384 46.566 102.177C46.7389 101.852 46.9256 101.533 47.14 101.222C47.3475 100.911 47.555 100.614 47.7625 100.309C47.963 100.012 48.1636 99.7145 48.378 99.4379C48.5924 99.1544 48.8206 98.8846 49.0696 98.6287C49.3116 98.3798 49.5606 98.1515 49.8303 97.9371C50.0932 97.7296 50.3767 97.5429 50.681 97.3769C50.8055 97.3078 50.9231 97.2525 51.0476 97.211C51.172 97.1695 51.2896 97.128 51.4141 97.0796C51.4487 97.0726 51.5109 97.0519 51.6147 97.0173C51.7115 96.9827 51.8083 96.9551 51.8982 96.9481C51.9881 96.9343 52.0642 96.9482 52.1195 96.9758C52.1749 97.0104 52.1749 97.0796 52.1195 97.1902C52.078 97.2663 51.9951 97.3285 51.8844 97.37C51.7668 97.4115 51.6769 97.4599 51.6077 97.5083C51.5317 97.5775 51.4556 97.6467 51.3795 97.7227C51.3034 97.7988 51.2274 97.868 51.1582 97.9371C50.8539 98.2622 50.6049 98.6287 50.4044 99.0229C50.2038 99.4241 50.0032 99.8114 49.8096 100.199C49.6505 100.524 49.4776 100.842 49.2978 101.153C49.118 101.464 48.9451 101.782 48.7722 102.101C48.5716 102.481 48.3711 102.854 48.1567 103.235C47.9423 103.615 47.7141 103.975 47.472 104.334C47.2299 104.687 46.9741 105.026 46.6974 105.358C46.4208 105.683 46.1165 105.98 45.7845 106.257C45.2381 106.72 44.6226 107.087 43.9379 107.364C43.2533 107.64 42.5617 107.806 41.8424 107.875C41.6349 107.889 41.4343 107.903 41.2338 107.903C41.0332 107.903 40.8257 107.903 40.6183 107.882L40.6252 107.889ZM54.8859 107.931C54.6646 107.91 54.4571 107.848 54.2704 107.737C54.0214 107.592 53.8554 107.405 53.7725 107.184C53.6895 106.962 53.648 106.727 53.6618 106.471C53.6618 106.333 53.6825 106.195 53.7171 106.056C53.641 106.146 53.5581 106.236 53.4751 106.326C53.4405 106.368 53.4128 106.409 53.3852 106.437C53.3575 106.465 53.3298 106.499 53.2952 106.534C53.0601 106.762 52.818 106.997 52.5622 107.225C52.3063 107.46 52.0296 107.654 51.7253 107.806C51.5801 107.875 51.4141 107.931 51.2274 107.958C51.0476 107.993 50.8677 107.986 50.6948 107.945C50.6603 107.938 50.6257 107.924 50.5911 107.917C50.5565 107.91 50.5219 107.896 50.4735 107.882C50.19 107.744 50.0309 107.564 49.9963 107.343C49.9617 107.122 49.9963 106.886 50.0862 106.631C50.1831 106.382 50.3075 106.133 50.4597 105.891C50.6118 105.648 50.7363 105.448 50.8332 105.275C51.0337 104.943 51.2412 104.618 51.4625 104.307C51.6838 103.989 51.8913 103.664 52.078 103.318C52.1403 103.2 52.2094 103.055 52.2855 102.896C52.3616 102.737 52.3685 102.585 52.3132 102.439C52.2717 102.336 52.1956 102.287 52.0919 102.294C51.9881 102.301 51.8775 102.336 51.7599 102.391C51.6354 102.446 51.5248 102.516 51.4141 102.585C51.3104 102.661 51.2343 102.716 51.1928 102.744C50.9715 102.917 50.7709 103.11 50.598 103.339C50.4182 103.56 50.2453 103.788 50.0793 104.023C50.0171 104.106 49.9548 104.189 49.8995 104.265C49.8373 104.341 49.7819 104.431 49.7335 104.521C49.526 104.846 49.3186 105.164 49.1111 105.476C48.9036 105.787 48.6961 106.112 48.5025 106.437C48.4472 106.534 48.3849 106.624 48.3296 106.714C48.2743 106.803 48.2189 106.893 48.1705 106.99C48.1013 107.108 48.046 107.232 48.0045 107.357C47.963 107.481 47.8939 107.599 47.8109 107.709C47.7901 107.723 47.7763 107.744 47.7556 107.765C47.7348 107.785 47.7141 107.806 47.6933 107.82C47.6726 107.827 47.6656 107.834 47.6656 107.841C47.6656 107.841 47.6587 107.855 47.638 107.862C47.5965 107.875 47.5481 107.889 47.4997 107.896C47.4512 107.903 47.4028 107.917 47.3613 107.924C47.2299 107.945 47.1055 107.951 46.974 107.958C46.8426 107.958 46.7182 107.958 46.5868 107.958C46.483 107.958 46.3793 107.945 46.2755 107.917C46.234 107.903 46.2064 107.848 46.2064 107.765C46.2064 107.682 46.2202 107.606 46.2617 107.537C46.3447 107.384 46.4346 107.225 46.5176 107.073C46.5937 106.921 46.6836 106.769 46.7804 106.624C47.0709 106.16 47.3613 105.697 47.6449 105.233C47.9354 104.77 48.2189 104.307 48.5025 103.83C48.5855 103.691 48.6685 103.56 48.7445 103.421C48.8206 103.29 48.9036 103.152 48.9866 103.007C49.1595 102.73 49.3324 102.453 49.4984 102.17C49.6644 101.886 49.8303 101.596 50.0032 101.312C50.2661 100.856 50.5358 100.406 50.8055 99.9635C51.0752 99.5278 51.3449 99.0783 51.6077 98.6356C51.7668 98.3798 51.9121 98.1239 52.0227 97.8749C52.0642 97.7919 52.0988 97.702 52.1264 97.6259C52.1541 97.5429 52.1749 97.4599 52.1887 97.3769C52.2094 97.2801 52.2302 97.2248 52.2579 97.204C52.2855 97.1764 52.3754 97.1695 52.5207 97.1695C52.5691 97.1695 52.6382 97.1695 52.7212 97.1695C52.8042 97.1695 52.8734 97.1556 52.9425 97.1487C53.1431 97.1211 53.2952 97.1003 53.4128 97.0865C53.5304 97.0726 53.6203 97.0657 53.6756 97.0657C53.731 97.0657 53.7725 97.0726 53.7932 97.0934C53.8139 97.1141 53.8209 97.1349 53.8347 97.1556C53.8831 97.3285 53.8693 97.4945 53.7932 97.6605C53.7171 97.8265 53.6411 97.9855 53.5788 98.1308C53.4474 98.3867 53.3091 98.6356 53.15 98.8639C53.067 98.9884 52.991 99.1129 52.9218 99.2443C52.8526 99.3757 52.7766 99.5001 52.7005 99.6246C52.5276 99.8944 52.3616 100.15 52.1956 100.406C52.0365 100.655 51.8706 100.918 51.7046 101.195C51.6562 101.264 51.6077 101.333 51.5732 101.416C51.5317 101.492 51.4902 101.568 51.4487 101.651C51.3034 101.858 51.1582 102.08 51.0268 102.329C51.0061 102.35 50.9991 102.363 50.9991 102.384C51.0268 102.363 51.0476 102.35 51.0614 102.329C51.0821 102.315 51.096 102.294 51.1098 102.28C51.1444 102.26 51.172 102.246 51.1997 102.225C51.2274 102.204 51.255 102.184 51.2758 102.163C51.4141 102.059 51.5593 101.962 51.7115 101.865C51.8636 101.769 52.0158 101.693 52.1679 101.637C52.2648 101.596 52.3616 101.568 52.4722 101.554C52.576 101.54 52.6866 101.527 52.7835 101.513C52.9287 101.492 53.0809 101.499 53.233 101.527C53.3852 101.554 53.5166 101.623 53.6203 101.734C53.7794 101.914 53.8693 102.107 53.8762 102.315C53.8831 102.529 53.8554 102.744 53.7794 102.951C53.7033 103.166 53.6065 103.373 53.4889 103.574C53.3713 103.774 53.2676 103.954 53.1777 104.12C53.0532 104.321 52.9356 104.507 52.825 104.694C52.7074 104.874 52.5967 105.068 52.4722 105.268C52.3754 105.413 52.2786 105.559 52.1818 105.697C52.085 105.842 51.9881 105.987 51.8913 106.133C51.8083 106.264 51.7253 106.409 51.6562 106.575C51.5801 106.741 51.5524 106.907 51.5732 107.059C51.6907 107.101 51.8152 107.094 51.9259 107.039C52.0435 106.983 52.1472 106.921 52.2371 106.852C52.3339 106.783 52.4307 106.714 52.5345 106.631C52.6382 106.554 52.7351 106.478 52.8319 106.395C53.2192 106.056 53.5788 105.669 53.9108 105.24C53.9523 105.185 53.9938 105.137 54.0353 105.081L54.0491 105.047C54.2842 104.514 54.5678 104.023 54.9136 103.56C55.2594 103.103 55.6813 102.702 56.1723 102.356C56.4766 102.142 56.8017 101.962 57.1544 101.81C57.5071 101.658 57.8736 101.568 58.2402 101.52C58.6413 101.478 58.9041 101.568 59.0217 101.789C59.1531 102.024 59.2084 102.246 59.1877 102.467C59.1669 102.688 59.1047 102.889 58.9871 103.083C58.8695 103.276 58.7174 103.456 58.5237 103.622C58.3301 103.788 58.1226 103.94 57.9082 104.085C57.6938 104.224 57.4656 104.348 57.2443 104.452C57.023 104.556 56.8224 104.639 56.6495 104.708C56.4489 104.784 56.276 104.853 56.117 104.915C55.9579 104.971 55.8196 105.047 55.702 105.137C55.5844 105.22 55.4807 105.33 55.3908 105.469C55.3009 105.6 55.2248 105.773 55.1626 105.987C55.1211 106.126 55.1003 106.257 55.1072 106.395C55.1072 106.527 55.1418 106.651 55.1971 106.762C55.2525 106.873 55.3355 106.962 55.4392 107.025C55.5429 107.087 55.6813 107.122 55.8542 107.122C56.0132 107.122 56.1723 107.087 56.3314 107.032C56.4835 106.969 56.6288 106.893 56.7671 106.796C56.9054 106.7 57.0368 106.596 57.1613 106.485C57.2858 106.368 57.3964 106.25 57.5002 106.126C57.7491 105.849 57.9912 105.565 58.2263 105.275C58.4615 104.985 58.6828 104.687 58.8903 104.39C58.911 104.362 58.9387 104.307 58.9871 104.217C59.0355 104.127 59.0839 104.044 59.1323 103.975C59.1877 103.906 59.2361 103.857 59.2845 103.843C59.3329 103.83 59.3744 103.885 59.4021 104.002C59.4366 104.148 59.4021 104.293 59.2914 104.445C59.1877 104.597 59.0908 104.722 59.0009 104.825C58.7796 105.102 58.5583 105.386 58.3508 105.676C58.1433 105.967 57.922 106.25 57.6869 106.513C57.4518 106.776 57.2028 107.025 56.9192 107.246C56.6426 107.467 56.3244 107.647 55.9856 107.785C55.8057 107.855 55.6259 107.903 55.4392 107.938C55.2525 107.965 55.0657 107.972 54.8652 107.938L54.8859 107.931Z" fill="white"/>
</mask>
<g mask="url(#mask1_12_4083)">
<path d="M59.4497 95.0462H38.522V107.993H59.4497V95.0462Z" fill="url(#paint1_linear_12_4083)"/>
</g>
<mask id="mask2_12_4083" style="mask-type:luminance" maskUnits="userSpaceOnUse" x="0" y="112" width="98" height="17">
<path d="M20.3606 126.009C21.4119 126.009 22.3524 125.774 23.1893 125.304C24.0261 124.833 24.69 124.169 25.1672 123.326C25.6444 122.482 25.8865 121.534 25.8865 120.483C25.8865 119.432 25.6444 118.484 25.1672 117.641C24.69 116.797 24.0261 116.133 23.1893 115.663C22.3524 115.192 21.4049 114.957 20.3606 114.957C19.3163 114.957 18.3688 115.192 17.532 115.663C16.6952 116.133 16.0312 116.797 15.554 117.641C15.0768 118.484 14.8348 119.432 14.8348 120.483C14.8348 121.534 15.0768 122.482 15.554 123.326C16.0312 124.169 16.6952 124.833 17.532 125.304C18.3688 125.774 19.3163 126.009 20.3606 126.009ZM20.3606 128.575C18.7561 128.575 17.3107 128.229 16.0243 127.531C14.7379 126.832 13.7282 125.871 12.9882 124.633C12.2551 123.395 11.8886 122.012 11.8886 120.49C11.8886 118.969 12.2551 117.578 12.9882 116.347C13.7213 115.109 14.731 114.148 16.0243 113.45C17.3107 112.751 18.7561 112.405 20.3606 112.405C21.9651 112.405 23.4106 112.751 24.6969 113.45C25.9833 114.148 26.993 115.109 27.7331 116.341C28.4662 117.572 28.8327 118.955 28.8327 120.497C28.8327 122.039 28.4662 123.422 27.7331 124.654C27 125.885 25.9902 126.846 24.6969 127.537C23.4106 128.236 21.9651 128.582 20.3606 128.582V128.575ZM44.9124 112.689V128.416H42.5056L33.833 117.765V128.416H30.9352V112.689H33.3419L42.0146 123.339V112.689H44.9124ZM54.2282 125.947C55.3831 125.947 56.3998 125.726 57.2712 125.283C58.1495 124.84 58.8204 124.211 59.2907 123.395C59.7609 122.579 59.9961 121.631 59.9961 120.552C59.9961 119.473 59.7609 118.526 59.2907 117.71C58.8204 116.894 58.1426 116.264 57.2712 115.822C56.3929 115.379 55.3762 115.158 54.2282 115.158H50.4106V125.947H54.2282ZM47.492 112.689H54.1659C55.8465 112.689 57.3334 113.014 58.6406 113.664C59.9408 114.314 60.9574 115.241 61.6767 116.43C62.3959 117.62 62.7556 118.996 62.7556 120.552C62.7556 122.108 62.3959 123.485 61.6767 124.674C60.9574 125.864 59.9477 126.784 58.6406 127.441C57.3404 128.091 55.8465 128.416 54.1659 128.416H47.492V112.689ZM73.3163 126.147C74.3675 126.147 75.3081 125.912 76.1449 125.435C76.9817 124.965 77.6457 124.301 78.1229 123.457C78.6001 122.613 78.8421 121.666 78.8421 120.615C78.8421 119.563 78.6001 118.616 78.1229 117.772C77.6457 116.928 76.9817 116.264 76.1449 115.794C75.3081 115.324 74.3606 115.089 73.3163 115.089C72.2719 115.089 71.3245 115.324 70.4876 115.794C69.6508 116.264 68.9869 116.921 68.5097 117.772C68.0325 118.616 67.7904 119.563 67.7904 120.615C67.7904 121.666 68.0325 122.613 68.5097 123.457C68.9869 124.301 69.6508 124.965 70.4876 125.435C71.3245 125.905 72.2719 126.147 73.3163 126.147ZM73.3163 128.706C71.7118 128.706 70.2663 128.36 68.9799 127.662C67.6936 126.963 66.6838 126.002 65.9438 124.764C65.2107 123.533 64.8442 122.143 64.8442 120.621C64.8442 119.1 65.2107 117.71 65.9438 116.479C66.6769 115.241 67.6867 114.273 68.9799 113.581C70.2663 112.889 71.7118 112.537 73.3163 112.537C74.9208 112.537 76.3662 112.889 77.6526 113.581C78.939 114.28 79.9556 115.241 80.6887 116.472C81.4218 117.703 81.7883 119.086 81.7883 120.628C81.7883 122.171 81.4218 123.554 80.6887 124.785C79.9556 126.016 78.939 126.977 77.6526 127.676C76.3662 128.374 74.9208 128.72 73.3163 128.72V128.706ZM97.951 112.751V128.478H95.5442L86.8716 117.827V128.478H83.9738V112.751H86.3805L95.0532 123.402V112.751H97.951ZM0.00691218 112.454H2.92546V125.712H11.1486V128.181H0V112.454H0.00691218Z" fill="white"/>
</mask>
<g mask="url(#mask2_12_4083)">
<path d="M97.9514 112.392H0.00732422V128.706H97.9514V112.392Z" fill="url(#paint2_linear_12_4083)"/>
</g>
<defs>
<linearGradient id="paint0_linear_12_4083" x1="25.1537" y1="41.4198" x2="73.2751" y2="49.1519" gradientUnits="userSpaceOnUse">
<stop stop-color="#A88D6A"/>
<stop offset="0.46" stop-color="#D6B78E"/>
<stop offset="1" stop-color="#C99B7A"/>
</linearGradient>
<linearGradient id="paint1_linear_12_4083" x1="40.2095" y1="97.1487" x2="57.7346" y2="105.87" gradientUnits="userSpaceOnUse">
<stop stop-color="#A88D6A"/>
<stop offset="0.46" stop-color="#D6B78E"/>
<stop offset="1" stop-color="#C99B7A"/>
</linearGradient>
<linearGradient id="paint2_linear_12_4083" x1="37.3536" y1="99.0992" x2="60.6051" y2="142.006" gradientUnits="userSpaceOnUse">
<stop stop-color="#A88D6A"/>
<stop offset="0.46" stop-color="#D6B78E"/>
<stop offset="1" stop-color="#C99B7A"/>
</linearGradient>
</defs>
</svg>
