<svg width="88" height="108" viewBox="0 0 88 108" fill="none" xmlns="http://www.w3.org/2000/svg">
<path d="M35.1208 54.8778L30.8307 51.8034C29.0267 50.5171 28.015 48.7681 28.015 46.9407V31.0899C28.2424 30.2428 28.6895 29.4428 29.3562 28.7762C30.0228 28.1095 30.8228 27.6624 31.6699 27.435C30.8228 27.2075 30.0228 26.7605 29.3562 26.0938C28.6895 25.4272 28.2424 24.6272 28.015 23.7801V0L32.2267 2.94114C34.0777 4.23525 35.1208 6.00778 35.1208 7.85874V54.8857V54.8778ZM23.1523 26.1331C22.5092 26.7762 21.7249 27.2154 20.9014 27.435C21.7249 27.6546 22.5013 28.0938 23.1523 28.7369C23.7954 29.3801 24.2346 30.1644 24.4542 30.9879C24.6739 30.1644 25.1131 29.3879 25.7562 28.7369C26.3993 28.086 27.1837 27.6546 28.0072 27.435C27.1837 27.2154 26.4072 26.7762 25.7562 26.1331C25.1052 25.4899 24.6739 24.7056 24.4542 23.8821C24.2346 24.7056 23.7954 25.4821 23.1523 26.1331ZM59.0892 31.0977C58.8617 30.2506 58.4147 29.4507 57.748 28.784C57.0814 28.1173 56.2813 27.6703 55.4343 27.4428C56.2813 27.2154 57.0814 26.7683 57.748 26.1017C58.4147 25.435 58.8617 24.635 59.0892 23.788V7.86658C59.0892 6.01562 58.0461 4.24309 56.1951 2.94899L51.9833 0.00784174V46.9642C51.9833 48.7838 52.9951 50.5328 54.799 51.8269L59.0892 54.9014V31.1134V31.0977ZM61.3401 26.1331C60.697 26.7762 59.9127 27.2154 59.0892 27.435C59.9127 27.6546 60.6892 28.0938 61.3401 28.7369C61.9911 29.3801 62.4225 30.1644 62.6421 30.9879C62.8617 30.1644 63.3009 29.3879 63.944 28.7369C64.5871 28.086 65.3715 27.6546 66.195 27.435C65.3715 27.2154 64.595 26.7762 63.944 26.1331C63.293 25.4899 62.8617 24.7056 62.6421 23.8821C62.4225 24.7056 61.9833 25.4821 61.3401 26.1331ZM47.105 54.8778L42.8149 51.8034C41.011 50.5171 39.9992 48.7681 39.9992 46.9407V11.8587L44.2109 14.7998C46.0619 16.0939 47.105 17.8665 47.105 19.7174V54.87V54.8778ZM44.854 34.6741C45.4972 34.031 46.2815 33.5918 47.105 33.3722C46.2815 33.1526 45.505 32.7134 44.854 32.0702C44.2109 31.4271 43.7717 30.6428 43.5521 29.8193C43.3325 30.6428 42.8933 31.4193 42.2501 32.0702C41.5992 32.7134 40.8227 33.1526 39.9992 33.3722C40.8227 33.5918 41.5992 34.031 42.2501 34.6741C42.9011 35.3173 43.3325 36.1016 43.5521 36.9251C43.7717 36.1016 44.2109 35.3251 44.854 34.6741Z" fill="#F0F0F1"/>
<path d="M19.2076 83.0815H17.992C17.7253 83.0815 17.5057 82.8619 17.5057 82.5952V74.4463L16.2116 80.1874H15.6861C14.6822 80.1874 14.4939 79.1835 14.392 78.8227L13.3881 74.4463V83.0815H12.1724C11.9058 83.0815 11.6862 82.8619 11.6862 82.5952V66.3365H12.7371C13.4038 66.3365 13.5057 66.9562 13.5057 66.9562L15.49 76.5717L17.3802 66.9326C17.4037 66.862 17.5214 66.3365 18.1488 66.3365H19.1998V83.0736L19.2076 83.0815ZM33.4114 81.3874C33.2231 81.8187 32.933 82.4854 32.8624 82.6344C32.7448 82.8462 32.4781 83.0893 31.9291 83.0893H28.5879C28.3213 83.0893 28.1017 82.8697 28.1017 82.603V66.8228C28.1252 66.5561 28.3448 66.3444 28.6271 66.3444H33.0977L32.5251 67.5914C32.431 67.8032 32.1643 68.0699 31.6153 68.0699H30.2271C29.9997 68.0699 29.8193 68.2502 29.8193 68.4777V73.4502H32.3996C32.2114 73.8816 31.9212 74.5718 31.8506 74.7208C31.733 74.9325 31.4899 75.1757 30.9408 75.1757H30.2192C29.9996 75.1757 29.8114 75.3561 29.8114 75.5835V81.3952H33.3957L33.4114 81.3874ZM47.1838 67.5914C47.0897 67.8032 46.823 68.0463 46.274 68.0463H44.9328C44.6975 68.0463 44.525 68.2346 44.5015 68.4542V83.0893H43.278C42.8701 83.0893 42.7995 82.854 42.7995 82.7285V68.0463H40.3839V66.8777C40.3839 66.5875 40.6191 66.3522 40.9093 66.3522H47.7485L47.176 67.5993L47.1838 67.5914ZM58.8856 83.0815C58.619 83.0815 58.3994 82.8619 58.3994 82.5952V76.956C58.3994 76.1404 57.968 75.8815 57.5131 75.8815H56.6033V83.0815H55.3641C55.0975 83.0815 54.8778 82.8619 54.8778 82.5952V66.3365H58.0072C59.1523 66.3365 60.1092 67.2699 60.1092 68.4385V73.6071C60.1092 73.6071 60.1954 74.7443 59.2856 75.0894C60.1719 75.5129 60.1092 76.6658 60.1092 76.6658V83.0736H58.8699L58.8856 83.0815ZM57.521 74.258C57.9759 74.258 58.4072 74.0698 58.4072 73.3012V68.8071C58.4072 68.1875 57.9759 67.9444 57.521 67.9444H56.6111V74.258H57.521ZM72.5796 66.1797C73.7247 66.2267 74.658 67.1601 74.658 68.3051V81.1442C74.6345 82.2893 73.7247 83.1991 72.5796 83.2462H71.2619C70.0933 83.2462 69.1365 82.2893 69.113 81.1442V68.3051C69.113 67.1365 70.0698 66.1797 71.2619 66.1797H72.5796ZM72.007 81.7481C72.509 81.7481 72.9168 81.3403 72.9168 80.8148V68.6189C72.9168 68.0934 72.509 67.6856 72.007 67.6856H71.7404C71.2384 67.7091 70.8306 68.1169 70.8306 68.6189V80.8148C70.8306 81.3168 71.2384 81.7246 71.7404 81.7481H72.007ZM2.99605 90.7598C4.14114 90.7598 5.16859 91.6931 5.16859 92.8618V97.1911C5.16859 98.8146 4.37641 99.9911 2.72937 99.9911H1.70193V107.497H0.478415C0.070576 107.497 0 107.262 0 107.136V90.752H2.9882L2.99605 90.7598ZM3.52152 93.1755C3.47446 92.7206 3.09018 92.3598 2.61175 92.3598H1.70193V98.3833H2.61175C3.09018 98.3833 3.47446 98.0225 3.52152 97.5676V93.1676V93.1755ZM17.2234 90.5951C18.3684 90.6422 19.3017 91.5755 19.3017 92.7206V105.56C19.2782 106.705 18.3684 107.615 17.2234 107.662H15.9057C14.7371 107.662 13.7802 106.705 13.7567 105.56V92.7206C13.7567 91.552 14.7135 90.5951 15.9057 90.5951H17.2234ZM16.6508 106.164C17.1527 106.164 17.5606 105.756 17.5606 105.23V93.0343C17.5606 92.5088 17.1527 92.101 16.6508 92.101H16.3841C15.8822 92.1245 15.4743 92.5323 15.4743 93.0343V105.23C15.4743 105.732 15.8822 106.14 16.3841 106.164H16.6508ZM34.3447 105.803C34.1565 106.234 33.8663 106.901 33.7957 107.05C33.6781 107.262 33.4114 107.505 32.8624 107.505H29.2311C28.9644 107.505 28.7448 107.285 28.7448 107.018V90.7598H29.9369C30.2271 90.7833 30.4624 90.9951 30.4624 91.2853V105.803H34.3369H34.3447ZM61.1758 92.0069C61.0817 92.2186 60.815 92.4617 60.266 92.4617H58.9248C58.6896 92.4617 58.517 92.65 58.4935 92.8696V107.505H57.27C56.8621 107.505 56.7915 107.269 56.7915 107.144V92.4617H54.3759V91.2931C54.3759 91.0029 54.6112 90.7677 54.9014 90.7677H61.7405L61.1679 92.0147L61.1758 92.0069ZM74.5168 107.497H73.0502C72.8071 107.497 72.6031 107.316 72.5717 107.073L71.1208 95.9676L69.6149 107.497H68.2895C67.9914 107.497 67.764 107.23 67.811 106.94L70.2581 90.7598H71.1914C71.9129 90.7598 72.0306 91.2147 72.1012 91.6696L74.5168 107.497ZM87.6696 107.497H86.8775C85.9442 107.497 85.803 106.752 85.7324 106.422L83.8893 98.148V107.497H82.6501C82.3834 107.497 82.1638 107.277 82.1638 107.011V90.752H82.956C83.9128 90.752 84.0775 91.2069 84.1795 91.6853L85.952 100.391V90.752H87.6775V107.489L87.6696 107.497Z" fill="#F0F0F1"/>
<path d="M43.9522 91.8735C44.4463 92.3833 44.7208 93.0813 44.7208 93.8107V107.677L43.5757 106.469C43.0973 105.96 42.8228 105.269 42.8228 104.556V90.7206L43.9443 91.8814L43.9522 91.8735Z" fill="#F0F0F1"/>
<path d="M35.1208 54.8778L30.8307 51.8034C29.0268 50.5171 28.015 48.7681 28.015 46.9407V31.0899C28.2424 30.2428 28.6895 29.4428 29.3562 28.7762C30.0228 28.1095 30.8228 27.6624 31.6699 27.435C30.8228 27.2075 30.0228 26.7605 29.3562 26.0938C28.6895 25.4272 28.2424 24.6272 28.015 23.7801V0L32.2267 2.94114C34.0777 4.23525 35.1208 6.00778 35.1208 7.85874V54.8778ZM23.1601 26.1409C22.517 26.784 21.7327 27.2232 20.9092 27.4428C21.7327 27.6624 22.5092 28.1017 23.1601 28.7448C23.8033 29.3879 24.2425 30.1722 24.4621 30.9957C24.6817 30.1722 25.1209 29.3958 25.764 28.7448C26.4072 28.0938 27.1915 27.6624 28.015 27.4428C27.1915 27.2232 26.415 26.784 25.764 26.1409C25.1209 25.4978 24.6817 24.7135 24.4621 23.8899C24.2425 24.7135 23.8033 25.4899 23.1601 26.1409ZM59.0892 31.0977C58.8618 30.2506 58.4147 29.4507 57.748 28.784C57.0814 28.1173 56.2814 27.6703 55.4343 27.4428C56.2814 27.2154 57.0814 26.7683 57.748 26.1017C58.4147 25.435 58.8618 24.635 59.0892 23.788V7.86658C59.0892 6.01562 58.0461 4.24309 56.1951 2.94899L51.9833 0.00784174V46.9563C51.9833 48.7759 52.9951 50.5249 54.799 51.819L59.0892 54.8935V31.1134V31.0977ZM61.3402 26.1409C60.697 26.784 59.9127 27.2232 59.0892 27.4428C59.9127 27.6624 60.6892 28.1017 61.3402 28.7448C61.9911 29.3879 62.4225 30.1722 62.6421 30.9957C62.8617 30.1722 63.3009 29.3958 63.944 28.7448C64.5871 28.0938 65.3715 27.6624 66.195 27.4428C65.3715 27.2232 64.595 26.784 63.944 26.1409C63.293 25.4978 62.8617 24.7135 62.6421 23.8899C62.4225 24.7135 61.9833 25.4899 61.3402 26.1409ZM47.105 54.8778L42.8149 51.8034C41.011 50.5171 39.9992 48.7681 39.9992 46.9407V11.8587L44.2109 14.7998C46.0619 16.0939 47.105 17.8665 47.105 19.7174V54.87V54.8778ZM44.854 34.682C45.4972 34.0388 46.2815 33.5996 47.105 33.38C46.2815 33.1604 45.505 32.7212 44.854 32.0781C44.2109 31.4349 43.7717 30.6506 43.5521 29.8271C43.3325 30.6506 42.8933 31.4271 42.2501 32.0781C41.607 32.7212 40.8227 33.1604 39.9992 33.38C40.8227 33.5996 41.5992 34.0388 42.2501 34.682C42.8933 35.3251 43.3325 36.1094 43.5521 36.9329C43.7717 36.1094 44.2109 35.3329 44.854 34.682Z" fill="url(#paint0_linear_12_3983)"/>
<path d="M19.2154 83.0815H17.9997C17.7331 83.0815 17.5135 82.8619 17.5135 82.5952V74.4463L16.2193 80.1874H15.6939C14.69 80.1874 14.5017 79.1835 14.3998 78.8227L13.3959 74.4463V83.0815H12.1802C11.9135 83.0815 11.6939 82.8619 11.6939 82.5952V66.3444H12.7449C13.4115 66.3444 13.5135 66.964 13.5135 66.964L15.4978 76.5796L17.388 66.9405C17.4115 66.8699 17.5292 66.3444 18.1566 66.3444H19.2075V83.0815H19.2154ZM33.4192 81.3796C33.2309 81.8109 32.9407 82.4776 32.8701 82.6266C32.7525 82.8384 32.4858 83.0815 31.9368 83.0815H28.5957C28.329 83.0815 28.1094 82.8619 28.1094 82.5952V66.8228C28.133 66.5562 28.3526 66.3444 28.6349 66.3444H33.1055L32.5329 67.5915C32.4388 67.8032 32.1721 68.0699 31.6231 68.0699H30.2349C30.0074 68.0699 29.827 68.2503 29.827 68.4777V73.4502H32.4074C32.2192 73.8816 31.929 74.5718 31.8584 74.7208C31.7407 74.9326 31.4976 75.1757 30.9486 75.1757H30.2349C30.0153 75.1757 29.827 75.3561 29.827 75.5835V81.3952H33.4113L33.4192 81.3796ZM47.1837 67.5836C47.0896 67.7954 46.8229 68.0385 46.2739 68.0385H44.9327C44.6975 68.0385 44.5249 68.2267 44.5014 68.4464V83.0815H43.2857C42.8779 83.0815 42.8073 82.8462 42.8073 82.7207V68.0385H40.3916V66.8699C40.3916 66.5797 40.6269 66.3444 40.9171 66.3444H47.7563L47.1837 67.5915V67.5836ZM58.8856 83.0815C58.6189 83.0815 58.3993 82.8619 58.3993 82.5952V76.9561C58.3993 76.1404 57.9679 75.8816 57.513 75.8816H56.6032V83.0815H55.364C55.0974 83.0815 54.8777 82.8619 54.8777 82.5952V66.3444H58.0071C59.1522 66.3444 60.1091 67.2777 60.1091 68.4464V73.6071C60.1091 73.6071 60.1954 74.7443 59.2856 75.0894C60.1718 75.5129 60.1091 76.6659 60.1091 76.6659V83.0736H58.8699L58.8856 83.0815ZM57.513 74.2581C57.9679 74.2581 58.3993 74.0698 58.3993 73.3012V68.8071C58.3993 68.1875 57.9679 67.9444 57.513 67.9444H56.6032V74.2581H57.513ZM72.5795 66.1719C73.7246 66.2189 74.6579 67.1522 74.6579 68.2973V81.1364C74.6344 82.2815 73.7246 83.1913 72.5795 83.2384H71.2619C70.0933 83.2384 69.1364 82.2815 69.1129 81.1364V68.2973C69.1129 67.1287 70.0697 66.1719 71.2619 66.1719H72.5795ZM72.007 81.7403C72.5089 81.7403 72.9167 81.3325 72.9167 80.807V68.6111C72.9167 68.0856 72.5089 67.6777 72.007 67.6777H71.7403C71.2383 67.7013 70.8305 68.1091 70.8305 68.6111V80.807C70.8305 81.309 71.2383 81.7168 71.7403 81.7403H72.007ZM3.00383 90.752C4.14891 90.752 5.17632 91.6853 5.17632 92.8539V97.1833C5.17632 98.8068 4.38418 99.9833 2.73714 99.9833H1.7097V107.489H0.49404C0.086201 107.489 0.015625 107.254 0.015625 107.128V90.752H3.00383ZM3.5293 93.1677C3.48224 92.7128 3.09795 92.352 2.61952 92.352H1.7097V98.3754H2.61952C3.09795 98.3754 3.48224 98.0147 3.5293 97.5598V93.1598V93.1677ZM17.2311 90.5873C18.3762 90.6343 19.3095 91.5677 19.3095 92.7128V105.552C19.286 106.697 18.3762 107.607 17.2311 107.654H15.9135C14.7448 107.654 13.788 106.697 13.7645 105.552V92.7128C13.7645 91.5441 14.7213 90.5873 15.9135 90.5873H17.2311ZM16.6507 106.156C17.1527 106.156 17.5605 105.748 17.5605 105.222V93.0265C17.5605 92.501 17.1527 92.0932 16.6507 92.0932H16.3841C15.8821 92.1167 15.4742 92.5245 15.4742 93.0265V105.222C15.4742 105.724 15.8821 106.132 16.3841 106.156H16.6507ZM34.3446 105.795C34.1564 106.226 33.8662 106.893 33.7957 107.042C33.678 107.254 33.4113 107.497 32.8623 107.497H29.231C28.9643 107.497 28.7447 107.277 28.7447 107.011V90.7598H29.9368C30.227 90.7834 30.4624 90.9951 30.4624 91.2853V105.803H34.3368L34.3446 105.795ZM61.1757 91.999C61.0816 92.2108 60.815 92.4539 60.2659 92.4539H58.9248C58.6895 92.4539 58.5169 92.6422 58.4934 92.8618V107.497H57.2777C56.8699 107.497 56.7993 107.262 56.7993 107.136V92.4539H54.3837V91.2853C54.3837 90.9951 54.6189 90.7598 54.9091 90.7598H61.7482L61.1757 92.0069V91.999ZM74.5168 107.497H73.0501C72.807 107.497 72.603 107.317 72.5716 107.073L71.1207 95.9676L69.6149 107.489H68.2894C67.9913 107.489 67.7639 107.222 67.811 106.932L70.258 90.752H71.1913C71.905 90.752 72.0305 91.2069 72.1011 91.6618L74.5168 107.489V107.497ZM87.6695 107.497H86.8774C85.9441 107.497 85.8029 106.752 85.7323 106.422L83.8892 98.148V107.497H82.65C82.3833 107.497 82.1637 107.277 82.1637 107.011V90.7598H82.9559C83.9127 90.7598 84.0774 91.2147 84.1716 91.6932L85.9441 100.399V90.7598H87.6695V107.497Z" fill="url(#paint1_linear_12_3983)"/>
<path d="M43.9522 91.8657C44.4463 92.3755 44.7208 93.0735 44.7208 93.8029V107.669L43.5757 106.462C43.0973 105.952 42.8228 105.262 42.8228 104.548V90.7128L43.9443 91.8735L43.9522 91.8657Z" fill="url(#paint2_linear_12_3983)"/>
<path d="M35.1208 54.8778L30.8307 51.8034C29.0267 50.5171 28.015 48.7681 28.015 46.9407V31.0899C28.2424 30.2428 28.6895 29.4428 29.3562 28.7762C30.0228 28.1095 30.8228 27.6624 31.6699 27.435C30.8228 27.2075 30.0228 26.7605 29.3562 26.0938C28.6895 25.4272 28.2424 24.6272 28.015 23.7801V0L32.2267 2.94114C34.0777 4.23525 35.1208 6.00778 35.1208 7.85874V54.8857V54.8778ZM23.1523 26.1331C22.5092 26.7762 21.7249 27.2154 20.9014 27.435C21.7249 27.6546 22.5013 28.0938 23.1523 28.7369C23.7954 29.3801 24.2346 30.1644 24.4542 30.9879C24.6739 30.1644 25.1131 29.3879 25.7562 28.7369C26.3993 28.086 27.1837 27.6546 28.0072 27.435C27.1837 27.2154 26.4072 26.7762 25.7562 26.1331C25.1052 25.4899 24.6739 24.7056 24.4542 23.8821C24.2346 24.7056 23.7954 25.4821 23.1523 26.1331ZM59.0892 31.0977C58.8617 30.2506 58.4147 29.4507 57.748 28.784C57.0814 28.1173 56.2813 27.6703 55.4343 27.4428C56.2813 27.2154 57.0814 26.7683 57.748 26.1017C58.4147 25.435 58.8617 24.635 59.0892 23.788V7.86658C59.0892 6.01562 58.0461 4.24309 56.1951 2.94899L51.9833 0.00784174V46.9642C51.9833 48.7838 52.9951 50.5328 54.799 51.8269L59.0892 54.9014V31.1134V31.0977ZM61.3401 26.1331C60.697 26.7762 59.9127 27.2154 59.0892 27.435C59.9127 27.6546 60.6892 28.0938 61.3401 28.7369C61.9911 29.3801 62.4225 30.1644 62.6421 30.9879C62.8617 30.1644 63.3009 29.3879 63.944 28.7369C64.5871 28.086 65.3715 27.6546 66.195 27.435C65.3715 27.2154 64.595 26.7762 63.944 26.1331C63.293 25.4899 62.8617 24.7056 62.6421 23.8821C62.4225 24.7056 61.9833 25.4821 61.3401 26.1331ZM47.105 54.8778L42.8149 51.8034C41.011 50.5171 39.9992 48.7681 39.9992 46.9407V11.8587L44.2109 14.7998C46.0619 16.0939 47.105 17.8665 47.105 19.7174V54.87V54.8778ZM44.854 34.6741C45.4972 34.031 46.2815 33.5918 47.105 33.3722C46.2815 33.1526 45.505 32.7134 44.854 32.0702C44.2031 31.4271 43.7717 30.6428 43.5521 29.8193C43.3325 30.6428 42.8933 31.4193 42.2501 32.0702C41.5992 32.7134 40.8227 33.1526 39.9992 33.3722C40.8227 33.5918 41.5992 34.031 42.2501 34.6741C42.9011 35.3173 43.3325 36.1016 43.5521 36.9251C43.7717 36.1016 44.2109 35.3251 44.854 34.6741Z" fill="#96322C"/>
<path d="M19.2076 83.0815H17.992C17.7253 83.0815 17.5057 82.8619 17.5057 82.5952V74.4463L16.2116 80.1874H15.6861C14.6822 80.1874 14.4939 79.1835 14.392 78.8227L13.3881 74.4463V83.0815H12.1724C11.9058 83.0815 11.6862 82.8619 11.6862 82.5952V66.3365H12.7371C13.4038 66.3365 13.5057 66.9562 13.5057 66.9562L15.49 76.5717L17.3802 66.9326C17.4037 66.862 17.5214 66.3365 18.1488 66.3365H19.1998V83.0736L19.2076 83.0815ZM33.4114 81.3874C33.2231 81.8187 32.933 82.4854 32.8624 82.6344C32.7448 82.8462 32.4781 83.0893 31.9291 83.0893H28.5879C28.3213 83.0893 28.1017 82.8697 28.1017 82.603V66.8228C28.1252 66.5561 28.3448 66.3444 28.6271 66.3444H33.0977L32.5251 67.5914C32.431 67.8032 32.1643 68.0699 31.6153 68.0699H30.2271C29.9997 68.0699 29.8193 68.2502 29.8193 68.4777V73.4502H32.3996C32.2114 73.8816 31.9212 74.5718 31.8506 74.7208C31.733 74.9325 31.4899 75.1757 30.9408 75.1757H30.2192C29.9996 75.1757 29.8114 75.3561 29.8114 75.5835V81.3952H33.3957L33.4114 81.3874ZM47.1838 67.5914C47.0897 67.8032 46.823 68.0463 46.274 68.0463H44.9328C44.6975 68.0463 44.525 68.2346 44.5015 68.4542V83.0893H43.278C42.8701 83.0893 42.7995 82.854 42.7995 82.7285V68.0463H40.3839V66.8777C40.3839 66.5875 40.6191 66.3522 40.9093 66.3522H47.7485L47.176 67.5993L47.1838 67.5914ZM58.8856 83.0815C58.619 83.0815 58.3994 82.8619 58.3994 82.5952V76.956C58.3994 76.1404 57.968 75.8815 57.5131 75.8815H56.6033V83.0815H55.3641C55.0975 83.0815 54.8778 82.8619 54.8778 82.5952V66.3365H58.0072C59.1523 66.3365 60.1092 67.2699 60.1092 68.4385V73.6071C60.1092 73.6071 60.1954 74.7443 59.2856 75.0894C60.1719 75.5129 60.1092 76.6658 60.1092 76.6658V83.0736H58.8699L58.8856 83.0815ZM57.521 74.258C57.9759 74.258 58.4072 74.0698 58.4072 73.3012V68.8071C58.4072 68.1875 57.9759 67.9444 57.521 67.9444H56.6111V74.258H57.521ZM72.5796 66.1797C73.7247 66.2267 74.658 67.1601 74.658 68.3051V81.1442C74.6345 82.2893 73.7247 83.1991 72.5796 83.2462H71.2619C70.0933 83.2462 69.1365 82.2893 69.113 81.1442V68.3051C69.113 67.1365 70.0698 66.1797 71.2619 66.1797H72.5796ZM72.007 81.7481C72.509 81.7481 72.9168 81.3403 72.9168 80.8148V68.6189C72.9168 68.0934 72.509 67.6856 72.007 67.6856H71.7404C71.2384 67.7091 70.8306 68.1169 70.8306 68.6189V80.8148C70.8306 81.3168 71.2384 81.7246 71.7404 81.7481H72.007ZM2.99605 90.7598C4.14114 90.7598 5.16859 91.6931 5.16859 92.8618V97.1911C5.16859 98.8146 4.37641 99.9911 2.72937 99.9911H1.70193V107.497H0.478415C0.070576 107.497 0 107.262 0 107.136V90.752H2.9882L2.99605 90.7598ZM3.52152 93.1755C3.47446 92.7206 3.09018 92.3598 2.61175 92.3598H1.70193V98.3833H2.61175C3.09018 98.3833 3.47446 98.0225 3.52152 97.5676V93.1676V93.1755ZM17.2234 90.5951C18.3684 90.6422 19.3017 91.5755 19.3017 92.7206V105.56C19.2782 106.705 18.3684 107.615 17.2234 107.662H15.9057C14.7371 107.662 13.7802 106.705 13.7567 105.56V92.7206C13.7567 91.552 14.7135 90.5951 15.9057 90.5951H17.2234ZM16.6508 106.164C17.1527 106.164 17.5606 105.756 17.5606 105.23V93.0343C17.5606 92.5088 17.1527 92.101 16.6508 92.101H16.3841C15.8822 92.1245 15.4743 92.5323 15.4743 93.0343V105.23C15.4743 105.732 15.8822 106.14 16.3841 106.164H16.6508ZM34.3447 105.803C34.1565 106.234 33.8663 106.901 33.7957 107.05C33.6781 107.262 33.4114 107.505 32.8624 107.505H29.2311C28.9644 107.505 28.7448 107.285 28.7448 107.018V90.7598H29.9369C30.2271 90.7833 30.4624 90.9951 30.4624 91.2853V105.803H34.3369H34.3447ZM61.1758 92.0069C61.0817 92.2186 60.815 92.4617 60.266 92.4617H58.9248C58.6896 92.4617 58.517 92.65 58.4935 92.8696V107.505H57.27C56.8621 107.505 56.7915 107.269 56.7915 107.144V92.4617H54.3759V91.2931C54.3759 91.0029 54.6112 90.7677 54.9014 90.7677H61.7405L61.1679 92.0147L61.1758 92.0069ZM74.5168 107.497H73.0502C72.8071 107.497 72.6031 107.316 72.5717 107.073L71.1208 95.9676L69.6149 107.497H68.2895C67.9914 107.497 67.764 107.23 67.811 106.94L70.2581 90.7598H71.1914C71.9129 90.7598 72.0306 91.2147 72.1012 91.6696L74.5168 107.497ZM87.6696 107.497H86.8775C85.9442 107.497 85.803 106.752 85.7324 106.422L83.8893 98.148V107.497H82.6501C82.3834 107.497 82.1638 107.277 82.1638 107.011V90.752H82.956C83.9128 90.752 84.0775 91.2069 84.1795 91.6853L85.952 100.391V90.752H87.6775V107.489L87.6696 107.497Z" fill="#96322C"/>
<path d="M43.9522 91.8735C44.4463 92.3833 44.7208 93.0813 44.7208 93.8107V107.677L43.5757 106.469C43.0973 105.96 42.8228 105.269 42.8228 104.556V90.7206L43.9443 91.8814L43.9522 91.8735Z" fill="#96322C"/>
<defs>
<linearGradient id="paint0_linear_12_3983" x1="43.5521" y1="72.8619" x2="43.5521" y2="17.9841" gradientUnits="userSpaceOnUse">
<stop offset="0.33" stop-color="#A4773F"/>
<stop offset="0.7" stop-color="#E6BD73"/>
<stop offset="1" stop-color="#FADFAB"/>
</linearGradient>
<linearGradient id="paint1_linear_12_3983" x1="43.8426" y1="124.022" x2="43.8426" y2="82.5403" gradientUnits="userSpaceOnUse">
<stop offset="0.33" stop-color="#A4773F"/>
<stop offset="0.7" stop-color="#E6BD73"/>
<stop offset="1" stop-color="#FADFAB"/>
</linearGradient>
<linearGradient id="paint2_linear_12_3983" x1="43.7796" y1="107.669" x2="43.7796" y2="90.7049" gradientUnits="userSpaceOnUse">
<stop offset="0.7" stop-color="#E6BD73"/>
<stop offset="1" stop-color="#FADFAB"/>
</linearGradient>
</defs>
</svg>
