<svg width="103" height="94" viewBox="0 0 103 94" fill="none" xmlns="http://www.w3.org/2000/svg">
<path d="M36.8584 32.2914C39.6645 32.2914 42.3079 31.2081 44.3008 29.24L44.3697 29.1711C46.3377 27.1782 47.421 24.5348 47.421 21.7288C47.421 18.8952 46.3267 16.2408 44.3366 14.2507L40.3894 10.3035L39.9732 10.7197C38.6088 12.0814 37.859 13.9006 37.859 15.8439C37.859 17.7871 38.6088 19.6036 39.9732 20.968L43.5042 24.499C44.0196 25.0144 44.3035 25.7036 44.3035 26.4368C44.3035 27.17 44.0196 27.8591 43.5042 28.3745C42.9887 28.89 42.3024 29.1739 41.5664 29.1739C40.8304 29.1739 40.1441 28.89 39.6286 28.3745L36.0977 24.8436C34.7332 23.4791 32.914 22.7294 30.9735 22.7294C29.033 22.7294 27.2137 23.4819 25.8493 24.8436L25.4331 25.2598L29.3803 29.207C31.3704 31.1971 34.0248 32.2914 36.8584 32.2914Z" fill="#2D6C56"/>
<path d="M58.543 29.1711L58.612 29.24C60.6048 31.2081 63.2482 32.2914 66.0543 32.2914C68.8603 32.2914 71.5423 31.1971 73.5324 29.207L77.4796 25.2598L77.0634 24.8436C75.7017 23.4791 73.8797 22.7294 71.9392 22.7294C69.9987 22.7294 68.1795 23.4791 66.815 24.8436L63.2841 28.3745C62.7686 28.89 62.0795 29.1739 61.3463 29.1739C60.6131 29.1739 59.924 28.89 59.4086 28.3745C58.8931 27.8591 58.6092 27.17 58.6092 26.4368C58.6092 25.7036 58.8931 25.0144 59.4086 24.499L62.9395 20.968C64.304 19.6036 65.0537 17.7844 65.0537 15.8439C65.0537 13.9033 64.304 12.0841 62.9395 10.7197L62.5233 10.3035L58.5761 14.2507C56.586 16.2408 55.4917 18.8952 55.4917 21.7288C55.4917 24.5624 56.575 27.1782 58.543 29.1711Z" fill="#2D6C56"/>
<path d="M39.6286 44.2791C40.1441 43.7637 40.8332 43.4797 41.5664 43.4797C42.2996 43.4797 42.9887 43.7637 43.5042 44.2791C44.0196 44.7946 44.3035 45.4809 44.3035 46.2169C44.3035 46.9528 44.0196 47.6392 43.5042 48.1546L39.9732 51.6856C38.6088 53.05 37.859 54.8692 37.859 56.8098C37.859 58.7503 38.6088 60.5695 39.9732 61.9339L40.3894 62.3502L44.3366 58.403C46.3267 56.4128 47.421 53.7584 47.421 50.9248C47.421 48.0912 46.3377 45.4754 44.3697 43.4825L44.3008 43.4136C42.3079 41.4455 39.6645 40.3622 36.8584 40.3622C34.0524 40.3622 31.3704 41.4565 29.3803 43.4467L25.4331 47.3939L25.8493 47.8101C27.211 49.1745 29.0302 49.9242 30.9735 49.9242C32.9168 49.9242 34.7332 49.1745 36.0977 47.8101L39.6286 44.2791Z" fill="#2D6C56"/>
<path d="M77.4769 47.3939L73.5297 43.4467C71.5395 41.4565 68.8851 40.3622 66.0515 40.3622C63.2179 40.3622 60.6021 41.4455 58.6092 43.4136L58.5706 43.4522C56.575 45.4754 55.4917 48.1188 55.4917 50.9248C55.4917 53.7309 56.586 56.4128 58.5761 58.403L62.5233 62.3502L62.9395 61.9339C64.3012 60.5723 65.0537 58.753 65.0537 56.8098C65.0537 54.8692 64.304 53.05 62.9395 51.6856L59.4086 48.1546C58.8931 47.6392 58.6092 46.9501 58.6092 46.2169C58.6092 45.4837 58.8931 44.7946 59.4086 44.2791C59.924 43.7637 60.6131 43.4797 61.3463 43.4797C62.0795 43.4797 62.7686 43.7637 63.2841 44.2791L66.815 47.8101C68.1795 49.1745 69.9987 49.9242 71.9392 49.9242C73.8797 49.9242 75.699 49.1745 77.0634 47.8101L77.4796 47.3939H77.4769Z" fill="#2D6C56"/>
<path d="M50.5194 12.0483C50.3154 10.8906 49.7917 9.80733 48.9289 8.94458C48.0662 8.08182 46.9829 7.5581 45.8252 7.35413C46.0292 8.51182 46.5529 9.59509 47.4156 10.4578C48.2784 11.3206 49.3617 11.8443 50.5194 12.0483Z" fill="#2D6C56"/>
<path d="M55.4943 10.4578C56.3571 9.59509 56.8808 8.51182 57.0848 7.35413C55.9271 7.5581 54.8438 8.08182 53.9811 8.94458C53.1183 9.80733 52.5946 10.8906 52.3906 12.0483C53.5483 11.8443 54.6316 11.3206 55.4943 10.4578Z" fill="#2D6C56"/>
<path d="M53.9811 63.7063C54.8438 64.569 55.9271 65.0927 57.0848 65.2967C56.8808 64.139 56.3571 63.0557 55.4943 62.193C54.6316 61.3302 53.5483 60.8065 52.3906 60.6025C52.5946 61.7602 53.1183 62.8435 53.9811 63.7063Z" fill="#2D6C56"/>
<path d="M45.8281 65.2967C46.9858 65.0927 48.0691 64.569 48.9318 63.7063C49.7946 62.8435 50.3183 61.7602 50.5223 60.6025C49.3646 60.8065 48.2813 61.3302 47.4186 62.193C46.5558 63.0557 46.0321 64.139 45.8281 65.2967Z" fill="#2D6C56"/>
<path d="M75.7324 35.3896C76.8901 35.1856 77.9734 34.6619 78.8361 33.7992C79.6989 32.9364 80.2226 31.8531 80.4266 30.6954C79.2689 30.8994 78.1856 31.4231 77.3229 32.2859C76.4601 33.1486 75.9364 34.2319 75.7324 35.3896Z" fill="#2D6C56"/>
<path d="M77.3229 40.2713C78.1856 41.134 79.2689 41.6577 80.4266 41.8617C80.2226 40.704 79.6989 39.6208 78.8361 38.758C77.9734 37.8952 76.8901 37.3715 75.7324 37.1675C75.9364 38.3252 76.4601 39.4085 77.3229 40.2713Z" fill="#2D6C56"/>
<path d="M26.4527 36.7292H42.9416L42.9554 36.743C47.3629 36.8808 50.9049 40.42 51.04 44.8276L51.0537 44.8413V61.3302C50.089 62.9234 49.5294 64.7371 49.5294 66.6777C49.5294 68.8745 50.2406 70.9198 51.4562 72.6536C52.669 70.9198 53.3829 68.8745 53.3829 66.6777C53.3829 64.7399 52.8234 62.9234 51.8586 61.3302V44.8413L51.8724 44.8276C52.0102 40.42 55.5494 36.8781 59.957 36.743L59.9707 36.7292H76.4596C78.0528 37.694 79.8665 38.2535 81.807 38.2535C84.0039 38.2535 86.0492 37.5424 87.783 36.3268C86.0492 35.114 84.0039 34.4 81.807 34.4C79.8693 34.4 78.0528 34.9596 76.4596 35.9243H59.9707L59.957 35.9106C55.5494 35.7727 52.0075 32.2335 51.8724 27.826L51.8586 27.8122V11.3233C52.8234 9.73014 53.3829 7.91642 53.3829 5.97591C53.3829 3.77904 52.6718 1.73378 51.4562 0C50.2434 1.73378 49.5294 3.77904 49.5294 5.97591C49.5294 7.91366 50.089 9.73014 51.0537 11.3233V27.8122L51.04 27.826C50.9021 32.2335 47.3629 35.7755 42.9554 35.9106L42.9416 35.9243H26.4527C24.8595 34.9596 23.0458 34.4 21.1053 34.4C18.9084 34.4 16.8632 35.1112 15.1294 36.3268C16.8632 37.5396 18.9084 38.2535 21.1053 38.2535C23.0431 38.2535 24.8595 37.694 26.4527 36.7292Z" fill="#2D6C56"/>
<path d="M27.1781 37.1675C26.0204 37.3715 24.9371 37.8952 24.0743 38.758C23.2116 39.6208 22.6879 40.704 22.4839 41.8617C23.6416 41.6577 24.7248 41.134 25.5876 40.2713C26.4504 39.4085 26.9741 38.3252 27.1781 37.1675Z" fill="#2D6C56"/>
<path d="M27.1781 35.3896C26.9741 34.2319 26.4504 33.1486 25.5876 32.2859C24.7248 31.4231 23.6416 30.8994 22.4839 30.6954C22.6879 31.8531 23.2116 32.9364 24.0743 33.7992C24.9371 34.6619 26.0204 35.1856 27.1781 35.3896Z" fill="#2D6C56"/>
<path d="M31.6405 90.6694C31.9272 90.413 32.0264 90.1622 32.0264 89.8424C32.0264 88.9135 31.2712 88.5662 30.5407 88.5662H27.9497V93.0564H30.6758C31.4779 93.0564 32.1918 92.6016 32.1918 91.7085C32.1918 91.2841 32.0292 90.8954 31.6433 90.6694H31.6405ZM29.0247 89.4152H30.5518C30.7916 89.4152 30.9487 89.5751 30.9487 89.8645C30.9487 90.1539 30.7916 90.3138 30.5518 90.3138H29.0247V89.4152ZM30.6593 92.2102H29.0275V91.1324H30.6593C30.9625 91.1324 31.1141 91.3502 31.1141 91.6699C31.1141 91.9897 30.9625 92.2075 30.6593 92.2075V92.2102Z" fill="#2D6C56"/>
<path d="M36.4999 88.5664H35.6978V93.0566H36.4999C36.6515 93.0566 36.7755 92.9215 36.7755 92.7617V88.8613C36.7755 88.696 36.6515 88.5664 36.4999 88.5664Z" fill="#2D6C56"/>
<path d="M41.3984 89.7847C41.3984 89.5614 41.55 89.4264 41.9029 89.4264H42.7629C43.055 89.4264 43.2783 89.5284 43.372 89.7461C43.4657 89.9584 43.5953 90.0411 43.7579 90.0411H44.097C44.1741 90.0411 44.3891 89.9832 44.3891 89.6938C44.3891 89.0074 43.598 88.5388 42.8621 88.5388H42.1372C40.7314 88.5388 40.3234 89.0763 40.3234 89.8481C40.3234 91.5102 43.4189 91.0913 43.4189 91.8355C43.4189 92.0588 43.2673 92.1938 42.9145 92.1938H41.9139C41.6217 92.1938 41.3984 92.0918 41.3047 91.8741C41.211 91.6618 41.0814 91.5791 40.9188 91.5791H40.5798C40.5026 91.5791 40.2876 91.637 40.2876 91.9264C40.2876 92.6128 41.0787 93.0814 41.8147 93.0814H42.6802C44.0832 93.0814 44.4939 92.5439 44.4939 91.7721C44.4939 90.0989 41.3984 90.5289 41.3984 89.7847Z" fill="#2D6C56"/>
<path d="M51.8457 88.5664H51.0436V90.2726H49.0782V88.8613C49.0782 88.696 48.9542 88.5664 48.8081 88.5664H48.0005V93.0566H48.8081C48.9542 93.0566 49.0782 92.9271 49.0782 92.7672V91.1574H51.0436V93.0566H51.8457C51.9973 93.0566 52.1213 92.9215 52.1213 92.7617V88.8613C52.1213 88.696 51.9973 88.5664 51.8457 88.5664Z" fill="#2D6C56"/>
<path d="M59.3399 91.5213C59.1773 91.2456 58.8824 90.8542 58.6012 90.7908C58.9981 90.6888 59.1911 90.3856 59.3399 90.099L59.9601 88.8669C60.0483 88.6932 60.018 88.5664 59.8719 88.5664H59.2104C59.0643 88.5664 58.9072 88.6629 58.7997 88.8669L58.3559 89.7324C58.1271 90.1817 57.8873 90.3663 57.5538 90.3663H56.9391V88.8669C56.9391 88.7015 56.815 88.5664 56.669 88.5664H55.8613V93.0621H56.669C56.815 93.0621 56.9391 92.9326 56.9391 92.7727V91.2539H57.5538C57.9231 91.2539 58.1381 91.5158 58.3559 91.8962L58.8603 92.7672C58.954 92.9326 59.1525 93.0621 59.2986 93.0621H59.9546C60.1062 93.0621 60.1476 92.9326 60.0538 92.7672L59.3399 91.524V91.5213Z" fill="#2D6C56"/>
<path d="M67.0025 88.5664H63.4385V93.0566H66.9915C67.1431 93.0566 67.2616 92.9215 67.2616 92.7617V92.4612C67.2616 92.3013 67.1459 92.1718 66.997 92.1718H64.5162V91.2484H66.658C66.8041 91.2484 66.9281 91.1133 66.9281 90.9535V90.6585C66.9281 90.4987 66.8041 90.3636 66.658 90.3636H64.5162V89.454H67.0025C67.1486 89.454 67.2726 89.3244 67.2726 89.159V88.8641C67.2726 88.6987 67.1486 88.5692 67.0025 88.5692V88.5664Z" fill="#2D6C56"/>
<path d="M74.1993 91.5213C74.0367 91.2456 73.7417 90.8542 73.4633 90.7908C73.8603 90.6888 74.0532 90.3856 74.1993 90.099L74.8195 88.8669C74.9077 88.6932 74.8774 88.5664 74.7313 88.5664H74.0698C73.9237 88.5664 73.7638 88.6629 73.659 88.8669L73.2153 89.7324C72.9865 90.1817 72.7467 90.3663 72.4131 90.3663H71.7985V88.8669C71.7985 88.7015 71.6744 88.5664 71.5283 88.5664H70.7207V93.0621H71.5283C71.6744 93.0621 71.7985 92.9326 71.7985 92.7727V91.2539H72.4131C72.7825 91.2539 72.9975 91.5158 73.2153 91.8962L73.7197 92.7672C73.8134 92.9326 74.0119 93.0621 74.158 93.0621H74.814C74.9656 93.0621 75.0069 92.9326 74.9132 92.7672L74.1993 91.524V91.5213Z" fill="#2D6C56"/>
<path d="M75.131 83.6931L71.6028 83.6986L71.5946 79.0402C71.5946 78.8528 71.4678 78.7067 71.3051 78.7067H70.2715V84.7571L75.131 84.7488C75.2909 84.7488 75.4205 84.6027 75.4177 84.4235V84.0156C75.4177 83.8364 75.2882 83.6903 75.1283 83.6931H75.131Z" fill="#2D6C56"/>
<path d="M64.4748 80.3302L63.4853 84.4621C63.4632 84.5503 63.4742 84.6302 63.5156 84.6854C63.5514 84.7322 63.6093 84.757 63.6782 84.757H64.4555C64.6264 84.757 64.7973 84.6027 64.8442 84.4097L65.1253 83.252L68.0857 83.2465V84.4235C68.0857 84.6082 68.2125 84.7488 68.3779 84.746H69.4115V78.6957H67.0135C65.5443 78.7012 64.7394 79.2194 64.4748 80.3275V80.3302ZM68.0857 82.1908L65.3734 82.1963L65.7455 80.6968C65.8833 80.129 66.3244 79.7624 66.8701 79.7597H68.0802L68.0857 82.1908Z" fill="#2D6C56"/>
<path d="M84.9304 80.3302L83.9408 84.4621C83.9188 84.5503 83.9298 84.6302 83.9711 84.6854C84.007 84.7322 84.0649 84.757 84.1338 84.757H84.9111C85.082 84.757 85.2529 84.6027 85.2997 84.4097L85.5809 83.252L88.5413 83.2465V84.4235C88.5413 84.6082 88.6681 84.7488 88.8335 84.746H89.8671V78.6957H87.469C85.9999 78.7012 85.195 79.2194 84.9304 80.3275V80.3302ZM88.5413 82.1908L85.829 82.1963L86.2011 80.6968C86.3389 80.129 86.7799 79.7624 87.3257 79.7597H88.5358L88.5413 82.1908Z" fill="#2D6C56"/>
<path d="M62.3361 83.2162C62.0384 82.7035 61.8013 82.381 61.4761 82.2514L61.2225 82.1494L61.4899 82.0915C62.4353 81.8848 62.9122 81.3804 62.9122 80.5893C62.9122 79.4619 62.1128 78.7039 60.9276 78.7067L57.3828 78.7122V84.7598H58.4275C58.5874 84.7598 58.7169 84.6137 58.7142 84.4345V82.4857H59.7588C60.3294 82.4857 60.6492 82.913 60.8366 83.2355L61.5119 84.3876C61.636 84.6082 61.8895 84.7542 62.0467 84.7542H62.9949C63.0335 84.7542 63.0831 84.746 63.1051 84.7074C63.1272 84.6688 63.1272 84.5861 63.061 84.4676L62.3388 83.2162H62.3361ZM60.4755 81.4217H58.7059L58.7031 79.7651H60.4728C60.9854 79.7596 61.5863 79.9774 61.5863 80.5893C61.5863 81.2012 60.9882 81.4217 60.4755 81.4217Z" fill="#2D6C56"/>
<path d="M95.7604 83.2162C95.4627 82.7035 95.2257 82.381 94.9004 82.2514L94.6468 82.1494L94.9142 82.0915C95.8596 81.8848 96.3365 81.3804 96.3365 80.5893C96.3365 79.4619 95.5371 78.7039 94.3519 78.7067L90.8071 78.7122V84.7598H91.8518C92.0117 84.7598 92.1412 84.6137 92.1385 84.4345V82.4857H93.1832C93.7537 82.4857 94.0735 82.913 94.2609 83.2355L94.9362 84.3876C95.0603 84.6082 95.3139 84.7542 95.471 84.7542H96.4192C96.4578 84.7542 96.5074 84.746 96.5294 84.7074C96.5515 84.6688 96.5515 84.5861 96.4853 84.4676L95.7632 83.2162H95.7604ZM93.9026 81.4217H92.133L92.1302 79.7651H93.8998C94.4125 79.7596 95.0134 79.9774 95.0134 80.5893C95.0134 81.2012 94.4153 81.4217 93.9026 81.4217Z" fill="#2D6C56"/>
<path d="M9.11225 78.5744C6.99808 78.5771 6.01404 79.5832 6.01955 81.7387C6.02507 83.8942 7.00911 84.8948 9.12603 84.8893C11.2402 84.8866 12.2242 83.8805 12.2187 81.725C12.2132 79.5694 11.2292 78.5689 9.11225 78.5744ZM9.12328 83.886C7.92699 83.886 7.34539 83.1858 7.34263 81.736C7.33988 80.2861 7.91872 79.5805 9.11501 79.5777C10.3113 79.5777 10.8929 80.2778 10.8957 81.7277C10.8984 83.1776 10.3196 83.8832 9.12328 83.886Z" fill="#2D6C56"/>
<path d="M17.7238 78.9851C17.7762 78.8969 17.79 78.8059 17.7596 78.7508C17.7403 78.7177 17.7073 78.7039 17.6576 78.7039H16.9051C16.5771 78.7039 16.3897 78.9051 16.2905 79.0733L14.9426 81.3639L13.5864 79.0788C13.4872 78.9107 13.297 78.7122 12.969 78.7122H12.2165C12.1669 78.7122 12.1338 78.7287 12.1145 78.7618C12.0842 78.8169 12.098 78.9079 12.1503 78.9961L14.2838 82.5987V84.757H15.6096V82.596L15.6179 82.5767L17.7266 78.9851H17.7238Z" fill="#2D6C56"/>
<path d="M18.1866 80.3302L17.1309 84.757H18.17C18.3409 84.757 18.5118 84.6027 18.5587 84.4097L18.8398 83.252L21.8002 83.2465V84.4235C21.8002 84.6082 21.927 84.7488 22.0924 84.746H23.1261V78.6957H20.728C19.2588 78.7012 18.4539 79.2194 18.1893 80.3275L18.1866 80.3302ZM21.7975 82.1908L19.0852 82.1963L19.4573 80.6968C19.5951 80.129 20.0361 79.7624 20.5819 79.7597H21.792L21.7975 82.1908Z" fill="#2D6C56"/>
<path d="M29.0685 83.6931L25.5403 83.6986L25.5321 79.0402C25.5321 78.8528 25.4053 78.7067 25.2426 78.7067H24.209V84.7571L29.0685 84.7488C29.2284 84.7488 29.358 84.6027 29.3552 84.4235V84.0156C29.3552 83.8364 29.2257 83.6903 29.0658 83.6931H29.0685Z" fill="#2D6C56"/>
<path d="M37.9587 82.5657H37.4873C37.3357 82.5657 37.1565 82.618 36.9994 82.9957C36.7927 83.4836 36.4399 83.7316 35.952 83.7316H35.1664C33.9811 83.7344 33.598 83.2493 33.5952 81.7332C33.5925 80.2172 33.9729 79.7293 35.1581 79.7266H35.8638C36.3517 79.7266 36.7045 79.9719 36.914 80.457C37.0738 80.8346 37.2503 80.8843 37.4046 80.8843H37.876C37.876 80.8843 38.1957 80.8787 38.1957 80.4873C38.1957 79.2883 37.0904 78.6653 35.9988 78.6653H35.1168C33.2011 78.6709 32.2694 79.6742 32.2749 81.7332C32.2777 83.7923 33.2121 84.7901 35.1278 84.7873H36.0926C37.1813 84.7846 38.2839 84.1534 38.2812 82.9571C38.2812 82.5657 37.9614 82.5629 37.9587 82.5629V82.5657Z" fill="#2D6C56"/>
<path d="M44.1378 84.4263V84.01C44.1378 83.8336 44.0138 83.6958 43.8567 83.6958L40.3367 83.7013V82.2542L43.3826 82.2487C43.5397 82.2487 43.672 82.0999 43.6692 81.9234V81.5155C43.6692 81.3391 43.5369 81.1902 43.3798 81.193L40.3312 81.1985V79.7679L43.8567 79.7624C44.0165 79.7624 44.1461 79.6163 44.1433 79.4372V79.0292C44.1433 78.85 44.0138 78.7039 43.8539 78.7067L39.0054 78.715V84.7625L43.8511 84.7543C44.011 84.7543 44.1378 84.6082 44.1378 84.429V84.4263Z" fill="#2D6C56"/>
<path d="M50.2683 78.7012H49.3008V83.3512L46.7539 79.0733C46.6464 78.8941 46.4397 78.7067 46.2826 78.7067H44.8354V84.757H45.8305C45.9876 84.757 46.1199 84.6081 46.1172 84.4317L46.1089 80.4019L48.4601 84.3849C48.5842 84.5971 48.7964 84.7515 48.9646 84.7515H50.2766C50.4365 84.7487 50.566 84.6026 50.5633 84.4235L50.5523 79.0236C50.5523 78.839 50.4282 78.6984 50.2628 78.7012H50.2683Z" fill="#2D6C56"/>
<path d="M56.4788 78.7039L51.4566 78.7149C51.2913 78.7149 51.1672 78.8555 51.17 79.0402V79.4482C51.17 79.6328 51.294 79.7734 51.4594 79.7707H53.3089L53.3172 84.757H54.6403L54.632 79.7651H56.4816C56.647 79.7624 56.771 79.6218 56.7682 79.4371V79.0292C56.7682 78.8445 56.6442 78.7039 56.4788 78.7067V78.7039Z" fill="#2D6C56"/>
<path d="M81.6479 78.7039L78.3457 78.7094V84.757H79.3904C79.5503 84.757 79.6798 84.6109 79.6771 84.4317V83.3705L81.6534 83.3678C83.1832 83.365 83.9578 82.5794 83.955 81.0331C83.9523 79.4867 83.1749 78.7039 81.6451 78.7067L81.6479 78.7039ZM81.2014 82.3121H79.6743L79.6688 79.7651H81.1958C81.9428 79.7596 82.6319 79.914 82.6347 81.0331C82.6347 82.1522 81.9456 82.3093 81.2014 82.3093V82.3121Z" fill="#2D6C56"/>
<path d="M102.856 84.4648L101.866 82.7448C101.615 82.3258 101.23 81.849 100.896 81.7746L100.56 81.6974L100.893 81.6092C101.4 81.4769 101.657 81.091 101.858 80.6913L102.713 78.9851C102.781 78.85 102.781 78.7618 102.759 78.726C102.746 78.7012 102.715 78.6901 102.666 78.6901H101.751C101.563 78.6901 101.378 78.8307 101.26 79.065L100.645 80.264C100.317 80.9118 99.9644 81.1902 99.4627 81.1902H98.5283L98.5228 79.0292C98.5228 78.8472 98.3905 78.6956 98.2334 78.6956H97.1997V84.7542H98.2444C98.4043 84.7542 98.5338 84.6109 98.5311 84.4372L98.5255 82.2487H99.46C100 82.2459 100.325 82.618 100.645 83.1748L101.345 84.3821C101.469 84.6026 101.723 84.7487 101.88 84.7487H102.787C102.826 84.7487 102.875 84.7405 102.897 84.7019C102.919 84.6633 102.919 84.5806 102.853 84.4621L102.856 84.4648Z" fill="#2D6C56"/>
<path d="M5.67546 84.4648L4.95327 83.2134C4.65558 82.7007 4.41853 82.3782 4.09327 82.2487L3.83968 82.1467L4.10706 82.0888C5.05251 81.8821 5.52937 81.3777 5.52937 80.5866C5.52937 79.4592 4.73001 78.7012 3.54475 78.7039L0 78.7094V84.757H0.294936H1.04468C1.20455 84.757 1.3341 84.6109 1.33135 84.4318V82.483H2.37603C2.94661 82.483 3.26635 82.9102 3.45379 83.2327L4.12911 84.3849C4.25315 84.6054 4.50674 84.7515 4.66385 84.7515H5.18206H5.26199H5.6093C5.61481 84.7515 5.62308 84.7515 5.6286 84.7487H5.83257L5.6727 84.4759C5.6727 84.4759 5.6727 84.4731 5.66994 84.4703L5.67546 84.4648ZM3.0927 81.4218H1.32308L1.32032 79.7651H3.08994C3.60263 79.7596 4.20353 79.9774 4.20353 80.5893C4.20353 81.2012 3.60539 81.4218 3.0927 81.4218Z" fill="#2D6C56"/>
</svg>
