<svg width="146" height="104" viewBox="0 0 146 104" fill="none" xmlns="http://www.w3.org/2000/svg">
<path d="M6.49423 84.854L10.2824 73.2071H10.5726L14.5412 84.9795L16.4157 78.2423C16.7059 77.1835 16.8078 76.1247 16.8078 75.2071C16.8078 74.2894 16.6196 73.6071 15.6471 73.5443L15.2079 73.5208V73.4581H19.3255V73.5208L19.098 73.5443C18.3529 73.6071 17.7647 73.7953 16.5176 78.2423L13.8589 87.7246H13.5922L9.53733 75.8502L5.67071 87.7246H5.40404L2.34525 76.9561C1.49036 73.9836 1.2237 73.6463 0.368806 73.5443L0.204102 73.5208V73.4581H5.06679V73.5208L4.62758 73.5443C3.35701 73.6071 3.4825 74.3757 4.18837 76.8541L6.49423 84.8619V84.854Z" fill="#560A00"/>
<path d="M14.0077 87.9207H13.4508L9.53715 76.4698L5.80386 87.9207H5.247L2.149 77.011C1.27842 73.9836 1.04313 73.8267 0.337251 73.7404L0 73.7012V73.2698H5.25484V73.7169L4.63524 73.7483C4.16466 73.7718 4.02349 73.8973 3.96074 73.9836C3.70192 74.3443 3.96074 75.3326 4.37642 76.8071L6.50973 84.1952L10.1411 73.0189H10.7136L14.5253 84.3207L16.2273 78.1953C16.4783 77.2698 16.6116 76.2424 16.6116 75.2149C16.6116 74.1875 16.3528 73.7953 15.6312 73.7483L15.0116 73.7169V73.2698H19.5214V73.7091L19.1135 73.7483C18.5174 73.7953 17.9527 73.8424 16.7057 78.3051L14.0077 87.9285V87.9207ZM9.67833 75.6855L13.7097 87.4971L14.3763 85.1207L10.4156 73.4032L9.67833 75.6855ZM1.17646 73.6541C1.63135 74.0463 1.95292 74.9169 2.52546 76.9012L5.52935 87.4971L6.33719 85.0187L3.99996 76.9012C3.48231 75.0816 3.29408 74.2345 3.63918 73.7483C3.6627 73.7169 3.68623 73.6855 3.71761 73.6541H1.17646ZM16.5175 73.6541C16.9331 74.0071 17.0037 74.611 17.0037 75.2071C17.0037 75.4973 16.9959 75.7953 16.9724 76.0855C17.4665 74.6424 17.8508 73.9757 18.2351 73.6541H16.5175Z" fill="#560A00"/>
<path d="M26.0785 87.7402C21.6707 87.7402 19.2158 84.2501 19.2158 80.4384C19.2158 76.6266 21.6707 73.1835 26.0785 73.1835C30.4863 73.1835 32.9412 76.6345 32.9412 80.4384C32.9412 84.2422 30.4863 87.7402 26.0785 87.7402ZM26.0785 73.2698C22.5021 73.2698 21.357 76.6815 21.357 80.4619C21.357 84.2422 22.5021 87.654 26.0785 87.654C29.6549 87.654 30.8 84.2422 30.8 80.4619C30.8 76.6815 29.6549 73.2698 26.0785 73.2698Z" fill="#560A00"/>
<path d="M26.0783 87.9363C21.443 87.9363 19.0195 84.1638 19.0195 80.4384C19.0195 76.7129 21.443 72.9875 26.0783 72.9875C30.7135 72.9875 33.137 76.7365 33.137 80.4384C33.137 84.1403 30.7135 87.9363 26.0783 87.9363ZM26.0783 73.4659C22.1411 73.4659 21.5528 77.8502 21.5528 80.4619C21.5528 83.0737 22.1411 87.4579 26.0783 87.4579C30.0155 87.4579 30.6037 83.0737 30.6037 80.4619C30.6037 77.8502 30.0155 73.4659 26.0783 73.4659ZM28.7214 73.8973C30.2037 75.0188 30.9959 77.2541 30.9959 80.4619C30.9959 83.6697 30.2037 85.8972 28.7292 87.0187C30.941 86.1011 32.7449 83.9678 32.7449 80.4384C32.7449 76.909 30.9331 74.7992 28.7214 73.8894V73.8973ZM23.443 73.8973C21.2234 74.8071 19.4195 76.9325 19.4195 80.4462C19.4195 83.9599 21.2234 86.1089 23.4352 87.0265C21.9528 85.905 21.1685 83.6697 21.1685 80.4698C21.1685 77.2698 21.9607 75.0267 23.443 73.9051V73.8973Z" fill="#560A00"/>
<path d="M47.537 85.0814V78.4462C47.537 76.7443 46.9567 73.6227 45.3724 73.5365L44.9332 73.5129V73.4502H49.4429V73.5129L49.2155 73.5365C48.0704 73.6384 47.6155 75.2384 47.6155 78.4462V87.654H47.3253L36.4313 74.6972V82.4775C36.4313 84.1795 37.0117 87.301 38.596 87.3873L39.0352 87.4108V87.4736H34.5254V87.4108L34.7529 87.3873C35.898 87.2853 36.3529 85.6854 36.3529 82.4775V76.6737C36.3529 73.8267 35.9136 73.5757 34.894 73.5365L34.5176 73.5129V73.4502H37.945L47.5292 85.0736L47.537 85.0814Z" fill="#560A00"/>
<path d="M47.8192 87.8579H47.2388L36.6272 75.2463V82.4854C36.6272 84.3442 37.2546 87.1285 38.6036 87.1991L39.2232 87.2304V87.6775H34.3213V87.2383L34.7292 87.1991C35.7017 87.1128 36.1488 85.6148 36.1488 82.4854V76.6815C36.1488 73.7874 35.7017 73.7718 34.8782 73.7404L34.3135 73.709V73.262H38.0311L47.3251 84.5403V78.4541C47.3251 76.5953 46.6977 73.811 45.3486 73.7404L44.729 73.709V73.262H49.631V73.7012L49.2231 73.7404C48.2506 73.8267 47.8035 75.3247 47.8035 78.4541V87.8579H47.8192ZM47.4192 87.4657V85.254L47.38 85.2069L37.8507 73.6541H35.9213C36.0782 73.7874 36.1958 73.9757 36.2899 74.2423L47.4114 87.4657H47.4192ZM35.5135 87.2775H37.7723C37.1056 86.7677 36.6821 85.7089 36.4546 84.5952C36.3135 85.9834 36.0076 86.854 35.5135 87.2775ZM46.1957 73.6541C46.8624 74.1639 47.2859 75.2227 47.5133 76.3364C47.6545 74.9482 47.9604 74.0776 48.4545 73.6541H46.1957Z" fill="#560A00"/>
<path d="M50.3447 87.4109L50.7839 87.3873C51.8035 87.3481 51.9918 87.0971 51.9918 84.2501V76.6816C51.9918 73.8345 51.8035 73.5836 50.7839 73.5443L50.3447 73.5208V73.4581H57.1682C61.7642 73.4581 64.1956 76.6188 64.1956 80.4462C64.1956 84.2736 61.6387 87.4736 57.1917 87.4736H50.3526V87.4109H50.3447ZM54.8545 73.5443C53.9368 73.5443 53.8741 73.8738 53.8741 76.6816V84.2501C53.8741 87.0579 53.9368 87.3873 54.8545 87.3873H57.1603C60.674 87.3873 62.0466 83.9991 62.0466 80.4619C62.0466 76.9247 60.4074 73.5365 57.1603 73.5365H54.8545V73.5443Z" fill="#560A00"/>
<path d="M57.1842 87.6697H50.149V87.2226L50.7686 87.1912C51.5764 87.1599 51.7882 87.152 51.7882 84.2501V76.6815C51.7882 73.7796 51.5686 73.7718 50.7686 73.7404L50.1411 73.709V73.262H57.1606C60.7528 73.262 64.3841 75.4815 64.3841 80.4462C64.3841 84.6971 61.4194 87.6697 57.1842 87.6697ZM51.7489 87.2775H54.0077C53.6862 86.8618 53.6862 85.9677 53.6862 84.2501V76.6815C53.6862 74.9639 53.6862 74.0698 54.0077 73.6541H51.7489C52.1097 74.0384 52.1882 74.8698 52.1882 76.6815V84.2501C52.1882 86.0618 52.1176 86.8932 51.7489 87.2775ZM54.8548 73.7404C54.1646 73.7404 54.0705 73.8502 54.0705 76.6815V84.2501C54.0705 87.0814 54.1568 87.1912 54.8548 87.1912H57.1606C60.6194 87.1912 61.8508 83.7168 61.8508 80.4619C61.8508 77.207 60.3998 73.7326 57.1606 73.7326H54.8548V73.7404ZM59.4273 73.9522C61.3567 75.1208 62.2508 77.8031 62.2508 80.4619C62.2508 82.9874 61.5292 85.6383 59.6704 86.8775C62.3135 85.9677 64.0076 83.5756 64.0076 80.4462C64.0076 77.1286 62.2743 74.76 59.4351 73.9522H59.4273Z" fill="#560A00"/>
<path d="M73.5914 82.6501L73.4659 82.1952C72.9875 80.4462 71.9051 80.3207 70.8855 80.3207H69.7012V84.2501C69.7012 87.0579 69.764 87.3873 70.6816 87.3873H72.2424C74.2816 87.3873 75.4424 86.9951 76.4855 83.7873L76.7129 83.0815H76.7757V87.4657H66.1719V87.403L66.6111 87.3795C67.6307 87.3402 67.8189 87.0893 67.8189 84.2422V76.6737C67.8189 73.8267 67.6307 73.5757 66.6111 73.5365L66.1719 73.5129V73.4502H76.36V77.2149H76.2973L76.0698 76.509C75.1992 73.8267 73.7169 73.5365 71.8267 73.5365H70.6816C69.764 73.5365 69.7012 73.8659 69.7012 76.6737V80.2266H70.8855C71.9051 80.2266 72.9875 80.1011 73.4659 78.3521L73.5914 77.8972H73.6541V82.6344H73.5914V82.6501Z" fill="#560A00"/>
<path d="M76.9716 87.6697H65.9756V87.2226L66.5952 87.1912C67.4031 87.1599 67.6148 87.152 67.6148 84.2501V76.6815C67.6148 73.7796 67.3952 73.7718 66.5952 73.7404L65.9678 73.709V73.262H76.548V77.4188H76.1481L75.8735 76.5796C75.0187 73.9522 73.5912 73.7404 71.8187 73.7404H70.6736C69.9834 73.7404 69.8893 73.8502 69.8893 76.6815V80.0384H70.8775C71.8893 80.0384 72.8304 79.905 73.2697 78.3129L73.4344 77.709H73.8422V82.8383H73.4344L73.2697 82.2344C72.8304 80.6423 71.8893 80.5089 70.8775 80.5089H69.8893V84.2422C69.8893 87.0736 69.9756 87.1834 70.6736 87.1834H72.2344C74.0618 87.1834 75.2383 86.9481 76.2892 83.7246L76.5637 82.8854H76.9637V87.6618L76.9716 87.6697ZM74.2736 87.2775H76.5794V84.1246C75.9441 85.9834 75.2461 86.8697 74.2736 87.2775ZM67.5678 87.2775H69.8266C69.505 86.8618 69.505 85.9677 69.505 84.2501V76.6815C69.505 74.9639 69.505 74.0698 69.8266 73.6541H67.5678C67.9285 74.0384 68.007 74.8698 68.007 76.6815V84.2501C68.007 86.0618 67.9364 86.8932 67.5678 87.2775ZM72.1246 80.2815C72.6501 80.454 73.1285 80.8227 73.4579 81.5756V78.9874C73.1285 79.7403 72.6501 80.1089 72.1246 80.2815ZM73.9991 73.6541C74.8696 73.9992 75.6226 74.7129 76.1637 76.1874V73.6541H73.9991Z" fill="#560A00"/>
<path d="M92.5094 87.3873L92.8859 87.4108V87.4736H89.4349C89.2467 87.0814 88.9957 86.5559 88.5643 85.7481C88.1487 84.9795 87.5212 83.7324 87.1526 83.0893C85.882 80.8619 85.4663 80.5325 84.0546 80.5325H82.7213V84.2579C82.7213 87.1049 82.9095 87.3559 83.9291 87.3951L84.3683 87.4187V87.4814H79.1919V87.4187L79.6311 87.3951C80.6507 87.3559 80.8389 87.1049 80.8389 84.2579V76.6894C80.8389 73.8423 80.6507 73.5914 79.6311 73.5522L79.1919 73.5286V73.4659H86.0546C88.5487 73.4659 90.6271 74.6502 90.6271 77.0031C90.6271 78.5246 89.5447 79.6462 88.1094 80.1638C87.1134 80.5168 86.1095 80.5795 84.9252 80.5403C87.2781 81.1442 88.3134 81.8736 89.2467 83.3246C89.4977 83.7167 90.1408 84.8226 90.3526 85.1756C91.1212 86.4461 91.7486 87.3559 92.5172 87.403L92.5094 87.3873ZM86.0232 80.4462C88.0624 80.4462 88.4938 78.9089 88.4938 77.0345C88.4938 74.7678 87.5761 73.5443 86.0389 73.5443H83.686C82.7683 73.5443 82.7056 73.8737 82.7056 76.6815V80.4462H86.0153H86.0232Z" fill="#560A00"/>
<path d="M93.0818 87.6696H89.3093L89.2544 87.5598C89.0583 87.1441 88.8073 86.6265 88.3838 85.8422C88.2191 85.5442 88.0309 85.1677 87.8269 84.7912C87.5132 84.1951 87.1995 83.5755 86.9721 83.1912C85.6779 80.9246 85.3172 80.7285 84.0466 80.7285H82.9094V84.2579C82.9094 87.1598 83.129 87.1677 83.9289 87.199L84.5564 87.2304V87.6775H78.9878V87.2304L79.6074 87.199C80.4153 87.1677 80.627 87.1598 80.627 84.2579V76.6893C80.627 73.7874 80.4074 73.7796 79.6074 73.7482L78.98 73.7168V73.2698H86.0387C88.9328 73.2698 90.8073 74.7364 90.8073 77.0031C90.8073 78.5011 89.8191 79.7481 88.1642 80.3442C87.5054 80.5795 86.8544 80.6815 86.2191 80.7207C87.7328 81.2618 88.6112 81.9756 89.4034 83.2148C89.623 83.5677 90.1406 84.4383 90.4152 84.9089L90.5093 85.0736C91.223 86.2579 91.8347 87.1677 92.5171 87.199L93.0739 87.2304V87.6775L93.0818 87.6696ZM89.5603 87.2775H91.7249C91.1995 86.8853 90.7132 86.1402 90.1877 85.2696L90.0936 85.1049C89.8348 84.6736 89.3093 83.7638 89.0897 83.4187C88.3289 82.2265 87.5132 81.5756 86.0387 81.0579C86.4152 81.4579 86.7995 82.0697 87.325 82.9873C87.5524 83.3873 87.8818 84.0069 88.1877 84.603C88.3838 84.9794 88.5799 85.3559 88.7367 85.6539C89.1289 86.3755 89.372 86.8775 89.5603 87.2775ZM80.5878 87.2775H82.9643C82.6035 86.8932 82.525 86.0618 82.525 84.25V76.6815C82.525 74.9639 82.525 74.0698 82.8466 73.6541H80.5878C80.9486 74.0384 81.027 74.8698 81.027 76.6815V84.25C81.027 86.0618 80.9564 86.8932 80.5878 87.2775ZM82.9172 80.2501H86.0309C87.6309 80.2501 88.3132 79.2854 88.3132 77.0344C88.3132 74.909 87.5132 73.7404 86.0544 73.7404H83.7015C83.0113 73.7404 82.9172 73.8502 82.9172 76.6815V80.2501ZM87.5289 73.8188C88.2818 74.3992 88.6975 75.505 88.6975 77.0344C88.6975 78.0697 88.572 79.3324 87.772 80.054C87.8583 80.0305 87.9524 79.9991 88.0387 79.9677C89.5289 79.4266 90.423 78.3129 90.423 76.9952C90.423 75.1207 89.0661 74.1717 87.5289 73.8188Z" fill="#560A00"/>
<path d="M110.517 87.7403C109.976 87.0579 109.458 86.5952 109.019 86.5952C108.768 86.5952 108.604 86.6971 108.274 86.9246C107.506 87.4422 106.713 87.7324 105.717 87.7324C101.396 87.7324 99.1919 84.1795 99.1919 80.4776C99.1919 76.7757 101.396 73.1757 105.717 73.1757C106.651 73.1757 107.466 73.4267 108.149 73.8816C108.36 74.0306 108.564 74.1718 108.815 74.1718C109.192 74.1718 109.607 73.7796 110.102 73.1757H110.141V77.207H110.078L109.851 76.5012C109.286 74.7522 107.913 73.2542 105.757 73.2542C102.408 73.2542 101.325 76.8541 101.325 80.4462C101.325 84.0384 102.408 87.6383 105.757 87.6383C108.439 87.6383 109.835 85.1678 110.266 83.7717L110.494 83.0658H110.556V87.7246H110.517V87.7403Z" fill="#560A00"/>
<path d="M110.752 87.9363H110.422L110.368 87.8579C109.669 86.9716 109.254 86.7913 109.026 86.7913C108.838 86.7913 108.713 86.8697 108.391 87.0893C107.528 87.6775 106.705 87.9363 105.724 87.9363C101.105 87.9363 99.0029 84.0697 99.0029 80.4854C99.0029 76.9012 101.105 72.9875 105.724 72.9875C106.673 72.9875 107.528 73.2385 108.266 73.7247C108.454 73.8581 108.634 73.9835 108.822 73.9835C109.152 73.9835 109.607 73.4894 109.96 73.0581L110.015 72.9875H110.344V77.411H109.944L109.669 76.5718C109.042 74.6267 107.583 73.4659 105.756 73.4659C101.936 73.4659 101.521 78.36 101.521 80.4619C101.521 82.5639 101.936 87.4579 105.756 87.4579C108.822 87.4579 109.96 84.1089 110.085 83.7246L110.36 82.8776H110.76V87.9285L110.752 87.9363ZM109.019 86.4069C109.411 86.4069 109.85 86.6893 110.36 87.254V84.1246C110.077 84.9168 109.615 85.7324 108.979 86.4069C108.995 86.4069 109.003 86.4069 109.019 86.4069ZM103.513 73.7483C100.689 74.76 99.3794 77.709 99.3794 80.4854C99.3794 83.2619 100.689 86.1873 103.521 87.1913C101.975 86.1246 101.128 83.7952 101.128 80.4698C101.128 77.1443 101.975 74.8228 103.513 73.7483ZM108.846 74.3836C109.309 74.8698 109.685 75.4816 109.952 76.1953V73.6698C109.56 74.1012 109.207 74.3679 108.846 74.3836Z" fill="#560A00"/>
<path d="M116.399 84.2501C116.399 87.0971 116.587 87.3481 117.607 87.3873L118.046 87.4109V87.4736H112.87V87.4109L113.309 87.3873C114.328 87.3481 114.517 87.0971 114.517 84.2501V76.6816C114.517 73.8345 114.328 73.5836 113.309 73.5443L112.87 73.5208V73.4581H118.046V73.5208L117.607 73.5443C116.587 73.5836 116.399 73.8345 116.399 76.6816V84.2501Z" fill="#560A00"/>
<path d="M118.242 87.6697H112.673V87.2226L113.293 87.1912C114.101 87.1599 114.313 87.152 114.313 84.2501V76.6815C114.313 73.7796 114.093 73.7718 113.293 73.7404L112.666 73.709V73.262H118.234V73.709L117.615 73.7404C116.807 73.7718 116.595 73.7796 116.595 76.6815V84.2501C116.595 87.152 116.815 87.1599 117.615 87.1912L118.242 87.2226V87.6697ZM114.266 87.2775H116.642C116.281 86.8932 116.203 86.0618 116.203 84.2501V76.6815C116.203 74.8698 116.273 74.0384 116.642 73.6541H114.266C114.626 74.0384 114.705 74.8698 114.705 76.6815V84.2501C114.705 86.0618 114.634 86.8932 114.266 87.2775Z" fill="#560A00"/>
<path d="M127.819 87.4736H122.642V87.4109L123.082 87.3873C124.101 87.3481 124.289 87.0971 124.289 84.2501V76.6816C124.289 73.8738 124.227 73.5443 123.309 73.5443H122.768C122.125 73.5443 120.666 73.6934 119.607 76.9325L119.38 77.6384H119.317V73.4581H131.152V77.6384H131.089L130.862 76.9325C129.803 73.6855 128.344 73.5443 127.701 73.5443H127.16C126.242 73.5443 126.18 73.8738 126.18 76.6816V84.2501C126.18 87.0971 126.368 87.3481 127.387 87.3873L127.827 87.4109V87.4736H127.819Z" fill="#560A00"/>
<path d="M128.015 87.6697H122.446V87.2226L123.066 87.1912C123.874 87.1599 124.085 87.152 124.085 84.2501V76.6815C124.085 73.8502 123.999 73.7404 123.301 73.7404H122.76C122.289 73.7404 120.846 73.7404 119.787 76.9953L119.513 77.8345H119.113V73.262H131.332V77.8345H130.932L130.658 76.9953C129.591 73.7404 128.156 73.7404 127.685 73.7404H127.144C126.454 73.7404 126.36 73.8502 126.36 76.6815V84.2501C126.36 87.152 126.579 87.1599 127.379 87.1912L128.007 87.2226V87.6697H128.015ZM124.038 87.2775H126.415C126.054 86.8932 125.975 86.0618 125.975 84.2501V76.6815C125.975 74.9639 125.975 74.0698 126.297 73.6541H124.148C124.47 74.0698 124.47 74.9639 124.47 76.6815V84.2501C124.47 86.0618 124.399 86.8932 124.03 87.2775H124.038ZM119.505 73.6541V76.6031C120.132 74.8306 120.885 74.0227 121.521 73.6541H119.505ZM128.932 73.6541C129.575 74.0227 130.328 74.8306 130.948 76.6031V73.6541H128.932Z" fill="#560A00"/>
<path d="M140.995 78.2423C141.599 77.3247 142.391 75.8894 142.391 74.9796C142.391 74.211 142.203 73.6071 141.23 73.5443L140.791 73.5208V73.458H145.324V73.5208L144.885 73.5443C144.093 73.5835 143.575 74.3757 141.081 78.2815L139.583 80.5874V84.2501C139.583 87.0971 139.771 87.3481 140.791 87.3873L141.23 87.4108V87.4736H136.054V87.4108L136.493 87.3873C137.513 87.3481 137.701 87.0971 137.701 84.2501V80.6501L135.285 76.9482C133.599 74.3521 133.246 73.5835 132.391 73.5365L132.015 73.5129V73.4502H137.152V73.5129L136.713 73.5365C135.364 73.6384 135.968 74.658 137.317 76.8462L139.544 80.4619L141.003 78.2345L140.995 78.2423Z" fill="#560A00"/>
<path d="M141.418 87.6697H135.85V87.2226L136.469 87.1913C137.277 87.1599 137.489 87.152 137.489 84.2501V80.7129L135.105 77.058C134.861 76.6816 134.65 76.3522 134.454 76.0463C133.332 74.2973 132.995 73.7639 132.367 73.7326L131.811 73.7012V73.2542H137.34V73.7012L136.72 73.7326C136.422 73.7561 136.234 73.8267 136.179 73.9443C135.991 74.3208 136.681 75.4424 137.481 76.7365L139.544 80.0933L140.83 78.1247C141.152 77.6384 142.195 75.9835 142.195 74.9718C142.195 74.2424 142.03 73.7875 141.214 73.7326L140.595 73.7012V73.2542H145.52V73.7012L144.901 73.7326C144.218 73.7718 143.685 74.5718 141.254 78.3835L139.787 80.6423V84.2423C139.787 87.1442 140.007 87.152 140.807 87.1834L141.434 87.2148V87.6618L141.418 87.6697ZM137.45 87.2775H139.826C139.465 86.8932 139.387 86.0619 139.387 84.2501L139.371 80.5717L137.144 76.9561C136.054 75.1992 135.544 74.3286 135.826 73.7796C135.85 73.7326 135.873 73.6934 135.905 73.662H133.191C133.614 74.0071 134.046 74.6816 134.791 75.8502C134.979 76.1482 135.199 76.4855 135.434 76.8541L137.881 80.6031V84.258C137.881 86.0697 137.81 86.9011 137.442 87.2854L137.45 87.2775ZM142.132 73.6541C142.524 73.9757 142.587 74.5012 142.587 74.9796C142.587 75.2306 142.532 75.5129 142.446 75.8031C143.222 74.6267 143.701 73.9835 144.108 73.6541H142.132Z" fill="#560A00"/>
<path d="M46.2746 64.6739L47.7883 60.721C48.0079 60.1641 48.1177 59.5602 48.1177 59.0582C48.1177 58.5563 48.0157 58.1798 47.4824 58.1484H47.2393V58.1014H49.553V58.1328H49.4275C48.9569 58.1877 48.7451 58.3524 47.8354 60.721L45.8511 65.8974H45.7256L43.3178 60.0151C42.6433 58.3759 42.5335 58.2033 42.0629 58.1484H41.9688V58.1014H44.6903V58.1328H44.3923C43.6628 58.1641 43.8668 58.6347 44.3923 59.9602L46.2589 64.6817L46.2746 64.6739Z" fill="#560A00"/>
<path d="M45.9215 65.9915H45.6627L43.2314 60.0465C42.5569 58.3994 42.4549 58.2896 42.0549 58.2347L41.8745 58.2112V57.9916H44.7921V58.219L44.4 58.2347C44.2117 58.2347 44.1019 58.2739 44.0549 58.3445C43.9372 58.5249 44.1412 59.0347 44.447 59.8112L46.2666 64.3993L47.6941 60.6818C47.898 60.1484 48.0156 59.5523 48.0156 59.0504C48.0156 58.4779 47.8744 58.2583 47.4666 58.2347L47.1372 58.219V57.9916H49.647V58.2112L49.4352 58.2269C49.0352 58.2661 48.8313 58.3759 47.9215 60.7445L45.9137 65.9836L45.9215 65.9915ZM42.4941 58.1955C42.7529 58.3994 42.9569 58.8622 43.4117 59.9759L45.7882 65.7876L46.1882 64.7366L44.2666 59.8896C43.898 58.972 43.7176 58.5092 43.8902 58.2426C43.9059 58.2269 43.9137 58.2112 43.9294 58.1955H42.4863H42.4941ZM47.9372 58.1955C48.1803 58.3837 48.2195 58.721 48.2195 59.0582C48.2195 59.2308 48.2039 59.4112 48.1803 59.5916C48.5333 58.7524 48.7607 58.3759 48.996 58.1955H47.9372Z" fill="#560A00"/>
<path d="M51.9055 64.015C51.9055 65.5758 52.0075 65.717 52.5643 65.7327H52.8074V65.7797H49.9683V65.7484H50.2114C50.7683 65.717 50.8702 65.5758 50.8702 64.015V59.8661C50.8702 58.3053 50.7683 58.1641 50.2114 58.1484H49.9683V58.1014H52.8074V58.1328H52.5643C52.0075 58.1641 51.9055 58.3053 51.9055 59.8661V64.015Z" fill="#560A00"/>
<path d="M52.9015 65.8817H49.8662V65.6542L50.1956 65.6385C50.6427 65.6228 50.7603 65.615 50.7603 64.015V59.866C50.7603 58.266 50.6427 58.2582 50.1956 58.2425L49.8662 58.2268V57.9994H52.9015V58.2268L52.5721 58.2425C52.125 58.2582 52.0074 58.266 52.0074 59.866V64.015C52.0074 65.615 52.125 65.6228 52.5721 65.6385L52.9015 65.6542V65.8817ZM50.7133 65.6856H52.0623C51.8505 65.4895 51.8113 65.0346 51.8113 64.015V59.866C51.8113 58.8543 51.8505 58.3994 52.0623 58.1955H50.7133C50.925 58.3915 50.9642 58.8464 50.9642 59.866V64.015C50.9642 65.0268 50.925 65.4817 50.7133 65.6856Z" fill="#560A00"/>
<path d="M60.6508 64.4699V60.8307C60.6508 59.8974 60.3293 58.1876 59.4665 58.1406H59.2234V58.0935H61.694V58.1249H61.5685C60.941 58.1955 60.6901 59.0739 60.6901 60.8229V65.8738H60.5332L54.5568 58.768V63.0346C54.5568 63.968 54.8784 65.6777 55.7411 65.7248H55.9842V65.7718H53.5137V65.7405H53.6392C54.2666 65.6699 54.5176 64.7915 54.5176 63.0425V59.8582C54.5176 58.2974 54.2744 58.1562 53.7176 58.1406H53.5137V58.0935H55.396L60.6508 64.4699Z" fill="#560A00"/>
<path d="M60.792 65.9836H60.4861L60.4547 65.9522L54.6509 59.0582V63.0503C54.6509 64.0699 54.996 65.6071 55.741 65.6464L56.0704 65.662V65.8895H53.4038V65.6699L53.6156 65.6464C54.1567 65.5993 54.4077 64.7758 54.4077 63.0503V59.866C54.4077 58.2739 54.1567 58.2582 53.7018 58.2425L53.4038 58.2268V57.9994H55.4273L55.4587 58.0386L60.541 64.2032V60.8386C60.541 59.819 60.1959 58.2817 59.4508 58.2425L59.1214 58.2268V57.9994H61.788V58.219L61.5763 58.2347C61.0351 58.2817 60.7841 59.1053 60.7841 60.8307V65.9758L60.792 65.9836ZM60.5802 65.7875H60.5959V64.564L55.3489 58.1955H54.2587C54.3528 58.2661 54.4234 58.3759 54.4783 58.5327L60.5802 65.7875ZM54.0313 65.6856H55.3254C54.9332 65.4111 54.6979 64.7836 54.5724 64.1405C54.494 64.9562 54.3214 65.4503 54.0313 65.6856ZM59.8822 58.1955C60.2743 58.47 60.5096 59.0974 60.6351 59.7405C60.7135 58.9249 60.8861 58.4308 61.1763 58.1955H59.8822Z" fill="#560A00"/>
<path d="M69.6777 64.015C69.6777 65.5758 69.7797 65.717 70.3366 65.7327H70.5797V65.7797H67.7405V65.7484H67.9836C68.5405 65.717 68.6425 65.5758 68.6425 64.015V61.8582H64.3445V64.015C64.3445 65.5758 64.4464 65.717 65.0033 65.7327H65.2464V65.7797H62.4072V65.7484H62.6504C63.2072 65.717 63.3092 65.5758 63.3092 64.015V59.8661C63.3092 58.3053 63.2072 58.1641 62.6504 58.1484H62.4072V58.1014H65.2464V58.1328H65.0033C64.4464 58.1641 64.3445 58.3053 64.3445 59.8661V61.819H68.6425V59.8661C68.6425 58.3053 68.5405 58.1641 67.9836 58.1484H67.7405V58.1014H70.5797V58.1328H70.3366C69.7797 58.1641 69.6777 58.3053 69.6777 59.8661V64.015Z" fill="#560A00"/>
<path d="M70.6738 65.8817H67.6385V65.6542L67.9679 65.6385C68.415 65.6228 68.5326 65.615 68.5326 64.015V61.9601H64.4307V64.015C64.4307 65.615 64.5484 65.6228 64.9954 65.6385L65.3248 65.6542V65.8817H62.2896V65.6542L62.619 65.6385C63.066 65.6228 63.1837 65.615 63.1837 64.015V59.866C63.1837 58.266 63.066 58.2582 62.619 58.2425L62.2896 58.2268V57.9994H65.3248V58.2268L64.9954 58.2425C64.5484 58.2582 64.4307 58.266 64.4307 59.866V61.717H68.5326V59.866C68.5326 58.266 68.415 58.2582 67.9679 58.2425L67.6385 58.2268V57.9994H70.6738V58.2268L70.3444 58.2425C69.8973 58.2582 69.7797 58.266 69.7797 59.866V64.015C69.7797 65.615 69.8973 65.6228 70.3444 65.6385L70.6738 65.6542V65.8817ZM68.4777 65.6856H69.8267C69.615 65.4895 69.5757 65.0346 69.5757 64.015V59.866C69.5757 58.8543 69.615 58.3994 69.8267 58.1955H68.4777C68.6895 58.3915 68.7287 58.8464 68.7287 59.866V64.015C68.7287 65.0268 68.6895 65.4817 68.4777 65.6856ZM63.1444 65.6856H64.4935C64.2817 65.4895 64.2425 65.0346 64.2425 64.015V59.866C64.2425 58.8543 64.2817 58.3994 64.4935 58.1955H63.1444C63.3562 58.3915 63.3954 58.8464 63.3954 59.866V64.015C63.3954 65.0268 63.3562 65.4817 63.1444 65.6856Z" fill="#560A00"/>
<path d="M75.1997 65.9287C72.7841 65.9287 71.4351 64.015 71.4351 61.9288C71.4351 59.8425 72.7841 57.9523 75.1997 57.9523C77.6154 57.9523 78.9644 59.8425 78.9644 61.9288C78.9644 64.015 77.6154 65.9287 75.1997 65.9287ZM75.1997 57.9915C73.239 57.9915 72.6115 59.8582 72.6115 61.9366C72.6115 64.015 73.239 65.8817 75.1997 65.8817C77.1605 65.8817 77.7879 64.015 77.7879 61.9366C77.7879 59.8582 77.1605 57.9915 75.1997 57.9915Z" fill="#560A00"/>
<path d="M75.1996 66.0228C72.6663 66.0228 71.3408 63.9601 71.3408 61.9209C71.3408 59.8817 72.6663 57.8425 75.1996 57.8425C77.7329 57.8425 79.0584 59.8896 79.0584 61.9209C79.0584 63.9523 77.7329 66.0228 75.1996 66.0228ZM75.1996 58.0935C73.0349 58.0935 72.7134 60.5013 72.7134 61.9366C72.7134 63.3719 73.0349 65.7797 75.1996 65.7797C77.3643 65.7797 77.6859 63.3719 77.6859 61.9366C77.6859 60.5013 77.3643 58.0935 75.1996 58.0935ZM76.58 58.2974C77.4349 58.8935 77.8898 60.1327 77.8898 61.9366C77.8898 63.7405 77.4349 64.9719 76.5878 65.5679C77.8349 65.0817 78.8701 63.8974 78.8701 61.9209C78.8701 59.9445 77.8349 58.7758 76.5878 58.2974H76.58ZM73.8192 58.2974C72.5722 58.7758 71.5369 59.9523 71.5369 61.9209C71.5369 63.8895 72.5643 65.0817 73.8192 65.5679C72.9722 64.9719 72.5173 63.7326 72.5173 61.9366C72.5173 60.1405 72.9722 58.8935 73.8271 58.2974H73.8192Z" fill="#560A00"/>
<path d="M80.8306 59.8661C80.8306 58.3053 80.5874 58.1641 80.0306 58.1484H79.8267V58.1014H81.7561L84.5403 62.5327L86.9952 58.1014H88.7834V58.1328H88.5403C87.9834 58.1641 87.8815 58.3053 87.8815 59.8661V64.015C87.8815 65.5758 87.9834 65.717 88.5403 65.7327H88.7834V65.7797H85.9442V65.7484H86.1874C86.7442 65.717 86.8462 65.5758 86.8462 64.015V58.4386L84.0776 63.4974H83.9286L80.8855 58.721V63.0425C80.8855 63.9758 81.207 65.6856 82.0698 65.7327H82.3129V65.7797H79.8423V65.7484H79.9678C80.5953 65.6778 80.8463 64.7994 80.8463 63.0504V59.8661H80.8306Z" fill="#560A00"/>
<path d="M88.8779 65.8817H85.8427V65.6542L86.1721 65.6386C86.6191 65.6229 86.7368 65.615 86.7368 64.015V58.823L84.1251 63.5994H83.8662L80.9721 59.0582V63.0425C80.9721 64.0621 81.3172 65.5993 82.0623 65.6386L82.3917 65.6542V65.8817H79.7251V65.6621L79.9369 65.6386C80.478 65.5915 80.729 64.768 80.729 63.0425V59.8582C80.729 58.2661 80.478 58.2504 80.0231 58.2347L79.7251 58.219V57.9916H81.8035L84.525 62.3288L86.925 57.9916H88.8701V58.219L88.5407 58.2347C88.0936 58.2504 87.976 58.2582 87.976 59.8582V64.0072C87.976 65.6072 88.0936 65.615 88.5407 65.6307L88.8701 65.6464V65.8738L88.8779 65.8817ZM86.6819 65.6856H88.0309C87.8191 65.4895 87.7799 65.0346 87.7799 64.015V59.8661C87.7799 58.8543 87.8191 58.3994 88.0309 58.1955H87.0427L86.9329 58.3916V64.015C86.9329 65.0268 86.8936 65.4817 86.6819 65.6856ZM80.3447 65.6856H81.6388C81.2466 65.4111 81.0114 64.7837 80.8859 64.1405C80.8074 64.9562 80.6349 65.4503 80.3447 65.6856ZM83.976 63.4033H84.0152L84.4623 62.5876L81.7094 58.1955H80.58C80.6663 58.2661 80.7369 58.3602 80.7839 58.4935V58.3916L83.976 63.4033Z" fill="#560A00"/>
<path d="M93.5525 63.1367L93.4819 62.8857C93.2231 61.9288 92.627 61.8582 92.0701 61.8582H91.4192V64.0151C91.4192 65.5523 91.4505 65.7327 91.9525 65.7327H92.8074C93.9211 65.7327 94.5642 65.5131 95.1368 63.7641L95.2623 63.3798H95.2936V65.7876H89.4819V65.7562H89.7251C90.2819 65.7249 90.3839 65.5837 90.3839 64.0229V59.8739C90.3839 58.3132 90.2819 58.172 89.7251 58.1563H89.4819V58.1093H95.0662V60.172H95.0348L94.9093 59.7877C94.4309 58.321 93.6231 58.1563 92.5799 58.1563H91.9525C91.4505 58.1563 91.4192 58.3367 91.4192 59.8739V61.8269H92.0701C92.627 61.8269 93.2231 61.7563 93.4819 60.7994L93.5525 60.5484H93.5839V63.1445H93.5525V63.1367Z" fill="#560A00"/>
<path d="M95.3955 65.8817H89.3877V65.6542L89.7171 65.6385C90.1642 65.6228 90.2818 65.615 90.2818 64.015V59.866C90.2818 58.266 90.1642 58.2582 89.7171 58.2425L89.3877 58.2268V57.9994H95.168V60.2582H94.9641L94.8151 59.8033C94.3445 58.3523 93.5602 58.2425 92.5798 58.2425H91.9524C91.5602 58.2425 91.5132 58.3053 91.5132 59.866V61.717H92.0622C92.619 61.717 93.1367 61.6464 93.3798 60.7601L93.4661 60.4386H93.67V63.2307H93.4661L93.3798 62.9091C93.1367 62.0307 92.619 61.9523 92.0622 61.9523H91.5132V64.0072C91.5132 65.5679 91.5602 65.6307 91.9524 65.6307H92.8073C93.8112 65.6307 94.4621 65.5052 95.0425 63.7248L95.1916 63.2699H95.3955V65.8738V65.8817ZM93.8739 65.6856H95.1994V63.8895C94.8386 64.9719 94.4386 65.466 93.8739 65.6856ZM90.2269 65.6856H91.5132C91.3328 65.4738 91.3249 64.9954 91.3249 64.015V59.866C91.3249 58.8856 91.3328 58.4072 91.5132 58.1955H90.2269C90.4387 58.3915 90.4779 58.8464 90.4779 59.866V64.015C90.4779 65.0268 90.4387 65.4817 90.2269 65.6856ZM92.7131 61.8346C93.019 61.9288 93.3014 62.1405 93.4896 62.5876V61.0739C93.3014 61.5288 93.0269 61.7327 92.7131 61.8268V61.8346ZM93.7249 58.1955C94.2269 58.3759 94.6661 58.7837 94.9719 59.6464V58.1955H93.7249Z" fill="#560A00"/>
<path d="M99.6856 65.9287C99.1758 65.9287 98.6817 65.8267 98.1562 65.4816C97.9837 65.364 97.8817 65.309 97.7327 65.309C97.4817 65.309 97.2229 65.56 96.9327 65.9287H96.9092V63.3718H96.9406L97.0739 63.7953C97.3719 64.6973 98.0856 65.8816 99.6621 65.8816C100.674 65.8816 101.442 65.4267 101.442 64.3757C101.442 62.062 97.2229 62.5326 97.2229 59.9601C97.2229 58.7523 98.2268 57.9444 99.466 57.9444C99.9444 57.9444 100.368 58.0699 100.768 58.3287C100.917 58.4307 101.027 58.4856 101.144 58.4856C101.341 58.4856 101.576 58.2581 101.842 57.9366H101.866V60.1483H101.835L101.709 59.7483C101.364 58.5954 100.454 57.9836 99.5052 57.9836C98.5562 57.9836 98.0229 58.4699 98.0229 59.2385C98.0229 61.5993 102.297 61.1287 102.297 63.8189C102.297 65.0738 101.184 65.913 99.6778 65.913L99.6856 65.9287Z" fill="#560A00"/>
<path d="M99.6855 66.0228C99.0816 66.0228 98.5953 65.8817 98.1012 65.5601C97.9287 65.4424 97.8503 65.4032 97.7326 65.4032C97.4895 65.4032 97.2071 65.7326 97.011 65.9836L96.9797 66.0228H96.8307L96.8071 65.9287V63.2778H97.011L97.1679 63.764C97.4189 64.517 98.0699 65.7797 99.662 65.7797C100.729 65.7797 101.34 65.2699 101.34 64.3758C101.34 63.3091 100.384 62.8621 99.3718 62.3915C98.2659 61.8738 97.1287 61.3405 97.1287 59.968C97.1287 58.7445 98.1169 57.8504 99.4738 57.8504C99.9679 57.8504 100.415 57.9837 100.831 58.2504C100.98 58.3523 101.074 58.3915 101.152 58.3915C101.348 58.3915 101.67 58.0072 101.772 57.8817L101.803 57.8425H101.944L101.968 57.9366V60.2425H101.764L101.615 59.7719C101.309 58.7366 100.478 58.07 99.5051 58.07C98.6346 58.07 98.1248 58.5013 98.1248 59.2229C98.1248 60.3052 99.0816 60.7601 100.101 61.2542C101.231 61.7954 102.399 62.3601 102.399 63.8111C102.399 65.1052 101.278 66.0071 99.6777 66.0071L99.6855 66.0228ZM97.011 63.8895V65.6856C97.2307 65.4346 97.4738 65.215 97.7326 65.215C97.7561 65.215 97.7797 65.215 97.7954 65.215C97.3875 64.7993 97.1444 64.2817 97.0032 63.8817L97.011 63.8895ZM98.2502 58.3602C97.6777 58.6974 97.3248 59.27 97.3248 59.968C97.3248 61.2229 98.4071 61.7248 99.4581 62.2189C100.486 62.6974 101.544 63.1915 101.544 64.3836C101.544 64.8699 101.387 65.2621 101.089 65.5366C101.78 65.1993 102.203 64.5876 102.203 63.8346C102.203 62.5091 101.089 61.9758 100.015 61.4582C98.9875 60.9641 97.9287 60.4543 97.9287 59.2543C97.9287 58.8935 98.0385 58.5955 98.2502 58.368V58.3602ZM101.152 58.5955C101.427 58.87 101.638 59.2229 101.78 59.6307V58.1876C101.521 58.47 101.333 58.5955 101.16 58.5955H101.152Z" fill="#560A00"/>
<path d="M37.9844 61.466H1.1377V61.8582H37.9844V61.466Z" fill="#560A00"/>
<path d="M144.187 61.466H107.341V61.8582H144.187V61.466Z" fill="#560A00"/>
<path d="M82.0466 10.6979V10.9646L83.2152 11.0195C85.8348 11.1842 86.3289 12.9646 86.3289 15.4743C86.3289 17.9841 85.725 19.8037 84.9486 22.6429L84.6348 23.7801L82.329 32.0781L79.9447 40.6662L74.2114 23.6782L70.9801 33.6232L68.7997 40.329L63.937 23.3174L62.9488 19.8586C61.0586 13.2391 60.7214 11.1763 64.1174 11.0116L65.286 10.9567V10.6901H41.8745V10.9567L42.3216 11.0116C44.6039 11.2861 45.3255 12.1802 47.6078 20.1409L55.7881 48.972H56.5096L61.6782 33.1055L66.1801 48.972H66.9017L72.1801 32.7683L77.7173 48.972H78.4388L82.7996 33.4349L88.1093 48.972H88.8309L95.9524 23.5919C99.2935 11.6783 100.846 11.1842 102.854 11.0116L103.466 10.9567V10.6901H82.0545L82.0466 10.6979ZM58.4077 40.3368L52.5568 19.8664C50.7921 13.6783 50.3685 11.0744 53.1058 11.0744C55.1057 11.0744 55.8508 12.6665 57.992 20.1409L61.2468 31.5996L58.4077 40.329V40.3368ZM95.3484 22.6429L90.3367 40.6741L85.1133 25.184L85.5603 23.5997C88.9014 11.6861 90.423 11.0195 92.4622 11.0195H93.6151C96.2112 11.0195 96.7288 12.9646 96.7288 15.4743C96.7288 17.9841 96.1249 19.8037 95.3484 22.6429Z" fill="#560A00"/>
<path d="M74.1723 0C74.1723 5.90582 71.3175 10.6901 67.7881 10.6901V10.9489C71.3175 10.9489 74.1723 15.7332 74.1723 21.639H74.4312C74.4312 15.7332 77.286 10.9489 80.8154 10.9489V10.6901C77.286 10.6901 74.4312 5.90582 74.4312 0H74.1723Z" fill="#560A00"/>
<path d="M29.6782 99.2695V98.6029H32.3056V99.2695H29.6782ZM30.141 101.803V96.0696H31.937C31.9919 96.0696 32.086 96.0696 32.2351 96.0696C32.3762 96.0696 32.5174 96.0853 32.6507 96.101C33.0978 96.1559 33.4743 96.3206 33.7801 96.5794C34.086 96.846 34.3213 97.1833 34.4782 97.5911C34.635 97.999 34.7135 98.446 34.7135 98.9323C34.7135 99.4186 34.635 99.8656 34.4782 100.273C34.3213 100.681 34.0939 101.019 33.7801 101.277C33.4743 101.544 33.0978 101.701 32.6507 101.756C32.5174 101.771 32.3762 101.787 32.2351 101.787C32.0939 101.787 31.9919 101.787 31.937 101.787H30.141V101.803ZM30.9959 101.011H31.937C32.0311 101.011 32.1331 101.011 32.2586 101.003C32.3841 101.003 32.4939 100.987 32.588 100.971C32.8782 100.917 33.1135 100.791 33.3017 100.595C33.4899 100.399 33.6154 100.156 33.7017 99.8656C33.788 99.5754 33.8272 99.2695 33.8272 98.9401C33.8272 98.6107 33.7801 98.2892 33.6939 97.999C33.6076 97.7088 33.4743 97.4656 33.286 97.2774C33.1056 97.0813 32.8703 96.9559 32.5802 96.9088C32.486 96.8931 32.3762 96.8774 32.2507 96.8774C32.1253 96.8774 32.0155 96.8774 31.9292 96.8774H30.988V101.026L30.9959 101.011Z" fill="#560A00"/>
<path d="M35.0825 101.803L36.9492 96.0696H38.1492L40.008 101.803H39.1452L37.4276 96.5715H37.6394L35.9453 101.803H35.0825ZM36.0551 100.509V99.7323H39.0511V100.509H36.0551Z" fill="#560A00"/>
<path d="M40.7217 101.803V96.0696H41.5687L44.3922 100.328V96.0696H45.2393V101.803H44.3922L41.5687 97.5362V101.803H40.7217Z" fill="#560A00"/>
<path d="M47.9365 101.803V96.0696H50.2502C50.3051 96.0696 50.3757 96.0696 50.4541 96.0696C50.5326 96.0696 50.611 96.0853 50.6894 96.0931C51.011 96.1402 51.2777 96.25 51.4894 96.4225C51.7012 96.5872 51.8659 96.799 51.9679 97.0578C52.0777 97.3088 52.1247 97.5911 52.1247 97.9049C52.1247 98.2186 52.0698 98.5009 51.9679 98.7519C51.8581 99.0029 51.7012 99.2146 51.4894 99.3872C51.2777 99.5597 51.011 99.6617 50.6894 99.7166C50.6188 99.7244 50.5326 99.7323 50.4541 99.7401C50.3757 99.748 50.3051 99.7401 50.2502 99.7401H48.7679V101.795H47.9365V101.803ZM48.7757 98.9558H50.2267C50.2816 98.9558 50.3365 98.9558 50.4071 98.948C50.4777 98.9401 50.5326 98.9323 50.5953 98.9166C50.7679 98.8774 50.9012 98.8068 51.0032 98.697C51.1051 98.5872 51.1835 98.4617 51.2228 98.3284C51.2698 98.1872 51.2934 98.046 51.2934 97.9049C51.2934 97.7637 51.2698 97.6225 51.2228 97.4813C51.1757 97.3402 51.1051 97.2147 51.0032 97.1127C50.9012 97.0107 50.76 96.9323 50.5953 96.8931C50.5404 96.8774 50.4777 96.8696 50.4071 96.8617C50.3365 96.8539 50.2816 96.8539 50.2267 96.8539H48.7757V98.9558Z" fill="#560A00"/>
<path d="M52.9326 101.803V96.0696H53.764V98.5401H56.6267V96.0696H57.4659V101.803H56.6267V99.3245H53.764V101.803H52.9326Z" fill="#560A00"/>
<path d="M60.8624 101.921C60.4153 101.921 60.0154 101.826 59.6781 101.646C59.333 101.458 59.0663 101.207 58.8703 100.87C58.6742 100.54 58.5801 100.148 58.5801 99.6931V96.0774H59.4271V99.6539C59.4271 99.897 59.4663 100.117 59.5526 100.297C59.631 100.485 59.7487 100.634 59.882 100.76C60.0232 100.885 60.1722 100.979 60.3448 101.042C60.5173 101.105 60.6899 101.136 60.8702 101.136C61.0506 101.136 61.2232 101.105 61.3957 101.042C61.5683 100.979 61.7251 100.885 61.8585 100.76C61.9996 100.634 62.1095 100.477 62.1879 100.297C62.2663 100.109 62.3134 99.897 62.3134 99.6539V96.0774H63.1604V99.7009C63.1604 100.148 63.0663 100.54 62.8702 100.877C62.6742 101.215 62.4075 101.473 62.0624 101.654C61.7173 101.834 61.3251 101.928 60.8781 101.928L60.8624 101.921ZM63.4036 95.3637H64.0545C64.0937 95.6225 64.0781 95.85 64.0153 96.0225C63.9526 96.1951 63.8428 96.3362 63.6859 96.4382C63.5369 96.5245 63.3722 96.5715 63.1839 96.5715C62.9957 96.5715 62.8232 96.5715 62.6585 96.548V96.0774C62.7134 96.0774 62.7761 96.0774 62.831 96.0774C62.8859 96.0774 62.9408 96.0774 63.0036 96.0617C63.1996 96.0225 63.3173 95.9362 63.3565 95.8029C63.3957 95.6696 63.4114 95.5206 63.4036 95.3715V95.3637Z" fill="#560A00"/>
<path d="M66.658 101.921C66.0855 101.921 65.5992 101.795 65.1914 101.544C64.7835 101.293 64.4777 100.94 64.2659 100.493C64.0541 100.046 63.9443 99.5205 63.9443 98.9323C63.9443 98.3441 64.0541 97.8186 64.2659 97.3715C64.4777 96.9245 64.7914 96.5715 65.1914 96.3206C65.5914 96.0696 66.0855 95.9441 66.658 95.9441C67.2306 95.9441 67.7168 96.0696 68.1168 96.3206C68.5247 96.5715 68.8306 96.9245 69.0423 97.3715C69.2541 97.8186 69.3639 98.3441 69.3639 98.9323C69.3639 99.5205 69.2541 100.046 69.0423 100.493C68.8306 100.94 68.5247 101.293 68.1168 101.544C67.709 101.795 67.2227 101.921 66.658 101.921ZM66.658 101.128C67.0659 101.128 67.4031 101.042 67.6698 100.862C67.9364 100.673 68.1404 100.422 68.2737 100.093C68.407 99.7637 68.4776 99.3793 68.4776 98.9401C68.4776 98.5009 68.407 98.1166 68.2737 97.795C68.1404 97.4656 67.9364 97.2147 67.6698 97.0264C67.4031 96.846 67.0659 96.7519 66.658 96.7441C66.2502 96.7441 65.9129 96.8304 65.6463 97.0107C65.3796 97.1911 65.1757 97.45 65.0424 97.7794C64.909 98.1088 64.8384 98.4931 64.8384 98.9323C64.8384 99.3715 64.9012 99.7558 65.0345 100.077C65.1679 100.407 65.3718 100.658 65.6463 100.846C65.9208 101.026 66.258 101.121 66.6659 101.128H66.658ZM66.2737 103.348V102.54H67.1521V103.348H66.2737ZM68.2031 95.3637H68.8541C68.8855 95.6225 68.8776 95.85 68.8227 96.0382C68.7678 96.2264 68.6502 96.3598 68.4855 96.4539C68.3364 96.5323 68.1561 96.5715 67.9443 96.5637C67.7325 96.5637 67.5443 96.5088 67.3796 96.4068V96.0382C67.5051 96.0696 67.607 96.0931 67.7012 96.0931C67.7874 96.0931 67.8659 96.0931 67.9443 96.0539C68.0855 95.9911 68.1639 95.8892 68.1796 95.7637C68.2031 95.6382 68.211 95.5049 68.2031 95.3637Z" fill="#560A00"/>
<path d="M70.1558 101.803V96.0696H71.0028L73.8263 100.328V96.0696H74.6734V101.803H73.8263L71.0028 97.5362V101.803H70.1558Z" fill="#560A00"/>
<path d="M78.1246 101.921C77.7403 101.921 77.3874 101.85 77.058 101.717C76.7364 101.583 76.4541 101.387 76.2109 101.128C75.9678 100.87 75.7874 100.556 75.6541 100.187C75.5208 99.8186 75.458 99.4029 75.458 98.9323C75.458 98.3127 75.5678 97.7794 75.7953 97.3402C76.0227 96.8931 76.3364 96.5559 76.7364 96.3127C77.1364 96.0696 77.5992 95.952 78.1246 95.952C78.7991 95.952 79.3403 96.1088 79.7403 96.4225C80.1403 96.7363 80.4148 97.1676 80.5638 97.7167L79.7168 97.8657C79.5991 97.5206 79.4109 97.2539 79.1521 97.0421C78.8933 96.8382 78.5639 96.7363 78.1717 96.7284C77.7639 96.7284 77.4266 96.8147 77.1599 97.0029C76.8933 97.1833 76.6894 97.4421 76.556 97.7715C76.4227 98.101 76.3521 98.4853 76.3521 98.9245C76.3521 99.3637 76.4149 99.748 76.5482 100.07C76.6815 100.399 76.8854 100.65 77.1599 100.838C77.4345 101.019 77.7717 101.113 78.1795 101.121C78.509 101.121 78.7835 101.066 79.0188 100.94C79.254 100.815 79.4423 100.626 79.5756 100.383C79.7168 100.14 79.8031 99.8421 79.8423 99.4813H78.7286V98.8147H80.7285C80.7285 98.8617 80.7364 98.9245 80.7364 99.0029C80.7364 99.0813 80.7364 99.1284 80.7364 99.1519C80.7364 99.6853 80.6344 100.156 80.4305 100.572C80.2266 100.987 79.9286 101.317 79.5364 101.552C79.1442 101.787 78.6737 101.905 78.1168 101.905L78.1246 101.921Z" fill="#560A00"/>
<path d="M85.3246 100.36C85.1206 100.36 84.9402 100.313 84.7755 100.219C84.6108 100.124 84.4853 99.999 84.3834 99.8421C84.2893 99.6852 84.2344 99.497 84.2344 99.3009C84.2344 99.1049 84.2814 98.9166 84.3834 98.7519C84.4775 98.5872 84.6108 98.4617 84.7755 98.3755C84.9402 98.2813 85.1206 98.2421 85.3246 98.2421C85.5128 98.2421 85.6853 98.2892 85.8422 98.3833C85.9991 98.4774 86.1245 98.6029 86.2187 98.7598C86.3128 98.9166 86.3598 99.1049 86.3598 99.3009C86.3598 99.497 86.3128 99.6852 86.2187 99.8421C86.1245 99.999 85.9991 100.132 85.8422 100.219C85.6853 100.313 85.5128 100.36 85.3246 100.36Z" fill="#560A00"/>
<path d="M90.187 101.803V96.0696H91.0184V98.5401H93.8811V96.0696H94.7203V101.803H93.8811V99.3245H91.0184V101.803H90.187Z" fill="#560A00"/>
<path d="M100.36 101.803H99.4968L97.7948 96.5715H98.0144L96.2968 101.803H95.4341L97.3007 96.0696H98.5007L100.36 101.803ZM99.3948 100.509H96.3988V99.7323H99.3948V100.509ZM97.489 95.4343L96.9243 94.0382H97.5752L98.1399 95.4343H97.489Z" fill="#560A00"/>
<path d="M102.666 101.803V96.0696H103.513L106.336 100.328V96.0696H107.183V101.803H106.336L103.513 97.5362V101.803H102.666Z" fill="#560A00"/>
<path d="M110.681 101.92C110.109 101.92 109.623 101.795 109.215 101.544C108.815 101.293 108.501 100.94 108.289 100.493C108.078 100.046 107.968 99.5205 107.968 98.9323C107.968 98.3441 108.078 97.8186 108.289 97.3715C108.501 96.9245 108.815 96.5715 109.215 96.3205C109.615 96.0696 110.109 95.9441 110.681 95.9441C111.254 95.9441 111.74 96.0696 112.148 96.3205C112.556 96.5715 112.862 96.9245 113.074 97.3715C113.285 97.8186 113.395 98.3441 113.395 98.9323C113.395 99.5205 113.285 100.046 113.074 100.493C112.862 100.94 112.556 101.293 112.148 101.544C111.74 101.795 111.254 101.92 110.681 101.92ZM110.681 101.128C111.089 101.128 111.427 101.042 111.693 100.862C111.96 100.673 112.164 100.422 112.297 100.093C112.43 99.7636 112.501 99.3793 112.501 98.9401C112.501 98.5009 112.43 98.1166 112.297 97.795C112.164 97.4656 111.96 97.2146 111.693 97.0264C111.427 96.846 111.089 96.7519 110.681 96.7441C110.274 96.7441 109.936 96.8303 109.67 97.0107C109.403 97.1911 109.199 97.4499 109.066 97.7794C108.932 98.1088 108.862 98.4931 108.862 98.9323C108.862 99.3715 108.925 99.7558 109.058 100.077C109.191 100.407 109.395 100.658 109.67 100.846C109.944 101.026 110.281 101.12 110.689 101.128H110.681ZM109.285 95.4343L110.313 94.2421H111.027L112.054 95.4343H111.254L110.658 94.7284L110.062 95.4343H109.262H109.285ZM110.242 103.348V102.54H111.121V103.348H110.242Z" fill="#560A00"/>
<path d="M114.266 101.803V96.0696H115.097V101.803H114.266Z" fill="#560A00"/>
</svg>
