<svg width="164" height="60" viewBox="0 0 164 60" fill="none" xmlns="http://www.w3.org/2000/svg">
<path d="M77.2539 26.4454C77.2539 22.0533 80.7598 18.5082 85.1284 18.5082C88.3676 18.5082 90.9636 20.4141 92.1557 23.2768L89.9362 23.8494C89.097 21.92 87.3009 20.6808 85.1205 20.6808C81.9049 20.6808 79.552 23.2533 79.552 26.4454C79.552 29.6375 81.9049 32.163 85.1205 32.163C87.7401 32.163 89.7558 30.4297 90.2891 27.7474L85.1205 27.7709L85.097 25.818H92.5244V26.618C92.5244 31.0336 89.442 34.3591 85.1205 34.3591C80.799 34.3591 77.2461 30.7905 77.2461 26.4454H77.2539Z" fill="#525DA0"/>
<path d="M94.6104 18.6651H96.8927V32.061H104.791V34.1865H94.6104V18.6651Z" fill="#525DA0"/>
<path d="M105.324 26.4454C105.324 22.0533 108.806 18.5082 113.175 18.5082C117.543 18.5082 121.002 22.0376 121.026 26.4454C121.026 30.814 117.543 34.3591 113.175 34.3591C108.806 34.3591 105.324 30.7905 105.324 26.4454ZM118.712 26.4454C118.712 23.2533 116.335 20.6337 113.167 20.6337C109.998 20.6337 107.598 23.2533 107.598 26.4454C107.598 29.6375 109.951 32.2101 113.167 32.2101C116.382 32.2101 118.712 29.614 118.712 26.4454Z" fill="#525DA0"/>
<path d="M123.081 18.6651H129.951C132.877 18.6651 134.633 20.3514 134.633 22.6807C134.633 24.3199 133.794 25.6297 132.437 26.2258C134.257 26.8454 135.206 28.2022 135.206 29.9983C135.206 32.5002 133.386 34.1865 130.304 34.1865H123.073V18.6651H123.081ZM129.802 25.4258C131.402 25.4258 132.437 24.4533 132.437 23.0337C132.437 21.6141 131.481 20.7278 129.888 20.7278H125.3V25.4258H129.802ZM130.155 32.1238C131.841 32.1238 132.884 31.1905 132.884 29.6611C132.884 28.1317 131.669 27.2846 130.092 27.2846H125.3V32.1159H130.155V32.1238Z" fill="#525DA0"/>
<path d="M141.865 18.6651H145.637L151.182 34.1865H148.79L147.504 30.6414H139.92L138.61 34.1865H136.218L141.873 18.6651H141.865ZM146.806 28.5552L143.747 19.7945L140.618 28.5552H146.806Z" fill="#525DA0"/>
<path d="M153.033 18.6651H155.316V32.061H163.213V34.1865H153.033V18.6651Z" fill="#525DA0"/>
<path d="M77.2539 46.3982C77.2539 42.0061 80.7598 38.461 85.1284 38.461C88.3676 38.461 90.9636 40.3669 92.1557 43.2296L89.9362 43.81C89.097 41.8806 87.3009 40.6414 85.1205 40.6414C81.9049 40.6414 79.552 43.2139 79.552 46.406C79.552 49.5981 81.9049 52.1236 85.1205 52.1236C87.7401 52.1236 89.7558 50.3903 90.2891 47.708L85.1205 47.7315L85.097 45.7786H92.5244V46.5786C92.5244 50.9942 89.442 54.3196 85.1205 54.3196C80.799 54.3196 77.2461 50.7511 77.2461 46.406L77.2539 46.3982Z" fill="#525DA0"/>
<path d="M99.0025 38.6179H102.775L108.32 54.1393H105.928L104.642 50.5942H97.0574L95.7476 54.1393H93.3555L99.0103 38.6179H99.0025ZM103.944 48.5079L100.885 39.7473L97.7554 48.5079H103.944Z" fill="#525DA0"/>
<path d="M113.395 40.7433H108.226V38.6179H120.665V40.7433H115.677V54.1393H113.395V40.7433Z" fill="#525DA0"/>
<path d="M123.104 38.6178H134.061V40.7433H125.395V45.3315H133.175V47.4177H125.395V52.0059H134.061V54.1314H123.104V38.61V38.6178Z" fill="#525DA0"/>
<path d="M77.4971 7.84174H78.1637L80.1637 13.4495L82.1951 7.84174H82.846L80.697 13.6927H79.6382L77.4971 7.84174Z" fill="#525DA0"/>
<path d="M85.6934 7.84174H86.2973V13.6927H85.6934V7.84174Z" fill="#525DA0"/>
<path d="M89.458 7.84174H90.6109L93.6697 13.426V7.84174H94.2658V13.6927H93.1286L90.0462 8.06134V13.6927H89.458V7.84174Z" fill="#525DA0"/>
<path d="M97.4185 7.84174H98.0224V10.4927H101.505V7.84174H102.109V13.6927H101.505V11.0417H98.0224V13.6927H97.4185V7.84174Z" fill="#525DA0"/>
<path d="M105.065 10.7672C105.065 9.12018 106.352 7.77118 107.999 7.77118C109.646 7.77118 110.932 9.09665 110.932 10.7672C110.94 12.4143 109.646 13.7476 107.999 13.7476C106.352 13.7476 105.065 12.4064 105.065 10.7672ZM110.328 10.7672C110.328 9.44175 109.332 8.34372 107.999 8.34372C106.665 8.34372 105.669 9.43391 105.669 10.7672C105.669 12.1005 106.65 13.1829 107.999 13.1829C109.348 13.1829 110.328 12.1084 110.328 10.7672Z" fill="#525DA0"/>
<path d="M113.85 7.84174H114.963L116.987 13.4809L119.01 7.84174H120.132V13.6927H119.544V8.09271L117.536 13.6927H116.422L114.43 8.11624V13.6927H113.842V7.84174H113.85Z" fill="#525DA0"/>
<path d="M123.23 7.84171H127.301V8.39856H123.834V10.4848H126.972V11.026H123.834V13.1279H127.301V13.6848H123.23V7.83386V7.84171Z" fill="#525DA0"/>
<path d="M130.273 12.8221V12.1633C130.979 12.8221 131.779 13.1908 132.587 13.1908C133.395 13.1908 134.1 12.8614 134.1 12.1712C134.1 11.5829 133.614 11.2535 132.359 10.9555C130.971 10.6496 130.25 10.2653 130.25 9.39472C130.25 8.32807 131.371 7.76337 132.43 7.76337C133.434 7.76337 134.132 8.17121 134.54 8.49277V9.15943C133.998 8.681 133.23 8.32022 132.43 8.32022C131.685 8.32022 130.846 8.67316 130.846 9.37903C130.846 10.0457 131.677 10.2496 132.704 10.4849C134.218 10.83 134.689 11.3869 134.697 12.1476C134.704 13.2535 133.638 13.7633 132.555 13.7555C131.638 13.7476 130.9 13.3947 130.273 12.8221Z" fill="#525DA0"/>
<path d="M8.72147 29.9355C8.72147 22.3434 11.9607 15.5043 17.1214 10.7278C17.3175 10.5474 17.4351 10.2886 17.4351 10.0141V0.367166C17.4351 0.0848162 17.1292 -0.0877321 16.8861 0.0534429C6.76855 6.15534 0 17.2533 0 29.9355C0 42.6177 6.76855 53.7156 16.8861 59.8175C17.1292 59.9665 17.4351 59.7861 17.4351 59.5038V49.8568C17.4351 49.5823 17.3175 49.3313 17.1214 49.1431C11.9528 44.3667 8.72147 37.5275 8.72147 29.9355Z" fill="#525DA0"/>
<path d="M69.7403 29.9356C69.7403 17.2534 62.9717 6.15545 52.8542 0.0535591C52.6111 -0.0954589 52.3052 0.0849325 52.3052 0.367282V10.0142C52.3052 10.2887 52.4228 10.5397 52.6189 10.728C57.7875 15.5044 61.0188 22.3435 61.0188 29.9356C61.0188 37.5277 57.7796 44.3668 52.6189 49.1432C52.4228 49.3236 52.3052 49.5824 52.3052 49.8569V59.5039C52.3052 59.7862 52.6111 59.9588 52.8542 59.8176C62.9717 53.7157 69.7403 42.6178 69.7403 29.9356Z" fill="#525DA0"/>
<path d="M26.1565 14.4221V5.78693C26.1565 5.53595 25.9055 5.35556 25.6702 5.44183C22.7526 6.53986 20.086 8.13984 17.7723 10.1477C17.5605 10.3281 17.4429 10.6026 17.4429 10.8771V26.4926C17.4429 26.4926 17.4429 26.5867 17.5135 26.6338C17.5762 26.6808 17.6625 26.6573 17.7174 26.6181C17.7723 26.5789 17.788 26.5161 17.788 26.5004C18.086 25.0259 18.7997 22.4456 20.7056 19.7789C22.4624 17.3241 24.4859 15.8417 25.8193 15.0339C26.0389 14.9005 26.1644 14.6653 26.1644 14.4143L26.1565 14.4221Z" fill="#C75A95"/>
<path d="M43.5913 14.4221V5.78693C43.5913 5.53595 43.8423 5.35556 44.0776 5.44183C46.9952 6.53986 49.6618 8.13984 51.9755 10.1477C52.1873 10.3281 52.305 10.6026 52.305 10.8771V26.4926C52.305 26.4926 52.305 26.5867 52.2344 26.6338C52.1716 26.6808 52.0854 26.6573 52.0305 26.6181C51.9756 26.5789 51.9599 26.5161 51.9599 26.5004C51.6618 25.0259 50.9481 22.4456 49.0423 19.7789C47.2854 17.3241 45.2619 15.8417 43.9286 15.0339C43.709 14.9005 43.5835 14.6653 43.5835 14.4143L43.5913 14.4221Z" fill="#C75A95"/>
<path d="M43.5913 45.4413V54.0766C43.5913 54.3275 43.8423 54.5079 44.0776 54.4216C46.9952 53.3236 49.6618 51.7236 51.9755 49.7158C52.1873 49.5354 52.305 49.2609 52.305 48.9864V33.3709C52.305 33.3709 52.305 33.2768 52.2344 33.2297C52.1716 33.1827 52.0854 33.2062 52.0305 33.2454C51.9756 33.2846 51.9599 33.3474 51.9599 33.3631C51.6618 34.8375 50.9481 37.4179 49.0423 40.0846C47.2854 42.5394 45.2619 44.0218 43.9286 44.8296C43.709 44.9629 43.5835 45.1982 43.5835 45.4492L43.5913 45.4413Z" fill="#C75A95"/>
<path d="M26.1565 45.4413V54.0766C26.1565 54.3275 25.9055 54.5079 25.6702 54.4216C22.7526 53.3236 20.086 51.7236 17.7723 49.7158C17.5605 49.5354 17.4429 49.2609 17.4429 48.9864V33.3709C17.4429 33.3709 17.4429 33.2768 17.5135 33.2297C17.5762 33.1827 17.6625 33.2062 17.7174 33.2454C17.7723 33.2846 17.788 33.3474 17.788 33.3631C18.086 34.8375 18.7997 37.4179 20.7056 40.0846C22.4624 42.5394 24.4859 44.0218 25.8193 44.8296C26.0389 44.9629 26.1644 45.1982 26.1644 45.4492L26.1565 45.4413Z" fill="#C75A95"/>
<path d="M43.2154 14.6259C40.737 13.2691 37.8899 12.4926 34.8704 12.4926C31.8508 12.4926 29.0038 13.2691 26.5254 14.6259C26.2979 14.7514 26.1567 14.9945 26.1567 15.2612V27.5905C26.1567 27.6532 26.1881 27.7081 26.2352 27.7395C26.3058 27.7787 26.3842 27.7395 26.3842 27.7317C26.4391 27.6924 26.4548 27.6297 26.4626 27.6219C26.6665 26.8925 27.3567 24.7435 29.49 23.0807C31.741 21.316 34.141 21.2219 34.8704 21.2219C35.6076 21.2219 38.0076 21.316 40.2507 23.0807C42.3762 24.7513 43.0742 26.9003 43.2781 27.6219C43.2781 27.6297 43.3016 27.6924 43.3565 27.7317C43.3565 27.7317 43.435 27.7787 43.5056 27.7395C43.5605 27.716 43.5918 27.6532 43.584 27.5905V15.2612C43.584 14.9945 43.4428 14.7514 43.2154 14.6259Z" fill="#E3803A"/>
<path d="M43.5916 32.5865C43.5916 32.3983 43.4818 32.2414 43.3249 32.163C43.2621 32.1316 43.1916 32.1081 43.1131 32.1081H37.5289C37.2622 32.1081 37.0505 32.3199 37.0505 32.5865V38.3669C36.0544 38.6257 35.2466 38.6492 34.8701 38.6492C34.1328 38.6492 31.7329 38.5551 29.4898 36.7904C27.3643 35.1198 26.6663 32.9708 26.4623 32.2493C26.4623 32.2414 26.4388 32.1787 26.3839 32.1395C26.3839 32.1395 26.3055 32.0924 26.2349 32.1316C26.18 32.1552 26.1486 32.2179 26.1565 32.2806V44.6099C26.1565 44.8766 26.2976 45.1197 26.5251 45.2452C29.0035 46.602 31.8505 47.3785 34.8701 47.3785C37.8897 47.3785 40.7367 46.602 43.2151 45.2452C43.4426 45.1197 43.5837 44.8766 43.5837 44.6099V40.8374V32.5944L43.5916 32.5865Z" fill="#E3803A"/>
</svg>
