<svg width="54" height="152" viewBox="0 0 54 152" fill="none" xmlns="http://www.w3.org/2000/svg">
<path fill-rule="evenodd" clip-rule="evenodd" d="M13.2154 124.022H6.92529V70.8306H13.2154V104.611H9.05858V121.889H13.2154V124.022ZM33.827 31.0193V52.2896H31.6937V29.2703L33.827 31.0193ZM21.5369 25.184V52.2896H19.4036V26.4311L21.5369 25.184ZM25.6937 14.7057V0H27.5368V14.7057H29.6701V92.1715L29.4349 92.8382L27.9839 94.6343L29.4427 96.4695L29.678 97.1362V117.63H27.5447V97.5127L25.7016 95.1911V117.63H23.5682V14.7057H25.7016H25.6937ZM44.1641 100.454V72.9718H42.1406V102.477H46.2974V124.022H40.0073V121.889H42.1406H44.1641V104.611H40.0073V70.8306H46.2974V100.454H44.1641ZM9.05858 72.9718V102.477H11.0821V72.9718H9.05858ZM17.3722 102.477H19.3957V56.1406H17.3722V102.477ZM19.3957 104.611H17.3722V121.889H15.2389V53.9994H21.5291V119.748H19.3957V104.603V104.611ZM35.8505 121.889V56.1406H33.827V119.756H31.6937V54.0073H37.9838V121.897H35.8505V121.889ZM25.6937 16.839V94.0696L27.5368 91.7872V16.839H25.6937Z" fill="#392215"/>
<path fill-rule="evenodd" clip-rule="evenodd" d="M21.1208 134.061V128.642H19.1758V127.897H23.913V128.642H21.9679V134.061H21.1287H21.1208ZM24.0149 134.061V127.889H24.8541V130.422H28.0541V127.889H28.8933V134.061H28.0541V131.167H24.8541V134.061H24.0149ZM29.5835 134.061V127.889H33.9835V128.65H30.4149V130.493H33.7089V131.214H30.4149V133.285H34.054V134.053H29.5835V134.061Z" fill="#392215"/>
<path d="M16.1957 130.555H0.0625V131.387H16.1957V130.555Z" fill="#392215"/>
<path d="M53.1678 130.555H37.0347V131.387H53.1678V130.555Z" fill="#392215"/>
<path fill-rule="evenodd" clip-rule="evenodd" d="M0.00785071 151.167H2.92544V147.183H5.14504C8.1254 147.183 10.5097 145.606 10.5097 142.516V142.477C10.5097 139.748 8.59597 137.889 5.42738 137.889H0V151.167H0.00785071ZM2.92544 144.587V140.532H5.18425C6.64305 140.532 7.55286 141.23 7.55286 142.54V142.579C7.55286 143.716 6.69796 144.587 5.23915 144.587H2.92544ZM9.51363 151.167L15.1998 137.795H17.89L23.5762 151.167H20.5253L19.3096 148.187H13.694L12.4783 151.167H9.49792H9.51363ZM14.7449 145.606H18.2743L16.5096 141.3L14.7449 145.606ZM24.933 151.167H27.8507V146.916H30.1487L32.9957 151.167H36.4074L33.1683 146.43C34.8545 145.802 36.0153 144.461 36.0153 142.312V142.273C36.0153 141.002 35.6389 139.998 34.8781 139.238C33.984 138.344 32.6977 137.889 31.0114 137.889H24.9409V151.167H24.933ZM27.8585 144.336V140.524H30.7605C32.2036 140.524 33.0585 141.151 33.0585 142.422V142.461C33.0585 143.598 32.2585 144.336 30.8232 144.336H27.8664H27.8585ZM38.0859 151.167H41.0035V137.889H38.0859V151.167ZM48.3524 151.355C51.2151 151.355 53.2229 149.873 53.2229 147.238V147.198C53.2229 144.885 51.7092 143.936 49.0112 143.214C46.7132 142.61 46.1485 142.359 46.1485 141.473V141.434C46.1485 140.767 46.7211 140.281 47.8583 140.281C48.9956 140.281 50.1171 140.775 51.3092 141.591L52.8229 139.395C51.4582 138.312 49.8426 137.708 47.8897 137.708C45.1603 137.708 43.2466 139.3 43.2466 141.708V141.747C43.2466 144.367 44.9564 145.144 47.6465 145.802C49.8661 146.351 50.321 146.751 50.321 147.489V147.528C50.321 148.304 49.623 148.783 48.4073 148.783C46.8936 148.783 45.6544 148.155 44.4466 147.167L42.7211 149.238C44.3133 150.681 46.3211 151.363 48.3524 151.363V151.355Z" fill="#392215"/>
</svg>
