<svg width="153" height="115" viewBox="0 0 153 115" fill="none" xmlns="http://www.w3.org/2000/svg">
<path d="M61.0474 49.9437L49.2529 55.565C52.5224 59.8516 56.7736 63.4098 61.673 65.7007C61.7789 65.6782 62.2923 64.6675 62.3693 64.4943C63.5564 61.8473 63.6848 58.5264 63.2035 55.6997C62.8538 53.6623 62.1383 51.6923 61.0474 49.9437ZM82.9198 49.61L63.9928 66.7434C64.8527 67.0098 65.6869 67.3338 66.55 67.5873C72.89 69.4578 79.8749 69.3969 86.1732 67.4108C86.4171 67.3338 87.6299 66.9584 87.739 66.8525C87.8609 66.7274 88.1048 65.1456 88.14 64.8633C88.7176 60.0505 86.908 55.2056 84.1904 51.3137C83.7861 50.7362 83.3016 50.2004 82.9262 49.61H82.923H82.9198ZM108.158 45.0956C102.505 45.7245 96.8576 46.4015 91.2234 47.1715L86.6192 47.871L105.678 51.0731C106.756 49.2121 107.513 47.1523 108.161 45.0924H108.158V45.0956ZM60.6688 47.5501C55.4389 44.7138 49.4679 43.5395 43.5417 43.4625C44.4915 47.1555 45.9706 50.7651 48.146 53.8998L60.5854 47.9287L60.672 47.5501H60.6688ZM62.5907 48.4581L72.6044 56.242L82.076 47.6528C82.1626 47.4667 81.9733 46.6999 81.9123 46.4592C79.6054 37.0455 66.2805 36.3749 63.0944 45.6475C62.9468 46.0774 62.411 48.1565 62.5875 48.4646L62.5907 48.4581ZM43.1631 41.7171C49.3235 41.7909 55.5704 43.0967 60.8099 46.3983L61.5287 44.2486C56.3309 38.9834 49.654 35.4252 42.7428 32.9161C42.5407 32.9033 42.6273 33.5354 42.6177 33.6926C42.4958 35.5824 42.5632 37.5107 42.791 39.3973C42.8808 40.1706 43.022 40.9438 43.1696 41.7106H43.1663L43.1631 41.7171ZM108.54 27.0895L102.575 31.0488C97.6116 34.2637 92.6352 37.4497 87.5978 40.5492C86.016 41.5213 84.4214 42.4967 82.8139 43.4112C83.3465 44.5149 83.7668 45.6796 83.9818 46.8924L84.0332 46.9341C92.2726 44.9256 100.602 43.2989 108.966 41.8743C109.666 38.1331 109.785 34.3214 109.236 30.5514C109.069 29.3868 108.806 28.2349 108.54 27.0862V27.0895ZM62.0869 43.1352C62.5008 42.2721 63.1169 41.5438 63.6976 40.793C59.3597 32.9097 52.9395 26.4349 45.8519 20.9933C44.3182 24.1473 43.2947 27.5707 42.8551 31.0552C49.9973 33.6124 56.8699 37.4048 61.9778 43.0967L62.0901 43.132H62.0869V43.1352ZM67.4676 38.1267C65.8313 29.2841 62.2538 20.9099 57.7234 13.1998C57.0624 12.0736 56.3533 10.8833 55.6346 9.79558C55.5672 9.69291 55.3041 9.2373 55.2143 9.25335C55.163 9.26297 54.5213 9.78596 54.4154 9.87259C52.2464 11.6533 50.1256 14.0244 48.531 16.3345C48.2903 16.6843 46.7631 19.0072 46.7984 19.2222C54.0592 24.7793 60.6624 31.5589 64.5928 39.9267C64.6537 39.9684 65.0997 39.5385 65.196 39.4711C65.9019 38.9481 66.6655 38.4797 67.474 38.1299H67.4708L67.4676 38.1267ZM107.388 23.7077C107.462 23.5793 106.858 22.2286 106.756 21.9975C104.818 17.6051 101.792 13.495 98.2084 10.3089C97.7527 9.90467 97.0918 9.30789 96.6041 8.97741C96.5624 8.94854 96.5528 8.90041 96.4661 8.92287C91.8363 19.6233 85.9903 29.7718 79.2236 39.2433C80.3402 40.055 81.3155 41.0625 82.076 42.2144L107.388 23.7077ZM72.5306 2.17537C67.2526 2.71761 62.1383 4.57855 57.7105 7.45337C57.6239 7.45337 57.1522 7.82235 57.149 7.85764C62.8153 16.9441 66.9799 27.0157 68.5072 37.6936C69.8227 37.2476 71.2023 37.039 72.5916 37.0198C74.3787 26.8873 74.2504 16.4853 73.0697 6.28868C72.9092 4.91865 72.6943 3.5454 72.5338 2.17537H72.5306ZM77.9594 38.3995C82.8877 30.2242 87.309 21.7377 91.14 12.9881C91.7368 11.6212 92.3304 10.2512 92.8983 8.87153C93.0009 8.62127 93.6459 7.11006 93.6362 6.99776C93.633 6.93359 93.5977 6.89509 93.5464 6.86942C88.1561 3.51653 81.784 1.82243 75.4119 1.97003C76.737 12.1923 76.9552 22.6489 75.0589 32.8167C74.7894 34.2733 74.4557 35.7268 74.106 37.1674C75.1167 37.3342 76.1017 37.6134 77.0418 38.0144C77.1926 38.0786 77.8632 38.47 77.9627 38.4155V38.4059L77.9594 38.3995ZM111.508 35.4508C111.508 55.0292 95.6351 70.9017 76.0568 70.9017C56.4785 70.9017 40.606 55.0324 40.606 35.4508C40.606 15.8693 56.4785 0 76.0568 0C95.6351 0 111.508 15.8693 111.508 35.4508Z" fill="#0BAF84"/>
<path d="M0.00583913 97.0543L0.236852 96.2008C0.743797 94.3302 1.00048 97.1216 5.17796 97.1216C7.4175 97.1216 8.66561 96.0821 8.66561 94.5612C8.66561 93.2458 7.64851 92.6426 6.31056 91.8597L3.38119 90.1046C1.16411 88.7891 0.336316 87.7977 0.336316 86.2961C0.336316 83.6876 2.82933 81.6791 5.80362 81.6791C7.64851 81.6791 9.72763 82.417 9.58966 82.8791L9.24314 84.0341C8.80678 85.4876 8.22604 83.0652 4.90203 83.0652C2.91596 83.0652 2.01437 84.1047 2.01437 85.3528C2.01437 86.3924 2.61436 87.0373 4.18332 87.9613L7.13836 89.7164C9.42282 91.08 10.3244 92.0458 10.3244 93.6147C10.3244 96.3388 7.51055 98.5783 4.44 98.5783C2.45393 98.5783 -0.173837 97.6767 0.00904765 97.0543H0.00583913Z" fill="#010101"/>
<path d="M21.7232 97.327C24.0526 97.327 27.3317 95.9184 27.3317 91.141C27.3317 86.3635 23.8922 82.9208 20.2954 82.9208C17.9629 82.9208 14.7126 84.3293 14.7126 89.0843C14.7126 93.8393 18.1265 97.3238 21.7296 97.3238H21.7264L21.7232 97.327ZM12.749 90.1977C12.749 85.5806 16.0057 81.6791 21.0077 81.6791C26.0098 81.6791 29.2729 85.3047 29.2729 90.034C29.2729 94.7634 26.0643 98.5751 21.0559 98.5751C16.0474 98.5751 12.749 94.9495 12.749 90.1977Z" fill="#010101"/>
<path d="M37.6733 98.1387C36.1492 98.1387 34.6508 98.1387 32.8477 98.2061C32.915 96.8906 32.9856 95.2992 32.9856 93.4286V86.8287C32.9856 84.9581 32.9182 83.3667 32.8477 82.0512H35.1546C35.1064 83.3667 34.9909 84.9581 34.9909 86.8287V93.4286C34.9909 94.3494 34.9909 95.2029 35.0583 96.2007C35.1064 96.8232 35.453 97.0799 36.2326 97.0799C38.1032 97.0799 40.593 96.9419 42.7427 96.759C42.9962 96.7366 43.1117 96.759 43.0892 96.8745L42.8101 98.0071C42.762 98.2125 42.762 98.2863 42.5791 98.2606C40.7342 98.1451 39.3224 98.1451 37.6636 98.1451H37.6668L37.6733 98.1387Z" fill="#010101"/>
<path d="M51.1971 93.4286V86.8287C51.1971 84.9582 51.1297 83.3668 51.0591 82.0513C52.8591 82.1186 54.335 82.1186 55.7435 82.1186C57.428 82.1186 58.952 82.1186 60.8001 82.0031C61.0311 81.9807 61.0793 82.0513 61.0311 82.2566L60.752 83.3411C60.7295 83.4566 60.6589 83.4791 60.4055 83.4566C58.2622 83.2737 56.2055 83.155 54.4537 83.155C53.6676 83.155 53.2986 83.4085 53.2794 84.0309C53.2312 85.0223 53.212 85.9015 53.212 86.8223V88.8758C53.212 89.4758 53.5136 89.5913 53.9756 89.5913H54.3927C56.5841 89.5913 57.6494 89.5688 58.9392 89.4084C59.1221 89.3859 59.2183 89.5014 59.1221 89.71L58.7531 90.5891C58.6376 90.8426 58.5477 90.8426 58.2462 90.8201C57.3702 90.7527 55.7756 90.6565 54.1842 90.6565H53.9788C53.5168 90.6565 53.2152 90.772 53.2152 91.372V93.4254C53.2152 95.296 53.3307 96.8874 53.3788 98.2029H51.0719C51.1393 96.8874 51.2099 95.296 51.2099 93.4254H51.2003L51.1971 93.4286Z" fill="#010101"/>
<path d="M66.1515 92.3634H71.2498C71.6188 92.3634 72.0135 92.3153 71.8723 92.0425L68.7119 84.4929L65.5034 92.0425C65.3654 92.3217 65.7569 92.3634 66.1515 92.3634ZM63.3793 93.9356L66.8413 86.1806C67.7429 84.1721 67.9258 83.0876 68.0156 82.324C68.0381 82.0705 69.7001 81.7913 69.7707 81.955L74.9396 93.9356C75.5396 95.3698 76.2102 96.7751 76.8776 98.2029H74.4327L72.6584 93.9356C72.4755 93.4286 71.8723 93.4511 71.0669 93.4511H66.174C65.4841 93.4511 64.9515 93.4029 64.7205 93.9356L62.9205 98.2029H61.3965C62.0671 96.7687 62.7601 95.3633 63.3826 93.9356H63.3793Z" fill="#010101"/>
<path d="M80.5074 93.4286V86.8287C80.5074 84.9581 80.4143 83.3667 80.3438 82.0512H82.6731C82.6057 83.3667 82.5095 84.9581 82.5095 86.8287V93.4286C82.5095 95.2992 82.6025 96.8906 82.6731 98.2061H80.3438C80.4111 96.8906 80.5074 95.2992 80.5074 93.4286Z" fill="#010101"/>
<path d="M90.2443 90.0148C93.7255 90.0148 95.4389 89.3923 95.4389 86.8544C95.4389 84.3165 93.6838 82.9977 91.425 82.9977C89.994 82.9977 89.439 83.3667 89.439 84.432V90.018H90.2443V90.0148ZM87.4305 93.4286V86.8287C87.4305 84.9581 87.3631 83.3667 87.2925 82.0512C89.0925 82.1186 89.994 82.0031 91.9769 82.0031C95.0892 82.0031 97.5854 83.3411 97.5854 86.2768C97.5854 89.0009 95.4164 90.3164 93.594 90.5025C94.2165 90.9645 94.9993 91.8661 95.8111 92.8094L98.1405 95.5815C99.2057 96.8521 99.78 97.5195 100.47 98.2125H97.7266L93.5972 92.9506C92.1213 91.08 91.4539 90.9164 89.4422 90.9164V93.435C89.4422 95.3056 89.5577 96.897 89.6058 98.2125H87.2989C87.3663 96.897 87.4369 95.3056 87.4369 93.435L87.4305 93.4286Z" fill="#010101"/>
<path d="M108.27 82.048H110.715L115.724 95.758L118.768 87.9068C119.67 85.6448 120.36 83.8448 120.96 82.0416H122.599C121.884 83.4758 121.213 84.8587 120.408 86.9089L117.568 94.0896C116.715 96.1912 116.51 97.2307 116.394 98.0842C116.372 98.2478 114.735 98.5911 114.662 98.4307L111.315 89.2897L109.425 94.0896C108.62 96.1912 108.366 97.2307 108.251 98.0842C108.228 98.2478 106.611 98.5911 106.544 98.4307L102.203 86.7293C101.513 84.8587 100.798 83.4277 100.127 82.0448H102.598L107.58 95.7548L110.166 89.2704C110.487 88.4169 110.699 87.6533 110.33 86.5688L110.237 86.3154C109.685 84.8619 108.947 83.4758 108.277 82.048H108.273H108.27Z" fill="#010101"/>
<path d="M126.899 92.3634H131.997C132.366 92.3634 132.761 92.3153 132.619 92.0425L129.459 84.4929L126.25 92.0425C126.112 92.3217 126.504 92.3634 126.899 92.3634ZM124.126 93.9356L127.588 86.1806C128.49 84.1721 128.673 83.0876 128.763 82.324C128.785 82.0705 130.447 81.7913 130.518 81.955L135.687 93.9356C136.287 95.3698 136.957 96.7751 137.625 98.2029H135.18L133.405 93.9356C133.223 93.4286 132.619 93.4511 131.814 93.4511H126.921C126.231 93.4511 125.699 93.4029 125.468 93.9356L123.668 98.2029H122.144C122.814 96.7687 123.504 95.3633 124.13 93.9356H124.126Z" fill="#010101"/>
<path d="M143.933 93.4286V91.0062L137.75 82.0512H140.452C141.469 83.5753 142.505 85.2373 143.612 86.8287L145.412 89.4597L147.257 86.8287C148.341 85.2597 149.516 83.572 150.327 82.0512H152.217L145.938 90.7752V93.4318C145.938 95.3024 146.031 96.8938 146.102 98.2093H143.772C143.84 96.8938 143.936 95.3024 143.936 93.4318H143.933V93.4286Z" fill="#010101"/>
<path d="M0.00583913 97.0543L0.236852 96.2008C0.743797 94.3302 1.00048 97.1216 5.17796 97.1216C7.4175 97.1216 8.66561 96.0821 8.66561 94.5612C8.66561 93.2458 7.64851 92.6426 6.31056 91.8597L3.38119 90.1046C1.16411 88.7891 0.336316 87.7977 0.336316 86.2961C0.336316 83.6876 2.82933 81.6791 5.80362 81.6791C7.64851 81.6791 9.72763 82.417 9.58966 82.8791L9.24314 84.0341C8.80678 85.4876 8.22604 83.0652 4.90203 83.0652C2.91596 83.0652 2.01437 84.1047 2.01437 85.3528C2.01437 86.3924 2.61436 87.0373 4.18332 87.9613L7.13836 89.7164C9.42282 91.08 10.3244 92.0458 10.3244 93.6147C10.3244 96.3388 7.51055 98.5783 4.44 98.5783C2.45393 98.5783 -0.173837 97.6767 0.00904765 97.0543H0.00583913Z" fill="#010101"/>
<path d="M21.7232 97.327C24.0526 97.327 27.3317 95.9184 27.3317 91.141C27.3317 86.3635 23.8922 82.9208 20.2954 82.9208C17.9629 82.9208 14.7126 84.3293 14.7126 89.0843C14.7126 93.8393 18.1265 97.3238 21.7296 97.3238H21.7264L21.7232 97.327ZM12.749 90.1977C12.749 85.5806 16.0057 81.6791 21.0077 81.6791C26.0098 81.6791 29.2729 85.3047 29.2729 90.034C29.2729 94.7634 26.0643 98.5751 21.0559 98.5751C16.0474 98.5751 12.749 94.9495 12.749 90.1977Z" fill="#010101"/>
<path d="M37.6733 98.1387C36.1492 98.1387 34.6508 98.1387 32.8477 98.2061C32.915 96.8906 32.9856 95.2992 32.9856 93.4286V86.8287C32.9856 84.9581 32.9182 83.3667 32.8477 82.0512H35.1546C35.1064 83.3667 34.9909 84.9581 34.9909 86.8287V93.4286C34.9909 94.3494 34.9909 95.2029 35.0583 96.2007C35.1064 96.8232 35.453 97.0799 36.2326 97.0799C38.1032 97.0799 40.593 96.9419 42.7427 96.759C42.9962 96.7366 43.1117 96.759 43.0892 96.8745L42.8101 98.0071C42.762 98.2125 42.762 98.2863 42.5791 98.2606C40.7342 98.1451 39.3224 98.1451 37.6636 98.1451H37.6668L37.6733 98.1387Z" fill="#010101"/>
<path d="M51.1971 93.4286V86.8287C51.1971 84.9582 51.1297 83.3668 51.0591 82.0513C52.8591 82.1186 54.335 82.1186 55.7435 82.1186C57.428 82.1186 58.952 82.1186 60.8001 82.0031C61.0311 81.9807 61.0793 82.0513 61.0311 82.2566L60.752 83.3411C60.7295 83.4566 60.6589 83.4791 60.4055 83.4566C58.2622 83.2737 56.2055 83.155 54.4537 83.155C53.6676 83.155 53.2986 83.4085 53.2794 84.0309C53.2312 85.0223 53.212 85.9015 53.212 86.8223V88.8758C53.212 89.4758 53.5136 89.5913 53.9756 89.5913H54.3927C56.5841 89.5913 57.6494 89.5688 58.9392 89.4084C59.1221 89.3859 59.2183 89.5014 59.1221 89.71L58.7531 90.5891C58.6376 90.8426 58.5477 90.8426 58.2462 90.8201C57.3702 90.7527 55.7756 90.6565 54.1842 90.6565H53.9788C53.5168 90.6565 53.2152 90.772 53.2152 91.372V93.4254C53.2152 95.296 53.3307 96.8874 53.3788 98.2029H51.0719C51.1393 96.8874 51.2099 95.296 51.2099 93.4254H51.2003L51.1971 93.4286Z" fill="#010101"/>
<path d="M66.1515 92.3634H71.2498C71.6188 92.3634 72.0135 92.3153 71.8723 92.0425L68.7119 84.4929L65.5034 92.0425C65.3654 92.3217 65.7569 92.3634 66.1515 92.3634ZM63.3793 93.9356L66.8413 86.1806C67.7429 84.1721 67.9258 83.0876 68.0156 82.324C68.0381 82.0705 69.7001 81.7913 69.7707 81.955L74.9396 93.9356C75.5396 95.3698 76.2102 96.7751 76.8776 98.2029H74.4327L72.6584 93.9356C72.4755 93.4286 71.8723 93.4511 71.0669 93.4511H66.174C65.4841 93.4511 64.9515 93.4029 64.7205 93.9356L62.9205 98.2029H61.3965C62.0671 96.7687 62.7601 95.3633 63.3826 93.9356H63.3793Z" fill="#010101"/>
<path d="M80.5074 93.4286V86.8287C80.5074 84.9581 80.4143 83.3667 80.3438 82.0512H82.6731C82.6057 83.3667 82.5095 84.9581 82.5095 86.8287V93.4286C82.5095 95.2992 82.6025 96.8906 82.6731 98.2061H80.3438C80.4111 96.8906 80.5074 95.2992 80.5074 93.4286Z" fill="#010101"/>
<path d="M90.2443 90.0148C93.7255 90.0148 95.4389 89.3923 95.4389 86.8544C95.4389 84.3165 93.6838 82.9977 91.425 82.9977C89.994 82.9977 89.439 83.3667 89.439 84.432V90.018H90.2443V90.0148ZM87.4305 93.4286V86.8287C87.4305 84.9581 87.3631 83.3667 87.2925 82.0512C89.0925 82.1186 89.994 82.0031 91.9769 82.0031C95.0892 82.0031 97.5854 83.3411 97.5854 86.2768C97.5854 89.0009 95.4164 90.3164 93.594 90.5025C94.2165 90.9645 94.9993 91.8661 95.8111 92.8094L98.1405 95.5815C99.2057 96.8521 99.78 97.5195 100.47 98.2125H97.7266L93.5972 92.9506C92.1213 91.08 91.4539 90.9164 89.4422 90.9164V93.435C89.4422 95.3056 89.5577 96.897 89.6058 98.2125H87.2989C87.3663 96.897 87.4369 95.3056 87.4369 93.435L87.4305 93.4286Z" fill="#010101"/>
<path d="M108.27 82.048H110.715L115.724 95.758L118.768 87.9068C119.67 85.6448 120.36 83.8448 120.96 82.0416H122.599C121.884 83.4758 121.213 84.8587 120.408 86.9089L117.568 94.0896C116.715 96.1912 116.51 97.2307 116.394 98.0842C116.372 98.2478 114.735 98.5911 114.662 98.4307L111.315 89.2897L109.425 94.0896C108.62 96.1912 108.366 97.2307 108.251 98.0842C108.228 98.2478 106.611 98.5911 106.544 98.4307L102.203 86.7293C101.513 84.8587 100.798 83.4277 100.127 82.0448H102.598L107.58 95.7548L110.166 89.2704C110.487 88.4169 110.699 87.6533 110.33 86.5688L110.237 86.3154C109.685 84.8619 108.947 83.4758 108.277 82.048H108.273H108.27Z" fill="#010101"/>
<path d="M126.899 92.3634H131.997C132.366 92.3634 132.761 92.3153 132.619 92.0425L129.459 84.4929L126.25 92.0425C126.112 92.3217 126.504 92.3634 126.899 92.3634ZM124.126 93.9356L127.588 86.1806C128.49 84.1721 128.673 83.0876 128.763 82.324C128.785 82.0705 130.447 81.7913 130.518 81.955L135.687 93.9356C136.287 95.3698 136.957 96.7751 137.625 98.2029H135.18L133.405 93.9356C133.223 93.4286 132.619 93.4511 131.814 93.4511H126.921C126.231 93.4511 125.699 93.4029 125.468 93.9356L123.668 98.2029H122.144C122.814 96.7687 123.504 95.3633 124.13 93.9356H124.126Z" fill="#010101"/>
<path d="M143.933 93.4286V91.0062L137.75 82.0512H140.452C141.469 83.5753 142.505 85.2373 143.612 86.8287L145.412 89.4597L147.257 86.8287C148.341 85.2597 149.516 83.572 150.327 82.0512H152.217L145.938 90.7752V93.4318C145.938 95.3024 146.031 96.8938 146.102 98.2093H143.772C143.84 96.8938 143.936 95.3024 143.936 93.4318H143.933V93.4286Z" fill="#010101"/>
<path d="M0.00583913 97.0543L0.236852 96.2008C0.743797 94.3302 1.00048 97.1216 5.17796 97.1216C7.4175 97.1216 8.66561 96.0821 8.66561 94.5612C8.66561 93.2458 7.64851 92.6426 6.31056 91.8597L3.38119 90.1046C1.16411 88.7891 0.336316 87.7977 0.336316 86.2961C0.336316 83.6876 2.82933 81.6791 5.80362 81.6791C7.64851 81.6791 9.72763 82.417 9.58966 82.8791L9.24314 84.0341C8.80678 85.4876 8.22604 83.0652 4.90203 83.0652C2.91596 83.0652 2.01437 84.1047 2.01437 85.3528C2.01437 86.3924 2.61436 87.0373 4.18332 87.9613L7.13836 89.7164C9.42282 91.08 10.3244 92.0458 10.3244 93.6147C10.3244 96.3388 7.51055 98.5783 4.44 98.5783C2.45393 98.5783 -0.173837 97.6767 0.00904765 97.0543H0.00583913Z" fill="#010101"/>
<path d="M21.7232 97.327C24.0526 97.327 27.3317 95.9184 27.3317 91.141C27.3317 86.3635 23.8922 82.9208 20.2954 82.9208C17.9629 82.9208 14.7126 84.3293 14.7126 89.0843C14.7126 93.8393 18.1265 97.3238 21.7296 97.3238H21.7264L21.7232 97.327ZM12.749 90.1977C12.749 85.5806 16.0057 81.6791 21.0077 81.6791C26.0098 81.6791 29.2729 85.3047 29.2729 90.034C29.2729 94.7634 26.0643 98.5751 21.0559 98.5751C16.0474 98.5751 12.749 94.9495 12.749 90.1977Z" fill="#010101"/>
<path d="M37.6733 98.1387C36.1492 98.1387 34.6508 98.1387 32.8477 98.2061C32.915 96.8906 32.9856 95.2992 32.9856 93.4286V86.8287C32.9856 84.9581 32.9182 83.3667 32.8477 82.0512H35.1546C35.1064 83.3667 34.9909 84.9581 34.9909 86.8287V93.4286C34.9909 94.3494 34.9909 95.2029 35.0583 96.2007C35.1064 96.8232 35.453 97.0799 36.2326 97.0799C38.1032 97.0799 40.593 96.9419 42.7427 96.759C42.9962 96.7366 43.1117 96.759 43.0892 96.8745L42.8101 98.0071C42.762 98.2125 42.762 98.2863 42.5791 98.2606C40.7342 98.1451 39.3224 98.1451 37.6636 98.1451H37.6668L37.6733 98.1387Z" fill="#010101"/>
<path d="M51.1971 93.4286V86.8287C51.1971 84.9582 51.1297 83.3668 51.0591 82.0513C52.8591 82.1186 54.335 82.1186 55.7435 82.1186C57.428 82.1186 58.952 82.1186 60.8001 82.0031C61.0311 81.9807 61.0793 82.0513 61.0311 82.2566L60.752 83.3411C60.7295 83.4566 60.6589 83.4791 60.4055 83.4566C58.2622 83.2737 56.2055 83.155 54.4537 83.155C53.6676 83.155 53.2986 83.4085 53.2794 84.0309C53.2312 85.0223 53.212 85.9015 53.212 86.8223V88.8758C53.212 89.4758 53.5136 89.5913 53.9756 89.5913H54.3927C56.5841 89.5913 57.6494 89.5688 58.9392 89.4084C59.1221 89.3859 59.2183 89.5014 59.1221 89.71L58.7531 90.5891C58.6376 90.8426 58.5477 90.8426 58.2462 90.8201C57.3702 90.7527 55.7756 90.6565 54.1842 90.6565H53.9788C53.5168 90.6565 53.2152 90.772 53.2152 91.372V93.4254C53.2152 95.296 53.3307 96.8874 53.3788 98.2029H51.0719C51.1393 96.8874 51.2099 95.296 51.2099 93.4254H51.2003L51.1971 93.4286Z" fill="#010101"/>
<path d="M66.1515 92.3634H71.2498C71.6188 92.3634 72.0135 92.3153 71.8723 92.0425L68.7119 84.4929L65.5034 92.0425C65.3654 92.3217 65.7569 92.3634 66.1515 92.3634ZM63.3793 93.9356L66.8413 86.1806C67.7429 84.1721 67.9258 83.0876 68.0156 82.324C68.0381 82.0705 69.7001 81.7913 69.7707 81.955L74.9396 93.9356C75.5396 95.3698 76.2102 96.7751 76.8776 98.2029H74.4327L72.6584 93.9356C72.4755 93.4286 71.8723 93.4511 71.0669 93.4511H66.174C65.4841 93.4511 64.9515 93.4029 64.7205 93.9356L62.9205 98.2029H61.3965C62.0671 96.7687 62.7601 95.3633 63.3826 93.9356H63.3793Z" fill="#010101"/>
<path d="M80.5074 93.4286V86.8287C80.5074 84.9581 80.4143 83.3667 80.3438 82.0512H82.6731C82.6057 83.3667 82.5095 84.9581 82.5095 86.8287V93.4286C82.5095 95.2992 82.6025 96.8906 82.6731 98.2061H80.3438C80.4111 96.8906 80.5074 95.2992 80.5074 93.4286Z" fill="#010101"/>
<path d="M90.2443 90.0148C93.7255 90.0148 95.4389 89.3923 95.4389 86.8544C95.4389 84.3165 93.6838 82.9977 91.425 82.9977C89.994 82.9977 89.439 83.3667 89.439 84.432V90.018H90.2443V90.0148ZM87.4305 93.4286V86.8287C87.4305 84.9581 87.3631 83.3667 87.2925 82.0512C89.0925 82.1186 89.994 82.0031 91.9769 82.0031C95.0892 82.0031 97.5854 83.3411 97.5854 86.2768C97.5854 89.0009 95.4164 90.3164 93.594 90.5025C94.2165 90.9645 94.9993 91.8661 95.8111 92.8094L98.1405 95.5815C99.2057 96.8521 99.78 97.5195 100.47 98.2125H97.7266L93.5972 92.9506C92.1213 91.08 91.4539 90.9164 89.4422 90.9164V93.435C89.4422 95.3056 89.5577 96.897 89.6058 98.2125H87.2989C87.3663 96.897 87.4369 95.3056 87.4369 93.435L87.4305 93.4286Z" fill="#010101"/>
<path d="M108.27 82.048H110.715L115.724 95.758L118.768 87.9068C119.67 85.6448 120.36 83.8448 120.96 82.0416H122.599C121.884 83.4758 121.213 84.8587 120.408 86.9089L117.568 94.0896C116.715 96.1912 116.51 97.2307 116.394 98.0842C116.372 98.2478 114.735 98.5911 114.662 98.4307L111.315 89.2897L109.425 94.0896C108.62 96.1912 108.366 97.2307 108.251 98.0842C108.228 98.2478 106.611 98.5911 106.544 98.4307L102.203 86.7293C101.513 84.8587 100.798 83.4277 100.127 82.0448H102.598L107.58 95.7548L110.166 89.2704C110.487 88.4169 110.699 87.6533 110.33 86.5688L110.237 86.3154C109.685 84.8619 108.947 83.4758 108.277 82.048H108.273H108.27Z" fill="#010101"/>
<path d="M126.899 92.3634H131.997C132.366 92.3634 132.761 92.3153 132.619 92.0425L129.459 84.4929L126.25 92.0425C126.112 92.3217 126.504 92.3634 126.899 92.3634ZM124.126 93.9356L127.588 86.1806C128.49 84.1721 128.673 83.0876 128.763 82.324C128.785 82.0705 130.447 81.7913 130.518 81.955L135.687 93.9356C136.287 95.3698 136.957 96.7751 137.625 98.2029H135.18L133.405 93.9356C133.223 93.4286 132.619 93.4511 131.814 93.4511H126.921C126.231 93.4511 125.699 93.4029 125.468 93.9356L123.668 98.2029H122.144C122.814 96.7687 123.504 95.3633 124.13 93.9356H124.126Z" fill="#010101"/>
<path d="M143.933 93.4286V91.0062L137.75 82.0512H140.452C141.469 83.5753 142.505 85.2373 143.612 86.8287L145.412 89.4597L147.257 86.8287C148.341 85.2597 149.516 83.572 150.327 82.0512H152.217L145.938 90.7752V93.4318C145.938 95.3024 146.031 96.8938 146.102 98.2093H143.772C143.84 96.8938 143.936 95.3024 143.936 93.4318H143.933V93.4286Z" fill="#010101"/>
<path d="M47.4562 111.656C48.592 111.656 49.0958 111.46 49.0958 110.665C49.0958 109.869 48.5503 109.429 47.8316 109.429C47.376 109.429 47.2284 109.535 47.2284 109.885V111.656H47.4658H47.4626H47.4562ZM46.4359 112.814V110.649C46.4359 110.036 46.4134 109.513 46.3878 109.08C47.0231 109.102 47.3567 109.064 48.0466 109.064C49.131 109.064 49.9235 109.519 49.9235 110.466C49.9235 111.329 49.2337 111.768 48.5888 111.839C48.807 111.99 49.0829 112.295 49.3492 112.603L50.1128 113.504C50.469 113.928 50.6647 114.156 50.8925 114.383H49.885L48.5054 112.648C48.0209 112.041 47.8156 111.983 47.2188 111.983V112.814C47.2188 113.427 47.2573 113.95 47.2701 114.383H46.3813C46.4038 113.95 46.4295 113.427 46.4295 112.814H46.4327H46.4359Z" fill="#010101"/>
<path d="M55.1857 114.358C54.6852 114.358 54.1077 114.358 53.4756 114.38C53.498 113.947 53.5237 113.424 53.5237 112.811V110.645C53.5237 110.033 53.5013 109.51 53.4756 109.077C54.1109 109.099 54.682 109.099 55.144 109.099C55.606 109.099 56.1419 109.099 56.7515 109.06C56.8285 109.051 56.8413 109.077 56.8285 109.141L56.7386 109.526C56.729 109.564 56.7098 109.574 56.6263 109.564C55.9237 109.503 55.3012 109.465 54.7237 109.465C54.467 109.465 54.3451 109.545 54.3387 109.754C54.3226 110.081 54.3162 110.366 54.3162 110.671V111.262C54.3162 111.457 54.4157 111.499 54.5665 111.499H54.7044C55.3879 111.499 55.7408 111.489 56.1675 111.438C56.2285 111.428 56.2574 111.467 56.2285 111.537L56.1002 111.855C56.0616 111.935 56.0328 111.935 55.9333 111.932C55.6445 111.91 55.1216 111.881 54.6371 111.881H54.5697C54.4189 111.881 54.3194 111.919 54.3194 112.118V112.789C54.3194 113.094 54.3194 113.373 54.3419 113.697C54.3579 113.902 54.4702 113.986 54.7269 113.986C55.3397 113.986 56.0681 113.937 56.7739 113.88C56.8541 113.87 56.8926 113.88 56.8894 113.918L56.7996 114.322C56.7836 114.39 56.7836 114.412 56.7226 114.403C56.1194 114.364 55.6766 114.364 55.1986 114.364H55.1889L55.1857 114.358Z" fill="#010101"/>
<path d="M59.2473 113.995L59.3244 113.69C59.504 113.029 59.6131 114.008 60.9928 114.008C61.6954 114.008 62.0516 113.681 62.0516 113.219C62.0516 112.814 61.7628 112.635 61.2783 112.34L60.4281 111.826C59.6548 111.355 59.35 111.027 59.35 110.501C59.35 109.609 60.2131 108.958 61.1757 108.958C61.766 108.958 62.4719 109.202 62.427 109.362L62.3115 109.718C62.135 110.289 62.0067 109.442 60.8676 109.442C60.2548 109.442 59.9789 109.75 59.9789 110.155C59.9789 110.498 60.1842 110.7 60.6912 111.005L61.5799 111.541C62.3532 112.012 62.6644 112.343 62.6644 112.875C62.6644 113.793 61.7372 114.505 60.7297 114.505C60.0784 114.505 59.1864 114.217 59.2473 113.998H59.2441L59.2473 113.995Z" fill="#010101"/>
<path d="M65.3721 112.811V110.646C65.3721 110.033 65.3433 109.51 65.3208 109.077H66.2128C66.1903 109.51 66.1614 110.033 66.1614 110.646V112.811C66.1614 113.424 66.1903 113.947 66.2128 114.38H65.3208C65.3433 113.947 65.3721 113.424 65.3721 112.811Z" fill="#010101"/>
<path d="M70.9331 114.027C72.3577 114.027 73.0699 113.325 73.0699 111.99C73.0699 110.588 72.2678 109.439 70.7149 109.439C70.24 109.439 70.0796 109.539 70.0796 109.872V113.568C70.0796 113.912 70.3074 114.03 70.9363 114.03H70.9331V114.027ZM69.2454 114.383C69.2679 113.95 69.2935 113.427 69.2935 112.814V110.649C69.2935 110.036 69.2711 109.513 69.2454 109.08C69.8807 109.102 70.6379 109.064 71.0325 109.064C72.9031 109.064 73.8592 110.148 73.8592 111.624C73.8592 113.1 72.8742 114.399 71.0229 114.399C70.6571 114.399 69.8775 114.361 69.2422 114.383H69.2454Z" fill="#010101"/>
<path d="M78.1423 114.358C77.6417 114.358 77.0642 114.358 76.4321 114.38C76.4546 113.947 76.4803 113.424 76.4803 112.811V110.645C76.4803 110.033 76.4578 109.51 76.4321 109.077C77.0674 109.099 77.6385 109.099 78.1006 109.099C78.5626 109.099 79.0984 109.099 79.708 109.06C79.785 109.051 79.7979 109.077 79.785 109.141L79.6952 109.526C79.6856 109.564 79.6663 109.574 79.5829 109.564C78.8802 109.503 78.2578 109.465 77.6802 109.465C77.4236 109.465 77.3016 109.545 77.2952 109.754C77.2792 110.081 77.2728 110.366 77.2728 110.671V111.262C77.2728 111.457 77.3722 111.499 77.523 111.499H77.661C78.3444 111.499 78.6973 111.489 79.1241 111.438C79.185 111.428 79.2139 111.467 79.185 111.537L79.0567 111.855C79.0182 111.935 78.9893 111.935 78.8898 111.932C78.6011 111.91 78.0781 111.881 77.5936 111.881H77.5262C77.3754 111.881 77.276 111.919 77.276 112.118V112.789C77.276 113.094 77.276 113.373 77.2984 113.697C77.3145 113.902 77.4268 113.986 77.6835 113.986C78.2963 113.986 79.0246 113.937 79.7305 113.88C79.8107 113.87 79.8492 113.88 79.846 113.918L79.7561 114.322C79.7401 114.39 79.7401 114.412 79.6791 114.403C79.0759 114.364 78.6332 114.364 78.1551 114.364H78.1455L78.1423 114.358Z" fill="#010101"/>
<path d="M82.6085 112.009V111.464C82.6085 110.395 82.5924 109.782 82.5282 109.173C82.5186 109.105 82.5379 109.073 82.5956 109.073H82.8042C82.8812 109.073 82.9325 109.083 82.9838 109.141L86.6223 113.058V111.444C86.6223 110.655 86.6127 110.01 86.5742 109.073H87.126C87.0875 110.013 87.0779 110.655 87.0779 111.444V111.99C87.0779 113.058 87.094 113.671 87.1581 114.281C87.1677 114.348 87.1485 114.38 87.0907 114.38H86.8854C86.8084 114.38 86.7571 114.371 86.7057 114.313L83.0608 110.379V112.009C83.0608 112.798 83.0705 113.443 83.109 114.38H82.5571C82.5956 113.44 82.6052 112.798 82.6052 112.009H82.6085Z" fill="#010101"/>
<path d="M89.8594 111.836C89.8594 110.488 90.8059 108.958 92.824 108.958C93.6936 108.958 94.393 109.237 94.3385 109.404L94.1812 109.875C94.0144 110.398 93.9855 109.51 92.3556 109.51C91.2262 109.51 90.6262 110.222 90.6262 111.377C90.6262 113.074 91.9225 113.857 93.0743 113.857C93.2026 113.857 93.8251 113.745 94.2935 113.45C94.3545 113.411 94.4989 113.562 94.4508 113.629C94.1331 114.101 93.1353 114.508 92.9203 114.508C91.4283 114.508 89.8594 113.6 89.8594 111.839H89.8626L89.8594 111.836Z" fill="#010101"/>
<path d="M98.7858 114.358C98.2853 114.358 97.7078 114.358 97.0757 114.38C97.0981 113.947 97.1238 113.424 97.1238 112.811V110.645C97.1238 110.033 97.1014 109.51 97.0757 109.077C97.711 109.099 98.2821 109.099 98.7441 109.099C99.2061 109.099 99.742 109.099 100.352 109.06C100.429 109.051 100.441 109.077 100.429 109.141L100.339 109.526C100.329 109.564 100.31 109.574 100.226 109.564C99.5238 109.503 98.9013 109.465 98.3238 109.465C98.0671 109.465 97.9452 109.545 97.9388 109.754C97.9227 110.081 97.9163 110.366 97.9163 110.671V111.262C97.9163 111.457 98.0158 111.499 98.1666 111.499H98.3045C98.988 111.499 99.3409 111.489 99.7676 111.438C99.8286 111.428 99.8575 111.467 99.8286 111.537L99.7002 111.855C99.6617 111.935 99.6329 111.935 99.5334 111.932C99.2446 111.91 98.7216 111.881 98.2372 111.881H98.1698C98.019 111.881 97.9195 111.919 97.9195 112.118V112.789C97.9195 113.094 97.9195 113.373 97.942 113.697C97.958 113.902 98.0703 113.986 98.327 113.986C98.9398 113.986 99.6682 113.937 100.374 113.88C100.454 113.87 100.493 113.88 100.49 113.918L100.4 114.322C100.384 114.39 100.384 114.412 100.323 114.403C99.7195 114.364 99.2767 114.364 98.7987 114.364H98.789L98.7858 114.358Z" fill="#010101"/>
<path d="M102.845 113.995L102.922 113.69C103.101 113.029 103.21 114.008 104.59 114.008C105.293 114.008 105.649 113.681 105.649 113.219C105.649 112.814 105.36 112.635 104.876 112.34L104.025 111.826C103.252 111.355 102.947 111.027 102.947 110.501C102.947 109.609 103.81 108.958 104.773 108.958C105.363 108.958 106.069 109.202 106.024 109.362L105.909 109.718C105.732 110.289 105.604 109.442 104.465 109.442C103.852 109.442 103.576 109.75 103.576 110.155C103.576 110.498 103.781 110.7 104.288 111.005L105.177 111.541C105.95 112.012 106.262 112.343 106.262 112.875C106.262 113.793 105.334 114.505 104.327 114.505C103.676 114.505 102.784 114.217 102.845 113.998H102.841L102.845 113.995Z" fill="#010101"/>
<path d="M47.4562 111.656C48.592 111.656 49.0958 111.46 49.0958 110.665C49.0958 109.869 48.5503 109.429 47.8316 109.429C47.376 109.429 47.2284 109.535 47.2284 109.885V111.656H47.4658H47.4626H47.4562ZM46.4359 112.814V110.649C46.4359 110.036 46.4134 109.513 46.3878 109.08C47.0231 109.102 47.3567 109.064 48.0466 109.064C49.131 109.064 49.9235 109.519 49.9235 110.466C49.9235 111.329 49.2337 111.768 48.5888 111.839C48.807 111.99 49.0829 112.295 49.3492 112.603L50.1128 113.504C50.469 113.928 50.6647 114.156 50.8925 114.383H49.885L48.5054 112.648C48.0209 112.041 47.8156 111.983 47.2188 111.983V112.814C47.2188 113.427 47.2573 113.95 47.2701 114.383H46.3813C46.4038 113.95 46.4295 113.427 46.4295 112.814H46.4327H46.4359Z" fill="#010101"/>
<path d="M55.1857 114.358C54.6852 114.358 54.1077 114.358 53.4756 114.38C53.498 113.947 53.5237 113.424 53.5237 112.811V110.645C53.5237 110.033 53.5013 109.51 53.4756 109.077C54.1109 109.099 54.682 109.099 55.144 109.099C55.606 109.099 56.1419 109.099 56.7515 109.06C56.8285 109.051 56.8413 109.077 56.8285 109.141L56.7386 109.526C56.729 109.564 56.7098 109.574 56.6263 109.564C55.9237 109.503 55.3012 109.465 54.7237 109.465C54.467 109.465 54.3451 109.545 54.3387 109.754C54.3226 110.081 54.3162 110.366 54.3162 110.671V111.262C54.3162 111.457 54.4157 111.499 54.5665 111.499H54.7044C55.3879 111.499 55.7408 111.489 56.1675 111.438C56.2285 111.428 56.2574 111.467 56.2285 111.537L56.1002 111.855C56.0616 111.935 56.0328 111.935 55.9333 111.932C55.6445 111.91 55.1216 111.881 54.6371 111.881H54.5697C54.4189 111.881 54.3194 111.919 54.3194 112.118V112.789C54.3194 113.094 54.3194 113.373 54.3419 113.697C54.3579 113.902 54.4702 113.986 54.7269 113.986C55.3397 113.986 56.0681 113.937 56.7739 113.88C56.8541 113.87 56.8926 113.88 56.8894 113.918L56.7996 114.322C56.7836 114.39 56.7836 114.412 56.7226 114.403C56.1194 114.364 55.6766 114.364 55.1986 114.364H55.1889L55.1857 114.358Z" fill="#010101"/>
<path d="M59.2473 113.995L59.3244 113.69C59.504 113.029 59.6131 114.008 60.9928 114.008C61.6954 114.008 62.0516 113.681 62.0516 113.219C62.0516 112.814 61.7628 112.635 61.2783 112.34L60.4281 111.826C59.6548 111.355 59.35 111.027 59.35 110.501C59.35 109.609 60.2131 108.958 61.1757 108.958C61.766 108.958 62.4719 109.202 62.427 109.362L62.3115 109.718C62.135 110.289 62.0067 109.442 60.8676 109.442C60.2548 109.442 59.9789 109.75 59.9789 110.155C59.9789 110.498 60.1842 110.7 60.6912 111.005L61.5799 111.541C62.3532 112.012 62.6644 112.343 62.6644 112.875C62.6644 113.793 61.7372 114.505 60.7297 114.505C60.0784 114.505 59.1864 114.217 59.2473 113.998H59.2441L59.2473 113.995Z" fill="#010101"/>
<path d="M65.3721 112.811V110.646C65.3721 110.033 65.3433 109.51 65.3208 109.077H66.2128C66.1903 109.51 66.1614 110.033 66.1614 110.646V112.811C66.1614 113.424 66.1903 113.947 66.2128 114.38H65.3208C65.3433 113.947 65.3721 113.424 65.3721 112.811Z" fill="#010101"/>
<path d="M70.9331 114.027C72.3577 114.027 73.0699 113.325 73.0699 111.99C73.0699 110.588 72.2678 109.439 70.7149 109.439C70.24 109.439 70.0796 109.539 70.0796 109.872V113.568C70.0796 113.912 70.3074 114.03 70.9363 114.03H70.9331V114.027ZM69.2454 114.383C69.2679 113.95 69.2935 113.427 69.2935 112.814V110.649C69.2935 110.036 69.2711 109.513 69.2454 109.08C69.8807 109.102 70.6379 109.064 71.0325 109.064C72.9031 109.064 73.8592 110.148 73.8592 111.624C73.8592 113.1 72.8742 114.399 71.0229 114.399C70.6571 114.399 69.8775 114.361 69.2422 114.383H69.2454Z" fill="#010101"/>
<path d="M78.1423 114.358C77.6417 114.358 77.0642 114.358 76.4321 114.38C76.4546 113.947 76.4803 113.424 76.4803 112.811V110.645C76.4803 110.033 76.4578 109.51 76.4321 109.077C77.0674 109.099 77.6385 109.099 78.1006 109.099C78.5626 109.099 79.0984 109.099 79.708 109.06C79.785 109.051 79.7979 109.077 79.785 109.141L79.6952 109.526C79.6856 109.564 79.6663 109.574 79.5829 109.564C78.8802 109.503 78.2578 109.465 77.6802 109.465C77.4236 109.465 77.3016 109.545 77.2952 109.754C77.2792 110.081 77.2728 110.366 77.2728 110.671V111.262C77.2728 111.457 77.3722 111.499 77.523 111.499H77.661C78.3444 111.499 78.6973 111.489 79.1241 111.438C79.185 111.428 79.2139 111.467 79.185 111.537L79.0567 111.855C79.0182 111.935 78.9893 111.935 78.8898 111.932C78.6011 111.91 78.0781 111.881 77.5936 111.881H77.5262C77.3754 111.881 77.276 111.919 77.276 112.118V112.789C77.276 113.094 77.276 113.373 77.2984 113.697C77.3145 113.902 77.4268 113.986 77.6835 113.986C78.2963 113.986 79.0246 113.937 79.7305 113.88C79.8107 113.87 79.8492 113.88 79.846 113.918L79.7561 114.322C79.7401 114.39 79.7401 114.412 79.6791 114.403C79.0759 114.364 78.6332 114.364 78.1551 114.364H78.1455L78.1423 114.358Z" fill="#010101"/>
<path d="M82.6085 112.009V111.464C82.6085 110.395 82.5924 109.782 82.5282 109.173C82.5186 109.105 82.5379 109.073 82.5956 109.073H82.8042C82.8812 109.073 82.9325 109.083 82.9838 109.141L86.6223 113.058V111.444C86.6223 110.655 86.6127 110.01 86.5742 109.073H87.126C87.0875 110.013 87.0779 110.655 87.0779 111.444V111.99C87.0779 113.058 87.094 113.671 87.1581 114.281C87.1677 114.348 87.1485 114.38 87.0907 114.38H86.8854C86.8084 114.38 86.7571 114.371 86.7057 114.313L83.0608 110.379V112.009C83.0608 112.798 83.0705 113.443 83.109 114.38H82.5571C82.5956 113.44 82.6052 112.798 82.6052 112.009H82.6085Z" fill="#010101"/>
<path d="M89.8594 111.836C89.8594 110.488 90.8059 108.958 92.824 108.958C93.6936 108.958 94.393 109.237 94.3385 109.404L94.1812 109.875C94.0144 110.398 93.9855 109.51 92.3556 109.51C91.2262 109.51 90.6262 110.222 90.6262 111.377C90.6262 113.074 91.9225 113.857 93.0743 113.857C93.2026 113.857 93.8251 113.745 94.2935 113.45C94.3545 113.411 94.4989 113.562 94.4508 113.629C94.1331 114.101 93.1353 114.508 92.9203 114.508C91.4283 114.508 89.8594 113.6 89.8594 111.839H89.8626L89.8594 111.836Z" fill="#010101"/>
<path d="M98.7858 114.358C98.2853 114.358 97.7078 114.358 97.0757 114.38C97.0981 113.947 97.1238 113.424 97.1238 112.811V110.645C97.1238 110.033 97.1014 109.51 97.0757 109.077C97.711 109.099 98.2821 109.099 98.7441 109.099C99.2061 109.099 99.742 109.099 100.352 109.06C100.429 109.051 100.441 109.077 100.429 109.141L100.339 109.526C100.329 109.564 100.31 109.574 100.226 109.564C99.5238 109.503 98.9013 109.465 98.3238 109.465C98.0671 109.465 97.9452 109.545 97.9388 109.754C97.9227 110.081 97.9163 110.366 97.9163 110.671V111.262C97.9163 111.457 98.0158 111.499 98.1666 111.499H98.3045C98.988 111.499 99.3409 111.489 99.7676 111.438C99.8286 111.428 99.8575 111.467 99.8286 111.537L99.7002 111.855C99.6617 111.935 99.6329 111.935 99.5334 111.932C99.2446 111.91 98.7216 111.881 98.2372 111.881H98.1698C98.019 111.881 97.9195 111.919 97.9195 112.118V112.789C97.9195 113.094 97.9195 113.373 97.942 113.697C97.958 113.902 98.0703 113.986 98.327 113.986C98.9398 113.986 99.6682 113.937 100.374 113.88C100.454 113.87 100.493 113.88 100.49 113.918L100.4 114.322C100.384 114.39 100.384 114.412 100.323 114.403C99.7195 114.364 99.2767 114.364 98.7987 114.364H98.789L98.7858 114.358Z" fill="#010101"/>
<path d="M102.845 113.995L102.922 113.69C103.101 113.029 103.21 114.008 104.59 114.008C105.293 114.008 105.649 113.681 105.649 113.219C105.649 112.814 105.36 112.635 104.876 112.34L104.025 111.826C103.252 111.355 102.947 111.027 102.947 110.501C102.947 109.609 103.81 108.958 104.773 108.958C105.363 108.958 106.069 109.202 106.024 109.362L105.909 109.718C105.732 110.289 105.604 109.442 104.465 109.442C103.852 109.442 103.576 109.75 103.576 110.155C103.576 110.498 103.781 110.7 104.288 111.005L105.177 111.541C105.95 112.012 106.262 112.343 106.262 112.875C106.262 113.793 105.334 114.505 104.327 114.505C103.676 114.505 102.784 114.217 102.845 113.998H102.841L102.845 113.995Z" fill="#010101"/>
<path d="M47.4562 111.656C48.592 111.656 49.0958 111.46 49.0958 110.665C49.0958 109.869 48.5503 109.429 47.8316 109.429C47.376 109.429 47.2284 109.535 47.2284 109.885V111.656H47.4658H47.4626H47.4562ZM46.4359 112.814V110.649C46.4359 110.036 46.4134 109.513 46.3878 109.08C47.0231 109.102 47.3567 109.064 48.0466 109.064C49.131 109.064 49.9235 109.519 49.9235 110.466C49.9235 111.329 49.2337 111.768 48.5888 111.839C48.807 111.99 49.0829 112.295 49.3492 112.603L50.1128 113.504C50.469 113.928 50.6647 114.156 50.8925 114.383H49.885L48.5054 112.648C48.0209 112.041 47.8156 111.983 47.2188 111.983V112.814C47.2188 113.427 47.2573 113.95 47.2701 114.383H46.3813C46.4038 113.95 46.4295 113.427 46.4295 112.814H46.4327H46.4359Z" fill="#010101"/>
<path d="M55.1857 114.358C54.6852 114.358 54.1077 114.358 53.4756 114.38C53.498 113.947 53.5237 113.424 53.5237 112.811V110.645C53.5237 110.033 53.5013 109.51 53.4756 109.077C54.1109 109.099 54.682 109.099 55.144 109.099C55.606 109.099 56.1419 109.099 56.7515 109.06C56.8285 109.051 56.8413 109.077 56.8285 109.141L56.7386 109.526C56.729 109.564 56.7098 109.574 56.6263 109.564C55.9237 109.503 55.3012 109.465 54.7237 109.465C54.467 109.465 54.3451 109.545 54.3387 109.754C54.3226 110.081 54.3162 110.366 54.3162 110.671V111.262C54.3162 111.457 54.4157 111.499 54.5665 111.499H54.7044C55.3879 111.499 55.7408 111.489 56.1675 111.438C56.2285 111.428 56.2574 111.467 56.2285 111.537L56.1002 111.855C56.0616 111.935 56.0328 111.935 55.9333 111.932C55.6445 111.91 55.1216 111.881 54.6371 111.881H54.5697C54.4189 111.881 54.3194 111.919 54.3194 112.118V112.789C54.3194 113.094 54.3194 113.373 54.3419 113.697C54.3579 113.902 54.4702 113.986 54.7269 113.986C55.3397 113.986 56.0681 113.937 56.7739 113.88C56.8541 113.87 56.8926 113.88 56.8894 113.918L56.7996 114.322C56.7836 114.39 56.7836 114.412 56.7226 114.403C56.1194 114.364 55.6766 114.364 55.1986 114.364H55.1889L55.1857 114.358Z" fill="#010101"/>
<path d="M59.2473 113.995L59.3244 113.69C59.504 113.029 59.6131 114.008 60.9928 114.008C61.6954 114.008 62.0516 113.681 62.0516 113.219C62.0516 112.814 61.7628 112.635 61.2783 112.34L60.4281 111.826C59.6548 111.355 59.35 111.027 59.35 110.501C59.35 109.609 60.2131 108.958 61.1757 108.958C61.766 108.958 62.4719 109.202 62.427 109.362L62.3115 109.718C62.135 110.289 62.0067 109.442 60.8676 109.442C60.2548 109.442 59.9789 109.75 59.9789 110.155C59.9789 110.498 60.1842 110.7 60.6912 111.005L61.5799 111.541C62.3532 112.012 62.6644 112.343 62.6644 112.875C62.6644 113.793 61.7372 114.505 60.7297 114.505C60.0784 114.505 59.1864 114.217 59.2473 113.998H59.2441L59.2473 113.995Z" fill="#010101"/>
<path d="M65.3721 112.811V110.646C65.3721 110.033 65.3433 109.51 65.3208 109.077H66.2128C66.1903 109.51 66.1614 110.033 66.1614 110.646V112.811C66.1614 113.424 66.1903 113.947 66.2128 114.38H65.3208C65.3433 113.947 65.3721 113.424 65.3721 112.811Z" fill="#010101"/>
<path d="M70.9331 114.027C72.3577 114.027 73.0699 113.325 73.0699 111.99C73.0699 110.588 72.2678 109.439 70.7149 109.439C70.24 109.439 70.0796 109.539 70.0796 109.872V113.568C70.0796 113.912 70.3074 114.03 70.9363 114.03H70.9331V114.027ZM69.2454 114.383C69.2679 113.95 69.2935 113.427 69.2935 112.814V110.649C69.2935 110.036 69.2711 109.513 69.2454 109.08C69.8807 109.102 70.6379 109.064 71.0325 109.064C72.9031 109.064 73.8592 110.148 73.8592 111.624C73.8592 113.1 72.8742 114.399 71.0229 114.399C70.6571 114.399 69.8775 114.361 69.2422 114.383H69.2454Z" fill="#010101"/>
<path d="M78.1423 114.358C77.6417 114.358 77.0642 114.358 76.4321 114.38C76.4546 113.947 76.4803 113.424 76.4803 112.811V110.645C76.4803 110.033 76.4578 109.51 76.4321 109.077C77.0674 109.099 77.6385 109.099 78.1006 109.099C78.5626 109.099 79.0984 109.099 79.708 109.06C79.785 109.051 79.7979 109.077 79.785 109.141L79.6952 109.526C79.6856 109.564 79.6663 109.574 79.5829 109.564C78.8802 109.503 78.2578 109.465 77.6802 109.465C77.4236 109.465 77.3016 109.545 77.2952 109.754C77.2792 110.081 77.2728 110.366 77.2728 110.671V111.262C77.2728 111.457 77.3722 111.499 77.523 111.499H77.661C78.3444 111.499 78.6973 111.489 79.1241 111.438C79.185 111.428 79.2139 111.467 79.185 111.537L79.0567 111.855C79.0182 111.935 78.9893 111.935 78.8898 111.932C78.6011 111.91 78.0781 111.881 77.5936 111.881H77.5262C77.3754 111.881 77.276 111.919 77.276 112.118V112.789C77.276 113.094 77.276 113.373 77.2984 113.697C77.3145 113.902 77.4268 113.986 77.6835 113.986C78.2963 113.986 79.0246 113.937 79.7305 113.88C79.8107 113.87 79.8492 113.88 79.846 113.918L79.7561 114.322C79.7401 114.39 79.7401 114.412 79.6791 114.403C79.0759 114.364 78.6332 114.364 78.1551 114.364H78.1455L78.1423 114.358Z" fill="#010101"/>
<path d="M82.6085 112.009V111.464C82.6085 110.395 82.5924 109.782 82.5282 109.173C82.5186 109.105 82.5379 109.073 82.5956 109.073H82.8042C82.8812 109.073 82.9325 109.083 82.9838 109.141L86.6223 113.058V111.444C86.6223 110.655 86.6127 110.01 86.5742 109.073H87.126C87.0875 110.013 87.0779 110.655 87.0779 111.444V111.99C87.0779 113.058 87.094 113.671 87.1581 114.281C87.1677 114.348 87.1485 114.38 87.0907 114.38H86.8854C86.8084 114.38 86.7571 114.371 86.7057 114.313L83.0608 110.379V112.009C83.0608 112.798 83.0705 113.443 83.109 114.38H82.5571C82.5956 113.44 82.6052 112.798 82.6052 112.009H82.6085Z" fill="#010101"/>
<path d="M89.8594 111.836C89.8594 110.488 90.8059 108.958 92.824 108.958C93.6936 108.958 94.393 109.237 94.3385 109.404L94.1812 109.875C94.0144 110.398 93.9855 109.51 92.3556 109.51C91.2262 109.51 90.6262 110.222 90.6262 111.377C90.6262 113.074 91.9225 113.857 93.0743 113.857C93.2026 113.857 93.8251 113.745 94.2935 113.45C94.3545 113.411 94.4989 113.562 94.4508 113.629C94.1331 114.101 93.1353 114.508 92.9203 114.508C91.4283 114.508 89.8594 113.6 89.8594 111.839H89.8626L89.8594 111.836Z" fill="#010101"/>
<path d="M98.7858 114.358C98.2853 114.358 97.7078 114.358 97.0757 114.38C97.0981 113.947 97.1238 113.424 97.1238 112.811V110.645C97.1238 110.033 97.1014 109.51 97.0757 109.077C97.711 109.099 98.2821 109.099 98.7441 109.099C99.2061 109.099 99.742 109.099 100.352 109.06C100.429 109.051 100.441 109.077 100.429 109.141L100.339 109.526C100.329 109.564 100.31 109.574 100.226 109.564C99.5238 109.503 98.9013 109.465 98.3238 109.465C98.0671 109.465 97.9452 109.545 97.9388 109.754C97.9227 110.081 97.9163 110.366 97.9163 110.671V111.262C97.9163 111.457 98.0158 111.499 98.1666 111.499H98.3045C98.988 111.499 99.3409 111.489 99.7676 111.438C99.8286 111.428 99.8575 111.467 99.8286 111.537L99.7002 111.855C99.6617 111.935 99.6329 111.935 99.5334 111.932C99.2446 111.91 98.7216 111.881 98.2372 111.881H98.1698C98.019 111.881 97.9195 111.919 97.9195 112.118V112.789C97.9195 113.094 97.9195 113.373 97.942 113.697C97.958 113.902 98.0703 113.986 98.327 113.986C98.9398 113.986 99.6682 113.937 100.374 113.88C100.454 113.87 100.493 113.88 100.49 113.918L100.4 114.322C100.384 114.39 100.384 114.412 100.323 114.403C99.7195 114.364 99.2767 114.364 98.7987 114.364H98.789L98.7858 114.358Z" fill="#010101"/>
<path d="M102.845 113.995L102.922 113.69C103.101 113.029 103.21 114.008 104.59 114.008C105.293 114.008 105.649 113.681 105.649 113.219C105.649 112.814 105.36 112.635 104.876 112.34L104.025 111.826C103.252 111.355 102.947 111.027 102.947 110.501C102.947 109.609 103.81 108.958 104.773 108.958C105.363 108.958 106.069 109.202 106.024 109.362L105.909 109.718C105.732 110.289 105.604 109.442 104.465 109.442C103.852 109.442 103.576 109.75 103.576 110.155C103.576 110.498 103.781 110.7 104.288 111.005L105.177 111.541C105.95 112.012 106.262 112.343 106.262 112.875C106.262 113.793 105.334 114.505 104.327 114.505C103.676 114.505 102.784 114.217 102.845 113.998H102.841L102.845 113.995Z" fill="#010101"/>
</svg>
